<svg  viewBox="0 0 840 3860" fill="none" xmlns="http://www.w3.org/2000/svg">
<path d="M0 0H139C141.761 0 144 2.23858 144 5V58H0V0Z" fill="url(#paint0_linear_233_3863)" style="mix-blend-mode:lighten"/>
<text fill="#D9E1FF" xml:space="preserve" style="white-space: pre" font-family="Mulish" font-size="32" font-weight="900" letter-spacing="0em"><tspan x="9" y="41.08">En 2020</tspan></text>
<path d="M0 58H835C837.761 58 840 60.2386 840 63V3855C840 3857.76 837.761 3860 835 3860H4.99998C2.23856 3860 0 3857.76 0 3855V58Z" fill="url(#paint1_linear_233_3863)"/>
<text fill="#DEE2E8" xml:space="preserve" style="white-space: pre" font-family="Mulish" font-size="24" font-weight="300" letter-spacing="0.06em"><tspan x="113.5" y="180.56">&#10;</tspan><tspan x="113.5" y="215.56">&#10;</tspan><tspan x="113.5" y="250.56">En 2020 el Hip-hop/Rap tom&#xf3; el protagonismo, </tspan><tspan x="113.5" y="285.56">mientras que el EDM cay&#xf3; en popularidad. Hubo </tspan><tspan x="113.5" y="320.56">m&#xe1;s variedad de artistas en el n&#xfa;mero 1, adem&#xe1;s </tspan><tspan x="113.5" y="355.56">de m&#xe1;s cantidad de canciones distintas en </tspan><tspan x="113.5" y="390.56">general.</tspan></text>
<rect x="134.5" y="489" width="571" height="302" rx="5" fill="#1A283D"/>
<rect x="134.5" y="489" width="571" height="302" rx="5" fill="url(#paint2_linear_233_3863)" fill-opacity="0.2"/>
<text fill="#DEE2E8" fill-opacity="0.8" xml:space="preserve" style="white-space: pre" font-family="Mulish" font-size="16" letter-spacing="0.025em"><tspan x="191.5" y="591.04">Canciones que </tspan><tspan x="191.5" y="613.04">llegaron a n&#xb0;1:</tspan></text>
<text fill="#DEE2E8" xml:space="preserve" style="white-space: pre" font-family="Mulish" font-size="96" font-weight="900" letter-spacing="0em"><tspan x="191.5" y="706.24">22</tspan></text>
<path d="M409.5 576.5C409.5 554.685 427.185 537 449 537C470.815 537 488.5 554.685 488.5 576.5C488.5 598.315 470.815 616 449 616C427.185 616 409.5 598.315 409.5 576.5ZM480.6 576.5C480.6 559.048 466.452 544.9 449 544.9C431.548 544.9 417.4 559.048 417.4 576.5C417.4 593.952 431.548 608.1 449 608.1C466.452 608.1 480.6 593.952 480.6 576.5Z" fill="#37405C"/>
<path d="M435.49 613.618C427.452 610.692 420.581 605.237 415.91 598.071C411.239 590.905 409.02 582.417 409.587 573.882L417.469 574.406C417.016 581.234 418.791 588.024 422.528 593.757C426.265 599.489 431.762 603.854 438.192 606.194L435.49 613.618Z" fill="url(#paint3_linear_233_3863)"/>
<text fill="#DEE2E8" xml:space="preserve" style="white-space: pre" font-family="Mulish" font-size="36" font-weight="900" letter-spacing="0em"><tspan x="499.5" y="564.09">24.4.5%</tspan></text>
<text fill="#DEE2E8" fill-opacity="0.8" xml:space="preserve" style="white-space: pre" font-family="Mulish" font-size="16" letter-spacing="0.025em"><tspan x="499.5" y="589.04">del total de </tspan><tspan x="499.5" y="611.04">canciones 2010</tspan></text>
<path d="M409.5 703.5C409.5 681.685 427.185 664 449 664C470.815 664 488.5 681.685 488.5 703.5C488.5 725.315 470.815 743 449 743C427.185 743 409.5 725.315 409.5 703.5ZM480.6 703.5C480.6 686.048 466.452 671.9 449 671.9C431.548 671.9 417.4 686.048 417.4 703.5C417.4 720.952 431.548 735.1 449 735.1C466.452 735.1 480.6 720.952 480.6 703.5Z" fill="#37405C"/>
<path d="M435.49 740.618C429.169 738.317 423.54 734.44 419.137 729.354C414.734 724.269 411.703 718.143 410.331 711.557C408.958 704.972 409.291 698.145 411.296 691.724C413.302 685.303 416.914 679.501 421.79 674.867C426.666 670.233 432.645 666.921 439.16 665.245C445.675 663.57 452.51 663.585 459.017 665.291C465.524 666.997 471.487 670.336 476.342 674.993C481.197 679.649 484.782 685.468 486.758 691.899L479.206 694.219C477.626 689.075 474.758 684.419 470.874 680.694C466.99 676.969 462.219 674.298 457.013 672.933C451.808 671.568 446.34 671.556 441.128 672.896C435.916 674.237 431.133 676.886 427.232 680.593C423.331 684.3 420.441 688.942 418.837 694.079C417.233 699.216 416.967 704.678 418.064 709.946C419.162 715.214 421.587 720.115 425.11 724.184C428.632 728.252 433.135 731.354 438.192 733.194L435.49 740.618Z" fill="url(#paint4_linear_233_3863)"/>
<text fill="#DEE2E8" xml:space="preserve" style="white-space: pre" font-family="Mulish" font-size="36" font-weight="900" letter-spacing="0em"><tspan x="504.5" y="691.09">31.8%</tspan></text>
<text fill="#DEE2E8" fill-opacity="0.8" xml:space="preserve" style="white-space: pre" font-family="Mulish" font-size="16" letter-spacing="0.025em"><tspan x="504.5" y="716.04">Estuvieron m&#xe1;s </tspan><tspan x="504.5" y="738.04">de una semana</tspan></text>
<rect x="134.5" y="815" width="571" height="302" rx="5" fill="#1A283D"/>
<rect x="134.5" y="815" width="571" height="302" rx="5" fill="url(#paint5_linear_233_3863)" fill-opacity="0.2"/>
<text fill="#DEE2E8" fill-opacity="0.8" xml:space="preserve" style="white-space: pre" font-family="Mulish" font-size="16" letter-spacing="0.025em"><tspan x="182.5" y="917.04">Artistas que llegaron </tspan><tspan x="182.5" y="939.04">a n&#xb0;1:</tspan></text>
<text fill="#DEE2E8" xml:space="preserve" style="white-space: pre" font-family="Mulish" font-size="96" font-weight="900" letter-spacing="0em"><tspan x="182.5" y="1032.24">18</tspan></text>
<path d="M400.5 902.5C400.5 880.685 418.185 863 440 863C461.815 863 479.5 880.685 479.5 902.5C479.5 924.315 461.815 942 440 942C418.185 942 400.5 924.315 400.5 902.5ZM471.6 902.5C471.6 885.048 457.452 870.9 440 870.9C422.548 870.9 408.4 885.048 408.4 902.5C408.4 919.952 422.548 934.1 440 934.1C457.452 934.1 471.6 919.952 471.6 902.5Z" fill="#37405C"/>
<path d="M426.49 939.618C419.724 937.155 413.76 932.89 409.242 927.283C404.724 921.676 401.825 914.941 400.858 907.806L408.686 906.745C409.46 912.453 411.78 917.841 415.394 922.326C419.008 926.812 423.779 930.224 429.192 932.194L426.49 939.618Z" fill="url(#paint6_linear_233_3863)"/>
<text fill="#DEE2E8" xml:space="preserve" style="white-space: pre" font-family="Mulish" font-size="36" font-weight="900" letter-spacing="0em"><tspan x="490.5" y="890.09">20%</tspan></text>
<text fill="#DEE2E8" fill-opacity="0.8" xml:space="preserve" style="white-space: pre" font-family="Mulish" font-size="16" letter-spacing="0.025em"><tspan x="490.5" y="915.04">del total de </tspan><tspan x="490.5" y="937.04">artistas 2010</tspan></text>
<path d="M400.5 1029.5C400.5 1007.68 418.185 990 440 990C461.815 990 479.5 1007.68 479.5 1029.5C479.5 1051.32 461.815 1069 440 1069C418.185 1069 400.5 1051.32 400.5 1029.5ZM471.6 1029.5C471.6 1012.05 457.452 997.9 440 997.9C422.548 997.9 408.4 1012.05 408.4 1029.5C408.4 1046.95 422.548 1061.1 440 1061.1C457.452 1061.1 471.6 1046.95 471.6 1029.5Z" fill="#37405C"/>
<path d="M426.49 1066.62C418.333 1063.65 411.38 1058.07 406.708 1050.76C402.036 1043.44 399.905 1034.79 400.643 1026.14C401.382 1017.49 404.949 1009.32 410.794 1002.91C416.639 996.487 424.435 992.172 432.978 990.629L434.382 998.403C427.548 999.638 421.311 1003.09 416.635 1008.22C411.959 1013.36 409.105 1019.89 408.515 1026.81C407.924 1033.73 409.629 1040.65 413.367 1046.51C417.104 1052.36 422.666 1056.82 429.192 1059.19L426.49 1066.62Z" fill="url(#paint7_linear_233_3863)"/>
<text fill="#DEE2E8" xml:space="preserve" style="white-space: pre" font-family="Mulish" font-size="36" font-weight="900" letter-spacing="0em"><tspan x="495.5" y="1017.09">16.6%</tspan></text>
<text fill="#DEE2E8" fill-opacity="0.8" xml:space="preserve" style="white-space: pre" font-family="Mulish" font-size="16" letter-spacing="0.025em"><tspan x="495.5" y="1042.04">Tuvieron m&#xe1;s de una </tspan><tspan x="495.5" y="1064.04">cani&#xf3;n en el n&#xb0;1</tspan></text>
<path d="M323 1207L517 1207" stroke="#C57AFF" stroke-opacity="0.15" stroke-linecap="round"/>
<text fill="#DEE2E8" xml:space="preserve" style="white-space: pre" font-family="Mulish" font-size="36" font-weight="900" letter-spacing="0em"><tspan x="115" y="1333.09">Distribucion de generos </tspan><tspan x="115" y="1378.09">musicales, 2010</tspan></text>
<rect x="96" y="1477" width="648" height="682" rx="5" fill="#1A283D"/>
<rect x="96" y="1477" width="648" height="682" rx="5" fill="url(#paint8_linear_233_3863)" fill-opacity="0.2"/>
<path d="M414.872 1818.08L206.005 1818.08" stroke="#B2B0FF"/>
<path d="M414.873 1818.08L267.182 1670.65" stroke="#B2B0FF"/>
<path d="M414.871 1818.08L414.871 1609.59" stroke="#B2B0FF"/>
<path d="M414.871 1818.08L562.562 1670.65" stroke="#B2B0FF"/>
<path d="M414.871 1818.08L623.738 1818.08" stroke="#B2B0FF"/>
<path d="M414.871 1818.08L562.562 1965.51" stroke="#B2B0FF"/>
<path d="M414.871 1818.08L414.871 2026.58" stroke="#B2B0FF"/>
<path d="M414.873 1818.08L267.182 1965.51" stroke="#B2B0FF"/>
<path d="M414.871 1783.33C410.299 1783.33 405.773 1784.23 401.549 1785.98C397.326 1787.72 393.488 1790.28 390.256 1793.51C383.727 1800.03 380.06 1808.86 380.06 1818.08C380.06 1827.3 383.727 1836.14 390.256 1842.65C396.784 1849.17 405.638 1852.83 414.871 1852.83C424.103 1852.83 432.958 1849.17 439.486 1842.65C446.014 1836.14 449.682 1827.3 449.682 1818.08C449.682 1808.86 446.014 1800.03 439.486 1793.51C432.958 1786.99 424.103 1783.33 414.871 1783.33V1783.33Z" stroke="#B2B0FF"/>
<path d="M414.871 1748.58C405.728 1748.58 396.675 1750.38 388.228 1753.87C379.781 1757.36 372.106 1762.48 365.641 1768.94C352.584 1781.97 345.249 1799.65 345.249 1818.08C345.249 1836.51 352.584 1854.19 365.641 1867.22C378.698 1880.26 396.406 1887.58 414.871 1887.58C433.336 1887.58 451.045 1880.26 464.102 1867.22C477.159 1854.19 484.494 1836.51 484.494 1818.08C484.494 1799.65 477.159 1781.97 464.102 1768.94C451.045 1755.9 433.336 1748.58 414.871 1748.58V1748.58Z" stroke="#B2B0FF"/>
<path d="M414.869 1713.83C401.155 1713.83 387.575 1716.53 374.904 1721.77C362.234 1727.01 350.721 1734.69 341.023 1744.37C321.438 1763.92 310.436 1790.43 310.436 1818.08C310.436 1845.73 321.438 1872.25 341.023 1891.8C360.608 1911.35 387.172 1922.33 414.869 1922.33C442.567 1922.33 469.13 1911.35 488.715 1891.8C508.3 1872.25 519.303 1845.73 519.303 1818.08C519.303 1790.43 508.3 1763.92 488.715 1744.37C469.13 1724.82 442.567 1713.83 414.869 1713.83V1713.83Z" stroke="#B2B0FF"/>
<path d="M414.872 1679.08C396.586 1679.08 378.479 1682.68 361.585 1689.66C344.691 1696.65 329.341 1706.88 316.411 1719.79C290.297 1745.86 275.627 1781.21 275.627 1818.08C275.627 1854.94 290.297 1890.3 316.411 1916.37C342.524 1942.43 377.942 1957.08 414.872 1957.08C451.802 1957.08 487.219 1942.43 513.332 1916.37C539.446 1890.3 554.116 1854.94 554.116 1818.08C554.116 1781.21 539.446 1745.86 513.332 1719.79C487.219 1693.72 451.802 1679.08 414.872 1679.08V1679.08Z" stroke="#B2B0FF"/>
<path d="M414.871 1644.33C392.014 1644.33 369.38 1648.83 348.263 1657.56C327.146 1666.29 307.958 1679.09 291.795 1695.22C259.153 1727.81 240.815 1772 240.815 1818.08C240.815 1864.16 259.153 1908.36 291.795 1940.94C324.437 1973.52 368.709 1991.83 414.871 1991.83C461.034 1991.83 505.305 1973.52 537.947 1940.94C570.589 1908.36 588.927 1864.16 588.927 1818.08C588.927 1772 570.589 1727.81 537.947 1695.22C505.305 1662.64 461.034 1644.33 414.871 1644.33V1644.33Z" stroke="#B2B0FF"/>
<path d="M206 1824.41L341.567 1750.24L415.712 1702.04L564.001 1676.07L485.615 1824.41L428.073 1836.77L415.712 1841.89L391.001 1849.13L206 1824.41Z" fill="url(#paint9_linear_233_3863)"/>
<path d="M206 1824.41L341.567 1750.24L415.712 1702.04L564.001 1676.07L485.615 1824.41L428.073 1836.77L415.712 1841.89L391.001 1849.13L206 1824.41Z" fill="url(#paint10_linear_233_3863)"/>
<path d="M206 1824.41L341.567 1750.24L415.712 1702.04L564.001 1676.07L485.615 1824.41L428.073 1836.77L415.712 1841.89L391.001 1849.13L206 1824.41Z" fill="url(#paint11_linear_233_3863)"/>
<path d="M206 1824.41L341.567 1750.24L415.712 1702.04L564.001 1676.07L485.615 1824.41L428.073 1836.77L415.712 1841.89L391.001 1849.13L206 1824.41Z" fill="url(#paint12_linear_233_3863)"/>
<path d="M206 1824.41L341.567 1750.24L415.712 1702.04L564.001 1676.07L485.615 1824.41L428.073 1836.77L415.712 1841.89L391.001 1849.13L206 1824.41Z" fill="url(#paint13_linear_233_3863)"/>
<path d="M206 1824.41L341.567 1750.24L415.712 1702.04L564.001 1676.07L485.615 1824.41L428.073 1836.77L415.712 1841.89L391.001 1849.13L206 1824.41Z" fill="url(#paint14_linear_233_3863)"/>
<path d="M206 1824.41L341.567 1750.24L415.712 1702.04L564.001 1676.07L485.615 1824.41L428.073 1836.77L415.712 1841.89L391.001 1849.13L206 1824.41Z" fill="url(#paint15_linear_233_3863)" fill-opacity="0.2"/>
<path d="M206 1824.41L341.567 1750.24L415.712 1702.04L564.001 1676.07L485.615 1824.41L428.073 1836.77L415.712 1841.89L391.001 1849.13L206 1824.41Z" fill="url(#paint16_linear_233_3863)" fill-opacity="0.2"/>
<path d="M206 1824.41L341.567 1750.24L415.712 1702.04L564.001 1676.07L485.615 1824.41L428.073 1836.77L415.712 1841.89L391.001 1849.13L206 1824.41Z" stroke="#DEE2E8" stroke-width="2" stroke-miterlimit="2"/>
<path d="M414.871 1609.58C387.442 1609.58 360.282 1614.97 334.941 1625.45C309.6 1635.93 286.575 1651.29 267.18 1670.65C228.009 1709.75 206.004 1762.78 206.004 1818.08C206.004 1873.38 228.009 1926.41 267.18 1965.51C306.35 2004.61 359.476 2026.58 414.871 2026.58C470.266 2026.58 523.392 2004.61 562.562 1965.51C601.732 1926.41 623.738 1873.38 623.738 1818.08C623.738 1762.78 601.732 1709.75 562.562 1670.65C523.392 1631.55 470.266 1609.58 414.871 1609.58V1609.58Z" stroke="#B2B0FF"/>
<path d="M412.423 1816.91L516.672 1997.47" stroke="#DEE2E8"/>
<text transform="translate(407.479 1815.08) rotate(60)" fill="#DEE2E8" xml:space="preserve" style="white-space: pre" font-family="Open Sans" font-size="12" letter-spacing="0em"><tspan x="0.620571" y="12.6553">0</tspan></text>
<text transform="translate(424.854 1845.18) rotate(60)" fill="#DEE2E8" xml:space="preserve" style="white-space: pre" font-family="Open Sans" font-size="12" letter-spacing="0em"><tspan x="0.620527" y="12.6553">2</tspan></text>
<text transform="translate(442.23 1875.27) rotate(60)" fill="#DEE2E8" xml:space="preserve" style="white-space: pre" font-family="Open Sans" font-size="12" letter-spacing="0em"><tspan x="0.620549" y="12.6553">4</tspan></text>
<text transform="translate(459.604 1905.37) rotate(60)" fill="#DEE2E8" xml:space="preserve" style="white-space: pre" font-family="Open Sans" font-size="12" letter-spacing="0em"><tspan x="0.620593" y="12.6553">6</tspan></text>
<text transform="translate(476.979 1935.46) rotate(60)" fill="#DEE2E8" xml:space="preserve" style="white-space: pre" font-family="Open Sans" font-size="12" letter-spacing="0em"><tspan x="0.620505" y="12.6553">8</tspan></text>
<text transform="translate(492.326 1962.04) rotate(60)" fill="#DEE2E8" xml:space="preserve" style="white-space: pre" font-family="Open Sans" font-size="12" letter-spacing="0em"><tspan x="4.3831" y="12.6553">10</tspan></text>
<text transform="translate(510.343 1992.24) rotate(60)" fill="#DEE2E8" xml:space="preserve" style="white-space: pre" font-family="Open Sans" font-size="12" letter-spacing="0em"><tspan x="9.60723" y="12.6553">12</tspan></text>
<rect width="134" height="44" transform="translate(560.5 1611)" fill="#FBCB6E"/>
<text fill="#050505" xml:space="preserve" style="white-space: pre" font-family="Mulish" font-size="30" font-weight="900" letter-spacing="0.005em"><tspan x="563.5" y="1644.33">Hip-Hop</tspan></text>
<rect width="65" height="44" transform="translate(125.074 1796.46)" fill="#FFA9B8"/>
<text fill="#050505" xml:space="preserve" style="white-space: pre" font-family="Mulish" font-size="30" font-weight="900" letter-spacing="0.005em"><tspan x="128.074" y="1829.79">Pop</tspan></text>
<rect width="74" height="44" transform="translate(187.144 1622)" fill="#957AFF"/>
<text fill="#050505" xml:space="preserve" style="white-space: pre" font-family="Mulish" font-size="30" font-weight="900" letter-spacing="0.005em"><tspan x="190.144" y="1655.33">EDM</tspan></text>
<rect width="69" height="44" transform="translate(190.5 1971)" fill="#A0FF73"/>
<text fill="#050505" xml:space="preserve" style="white-space: pre" font-family="Mulish" font-size="30" font-weight="900" letter-spacing="0.005em"><tspan x="193.5" y="2004.33">Folk</tspan></text>
<rect width="164" height="44" transform="translate(336.093 2039.17)" fill="#00FFB2"/>
<text fill="#050505" xml:space="preserve" style="white-space: pre" font-family="Mulish" font-size="30" font-weight="900" letter-spacing="0.005em"><tspan x="342.093" y="2072.49">Christmas</tspan></text>
<rect width="120" height="44" transform="translate(574.5 1982)" fill="#9FD8F8"/>
<text fill="#050505" xml:space="preserve" style="white-space: pre" font-family="Mulish" font-size="30" font-weight="900" letter-spacing="0.005em"><tspan x="577.5" y="2015.33">Reagge</tspan></text>
<rect width="71" height="44" transform="translate(379.144 1552.83)" fill="#B8FF20"/>
<text fill="#050505" xml:space="preserve" style="white-space: pre" font-family="Mulish" font-size="30" font-weight="900" letter-spacing="0.005em"><tspan x="382.144" y="1586.16">R&#38;B</tspan></text>
<rect width="80" height="44" transform="translate(634.925 1804.94)" fill="#FF6939"/>
<text fill="#050505" xml:space="preserve" style="white-space: pre" font-family="Mulish" font-size="30" font-weight="900" letter-spacing="0.005em"><tspan x="637.925" y="1838.26">Rock</tspan></text>
<path d="M323 2249L517 2249" stroke="#C57AFF" stroke-opacity="0.15" stroke-linecap="round"/>
<text fill="#DEE2E8" xml:space="preserve" style="white-space: pre" font-family="Mulish" font-size="36" font-weight="900" letter-spacing="0em"><tspan x="119.5" y="2375.09">Resumen de los g&#xe9;neros </tspan><tspan x="119.5" y="2420.09">musicales m&#xe1;s populares, 2010</tspan></text>
<rect x="115.5" y="2519" width="609" height="300" rx="5" fill="#1A283D"/>
<rect x="115.5" y="2519" width="609" height="300" rx="5" fill="url(#paint17_linear_233_3863)" fill-opacity="0.2"/>
<text fill="#FBCB6E" xml:space="preserve" style="white-space: pre" font-family="Mulish" font-size="28" font-weight="800" letter-spacing="0.025em"><tspan x="163.5" y="2597.07">Hip-Hop</tspan></text>
<text fill="#DEE2E8" xml:space="preserve" style="white-space: pre" font-family="Mulish" font-size="60" font-weight="900" letter-spacing="0em"><tspan x="163.5" y="2671.15">12</tspan></text>
<text fill="#DEE2E8" xml:space="preserve" style="white-space: pre" font-family="Mulish" font-size="30" letter-spacing="0.025em"><tspan x="163.5" y="2719.33">Canciones </tspan><tspan x="163.5" y="2761.32">en el n&#xb0;1</tspan></text>
<text fill="#DEE2E8" xml:space="preserve" style="white-space: pre" font-family="Mulish" font-size="60" font-weight="900" letter-spacing="0em"><tspan x="468.5" y="2671.15">54.6%</tspan></text>
<text fill="#DEE2E8" xml:space="preserve" style="white-space: pre" font-family="Mulish" font-size="30" letter-spacing="0.025em"><tspan x="468.5" y="2719.33">de las </tspan><tspan x="468.5" y="2761.32">canciones n&#xb0;1</tspan></text>
<rect x="115.5" y="2843" width="609" height="273" rx="5" fill="#1A283D"/>
<rect x="115.5" y="2843" width="609" height="273" rx="5" fill="url(#paint18_linear_233_3863)" fill-opacity="0.2"/>
<text fill="#FFA9B8" xml:space="preserve" style="white-space: pre" font-family="Mulish" font-size="28" font-weight="800" letter-spacing="0.025em"><tspan x="163.5" y="2921.07">Pop</tspan></text>
<text fill="#DEE2E8" xml:space="preserve" style="white-space: pre" font-family="Mulish" font-size="60" font-weight="900" letter-spacing="0em"><tspan x="163.5" y="2995.15">12</tspan></text>
<text fill="#DEE2E8" xml:space="preserve" style="white-space: pre" font-family="Mulish" font-size="30" letter-spacing="0.025em"><tspan x="163.5" y="3043.33">Canciones </tspan><tspan x="163.5" y="3085.32">en el n&#xb0;1</tspan></text>
<text fill="#DEE2E8" xml:space="preserve" style="white-space: pre" font-family="Mulish" font-size="60" font-weight="900" letter-spacing="0em"><tspan x="467.5" y="2995.15">51.6%</tspan></text>
<text fill="#DEE2E8" xml:space="preserve" style="white-space: pre" font-family="Mulish" font-size="30" letter-spacing="0.025em"><tspan x="467.5" y="3043.33">de las </tspan><tspan x="467.5" y="3085.32">canciones n&#xb0;1</tspan></text>
<rect x="115.5" y="3140" width="609" height="300" rx="5" fill="#1A283D"/>
<rect x="115.5" y="3140" width="609" height="300" rx="5" fill="url(#paint19_linear_233_3863)" fill-opacity="0.2"/>
<text fill="#B8FF20" xml:space="preserve" style="white-space: pre" font-family="Mulish" font-size="28" font-weight="800" letter-spacing="0.025em"><tspan x="163.5" y="3218.07">R&#38;B</tspan></text>
<text fill="#DEE2E8" xml:space="preserve" style="white-space: pre" font-family="Mulish" font-size="60" font-weight="900" letter-spacing="0em"><tspan x="163.5" y="3292.15">7</tspan></text>
<text fill="#DEE2E8" xml:space="preserve" style="white-space: pre" font-family="Mulish" font-size="30" letter-spacing="0.025em"><tspan x="163.5" y="3340.33">Canciones </tspan><tspan x="163.5" y="3382.32">en el n&#xb0;1</tspan></text>
<text fill="#DEE2E8" xml:space="preserve" style="white-space: pre" font-family="Mulish" font-size="60" font-weight="900" letter-spacing="0em"><tspan x="459.5" y="3292.15">31.8%</tspan></text>
<text fill="#DEE2E8" xml:space="preserve" style="white-space: pre" font-family="Mulish" font-size="30" letter-spacing="0.025em"><tspan x="459.5" y="3340.33">de las </tspan><tspan x="459.5" y="3382.32">canciones n&#xb0;1</tspan></text>
<rect x="115.5" y="3464" width="609" height="300" rx="5" fill="#1A283D"/>
<rect x="115.5" y="3464" width="609" height="300" rx="5" fill="url(#paint20_linear_233_3863)" fill-opacity="0.2"/>
<text fill="#957AFF" xml:space="preserve" style="white-space: pre" font-family="Mulish" font-size="28" font-weight="800" letter-spacing="0.025em"><tspan x="163.5" y="3542.07">EDM</tspan></text>
<text fill="#DEE2E8" xml:space="preserve" style="white-space: pre" font-family="Mulish" font-size="60" font-weight="900" letter-spacing="0em"><tspan x="163.5" y="3616.15">6</tspan></text>
<text fill="#DEE2E8" xml:space="preserve" style="white-space: pre" font-family="Mulish" font-size="30" letter-spacing="0.025em"><tspan x="163.5" y="3664.33">Canciones </tspan><tspan x="163.5" y="3706.32">en el n&#xb0;1</tspan></text>
<text fill="#DEE2E8" xml:space="preserve" style="white-space: pre" font-family="Mulish" font-size="60" font-weight="900" letter-spacing="0em"><tspan x="462.5" y="3616.15">27.2%</tspan></text>
<text fill="#DEE2E8" xml:space="preserve" style="white-space: pre" font-family="Mulish" font-size="30" letter-spacing="0.025em"><tspan x="462.5" y="3664.33">de las </tspan><tspan x="462.5" y="3706.32">canciones n&#xb0;1</tspan></text>
<defs>
<linearGradient id="paint0_linear_233_3863" x1="62.4" y1="-8.55913" x2="69.6399" y2="64.9416" gradientUnits="userSpaceOnUse">
<stop stop-color="#280EC6"/>
<stop offset="1" stop-color="#370C93"/>
</linearGradient>
<linearGradient id="paint1_linear_233_3863" x1="420" y1="58" x2="420" y2="3860" gradientUnits="userSpaceOnUse">
<stop stop-color="#07091D"/>
<stop offset="1" stop-color="#111D32"/>
<stop offset="1" stop-color="#111D32"/>
</linearGradient>
<linearGradient id="paint2_linear_233_3863" x1="420" y1="489" x2="420" y2="791" gradientUnits="userSpaceOnUse">
<stop stop-color="#0B1131"/>
<stop offset="1" stop-color="#334F79"/>
</linearGradient>
<linearGradient id="paint3_linear_233_3863" x1="447.937" y1="616" x2="447.937" y2="533.958" gradientUnits="userSpaceOnUse">
<stop stop-color="#3D6DF2"/>
<stop offset="0.0001" stop-color="#3E68E0"/>
<stop offset="0.484375" stop-color="#245EF3"/>
<stop offset="1" stop-color="#3558D3"/>
</linearGradient>
<linearGradient id="paint4_linear_233_3863" x1="447.937" y1="743" x2="447.937" y2="660.958" gradientUnits="userSpaceOnUse">
<stop stop-color="#3D6DF2"/>
<stop offset="0.0001" stop-color="#3E68E0"/>
<stop offset="0.484375" stop-color="#245EF3"/>
<stop offset="1" stop-color="#3558D3"/>
</linearGradient>
<linearGradient id="paint5_linear_233_3863" x1="420" y1="815" x2="420" y2="1117" gradientUnits="userSpaceOnUse">
<stop stop-color="#0B1131"/>
<stop offset="1" stop-color="#334F79"/>
</linearGradient>
<linearGradient id="paint6_linear_233_3863" x1="438.937" y1="942" x2="438.937" y2="859.958" gradientUnits="userSpaceOnUse">
<stop stop-color="#3D6DF2"/>
<stop offset="0.0001" stop-color="#3E68E0"/>
<stop offset="0.484375" stop-color="#245EF3"/>
<stop offset="1" stop-color="#3558D3"/>
</linearGradient>
<linearGradient id="paint7_linear_233_3863" x1="438.937" y1="1069" x2="438.937" y2="986.958" gradientUnits="userSpaceOnUse">
<stop stop-color="#3D6DF2"/>
<stop offset="0.0001" stop-color="#3E68E0"/>
<stop offset="0.484375" stop-color="#245EF3"/>
<stop offset="1" stop-color="#3558D3"/>
</linearGradient>
<linearGradient id="paint8_linear_233_3863" x1="420" y1="1477" x2="420" y2="2159" gradientUnits="userSpaceOnUse">
<stop stop-color="#0B1131"/>
<stop offset="1" stop-color="#334F79"/>
</linearGradient>
<linearGradient id="paint9_linear_233_3863" x1="194.083" y1="1825.84" x2="472.116" y2="1742.27" gradientUnits="userSpaceOnUse">
<stop offset="0.0679979" stop-color="#FCB1C8"/>
<stop offset="1" stop-color="#FCB1C8" stop-opacity="0"/>
</linearGradient>
<linearGradient id="paint10_linear_233_3863" x1="337.716" y1="1693.77" x2="471.979" y2="1949.63" gradientUnits="userSpaceOnUse">
<stop stop-color="#C593EC"/>
<stop offset="1" stop-color="#C593EC" stop-opacity="0"/>
</linearGradient>
<linearGradient id="paint11_linear_233_3863" x1="505.81" y1="1682.11" x2="455.865" y2="1790.36" gradientUnits="userSpaceOnUse">
<stop stop-color="#DAFA17"/>
<stop offset="1" stop-color="#DAFA17" stop-opacity="0"/>
</linearGradient>
<linearGradient id="paint12_linear_233_3863" x1="627.49" y1="1816.96" x2="417.569" y2="1747.59" gradientUnits="userSpaceOnUse">
<stop offset="0.142852" stop-color="#FFD78A"/>
<stop offset="1" stop-color="#FFD78A" stop-opacity="0"/>
</linearGradient>
<linearGradient id="paint13_linear_233_3863" x1="206" y1="1777.04" x2="483.662" y2="2034.06" gradientUnits="userSpaceOnUse">
<stop offset="0.389824" stop-color="#FF8383" stop-opacity="0"/>
<stop offset="0.875061" stop-color="#FF8383"/>
</linearGradient>
<linearGradient id="paint14_linear_233_3863" x1="405.455" y1="1995.65" x2="482.589" y2="1759.75" gradientUnits="userSpaceOnUse">
<stop stop-color="#9FD8F8"/>
<stop offset="0.734728" stop-color="#9FD8F8" stop-opacity="0"/>
</linearGradient>
<linearGradient id="paint15_linear_233_3863" x1="414.539" y1="1961.8" x2="424.919" y2="1754.8" gradientUnits="userSpaceOnUse">
<stop stop-color="#00FFB2"/>
<stop offset="1" stop-color="#39D8A8" stop-opacity="0.11"/>
</linearGradient>
<linearGradient id="paint16_linear_233_3863" x1="356.53" y1="1909.9" x2="468.884" y2="1712.67" gradientUnits="userSpaceOnUse">
<stop stop-color="#A0FF73"/>
<stop offset="1" stop-color="#A0FF73"/>
</linearGradient>
<linearGradient id="paint17_linear_233_3863" x1="420" y1="2519" x2="420" y2="2819" gradientUnits="userSpaceOnUse">
<stop stop-color="#0B1131"/>
<stop offset="1" stop-color="#334F79"/>
</linearGradient>
<linearGradient id="paint18_linear_233_3863" x1="420" y1="2843" x2="420" y2="3116" gradientUnits="userSpaceOnUse">
<stop stop-color="#0B1131"/>
<stop offset="1" stop-color="#334F79"/>
</linearGradient>
<linearGradient id="paint19_linear_233_3863" x1="420" y1="3140" x2="420" y2="3440" gradientUnits="userSpaceOnUse">
<stop stop-color="#0B1131"/>
<stop offset="1" stop-color="#334F79"/>
</linearGradient>
<linearGradient id="paint20_linear_233_3863" x1="420" y1="3464" x2="420" y2="3764" gradientUnits="userSpaceOnUse">
<stop stop-color="#0B1131"/>
<stop offset="1" stop-color="#334F79"/>
</linearGradient>
</defs>
</svg>
