<svg width="840" height="3882" viewBox="0 0 840 3882" fill="none" xmlns="http://www.w3.org/2000/svg">
<path d="M0 0H139C141.761 0 144 2.23858 144 5V58H0V0Z" fill="url(#paint0_linear_233_3671)" style="mix-blend-mode:lighten"/>
<text fill="#FFBEA1" xml:space="preserve" style="white-space: pre" font-family="Mulish" font-size="32" font-weight="900" letter-spacing="0em"><tspan x="9" y="41.08">En 2010</tspan></text>
<path d="M0 58H835C837.761 58 840 60.2386 840 63V3877C840 3879.76 837.761 3882 835 3882H4.99998C2.23856 3882 0 3879.76 0 3877V58Z" fill="url(#paint1_linear_233_3671)"/>
<text fill="#DEE2E8" xml:space="preserve" style="white-space: pre" font-family="Mulish" font-size="24" font-weight="300" letter-spacing="0.06em"><tspan x="113.5" y="180.56">&#10;</tspan><tspan x="113.5" y="215.56">&#10;</tspan><tspan x="113.5" y="250.56">En 2010, el pop y el EDM dominaron la muestra. </tspan><tspan x="113.5" y="285.56">En espec&#xed;fico, la combinaci&#xf3;n de ambos en </tspan><tspan x="113.5" y="320.56">subg&#xe9;neros como el dance-pop o electro-pop. </tspan><tspan x="113.5" y="355.56">Casi la mitad de los artistas tuvieron m&#xe1;s de una </tspan><tspan x="113.5" y="390.56">canci&#xf3;n en el r&#xe1;nking.</tspan></text>
<rect x="134.5" y="489" width="571" height="302" rx="5" fill="#1A283D"/>
<rect x="134.5" y="489" width="571" height="302" rx="5" fill="url(#paint2_linear_233_3671)" fill-opacity="0.2"/>
<text fill="#DEE2E8" fill-opacity="0.8" xml:space="preserve" style="white-space: pre" font-family="Mulish" font-size="16" letter-spacing="0.025em"><tspan x="191.5" y="591.04">Canciones que </tspan><tspan x="191.5" y="613.04">llegaron a n&#xb0;1:</tspan></text>
<text fill="#DEE2E8" xml:space="preserve" style="white-space: pre" font-family="Mulish" font-size="96" font-weight="900" letter-spacing="0em"><tspan x="191.5" y="706.24">17</tspan></text>
<path d="M409.5 576.5C409.5 554.685 427.185 537 449 537C470.815 537 488.5 554.685 488.5 576.5C488.5 598.315 470.815 616 449 616C427.185 616 409.5 598.315 409.5 576.5ZM480.6 576.5C480.6 559.048 466.452 544.9 449 544.9C431.548 544.9 417.4 559.048 417.4 576.5C417.4 593.952 431.548 608.1 449 608.1C466.452 608.1 480.6 593.952 480.6 576.5Z" fill="#37405C"/>
<path d="M435.49 613.618C427.452 610.692 420.581 605.237 415.91 598.071C411.239 590.905 409.02 582.417 409.587 573.882L417.469 574.406C417.016 581.234 418.791 588.024 422.528 593.757C426.265 599.489 431.762 603.854 438.192 606.194L435.49 613.618Z" fill="url(#paint3_linear_233_3671)"/>
<text fill="#DEE2E8" xml:space="preserve" style="white-space: pre" font-family="Mulish" font-size="36" font-weight="900" letter-spacing="0em"><tspan x="499.5" y="564.09">20.5%</tspan></text>
<text fill="#DEE2E8" fill-opacity="0.8" xml:space="preserve" style="white-space: pre" font-family="Mulish" font-size="16" letter-spacing="0.025em"><tspan x="499.5" y="589.04">del total de </tspan><tspan x="499.5" y="611.04">canciones 2010</tspan></text>
<path d="M409.5 703.5C409.5 681.685 427.185 664 449 664C470.815 664 488.5 681.685 488.5 703.5C488.5 725.315 470.815 743 449 743C427.185 743 409.5 725.315 409.5 703.5ZM480.6 703.5C480.6 686.048 466.452 671.9 449 671.9C431.548 671.9 417.4 686.048 417.4 703.5C417.4 720.952 431.548 735.1 449 735.1C466.452 735.1 480.6 720.952 480.6 703.5Z" fill="#37405C"/>
<path d="M435.49 740.618C429.169 738.317 423.54 734.44 419.137 729.354C414.734 724.269 411.703 718.143 410.331 711.557C408.958 704.972 409.291 698.145 411.296 691.724C413.302 685.303 416.914 679.501 421.79 674.867C426.666 670.233 432.645 666.921 439.16 665.245C445.675 663.57 452.51 663.585 459.017 665.291C465.524 666.997 471.487 670.336 476.342 674.993C481.197 679.649 484.782 685.468 486.758 691.899L479.206 694.219C477.626 689.075 474.758 684.419 470.874 680.694C466.99 676.969 462.219 674.298 457.013 672.933C451.808 671.568 446.34 671.556 441.128 672.896C435.916 674.237 431.133 676.886 427.232 680.593C423.331 684.3 420.441 688.942 418.837 694.079C417.233 699.216 416.967 704.678 418.064 709.946C419.162 715.214 421.587 720.115 425.11 724.184C428.632 728.252 433.135 731.354 438.192 733.194L435.49 740.618Z" fill="url(#paint4_linear_233_3671)"/>
<text fill="#DEE2E8" xml:space="preserve" style="white-space: pre" font-family="Mulish" font-size="36" font-weight="900" letter-spacing="0em"><tspan x="504.5" y="691.09">64.7%</tspan></text>
<text fill="#DEE2E8" fill-opacity="0.8" xml:space="preserve" style="white-space: pre" font-family="Mulish" font-size="16" letter-spacing="0.025em"><tspan x="504.5" y="716.04">Estuvieron m&#xe1;s </tspan><tspan x="504.5" y="738.04">de una semana</tspan></text>
<rect x="134.5" y="815" width="561" height="324" rx="5" fill="#1A283D"/>
<rect x="134.5" y="815" width="561" height="324" rx="5" fill="url(#paint5_linear_233_3671)" fill-opacity="0.2"/>
<text fill="#DEE2E8" fill-opacity="0.8" xml:space="preserve" style="white-space: pre" font-family="Mulish" font-size="16" letter-spacing="0.025em"><tspan x="182.5" y="928.04">Artistas que llegaron </tspan><tspan x="182.5" y="950.04">a n&#xb0;1:</tspan></text>
<text fill="#DEE2E8" xml:space="preserve" style="white-space: pre" font-family="Mulish" font-size="96" font-weight="900" letter-spacing="0em"><tspan x="182.5" y="1043.24">12</tspan></text>
<path d="M400.5 902.5C400.5 880.685 418.185 863 440 863C461.815 863 479.5 880.685 479.5 902.5C479.5 924.315 461.815 942 440 942C418.185 942 400.5 924.315 400.5 902.5ZM471.6 902.5C471.6 885.048 457.452 870.9 440 870.9C422.548 870.9 408.4 885.048 408.4 902.5C408.4 919.952 422.548 934.1 440 934.1C457.452 934.1 471.6 919.952 471.6 902.5Z" fill="#37405C"/>
<path d="M426.49 939.618C419.724 937.155 413.76 932.89 409.242 927.283C404.724 921.676 401.825 914.941 400.858 907.806L408.686 906.745C409.46 912.453 411.78 917.841 415.394 922.326C419.008 926.812 423.779 930.224 429.192 932.194L426.49 939.618Z" fill="url(#paint6_linear_233_3671)"/>
<text fill="#DEE2E8" xml:space="preserve" style="white-space: pre" font-family="Mulish" font-size="36" font-weight="900" letter-spacing="0em"><tspan x="490.5" y="890.09">17.3%</tspan></text>
<text fill="#DEE2E8" fill-opacity="0.8" xml:space="preserve" style="white-space: pre" font-family="Mulish" font-size="16" letter-spacing="0.025em"><tspan x="490.5" y="915.04">del total de </tspan><tspan x="490.5" y="937.04">artistas 2010</tspan></text>
<path d="M400.5 1029.5C400.5 1007.68 418.185 990 440 990C461.815 990 479.5 1007.68 479.5 1029.5C479.5 1051.32 461.815 1069 440 1069C418.185 1069 400.5 1051.32 400.5 1029.5ZM471.6 1029.5C471.6 1012.05 457.452 997.9 440 997.9C422.548 997.9 408.4 1012.05 408.4 1029.5C408.4 1046.95 422.548 1061.1 440 1061.1C457.452 1061.1 471.6 1046.95 471.6 1029.5Z" fill="#37405C"/>
<path d="M426.49 1066.62C418.333 1063.65 411.38 1058.07 406.708 1050.76C402.036 1043.44 399.905 1034.79 400.643 1026.14C401.382 1017.49 404.949 1009.32 410.794 1002.91C416.639 996.487 424.435 992.172 432.978 990.629L434.382 998.403C427.548 999.638 421.311 1003.09 416.635 1008.22C411.959 1013.36 409.105 1019.89 408.515 1026.81C407.924 1033.73 409.629 1040.65 413.367 1046.51C417.104 1052.36 422.666 1056.82 429.192 1059.19L426.49 1066.62Z" fill="url(#paint7_linear_233_3671)"/>
<text fill="#DEE2E8" xml:space="preserve" style="white-space: pre" font-family="Mulish" font-size="36" font-weight="900" letter-spacing="0em"><tspan x="495.5" y="1017.09">41.6%</tspan></text>
<text fill="#DEE2E8" fill-opacity="0.8" xml:space="preserve" style="white-space: pre" font-family="Mulish" font-size="16" letter-spacing="0.025em"><tspan x="495.5" y="1042.04">Tuvieron m&#xe1;s de </tspan><tspan x="495.5" y="1064.04">una cani&#xf3;n en el </tspan><tspan x="495.5" y="1086.04">n&#xb0;1</tspan></text>
<path d="M323 1229L517 1229" stroke="#C57AFF" stroke-opacity="0.15" stroke-linecap="round"/>
<text fill="#DEE2E8" xml:space="preserve" style="white-space: pre" font-family="Mulish" font-size="36" font-weight="900" letter-spacing="0em"><tspan x="115" y="1355.09">Distribucion de generos </tspan><tspan x="115" y="1400.09">musicales, 2010</tspan></text>
<rect x="96" y="1499" width="648" height="682" rx="5" fill="#1A283D"/>
<rect x="96" y="1499" width="648" height="682" rx="5" fill="url(#paint8_linear_233_3671)" fill-opacity="0.2"/>
<path d="M414.872 1840.08L206.005 1840.08" stroke="#B2B0FF"/>
<path d="M414.873 1840.08L267.182 1692.65" stroke="#B2B0FF"/>
<path d="M414.871 1840.08L414.871 1631.59" stroke="#B2B0FF"/>
<path d="M414.871 1840.08L562.562 1692.65" stroke="#B2B0FF"/>
<path d="M414.871 1840.08L623.738 1840.08" stroke="#B2B0FF"/>
<path d="M414.871 1840.08L562.562 1987.51" stroke="#B2B0FF"/>
<path d="M414.871 1840.08L414.871 2048.58" stroke="#B2B0FF"/>
<path d="M414.873 1840.08L267.182 1987.51" stroke="#B2B0FF"/>
<path d="M414.871 1805.33C410.299 1805.33 405.773 1806.23 401.549 1807.98C397.326 1809.72 393.488 1812.28 390.256 1815.51C383.727 1822.03 380.06 1830.86 380.06 1840.08C380.06 1849.3 383.727 1858.14 390.256 1864.65C396.784 1871.17 405.638 1874.83 414.871 1874.83C424.103 1874.83 432.958 1871.17 439.486 1864.65C446.014 1858.14 449.682 1849.3 449.682 1840.08C449.682 1830.86 446.014 1822.03 439.486 1815.51C432.958 1808.99 424.103 1805.33 414.871 1805.33V1805.33Z" stroke="#B2B0FF"/>
<path d="M414.871 1770.58C405.728 1770.58 396.675 1772.38 388.228 1775.87C379.781 1779.36 372.106 1784.48 365.641 1790.94C352.584 1803.97 345.249 1821.65 345.249 1840.08C345.249 1858.51 352.584 1876.19 365.641 1889.22C378.698 1902.26 396.406 1909.58 414.871 1909.58C433.336 1909.58 451.045 1902.26 464.102 1889.22C477.159 1876.19 484.494 1858.51 484.494 1840.08C484.494 1821.65 477.159 1803.97 464.102 1790.94C451.045 1777.9 433.336 1770.58 414.871 1770.58V1770.58Z" stroke="#B2B0FF"/>
<path d="M414.869 1735.83C401.155 1735.83 387.575 1738.53 374.904 1743.77C362.234 1749.01 350.721 1756.69 341.023 1766.37C321.438 1785.92 310.436 1812.43 310.436 1840.08C310.436 1867.73 321.438 1894.25 341.023 1913.8C360.608 1933.35 387.172 1944.33 414.869 1944.33C442.567 1944.33 469.13 1933.35 488.715 1913.8C508.3 1894.25 519.303 1867.73 519.303 1840.08C519.303 1812.43 508.3 1785.92 488.715 1766.37C469.13 1746.82 442.567 1735.83 414.869 1735.83V1735.83Z" stroke="#B2B0FF"/>
<path d="M414.872 1701.08C396.586 1701.08 378.479 1704.68 361.585 1711.66C344.691 1718.65 329.341 1728.88 316.411 1741.79C290.297 1767.86 275.627 1803.21 275.627 1840.08C275.627 1876.94 290.297 1912.3 316.411 1938.37C342.524 1964.43 377.942 1979.08 414.872 1979.08C451.802 1979.08 487.219 1964.43 513.332 1938.37C539.446 1912.3 554.116 1876.94 554.116 1840.08C554.116 1803.21 539.446 1767.86 513.332 1741.79C487.219 1715.72 451.802 1701.08 414.872 1701.08V1701.08Z" stroke="#B2B0FF"/>
<path d="M414.871 1666.33C392.014 1666.33 369.38 1670.83 348.263 1679.56C327.146 1688.29 307.958 1701.09 291.795 1717.22C259.153 1749.81 240.815 1794 240.815 1840.08C240.815 1886.16 259.153 1930.36 291.795 1962.94C324.437 1995.52 368.709 2013.83 414.871 2013.83C461.034 2013.83 505.305 1995.52 537.947 1962.94C570.589 1930.36 588.927 1886.16 588.927 1840.08C588.927 1794 570.589 1749.81 537.947 1717.22C505.305 1684.64 461.034 1666.33 414.871 1666.33V1666.33Z" stroke="#B2B0FF"/>
<path d="M206.004 1840.08L293.287 1718.46L415.527 1736.91L476.344 1778.18L450.801 1840.08L427.182 1852.37L413.703 1840.08L206.004 1840.08Z" fill="url(#paint9_linear_233_3671)"/>
<path d="M206.004 1840.08L293.287 1718.46L415.527 1736.91L476.344 1778.18L450.801 1840.08L427.182 1852.37L413.703 1840.08L206.004 1840.08Z" fill="url(#paint10_linear_233_3671)"/>
<path d="M206.004 1840.08L293.287 1718.46L415.527 1736.91L476.344 1778.18L450.801 1840.08L427.182 1852.37L413.703 1840.08L206.004 1840.08Z" fill="url(#paint11_linear_233_3671)"/>
<path d="M206.004 1840.08L293.287 1718.46L415.527 1736.91L476.344 1778.18L450.801 1840.08L427.182 1852.37L413.703 1840.08L206.004 1840.08Z" fill="url(#paint12_linear_233_3671)"/>
<path d="M206.004 1840.08L293.287 1718.46L415.527 1736.91L476.344 1778.18L450.801 1840.08L427.182 1852.37L413.703 1840.08L206.004 1840.08Z" fill="url(#paint13_linear_233_3671)"/>
<path d="M206.004 1840.08L293.287 1718.46L415.527 1736.91L476.344 1778.18L450.801 1840.08L427.182 1852.37L413.703 1840.08L206.004 1840.08Z" fill="url(#paint14_linear_233_3671)"/>
<path d="M206.004 1840.08L293.287 1718.46L415.527 1736.91L476.344 1778.18L450.801 1840.08L427.182 1852.37L413.703 1840.08L206.004 1840.08Z" stroke="#DEE2E8" stroke-width="2" stroke-miterlimit="2"/>
<path d="M414.871 1631.58C387.442 1631.58 360.282 1636.97 334.941 1647.45C309.6 1657.93 286.575 1673.29 267.18 1692.65C228.009 1731.75 206.004 1784.78 206.004 1840.08C206.004 1895.38 228.009 1948.41 267.18 1987.51C306.35 2026.61 359.476 2048.58 414.871 2048.58C470.266 2048.58 523.392 2026.61 562.562 1987.51C601.732 1948.41 623.738 1895.38 623.738 1840.08C623.738 1784.78 601.732 1731.75 562.562 1692.65C523.392 1653.55 470.266 1631.58 414.871 1631.58V1631.58Z" stroke="#B2B0FF"/>
<path d="M412.423 1838.91L516.672 2019.47" stroke="#DEE2E8"/>
<text transform="translate(407.479 1837.08) rotate(60)" fill="#DEE2E8" xml:space="preserve" style="white-space: pre" font-family="Open Sans" font-size="12" letter-spacing="0em"><tspan x="0.620571" y="12.6553">0</tspan></text>
<text transform="translate(424.854 1867.18) rotate(60)" fill="#DEE2E8" xml:space="preserve" style="white-space: pre" font-family="Open Sans" font-size="12" letter-spacing="0em"><tspan x="0.620527" y="12.6553">2</tspan></text>
<text transform="translate(442.23 1897.27) rotate(60)" fill="#DEE2E8" xml:space="preserve" style="white-space: pre" font-family="Open Sans" font-size="12" letter-spacing="0em"><tspan x="0.620549" y="12.6553">4</tspan></text>
<text transform="translate(459.604 1927.37) rotate(60)" fill="#DEE2E8" xml:space="preserve" style="white-space: pre" font-family="Open Sans" font-size="12" letter-spacing="0em"><tspan x="0.620593" y="12.6553">6</tspan></text>
<text transform="translate(476.979 1957.46) rotate(60)" fill="#DEE2E8" xml:space="preserve" style="white-space: pre" font-family="Open Sans" font-size="12" letter-spacing="0em"><tspan x="0.620505" y="12.6553">8</tspan></text>
<text transform="translate(492.326 1984.04) rotate(60)" fill="#DEE2E8" xml:space="preserve" style="white-space: pre" font-family="Open Sans" font-size="12" letter-spacing="0em"><tspan x="4.3831" y="12.6553">10</tspan></text>
<text transform="translate(510.343 2014.24) rotate(60)" fill="#DEE2E8" xml:space="preserve" style="white-space: pre" font-family="Open Sans" font-size="12" letter-spacing="0em"><tspan x="9.60723" y="12.6553">12</tspan></text>
<rect width="134" height="44" transform="translate(560.5 1633)" fill="#FBCB6E"/>
<text fill="#050505" xml:space="preserve" style="white-space: pre" font-family="Mulish" font-size="30" font-weight="900" letter-spacing="0.005em"><tspan x="563.5" y="1666.33">Hip-Hop</tspan></text>
<rect width="65" height="44" transform="translate(125.074 1818.46)" fill="#FFA9B8"/>
<text fill="#050505" xml:space="preserve" style="white-space: pre" font-family="Mulish" font-size="30" font-weight="900" letter-spacing="0.005em"><tspan x="128.074" y="1851.79">Pop</tspan></text>
<rect width="74" height="44" transform="translate(187.144 1644)" fill="#957AFF"/>
<text fill="#050505" xml:space="preserve" style="white-space: pre" font-family="Mulish" font-size="30" font-weight="900" letter-spacing="0.005em"><tspan x="190.144" y="1677.33">EDM</tspan></text>
<rect width="69" height="44" transform="translate(190.5 1993)" fill="#A0FF73"/>
<text fill="#050505" xml:space="preserve" style="white-space: pre" font-family="Mulish" font-size="30" font-weight="900" letter-spacing="0.005em"><tspan x="193.5" y="2026.33">Folk</tspan></text>
<rect width="164" height="44" transform="translate(336.093 2061.17)" fill="#00FFB2"/>
<text fill="#050505" xml:space="preserve" style="white-space: pre" font-family="Mulish" font-size="30" font-weight="900" letter-spacing="0.005em"><tspan x="342.093" y="2094.49">Christmas</tspan></text>
<rect width="120" height="44" transform="translate(574.5 2004)" fill="#9FD8F8"/>
<text fill="#050505" xml:space="preserve" style="white-space: pre" font-family="Mulish" font-size="30" font-weight="900" letter-spacing="0.005em"><tspan x="577.5" y="2037.33">Reagge</tspan></text>
<rect width="71" height="44" transform="translate(379.144 1574.83)" fill="#B8FF20"/>
<text fill="#050505" xml:space="preserve" style="white-space: pre" font-family="Mulish" font-size="30" font-weight="900" letter-spacing="0.005em"><tspan x="382.144" y="1608.16">R&#38;B</tspan></text>
<rect width="80" height="44" transform="translate(634.925 1826.94)" fill="#FF6939"/>
<text fill="#050505" xml:space="preserve" style="white-space: pre" font-family="Mulish" font-size="30" font-weight="900" letter-spacing="0.005em"><tspan x="637.925" y="1860.26">Rock</tspan></text>
<path d="M323 2271L517 2271" stroke="#C57AFF" stroke-opacity="0.15" stroke-linecap="round"/>
<text fill="#DEE2E8" xml:space="preserve" style="white-space: pre" font-family="Mulish" font-size="36" font-weight="900" letter-spacing="0em"><tspan x="119.5" y="2397.09">Resumen de los g&#xe9;neros </tspan><tspan x="119.5" y="2442.09">musicales m&#xe1;s populares, 2010</tspan></text>
<rect x="115.5" y="2541" width="609" height="273" rx="5" fill="#1A283D"/>
<rect x="115.5" y="2541" width="609" height="273" rx="5" fill="url(#paint15_linear_233_3671)" fill-opacity="0.2"/>
<text fill="#FFA9B8" xml:space="preserve" style="white-space: pre" font-family="Mulish" font-size="28" font-weight="800" letter-spacing="0.025em"><tspan x="163.5" y="2619.07">Pop</tspan></text>
<text fill="#DEE2E8" xml:space="preserve" style="white-space: pre" font-family="Mulish" font-size="60" font-weight="900" letter-spacing="0em"><tspan x="163.5" y="2693.15">12</tspan></text>
<text fill="#DEE2E8" xml:space="preserve" style="white-space: pre" font-family="Mulish" font-size="30" letter-spacing="0.025em"><tspan x="163.5" y="2741.33">Canciones </tspan><tspan x="163.5" y="2783.32">en el n&#xb0;1</tspan></text>
<text fill="#DEE2E8" xml:space="preserve" style="white-space: pre" font-family="Mulish" font-size="60" font-weight="900" letter-spacing="0em"><tspan x="467.5" y="2693.15">70.6%</tspan></text>
<text fill="#DEE2E8" xml:space="preserve" style="white-space: pre" font-family="Mulish" font-size="30" letter-spacing="0.025em"><tspan x="467.5" y="2741.33">de las </tspan><tspan x="467.5" y="2783.32">canciones n&#xb0;1</tspan></text>
<rect x="115.5" y="2838" width="609" height="300" rx="5" fill="#1A283D"/>
<rect x="115.5" y="2838" width="609" height="300" rx="5" fill="url(#paint16_linear_233_3671)" fill-opacity="0.2"/>
<text fill="#957AFF" xml:space="preserve" style="white-space: pre" font-family="Mulish" font-size="28" font-weight="800" letter-spacing="0.025em"><tspan x="163.5" y="2916.07">EDM</tspan></text>
<text fill="#DEE2E8" xml:space="preserve" style="white-space: pre" font-family="Mulish" font-size="60" font-weight="900" letter-spacing="0em"><tspan x="163.5" y="2990.15">10</tspan></text>
<text fill="#DEE2E8" xml:space="preserve" style="white-space: pre" font-family="Mulish" font-size="30" letter-spacing="0.025em"><tspan x="163.5" y="3038.33">Canciones </tspan><tspan x="163.5" y="3080.32">en el n&#xb0;1</tspan></text>
<text fill="#DEE2E8" xml:space="preserve" style="white-space: pre" font-family="Mulish" font-size="60" font-weight="900" letter-spacing="0em"><tspan x="462.5" y="2990.15">58.8%</tspan></text>
<text fill="#DEE2E8" xml:space="preserve" style="white-space: pre" font-family="Mulish" font-size="30" letter-spacing="0.025em"><tspan x="462.5" y="3038.33">de las </tspan><tspan x="462.5" y="3080.32">canciones n&#xb0;1</tspan></text>
<rect x="115.5" y="3162" width="609" height="300" rx="5" fill="#1A283D"/>
<rect x="115.5" y="3162" width="609" height="300" rx="5" fill="url(#paint17_linear_233_3671)" fill-opacity="0.2"/>
<text fill="#B8FF20" xml:space="preserve" style="white-space: pre" font-family="Mulish" font-size="28" font-weight="800" letter-spacing="0.025em"><tspan x="163.5" y="3240.07">R&#38;B</tspan></text>
<text fill="#DEE2E8" xml:space="preserve" style="white-space: pre" font-family="Mulish" font-size="60" font-weight="900" letter-spacing="0em"><tspan x="163.5" y="3314.15">6</tspan></text>
<text fill="#DEE2E8" xml:space="preserve" style="white-space: pre" font-family="Mulish" font-size="30" letter-spacing="0.025em"><tspan x="163.5" y="3362.33">Canciones </tspan><tspan x="163.5" y="3404.32">en el n&#xb0;1</tspan></text>
<text fill="#DEE2E8" xml:space="preserve" style="white-space: pre" font-family="Mulish" font-size="60" font-weight="900" letter-spacing="0em"><tspan x="459.5" y="3314.15">35.3%</tspan></text>
<text fill="#DEE2E8" xml:space="preserve" style="white-space: pre" font-family="Mulish" font-size="30" letter-spacing="0.025em"><tspan x="459.5" y="3362.33">de las </tspan><tspan x="459.5" y="3404.32">canciones n&#xb0;1</tspan></text>
<rect x="115.5" y="3486" width="609" height="300" rx="5" fill="#1A283D"/>
<rect x="115.5" y="3486" width="609" height="300" rx="5" fill="url(#paint18_linear_233_3671)" fill-opacity="0.2"/>
<text fill="#FBCB6E" xml:space="preserve" style="white-space: pre" font-family="Mulish" font-size="28" font-weight="800" letter-spacing="0.025em"><tspan x="163.5" y="3564.07">Hip-Hop</tspan></text>
<text fill="#DEE2E8" xml:space="preserve" style="white-space: pre" font-family="Mulish" font-size="60" font-weight="900" letter-spacing="0em"><tspan x="163.5" y="3638.15">5</tspan></text>
<text fill="#DEE2E8" xml:space="preserve" style="white-space: pre" font-family="Mulish" font-size="30" letter-spacing="0.025em"><tspan x="163.5" y="3686.33">Canciones </tspan><tspan x="163.5" y="3728.32">en el n&#xb0;1</tspan></text>
<text fill="#DEE2E8" xml:space="preserve" style="white-space: pre" font-family="Mulish" font-size="60" font-weight="900" letter-spacing="0em"><tspan x="468.5" y="3638.15">29.4%</tspan></text>
<text fill="#DEE2E8" xml:space="preserve" style="white-space: pre" font-family="Mulish" font-size="30" letter-spacing="0.025em"><tspan x="468.5" y="3686.33">de las </tspan><tspan x="468.5" y="3728.32">canciones n&#xb0;1</tspan></text>
<defs>
<linearGradient id="paint0_linear_233_3671" x1="62.4" y1="-8.55913" x2="72.5972" y2="67.6589" gradientUnits="userSpaceOnUse">
<stop stop-color="#C60E50"/>
<stop offset="1" stop-color="#A80B3A"/>
</linearGradient>
<linearGradient id="paint1_linear_233_3671" x1="420" y1="58" x2="420" y2="3882" gradientUnits="userSpaceOnUse">
<stop stop-color="#07091D"/>
<stop offset="1" stop-color="#111D32"/>
<stop offset="1" stop-color="#0C1B31"/>
</linearGradient>
<linearGradient id="paint2_linear_233_3671" x1="420" y1="489" x2="420" y2="791" gradientUnits="userSpaceOnUse">
<stop stop-color="#0B1131"/>
<stop offset="1" stop-color="#334F79"/>
</linearGradient>
<linearGradient id="paint3_linear_233_3671" x1="454.267" y1="627.658" x2="430.941" y2="532.278" gradientUnits="userSpaceOnUse">
<stop stop-color="#E2396F"/>
<stop offset="0.0001" stop-color="#E2396F"/>
<stop offset="1" stop-color="#95326D"/>
<stop offset="1" stop-color="#D23879"/>
</linearGradient>
<linearGradient id="paint4_linear_233_3671" x1="454.267" y1="754.658" x2="430.941" y2="659.278" gradientUnits="userSpaceOnUse">
<stop stop-color="#E2396F"/>
<stop offset="0.0001" stop-color="#E2396F"/>
<stop offset="1" stop-color="#95326D"/>
<stop offset="1" stop-color="#D23879"/>
</linearGradient>
<linearGradient id="paint5_linear_233_3671" x1="415" y1="815" x2="415" y2="1139" gradientUnits="userSpaceOnUse">
<stop stop-color="#0B1131"/>
<stop offset="1" stop-color="#334F79"/>
</linearGradient>
<linearGradient id="paint6_linear_233_3671" x1="445.267" y1="953.658" x2="421.941" y2="858.278" gradientUnits="userSpaceOnUse">
<stop stop-color="#E2396F"/>
<stop offset="0.0001" stop-color="#E2396F"/>
<stop offset="1" stop-color="#95326D"/>
<stop offset="1" stop-color="#D23879"/>
</linearGradient>
<linearGradient id="paint7_linear_233_3671" x1="445.267" y1="1080.66" x2="421.941" y2="985.278" gradientUnits="userSpaceOnUse">
<stop stop-color="#E2396F"/>
<stop offset="0.0001" stop-color="#E2396F"/>
<stop offset="1" stop-color="#95326D"/>
<stop offset="1" stop-color="#D23879"/>
</linearGradient>
<linearGradient id="paint8_linear_233_3671" x1="420" y1="1499" x2="420" y2="2181" gradientUnits="userSpaceOnUse">
<stop stop-color="#0B1131"/>
<stop offset="1" stop-color="#334F79"/>
</linearGradient>
<linearGradient id="paint9_linear_233_3671" x1="197.005" y1="1834.35" x2="407.792" y2="1772.52" gradientUnits="userSpaceOnUse">
<stop offset="0.0679979" stop-color="#FCB1C8"/>
<stop offset="1" stop-color="#FCB1C8" stop-opacity="0"/>
</linearGradient>
<linearGradient id="paint10_linear_233_3671" x1="305.467" y1="1732.15" x2="410.798" y2="1928.02" gradientUnits="userSpaceOnUse">
<stop stop-color="#C593EC"/>
<stop offset="1" stop-color="#C593EC" stop-opacity="0"/>
</linearGradient>
<linearGradient id="paint11_linear_233_3671" x1="432.401" y1="1723.13" x2="393.14" y2="1806.16" gradientUnits="userSpaceOnUse">
<stop stop-color="#DAFA17"/>
<stop offset="1" stop-color="#DAFA17" stop-opacity="0"/>
</linearGradient>
<linearGradient id="paint12_linear_233_3671" x1="524.287" y1="1827.48" x2="365.019" y2="1776.12" gradientUnits="userSpaceOnUse">
<stop offset="0.142852" stop-color="#FFD78A"/>
<stop offset="1" stop-color="#FFD78A" stop-opacity="0"/>
</linearGradient>
<linearGradient id="paint13_linear_233_3671" x1="206.004" y1="1796.59" x2="420.401" y2="1990.25" gradientUnits="userSpaceOnUse">
<stop offset="0.389824" stop-color="#FF8383" stop-opacity="0"/>
<stop offset="0.875061" stop-color="#FF8383"/>
</linearGradient>
<linearGradient id="paint14_linear_233_3671" x1="356.62" y1="1965.76" x2="417.492" y2="1784.09" gradientUnits="userSpaceOnUse">
<stop stop-color="#9FD8F8"/>
<stop offset="0.734728" stop-color="#9FD8F8" stop-opacity="0"/>
</linearGradient>
<linearGradient id="paint15_linear_233_3671" x1="420" y1="2541" x2="420" y2="2814" gradientUnits="userSpaceOnUse">
<stop stop-color="#0B1131"/>
<stop offset="1" stop-color="#334F79"/>
</linearGradient>
<linearGradient id="paint16_linear_233_3671" x1="420" y1="2838" x2="420" y2="3138" gradientUnits="userSpaceOnUse">
<stop stop-color="#0B1131"/>
<stop offset="1" stop-color="#334F79"/>
</linearGradient>
<linearGradient id="paint17_linear_233_3671" x1="420" y1="3162" x2="420" y2="3462" gradientUnits="userSpaceOnUse">
<stop stop-color="#0B1131"/>
<stop offset="1" stop-color="#334F79"/>
</linearGradient>
<linearGradient id="paint18_linear_233_3671" x1="420" y1="3486" x2="420" y2="3786" gradientUnits="userSpaceOnUse">
<stop stop-color="#0B1131"/>
<stop offset="1" stop-color="#334F79"/>
</linearGradient>
</defs>
</svg>
