<svg  viewBox="0 0 874 580" fill="none" xmlns="http://www.w3.org/2000/svg">
<g filter="url(#filter0_d_251_5033)">
<path d="M54.7092 55.7009C53.3424 54.3341 51.1263 54.3341 49.7595 55.7009L27.4856 77.9748C26.1188 79.3416 26.1188 81.5577 27.4856 82.9245C28.8525 84.2914 31.0686 84.2914 32.4354 82.9245L52.2344 63.1255L72.0334 82.9245C73.4002 84.2914 75.6163 84.2914 76.9831 82.9245C78.3499 81.5577 78.3499 79.3416 76.9831 77.9748L54.7092 55.7009ZM48.7344 58.1758V526H55.7344V58.1758H48.7344Z" fill="#B0ACBA"/>
<path d="M858.475 526.299C859.842 524.932 859.842 522.716 858.475 521.349L836.201 499.075C834.834 497.709 832.618 497.709 831.251 499.075C829.884 500.442 829.884 502.658 831.251 504.025L851.05 523.824L831.251 543.623C829.884 544.99 829.884 547.206 831.251 548.573C832.618 549.94 834.834 549.94 836.201 548.573L858.475 526.299ZM856 520.324H47V527.324H856V520.324Z" fill="#B0ACBA"/>
<rect x="109.805" y="324.364" width="116.64" height="199.46" fill="url(#paint0_linear_251_5033)"/>
<rect x="242.895" y="235.151" width="116.64" height="288.673" fill="url(#paint1_linear_251_5033)"/>
<rect x="375.982" y="171.324" width="115.144" height="352.5" fill="url(#paint2_linear_251_5033)"/>
<rect x="507.576" y="56" width="116.64" height="467.824" fill="url(#paint3_linear_251_5033)"/>
<rect x="640.666" y="340.321" width="116.64" height="183.503" fill="url(#paint4_linear_251_5033)"/>
<rect x="608" y="10" width="137" height="168" rx="10" fill="url(#paint5_linear_251_5033)"/>
<path d="M608 137H745V168C745 173.523 740.523 178 735 178H618C612.477 178 608 173.523 608 168V137Z" fill="#A558E1"/>
<path d="M637.852 162V153.456H641.788C642.668 153.456 643.368 153.656 643.888 154.056C644.408 154.448 644.668 154.988 644.668 155.676C644.668 156.148 644.536 156.56 644.272 156.912C644.008 157.256 643.64 157.496 643.168 157.632V157.536C643.72 157.664 644.144 157.912 644.44 158.28C644.744 158.648 644.896 159.108 644.896 159.66C644.896 160.38 644.628 160.952 644.092 161.376C643.564 161.792 642.836 162 641.908 162H637.852ZM639.688 160.56H641.692C642.196 160.56 642.56 160.476 642.784 160.308C643.016 160.14 643.132 159.864 643.132 159.48C643.132 159.104 643.016 158.828 642.784 158.652C642.56 158.468 642.196 158.376 641.692 158.376H639.688V160.56ZM639.688 156.936H641.476C641.964 156.936 642.32 156.852 642.544 156.684C642.776 156.516 642.892 156.26 642.892 155.916C642.892 155.564 642.776 155.308 642.544 155.148C642.312 154.98 641.956 154.896 641.476 154.896H639.688V156.936Z" fill="#EBECFF"/>
<path d="M646.387 162V155.916H648.199V162H646.387ZM646.315 153.06H648.271V154.764H646.315V153.06Z" fill="#EBECFF"/>
<path d="M649.98 162V153.168H651.792V162H649.98Z" fill="#EBECFF"/>
<path d="M653.573 162V153.168H655.385V162H653.573Z" fill="#EBECFF"/>
<path d="M657.166 162V153.168H658.978V157.308L658.834 157.092C658.962 156.692 659.21 156.372 659.578 156.132C659.954 155.884 660.39 155.76 660.886 155.76C661.414 155.76 661.878 155.892 662.278 156.156C662.686 156.412 663.006 156.776 663.238 157.248C663.47 157.72 663.586 158.272 663.586 158.904C663.586 159.544 663.47 160.104 663.238 160.584C663.006 161.056 662.686 161.428 662.278 161.7C661.878 161.964 661.414 162.096 660.886 162.096C660.39 162.096 659.954 161.98 659.578 161.748C659.21 161.516 658.962 161.192 658.834 160.776L658.966 160.512V162H657.166ZM660.37 160.716C660.81 160.716 661.15 160.56 661.39 160.248C661.638 159.936 661.762 159.488 661.762 158.904C661.762 158.344 661.642 157.912 661.402 157.608C661.162 157.304 660.818 157.152 660.37 157.152C659.914 157.152 659.566 157.308 659.326 157.62C659.086 157.932 658.966 158.368 658.966 158.928C658.966 159.512 659.086 159.956 659.326 160.26C659.566 160.564 659.914 160.716 660.37 160.716Z" fill="#EBECFF"/>
<path d="M667.952 162.096C667.296 162.096 666.728 161.968 666.248 161.712C665.768 161.456 665.396 161.092 665.132 160.62C664.876 160.14 664.748 159.576 664.748 158.928C664.748 158.28 664.876 157.72 665.132 157.248C665.396 156.776 665.768 156.412 666.248 156.156C666.728 155.892 667.296 155.76 667.952 155.76C668.592 155.76 669.152 155.892 669.632 156.156C670.112 156.412 670.48 156.776 670.736 157.248C671 157.72 671.132 158.28 671.132 158.928C671.132 159.576 671 160.14 670.736 160.62C670.48 161.092 670.112 161.456 669.632 161.712C669.152 161.968 668.592 162.096 667.952 162.096ZM667.952 160.716C668.392 160.716 668.732 160.572 668.972 160.284C669.212 159.988 669.332 159.536 669.332 158.928C669.332 158.328 669.212 157.884 668.972 157.596C668.732 157.3 668.392 157.152 667.952 157.152C667.504 157.152 667.156 157.3 666.908 157.596C666.668 157.884 666.548 158.328 666.548 158.928C666.548 159.536 666.668 159.988 666.908 160.284C667.148 160.572 667.496 160.716 667.952 160.716Z" fill="#EBECFF"/>
<path d="M674.978 162.096C674.45 162.096 673.982 161.968 673.574 161.712C673.166 161.456 672.85 161.092 672.626 160.62C672.402 160.148 672.29 159.596 672.29 158.964C672.29 158.332 672.402 157.776 672.626 157.296C672.858 156.808 673.174 156.432 673.574 156.168C673.982 155.896 674.45 155.76 674.978 155.76C675.466 155.76 675.898 155.88 676.274 156.12C676.65 156.36 676.906 156.684 677.042 157.092L676.898 157.188V155.916H678.686V162H676.898V160.752L677.042 160.776C676.906 161.192 676.65 161.516 676.274 161.748C675.898 161.98 675.466 162.096 674.978 162.096ZM675.506 160.716C675.946 160.716 676.286 160.564 676.526 160.26C676.774 159.956 676.898 159.516 676.898 158.94C676.898 158.364 676.774 157.924 676.526 157.62C676.286 157.308 675.946 157.152 675.506 157.152C675.066 157.152 674.718 157.312 674.462 157.632C674.214 157.952 674.09 158.396 674.09 158.964C674.09 159.532 674.21 159.968 674.45 160.272C674.698 160.568 675.05 160.716 675.506 160.716Z" fill="#EBECFF"/>
<path d="M680.449 162V157.656C680.449 157.368 680.441 157.08 680.425 156.792C680.417 156.496 680.393 156.204 680.353 155.916H682.057L682.249 157.524L682.057 157.428C682.153 156.884 682.381 156.472 682.741 156.192C683.109 155.912 683.525 155.772 683.989 155.772C684.125 155.772 684.245 155.784 684.349 155.808C684.461 155.832 684.557 155.86 684.637 155.892L684.625 157.548C684.329 157.412 684.033 157.344 683.737 157.344C683.409 157.344 683.137 157.404 682.921 157.524C682.713 157.644 682.549 157.816 682.429 158.04C682.317 158.256 682.261 158.516 682.261 158.82V162H680.449Z" fill="#EBECFF"/>
<path d="M691.649 162H689.861V160.512L690.005 160.776C689.869 161.192 689.613 161.516 689.237 161.748C688.861 161.98 688.429 162.096 687.941 162.096C687.413 162.096 686.945 161.964 686.537 161.7C686.137 161.428 685.821 161.056 685.589 160.584C685.365 160.104 685.253 159.544 685.253 158.904C685.253 158.272 685.365 157.72 685.589 157.248C685.813 156.776 686.129 156.412 686.537 156.156C686.945 155.892 687.413 155.76 687.941 155.76C688.429 155.76 688.861 155.884 689.237 156.132C689.613 156.372 689.869 156.692 690.005 157.092L689.837 157.308V153.168H691.649V162ZM688.469 160.716C688.909 160.716 689.249 160.564 689.489 160.26C689.737 159.956 689.861 159.512 689.861 158.928C689.861 158.368 689.737 157.932 689.489 157.62C689.249 157.308 688.909 157.152 688.469 157.152C688.013 157.152 687.661 157.304 687.413 157.608C687.173 157.912 687.053 158.344 687.053 158.904C687.053 159.488 687.177 159.936 687.425 160.248C687.681 160.56 688.029 160.716 688.469 160.716Z" fill="#EBECFF"/>
<path d="M693.268 160.068H695.236V162H693.268V160.068Z" fill="#EBECFF"/>
<path d="M699.615 162.096C698.959 162.096 698.391 161.968 697.911 161.712C697.431 161.456 697.063 161.096 696.807 160.632C696.559 160.16 696.435 159.604 696.435 158.964C696.435 158.324 696.571 157.764 696.843 157.284C697.115 156.804 697.495 156.432 697.983 156.168C698.471 155.896 699.043 155.76 699.699 155.76C700.131 155.76 700.555 155.828 700.971 155.964C701.387 156.1 701.723 156.284 701.979 156.516L701.499 157.776C701.259 157.584 700.995 157.436 700.707 157.332C700.419 157.22 700.139 157.164 699.867 157.164C699.379 157.164 698.995 157.312 698.715 157.608C698.435 157.904 698.295 158.344 698.295 158.928C698.295 159.52 698.431 159.964 698.703 160.26C698.983 160.556 699.371 160.704 699.867 160.704C700.139 160.704 700.419 160.652 700.707 160.548C700.995 160.444 701.259 160.292 701.499 160.092L701.979 161.352C701.715 161.584 701.371 161.768 700.947 161.904C700.523 162.032 700.079 162.096 699.615 162.096Z" fill="#EBECFF"/>
<path d="M705.481 162.096C704.321 162.096 703.405 161.848 702.733 161.352L703.225 160.092C703.545 160.324 703.901 160.504 704.293 160.632C704.693 160.752 705.093 160.812 705.493 160.812C705.805 160.812 706.045 160.764 706.213 160.668C706.381 160.564 706.465 160.424 706.465 160.248C706.465 160.096 706.405 159.98 706.285 159.9C706.165 159.812 705.953 159.732 705.649 159.66L704.653 159.42C704.061 159.3 703.625 159.1 703.345 158.82C703.073 158.54 702.937 158.168 702.937 157.704C702.937 157.328 703.045 156.996 703.261 156.708C703.485 156.412 703.793 156.18 704.185 156.012C704.577 155.844 705.033 155.76 705.553 155.76C705.993 155.76 706.417 155.828 706.825 155.964C707.233 156.092 707.605 156.276 707.941 156.516L707.437 157.728C707.125 157.512 706.805 157.348 706.477 157.236C706.157 157.124 705.845 157.068 705.541 157.068C705.245 157.068 705.013 157.12 704.845 157.224C704.677 157.328 704.593 157.472 704.593 157.656C704.593 157.792 704.641 157.9 704.737 157.98C704.841 158.06 705.021 158.132 705.277 158.196L706.297 158.424C706.921 158.568 707.373 158.784 707.653 159.072C707.933 159.36 708.073 159.744 708.073 160.224C708.073 160.8 707.841 161.256 707.377 161.592C706.921 161.928 706.289 162.096 705.481 162.096Z" fill="#EBECFF"/>
<path d="M711.229 162L708.577 155.928H710.461L712.213 160.332H711.853L713.641 155.928H715.429L712.753 162H711.229Z" fill="#EBECFF"/>
<rect x="652" y="74.5" width="25" height="25" transform="rotate(-90 652 74.5)" fill="url(#paint6_linear_251_5033)"/>
<rect x="675" y="76" width="25" height="25" transform="rotate(90 675 76)" fill="url(#paint7_linear_251_5033)"/>
<rect x="704" y="64" width="25" height="25" transform="rotate(-180 704 64)" fill="url(#paint8_linear_251_5033)"/>
<rect x="702" y="66" width="25" height="25" transform="rotate(90 702 66)" fill="url(#paint9_linear_251_5033)"/>
<rect x="155" y="40" width="121" height="148.38" rx="10" fill="url(#paint10_linear_251_5033)"/>
<path d="M155 152.168H276V178.38C276 183.902 271.523 188.38 266 188.38H165C159.477 188.38 155 183.902 155 178.38V152.168Z" fill="#6358CE"/>
<path d="M185.84 175.297C185.408 175.297 184.984 175.261 184.568 175.189C184.16 175.109 183.776 174.997 183.416 174.853C183.056 174.701 182.744 174.521 182.48 174.313L183.092 172.969C183.516 173.265 183.956 173.485 184.412 173.629C184.868 173.773 185.348 173.845 185.852 173.845C186.396 173.845 186.812 173.757 187.1 173.581C187.396 173.405 187.544 173.161 187.544 172.849C187.544 172.665 187.484 172.509 187.364 172.381C187.244 172.253 187.052 172.141 186.788 172.045C186.524 171.949 186.172 171.853 185.732 171.757C185.18 171.645 184.708 171.513 184.316 171.361C183.924 171.209 183.604 171.033 183.356 170.833C183.116 170.633 182.94 170.401 182.828 170.137C182.716 169.865 182.66 169.553 182.66 169.201C182.66 168.697 182.8 168.245 183.08 167.845C183.368 167.437 183.764 167.117 184.268 166.885C184.78 166.653 185.376 166.537 186.056 166.537C186.464 166.537 186.86 166.577 187.244 166.657C187.636 166.737 187.996 166.849 188.324 166.993C188.652 167.137 188.928 167.313 189.152 167.521L188.552 168.865C188.168 168.569 187.768 168.349 187.352 168.205C186.936 168.061 186.512 167.989 186.08 167.989C185.592 167.989 185.204 168.089 184.916 168.289C184.628 168.481 184.484 168.745 184.484 169.081C184.484 169.265 184.54 169.421 184.652 169.549C184.764 169.677 184.948 169.793 185.204 169.897C185.468 169.993 185.828 170.093 186.284 170.197C186.82 170.309 187.284 170.441 187.676 170.593C188.068 170.745 188.388 170.921 188.636 171.121C188.892 171.313 189.08 171.541 189.2 171.805C189.32 172.061 189.38 172.357 189.38 172.693C189.38 173.229 189.24 173.693 188.96 174.085C188.68 174.469 188.276 174.769 187.748 174.985C187.22 175.193 186.584 175.297 185.84 175.297Z" fill="#EBECFF"/>
<path d="M190.919 177.781V170.845C190.919 170.557 190.911 170.269 190.895 169.981C190.887 169.685 190.863 169.393 190.823 169.105H192.527L192.659 170.281H192.587C192.715 169.873 192.963 169.549 193.331 169.309C193.707 169.069 194.143 168.949 194.639 168.949C195.167 168.949 195.631 169.085 196.031 169.357C196.439 169.621 196.759 169.997 196.991 170.485C197.223 170.965 197.339 171.521 197.339 172.153C197.339 172.785 197.223 173.337 196.991 173.809C196.759 174.281 196.439 174.645 196.031 174.901C195.631 175.157 195.167 175.285 194.639 175.285C194.143 175.285 193.707 175.169 193.331 174.937C192.963 174.705 192.715 174.381 192.587 173.965L192.731 173.737V177.781H190.919ZM194.123 173.905C194.571 173.905 194.915 173.757 195.155 173.461C195.395 173.157 195.515 172.721 195.515 172.153C195.515 171.585 195.391 171.141 195.143 170.821C194.903 170.501 194.563 170.341 194.123 170.341C193.667 170.341 193.319 170.497 193.079 170.809C192.839 171.113 192.719 171.553 192.719 172.129C192.719 172.705 192.839 173.145 193.079 173.449C193.319 173.753 193.667 173.905 194.123 173.905Z" fill="#EBECFF"/>
<path d="M201.705 175.285C201.049 175.285 200.481 175.157 200.001 174.901C199.521 174.645 199.149 174.281 198.885 173.809C198.629 173.329 198.501 172.765 198.501 172.117C198.501 171.469 198.629 170.909 198.885 170.437C199.149 169.965 199.521 169.601 200.001 169.345C200.481 169.081 201.049 168.949 201.705 168.949C202.345 168.949 202.905 169.081 203.385 169.345C203.865 169.601 204.233 169.965 204.489 170.437C204.753 170.909 204.885 171.469 204.885 172.117C204.885 172.765 204.753 173.329 204.489 173.809C204.233 174.281 203.865 174.645 203.385 174.901C202.905 175.157 202.345 175.285 201.705 175.285ZM201.705 173.905C202.145 173.905 202.485 173.761 202.725 173.473C202.965 173.177 203.085 172.725 203.085 172.117C203.085 171.517 202.965 171.073 202.725 170.785C202.485 170.489 202.145 170.341 201.705 170.341C201.257 170.341 200.909 170.489 200.661 170.785C200.421 171.073 200.301 171.517 200.301 172.117C200.301 172.725 200.421 173.177 200.661 173.473C200.901 173.761 201.249 173.905 201.705 173.905Z" fill="#EBECFF"/>
<path d="M205.601 170.461V169.105H210.113V170.461H205.601ZM210.113 173.725V175.117C209.945 175.181 209.777 175.225 209.609 175.249C209.441 175.273 209.261 175.285 209.069 175.285C208.317 175.285 207.741 175.073 207.341 174.649C206.949 174.217 206.753 173.621 206.753 172.861V167.677L208.565 167.089V172.825C208.565 173.065 208.609 173.257 208.697 173.401C208.785 173.545 208.901 173.649 209.045 173.713C209.189 173.769 209.345 173.797 209.513 173.797C209.609 173.797 209.701 173.793 209.789 173.785C209.885 173.769 209.993 173.749 210.113 173.725Z" fill="#EBECFF"/>
<path d="M211.343 175.189V169.105H213.155V175.189H211.343ZM211.271 166.249H213.227V167.953H211.271V166.249Z" fill="#EBECFF"/>
<path d="M214.252 170.461V169.105H218.476V170.461H214.252ZM218.716 167.869C218.484 167.813 218.288 167.785 218.128 167.785C217.96 167.785 217.804 167.817 217.66 167.881C217.516 167.945 217.404 168.049 217.324 168.193C217.244 168.337 217.204 168.529 217.204 168.769V175.189H215.392V168.721C215.392 167.961 215.584 167.369 215.968 166.945C216.36 166.513 216.932 166.297 217.684 166.297C217.868 166.297 218.044 166.309 218.212 166.333C218.388 166.357 218.556 166.397 218.716 166.453V167.869Z" fill="#EBECFF"/>
<path d="M220.121 177.925L219.701 176.533C220.077 176.461 220.385 176.369 220.625 176.257C220.873 176.153 221.077 176.021 221.237 175.861C221.397 175.701 221.529 175.505 221.633 175.273L222.101 174.229L222.581 173.521L224.369 169.105H226.157L223.361 175.501C223.113 176.061 222.829 176.505 222.509 176.833C222.189 177.161 221.829 177.409 221.429 177.577C221.029 177.745 220.593 177.861 220.121 177.925ZM222.149 175.645L219.305 169.105H221.189L222.941 173.521L222.149 175.645Z" fill="#EBECFF"/>
<path d="M226.431 173.257H228.399V175.189H226.431V173.257Z" fill="#EBECFF"/>
<path d="M232.778 175.285C232.122 175.285 231.554 175.157 231.074 174.901C230.594 174.645 230.226 174.285 229.97 173.821C229.722 173.349 229.598 172.793 229.598 172.153C229.598 171.513 229.734 170.953 230.006 170.473C230.278 169.993 230.658 169.621 231.146 169.357C231.634 169.085 232.206 168.949 232.862 168.949C233.294 168.949 233.718 169.017 234.134 169.153C234.55 169.289 234.886 169.473 235.142 169.705L234.662 170.965C234.422 170.773 234.158 170.625 233.87 170.521C233.582 170.409 233.302 170.353 233.03 170.353C232.542 170.353 232.158 170.501 231.878 170.797C231.598 171.093 231.458 171.533 231.458 172.117C231.458 172.709 231.594 173.153 231.866 173.449C232.146 173.745 232.534 173.893 233.03 173.893C233.302 173.893 233.582 173.841 233.87 173.737C234.158 173.633 234.422 173.481 234.662 173.281L235.142 174.541C234.878 174.773 234.534 174.957 234.11 175.093C233.686 175.221 233.242 175.285 232.778 175.285Z" fill="#EBECFF"/>
<path d="M238.644 175.285C237.484 175.285 236.568 175.037 235.896 174.541L236.388 173.281C236.708 173.513 237.064 173.693 237.456 173.821C237.856 173.941 238.256 174.001 238.656 174.001C238.968 174.001 239.208 173.953 239.376 173.857C239.544 173.753 239.628 173.613 239.628 173.437C239.628 173.285 239.568 173.169 239.448 173.089C239.328 173.001 239.116 172.921 238.812 172.849L237.816 172.609C237.224 172.489 236.788 172.289 236.508 172.009C236.236 171.729 236.1 171.357 236.1 170.893C236.1 170.517 236.208 170.185 236.424 169.897C236.648 169.601 236.956 169.369 237.348 169.201C237.74 169.033 238.196 168.949 238.716 168.949C239.156 168.949 239.58 169.017 239.988 169.153C240.396 169.281 240.768 169.465 241.104 169.705L240.6 170.917C240.288 170.701 239.968 170.537 239.64 170.425C239.32 170.313 239.008 170.257 238.704 170.257C238.408 170.257 238.176 170.309 238.008 170.413C237.84 170.517 237.756 170.661 237.756 170.845C237.756 170.981 237.804 171.089 237.9 171.169C238.004 171.249 238.184 171.321 238.44 171.385L239.46 171.613C240.084 171.757 240.536 171.973 240.816 172.261C241.096 172.549 241.236 172.933 241.236 173.413C241.236 173.989 241.004 174.445 240.54 174.781C240.084 175.117 239.452 175.285 238.644 175.285Z" fill="#EBECFF"/>
<path d="M244.392 175.189L241.74 169.117H243.624L245.376 173.521H245.016L246.804 169.117H248.592L245.916 175.189H244.392Z" fill="#EBECFF"/>
<rect x="229" y="72" width="27" height="42" transform="rotate(90 229 72)" fill="url(#paint11_linear_251_5033)"/>
<rect x="215" y="101" width="27" height="28" transform="rotate(90 215 101)" fill="url(#paint12_linear_251_5033)"/>
<rect x="245" y="101" width="27" height="28" transform="rotate(90 245 101)" fill="url(#paint13_linear_251_5033)"/>
<g filter="url(#filter1_d_251_5033)">
<rect x="494" y="317.679" width="131" height="160.642" rx="10" fill="url(#paint14_linear_251_5033)"/>
<path d="M494 439.116H625V468.321C625 473.843 620.523 478.321 615 478.321H504C498.477 478.321 494 473.843 494 468.321V439.116Z" fill="#DF4F83"/>
<path d="M528.049 458.819V457.463H532.561V458.819H528.049ZM532.561 462.083V463.475C532.393 463.539 532.225 463.583 532.057 463.607C531.889 463.631 531.709 463.643 531.517 463.643C530.765 463.643 530.189 463.431 529.789 463.007C529.397 462.575 529.201 461.979 529.201 461.219V456.035L531.013 455.447V461.183C531.013 461.423 531.057 461.615 531.145 461.759C531.233 461.903 531.349 462.007 531.493 462.071C531.637 462.127 531.793 462.155 531.961 462.155C532.057 462.155 532.149 462.151 532.237 462.143C532.333 462.127 532.441 462.107 532.561 462.083Z" fill="#EBECFF"/>
<path d="M536.695 463.643C536.039 463.643 535.471 463.515 534.991 463.259C534.511 463.003 534.139 462.639 533.875 462.167C533.619 461.687 533.491 461.123 533.491 460.475C533.491 459.827 533.619 459.267 533.875 458.795C534.139 458.323 534.511 457.959 534.991 457.703C535.471 457.439 536.039 457.307 536.695 457.307C537.335 457.307 537.895 457.439 538.375 457.703C538.855 457.959 539.223 458.323 539.479 458.795C539.743 459.267 539.875 459.827 539.875 460.475C539.875 461.123 539.743 461.687 539.479 462.167C539.223 462.639 538.855 463.003 538.375 463.259C537.895 463.515 537.335 463.643 536.695 463.643ZM536.695 462.263C537.135 462.263 537.475 462.119 537.715 461.831C537.955 461.535 538.075 461.083 538.075 460.475C538.075 459.875 537.955 459.431 537.715 459.143C537.475 458.847 537.135 458.699 536.695 458.699C536.247 458.699 535.899 458.847 535.651 459.143C535.411 459.431 535.291 459.875 535.291 460.475C535.291 461.083 535.411 461.535 535.651 461.831C535.891 462.119 536.239 462.263 536.695 462.263Z" fill="#EBECFF"/>
<path d="M541.333 466.139V459.203C541.333 458.915 541.325 458.627 541.309 458.339C541.301 458.043 541.277 457.751 541.237 457.463H542.941L543.073 458.639H543.001C543.129 458.231 543.377 457.907 543.745 457.667C544.121 457.427 544.557 457.307 545.053 457.307C545.581 457.307 546.045 457.443 546.445 457.715C546.853 457.979 547.173 458.355 547.405 458.843C547.637 459.323 547.753 459.879 547.753 460.511C547.753 461.143 547.637 461.695 547.405 462.167C547.173 462.639 546.853 463.003 546.445 463.259C546.045 463.515 545.581 463.643 545.053 463.643C544.557 463.643 544.121 463.527 543.745 463.295C543.377 463.063 543.129 462.739 543.001 462.323L543.145 462.095V466.139H541.333ZM544.537 462.263C544.985 462.263 545.329 462.115 545.569 461.819C545.809 461.515 545.929 461.079 545.929 460.511C545.929 459.943 545.805 459.499 545.557 459.179C545.317 458.859 544.977 458.699 544.537 458.699C544.081 458.699 543.733 458.855 543.493 459.167C543.253 459.471 543.133 459.911 543.133 460.487C543.133 461.063 543.253 461.503 543.493 461.807C543.733 462.111 544.081 462.263 544.537 462.263Z" fill="#EBECFF"/>
<path d="M549.463 461.015V459.599H553.195V461.015H549.463Z" fill="#EBECFF"/>
<path d="M557.375 462.683V456.479L558.263 456.563L555.647 458.111V456.467L558.155 455.003H559.247V462.683H557.375ZM555.527 463.547V462.047H561.107V463.547H555.527Z" fill="#EBECFF"/>
<path d="M565.386 463.655C564.354 463.655 563.562 463.283 563.01 462.539C562.466 461.787 562.194 460.695 562.194 459.263C562.194 457.855 562.466 456.779 563.01 456.035C563.562 455.291 564.354 454.919 565.386 454.919C566.418 454.919 567.206 455.291 567.75 456.035C568.302 456.779 568.578 457.855 568.578 459.263C568.578 460.687 568.302 461.775 567.75 462.527C567.206 463.279 566.418 463.655 565.386 463.655ZM565.386 462.215C565.858 462.215 566.202 461.983 566.418 461.519C566.634 461.055 566.742 460.303 566.742 459.263C566.742 458.247 566.634 457.507 566.418 457.043C566.202 456.579 565.858 456.347 565.386 456.347C564.914 456.347 564.57 456.579 564.354 457.043C564.138 457.507 564.03 458.247 564.03 459.263C564.03 460.303 564.138 461.055 564.354 461.519C564.57 461.983 564.914 462.215 565.386 462.215Z" fill="#EBECFF"/>
<path d="M569.869 461.615H571.837V463.547H569.869V461.615Z" fill="#EBECFF"/>
<path d="M576.217 463.643C575.561 463.643 574.993 463.515 574.513 463.259C574.033 463.003 573.665 462.643 573.409 462.179C573.161 461.707 573.037 461.151 573.037 460.511C573.037 459.871 573.173 459.311 573.445 458.831C573.717 458.351 574.097 457.979 574.585 457.715C575.073 457.443 575.645 457.307 576.301 457.307C576.733 457.307 577.157 457.375 577.573 457.511C577.989 457.647 578.325 457.831 578.581 458.063L578.101 459.323C577.861 459.131 577.597 458.983 577.309 458.879C577.021 458.767 576.741 458.711 576.469 458.711C575.981 458.711 575.597 458.859 575.317 459.155C575.037 459.451 574.897 459.891 574.897 460.475C574.897 461.067 575.033 461.511 575.305 461.807C575.585 462.103 575.973 462.251 576.469 462.251C576.741 462.251 577.021 462.199 577.309 462.095C577.597 461.991 577.861 461.839 578.101 461.639L578.581 462.899C578.317 463.131 577.973 463.315 577.549 463.451C577.125 463.579 576.681 463.643 576.217 463.643Z" fill="#EBECFF"/>
<path d="M582.082 463.643C580.922 463.643 580.006 463.395 579.334 462.899L579.826 461.639C580.146 461.871 580.502 462.051 580.894 462.179C581.294 462.299 581.694 462.359 582.094 462.359C582.406 462.359 582.646 462.311 582.814 462.215C582.982 462.111 583.066 461.971 583.066 461.795C583.066 461.643 583.006 461.527 582.886 461.447C582.766 461.359 582.554 461.279 582.25 461.207L581.254 460.967C580.662 460.847 580.226 460.647 579.946 460.367C579.674 460.087 579.538 459.715 579.538 459.251C579.538 458.875 579.646 458.543 579.862 458.255C580.086 457.959 580.394 457.727 580.786 457.559C581.178 457.391 581.634 457.307 582.154 457.307C582.594 457.307 583.018 457.375 583.426 457.511C583.834 457.639 584.206 457.823 584.542 458.063L584.038 459.275C583.726 459.059 583.406 458.895 583.078 458.783C582.758 458.671 582.446 458.615 582.142 458.615C581.846 458.615 581.614 458.667 581.446 458.771C581.278 458.875 581.194 459.019 581.194 459.203C581.194 459.339 581.242 459.447 581.338 459.527C581.442 459.607 581.622 459.679 581.878 459.743L582.898 459.971C583.522 460.115 583.974 460.331 584.254 460.619C584.534 460.907 584.674 461.291 584.674 461.771C584.674 462.347 584.442 462.803 583.978 463.139C583.522 463.475 582.89 463.643 582.082 463.643Z" fill="#EBECFF"/>
<path d="M587.83 463.547L585.178 457.475H587.062L588.814 461.879H588.454L590.242 457.475H592.03L589.354 463.547H587.83Z" fill="#EBECFF"/>
<rect x="575.984" y="375" width="41.7548" height="44.5018" transform="rotate(75 575.984 375)" fill="url(#paint15_linear_251_5033)"/>
<rect x="563.984" y="332" width="41.7548" height="44.5018" transform="rotate(75 563.984 332)" fill="#9C4BF2"/>
</g>
<path d="M663 254.36L637.88 245C637.701 244.933 637.506 244.919 637.319 244.959C637.132 244.999 636.961 245.092 636.825 245.227C636.689 245.361 636.595 245.532 636.553 245.719C636.512 245.906 636.524 246.1 636.59 246.28L646 271.44C646.073 271.635 646.205 271.802 646.378 271.918C646.55 272.035 646.755 272.094 646.963 272.089C647.171 272.083 647.372 272.013 647.538 271.888C647.705 271.763 647.828 271.589 647.89 271.39L650.58 262.64L659.7 271.54C659.888 271.726 660.141 271.831 660.405 271.831C660.669 271.831 660.923 271.726 661.11 271.54L663.46 269.19C663.646 269.003 663.751 268.749 663.751 268.485C663.751 268.221 663.646 267.967 663.46 267.78L654.37 258.92L663 256.25C663.197 256.182 663.367 256.055 663.488 255.885C663.608 255.716 663.673 255.513 663.673 255.305C663.673 255.097 663.608 254.894 663.488 254.725C663.367 254.556 663.197 254.428 663 254.36Z" fill="#FFF3F3"/>
</g>
<defs>
<filter id="filter0_d_251_5033" x="0.460938" y="0" width="873.039" height="579.598" filterUnits="userSpaceOnUse" color-interpolation-filters="sRGB">
<feFlood flood-opacity="0" result="BackgroundImageFix"/>
<feColorMatrix in="SourceAlpha" type="matrix" values="0 0 0 0 0 0 0 0 0 0 0 0 0 0 0 0 0 0 127 0" result="hardAlpha"/>
<feOffset dx="-6" dy="10"/>
<feGaussianBlur stdDeviation="10"/>
<feComposite in2="hardAlpha" operator="out"/>
<feColorMatrix type="matrix" values="0 0 0 0 0.0105035 0 0 0 0 0.0140365 0 0 0 0 0.0458333 0 0 0 0.46 0"/>
<feBlend mode="normal" in2="BackgroundImageFix" result="effect1_dropShadow_251_5033"/>
<feBlend mode="normal" in="SourceGraphic" in2="effect1_dropShadow_251_5033" result="shape"/>
</filter>
<filter id="filter1_d_251_5033" x="468" y="307.679" width="171" height="200.643" filterUnits="userSpaceOnUse" color-interpolation-filters="sRGB">
<feFlood flood-opacity="0" result="BackgroundImageFix"/>
<feColorMatrix in="SourceAlpha" type="matrix" values="0 0 0 0 0 0 0 0 0 0 0 0 0 0 0 0 0 0 127 0" result="hardAlpha"/>
<feOffset dx="-6" dy="10"/>
<feGaussianBlur stdDeviation="10"/>
<feComposite in2="hardAlpha" operator="out"/>
<feColorMatrix type="matrix" values="0 0 0 0 0.0105035 0 0 0 0 0.0140365 0 0 0 0 0.0458333 0 0 0 0.46 0"/>
<feBlend mode="normal" in2="BackgroundImageFix" result="effect1_dropShadow_251_5033"/>
<feBlend mode="normal" in="SourceGraphic" in2="effect1_dropShadow_251_5033" result="shape"/>
</filter>
<linearGradient id="paint0_linear_251_5033" x1="168.124" y1="324.364" x2="168.124" y2="523.824" gradientUnits="userSpaceOnUse">
<stop stop-color="#B0B3F8"/>
<stop offset="1" stop-color="#B936E8" stop-opacity="0.83"/>
</linearGradient>
<linearGradient id="paint1_linear_251_5033" x1="301.214" y1="235.151" x2="301.214" y2="523.824" gradientUnits="userSpaceOnUse">
<stop stop-color="#B0B3F8"/>
<stop offset="1" stop-color="#B936E8" stop-opacity="0.83"/>
</linearGradient>
<linearGradient id="paint2_linear_251_5033" x1="433.555" y1="171.324" x2="433.555" y2="523.824" gradientUnits="userSpaceOnUse">
<stop stop-color="#B0B3F8"/>
<stop offset="1" stop-color="#B936E8" stop-opacity="0.83"/>
</linearGradient>
<linearGradient id="paint3_linear_251_5033" x1="565.896" y1="56" x2="565.896" y2="523.824" gradientUnits="userSpaceOnUse">
<stop stop-color="#B0B3F8"/>
<stop offset="1" stop-color="#B936E8" stop-opacity="0.83"/>
</linearGradient>
<linearGradient id="paint4_linear_251_5033" x1="698.986" y1="340.321" x2="698.986" y2="523.824" gradientUnits="userSpaceOnUse">
<stop stop-color="#B0B3F8"/>
<stop offset="1" stop-color="#B936E8" stop-opacity="0.83"/>
</linearGradient>
<linearGradient id="paint5_linear_251_5033" x1="676.5" y1="10" x2="676.5" y2="178" gradientUnits="userSpaceOnUse">
<stop stop-color="#ECECFF"/>
<stop offset="1" stop-color="#C3C3EC"/>
</linearGradient>
<linearGradient id="paint6_linear_251_5033" x1="664.5" y1="74.5" x2="664.5" y2="99.5" gradientUnits="userSpaceOnUse">
<stop stop-color="#7142F5"/>
<stop offset="1" stop-color="#9B2789" stop-opacity="0.83"/>
</linearGradient>
<linearGradient id="paint7_linear_251_5033" x1="687.5" y1="76" x2="687.5" y2="101" gradientUnits="userSpaceOnUse">
<stop stop-color="#7142F5"/>
<stop offset="1" stop-color="#9B2789" stop-opacity="0.83"/>
</linearGradient>
<linearGradient id="paint8_linear_251_5033" x1="716.5" y1="64" x2="716.5" y2="89" gradientUnits="userSpaceOnUse">
<stop stop-color="#552EC4"/>
<stop offset="1" stop-color="#C82BCB" stop-opacity="0.83"/>
</linearGradient>
<linearGradient id="paint9_linear_251_5033" x1="714.5" y1="66" x2="714.5" y2="91" gradientUnits="userSpaceOnUse">
<stop stop-color="#7142F5"/>
<stop offset="1" stop-color="#9B2789" stop-opacity="0.83"/>
</linearGradient>
<linearGradient id="paint10_linear_251_5033" x1="215.5" y1="40" x2="215.5" y2="188.38" gradientUnits="userSpaceOnUse">
<stop stop-color="#ECECFF"/>
<stop offset="1" stop-color="#C3C3EC"/>
</linearGradient>
<linearGradient id="paint11_linear_251_5033" x1="242.5" y1="72" x2="242.5" y2="114" gradientUnits="userSpaceOnUse">
<stop stop-color="#6E57F7" stop-opacity="0.4"/>
<stop offset="1" stop-color="#533AEB"/>
</linearGradient>
<linearGradient id="paint12_linear_251_5033" x1="228.5" y1="101" x2="228.5" y2="129" gradientUnits="userSpaceOnUse">
<stop stop-color="#6E57F7" stop-opacity="0.4"/>
<stop offset="1" stop-color="#533AEB"/>
</linearGradient>
<linearGradient id="paint13_linear_251_5033" x1="258.5" y1="101" x2="258.5" y2="129" gradientUnits="userSpaceOnUse">
<stop stop-color="#6E57F7" stop-opacity="0.4"/>
<stop offset="1" stop-color="#533AEB"/>
</linearGradient>
<linearGradient id="paint14_linear_251_5033" x1="559.5" y1="317.679" x2="559.5" y2="478.321" gradientUnits="userSpaceOnUse">
<stop stop-color="#ECECFF"/>
<stop offset="1" stop-color="#C3C3EC"/>
</linearGradient>
<linearGradient id="paint15_linear_251_5033" x1="596.862" y1="375" x2="596.862" y2="419.502" gradientUnits="userSpaceOnUse">
<stop stop-color="#C13F7E"/>
<stop offset="1" stop-color="#E65F77"/>
</linearGradient>
</defs>
</svg>
