<svg  viewBox="0 0 805 3931" fill="none" xmlns="http://www.w3.org/2000/svg">
<path d="M0 0H139C141.761 0 144 2.23858 144 5V58H0V0Z" fill="url(#paint0_linear_234_5184)" style="mix-blend-mode:lighten"/>
<text fill="#DEE2E8" xml:space="preserve" style="white-space: pre" font-family="Mulish" font-size="32" font-weight="900" letter-spacing="0em"><tspan x="9" y="41.08">En 2020</tspan></text>
<path d="M0 58H800C802.761 58 805 60.2386 805 63V3926C805 3928.76 802.761 3931 800 3931H4.99999C2.23856 3931 0 3928.76 0 3926V58Z" fill="url(#paint1_linear_234_5184)"/>
<text fill="#DEE2E8" xml:space="preserve" style="white-space: pre" font-family="Mulish" font-size="24" font-weight="300" letter-spacing="0.06em"><tspan x="96" y="180.56">&#10;</tspan><tspan x="96" y="215.56">&#10;</tspan><tspan x="96" y="250.56">En 2020 el Hip-hop/Rap tom&#xf3; el protagonismo, </tspan><tspan x="96" y="285.56">mientras que el EDM cay&#xf3; en popularidad. Hubo </tspan><tspan x="96" y="320.56">m&#xe1;s variedad de artistas en el n&#xfa;mero 1, adem&#xe1;s </tspan><tspan x="96" y="355.56">de m&#xe1;s cantidad de canciones distintas en </tspan><tspan x="96" y="390.56">general.</tspan></text>
<rect x="115" y="489" width="571" height="382" rx="5" fill="#1A283D"/>
<rect x="115" y="489" width="571" height="382" rx="5" fill="url(#paint2_linear_234_5184)" fill-opacity="0.2"/>
<text fill="#DEE2E8" fill-opacity="0.8" xml:space="preserve" style="white-space: pre" font-family="Mulish" font-size="20" letter-spacing="0.025em"><tspan x="167.5" y="629.55">Canciones que </tspan><tspan x="167.5" y="657.55">llegaron a n&#xb0;1:</tspan></text>
<text fill="#DEE2E8" xml:space="preserve" style="white-space: pre" font-family="Mulish" font-size="96" font-weight="900" letter-spacing="0em"><tspan x="167.5" y="752.24">22</tspan></text>
<path d="M385.5 576.5C385.5 554.685 403.185 537 425 537C446.815 537 464.5 554.685 464.5 576.5C464.5 598.315 446.815 616 425 616C403.185 616 385.5 598.315 385.5 576.5ZM456.6 576.5C456.6 559.048 442.452 544.9 425 544.9C407.548 544.9 393.4 559.048 393.4 576.5C393.4 593.952 407.548 608.1 425 608.1C442.452 608.1 456.6 593.952 456.6 576.5Z" fill="#37405C"/>
<path d="M411.49 613.618C401.888 610.123 394.014 603.043 389.522 593.865C385.03 584.687 384.269 574.126 387.399 564.399L394.919 566.819C392.415 574.601 393.024 583.05 396.617 590.392C400.211 597.734 406.511 603.398 414.192 606.194L411.49 613.618Z" fill="url(#paint3_linear_234_5184)"/>
<text fill="#DEE2E8" xml:space="preserve" style="white-space: pre" font-family="Mulish" font-size="36" font-weight="900" letter-spacing="0em"><tspan x="484.5" y="564.09">24.4%</tspan></text>
<text fill="#DEE2E8" fill-opacity="0.8" xml:space="preserve" style="white-space: pre" font-family="Mulish" font-size="20" letter-spacing="0.025em"><tspan x="484.5" y="593.55">del total de </tspan><tspan x="484.5" y="621.55">canciones </tspan><tspan x="484.5" y="649.55">2010</tspan></text>
<path d="M385.5 743.5C385.5 721.685 403.185 704 425 704C446.815 704 464.5 721.685 464.5 743.5C464.5 765.315 446.815 783 425 783C403.185 783 385.5 765.315 385.5 743.5ZM456.6 743.5C456.6 726.048 442.452 711.9 425 711.9C407.548 711.9 393.4 726.048 393.4 743.5C393.4 760.952 407.548 775.1 425 775.1C442.452 775.1 456.6 760.952 456.6 743.5Z" fill="#37405C"/>
<path d="M411.49 780.618C405.278 778.357 399.732 774.572 395.362 769.611C390.991 764.651 387.936 758.672 386.476 752.224C385.015 745.776 385.197 739.065 387.004 732.705C388.81 726.345 392.185 720.541 396.817 715.824L402.454 721.359C398.748 725.133 396.048 729.776 394.603 734.864C393.158 739.952 393.012 745.321 394.18 750.479C395.349 755.638 397.793 760.421 401.289 764.389C404.786 768.358 409.222 771.385 414.192 773.194L411.49 780.618Z" fill="url(#paint4_linear_234_5184)"/>
<text fill="#DEE2E8" xml:space="preserve" style="white-space: pre" font-family="Mulish" font-size="36" font-weight="900" letter-spacing="0em"><tspan x="484.5" y="731.09">31.8%</tspan></text>
<text fill="#DEE2E8" fill-opacity="0.8" xml:space="preserve" style="white-space: pre" font-family="Mulish" font-size="20" letter-spacing="0.025em"><tspan x="484.5" y="760.55">Estuvieron </tspan><tspan x="484.5" y="788.55">m&#xe1;s de una </tspan><tspan x="484.5" y="816.55">semana</tspan></text>
<rect x="115" y="927" width="575" height="354" rx="5" fill="#1A283D"/>
<rect x="115" y="927" width="575" height="354" rx="5" fill="url(#paint5_linear_234_5184)" fill-opacity="0.2"/>
<text fill="#DEE2E8" fill-opacity="0.8" xml:space="preserve" style="white-space: pre" font-family="Mulish" font-size="20" letter-spacing="0.025em"><tspan x="163" y="1053.55">Artistas que </tspan><tspan x="163" y="1081.55">llegaron a n&#xb0;1:</tspan></text>
<text fill="#DEE2E8" xml:space="preserve" style="white-space: pre" font-family="Mulish" font-size="96" font-weight="900" letter-spacing="0em"><tspan x="163" y="1176.24">18</tspan></text>
<path d="M381 1014.5C381 992.685 398.685 975 420.5 975C442.315 975 460 992.685 460 1014.5C460 1036.32 442.315 1054 420.5 1054C398.685 1054 381 1036.32 381 1014.5ZM452.1 1014.5C452.1 997.048 437.952 982.9 420.5 982.9C403.048 982.9 388.9 997.048 388.9 1014.5C388.9 1031.95 403.048 1046.1 420.5 1046.1C437.952 1046.1 452.1 1031.95 452.1 1014.5Z" fill="#37405C"/>
<path d="M406.99 1051.62C399.152 1048.76 392.418 1043.5 387.753 1036.59C383.088 1029.67 380.733 1021.46 381.024 1013.12L388.919 1013.4C388.686 1020.07 390.571 1026.64 394.302 1032.17C398.034 1037.7 403.421 1041.91 409.692 1044.19L406.99 1051.62Z" fill="url(#paint6_linear_234_5184)"/>
<text fill="#DEE2E8" xml:space="preserve" style="white-space: pre" font-family="Mulish" font-size="36" font-weight="900" letter-spacing="0em"><tspan x="480" y="1002.09">20%</tspan></text>
<text fill="#DEE2E8" fill-opacity="0.8" xml:space="preserve" style="white-space: pre" font-family="Mulish" font-size="20" letter-spacing="0.025em"><tspan x="480" y="1031.55">del total de </tspan><tspan x="480" y="1059.55">artistas 2010</tspan></text>
<path d="M381 1153.5C381 1131.68 398.685 1114 420.5 1114C442.315 1114 460 1131.68 460 1153.5C460 1175.32 442.315 1193 420.5 1193C398.685 1193 381 1175.32 381 1153.5ZM452.1 1153.5C452.1 1136.05 437.952 1121.9 420.5 1121.9C403.048 1121.9 388.9 1136.05 388.9 1153.5C388.9 1170.95 403.048 1185.1 420.5 1185.1C437.952 1185.1 452.1 1170.95 452.1 1153.5Z" fill="#37405C"/>
<path d="M406.99 1190.62C400.501 1188.26 394.744 1184.23 390.295 1178.95C385.845 1173.67 382.857 1167.32 381.629 1160.52L389.403 1159.12C390.385 1164.55 392.776 1169.64 396.336 1173.86C399.896 1178.09 404.501 1181.3 409.692 1183.19L406.99 1190.62Z" fill="url(#paint7_linear_234_5184)"/>
<text fill="#DEE2E8" xml:space="preserve" style="white-space: pre" font-family="Mulish" font-size="36" font-weight="900" letter-spacing="0em"><tspan x="480" y="1141.09">16.6%</tspan></text>
<text fill="#DEE2E8" fill-opacity="0.8" xml:space="preserve" style="white-space: pre" font-family="Mulish" font-size="20" letter-spacing="0.025em"><tspan x="480" y="1170.55">Tuvieron m&#xe1;s de </tspan><tspan x="480" y="1198.55">una cani&#xf3;n en el </tspan><tspan x="480" y="1226.55">n&#xb0;1</tspan></text>
<path d="M305.5 1371L499.5 1371" stroke="#C57AFF" stroke-opacity="0.15" stroke-linecap="round"/>
<text fill="#DEE2E8" xml:space="preserve" style="white-space: pre" font-family="Mulish" font-size="36" font-weight="900" letter-spacing="0em"><tspan x="97.5" y="1497.09">Distribucion de generos </tspan><tspan x="97.5" y="1542.09">musicales, 2010</tspan></text>
<rect x="97.5" y="1641" width="610" height="589" rx="5" fill="#1A283D"/>
<rect x="97.5" y="1641" width="610" height="589" rx="5" fill="url(#paint8_linear_234_5184)" fill-opacity="0.2"/>
<path d="M397.484 1932.91L216.213 1932.91" stroke="#B2B0FF"/>
<path d="M397.485 1932.91L269.307 1804.96" stroke="#B2B0FF"/>
<path d="M397.483 1932.91L397.483 1751.96" stroke="#B2B0FF"/>
<path d="M397.483 1932.91L525.661 1804.96" stroke="#B2B0FF"/>
<path d="M397.483 1932.91L578.754 1932.91" stroke="#B2B0FF"/>
<path d="M397.483 1932.91L525.661 2060.87" stroke="#B2B0FF"/>
<path d="M397.483 1932.91L397.483 2113.87" stroke="#B2B0FF"/>
<path d="M397.484 1932.91L269.307 2060.87" stroke="#B2B0FF"/>
<path d="M397.483 1902.75C393.516 1902.75 389.587 1903.53 385.922 1905.05C382.256 1906.56 378.926 1908.79 376.12 1911.59C370.455 1917.24 367.271 1924.91 367.271 1932.91C367.271 1940.91 370.455 1948.58 376.12 1954.24C381.786 1959.89 389.471 1963.07 397.483 1963.07C405.496 1963.07 413.18 1959.89 418.846 1954.24C424.512 1948.58 427.695 1940.91 427.695 1932.91C427.695 1924.91 424.512 1917.24 418.846 1911.59C413.18 1905.93 405.496 1902.75 397.483 1902.75V1902.75Z" stroke="#B2B0FF"/>
<path d="M397.484 1872.59C389.549 1872.59 381.692 1874.15 374.361 1877.19C367.03 1880.22 360.369 1884.66 354.758 1890.26C343.427 1901.57 337.061 1916.91 337.061 1932.91C337.061 1948.91 343.427 1964.25 354.758 1975.56C366.09 1986.87 381.459 1993.23 397.484 1993.23C413.51 1993.23 428.879 1986.87 440.21 1975.56C451.542 1964.25 457.908 1948.91 457.908 1932.91C457.908 1916.91 451.542 1901.57 440.21 1890.26C428.879 1878.95 413.51 1872.59 397.484 1872.59V1872.59Z" stroke="#B2B0FF"/>
<path d="M397.482 1842.44C385.58 1842.44 373.794 1844.78 362.797 1849.32C351.801 1853.87 341.809 1860.54 333.393 1868.94C316.396 1885.9 306.847 1908.92 306.847 1932.91C306.847 1956.91 316.396 1979.92 333.393 1996.89C350.391 2013.86 373.444 2023.39 397.482 2023.39C421.52 2023.39 444.574 2013.86 461.571 1996.89C478.569 1979.92 488.118 1956.91 488.118 1932.91C488.118 1908.92 478.569 1885.9 461.571 1868.94C444.574 1851.97 421.52 1842.44 397.482 1842.44V1842.44Z" stroke="#B2B0FF"/>
<path d="M397.484 1812.28C381.614 1812.28 365.9 1815.4 351.238 1821.46C336.576 1827.52 323.254 1836.41 312.032 1847.61C289.369 1870.23 276.637 1900.92 276.637 1932.91C276.637 1964.9 289.369 1995.59 312.032 2018.21C334.695 2040.84 365.433 2053.54 397.484 2053.54C429.535 2053.54 460.273 2040.84 482.936 2018.21C505.599 1995.59 518.331 1964.9 518.331 1932.91C518.331 1900.92 505.599 1870.23 482.936 1847.61C460.273 1824.99 429.535 1812.28 397.484 1812.28V1812.28Z" stroke="#B2B0FF"/>
<path d="M397.484 1782.12C377.647 1782.12 358.003 1786.02 339.676 1793.6C321.349 1801.18 304.696 1812.28 290.669 1826.29C262.34 1854.56 246.425 1892.92 246.425 1932.91C246.425 1972.91 262.34 2011.26 290.669 2039.54C318.998 2067.82 357.421 2083.71 397.484 2083.71C437.547 2083.71 475.97 2067.82 504.299 2039.54C532.628 2011.26 548.543 1972.91 548.543 1932.91C548.543 1892.92 532.628 1854.56 504.299 1826.29C475.97 1798.01 437.547 1782.12 397.484 1782.12V1782.12Z" stroke="#B2B0FF"/>
<path d="M216.5 1934.41L333.511 1870.4L397.508 1828.79L525.5 1806.38L457.843 1934.41L408.177 1945.08L397.508 1949.5L376.179 1955.75L216.5 1934.41Z" fill="url(#paint9_linear_234_5184)"/>
<path d="M216.5 1934.41L333.511 1870.4L397.508 1828.79L525.5 1806.38L457.843 1934.41L408.177 1945.08L397.508 1949.5L376.179 1955.75L216.5 1934.41Z" fill="url(#paint10_linear_234_5184)"/>
<path d="M216.5 1934.41L333.511 1870.4L397.508 1828.79L525.5 1806.38L457.843 1934.41L408.177 1945.08L397.508 1949.5L376.179 1955.75L216.5 1934.41Z" fill="url(#paint11_linear_234_5184)"/>
<path d="M216.5 1934.41L333.511 1870.4L397.508 1828.79L525.5 1806.38L457.843 1934.41L408.177 1945.08L397.508 1949.5L376.179 1955.75L216.5 1934.41Z" fill="url(#paint12_linear_234_5184)"/>
<path d="M216.5 1934.41L333.511 1870.4L397.508 1828.79L525.5 1806.38L457.843 1934.41L408.177 1945.08L397.508 1949.5L376.179 1955.75L216.5 1934.41Z" fill="url(#paint13_linear_234_5184)"/>
<path d="M216.5 1934.41L333.511 1870.4L397.508 1828.79L525.5 1806.38L457.843 1934.41L408.177 1945.08L397.508 1949.5L376.179 1955.75L216.5 1934.41Z" fill="url(#paint14_linear_234_5184)"/>
<path d="M216.5 1934.41L333.511 1870.4L397.508 1828.79L525.5 1806.38L457.843 1934.41L408.177 1945.08L397.508 1949.5L376.179 1955.75L216.5 1934.41Z" fill="url(#paint15_linear_234_5184)" fill-opacity="0.2"/>
<path d="M216.5 1934.41L333.511 1870.4L397.508 1828.79L525.5 1806.38L457.843 1934.41L408.177 1945.08L397.508 1949.5L376.179 1955.75L216.5 1934.41Z" fill="url(#paint16_linear_234_5184)"/>
<path d="M216.5 1934.41L333.511 1870.4L397.508 1828.79L525.5 1806.38L457.843 1934.41L408.177 1945.08L397.508 1949.5L376.179 1955.75L216.5 1934.41Z" fill="url(#paint17_linear_234_5184)"/>
<path d="M216.5 1934.41L333.511 1870.4L397.508 1828.79L525.5 1806.38L457.843 1934.41L408.177 1945.08L397.508 1949.5L376.179 1955.75L216.5 1934.41Z" fill="url(#paint18_linear_234_5184)"/>
<path d="M216.5 1934.41L333.511 1870.4L397.508 1828.79L525.5 1806.38L457.843 1934.41L408.177 1945.08L397.508 1949.5L376.179 1955.75L216.5 1934.41Z" fill="url(#paint19_linear_234_5184)"/>
<path d="M216.5 1934.41L333.511 1870.4L397.508 1828.79L525.5 1806.38L457.843 1934.41L408.177 1945.08L397.508 1949.5L376.179 1955.75L216.5 1934.41Z" fill="url(#paint20_linear_234_5184)"/>
<path d="M216.5 1934.41L333.511 1870.4L397.508 1828.79L525.5 1806.38L457.843 1934.41L408.177 1945.08L397.508 1949.5L376.179 1955.75L216.5 1934.41Z" fill="url(#paint21_linear_234_5184)"/>
<path d="M216.5 1934.41L333.511 1870.4L397.508 1828.79L525.5 1806.38L457.843 1934.41L408.177 1945.08L397.508 1949.5L376.179 1955.75L216.5 1934.41Z" fill="url(#paint22_linear_234_5184)" fill-opacity="0.2"/>
<path d="M216.5 1934.41L333.511 1870.4L397.508 1828.79L525.5 1806.38L457.843 1934.41L408.177 1945.08L397.508 1949.5L376.179 1955.75L216.5 1934.41Z" fill="url(#paint23_linear_234_5184)" fill-opacity="0.2"/>
<path d="M216.5 1934.41L333.511 1870.4L397.508 1828.79L525.5 1806.38L457.843 1934.41L408.177 1945.08L397.508 1949.5L376.179 1955.75L216.5 1934.41Z" stroke="#DEE2E8" stroke-width="2" stroke-miterlimit="2"/>
<path d="M397.484 1751.96C373.679 1751.96 350.107 1756.64 328.114 1765.73C306.122 1774.83 286.138 1788.16 269.306 1804.96C235.311 1838.9 216.213 1884.92 216.213 1932.91C216.213 1980.9 235.311 2026.93 269.306 2060.86C303.301 2094.8 349.408 2113.86 397.484 2113.86C445.56 2113.86 491.667 2094.8 525.662 2060.86C559.657 2026.93 578.755 1980.9 578.755 1932.91C578.755 1884.92 559.657 1838.9 525.662 1804.96C491.667 1771.03 445.56 1751.96 397.484 1751.96V1751.96Z" stroke="#B2B0FF"/>
<path d="M395.358 1931.89L485.834 2088.6" stroke="#DEE2E8"/>
<text transform="translate(391.068 1930.31) rotate(60)" fill="#DEE2E8" xml:space="preserve" style="white-space: pre" font-family="Open Sans" font-size="12" letter-spacing="0em"><tspan x="0.084923" y="12.6553">0</tspan></text>
<text transform="translate(406.147 1956.43) rotate(60)" fill="#DEE2E8" xml:space="preserve" style="white-space: pre" font-family="Open Sans" font-size="12" letter-spacing="0em"><tspan x="0.0848851" y="12.6553">2</tspan></text>
<text transform="translate(421.228 1982.55) rotate(60)" fill="#DEE2E8" xml:space="preserve" style="white-space: pre" font-family="Open Sans" font-size="12" letter-spacing="0em"><tspan x="0.0849042" y="12.6553">4</tspan></text>
<text transform="translate(436.307 2008.66) rotate(60)" fill="#DEE2E8" xml:space="preserve" style="white-space: pre" font-family="Open Sans" font-size="12" letter-spacing="0em"><tspan x="0.0849421" y="12.6553">6</tspan></text>
<text transform="translate(451.386 2034.78) rotate(60)" fill="#DEE2E8" xml:space="preserve" style="white-space: pre" font-family="Open Sans" font-size="12" letter-spacing="0em"><tspan x="0.0848663" y="12.6553">8</tspan></text>
<text transform="translate(464.705 2057.85) rotate(60)" fill="#DEE2E8" xml:space="preserve" style="white-space: pre" font-family="Open Sans" font-size="12" letter-spacing="0em"><tspan x="2.89668" y="12.6553">10</tspan></text>
<text transform="translate(480.341 2084.06) rotate(60)" fill="#DEE2E8" xml:space="preserve" style="white-space: pre" font-family="Open Sans" font-size="12" letter-spacing="0em"><tspan x="7.43059" y="12.6553">12</tspan></text>
<rect width="75" height="26" transform="translate(516.211 1744.21)" fill="#FBCB6E"/>
<text fill="#050505" xml:space="preserve" style="white-space: pre" font-family="Mulish" font-size="16" font-weight="900" letter-spacing="0.005em"><tspan x="519.211" y="1763.25">Hip-Hop</tspan></text>
<rect width="46.0015" height="32.3254" transform="translate(158.619 1919.03)" fill="#FFA9B8"/>
<text fill="#050505" xml:space="preserve" style="white-space: pre" font-family="Mulish" font-size="16" font-weight="900" letter-spacing="0.005em"><tspan x="166.12" y="1941.23">Pop</tspan></text>
<rect width="52.218" height="32.3254" transform="translate(221.621 1758.43)" fill="#957AFF"/>
<text fill="#050505" xml:space="preserve" style="white-space: pre" font-family="Mulish" font-size="16" font-weight="900" letter-spacing="0.005em"><tspan x="229.73" y="1780.63">EDM</tspan></text>
<rect width="49.7314" height="32.3254" transform="translate(229.143 2077.62)" fill="#A0FF73"/>
<text fill="#050505" xml:space="preserve" style="white-space: pre" font-family="Mulish" font-size="16" font-weight="900" letter-spacing="0.005em"><tspan x="237.008" y="2099.83">Folk</tspan></text>
<rect width="108.166" height="32.3254" transform="translate(345.84 2136.6)" fill="#00FFB2"/>
<text fill="#050505" xml:space="preserve" style="white-space: pre" font-family="Mulish" font-size="16" font-weight="900" letter-spacing="0.005em"><tspan x="359.423" y="2158.8">Christmas</tspan></text>
<rect width="83.3001" height="32.3254" transform="translate(508.674 2080.26)" fill="#9FD8F8"/>
<text fill="#050505" xml:space="preserve" style="white-space: pre" font-family="Mulish" font-size="16" font-weight="900" letter-spacing="0.005em"><tspan x="519.824" y="2102.46">Reagge</tspan></text>
<rect width="50.9747" height="32.3254" transform="translate(373.168 1702.07)" fill="#B8FF20"/>
<text fill="#050505" xml:space="preserve" style="white-space: pre" font-family="Mulish" font-size="16" font-weight="900" letter-spacing="0.005em"><tspan x="381.155" y="1724.28">R&#38;B</tspan></text>
<rect width="57.1911" height="32.3254" transform="translate(589.189 1919.45)" fill="#FF6939"/>
<text fill="#050505" xml:space="preserve" style="white-space: pre" font-family="Mulish" font-size="16" font-weight="900" letter-spacing="0.005em"><tspan x="597.785" y="1941.66">Rock</tspan></text>
<path d="M305.5 2320L499.5 2320" stroke="#C57AFF" stroke-opacity="0.15" stroke-linecap="round"/>
<text fill="#DEE2E8" xml:space="preserve" style="white-space: pre" font-family="Mulish" font-size="36" font-weight="900" letter-spacing="0em"><tspan x="102" y="2446.09">Resumen de los g&#xe9;neros </tspan><tspan x="102" y="2491.09">musicales m&#xe1;s populares, 2010</tspan></text>
<rect x="98" y="2590" width="609" height="300" rx="5" fill="#1A283D"/>
<rect x="98" y="2590" width="609" height="300" rx="5" fill="url(#paint24_linear_234_5184)" fill-opacity="0.2"/>
<text fill="#FBCB6E" xml:space="preserve" style="white-space: pre" font-family="Mulish" font-size="28" font-weight="800" letter-spacing="0.025em"><tspan x="146" y="2668.07">Hip-Hop</tspan></text>
<text fill="#DEE2E8" xml:space="preserve" style="white-space: pre" font-family="Mulish" font-size="60" font-weight="900" letter-spacing="0em"><tspan x="146" y="2742.15">12</tspan></text>
<text fill="#DEE2E8" xml:space="preserve" style="white-space: pre" font-family="Mulish" font-size="30" letter-spacing="0.025em"><tspan x="146" y="2790.33">Canciones </tspan><tspan x="146" y="2832.32">en el n&#xb0;1</tspan></text>
<text fill="#DEE2E8" xml:space="preserve" style="white-space: pre" font-family="Mulish" font-size="60" font-weight="900" letter-spacing="0em"><tspan x="451" y="2742.15">54.6%</tspan></text>
<text fill="#DEE2E8" xml:space="preserve" style="white-space: pre" font-family="Mulish" font-size="30" letter-spacing="0.025em"><tspan x="451" y="2790.33">de las </tspan><tspan x="451" y="2832.32">canciones n&#xb0;1</tspan></text>
<rect x="98" y="2914" width="609" height="273" rx="5" fill="#1A283D"/>
<rect x="98" y="2914" width="609" height="273" rx="5" fill="url(#paint25_linear_234_5184)" fill-opacity="0.2"/>
<text fill="#FFA9B8" xml:space="preserve" style="white-space: pre" font-family="Mulish" font-size="28" font-weight="800" letter-spacing="0.025em"><tspan x="146" y="2992.07">Pop</tspan></text>
<text fill="#DEE2E8" xml:space="preserve" style="white-space: pre" font-family="Mulish" font-size="60" font-weight="900" letter-spacing="0em"><tspan x="146" y="3066.15">12</tspan></text>
<text fill="#DEE2E8" xml:space="preserve" style="white-space: pre" font-family="Mulish" font-size="30" letter-spacing="0.025em"><tspan x="146" y="3114.33">Canciones </tspan><tspan x="146" y="3156.32">en el n&#xb0;1</tspan></text>
<text fill="#DEE2E8" xml:space="preserve" style="white-space: pre" font-family="Mulish" font-size="60" font-weight="900" letter-spacing="0em"><tspan x="450" y="3066.15">51.6%</tspan></text>
<text fill="#DEE2E8" xml:space="preserve" style="white-space: pre" font-family="Mulish" font-size="30" letter-spacing="0.025em"><tspan x="450" y="3114.33">de las </tspan><tspan x="450" y="3156.32">canciones n&#xb0;1</tspan></text>
<rect x="98" y="3211" width="609" height="300" rx="5" fill="#1A283D"/>
<rect x="98" y="3211" width="609" height="300" rx="5" fill="url(#paint26_linear_234_5184)" fill-opacity="0.2"/>
<text fill="#B8FF20" xml:space="preserve" style="white-space: pre" font-family="Mulish" font-size="28" font-weight="800" letter-spacing="0.025em"><tspan x="146" y="3289.07">R&#38;B</tspan></text>
<text fill="#DEE2E8" xml:space="preserve" style="white-space: pre" font-family="Mulish" font-size="60" font-weight="900" letter-spacing="0em"><tspan x="146" y="3363.15">7</tspan></text>
<text fill="#DEE2E8" xml:space="preserve" style="white-space: pre" font-family="Mulish" font-size="30" letter-spacing="0.025em"><tspan x="146" y="3411.33">Canciones </tspan><tspan x="146" y="3453.32">en el n&#xb0;1</tspan></text>
<text fill="#DEE2E8" xml:space="preserve" style="white-space: pre" font-family="Mulish" font-size="60" font-weight="900" letter-spacing="0em"><tspan x="442" y="3363.15">31.8%</tspan></text>
<text fill="#DEE2E8" xml:space="preserve" style="white-space: pre" font-family="Mulish" font-size="30" letter-spacing="0.025em"><tspan x="442" y="3411.33">de las </tspan><tspan x="442" y="3453.32">canciones n&#xb0;1</tspan></text>
<rect x="98" y="3535" width="609" height="300" rx="5" fill="#1A283D"/>
<rect x="98" y="3535" width="609" height="300" rx="5" fill="url(#paint27_linear_234_5184)" fill-opacity="0.2"/>
<text fill="#957AFF" xml:space="preserve" style="white-space: pre" font-family="Mulish" font-size="28" font-weight="800" letter-spacing="0.025em"><tspan x="146" y="3613.07">EDM</tspan></text>
<text fill="#DEE2E8" xml:space="preserve" style="white-space: pre" font-family="Mulish" font-size="60" font-weight="900" letter-spacing="0em"><tspan x="146" y="3687.15">6</tspan></text>
<text fill="#DEE2E8" xml:space="preserve" style="white-space: pre" font-family="Mulish" font-size="30" letter-spacing="0.025em"><tspan x="146" y="3735.33">Canciones </tspan><tspan x="146" y="3777.32">en el n&#xb0;1</tspan></text>
<text fill="#DEE2E8" xml:space="preserve" style="white-space: pre" font-family="Mulish" font-size="60" font-weight="900" letter-spacing="0em"><tspan x="445" y="3687.15">27.2%</tspan></text>
<text fill="#DEE2E8" xml:space="preserve" style="white-space: pre" font-family="Mulish" font-size="30" letter-spacing="0.025em"><tspan x="445" y="3735.33">de las </tspan><tspan x="445" y="3777.32">canciones n&#xb0;1</tspan></text>
<defs>
<linearGradient id="paint0_linear_234_5184" x1="62.4" y1="-8.55913" x2="69.6399" y2="64.9416" gradientUnits="userSpaceOnUse">
<stop stop-color="#280EC6"/>
<stop offset="1" stop-color="#370C93"/>
</linearGradient>
<linearGradient id="paint1_linear_234_5184" x1="402.5" y1="58" x2="402.5" y2="3931" gradientUnits="userSpaceOnUse">
<stop stop-color="#07091D"/>
<stop offset="1" stop-color="#111D32"/>
<stop offset="1" stop-color="#0C1B31"/>
</linearGradient>
<linearGradient id="paint2_linear_234_5184" x1="400.5" y1="489" x2="400.5" y2="871" gradientUnits="userSpaceOnUse">
<stop stop-color="#0B1131"/>
<stop offset="1" stop-color="#334F79"/>
</linearGradient>
<linearGradient id="paint3_linear_234_5184" x1="423.937" y1="616" x2="423.937" y2="533.958" gradientUnits="userSpaceOnUse">
<stop stop-color="#3D6DF2"/>
<stop offset="0.0001" stop-color="#3E68E0"/>
<stop offset="0.484375" stop-color="#245EF3"/>
<stop offset="1" stop-color="#3558D3"/>
</linearGradient>
<linearGradient id="paint4_linear_234_5184" x1="423.937" y1="783" x2="423.937" y2="700.958" gradientUnits="userSpaceOnUse">
<stop stop-color="#3D6DF2"/>
<stop offset="0.0001" stop-color="#3E68E0"/>
<stop offset="0.484375" stop-color="#245EF3"/>
<stop offset="1" stop-color="#3558D3"/>
</linearGradient>
<linearGradient id="paint5_linear_234_5184" x1="402.5" y1="927" x2="402.5" y2="1281" gradientUnits="userSpaceOnUse">
<stop stop-color="#0B1131"/>
<stop offset="1" stop-color="#334F79"/>
</linearGradient>
<linearGradient id="paint6_linear_234_5184" x1="419.437" y1="1054" x2="419.437" y2="971.958" gradientUnits="userSpaceOnUse">
<stop stop-color="#3D6DF2"/>
<stop offset="0.0001" stop-color="#3E68E0"/>
<stop offset="0.484375" stop-color="#245EF3"/>
<stop offset="1" stop-color="#3558D3"/>
</linearGradient>
<linearGradient id="paint7_linear_234_5184" x1="419.437" y1="1193" x2="419.437" y2="1110.96" gradientUnits="userSpaceOnUse">
<stop stop-color="#3D6DF2"/>
<stop offset="0.0001" stop-color="#3E68E0"/>
<stop offset="0.484375" stop-color="#245EF3"/>
<stop offset="1" stop-color="#3558D3"/>
</linearGradient>
<linearGradient id="paint8_linear_234_5184" x1="402.5" y1="1641" x2="402.5" y2="2230" gradientUnits="userSpaceOnUse">
<stop stop-color="#0B1131"/>
<stop offset="1" stop-color="#334F79"/>
</linearGradient>
<linearGradient id="paint9_linear_234_5184" x1="206.214" y1="1935.65" x2="446.192" y2="1863.51" gradientUnits="userSpaceOnUse">
<stop offset="0.0679979" stop-color="#FCB1C8"/>
<stop offset="1" stop-color="#FCB1C8" stop-opacity="0"/>
</linearGradient>
<linearGradient id="paint10_linear_234_5184" x1="330.187" y1="1821.65" x2="446.074" y2="2042.49" gradientUnits="userSpaceOnUse">
<stop stop-color="#C593EC"/>
<stop offset="1" stop-color="#C593EC" stop-opacity="0"/>
</linearGradient>
<linearGradient id="paint11_linear_234_5184" x1="475.274" y1="1811.59" x2="432.165" y2="1905.02" gradientUnits="userSpaceOnUse">
<stop stop-color="#DAFA17"/>
<stop offset="1" stop-color="#DAFA17" stop-opacity="0"/>
</linearGradient>
<linearGradient id="paint12_linear_234_5184" x1="580.299" y1="1927.98" x2="399.111" y2="1868.1" gradientUnits="userSpaceOnUse">
<stop offset="0.142852" stop-color="#FFD78A"/>
<stop offset="1" stop-color="#FFD78A" stop-opacity="0"/>
</linearGradient>
<linearGradient id="paint13_linear_234_5184" x1="216.5" y1="1893.53" x2="456.158" y2="2115.37" gradientUnits="userSpaceOnUse">
<stop offset="0.389824" stop-color="#FF8383" stop-opacity="0"/>
<stop offset="0.875061" stop-color="#FF8383"/>
</linearGradient>
<linearGradient id="paint14_linear_234_5184" x1="388.655" y1="2082.22" x2="455.232" y2="1878.6" gradientUnits="userSpaceOnUse">
<stop stop-color="#9FD8F8"/>
<stop offset="0.734728" stop-color="#9FD8F8" stop-opacity="0"/>
</linearGradient>
<linearGradient id="paint15_linear_234_5184" x1="216.5" y1="1881.06" x2="525.5" y2="1881.06" gradientUnits="userSpaceOnUse">
<stop stop-color="#00FFB2"/>
<stop offset="1" stop-color="#39D8A8" stop-opacity="0.11"/>
</linearGradient>
<linearGradient id="paint16_linear_234_5184" x1="206.214" y1="1935.65" x2="446.192" y2="1863.51" gradientUnits="userSpaceOnUse">
<stop offset="0.0679979" stop-color="#FCB1C8"/>
<stop offset="1" stop-color="#FCB1C8" stop-opacity="0"/>
</linearGradient>
<linearGradient id="paint17_linear_234_5184" x1="330.187" y1="1821.65" x2="446.074" y2="2042.49" gradientUnits="userSpaceOnUse">
<stop stop-color="#C593EC"/>
<stop offset="1" stop-color="#C593EC" stop-opacity="0"/>
</linearGradient>
<linearGradient id="paint18_linear_234_5184" x1="475.274" y1="1811.59" x2="432.165" y2="1905.02" gradientUnits="userSpaceOnUse">
<stop stop-color="#DAFA17"/>
<stop offset="1" stop-color="#DAFA17" stop-opacity="0"/>
</linearGradient>
<linearGradient id="paint19_linear_234_5184" x1="580.299" y1="1927.98" x2="399.111" y2="1868.1" gradientUnits="userSpaceOnUse">
<stop offset="0.142852" stop-color="#FFD78A"/>
<stop offset="1" stop-color="#FFD78A" stop-opacity="0"/>
</linearGradient>
<linearGradient id="paint20_linear_234_5184" x1="216.5" y1="1893.53" x2="456.158" y2="2115.37" gradientUnits="userSpaceOnUse">
<stop offset="0.389824" stop-color="#FF8383" stop-opacity="0"/>
<stop offset="0.875061" stop-color="#FF8383"/>
</linearGradient>
<linearGradient id="paint21_linear_234_5184" x1="388.655" y1="2082.22" x2="455.232" y2="1878.6" gradientUnits="userSpaceOnUse">
<stop stop-color="#9FD8F8"/>
<stop offset="0.734728" stop-color="#9FD8F8" stop-opacity="0"/>
</linearGradient>
<linearGradient id="paint22_linear_234_5184" x1="396.495" y1="2053" x2="405.455" y2="1874.33" gradientUnits="userSpaceOnUse">
<stop stop-color="#00FFB2"/>
<stop offset="1" stop-color="#39D8A8" stop-opacity="0.11"/>
</linearGradient>
<linearGradient id="paint23_linear_234_5184" x1="346.426" y1="2008.2" x2="443.402" y2="1837.96" gradientUnits="userSpaceOnUse">
<stop stop-color="#A0FF73"/>
<stop offset="1" stop-color="#A0FF73"/>
</linearGradient>
<linearGradient id="paint24_linear_234_5184" x1="402.5" y1="2590" x2="402.5" y2="2890" gradientUnits="userSpaceOnUse">
<stop stop-color="#0B1131"/>
<stop offset="1" stop-color="#334F79"/>
</linearGradient>
<linearGradient id="paint25_linear_234_5184" x1="402.5" y1="2914" x2="402.5" y2="3187" gradientUnits="userSpaceOnUse">
<stop stop-color="#0B1131"/>
<stop offset="1" stop-color="#334F79"/>
</linearGradient>
<linearGradient id="paint26_linear_234_5184" x1="402.5" y1="3211" x2="402.5" y2="3511" gradientUnits="userSpaceOnUse">
<stop stop-color="#0B1131"/>
<stop offset="1" stop-color="#334F79"/>
</linearGradient>
<linearGradient id="paint27_linear_234_5184" x1="402.5" y1="3535" x2="402.5" y2="3835" gradientUnits="userSpaceOnUse">
<stop stop-color="#0B1131"/>
<stop offset="1" stop-color="#334F79"/>
</linearGradient>
</defs>
</svg>
