<svg  viewBox="0 0 805 3907" fill="none" xmlns="http://www.w3.org/2000/svg">
<path d="M0 0H139C141.761 0 144 2.23858 144 5V58H0V0Z" fill="url(#paint0_linear_234_5020)" style="mix-blend-mode:lighten"/>
<text fill="#FFBEA1" xml:space="preserve" style="white-space: pre" font-family="Mulish" font-size="32" font-weight="900" letter-spacing="0em"><tspan x="9" y="41.08">En 2010</tspan></text>
<path d="M0 58H800C802.761 58 805 60.2386 805 63V3902C805 3904.76 802.761 3907 800 3907H4.99999C2.23856 3907 0 3904.76 0 3902V58Z" fill="url(#paint1_linear_234_5020)"/>
<text fill="#DEE2E8" xml:space="preserve" style="white-space: pre" font-family="Mulish" font-size="24" font-weight="300" letter-spacing="0.06em"><tspan x="96" y="180.56">&#10;</tspan><tspan x="96" y="215.56">&#10;</tspan><tspan x="96" y="250.56">En 2010, el pop y el EDM dominaron la muestra. </tspan><tspan x="96" y="285.56">En espec&#xed;fico, la combinaci&#xf3;n de ambos en </tspan><tspan x="96" y="320.56">subg&#xe9;neros como el dance-pop o electro-pop. </tspan><tspan x="96" y="355.56">Casi la mitad de los artistas tuvieron m&#xe1;s de una </tspan><tspan x="96" y="390.56">canci&#xf3;n en el r&#xe1;nking.</tspan></text>
<rect x="115" y="489" width="571" height="342" rx="5" fill="#1A283D"/>
<rect x="115" y="489" width="571" height="342" rx="5" fill="url(#paint2_linear_234_5020)" fill-opacity="0.2"/>
<text fill="#DEE2E8" fill-opacity="0.8" xml:space="preserve" style="white-space: pre" font-family="Mulish" font-size="20" letter-spacing="0.025em"><tspan x="163.5" y="609.55">Canciones que </tspan><tspan x="163.5" y="637.55">llegaron a n&#xb0;1:</tspan></text>
<text fill="#DEE2E8" xml:space="preserve" style="white-space: pre" font-family="Mulish" font-size="96" font-weight="900" letter-spacing="0em"><tspan x="163.5" y="732.24">17</tspan></text>
<path d="M381.5 576.5C381.5 554.685 399.185 537 421 537C442.815 537 460.5 554.685 460.5 576.5C460.5 598.315 442.815 616 421 616C399.185 616 381.5 598.315 381.5 576.5ZM452.6 576.5C452.6 559.048 438.452 544.9 421 544.9C403.548 544.9 389.4 559.048 389.4 576.5C389.4 593.952 403.548 608.1 421 608.1C438.452 608.1 452.6 593.952 452.6 576.5Z" fill="#37405C"/>
<path d="M407.49 613.618C399.452 610.692 392.581 605.237 387.91 598.071C383.239 590.905 381.02 582.417 381.587 573.882L389.469 574.406C389.016 581.234 390.791 588.024 394.528 593.757C398.265 599.489 403.762 603.854 410.192 606.194L407.49 613.618Z" fill="url(#paint3_linear_234_5020)"/>
<text fill="#DEE2E8" xml:space="preserve" style="white-space: pre" font-family="Mulish" font-size="36" font-weight="900" letter-spacing="0em"><tspan x="480.5" y="564.09">20.5%</tspan></text>
<text fill="#DEE2E8" fill-opacity="0.8" xml:space="preserve" style="white-space: pre" font-family="Mulish" font-size="20" letter-spacing="0.025em"><tspan x="480.5" y="601.55">del total de </tspan><tspan x="480.5" y="629.55">canciones 2010</tspan></text>
<path d="M381.5 723.5C381.5 701.685 399.185 684 421 684C442.815 684 460.5 701.685 460.5 723.5C460.5 745.315 442.815 763 421 763C399.185 763 381.5 745.315 381.5 723.5ZM452.6 723.5C452.6 706.048 438.452 691.9 421 691.9C403.548 691.9 389.4 706.048 389.4 723.5C389.4 740.952 403.548 755.1 421 755.1C438.452 755.1 452.6 740.952 452.6 723.5Z" fill="#37405C"/>
<path d="M407.49 760.618C401.169 758.317 395.54 754.44 391.137 749.354C386.734 744.269 383.703 738.143 382.331 731.557C380.958 724.972 381.291 718.145 383.296 711.724C385.302 705.303 388.914 699.501 393.79 694.867C398.666 690.233 404.645 686.921 411.16 685.245C417.675 683.57 424.51 683.585 431.017 685.291C437.524 686.997 443.487 690.336 448.342 694.993C453.197 699.649 456.782 705.468 458.758 711.899L451.206 714.219C449.626 709.075 446.758 704.419 442.874 700.694C438.99 696.969 434.219 694.298 429.013 692.933C423.808 691.568 418.34 691.556 413.128 692.896C407.916 694.237 403.133 696.886 399.232 700.593C395.331 704.3 392.441 708.942 390.837 714.079C389.233 719.216 388.967 724.678 390.064 729.946C391.162 735.214 393.587 740.115 397.11 744.184C400.632 748.252 405.135 751.354 410.192 753.194L407.49 760.618Z" fill="url(#paint4_linear_234_5020)"/>
<text fill="#DEE2E8" xml:space="preserve" style="white-space: pre" font-family="Mulish" font-size="36" font-weight="900" letter-spacing="0em"><tspan x="480.5" y="711.09">64.7%</tspan></text>
<text fill="#DEE2E8" fill-opacity="0.8" xml:space="preserve" style="white-space: pre" font-family="Mulish" font-size="20" letter-spacing="0.025em"><tspan x="480.5" y="748.55">Estuvieron m&#xe1;s </tspan><tspan x="480.5" y="776.55">de una semana</tspan></text>
<rect x="115" y="887" width="575" height="370" rx="5" fill="#1A283D"/>
<rect x="115" y="887" width="575" height="370" rx="5" fill="url(#paint5_linear_234_5020)" fill-opacity="0.2"/>
<text fill="#DEE2E8" fill-opacity="0.8" xml:space="preserve" style="white-space: pre" font-family="Mulish" font-size="20" letter-spacing="0.025em"><tspan x="163" y="1021.55">Artistas que </tspan><tspan x="163" y="1049.55">llegaron a n&#xb0;1:</tspan></text>
<text fill="#DEE2E8" xml:space="preserve" style="white-space: pre" font-family="Mulish" font-size="96" font-weight="900" letter-spacing="0em"><tspan x="163" y="1144.24">12</tspan></text>
<path d="M381 974.5C381 952.685 398.685 935 420.5 935C442.315 935 460 952.685 460 974.5C460 996.315 442.315 1014 420.5 1014C398.685 1014 381 996.315 381 974.5ZM452.1 974.5C452.1 957.048 437.952 942.9 420.5 942.9C403.048 942.9 388.9 957.048 388.9 974.5C388.9 991.952 403.048 1006.1 420.5 1006.1C437.952 1006.1 452.1 991.952 452.1 974.5Z" fill="#37405C"/>
<path d="M406.99 1011.62C400.224 1009.16 394.26 1004.89 389.742 999.283C385.224 993.676 382.325 986.941 381.358 979.806L389.186 978.745C389.96 984.453 392.28 989.841 395.894 994.326C399.508 998.812 404.279 1002.22 409.692 1004.19L406.99 1011.62Z" fill="url(#paint6_linear_234_5020)"/>
<text fill="#DEE2E8" xml:space="preserve" style="white-space: pre" font-family="Mulish" font-size="36" font-weight="900" letter-spacing="0em"><tspan x="480" y="962.09">17.3%</tspan></text>
<text fill="#DEE2E8" fill-opacity="0.8" xml:space="preserve" style="white-space: pre" font-family="Mulish" font-size="20" letter-spacing="0.025em"><tspan x="480" y="999.55">del total de </tspan><tspan x="480" y="1027.55">artistas 2010</tspan></text>
<path d="M381 1121.5C381 1099.68 398.685 1082 420.5 1082C442.315 1082 460 1099.68 460 1121.5C460 1143.32 442.315 1161 420.5 1161C398.685 1161 381 1143.32 381 1121.5ZM452.1 1121.5C452.1 1104.05 437.952 1089.9 420.5 1089.9C403.048 1089.9 388.9 1104.05 388.9 1121.5C388.9 1138.95 403.048 1153.1 420.5 1153.1C437.952 1153.1 452.1 1138.95 452.1 1121.5Z" fill="#37405C"/>
<path d="M406.99 1158.62C398.833 1155.65 391.88 1150.07 387.208 1142.76C382.536 1135.44 380.405 1126.79 381.143 1118.14C381.882 1109.49 385.449 1101.32 391.294 1094.91C397.139 1088.49 404.935 1084.17 413.478 1082.63L414.882 1090.4C408.048 1091.64 401.811 1095.09 397.135 1100.22C392.459 1105.36 389.605 1111.89 389.015 1118.81C388.424 1125.73 390.129 1132.65 393.867 1138.51C397.604 1144.36 403.166 1148.82 409.692 1151.19L406.99 1158.62Z" fill="url(#paint7_linear_234_5020)"/>
<text fill="#DEE2E8" xml:space="preserve" style="white-space: pre" font-family="Mulish" font-size="36" font-weight="900" letter-spacing="0em"><tspan x="480" y="1109.09">41.6%</tspan></text>
<text fill="#DEE2E8" fill-opacity="0.8" xml:space="preserve" style="white-space: pre" font-family="Mulish" font-size="20" letter-spacing="0.025em"><tspan x="480" y="1146.55">Tuvieron m&#xe1;s de </tspan><tspan x="480" y="1174.55">una cani&#xf3;n en el </tspan><tspan x="480" y="1202.55">n&#xb0;1</tspan></text>
<path d="M305.5 1347L499.5 1347" stroke="#C57AFF" stroke-opacity="0.15" stroke-linecap="round"/>
<text fill="#DEE2E8" xml:space="preserve" style="white-space: pre" font-family="Mulish" font-size="36" font-weight="900" letter-spacing="0em"><tspan x="97.5" y="1473.09">Distribucion de generos </tspan><tspan x="97.5" y="1518.09">musicales, 2010</tspan></text>
<rect x="97.5" y="1617" width="610" height="589" rx="5" fill="#1A283D"/>
<rect x="97.5" y="1617" width="610" height="589" rx="5" fill="url(#paint8_linear_234_5020)" fill-opacity="0.2"/>
<path d="M397.484 1908.91L216.213 1908.91" stroke="#B2B0FF"/>
<path d="M397.485 1908.91L269.307 1780.96" stroke="#B2B0FF"/>
<path d="M397.483 1908.91L397.483 1727.96" stroke="#B2B0FF"/>
<path d="M397.483 1908.91L525.661 1780.96" stroke="#B2B0FF"/>
<path d="M397.483 1908.91L578.754 1908.91" stroke="#B2B0FF"/>
<path d="M397.483 1908.91L525.661 2036.87" stroke="#B2B0FF"/>
<path d="M397.483 1908.91L397.483 2089.87" stroke="#B2B0FF"/>
<path d="M397.484 1908.91L269.307 2036.87" stroke="#B2B0FF"/>
<path d="M397.483 1878.75C393.516 1878.75 389.587 1879.53 385.922 1881.05C382.256 1882.56 378.926 1884.79 376.12 1887.59C370.455 1893.24 367.271 1900.91 367.271 1908.91C367.271 1916.91 370.455 1924.58 376.12 1930.24C381.786 1935.89 389.471 1939.07 397.483 1939.07C405.496 1939.07 413.18 1935.89 418.846 1930.24C424.512 1924.58 427.695 1916.91 427.695 1908.91C427.695 1900.91 424.512 1893.24 418.846 1887.59C413.18 1881.93 405.496 1878.75 397.483 1878.75V1878.75Z" stroke="#B2B0FF"/>
<path d="M397.484 1848.59C389.549 1848.59 381.692 1850.15 374.361 1853.19C367.03 1856.22 360.369 1860.66 354.758 1866.26C343.427 1877.57 337.061 1892.91 337.061 1908.91C337.061 1924.91 343.427 1940.25 354.758 1951.56C366.09 1962.87 381.459 1969.23 397.484 1969.23C413.51 1969.23 428.879 1962.87 440.21 1951.56C451.542 1940.25 457.908 1924.91 457.908 1908.91C457.908 1892.91 451.542 1877.57 440.21 1866.26C428.879 1854.95 413.51 1848.59 397.484 1848.59V1848.59Z" stroke="#B2B0FF"/>
<path d="M397.482 1818.44C385.58 1818.44 373.794 1820.78 362.797 1825.32C351.801 1829.87 341.809 1836.54 333.393 1844.94C316.396 1861.9 306.847 1884.92 306.847 1908.91C306.847 1932.91 316.396 1955.92 333.393 1972.89C350.391 1989.86 373.444 1999.39 397.482 1999.39C421.52 1999.39 444.574 1989.86 461.571 1972.89C478.569 1955.92 488.118 1932.91 488.118 1908.91C488.118 1884.92 478.569 1861.9 461.571 1844.94C444.574 1827.97 421.52 1818.44 397.482 1818.44V1818.44Z" stroke="#B2B0FF"/>
<path d="M397.484 1788.28C381.614 1788.28 365.9 1791.4 351.238 1797.46C336.576 1803.52 323.254 1812.41 312.032 1823.61C289.369 1846.23 276.637 1876.92 276.637 1908.91C276.637 1940.9 289.369 1971.59 312.032 1994.21C334.695 2016.84 365.433 2029.54 397.484 2029.54C429.535 2029.54 460.273 2016.84 482.936 1994.21C505.599 1971.59 518.331 1940.9 518.331 1908.91C518.331 1876.92 505.599 1846.23 482.936 1823.61C460.273 1800.99 429.535 1788.28 397.484 1788.28V1788.28Z" stroke="#B2B0FF"/>
<path d="M397.484 1758.12C377.647 1758.12 358.003 1762.02 339.676 1769.6C321.349 1777.18 304.696 1788.28 290.669 1802.29C262.34 1830.56 246.425 1868.92 246.425 1908.91C246.425 1948.91 262.34 1987.26 290.669 2015.54C318.998 2043.82 357.421 2059.71 397.484 2059.71C437.547 2059.71 475.97 2043.82 504.299 2015.54C532.628 1987.26 548.543 1948.91 548.543 1908.91C548.543 1868.92 532.628 1830.56 504.299 1802.29C475.97 1774.01 437.547 1758.12 397.484 1758.12V1758.12Z" stroke="#B2B0FF"/>
<path d="M216.213 1908.91L291.964 1803.36L398.054 1819.37L450.835 1855.19L428.667 1908.91L408.169 1919.58L396.47 1908.91L216.213 1908.91Z" fill="url(#paint9_linear_234_5020)"/>
<path d="M216.213 1908.91L291.964 1803.36L398.054 1819.37L450.835 1855.19L428.667 1908.91L408.169 1919.58L396.47 1908.91L216.213 1908.91Z" fill="url(#paint10_linear_234_5020)"/>
<path d="M216.213 1908.91L291.964 1803.36L398.054 1819.37L450.835 1855.19L428.667 1908.91L408.169 1919.58L396.47 1908.91L216.213 1908.91Z" fill="url(#paint11_linear_234_5020)"/>
<path d="M216.213 1908.91L291.964 1803.36L398.054 1819.37L450.835 1855.19L428.667 1908.91L408.169 1919.58L396.47 1908.91L216.213 1908.91Z" fill="url(#paint12_linear_234_5020)"/>
<path d="M216.213 1908.91L291.964 1803.36L398.054 1819.37L450.835 1855.19L428.667 1908.91L408.169 1919.58L396.47 1908.91L216.213 1908.91Z" fill="url(#paint13_linear_234_5020)"/>
<path d="M216.213 1908.91L291.964 1803.36L398.054 1819.37L450.835 1855.19L428.667 1908.91L408.169 1919.58L396.47 1908.91L216.213 1908.91Z" fill="url(#paint14_linear_234_5020)"/>
<path d="M216.213 1908.91L291.964 1803.36L398.054 1819.37L450.835 1855.19L428.667 1908.91L408.169 1919.58L396.47 1908.91L216.213 1908.91Z" stroke="#DEE2E8" stroke-width="2" stroke-miterlimit="2"/>
<path d="M397.484 1727.96C373.679 1727.96 350.107 1732.64 328.114 1741.73C306.122 1750.83 286.138 1764.16 269.306 1780.96C235.311 1814.9 216.213 1860.92 216.213 1908.91C216.213 1956.9 235.311 2002.93 269.306 2036.86C303.301 2070.8 349.408 2089.86 397.484 2089.86C445.56 2089.86 491.667 2070.8 525.662 2036.86C559.657 2002.93 578.755 1956.9 578.755 1908.91C578.755 1860.92 559.657 1814.9 525.662 1780.96C491.667 1747.03 445.56 1727.96 397.484 1727.96V1727.96Z" stroke="#B2B0FF"/>
<path d="M395.358 1907.89L485.834 2064.6" stroke="#DEE2E8"/>
<text transform="translate(391.068 1906.31) rotate(60)" fill="#DEE2E8" xml:space="preserve" style="white-space: pre" font-family="Open Sans" font-size="12" letter-spacing="0em"><tspan x="0.084923" y="12.6553">0</tspan></text>
<text transform="translate(406.147 1932.43) rotate(60)" fill="#DEE2E8" xml:space="preserve" style="white-space: pre" font-family="Open Sans" font-size="12" letter-spacing="0em"><tspan x="0.0848851" y="12.6553">2</tspan></text>
<text transform="translate(421.228 1958.55) rotate(60)" fill="#DEE2E8" xml:space="preserve" style="white-space: pre" font-family="Open Sans" font-size="12" letter-spacing="0em"><tspan x="0.0849042" y="12.6553">4</tspan></text>
<text transform="translate(436.307 1984.66) rotate(60)" fill="#DEE2E8" xml:space="preserve" style="white-space: pre" font-family="Open Sans" font-size="12" letter-spacing="0em"><tspan x="0.0849421" y="12.6553">6</tspan></text>
<text transform="translate(451.386 2010.78) rotate(60)" fill="#DEE2E8" xml:space="preserve" style="white-space: pre" font-family="Open Sans" font-size="12" letter-spacing="0em"><tspan x="0.0848663" y="12.6553">8</tspan></text>
<text transform="translate(464.705 2033.85) rotate(60)" fill="#DEE2E8" xml:space="preserve" style="white-space: pre" font-family="Open Sans" font-size="12" letter-spacing="0em"><tspan x="2.89668" y="12.6553">10</tspan></text>
<text transform="translate(480.341 2060.06) rotate(60)" fill="#DEE2E8" xml:space="preserve" style="white-space: pre" font-family="Open Sans" font-size="12" letter-spacing="0em"><tspan x="7.43059" y="12.6553">12</tspan></text>
<rect width="75" height="26" transform="translate(516.211 1720.21)" fill="#FBCB6E"/>
<text fill="#050505" xml:space="preserve" style="white-space: pre" font-family="Mulish" font-size="16" font-weight="900" letter-spacing="0.005em"><tspan x="519.211" y="1739.25">Hip-Hop</tspan></text>
<rect width="46.0015" height="32.3254" transform="translate(158.619 1895.03)" fill="#FFA9B8"/>
<text fill="#050505" xml:space="preserve" style="white-space: pre" font-family="Mulish" font-size="16" font-weight="900" letter-spacing="0.005em"><tspan x="166.12" y="1917.23">Pop</tspan></text>
<rect width="52.218" height="32.3254" transform="translate(221.621 1734.43)" fill="#957AFF"/>
<text fill="#050505" xml:space="preserve" style="white-space: pre" font-family="Mulish" font-size="16" font-weight="900" letter-spacing="0.005em"><tspan x="229.73" y="1756.63">EDM</tspan></text>
<rect width="49.7314" height="32.3254" transform="translate(229.143 2053.62)" fill="#A0FF73"/>
<text fill="#050505" xml:space="preserve" style="white-space: pre" font-family="Mulish" font-size="16" font-weight="900" letter-spacing="0.005em"><tspan x="237.008" y="2075.83">Folk</tspan></text>
<rect width="108.166" height="32.3254" transform="translate(345.84 2112.6)" fill="#00FFB2"/>
<text fill="#050505" xml:space="preserve" style="white-space: pre" font-family="Mulish" font-size="16" font-weight="900" letter-spacing="0.005em"><tspan x="359.423" y="2134.8">Christmas</tspan></text>
<rect width="83.3001" height="32.3254" transform="translate(508.674 2056.26)" fill="#9FD8F8"/>
<text fill="#050505" xml:space="preserve" style="white-space: pre" font-family="Mulish" font-size="16" font-weight="900" letter-spacing="0.005em"><tspan x="519.824" y="2078.46">Reagge</tspan></text>
<rect width="50.9747" height="32.3254" transform="translate(373.168 1678.07)" fill="#B8FF20"/>
<text fill="#050505" xml:space="preserve" style="white-space: pre" font-family="Mulish" font-size="16" font-weight="900" letter-spacing="0.005em"><tspan x="381.155" y="1700.28">R&#38;B</tspan></text>
<rect width="57.1911" height="32.3254" transform="translate(589.189 1895.45)" fill="#FF6939"/>
<text fill="#050505" xml:space="preserve" style="white-space: pre" font-family="Mulish" font-size="16" font-weight="900" letter-spacing="0.005em"><tspan x="597.785" y="1917.66">Rock</tspan></text>
<path d="M305.5 2296L499.5 2296" stroke="#C57AFF" stroke-opacity="0.15" stroke-linecap="round"/>
<text fill="#DEE2E8" xml:space="preserve" style="white-space: pre" font-family="Mulish" font-size="36" font-weight="900" letter-spacing="0em"><tspan x="102" y="2422.09">Resumen de los g&#xe9;neros </tspan><tspan x="102" y="2467.09">musicales m&#xe1;s populares, 2010</tspan></text>
<rect x="98" y="2566" width="609" height="273" rx="5" fill="#1A283D"/>
<rect x="98" y="2566" width="609" height="273" rx="5" fill="url(#paint15_linear_234_5020)" fill-opacity="0.2"/>
<text fill="#FFA9B8" xml:space="preserve" style="white-space: pre" font-family="Mulish" font-size="28" font-weight="800" letter-spacing="0.025em"><tspan x="146" y="2644.07">Pop</tspan></text>
<text fill="#DEE2E8" xml:space="preserve" style="white-space: pre" font-family="Mulish" font-size="60" font-weight="900" letter-spacing="0em"><tspan x="146" y="2718.15">12</tspan></text>
<text fill="#DEE2E8" xml:space="preserve" style="white-space: pre" font-family="Mulish" font-size="30" letter-spacing="0.025em"><tspan x="146" y="2766.33">Canciones </tspan><tspan x="146" y="2808.32">en el n&#xb0;1</tspan></text>
<text fill="#DEE2E8" xml:space="preserve" style="white-space: pre" font-family="Mulish" font-size="60" font-weight="900" letter-spacing="0em"><tspan x="450" y="2718.15">70.6%</tspan></text>
<text fill="#DEE2E8" xml:space="preserve" style="white-space: pre" font-family="Mulish" font-size="30" letter-spacing="0.025em"><tspan x="450" y="2766.33">de las </tspan><tspan x="450" y="2808.32">canciones n&#xb0;1</tspan></text>
<rect x="98" y="2863" width="609" height="300" rx="5" fill="#1A283D"/>
<rect x="98" y="2863" width="609" height="300" rx="5" fill="url(#paint16_linear_234_5020)" fill-opacity="0.2"/>
<text fill="#957AFF" xml:space="preserve" style="white-space: pre" font-family="Mulish" font-size="28" font-weight="800" letter-spacing="0.025em"><tspan x="146" y="2941.07">EDM</tspan></text>
<text fill="#DEE2E8" xml:space="preserve" style="white-space: pre" font-family="Mulish" font-size="60" font-weight="900" letter-spacing="0em"><tspan x="146" y="3015.15">10</tspan></text>
<text fill="#DEE2E8" xml:space="preserve" style="white-space: pre" font-family="Mulish" font-size="30" letter-spacing="0.025em"><tspan x="146" y="3063.33">Canciones </tspan><tspan x="146" y="3105.32">en el n&#xb0;1</tspan></text>
<text fill="#DEE2E8" xml:space="preserve" style="white-space: pre" font-family="Mulish" font-size="60" font-weight="900" letter-spacing="0em"><tspan x="445" y="3015.15">58.8%</tspan></text>
<text fill="#DEE2E8" xml:space="preserve" style="white-space: pre" font-family="Mulish" font-size="30" letter-spacing="0.025em"><tspan x="445" y="3063.33">de las </tspan><tspan x="445" y="3105.32">canciones n&#xb0;1</tspan></text>
<rect x="98" y="3187" width="609" height="300" rx="5" fill="#1A283D"/>
<rect x="98" y="3187" width="609" height="300" rx="5" fill="url(#paint17_linear_234_5020)" fill-opacity="0.2"/>
<text fill="#B8FF20" xml:space="preserve" style="white-space: pre" font-family="Mulish" font-size="28" font-weight="800" letter-spacing="0.025em"><tspan x="146" y="3265.07">R&#38;B</tspan></text>
<text fill="#DEE2E8" xml:space="preserve" style="white-space: pre" font-family="Mulish" font-size="60" font-weight="900" letter-spacing="0em"><tspan x="146" y="3339.15">6</tspan></text>
<text fill="#DEE2E8" xml:space="preserve" style="white-space: pre" font-family="Mulish" font-size="30" letter-spacing="0.025em"><tspan x="146" y="3387.33">Canciones </tspan><tspan x="146" y="3429.32">en el n&#xb0;1</tspan></text>
<text fill="#DEE2E8" xml:space="preserve" style="white-space: pre" font-family="Mulish" font-size="60" font-weight="900" letter-spacing="0em"><tspan x="442" y="3339.15">35.3%</tspan></text>
<text fill="#DEE2E8" xml:space="preserve" style="white-space: pre" font-family="Mulish" font-size="30" letter-spacing="0.025em"><tspan x="442" y="3387.33">de las </tspan><tspan x="442" y="3429.32">canciones n&#xb0;1</tspan></text>
<rect x="98" y="3511" width="609" height="300" rx="5" fill="#1A283D"/>
<rect x="98" y="3511" width="609" height="300" rx="5" fill="url(#paint18_linear_234_5020)" fill-opacity="0.2"/>
<text fill="#FBCB6E" xml:space="preserve" style="white-space: pre" font-family="Mulish" font-size="28" font-weight="800" letter-spacing="0.025em"><tspan x="146" y="3589.07">Hip-Hop</tspan></text>
<text fill="#DEE2E8" xml:space="preserve" style="white-space: pre" font-family="Mulish" font-size="60" font-weight="900" letter-spacing="0em"><tspan x="146" y="3663.15">5</tspan></text>
<text fill="#DEE2E8" xml:space="preserve" style="white-space: pre" font-family="Mulish" font-size="30" letter-spacing="0.025em"><tspan x="146" y="3711.33">Canciones </tspan><tspan x="146" y="3753.32">en el n&#xb0;1</tspan></text>
<text fill="#DEE2E8" xml:space="preserve" style="white-space: pre" font-family="Mulish" font-size="60" font-weight="900" letter-spacing="0em"><tspan x="451" y="3663.15">29.4%</tspan></text>
<text fill="#DEE2E8" xml:space="preserve" style="white-space: pre" font-family="Mulish" font-size="30" letter-spacing="0.025em"><tspan x="451" y="3711.33">de las </tspan><tspan x="451" y="3753.32">canciones n&#xb0;1</tspan></text>
<defs>
<linearGradient id="paint0_linear_234_5020" x1="62.4" y1="-8.55913" x2="72.5972" y2="67.6589" gradientUnits="userSpaceOnUse">
<stop stop-color="#C60E50"/>
<stop offset="1" stop-color="#A80B3A"/>
</linearGradient>
<linearGradient id="paint1_linear_234_5020" x1="402.5" y1="58" x2="402.5" y2="3907" gradientUnits="userSpaceOnUse">
<stop stop-color="#07091D"/>
<stop offset="1" stop-color="#111D32"/>
<stop offset="1" stop-color="#0C1B31"/>
</linearGradient>
<linearGradient id="paint2_linear_234_5020" x1="400.5" y1="489" x2="400.5" y2="831" gradientUnits="userSpaceOnUse">
<stop stop-color="#0B1131"/>
<stop offset="1" stop-color="#334F79"/>
</linearGradient>
<linearGradient id="paint3_linear_234_5020" x1="426.267" y1="627.658" x2="402.941" y2="532.278" gradientUnits="userSpaceOnUse">
<stop stop-color="#E2396F"/>
<stop offset="0.0001" stop-color="#E2396F"/>
<stop offset="1" stop-color="#95326D"/>
<stop offset="1" stop-color="#D23879"/>
</linearGradient>
<linearGradient id="paint4_linear_234_5020" x1="426.267" y1="774.658" x2="402.941" y2="679.278" gradientUnits="userSpaceOnUse">
<stop stop-color="#E2396F"/>
<stop offset="0.0001" stop-color="#E2396F"/>
<stop offset="1" stop-color="#95326D"/>
<stop offset="1" stop-color="#D23879"/>
</linearGradient>
<linearGradient id="paint5_linear_234_5020" x1="402.5" y1="887" x2="402.5" y2="1257" gradientUnits="userSpaceOnUse">
<stop stop-color="#0B1131"/>
<stop offset="1" stop-color="#334F79"/>
</linearGradient>
<linearGradient id="paint6_linear_234_5020" x1="425.767" y1="1025.66" x2="402.441" y2="930.278" gradientUnits="userSpaceOnUse">
<stop stop-color="#E2396F"/>
<stop offset="0.0001" stop-color="#E2396F"/>
<stop offset="1" stop-color="#95326D"/>
<stop offset="1" stop-color="#D23879"/>
</linearGradient>
<linearGradient id="paint7_linear_234_5020" x1="425.767" y1="1172.66" x2="402.441" y2="1077.28" gradientUnits="userSpaceOnUse">
<stop stop-color="#E2396F"/>
<stop offset="0.0001" stop-color="#E2396F"/>
<stop offset="1" stop-color="#95326D"/>
<stop offset="1" stop-color="#D23879"/>
</linearGradient>
<linearGradient id="paint8_linear_234_5020" x1="402.5" y1="1617" x2="402.5" y2="2206" gradientUnits="userSpaceOnUse">
<stop stop-color="#0B1131"/>
<stop offset="1" stop-color="#334F79"/>
</linearGradient>
<linearGradient id="paint9_linear_234_5020" x1="208.403" y1="1903.94" x2="391.34" y2="1850.28" gradientUnits="userSpaceOnUse">
<stop offset="0.0679979" stop-color="#FCB1C8"/>
<stop offset="1" stop-color="#FCB1C8" stop-opacity="0"/>
</linearGradient>
<linearGradient id="paint10_linear_234_5020" x1="302.535" y1="1815.24" x2="393.949" y2="1985.23" gradientUnits="userSpaceOnUse">
<stop stop-color="#C593EC"/>
<stop offset="1" stop-color="#C593EC" stop-opacity="0"/>
</linearGradient>
<linearGradient id="paint11_linear_234_5020" x1="412.698" y1="1807.41" x2="378.624" y2="1879.48" gradientUnits="userSpaceOnUse">
<stop stop-color="#DAFA17"/>
<stop offset="1" stop-color="#DAFA17" stop-opacity="0"/>
</linearGradient>
<linearGradient id="paint12_linear_234_5020" x1="492.443" y1="1897.98" x2="354.218" y2="1853.4" gradientUnits="userSpaceOnUse">
<stop offset="0.142852" stop-color="#FFD78A"/>
<stop offset="1" stop-color="#FFD78A" stop-opacity="0"/>
</linearGradient>
<linearGradient id="paint13_linear_234_5020" x1="216.213" y1="1871.17" x2="402.283" y2="2039.24" gradientUnits="userSpaceOnUse">
<stop offset="0.389824" stop-color="#FF8383" stop-opacity="0"/>
<stop offset="0.875061" stop-color="#FF8383"/>
</linearGradient>
<linearGradient id="paint14_linear_234_5020" x1="346.929" y1="2017.99" x2="399.759" y2="1860.32" gradientUnits="userSpaceOnUse">
<stop stop-color="#9FD8F8"/>
<stop offset="0.734728" stop-color="#9FD8F8" stop-opacity="0"/>
</linearGradient>
<linearGradient id="paint15_linear_234_5020" x1="402.5" y1="2566" x2="402.5" y2="2839" gradientUnits="userSpaceOnUse">
<stop stop-color="#0B1131"/>
<stop offset="1" stop-color="#334F79"/>
</linearGradient>
<linearGradient id="paint16_linear_234_5020" x1="402.5" y1="2863" x2="402.5" y2="3163" gradientUnits="userSpaceOnUse">
<stop stop-color="#0B1131"/>
<stop offset="1" stop-color="#334F79"/>
</linearGradient>
<linearGradient id="paint17_linear_234_5020" x1="402.5" y1="3187" x2="402.5" y2="3487" gradientUnits="userSpaceOnUse">
<stop stop-color="#0B1131"/>
<stop offset="1" stop-color="#334F79"/>
</linearGradient>
<linearGradient id="paint18_linear_234_5020" x1="402.5" y1="3511" x2="402.5" y2="3811" gradientUnits="userSpaceOnUse">
<stop stop-color="#0B1131"/>
<stop offset="1" stop-color="#334F79"/>
</linearGradient>
</defs>
</svg>
