<svg width="558" height="667" viewBox="0 0 558 667" fill="none" xmlns="http://www.w3.org/2000/svg">
<text fill="#DEE2E8" xml:space="preserve" style="white-space: pre" font-family="Mulish" font-size="24" font-weight="900" letter-spacing="0em"><tspan x="24" y="48.06">Artistas con la mayor cantidad de &#10;</tspan><tspan x="24" y="78.06">canciones, 2010</tspan></text>
<g opacity="0.3">
<path d="M221.087 117L221.087 610.642Z" fill="black"/>
<path d="M221.087 117L221.087 610.642" stroke="#DEE2E8"/>
<path d="M130.087 117L130.087 610.642Z" fill="black"/>
<path d="M130.087 117L130.087 610.642" stroke="#DEE2E8"/>
<path d="M311.087 117L311.087 610.642Z" fill="black"/>
<path d="M311.087 117L311.087 610.642" stroke="#DEE2E8"/>
<path d="M401.087 117L401.087 610.642Z" fill="black"/>
<path d="M401.087 117L401.087 610.642" stroke="#DEE2E8"/>
<path d="M492.087 117L492.087 610.642Z" fill="black"/>
<path d="M492.087 117L492.087 610.642" stroke="#DEE2E8"/>
</g>
<path d="M557.525 610.643L108.525 610.643Z" fill="#5C5F64"/>
<path d="M557.525 610.643L108.525 610.643" stroke="#53565C" stroke-width="2"/>
<path d="M131.551 610.291L131.551 530.387L274.157 530.387L274.157 610.291L131.551 610.291Z" fill="#309CFF"/>
<path d="M131.551 610.291L131.551 530.387L274.157 530.387L274.157 610.291L131.551 610.291Z" fill="url(#paint0_linear_195_3107)" fill-opacity="0.2"/>
<text transform="translate(264.082 563.598)" fill="#DEE2E8" xml:space="preserve" style="white-space: pre" font-family="Mulish" font-size="16" font-weight="900" letter-spacing="0em"><tspan x="28.9937" y="16.04">3</tspan></text>
<path d="M131.551 509.547L131.551 428.906L314.902 428.906L314.902 509.547L131.551 509.547Z" fill="#309CFF"/>
<path d="M131.551 509.547L131.551 428.906L314.902 428.906L314.902 509.547L131.551 509.547Z" fill="url(#paint1_linear_195_3107)" fill-opacity="0.2"/>
<text transform="translate(298.459 462.445)" fill="#DEE2E8" xml:space="preserve" style="white-space: pre" font-family="Mulish" font-size="16" font-weight="900" letter-spacing="0em"><tspan x="28.9937" y="16.04">4</tspan></text>
<path d="M131.551 408.628L131.551 327.637L363.286 327.637L363.286 408.628L131.551 408.628Z" fill="#309CFF"/>
<path d="M131.551 408.628L131.551 327.637L363.286 327.637L363.286 408.628L131.551 408.628Z" fill="url(#paint2_linear_195_3107)" fill-opacity="0.2"/>
<path d="M131.551 308.613L131.551 227.621L363.286 227.621L363.286 308.613L131.551 308.613Z" fill="#309CFF"/>
<path d="M131.551 308.613L131.551 227.621L363.286 227.621L363.286 308.613L131.551 308.613Z" fill="url(#paint3_linear_195_3107)" fill-opacity="0.2"/>
<path d="M131.551 208.051L131.551 127.604L491.887 127.604L491.887 208.051L131.551 208.051Z" fill="#309CFF"/>
<path d="M131.551 208.051L131.551 127.604L491.887 127.604L491.887 208.051L131.551 208.051Z" fill="url(#paint4_linear_195_3107)" fill-opacity="0.2"/>
<text transform="translate(486.376 629.395)" fill="#DEE2E8" xml:space="preserve" style="white-space: pre" font-family="Mulish" font-size="16" font-weight="300" letter-spacing="0.135em"><tspan x="0.0785937" y="16.04">8</tspan></text>
<text transform="translate(395.973 629.336)" fill="#DEE2E8" xml:space="preserve" style="white-space: pre" font-family="Mulish" font-size="16" font-weight="300" letter-spacing="0.135em"><tspan x="0.0785937" y="16.04">6</tspan></text>
<text transform="translate(306.845 629.395)" fill="#DEE2E8" xml:space="preserve" style="white-space: pre" font-family="Mulish" font-size="16" font-weight="300" letter-spacing="0.135em"><tspan x="0.0785937" y="16.04">4</tspan></text>
<text transform="translate(122.219 629.395)" fill="#DEE2E8" xml:space="preserve" style="white-space: pre" font-family="Mulish" font-size="16" font-weight="300" letter-spacing="0.135em"><tspan x="0.0785937" y="16.04">0</tspan></text>
<text transform="translate(215.17 629.395)" fill="#DEE2E8" xml:space="preserve" style="white-space: pre" font-family="Mulish" font-size="16" font-weight="300" letter-spacing="0.135em"><tspan x="0.0785937" y="16.04">2</tspan></text>
<text transform="translate(24 565.174)" fill="#DEE2E8" xml:space="preserve" style="white-space: pre" font-family="Mulish" font-size="16" font-weight="300" letter-spacing="0.135em"><tspan x="0.240623" y="16.04">Eminem</tspan></text>
<text transform="translate(39.082 465.094)" fill="#DEE2E8" xml:space="preserve" style="white-space: pre" font-family="Mulish" font-size="16" font-weight="300" letter-spacing="0.135em"><tspan x="0.763018" y="16.04">Drake</tspan></text>
<text transform="translate(29.001 365.648)" fill="#DEE2E8" xml:space="preserve" style="white-space: pre" font-family="Mulish" font-size="16" font-weight="300" letter-spacing="0.135em"><tspan x="0" y="16.04">Lady Gaga</tspan></text>
<text transform="translate(25 258.324)" fill="#DEE2E8" xml:space="preserve" style="white-space: pre" font-family="Mulish" font-size="16" font-weight="300" letter-spacing="0.135em"><tspan x="7.19338" y="16.04">Justin </tspan><tspan x="4.97651" y="36.04">Bieber</tspan></text>
<text transform="translate(25 163.588)" fill="#DEE2E8" xml:space="preserve" style="white-space: pre" font-family="Mulish" font-size="16" font-weight="300" letter-spacing="0.135em"><tspan x="5.12307" y="16.04">Taylor </tspan><tspan x="10.7596" y="36.04">Swift</tspan></text>
<text transform="translate(479 161)" fill="#DEE2E8" xml:space="preserve" style="white-space: pre" font-family="Mulish" font-size="16" font-weight="900" letter-spacing="0em"><tspan x="28.9937" y="16.04">8</tspan></text>
<text transform="translate(357.494 262.283)" fill="#DEE2E8" xml:space="preserve" style="white-space: pre" font-family="Mulish" font-size="16" font-weight="900" letter-spacing="0em"><tspan x="28.9937" y="16.04">5</tspan></text>
<text transform="translate(347 354)" fill="#DEE2E8" xml:space="preserve" style="white-space: pre" font-family="Mulish" font-size="16" font-weight="900" letter-spacing="0em"><tspan x="28.9937" y="16.04">5</tspan></text>
<defs>
<linearGradient id="paint0_linear_195_3107" x1="202.854" y1="530.387" x2="202.854" y2="610.291" gradientUnits="userSpaceOnUse">
<stop stop-color="#D0F9FF"/>
<stop offset="1" stop-color="#D0F9FF" stop-opacity="0"/>
</linearGradient>
<linearGradient id="paint1_linear_195_3107" x1="223.226" y1="428.906" x2="223.226" y2="509.547" gradientUnits="userSpaceOnUse">
<stop stop-color="#D0F9FF"/>
<stop offset="1" stop-color="#D0F9FF" stop-opacity="0"/>
</linearGradient>
<linearGradient id="paint2_linear_195_3107" x1="247.418" y1="327.637" x2="247.418" y2="408.628" gradientUnits="userSpaceOnUse">
<stop stop-color="#D0F9FF"/>
<stop offset="1" stop-color="#D0F9FF" stop-opacity="0"/>
</linearGradient>
<linearGradient id="paint3_linear_195_3107" x1="247.418" y1="227.621" x2="247.418" y2="308.613" gradientUnits="userSpaceOnUse">
<stop stop-color="#D0F9FF"/>
<stop offset="1" stop-color="#D0F9FF" stop-opacity="0"/>
</linearGradient>
<linearGradient id="paint4_linear_195_3107" x1="311.719" y1="127.604" x2="311.719" y2="208.051" gradientUnits="userSpaceOnUse">
<stop stop-color="#D0F9FF"/>
<stop offset="1" stop-color="#D0F9FF" stop-opacity="0"/>
</linearGradient>
</defs>
</svg>
