<svg  viewBox="0 0 759 723" fill="none" xmlns="http://www.w3.org/2000/svg">
<path d="M754 -2.18035e-07C756.761 -9.76176e-08 759 2.23858 759 5L759 723L-3.16791e-05 723L-2.19081e-07 4.99997C-9.80858e-08 2.23854 2.23858 -3.3e-05 5 -3.28796e-05L754 -2.18035e-07Z" fill="#192029"/>
<path d="M754 -2.18035e-07C756.761 -9.76176e-08 759 2.23858 759 5L759 723L-3.16791e-05 723L-2.19081e-07 4.99997C-9.80858e-08 2.23854 2.23858 -3.3e-05 5 -3.28796e-05L754 -2.18035e-07Z" fill="url(#paint0_linear_196_4317)" fill-opacity="0.2"/>
<text fill="#DEE2E8" xml:space="preserve" style="white-space: pre" font-family="Mulish" font-size="34" font-weight="900" letter-spacing="0em"><tspan x="83" y="83.335">Artistas con la mayor cantidad de &#10;</tspan><tspan x="83" y="126.335">canciones, 2010 + 2020</tspan></text>
<g opacity="0.3">
<path d="M83.3398 487.511L711 487.511Z" fill="black"/>
<path d="M83.3398 487.511L711 487.511" stroke="#DEE2E8"/>
<path d="M83.3398 576.644L711 576.644Z" fill="black"/>
<path d="M83.3398 576.644L711 576.644" stroke="#DEE2E8"/>
<path d="M83.3379 398.377L710.998 398.377Z" fill="black"/>
<path d="M83.3379 398.377L710.998 398.377" stroke="#DEE2E8"/>
<path d="M83.3379 309.244L710.998 309.244Z" fill="black"/>
<path d="M83.3379 309.244L710.998 309.244" stroke="#DEE2E8"/>
<path d="M83.3379 220.111L710.998 220.111Z" fill="black"/>
<path d="M83.3379 220.111L710.998 220.111" stroke="#DEE2E8"/>
</g>
<path d="M83.3379 576.212H710.998Z" fill="#5C5F64"/>
<path d="M83.3379 576.212H710.998" stroke="#5C5F64" stroke-width="2"/>
<path d="M675.365 487.393L579.506 487.393L579.506 437.109L675.365 437.109L675.365 487.393Z" fill="#2FD2AB"/>
<path d="M675.365 487.393L579.506 487.393L579.506 437.109L675.365 437.109L675.365 487.393Z" fill="url(#paint1_linear_196_4317)" fill-opacity="0.2" style="mix-blend-mode:lighten"/>
<path d="M675.365 577.115L579.506 577.115L579.506 487.393L675.365 487.393L675.365 577.115Z" fill="#6E3FF1"/>
<path d="M675.365 577.115L579.506 577.115L579.506 487.393L675.365 487.393L675.365 577.115Z" fill="url(#paint2_linear_196_4317)" fill-opacity="0.5" style="mix-blend-mode:lighten"/>
<text transform="translate(598.879 410.486)" fill="#DEE2E8" xml:space="preserve" style="white-space: pre" font-family="Mulish" font-size="16" font-weight="900" letter-spacing="0em"><tspan x="24.124" y="16.04">3</tspan></text>
<path d="M554.686 537.677L457.971 537.677L457.971 396.685L554.686 396.685L554.686 537.677Z" fill="#2FD2AB"/>
<path d="M554.686 537.677L457.971 537.677L457.971 396.685L554.686 396.685L554.686 537.677Z" fill="url(#paint3_linear_196_4317)" fill-opacity="0.2" style="mix-blend-mode:lighten"/>
<path d="M554.686 577.115L457.971 577.115L457.971 537.677L554.686 537.677L554.686 577.115Z" fill="#6E3FF1"/>
<path d="M554.686 577.115L457.971 577.115L457.971 537.677L554.686 537.677L554.686 577.115Z" fill="url(#paint4_linear_196_4317)" fill-opacity="0.5" style="mix-blend-mode:lighten"/>
<text transform="translate(477.342 364.148)" fill="#DEE2E8" xml:space="preserve" style="white-space: pre" font-family="Mulish" font-size="16" font-weight="900" letter-spacing="0em"><tspan x="24.1241" y="16.04">4</tspan></text>
<path d="M433.149 577.115L336.434 577.115L336.434 437.109L433.149 437.109L433.149 577.115Z" fill="#6E3FF1"/>
<path d="M433.149 577.115L336.434 577.115L336.434 437.109L433.149 437.109L433.149 577.115Z" fill="url(#paint5_linear_196_4317)" fill-opacity="0.5" style="mix-blend-mode:lighten"/>
<path d="M433.149 437.109L336.434 437.109L336.434 349.359L433.149 349.359L433.149 437.109Z" fill="#2FD2AB"/>
<path d="M433.149 437.109L336.434 437.109L336.434 349.359L433.149 349.359L433.149 437.109Z" fill="url(#paint6_linear_196_4317)" fill-opacity="0.2" style="mix-blend-mode:lighten"/>
<path d="M313.325 577.115L215.754 577.115L215.754 489.365L313.325 489.365L313.325 577.115Z" fill="#6E3FF1"/>
<path d="M313.325 577.115L215.754 577.115L215.754 489.365L313.325 489.365L313.325 577.115Z" fill="url(#paint7_linear_196_4317)" fill-opacity="0.5" style="mix-blend-mode:lighten"/>
<path d="M313.325 489.365L215.754 489.365L215.754 349.359L313.325 349.359L313.325 489.365Z" fill="#2FD2AB"/>
<path d="M313.325 489.365L215.754 489.365L215.754 349.359L313.325 349.359L313.325 489.365Z" fill="url(#paint8_linear_196_4317)" fill-opacity="0.2" style="mix-blend-mode:lighten"/>
<path d="M192.645 577.115L95.9297 577.115L95.9297 378.938L192.645 378.938L192.645 577.115Z" fill="#6E3FF1"/>
<path d="M192.645 577.115L95.9297 577.115L95.9297 378.938L192.645 378.938L192.645 577.115Z" fill="url(#paint9_linear_196_4317)" fill-opacity="0.5" style="mix-blend-mode:lighten"/>
<path d="M192.645 378.937L95.9297 378.938L95.9297 200.479L192.645 200.479L192.645 378.937Z" fill="#2FD2AB"/>
<path d="M192.645 378.937L95.9297 378.938L95.9297 200.479L192.645 200.479L192.645 378.937Z" fill="url(#paint10_linear_196_4317)" fill-opacity="0.2" style="mix-blend-mode:lighten"/>
<text transform="translate(628.752 135.406)" fill="#DEE2E8" xml:space="preserve" style="white-space: pre" font-family="Mulish" font-size="16" font-weight="300" letter-spacing="0.135em"><tspan x="0" y="16.04">A&#xf1;o</tspan></text>
<text transform="translate(655.9 163.501)" fill="#DEE2E8" xml:space="preserve" style="white-space: pre" font-family="Mulish" font-size="16" font-weight="300" letter-spacing="0.135em"><tspan x="0" y="16.04">2020</tspan></text>
<path d="M642.241 176.949L630.271 176.949L630.271 164.985L642.241 164.985L642.241 176.949Z" fill="#3FE7A0"/>
<path d="M642.241 176.949L630.271 176.949L630.271 164.985L642.241 164.985L642.241 176.949Z" fill="#78E3AF"/>
<text transform="translate(657.707 187.433)" fill="#DEE2E8" xml:space="preserve" style="white-space: pre" font-family="Mulish" font-size="16" font-weight="300" letter-spacing="0.135em"><tspan x="0" y="16.04">2010</tspan></text>
<path d="M642.241 201.966L630.271 201.966L630.271 190.002L642.241 190.002L642.241 201.966Z" fill="#A05FF1"/>
<path d="M642.241 201.966L630.271 201.966L630.271 190.002L642.241 190.002L642.241 201.966Z" fill="#7765E9"/>
<text transform="translate(48 211.325)" fill="#DEE2E8" xml:space="preserve" style="white-space: pre" font-family="Mulish" font-size="16" font-weight="300" letter-spacing="0.135em"><tspan x="-0.624023" y="16.04">8</tspan></text>
<text transform="translate(48 300.458)" fill="#DEE2E8" xml:space="preserve" style="white-space: pre" font-family="Mulish" font-size="16" font-weight="300" letter-spacing="0.135em"><tspan x="-0.624023" y="16.04">6</tspan></text>
<text transform="translate(48 388.336)" fill="#DEE2E8" xml:space="preserve" style="white-space: pre" font-family="Mulish" font-size="16" font-weight="300" letter-spacing="0.135em"><tspan x="-0.624023" y="16.04">4</tspan></text>
<text transform="translate(48 570.365)" fill="#DEE2E8" xml:space="preserve" style="white-space: pre" font-family="Mulish" font-size="16" font-weight="300" letter-spacing="0.135em"><tspan x="-0.624023" y="16.04">0</tspan></text>
<text transform="translate(48 478.722)" fill="#DEE2E8" xml:space="preserve" style="white-space: pre" font-family="Mulish" font-size="16" font-weight="300" letter-spacing="0.135em"><tspan x="-0.624023" y="16.04">2</tspan></text>
<text fill="#DEE2E8" xml:space="preserve" style="white-space: pre" font-family="Mulish" font-size="16" font-weight="300" letter-spacing="0.135em"><tspan x="593.18" y="617.603">Eminem</tspan></text>
<text fill="#DEE2E8" xml:space="preserve" style="white-space: pre" font-family="Mulish" font-size="16" font-weight="300" letter-spacing="0.135em"><tspan x="479.592" y="615.527">Drake</tspan></text>
<text fill="#DEE2E8" xml:space="preserve" style="white-space: pre" font-family="Mulish" font-size="16" font-weight="300" letter-spacing="0.135em"><tspan x="339.539" y="617.603">Lady Gaga</tspan></text>
<text fill="#DEE2E8" xml:space="preserve" style="white-space: pre" font-family="Mulish" font-size="16" font-weight="300" letter-spacing="0.135em"><tspan x="238.933" y="617.507">Justin </tspan><tspan x="236.716" y="637.507">Bieber</tspan></text>
<text transform="translate(116.496 598.525)" fill="#DEE2E8" xml:space="preserve" style="white-space: pre" font-family="Mulish" font-size="16" font-weight="300" letter-spacing="0.135em"><tspan x="0.253433" y="16.04">Taylor </tspan><tspan x="5.89" y="36.04">Swift</tspan></text>
<text transform="translate(110.479 172.873)" fill="#DEE2E8" xml:space="preserve" style="white-space: pre" font-family="Mulish" font-size="16" font-weight="900" letter-spacing="0em"><tspan x="24.1241" y="16.04">8</tspan></text>
<text transform="translate(236.838 316.46)" fill="#DEE2E8" xml:space="preserve" style="white-space: pre" font-family="Mulish" font-size="16" font-weight="900" letter-spacing="0em"><tspan x="24.124" y="16.04">5</tspan></text>
<text transform="translate(353.393 316.46)" fill="#DEE2E8" xml:space="preserve" style="white-space: pre" font-family="Mulish" font-size="16" font-weight="900" letter-spacing="0em"><tspan x="24.1241" y="16.04">5</tspan></text>
<defs>
<linearGradient id="paint0_linear_196_4317" x1="759" y1="361.5" x2="-1.58396e-05" y2="361.5" gradientUnits="userSpaceOnUse">
<stop stop-color="#0F0F1F"/>
<stop offset="1" stop-color="#211F92" stop-opacity="0"/>
</linearGradient>
<linearGradient id="paint1_linear_196_4317" x1="579.506" y1="461.574" x2="679.056" y2="461.574" gradientUnits="userSpaceOnUse">
<stop stop-color="#A5FDA3" stop-opacity="0.81"/>
<stop offset="1" stop-color="#0B6579"/>
</linearGradient>
<linearGradient id="paint2_linear_196_4317" x1="565.36" y1="538.236" x2="680.178" y2="508.236" gradientUnits="userSpaceOnUse">
<stop stop-color="#3E2BB5"/>
<stop offset="1" stop-color="#1D074D" stop-opacity="0.56"/>
</linearGradient>
<linearGradient id="paint3_linear_196_4317" x1="457.971" y1="465.284" x2="558.41" y2="465.284" gradientUnits="userSpaceOnUse">
<stop stop-color="#A5FDA3" stop-opacity="0.81"/>
<stop offset="1" stop-color="#0B6579"/>
</linearGradient>
<linearGradient id="paint4_linear_196_4317" x1="443.698" y1="560.025" x2="534.715" y2="505.441" gradientUnits="userSpaceOnUse">
<stop stop-color="#3E2BB5"/>
<stop offset="1" stop-color="#1D074D" stop-opacity="0.56"/>
</linearGradient>
<linearGradient id="paint5_linear_196_4317" x1="322.161" y1="516.446" x2="442.479" y2="496.12" gradientUnits="userSpaceOnUse">
<stop stop-color="#3E2BB5"/>
<stop offset="1" stop-color="#1D074D" stop-opacity="0.56"/>
</linearGradient>
<linearGradient id="paint6_linear_196_4317" x1="336.434" y1="392.054" x2="436.873" y2="392.054" gradientUnits="userSpaceOnUse">
<stop stop-color="#A5FDA3" stop-opacity="0.81"/>
<stop offset="1" stop-color="#0B6579"/>
</linearGradient>
<linearGradient id="paint7_linear_196_4317" x1="201.355" y1="539.09" x2="317.606" y2="507.479" gradientUnits="userSpaceOnUse">
<stop stop-color="#3E2BB5"/>
<stop offset="1" stop-color="#1D074D" stop-opacity="0.56"/>
</linearGradient>
<linearGradient id="paint8_linear_196_4317" x1="215.754" y1="417.479" x2="317.082" y2="417.479" gradientUnits="userSpaceOnUse">
<stop stop-color="#A5FDA3" stop-opacity="0.81"/>
<stop offset="1" stop-color="#0B6579"/>
</linearGradient>
<linearGradient id="paint9_linear_196_4317" x1="81.6573" y1="491.238" x2="203.671" y2="476.676" gradientUnits="userSpaceOnUse">
<stop stop-color="#3E2BB5"/>
<stop offset="1" stop-color="#1D074D" stop-opacity="0.56"/>
</linearGradient>
<linearGradient id="paint10_linear_196_4317" x1="95.9297" y1="287.308" x2="196.369" y2="287.308" gradientUnits="userSpaceOnUse">
<stop stop-color="#A5FDA3" stop-opacity="0.81"/>
<stop offset="1" stop-color="#0B6579"/>
</linearGradient>
</defs>
</svg>
