<svg  viewBox="0 0 1071 647" fill="none" xmlns="http://www.w3.org/2000/svg">
<rect width="523.461" height="646.104" rx="5" fill="url(#paint0_linear_231_3353)"/>
<path d="M61.12 80.288C58.7307 80.288 56.6613 79.808 54.912 78.848C53.1627 77.8667 51.808 76.5013 50.848 74.752C49.9093 72.9813 49.44 70.9227 49.44 68.576C49.44 66.2507 49.9093 64.2133 50.848 62.464C51.808 60.7147 53.1627 59.36 54.912 58.4C56.6613 57.4187 58.7307 56.928 61.12 56.928C62.6133 56.928 64.0533 57.152 65.44 57.6C66.848 58.048 67.9787 58.656 68.832 59.424L67.008 63.68C66.0267 62.976 65.0667 62.464 64.128 62.144C63.1893 61.824 62.2293 61.664 61.248 61.664C59.4347 61.664 58.0267 62.24 57.024 63.392C56.0427 64.544 55.552 66.272 55.552 68.576C55.552 70.88 56.0427 72.6187 57.024 73.792C58.0267 74.9653 59.4347 75.552 61.248 75.552C62.2293 75.552 63.1893 75.392 64.128 75.072C65.0667 74.752 66.0267 74.24 67.008 73.536L68.832 77.792C67.9787 78.56 66.848 79.168 65.44 79.616C64.0533 80.064 62.6133 80.288 61.12 80.288ZM77.7538 80.256C76.3671 80.256 75.1298 79.9147 74.0418 79.232C72.9538 78.5493 72.1004 77.5787 71.4818 76.32C70.8844 75.0613 70.5858 73.5893 70.5858 71.904C70.5858 70.1973 70.8951 68.704 71.5138 67.424C72.1324 66.1227 72.9751 65.1093 74.0418 64.384C75.1298 63.6587 76.3671 63.296 77.7538 63.296C78.9911 63.296 80.1004 63.6053 81.0818 64.224C82.0844 64.8213 82.7671 65.6107 83.1298 66.592L82.7458 66.816V63.744H88.4418V80H82.7458V77.024H83.1298C82.7671 78.0267 82.0844 78.816 81.0818 79.392C80.1004 79.968 78.9911 80.256 77.7538 80.256ZM79.5458 75.936C80.5484 75.936 81.3271 75.584 81.8818 74.88C82.4578 74.176 82.7458 73.1627 82.7458 71.84C82.7458 70.4747 82.4684 69.44 81.9138 68.736C81.3591 68.032 80.5698 67.68 79.5458 67.68C78.5431 67.68 77.7538 68.0533 77.1778 68.8C76.6018 69.5253 76.3138 70.56 76.3138 71.904C76.3138 73.2053 76.5911 74.208 77.1458 74.912C77.7004 75.5947 78.5004 75.936 79.5458 75.936ZM91.8843 80V68.416C91.8843 67.648 91.8629 66.8693 91.8203 66.08C91.7989 65.2907 91.7349 64.512 91.6283 63.744H97.0683L97.4523 66.816L97.0683 66.656C97.6656 65.5893 98.4443 64.768 99.4043 64.192C100.386 63.5947 101.506 63.296 102.764 63.296C106.583 63.296 108.492 65.632 108.492 70.304V80H102.7V70.56C102.7 69.5573 102.53 68.8427 102.188 68.416C101.847 67.968 101.314 67.744 100.588 67.744C99.7136 67.744 99.0096 68.0427 98.4763 68.64C97.9429 69.216 97.6763 69.984 97.6763 70.944V80H91.8843ZM110.221 68V63.744H122.957V68H110.221ZM122.989 75.392V79.776C122.498 79.968 122.008 80.096 121.517 80.16C121.026 80.224 120.514 80.256 119.981 80.256C117.741 80.256 116.056 79.6267 114.925 78.368C113.816 77.1093 113.261 75.4027 113.261 73.248V60.064L119.053 58.208V73.248C119.053 73.7813 119.16 74.2293 119.373 74.592C119.608 74.9333 119.906 75.1893 120.269 75.36C120.632 75.5093 121.026 75.584 121.453 75.584C121.666 75.584 121.89 75.5733 122.125 75.552C122.381 75.5093 122.669 75.456 122.989 75.392ZM125.166 80V63.744H130.958V80H125.166ZM125.006 55.776H131.054V60.992H125.006V55.776ZM151.536 80H145.84V76.192L146.224 77.024C145.861 78.0267 145.178 78.816 144.176 79.392C143.194 79.968 142.085 80.256 140.848 80.256C139.461 80.256 138.224 79.904 137.136 79.2C136.069 78.4747 135.226 77.472 134.608 76.192C133.989 74.912 133.68 73.4187 133.68 71.712C133.68 70.0267 133.978 68.5547 134.576 67.296C135.194 66.016 136.048 65.0347 137.136 64.352C138.224 63.648 139.461 63.296 140.848 63.296C142.085 63.296 143.194 63.6053 144.176 64.224C145.178 64.8213 145.861 65.6 146.224 66.56L145.744 67.264V56.448H151.536V80ZM142.64 75.936C143.664 75.936 144.453 75.584 145.008 74.88C145.562 74.176 145.84 73.1413 145.84 71.776C145.84 70.4747 145.552 69.472 144.976 68.768C144.421 68.0427 143.642 67.68 142.64 67.68C141.594 67.68 140.794 68.032 140.24 68.736C139.685 69.4187 139.408 70.4107 139.408 71.712C139.408 73.0773 139.696 74.1227 140.272 74.848C140.848 75.5733 141.637 75.936 142.64 75.936ZM161.41 80.256C160.023 80.256 158.786 79.9147 157.698 79.232C156.61 78.5493 155.757 77.5787 155.138 76.32C154.541 75.0613 154.242 73.5893 154.242 71.904C154.242 70.1973 154.551 68.704 155.17 67.424C155.789 66.1227 156.631 65.1093 157.698 64.384C158.786 63.6587 160.023 63.296 161.41 63.296C162.647 63.296 163.757 63.6053 164.738 64.224C165.741 64.8213 166.423 65.6107 166.786 66.592L166.402 66.816V63.744H172.098V80H166.402V77.024H166.786C166.423 78.0267 165.741 78.816 164.738 79.392C163.757 79.968 162.647 80.256 161.41 80.256ZM163.202 75.936C164.205 75.936 164.983 75.584 165.538 74.88C166.114 74.176 166.402 73.1627 166.402 71.84C166.402 70.4747 166.125 69.44 165.57 68.736C165.015 68.032 164.226 67.68 163.202 67.68C162.199 67.68 161.41 68.0533 160.834 68.8C160.258 69.5253 159.97 70.56 159.97 71.904C159.97 73.2053 160.247 74.208 160.802 74.912C161.357 75.5947 162.157 75.936 163.202 75.936ZM192.661 80H186.965V76.192L187.349 77.024C186.986 78.0267 186.303 78.816 185.301 79.392C184.319 79.968 183.21 80.256 181.973 80.256C180.586 80.256 179.349 79.904 178.261 79.2C177.194 78.4747 176.351 77.472 175.733 76.192C175.114 74.912 174.805 73.4187 174.805 71.712C174.805 70.0267 175.103 68.5547 175.701 67.296C176.319 66.016 177.173 65.0347 178.261 64.352C179.349 63.648 180.586 63.296 181.973 63.296C183.21 63.296 184.319 63.6053 185.301 64.224C186.303 64.8213 186.986 65.6 187.349 66.56L186.869 67.264V56.448H192.661V80ZM183.765 75.936C184.789 75.936 185.578 75.584 186.133 74.88C186.687 74.176 186.965 73.1413 186.965 71.776C186.965 70.4747 186.677 69.472 186.101 68.768C185.546 68.0427 184.767 67.68 183.765 67.68C182.719 67.68 181.919 68.032 181.365 68.736C180.81 69.4187 180.533 70.4107 180.533 71.712C180.533 73.0773 180.821 74.1227 181.397 74.848C181.973 75.5733 182.762 75.936 183.765 75.936ZM222.504 80H216.808V76.192L217.192 77.024C216.83 78.0267 216.147 78.816 215.144 79.392C214.163 79.968 213.054 80.256 211.816 80.256C210.43 80.256 209.192 79.904 208.104 79.2C207.038 78.4747 206.195 77.472 205.576 76.192C204.958 74.912 204.648 73.4187 204.648 71.712C204.648 70.0267 204.947 68.5547 205.544 67.296C206.163 66.016 207.016 65.0347 208.104 64.352C209.192 63.648 210.43 63.296 211.816 63.296C213.054 63.296 214.163 63.6053 215.144 64.224C216.147 64.8213 216.83 65.6 217.192 66.56L216.712 67.264V56.448H222.504V80ZM213.608 75.936C214.632 75.936 215.422 75.584 215.976 74.88C216.531 74.176 216.808 73.1413 216.808 71.776C216.808 70.4747 216.52 69.472 215.944 68.768C215.39 68.0427 214.611 67.68 213.608 67.68C212.563 67.68 211.763 68.032 211.208 68.736C210.654 69.4187 210.376 70.4107 210.376 71.712C210.376 73.0773 210.664 74.1227 211.24 74.848C211.816 75.5733 212.606 75.936 213.608 75.936ZM240.667 78.336C239.856 78.9547 238.875 79.4347 237.723 79.776C236.571 80.096 235.419 80.256 234.267 80.256C232.389 80.256 230.768 79.9147 229.403 79.232C228.059 78.5493 227.024 77.5787 226.299 76.32C225.573 75.04 225.211 73.536 225.211 71.808C225.211 70.144 225.552 68.672 226.235 67.392C226.939 66.112 227.899 65.1093 229.115 64.384C230.331 63.6587 231.739 63.296 233.339 63.296C234.896 63.296 236.24 63.6373 237.371 64.32C238.523 65.0027 239.408 65.9733 240.027 67.232C240.645 68.4907 240.955 69.9733 240.955 71.68V72.448H230.331L230.395 69.76H237.467L236.059 70.688C236.059 69.536 235.835 68.6827 235.387 68.128C234.96 67.552 234.331 67.264 233.499 67.264C232.581 67.264 231.877 67.6053 231.387 68.288C230.917 68.9493 230.683 69.9627 230.683 71.328C230.683 73.0133 230.992 74.2187 231.611 74.944C232.229 75.648 233.211 76 234.555 76C235.365 76 236.176 75.872 236.987 75.616C237.819 75.3387 238.555 74.9653 239.195 74.496L240.667 78.336ZM260.98 80.256C259.145 80.256 257.566 79.9253 256.244 79.264C254.921 78.5813 253.908 77.6107 253.204 76.352C252.521 75.0933 252.18 73.6107 252.18 71.904C252.18 70.176 252.553 68.672 253.299 67.392C254.068 66.0907 255.124 65.088 256.468 64.384C257.833 63.6587 259.422 63.296 261.236 63.296C262.43 63.296 263.604 63.4773 264.756 63.84C265.908 64.1813 266.825 64.6507 267.508 65.248L266.036 69.248C265.46 68.7787 264.788 68.4053 264.02 68.128C263.252 67.8507 262.516 67.712 261.812 67.712C260.66 67.712 259.753 68.0427 259.092 68.704C258.43 69.3653 258.1 70.3893 258.1 71.776C258.1 73.184 258.42 74.2293 259.06 74.912C259.721 75.5733 260.649 75.904 261.844 75.904C262.526 75.904 263.252 75.776 264.02 75.52C264.788 75.2427 265.46 74.8587 266.036 74.368L267.508 78.304C266.782 78.9227 265.833 79.4027 264.66 79.744C263.508 80.0853 262.281 80.256 260.98 80.256ZM275.816 80.256C274.43 80.256 273.192 79.9147 272.104 79.232C271.016 78.5493 270.163 77.5787 269.544 76.32C268.947 75.0613 268.648 73.5893 268.648 71.904C268.648 70.1973 268.958 68.704 269.576 67.424C270.195 66.1227 271.038 65.1093 272.104 64.384C273.192 63.6587 274.43 63.296 275.816 63.296C277.054 63.296 278.163 63.6053 279.144 64.224C280.147 64.8213 280.83 65.6107 281.192 66.592L280.808 66.816V63.744H286.504V80H280.808V77.024H281.192C280.83 78.0267 280.147 78.816 279.144 79.392C278.163 79.968 277.054 80.256 275.816 80.256ZM277.608 75.936C278.611 75.936 279.39 75.584 279.944 74.88C280.52 74.176 280.808 73.1627 280.808 71.84C280.808 70.4747 280.531 69.44 279.976 68.736C279.422 68.032 278.632 67.68 277.608 67.68C276.606 67.68 275.816 68.0533 275.24 68.8C274.664 69.5253 274.376 70.56 274.376 71.904C274.376 73.2053 274.654 74.208 275.208 74.912C275.763 75.5947 276.563 75.936 277.608 75.936ZM289.947 80V68.416C289.947 67.648 289.925 66.8693 289.883 66.08C289.861 65.2907 289.797 64.512 289.691 63.744H295.131L295.515 66.816L295.131 66.656C295.728 65.5893 296.507 64.768 297.467 64.192C298.448 63.5947 299.568 63.296 300.827 63.296C304.645 63.296 306.555 65.632 306.555 70.304V80H300.763V70.56C300.763 69.5573 300.592 68.8427 300.251 68.416C299.909 67.968 299.376 67.744 298.651 67.744C297.776 67.744 297.072 68.0427 296.539 68.64C296.005 69.216 295.739 69.984 295.739 70.944V80H289.947ZM317.98 80.256C316.145 80.256 314.566 79.9253 313.244 79.264C311.921 78.5813 310.908 77.6107 310.204 76.352C309.521 75.0933 309.18 73.6107 309.18 71.904C309.18 70.176 309.553 68.672 310.299 67.392C311.068 66.0907 312.124 65.088 313.468 64.384C314.833 63.6587 316.422 63.296 318.236 63.296C319.43 63.296 320.604 63.4773 321.756 63.84C322.908 64.1813 323.825 64.6507 324.508 65.248L323.036 69.248C322.46 68.7787 321.788 68.4053 321.02 68.128C320.252 67.8507 319.516 67.712 318.812 67.712C317.66 67.712 316.753 68.0427 316.092 68.704C315.43 69.3653 315.1 70.3893 315.1 71.776C315.1 73.184 315.42 74.2293 316.06 74.912C316.721 75.5733 317.649 75.904 318.844 75.904C319.526 75.904 320.252 75.776 321.02 75.52C321.788 75.2427 322.46 74.8587 323.036 74.368L324.508 78.304C323.782 78.9227 322.833 79.4027 321.66 79.744C320.508 80.0853 319.281 80.256 317.98 80.256ZM326.384 80V63.744H332.176V80H326.384ZM326.224 55.776H332.272V60.992H326.224V55.776ZM343.826 80.256C341.992 80.256 340.402 79.9147 339.058 79.232C337.736 78.5493 336.712 77.5787 335.986 76.32C335.261 75.04 334.898 73.5253 334.898 71.776C334.898 70.048 335.261 68.5547 335.986 67.296C336.712 66.016 337.736 65.0347 339.058 64.352C340.402 63.648 341.992 63.296 343.826 63.296C345.618 63.296 347.176 63.648 348.498 64.352C349.842 65.0347 350.877 66.016 351.602 67.296C352.328 68.5547 352.69 70.048 352.69 71.776C352.69 73.5253 352.328 75.04 351.602 76.32C350.877 77.5787 349.842 78.5493 348.498 79.232C347.176 79.9147 345.618 80.256 343.826 80.256ZM343.826 75.936C344.829 75.936 345.597 75.6053 346.13 74.944C346.685 74.2827 346.962 73.2267 346.962 71.776C346.962 70.3467 346.696 69.3013 346.162 68.64C345.629 67.9787 344.85 67.648 343.826 67.648C342.781 67.648 341.981 67.9787 341.426 68.64C340.893 69.3013 340.626 70.3467 340.626 71.776C340.626 73.2267 340.893 74.2827 341.426 74.944C341.981 75.6053 342.781 75.936 343.826 75.936ZM355.416 80V68.416C355.416 67.648 355.394 66.8693 355.352 66.08C355.33 65.2907 355.266 64.512 355.16 63.744H360.6L360.984 66.816L360.6 66.656C361.197 65.5893 361.976 64.768 362.936 64.192C363.917 63.5947 365.037 63.296 366.296 63.296C370.114 63.296 372.024 65.632 372.024 70.304V80H366.232V70.56C366.232 69.5573 366.061 68.8427 365.72 68.416C365.378 67.968 364.845 67.744 364.12 67.744C363.245 67.744 362.541 68.0427 362.008 68.64C361.474 69.216 361.208 69.984 361.208 70.944V80H355.416ZM390.104 78.336C389.294 78.9547 388.312 79.4347 387.16 79.776C386.008 80.096 384.856 80.256 383.704 80.256C381.827 80.256 380.206 79.9147 378.84 79.232C377.496 78.5493 376.462 77.5787 375.736 76.32C375.011 75.04 374.648 73.536 374.648 71.808C374.648 70.144 374.99 68.672 375.672 67.392C376.376 66.112 377.336 65.1093 378.552 64.384C379.768 63.6587 381.176 63.296 382.776 63.296C384.334 63.296 385.678 63.6373 386.808 64.32C387.96 65.0027 388.846 65.9733 389.464 67.232C390.083 68.4907 390.392 69.9733 390.392 71.68V72.448H379.768L379.832 69.76H386.904L385.496 70.688C385.496 69.536 385.272 68.6827 384.824 68.128C384.398 67.552 383.768 67.264 382.936 67.264C382.019 67.264 381.315 67.6053 380.824 68.288C380.355 68.9493 380.12 69.9627 380.12 71.328C380.12 73.0133 380.43 74.2187 381.048 74.944C381.667 75.648 382.648 76 383.992 76C384.803 76 385.614 75.872 386.424 75.616C387.256 75.3387 387.992 74.9653 388.632 74.496L390.104 78.336ZM399.632 80.256C396.389 80.256 393.829 79.6053 391.952 78.304L393.424 74.368C394.298 74.9653 395.29 75.4347 396.4 75.776C397.53 76.096 398.618 76.256 399.664 76.256C400.325 76.256 400.837 76.16 401.2 75.968C401.562 75.776 401.744 75.5093 401.744 75.168C401.744 74.8693 401.605 74.6347 401.328 74.464C401.072 74.2933 400.57 74.1227 399.824 73.952L397.2 73.344C395.536 73.0027 394.33 72.4693 393.584 71.744C392.858 70.9973 392.496 69.9733 392.496 68.672C392.496 67.6267 392.805 66.6987 393.424 65.888C394.042 65.0773 394.896 64.448 395.984 64C397.093 63.5307 398.362 63.296 399.792 63.296C400.986 63.296 402.149 63.4773 403.28 63.84C404.41 64.1813 405.456 64.6507 406.416 65.248L404.88 69.088C404.026 68.5333 403.152 68.1067 402.256 67.808C401.36 67.5093 400.517 67.36 399.728 67.36C399.109 67.36 398.608 67.4667 398.224 67.68C397.861 67.872 397.68 68.16 397.68 68.544C397.68 68.7787 397.786 68.9707 398 69.12C398.213 69.248 398.618 69.3867 399.216 69.536L401.936 70.144C403.664 70.528 404.901 71.1147 405.648 71.904C406.416 72.6933 406.8 73.76 406.8 75.104C406.8 76.704 406.16 77.9627 404.88 78.88C403.621 79.7973 401.872 80.256 399.632 80.256ZM64.448 118.336C63.6373 118.955 62.656 119.435 61.504 119.776C60.352 120.096 59.2 120.256 58.048 120.256C56.1707 120.256 54.5493 119.915 53.184 119.232C51.84 118.549 50.8053 117.579 50.08 116.32C49.3547 115.04 48.992 113.536 48.992 111.808C48.992 110.144 49.3333 108.672 50.016 107.392C50.72 106.112 51.68 105.109 52.896 104.384C54.112 103.659 55.52 103.296 57.12 103.296C58.6773 103.296 60.0213 103.637 61.152 104.32C62.304 105.003 63.1893 105.973 63.808 107.232C64.4267 108.491 64.736 109.973 64.736 111.68V112.448H54.112L54.176 109.76H61.248L59.84 110.688C59.84 109.536 59.616 108.683 59.168 108.128C58.7413 107.552 58.112 107.264 57.28 107.264C56.3627 107.264 55.6587 107.605 55.168 108.288C54.6987 108.949 54.464 109.963 54.464 111.328C54.464 113.013 54.7733 114.219 55.392 114.944C56.0107 115.648 56.992 116 58.336 116C59.1467 116 59.9573 115.872 60.768 115.616C61.6 115.339 62.336 114.965 62.976 114.496L64.448 118.336ZM67.4155 120V108.416C67.4155 107.648 67.3942 106.869 67.3515 106.08C67.3302 105.291 67.2662 104.512 67.1595 103.744H72.5995L72.9835 106.816L72.5995 106.656C73.1968 105.589 73.9755 104.768 74.9355 104.192C75.9168 103.595 77.0368 103.296 78.2955 103.296C82.1142 103.296 84.0235 105.632 84.0235 110.304V120H78.2315V110.56C78.2315 109.557 78.0608 108.843 77.7195 108.416C77.3782 107.968 76.8448 107.744 76.1195 107.744C75.2448 107.744 74.5408 108.043 74.0075 108.64C73.4742 109.216 73.2075 109.984 73.2075 110.944V120H67.4155ZM111.385 118.336C110.575 118.955 109.594 119.435 108.442 119.776C107.29 120.096 106.138 120.256 104.986 120.256C103.108 120.256 101.487 119.915 100.122 119.232C98.7775 118.549 97.7428 117.579 97.0175 116.32C96.2922 115.04 95.9295 113.536 95.9295 111.808C95.9295 110.144 96.2708 108.672 96.9535 107.392C97.6575 106.112 98.6175 105.109 99.8335 104.384C101.05 103.659 102.458 103.296 104.058 103.296C105.615 103.296 106.959 103.637 108.09 104.32C109.242 105.003 110.127 105.973 110.746 107.232C111.364 108.491 111.674 109.973 111.674 111.68V112.448H101.05L101.114 109.76H108.186L106.778 110.688C106.778 109.536 106.554 108.683 106.106 108.128C105.679 107.552 105.05 107.264 104.218 107.264C103.3 107.264 102.596 107.605 102.106 108.288C101.636 108.949 101.402 109.963 101.402 111.328C101.402 113.013 101.711 114.219 102.33 114.944C102.948 115.648 103.93 116 105.274 116C106.084 116 106.895 115.872 107.706 115.616C108.538 115.339 109.274 114.965 109.914 114.496L111.385 118.336ZM114.353 120V96.448H120.145V120H114.353ZM140.948 120.256C139.114 120.256 137.535 119.925 136.212 119.264C134.89 118.581 133.876 117.611 133.172 116.352C132.49 115.093 132.148 113.611 132.148 111.904C132.148 110.176 132.522 108.672 133.268 107.392C134.036 106.091 135.092 105.088 136.436 104.384C137.802 103.659 139.391 103.296 141.204 103.296C142.399 103.296 143.572 103.477 144.724 103.84C145.876 104.181 146.794 104.651 147.476 105.248L146.004 109.248C145.428 108.779 144.756 108.405 143.988 108.128C143.22 107.851 142.484 107.712 141.78 107.712C140.628 107.712 139.722 108.043 139.06 108.704C138.399 109.365 138.068 110.389 138.068 111.776C138.068 113.184 138.388 114.229 139.028 114.912C139.69 115.573 140.618 115.904 141.812 115.904C142.495 115.904 143.22 115.776 143.988 115.52C144.756 115.243 145.428 114.859 146.004 114.368L147.476 118.304C146.751 118.923 145.802 119.403 144.628 119.744C143.476 120.085 142.25 120.256 140.948 120.256ZM149.353 120V96.448H155.145V107.04L154.537 106.656C155.134 105.589 155.913 104.768 156.873 104.192C157.854 103.595 158.974 103.296 160.233 103.296C164.052 103.296 165.961 105.632 165.961 110.304V120H160.169V110.56C160.169 109.557 159.998 108.843 159.657 108.416C159.316 107.968 158.782 107.744 158.057 107.744C157.182 107.744 156.478 108.043 155.945 108.64C155.412 109.216 155.145 109.984 155.145 110.944V120H149.353ZM175.754 120.256C174.367 120.256 173.13 119.915 172.042 119.232C170.954 118.549 170.1 117.579 169.482 116.32C168.884 115.061 168.586 113.589 168.586 111.904C168.586 110.197 168.895 108.704 169.514 107.424C170.132 106.123 170.975 105.109 172.042 104.384C173.13 103.659 174.367 103.296 175.754 103.296C176.991 103.296 178.1 103.605 179.082 104.224C180.084 104.821 180.767 105.611 181.13 106.592L180.746 106.816V103.744H186.442V120H180.746V117.024H181.13C180.767 118.027 180.084 118.816 179.082 119.392C178.1 119.968 176.991 120.256 175.754 120.256ZM177.546 115.936C178.548 115.936 179.327 115.584 179.882 114.88C180.458 114.176 180.746 113.163 180.746 111.84C180.746 110.475 180.468 109.44 179.914 108.736C179.359 108.032 178.57 107.68 177.546 107.68C176.543 107.68 175.754 108.053 175.178 108.8C174.602 109.525 174.314 110.56 174.314 111.904C174.314 113.205 174.591 114.208 175.146 114.912C175.7 115.595 176.5 115.936 177.546 115.936ZM189.884 120V108.416C189.884 107.648 189.863 106.869 189.82 106.08C189.799 105.291 189.735 104.512 189.628 103.744H195.068L195.612 108.128L195.068 107.808C195.282 106.336 195.868 105.227 196.828 104.48C197.81 103.733 198.919 103.36 200.156 103.36C200.562 103.36 200.914 103.392 201.212 103.456C201.511 103.52 201.767 103.605 201.98 103.712V108.992C201.063 108.565 200.178 108.352 199.324 108.352C198.556 108.352 197.906 108.48 197.372 108.736C196.839 108.971 196.423 109.344 196.124 109.856C195.826 110.368 195.676 111.029 195.676 111.84V120H189.884ZM203.721 108V103.744H216.457V108H203.721ZM216.489 115.392V119.776C215.998 119.968 215.508 120.096 215.017 120.16C214.526 120.224 214.014 120.256 213.481 120.256C211.241 120.256 209.556 119.627 208.425 118.368C207.316 117.109 206.761 115.403 206.761 113.248V100.064L212.553 98.208V113.248C212.553 113.781 212.66 114.229 212.873 114.592C213.108 114.933 213.406 115.189 213.769 115.36C214.132 115.509 214.526 115.584 214.953 115.584C215.166 115.584 215.39 115.573 215.625 115.552C215.881 115.509 216.169 115.456 216.489 115.392ZM221.971 125.024L219.827 123.296C220.638 122.485 221.224 121.707 221.587 120.96C221.971 120.235 222.163 119.445 222.163 118.592L223.475 120H219.251V114.048H225.299V117.792C225.299 119.157 225.054 120.405 224.563 121.536C224.072 122.667 223.208 123.829 221.971 125.024ZM237.824 120V115.584L245.248 107.84C245.931 107.115 246.443 106.421 246.784 105.76C247.147 105.077 247.328 104.416 247.328 103.776C247.328 103.029 247.104 102.475 246.656 102.112C246.208 101.749 245.557 101.568 244.704 101.568C243.808 101.568 242.859 101.749 241.856 102.112C240.853 102.453 239.861 102.955 238.88 103.616L236.992 99.36C237.909 98.6133 239.093 98.0267 240.544 97.6C242.016 97.152 243.509 96.928 245.024 96.928C246.667 96.928 248.096 97.1947 249.312 97.728C250.549 98.24 251.499 98.9867 252.16 99.968C252.843 100.928 253.184 102.059 253.184 103.36C253.184 104.704 252.917 105.92 252.384 107.008C251.872 108.075 250.987 109.269 249.728 110.592L243.68 116.768L242.848 115.232H253.888V120H237.824ZM264.819 120.288C262.003 120.288 259.837 119.285 258.323 117.28C256.829 115.275 256.083 112.373 256.083 108.576C256.083 104.843 256.829 101.984 258.323 100C259.837 97.9947 262.003 96.992 264.819 96.992C267.635 96.992 269.789 97.9947 271.283 100C272.797 101.984 273.555 104.843 273.555 108.576C273.555 112.373 272.797 115.275 271.283 117.28C269.789 119.285 267.635 120.288 264.819 120.288ZM264.819 115.776C265.843 115.776 266.579 115.221 267.027 114.112C267.475 112.981 267.699 111.136 267.699 108.576C267.699 106.08 267.475 104.277 267.027 103.168C266.579 102.059 265.843 101.504 264.819 101.504C263.795 101.504 263.059 102.059 262.611 103.168C262.163 104.277 261.939 106.08 261.939 108.576C261.939 111.136 262.163 112.981 262.611 114.112C263.059 115.221 263.795 115.776 264.819 115.776ZM282.246 117.216V102.176H284.998L277.67 106.368V101.216L284.71 97.216H288.23V117.216H282.246ZM277.35 120V115.232H293.158V120H277.35ZM303.194 120.288C300.378 120.288 298.212 119.285 296.698 117.28C295.204 115.275 294.458 112.373 294.458 108.576C294.458 104.843 295.204 101.984 296.698 100C298.212 97.9947 300.378 96.992 303.194 96.992C306.01 96.992 308.164 97.9947 309.658 100C311.172 101.984 311.93 104.843 311.93 108.576C311.93 112.373 311.172 115.275 309.658 117.28C308.164 119.285 306.01 120.288 303.194 120.288ZM303.194 115.776C304.218 115.776 304.954 115.221 305.402 114.112C305.85 112.981 306.074 111.136 306.074 108.576C306.074 106.08 305.85 104.277 305.402 103.168C304.954 102.059 304.218 101.504 303.194 101.504C302.17 101.504 301.434 102.059 300.986 103.168C300.538 104.277 300.314 106.08 300.314 108.576C300.314 111.136 300.538 112.981 300.986 114.112C301.434 115.221 302.17 115.776 303.194 115.776ZM328.591 120L321.454 103.776H327.471L331.631 114.464H330.575L334.895 103.776H340.591L333.359 120H328.591ZM348.101 120.256C344.858 120.256 342.298 119.605 340.421 118.304L341.893 114.368C342.767 114.965 343.759 115.435 344.869 115.776C345.999 116.096 347.087 116.256 348.133 116.256C348.794 116.256 349.306 116.16 349.669 115.968C350.031 115.776 350.213 115.509 350.213 115.168C350.213 114.869 350.074 114.635 349.797 114.464C349.541 114.293 349.039 114.123 348.293 113.952L345.669 113.344C344.005 113.003 342.799 112.469 342.053 111.744C341.327 110.997 340.965 109.973 340.965 108.672C340.965 107.627 341.274 106.699 341.893 105.888C342.511 105.077 343.365 104.448 344.453 104C345.562 103.531 346.831 103.296 348.26 103.296C349.455 103.296 350.618 103.477 351.749 103.84C352.879 104.181 353.925 104.651 354.885 105.248L353.349 109.088C352.495 108.533 351.621 108.107 350.725 107.808C349.829 107.509 348.986 107.36 348.197 107.36C347.578 107.36 347.077 107.467 346.693 107.68C346.33 107.872 346.149 108.16 346.149 108.544C346.149 108.779 346.255 108.971 346.469 109.12C346.682 109.248 347.087 109.387 347.685 109.536L350.405 110.144C352.133 110.528 353.37 111.115 354.117 111.904C354.885 112.693 355.269 113.76 355.269 115.104C355.269 116.704 354.629 117.963 353.349 118.88C352.09 119.797 350.341 120.256 348.101 120.256ZM367.137 120V115.584L374.561 107.84C375.243 107.115 375.755 106.421 376.097 105.76C376.459 105.077 376.641 104.416 376.641 103.776C376.641 103.029 376.417 102.475 375.969 102.112C375.521 101.749 374.87 101.568 374.017 101.568C373.121 101.568 372.171 101.749 371.169 102.112C370.166 102.453 369.174 102.955 368.193 103.616L366.305 99.36C367.222 98.6133 368.406 98.0267 369.857 97.6C371.329 97.152 372.822 96.928 374.337 96.928C375.979 96.928 377.409 97.1947 378.625 97.728C379.862 98.24 380.811 98.9867 381.472 99.968C382.155 100.928 382.497 102.059 382.497 103.36C382.497 104.704 382.23 105.92 381.697 107.008C381.185 108.075 380.299 109.269 379.041 110.592L372.993 116.768L372.161 115.232H383.201V120H367.137ZM394.131 120.288C391.315 120.288 389.15 119.285 387.635 117.28C386.142 115.275 385.395 112.373 385.395 108.576C385.395 104.843 386.142 101.984 387.635 100C389.15 97.9947 391.315 96.992 394.131 96.992C396.947 96.992 399.102 97.9947 400.595 100C402.11 101.984 402.867 104.843 402.867 108.576C402.867 112.373 402.11 115.275 400.595 117.28C399.102 119.285 396.947 120.288 394.131 120.288ZM394.131 115.776C395.155 115.776 395.891 115.221 396.339 114.112C396.787 112.981 397.011 111.136 397.011 108.576C397.011 106.08 396.787 104.277 396.339 103.168C395.891 102.059 395.155 101.504 394.131 101.504C393.107 101.504 392.371 102.059 391.923 103.168C391.475 104.277 391.251 106.08 391.251 108.576C391.251 111.136 391.475 112.981 391.923 114.112C392.371 115.221 393.107 115.776 394.131 115.776ZM405.543 120V115.584L412.967 107.84C413.649 107.115 414.161 106.421 414.503 105.76C414.865 105.077 415.047 104.416 415.047 103.776C415.047 103.029 414.823 102.475 414.375 102.112C413.927 101.749 413.276 101.568 412.423 101.568C411.527 101.568 410.577 101.749 409.575 102.112C408.572 102.453 407.58 102.955 406.599 103.616L404.711 99.36C405.628 98.6133 406.812 98.0267 408.263 97.6C409.735 97.152 411.228 96.928 412.743 96.928C414.385 96.928 415.815 97.1947 417.031 97.728C418.268 98.24 419.217 98.9867 419.879 99.968C420.561 100.928 420.903 102.059 420.903 103.36C420.903 104.704 420.636 105.92 420.103 107.008C419.591 108.075 418.705 109.269 417.447 110.592L411.399 116.768L410.567 115.232H421.607V120H405.543ZM432.538 120.288C429.722 120.288 427.556 119.285 426.042 117.28C424.548 115.275 423.802 112.373 423.802 108.576C423.802 104.843 424.548 101.984 426.042 100C427.556 97.9947 429.722 96.992 432.538 96.992C435.354 96.992 437.508 97.9947 439.002 100C440.516 101.984 441.274 104.843 441.274 108.576C441.274 112.373 440.516 115.275 439.002 117.28C437.508 119.285 435.354 120.288 432.538 120.288ZM432.538 115.776C433.562 115.776 434.298 115.221 434.746 114.112C435.194 112.981 435.418 111.136 435.418 108.576C435.418 106.08 435.194 104.277 434.746 103.168C434.298 102.059 433.562 101.504 432.538 101.504C431.514 101.504 430.778 102.059 430.33 103.168C429.882 104.277 429.658 106.08 429.658 108.576C429.658 111.136 429.882 112.981 430.33 114.112C430.778 115.221 431.514 115.776 432.538 115.776Z" fill="#DEE2E8"/>
<path d="M98.8584 483H473" stroke="#C57AFF" stroke-opacity="0.15"/>
<path d="M98.8584 408H473" stroke="#C57AFF" stroke-opacity="0.15"/>
<path d="M98 559L472.142 559" stroke="#C57AFF" stroke-opacity="0.15"/>
<path d="M98.8584 331H473" stroke="#C57AFF" stroke-opacity="0.15"/>
<path d="M98.8584 257H473" stroke="#C57AFF" stroke-opacity="0.15"/>
<path d="M73.0949 567.144C71.6549 567.144 70.5629 566.592 69.8189 565.488C69.0749 564.372 68.7029 562.74 68.7029 560.592C68.7029 558.432 69.0689 556.8 69.8009 555.696C70.5449 554.592 71.6429 554.04 73.0949 554.04C74.5469 554.04 75.6389 554.592 76.3709 555.696C77.1149 556.8 77.4869 558.426 77.4869 560.574C77.4869 562.722 77.1149 564.354 76.3709 565.47C75.6269 566.586 74.5349 567.144 73.0949 567.144ZM73.0949 566.154C74.1989 566.154 75.0149 565.704 75.5429 564.804C76.0829 563.892 76.3529 562.482 76.3529 560.574C76.3529 558.666 76.0889 557.268 75.5609 556.38C75.0329 555.48 74.2109 555.03 73.0949 555.03C71.9909 555.03 71.1689 555.48 70.6289 556.38C70.1009 557.28 69.8369 558.678 69.8369 560.574C69.8369 562.47 70.1009 563.874 70.6289 564.786C71.1689 565.698 71.9909 566.154 73.0949 566.154Z" fill="#DEE2E8"/>
<path d="M56.0559 491V490.154L60.6099 485.078C61.2459 484.346 61.7079 483.698 61.9959 483.134C62.2959 482.558 62.4459 481.976 62.4459 481.388C62.4459 480.632 62.2239 480.05 61.7799 479.642C61.3479 479.222 60.7239 479.012 59.9079 479.012C59.2599 479.012 58.6299 479.144 58.0179 479.408C57.4179 479.66 56.8179 480.044 56.2179 480.56L55.7499 479.678C56.2539 479.186 56.8839 478.79 57.6399 478.49C58.3959 478.19 59.1519 478.04 59.9079 478.04C60.6639 478.04 61.3119 478.172 61.8519 478.436C62.4039 478.7 62.8299 479.084 63.1299 479.588C63.4299 480.08 63.5799 480.668 63.5799 481.352C63.5799 482.084 63.4059 482.798 63.0579 483.494C62.7219 484.178 62.1699 484.952 61.4019 485.816L56.8839 490.748L56.8659 490.046H64.1379V491H56.0559ZM73.0948 491.144C71.6548 491.144 70.5628 490.592 69.8188 489.488C69.0748 488.372 68.7028 486.74 68.7028 484.592C68.7028 482.432 69.0688 480.8 69.8008 479.696C70.5448 478.592 71.6428 478.04 73.0948 478.04C74.5468 478.04 75.6388 478.592 76.3708 479.696C77.1148 480.8 77.4868 482.426 77.4868 484.574C77.4868 486.722 77.1148 488.354 76.3708 489.47C75.6268 490.586 74.5348 491.144 73.0948 491.144ZM73.0948 490.154C74.1988 490.154 75.0148 489.704 75.5428 488.804C76.0828 487.892 76.3528 486.482 76.3528 484.574C76.3528 482.666 76.0888 481.268 75.5608 480.38C75.0328 479.48 74.2108 479.03 73.0948 479.03C71.9908 479.03 71.1688 479.48 70.6288 480.38C70.1008 481.28 69.8368 482.678 69.8368 484.574C69.8368 486.47 70.1008 487.874 70.6288 488.786C71.1688 489.698 71.9908 490.154 73.0948 490.154Z" fill="#DEE2E8"/>
<path d="M61.4919 416V404.57H61.9059L56.1639 412.868L56.1819 412.13H64.5879V413.084H55.4439V412.238L61.6899 403.184H62.6079V416H61.4919ZM73.0948 416.144C71.6548 416.144 70.5628 415.592 69.8188 414.488C69.0748 413.372 68.7028 411.74 68.7028 409.592C68.7028 407.432 69.0688 405.8 69.8008 404.696C70.5448 403.592 71.6428 403.04 73.0948 403.04C74.5468 403.04 75.6388 403.592 76.3708 404.696C77.1148 405.8 77.4868 407.426 77.4868 409.574C77.4868 411.722 77.1148 413.354 76.3708 414.47C75.6268 415.586 74.5348 416.144 73.0948 416.144ZM73.0948 415.154C74.1988 415.154 75.0148 414.704 75.5428 413.804C76.0828 412.892 76.3528 411.482 76.3528 409.574C76.3528 407.666 76.0888 406.268 75.5608 405.38C75.0328 404.48 74.2108 404.03 73.0948 404.03C71.9908 404.03 71.1688 404.48 70.6288 405.38C70.1008 406.28 69.8368 407.678 69.8368 409.574C69.8368 411.47 70.1008 412.874 70.6288 413.786C71.1688 414.698 71.9908 415.154 73.0948 415.154Z" fill="#DEE2E8"/>
<path d="M60.2679 338.144C58.7559 338.144 57.5859 337.61 56.7579 336.542C55.9419 335.474 55.5339 333.944 55.5339 331.952C55.5339 330.488 55.7259 329.24 56.1099 328.208C56.4939 327.176 57.0459 326.39 57.7659 325.85C58.4859 325.31 59.3439 325.04 60.3399 325.04C61.0719 325.04 61.7799 325.184 62.4639 325.472C63.1479 325.748 63.7599 326.15 64.2999 326.678L63.8499 327.56C63.2379 327.02 62.6499 326.63 62.0859 326.39C61.5219 326.138 60.9459 326.012 60.3579 326.012C59.1939 326.012 58.2819 326.534 57.6219 327.578C56.9739 328.61 56.6499 330.068 56.6499 331.952V333.752L56.4519 333.248C56.5479 332.6 56.7699 332.036 57.1179 331.556C57.4779 331.064 57.9279 330.692 58.4679 330.44C59.0199 330.176 59.6319 330.044 60.3039 330.044C61.1079 330.044 61.8099 330.212 62.4099 330.548C63.0099 330.884 63.4779 331.358 63.8139 331.97C64.1499 332.57 64.3179 333.272 64.3179 334.076C64.3179 334.856 64.1439 335.558 63.7959 336.182C63.4599 336.794 62.9859 337.274 62.3739 337.622C61.7619 337.97 61.0599 338.144 60.2679 338.144ZM60.2319 337.172C61.1199 337.172 61.8339 336.89 62.3739 336.326C62.9259 335.762 63.2019 335.012 63.2019 334.076C63.2019 333.152 62.9259 332.414 62.3739 331.862C61.8219 331.298 61.0959 331.016 60.1959 331.016C59.5959 331.016 59.0619 331.148 58.5939 331.412C58.1259 331.664 57.7599 332.024 57.4959 332.492C57.2319 332.948 57.0999 333.476 57.0999 334.076C57.0999 334.7 57.2319 335.246 57.4959 335.714C57.7599 336.17 58.1259 336.53 58.5939 336.794C59.0619 337.046 59.6079 337.172 60.2319 337.172ZM73.0948 338.144C71.6548 338.144 70.5628 337.592 69.8188 336.488C69.0748 335.372 68.7028 333.74 68.7028 331.592C68.7028 329.432 69.0688 327.8 69.8008 326.696C70.5448 325.592 71.6428 325.04 73.0948 325.04C74.5468 325.04 75.6388 325.592 76.3708 326.696C77.1148 327.8 77.4868 329.426 77.4868 331.574C77.4868 333.722 77.1148 335.354 76.3708 336.47C75.6268 337.586 74.5348 338.144 73.0948 338.144ZM73.0948 337.154C74.1988 337.154 75.0148 336.704 75.5428 335.804C76.0828 334.892 76.3528 333.482 76.3528 331.574C76.3528 329.666 76.0888 328.268 75.5608 327.38C75.0328 326.48 74.2108 326.03 73.0948 326.03C71.9908 326.03 71.1688 326.48 70.6288 327.38C70.1008 328.28 69.8368 329.678 69.8368 331.574C69.8368 333.47 70.1008 334.874 70.6288 335.786C71.1688 336.698 71.9908 337.154 73.0948 337.154Z" fill="#DEE2E8"/>
<path d="M59.8719 264.126C58.9479 264.126 58.1499 263.988 57.4779 263.712C56.8059 263.424 56.2839 263.022 55.9119 262.506C55.5519 261.978 55.3719 261.354 55.3719 260.634C55.3719 259.746 55.6719 259.008 56.2719 258.42C56.8839 257.82 57.6939 257.448 58.7019 257.304L58.5939 257.556C57.6459 257.376 56.9199 257.01 56.4159 256.458C55.9119 255.894 55.6599 255.216 55.6599 254.424C55.6599 253.74 55.8339 253.146 56.1819 252.642C56.5419 252.138 57.0339 251.748 57.6579 251.472C58.2939 251.184 59.0319 251.04 59.8719 251.04C60.7119 251.04 61.4439 251.184 62.0679 251.472C62.7039 251.748 63.1959 252.138 63.5439 252.642C63.9039 253.146 64.0839 253.74 64.0839 254.424C64.0839 255.216 63.8319 255.894 63.3279 256.458C62.8239 257.01 62.1039 257.376 61.1679 257.556L61.0419 257.304C62.0979 257.436 62.9139 257.802 63.4899 258.402C64.0779 259.002 64.3719 259.746 64.3719 260.634C64.3719 261.354 64.1859 261.978 63.8139 262.506C63.4539 263.022 62.9379 263.424 62.2659 263.712C61.5939 263.988 60.7959 264.126 59.8719 264.126ZM59.8719 263.154C60.9639 263.154 61.7979 262.938 62.3739 262.506C62.9499 262.062 63.2379 261.42 63.2379 260.58C63.2379 259.788 62.9199 259.17 62.2839 258.726C61.6599 258.282 60.8559 258.012 59.8719 257.916C58.8879 258.012 58.0779 258.282 57.4419 258.726C56.8179 259.17 56.5059 259.788 56.5059 260.58C56.5059 261.42 56.7939 262.062 57.3699 262.506C57.9459 262.938 58.7799 263.154 59.8719 263.154ZM59.8719 257.088C60.7959 257.004 61.5399 256.734 62.1039 256.278C62.6679 255.822 62.9499 255.222 62.9499 254.478C62.9499 253.71 62.6799 253.11 62.1399 252.678C61.5999 252.234 60.8439 252.012 59.8719 252.012C58.8999 252.012 58.1439 252.234 57.6039 252.678C57.0639 253.11 56.7939 253.71 56.7939 254.478C56.7939 255.222 57.0759 255.822 57.6399 256.278C58.2039 256.734 58.9479 257.004 59.8719 257.088ZM73.0948 264.144C71.6548 264.144 70.5628 263.592 69.8188 262.488C69.0748 261.372 68.7028 259.74 68.7028 257.592C68.7028 255.432 69.0688 253.8 69.8008 252.696C70.5448 251.592 71.6428 251.04 73.0948 251.04C74.5468 251.04 75.6388 251.592 76.3708 252.696C77.1148 253.8 77.4868 255.426 77.4868 257.574C77.4868 259.722 77.1148 261.354 76.3708 262.47C75.6268 263.586 74.5348 264.144 73.0948 264.144ZM73.0948 263.154C74.1988 263.154 75.0148 262.704 75.5428 261.804C76.0828 260.892 76.3528 259.482 76.3528 257.574C76.3528 255.666 76.0888 254.268 75.5608 253.38C75.0328 252.48 74.2108 252.03 73.0948 252.03C71.9908 252.03 71.1688 252.48 70.6288 253.38C70.1008 254.28 69.8368 255.678 69.8368 257.574C69.8368 259.47 70.1008 260.874 70.6288 261.786C71.1688 262.698 71.9908 263.154 73.0948 263.154Z" fill="#DEE2E8"/>
<path d="M183.346 223.192C182.05 223.192 180.89 223 179.866 222.616C178.858 222.216 178.058 221.656 177.466 220.936C176.89 220.2 176.602 219.32 176.602 218.296C176.602 217.096 176.986 216.128 177.754 215.392C178.538 214.64 179.61 214.184 180.97 214.024L180.946 214.408C179.778 214.184 178.834 213.712 178.114 212.992C177.394 212.272 177.034 211.392 177.034 210.352C177.034 209.392 177.314 208.568 177.874 207.88C178.434 207.176 179.186 206.64 180.13 206.272C181.09 205.888 182.162 205.696 183.346 205.696C184.53 205.696 185.594 205.888 186.538 206.272C187.498 206.64 188.258 207.176 188.818 207.88C189.378 208.568 189.658 209.392 189.658 210.352C189.658 211.424 189.29 212.32 188.554 213.04C187.834 213.76 186.914 214.208 185.794 214.384L185.77 214.024C187.098 214.216 188.146 214.688 188.914 215.44C189.698 216.176 190.09 217.128 190.09 218.296C190.09 219.32 189.794 220.2 189.202 220.936C188.626 221.656 187.826 222.216 186.802 222.616C185.794 223 184.642 223.192 183.346 223.192ZM183.346 219.808C184.082 219.808 184.698 219.656 185.194 219.352C185.69 219.032 185.938 218.56 185.938 217.936C185.938 217.328 185.698 216.848 185.218 216.496C184.738 216.128 184.114 215.872 183.346 215.728C182.578 215.872 181.954 216.128 181.474 216.496C180.994 216.848 180.754 217.328 180.754 217.936C180.754 218.56 181.002 219.032 181.498 219.352C181.994 219.656 182.61 219.808 183.346 219.808ZM183.346 212.992C183.938 212.848 184.434 212.616 184.834 212.296C185.25 211.96 185.458 211.488 185.458 210.88C185.458 210.24 185.25 209.784 184.834 209.512C184.434 209.224 183.938 209.08 183.346 209.08C182.754 209.08 182.25 209.224 181.834 209.512C181.434 209.784 181.234 210.24 181.234 210.88C181.234 211.488 181.434 211.96 181.834 212.296C182.25 212.616 182.754 212.848 183.346 212.992ZM197.232 223.192C196.032 223.192 194.872 223.032 193.752 222.712C192.632 222.376 191.728 221.928 191.04 221.368L192.456 218.176C193.192 218.688 193.944 219.072 194.712 219.328C195.48 219.584 196.248 219.712 197.016 219.712C197.976 219.712 198.656 219.576 199.056 219.304C199.456 219.016 199.656 218.536 199.656 217.864C199.656 217.224 199.456 216.768 199.056 216.496C198.672 216.224 198.024 216.088 197.112 216.088H194.448V212.632H196.656C197.552 212.632 198.192 212.512 198.576 212.272C198.976 212.032 199.176 211.624 199.176 211.048C199.176 210.44 198.984 209.976 198.6 209.656C198.232 209.336 197.712 209.176 197.04 209.176C196.352 209.176 195.624 209.312 194.856 209.584C194.104 209.84 193.384 210.216 192.696 210.712L191.28 207.52C191.968 206.96 192.864 206.52 193.968 206.2C195.088 205.864 196.216 205.696 197.352 205.696C198.584 205.696 199.648 205.888 200.544 206.272C201.456 206.656 202.16 207.2 202.656 207.904C203.168 208.608 203.424 209.44 203.424 210.4C203.424 211.36 203.168 212.184 202.656 212.872C202.144 213.544 201.408 214.024 200.448 214.312L200.496 214.12C201.568 214.376 202.4 214.872 202.992 215.608C203.584 216.328 203.88 217.24 203.88 218.344C203.88 219.848 203.28 221.032 202.08 221.896C200.88 222.76 199.264 223.192 197.232 223.192Z" fill="#DEE2E8"/>
<path d="M238.536 245H142.536V559H238.536V245Z" fill="#9C4BF2"/>
<path d="M166.889 593V592.154L171.443 587.078C172.079 586.346 172.541 585.698 172.829 585.134C173.129 584.558 173.279 583.976 173.279 583.388C173.279 582.632 173.057 582.05 172.613 581.642C172.181 581.222 171.557 581.012 170.741 581.012C170.093 581.012 169.463 581.144 168.851 581.408C168.251 581.66 167.651 582.044 167.051 582.56L166.583 581.678C167.087 581.186 167.717 580.79 168.473 580.49C169.229 580.19 169.985 580.04 170.741 580.04C171.497 580.04 172.145 580.172 172.685 580.436C173.237 580.7 173.663 581.084 173.963 581.588C174.263 582.08 174.413 582.668 174.413 583.352C174.413 584.084 174.239 584.798 173.891 585.494C173.555 586.178 173.003 586.952 172.235 587.816L167.717 592.748L167.699 592.046H174.971V593H166.889ZM183.928 593.144C182.488 593.144 181.396 592.592 180.652 591.488C179.908 590.372 179.536 588.74 179.536 586.592C179.536 584.432 179.902 582.8 180.634 581.696C181.378 580.592 182.476 580.04 183.928 580.04C185.38 580.04 186.472 580.592 187.204 581.696C187.948 582.8 188.32 584.426 188.32 586.574C188.32 588.722 187.948 590.354 187.204 591.47C186.46 592.586 185.368 593.144 183.928 593.144ZM183.928 592.154C185.032 592.154 185.848 591.704 186.376 590.804C186.916 589.892 187.186 588.482 187.186 586.574C187.186 584.666 186.922 583.268 186.394 582.38C185.866 581.48 185.044 581.03 183.928 581.03C182.824 581.03 182.002 581.48 181.462 582.38C180.934 583.28 180.67 584.678 180.67 586.574C180.67 588.47 180.934 589.874 181.462 590.786C182.002 591.698 182.824 592.154 183.928 592.154ZM197.025 592.514V580.652L197.745 581.192L194.379 583.37V582.236L197.511 580.184H198.141V592.514H197.025ZM194.181 593V592.046H200.985V593H194.181ZM210.374 593.144C208.934 593.144 207.842 592.592 207.098 591.488C206.354 590.372 205.982 588.74 205.982 586.592C205.982 584.432 206.348 582.8 207.08 581.696C207.824 580.592 208.922 580.04 210.374 580.04C211.826 580.04 212.918 580.592 213.65 581.696C214.394 582.8 214.766 584.426 214.766 586.574C214.766 588.722 214.394 590.354 213.65 591.47C212.906 592.586 211.814 593.144 210.374 593.144ZM210.374 592.154C211.478 592.154 212.294 591.704 212.822 590.804C213.362 589.892 213.632 588.482 213.632 586.574C213.632 584.666 213.368 583.268 212.84 582.38C212.312 581.48 211.49 581.03 210.374 581.03C209.27 581.03 208.448 581.48 207.908 582.38C207.38 583.28 207.116 584.678 207.116 586.574C207.116 588.47 207.38 589.874 207.908 590.786C208.448 591.698 209.27 592.154 210.374 592.154Z" fill="#DEE2E8"/>
<path d="M353.746 180.696C356.034 180.696 357.794 181.44 359.026 182.928C360.274 184.4 360.898 186.52 360.898 189.288C360.898 191.144 360.594 192.744 359.986 194.088C359.394 195.416 358.538 196.44 357.418 197.16C356.314 197.864 354.994 198.216 353.458 198.216C352.386 198.216 351.338 198.064 350.314 197.76C349.306 197.44 348.45 196.984 347.746 196.392L349.162 193.2C349.946 193.76 350.682 194.16 351.37 194.4C352.074 194.624 352.698 194.736 353.242 194.736C354.314 194.736 355.114 194.288 355.642 193.392C356.186 192.496 356.458 191.16 356.458 189.384V189.048L356.866 189.6C356.706 190.112 356.426 190.56 356.026 190.944C355.642 191.328 355.178 191.632 354.634 191.856C354.09 192.064 353.498 192.168 352.858 192.168C351.882 192.168 351.01 191.928 350.242 191.448C349.474 190.968 348.866 190.312 348.418 189.48C347.97 188.632 347.746 187.672 347.746 186.6C347.746 185.448 348.002 184.432 348.514 183.552C349.042 182.656 349.754 181.96 350.65 181.464C351.546 180.952 352.578 180.696 353.746 180.696ZM354.01 184.152C353.37 184.152 352.866 184.36 352.498 184.776C352.146 185.192 351.97 185.736 351.97 186.408C351.97 187.112 352.146 187.672 352.498 188.088C352.866 188.488 353.37 188.688 354.01 188.688C354.41 188.688 354.762 188.6 355.066 188.424C355.386 188.232 355.626 187.968 355.786 187.632C355.962 187.28 356.05 186.872 356.05 186.408C356.05 185.96 355.962 185.568 355.786 185.232C355.626 184.896 355.386 184.632 355.066 184.44C354.762 184.248 354.41 184.152 354.01 184.152ZM368.736 198.216C366.624 198.216 365 197.464 363.864 195.96C362.744 194.456 362.184 192.28 362.184 189.432C362.184 186.632 362.744 184.488 363.864 183C365 181.496 366.624 180.744 368.736 180.744C370.848 180.744 372.464 181.496 373.584 183C374.72 184.488 375.288 186.632 375.288 189.432C375.288 192.28 374.72 194.456 373.584 195.96C372.464 197.464 370.848 198.216 368.736 198.216ZM368.736 194.832C369.504 194.832 370.056 194.416 370.392 193.584C370.728 192.736 370.896 191.352 370.896 189.432C370.896 187.56 370.728 186.208 370.392 185.376C370.056 184.544 369.504 184.128 368.736 184.128C367.968 184.128 367.416 184.544 367.08 185.376C366.744 186.208 366.576 187.56 366.576 189.432C366.576 191.352 366.744 192.736 367.08 193.584C367.416 194.416 367.968 194.832 368.736 194.832Z" fill="#DEE2E8"/>
<path d="M409.536 220H313.536V559.104H409.536V220Z" fill="#658DF4"/>
<path d="M337.889 593.104V592.258L342.443 587.182C343.079 586.45 343.541 585.802 343.829 585.238C344.129 584.662 344.279 584.08 344.279 583.492C344.279 582.736 344.057 582.154 343.613 581.746C343.181 581.326 342.557 581.116 341.741 581.116C341.093 581.116 340.463 581.248 339.851 581.512C339.251 581.764 338.651 582.148 338.051 582.664L337.583 581.782C338.087 581.29 338.717 580.894 339.473 580.594C340.229 580.294 340.985 580.144 341.741 580.144C342.497 580.144 343.145 580.276 343.685 580.54C344.237 580.804 344.663 581.188 344.963 581.692C345.263 582.184 345.413 582.772 345.413 583.456C345.413 584.188 345.239 584.902 344.891 585.598C344.555 586.282 344.003 587.056 343.235 587.92L338.717 592.852L338.699 592.15H345.971V593.104H337.889ZM354.928 593.248C353.488 593.248 352.396 592.696 351.652 591.592C350.908 590.476 350.536 588.844 350.536 586.696C350.536 584.536 350.902 582.904 351.634 581.8C352.378 580.696 353.476 580.144 354.928 580.144C356.38 580.144 357.472 580.696 358.204 581.8C358.948 582.904 359.32 584.53 359.32 586.678C359.32 588.826 358.948 590.458 358.204 591.574C357.46 592.69 356.368 593.248 354.928 593.248ZM354.928 592.258C356.032 592.258 356.848 591.808 357.376 590.908C357.916 589.996 358.186 588.586 358.186 586.678C358.186 584.77 357.922 583.372 357.394 582.484C356.866 581.584 356.044 581.134 354.928 581.134C353.824 581.134 353.002 581.584 352.462 582.484C351.934 583.384 351.67 584.782 351.67 586.678C351.67 588.574 351.934 589.978 352.462 590.89C353.002 591.802 353.824 592.258 354.928 592.258ZM364.335 593.104V592.258L368.889 587.182C369.525 586.45 369.987 585.802 370.275 585.238C370.575 584.662 370.725 584.08 370.725 583.492C370.725 582.736 370.503 582.154 370.059 581.746C369.627 581.326 369.003 581.116 368.187 581.116C367.539 581.116 366.909 581.248 366.297 581.512C365.697 581.764 365.097 582.148 364.497 582.664L364.029 581.782C364.533 581.29 365.163 580.894 365.919 580.594C366.675 580.294 367.431 580.144 368.187 580.144C368.943 580.144 369.591 580.276 370.131 580.54C370.683 580.804 371.109 581.188 371.409 581.692C371.709 582.184 371.859 582.772 371.859 583.456C371.859 584.188 371.685 584.902 371.337 585.598C371.001 586.282 370.449 587.056 369.681 587.92L365.163 592.852L365.145 592.15H372.417V593.104H364.335ZM381.374 593.248C379.934 593.248 378.842 592.696 378.098 591.592C377.354 590.476 376.982 588.844 376.982 586.696C376.982 584.536 377.348 582.904 378.08 581.8C378.824 580.696 379.922 580.144 381.374 580.144C382.826 580.144 383.918 580.696 384.65 581.8C385.394 582.904 385.766 584.53 385.766 586.678C385.766 588.826 385.394 590.458 384.65 591.574C383.906 592.69 382.814 593.248 381.374 593.248ZM381.374 592.258C382.478 592.258 383.294 591.808 383.822 590.908C384.362 589.996 384.632 588.586 384.632 586.678C384.632 584.77 384.368 583.372 383.84 582.484C383.312 581.584 382.49 581.134 381.374 581.134C380.27 581.134 379.448 581.584 378.908 582.484C378.38 583.384 378.116 584.782 378.116 586.678C378.116 588.574 378.38 589.978 378.908 590.89C379.448 591.802 380.27 592.258 381.374 592.258Z" fill="#DEE2E8"/>
<rect x="547.461" width="523.461" height="645" rx="5" fill="url(#paint1_linear_231_3353)"/>
<path d="M608.581 80.288C606.192 80.288 604.122 79.808 602.373 78.848C600.624 77.8667 599.269 76.5013 598.309 74.752C597.37 72.9813 596.901 70.9227 596.901 68.576C596.901 66.2507 597.37 64.2133 598.309 62.464C599.269 60.7147 600.624 59.36 602.373 58.4C604.122 57.4187 606.192 56.928 608.581 56.928C610.074 56.928 611.514 57.152 612.901 57.6C614.309 58.048 615.44 58.656 616.293 59.424L614.469 63.68C613.488 62.976 612.528 62.464 611.589 62.144C610.65 61.824 609.69 61.664 608.709 61.664C606.896 61.664 605.488 62.24 604.485 63.392C603.504 64.544 603.013 66.272 603.013 68.576C603.013 70.88 603.504 72.6187 604.485 73.792C605.488 74.9653 606.896 75.552 608.709 75.552C609.69 75.552 610.65 75.392 611.589 75.072C612.528 74.752 613.488 74.24 614.469 73.536L616.293 77.792C615.44 78.56 614.309 79.168 612.901 79.616C611.514 80.064 610.074 80.288 608.581 80.288ZM625.215 80.256C623.828 80.256 622.591 79.9147 621.503 79.232C620.415 78.5493 619.561 77.5787 618.943 76.32C618.345 75.0613 618.047 73.5893 618.047 71.904C618.047 70.1973 618.356 68.704 618.975 67.424C619.593 66.1227 620.436 65.1093 621.503 64.384C622.591 63.6587 623.828 63.296 625.215 63.296C626.452 63.296 627.561 63.6053 628.543 64.224C629.545 64.8213 630.228 65.6107 630.591 66.592L630.207 66.816V63.744H635.903V80H630.207V77.024H630.591C630.228 78.0267 629.545 78.816 628.543 79.392C627.561 79.968 626.452 80.256 625.215 80.256ZM627.007 75.936C628.009 75.936 628.788 75.584 629.343 74.88C629.919 74.176 630.207 73.1627 630.207 71.84C630.207 70.4747 629.929 69.44 629.375 68.736C628.82 68.032 628.031 67.68 627.007 67.68C626.004 67.68 625.215 68.0533 624.639 68.8C624.063 69.5253 623.775 70.56 623.775 71.904C623.775 73.2053 624.052 74.208 624.607 74.912C625.161 75.5947 625.961 75.936 627.007 75.936ZM639.345 80V68.416C639.345 67.648 639.324 66.8693 639.281 66.08C639.26 65.2907 639.196 64.512 639.089 63.744H644.529L644.913 66.816L644.529 66.656C645.127 65.5893 645.905 64.768 646.865 64.192C647.847 63.5947 648.967 63.296 650.225 63.296C654.044 63.296 655.953 65.632 655.953 70.304V80H650.161V70.56C650.161 69.5573 649.991 68.8427 649.649 68.416C649.308 67.968 648.775 67.744 648.049 67.744C647.175 67.744 646.471 68.0427 645.937 68.64C645.404 69.216 645.137 69.984 645.137 70.944V80H639.345ZM657.682 68V63.744H670.418V68H657.682ZM670.45 75.392V79.776C669.959 79.968 669.469 80.096 668.978 80.16C668.487 80.224 667.975 80.256 667.442 80.256C665.202 80.256 663.517 79.6267 662.386 78.368C661.277 77.1093 660.722 75.4027 660.722 73.248V60.064L666.514 58.208V73.248C666.514 73.7813 666.621 74.2293 666.834 74.592C667.069 74.9333 667.367 75.1893 667.73 75.36C668.093 75.5093 668.487 75.584 668.914 75.584C669.127 75.584 669.351 75.5733 669.586 75.552C669.842 75.5093 670.13 75.456 670.45 75.392ZM672.626 80V63.744H678.418V80H672.626ZM672.466 55.776H678.514V60.992H672.466V55.776ZM698.996 80H693.3V76.192L693.684 77.024C693.322 78.0267 692.639 78.816 691.636 79.392C690.655 79.968 689.546 80.256 688.308 80.256C686.922 80.256 685.684 79.904 684.596 79.2C683.53 78.4747 682.687 77.472 682.068 76.192C681.45 74.912 681.14 73.4187 681.14 71.712C681.14 70.0267 681.439 68.5547 682.036 67.296C682.655 66.016 683.508 65.0347 684.596 64.352C685.684 63.648 686.922 63.296 688.308 63.296C689.546 63.296 690.655 63.6053 691.636 64.224C692.639 64.8213 693.322 65.6 693.684 66.56L693.204 67.264V56.448H698.996V80ZM690.1 75.936C691.124 75.936 691.914 75.584 692.468 74.88C693.023 74.176 693.3 73.1413 693.3 71.776C693.3 70.4747 693.012 69.472 692.436 68.768C691.882 68.0427 691.103 67.68 690.1 67.68C689.055 67.68 688.255 68.032 687.7 68.736C687.146 69.4187 686.868 70.4107 686.868 71.712C686.868 73.0773 687.156 74.1227 687.732 74.848C688.308 75.5733 689.098 75.936 690.1 75.936ZM708.871 80.256C707.484 80.256 706.247 79.9147 705.159 79.232C704.071 78.5493 703.218 77.5787 702.599 76.32C702.002 75.0613 701.703 73.5893 701.703 71.904C701.703 70.1973 702.012 68.704 702.631 67.424C703.25 66.1227 704.092 65.1093 705.159 64.384C706.247 63.6587 707.484 63.296 708.871 63.296C710.108 63.296 711.218 63.6053 712.199 64.224C713.202 64.8213 713.884 65.6107 714.247 66.592L713.863 66.816V63.744H719.559V80H713.863V77.024H714.247C713.884 78.0267 713.202 78.816 712.199 79.392C711.218 79.968 710.108 80.256 708.871 80.256ZM710.663 75.936C711.666 75.936 712.444 75.584 712.999 74.88C713.575 74.176 713.863 73.1627 713.863 71.84C713.863 70.4747 713.586 69.44 713.031 68.736C712.476 68.032 711.687 67.68 710.663 67.68C709.66 67.68 708.871 68.0533 708.295 68.8C707.719 69.5253 707.431 70.56 707.431 71.904C707.431 73.2053 707.708 74.208 708.263 74.912C708.818 75.5947 709.618 75.936 710.663 75.936ZM740.121 80H734.425V76.192L734.809 77.024C734.447 78.0267 733.764 78.816 732.761 79.392C731.78 79.968 730.671 80.256 729.433 80.256C728.047 80.256 726.809 79.904 725.721 79.2C724.655 78.4747 723.812 77.472 723.193 76.192C722.575 74.912 722.265 73.4187 722.265 71.712C722.265 70.0267 722.564 68.5547 723.161 67.296C723.78 66.016 724.633 65.0347 725.721 64.352C726.809 63.648 728.047 63.296 729.433 63.296C730.671 63.296 731.78 63.6053 732.761 64.224C733.764 64.8213 734.447 65.6 734.809 66.56L734.329 67.264V56.448H740.121V80ZM731.225 75.936C732.249 75.936 733.039 75.584 733.593 74.88C734.148 74.176 734.425 73.1413 734.425 71.776C734.425 70.4747 734.137 69.472 733.561 68.768C733.007 68.0427 732.228 67.68 731.225 67.68C730.18 67.68 729.38 68.032 728.825 68.736C728.271 69.4187 727.993 70.4107 727.993 71.712C727.993 73.0773 728.281 74.1227 728.857 74.848C729.433 75.5733 730.223 75.936 731.225 75.936ZM769.965 80H764.269V76.192L764.653 77.024C764.291 78.0267 763.608 78.816 762.605 79.392C761.624 79.968 760.515 80.256 759.277 80.256C757.891 80.256 756.653 79.904 755.565 79.2C754.499 78.4747 753.656 77.472 753.037 76.192C752.419 74.912 752.109 73.4187 752.109 71.712C752.109 70.0267 752.408 68.5547 753.005 67.296C753.624 66.016 754.477 65.0347 755.565 64.352C756.653 63.648 757.891 63.296 759.277 63.296C760.515 63.296 761.624 63.6053 762.605 64.224C763.608 64.8213 764.291 65.6 764.653 66.56L764.173 67.264V56.448H769.965V80ZM761.069 75.936C762.093 75.936 762.883 75.584 763.437 74.88C763.992 74.176 764.269 73.1413 764.269 71.776C764.269 70.4747 763.981 69.472 763.405 68.768C762.851 68.0427 762.072 67.68 761.069 67.68C760.024 67.68 759.224 68.032 758.669 68.736C758.115 69.4187 757.837 70.4107 757.837 71.712C757.837 73.0773 758.125 74.1227 758.701 74.848C759.277 75.5733 760.067 75.936 761.069 75.936ZM788.128 78.336C787.317 78.9547 786.336 79.4347 785.184 79.776C784.032 80.096 782.88 80.256 781.728 80.256C779.85 80.256 778.229 79.9147 776.864 79.232C775.52 78.5493 774.485 77.5787 773.76 76.32C773.034 75.04 772.672 73.536 772.672 71.808C772.672 70.144 773.013 68.672 773.696 67.392C774.4 66.112 775.36 65.1093 776.576 64.384C777.792 63.6587 779.2 63.296 780.8 63.296C782.357 63.296 783.701 63.6373 784.832 64.32C785.984 65.0027 786.869 65.9733 787.488 67.232C788.106 68.4907 788.416 69.9733 788.416 71.68V72.448H777.792L777.856 69.76H784.928L783.52 70.688C783.52 69.536 783.296 68.6827 782.848 68.128C782.421 67.552 781.792 67.264 780.96 67.264C780.042 67.264 779.338 67.6053 778.848 68.288C778.378 68.9493 778.144 69.9627 778.144 71.328C778.144 73.0133 778.453 74.2187 779.072 74.944C779.69 75.648 780.672 76 782.016 76C782.826 76 783.637 75.872 784.448 75.616C785.28 75.3387 786.016 74.9653 786.656 74.496L788.128 78.336ZM806.808 80.256C805.422 80.256 804.184 79.9147 803.096 79.232C802.008 78.5493 801.155 77.5787 800.536 76.32C799.939 75.0613 799.64 73.5893 799.64 71.904C799.64 70.1973 799.95 68.704 800.568 67.424C801.187 66.1227 802.03 65.1093 803.096 64.384C804.184 63.6587 805.422 63.296 806.808 63.296C808.046 63.296 809.155 63.6053 810.136 64.224C811.139 64.8213 811.822 65.6107 812.184 66.592L811.8 66.816V63.744H817.496V80H811.8V77.024H812.184C811.822 78.0267 811.139 78.816 810.136 79.392C809.155 79.968 808.046 80.256 806.808 80.256ZM808.6 75.936C809.603 75.936 810.382 75.584 810.936 74.88C811.512 74.176 811.8 73.1627 811.8 71.84C811.8 70.4747 811.523 69.44 810.968 68.736C810.414 68.032 809.624 67.68 808.6 67.68C807.598 67.68 806.808 68.0533 806.232 68.8C805.656 69.5253 805.368 70.56 805.368 71.904C805.368 73.2053 805.646 74.208 806.2 74.912C806.755 75.5947 807.555 75.936 808.6 75.936ZM820.939 80V68.416C820.939 67.648 820.918 66.8693 820.875 66.08C820.854 65.2907 820.79 64.512 820.683 63.744H826.123L826.667 68.128L826.123 67.808C826.336 66.336 826.923 65.2267 827.883 64.48C828.864 63.7333 829.974 63.36 831.211 63.36C831.616 63.36 831.968 63.392 832.267 63.456C832.566 63.52 832.822 63.6053 833.035 63.712V68.992C832.118 68.5653 831.232 68.352 830.379 68.352C829.611 68.352 828.96 68.48 828.427 68.736C827.894 68.9707 827.478 69.344 827.179 69.856C826.88 70.368 826.731 71.0293 826.731 71.84V80H820.939ZM834.776 68V63.744H847.512V68H834.776ZM847.544 75.392V79.776C847.053 79.968 846.562 80.096 846.072 80.16C845.581 80.224 845.069 80.256 844.536 80.256C842.296 80.256 840.61 79.6267 839.48 78.368C838.37 77.1093 837.816 75.4027 837.816 73.248V60.064L843.608 58.208V73.248C843.608 73.7813 843.714 74.2293 843.928 74.592C844.162 74.9333 844.461 75.1893 844.824 75.36C845.186 75.5093 845.581 75.584 846.008 75.584C846.221 75.584 846.445 75.5733 846.68 75.552C846.936 75.5093 847.224 75.456 847.544 75.392ZM849.72 80V63.744H855.512V80H849.72ZM849.56 55.776H855.608V60.992H849.56V55.776ZM865.53 80.256C862.288 80.256 859.728 79.6053 857.85 78.304L859.322 74.368C860.197 74.9653 861.189 75.4347 862.298 75.776C863.429 76.096 864.517 76.256 865.562 76.256C866.224 76.256 866.736 76.16 867.098 75.968C867.461 75.776 867.642 75.5093 867.642 75.168C867.642 74.8693 867.504 74.6347 867.226 74.464C866.97 74.2933 866.469 74.1227 865.722 73.952L863.098 73.344C861.434 73.0027 860.229 72.4693 859.482 71.744C858.757 70.9973 858.394 69.9733 858.394 68.672C858.394 67.6267 858.704 66.6987 859.322 65.888C859.941 65.0773 860.794 64.448 861.882 64C862.992 63.5307 864.261 63.296 865.69 63.296C866.885 63.296 868.048 63.4773 869.178 63.84C870.309 64.1813 871.354 64.6507 872.314 65.248L870.778 69.088C869.925 68.5333 869.05 68.1067 868.154 67.808C867.258 67.5093 866.416 67.36 865.626 67.36C865.008 67.36 864.506 67.4667 864.122 67.68C863.76 67.872 863.578 68.16 863.578 68.544C863.578 68.7787 863.685 68.9707 863.898 69.12C864.112 69.248 864.517 69.3867 865.114 69.536L867.834 70.144C869.562 70.528 870.8 71.1147 871.546 71.904C872.314 72.6933 872.698 73.76 872.698 75.104C872.698 76.704 872.058 77.9627 870.778 78.88C869.52 79.7973 867.77 80.256 865.53 80.256ZM873.401 68V63.744H886.137V68H873.401ZM886.169 75.392V79.776C885.678 79.968 885.187 80.096 884.697 80.16C884.206 80.224 883.694 80.256 883.161 80.256C880.921 80.256 879.235 79.6267 878.105 78.368C876.995 77.1093 876.441 75.4027 876.441 73.248V60.064L882.233 58.208V73.248C882.233 73.7813 882.339 74.2293 882.553 74.592C882.787 74.9333 883.086 75.1893 883.449 75.36C883.811 75.5093 884.206 75.584 884.633 75.584C884.846 75.584 885.07 75.5733 885.305 75.552C885.561 75.5093 885.849 75.456 886.169 75.392ZM894.777 80.256C893.391 80.256 892.153 79.9147 891.065 79.232C889.977 78.5493 889.124 77.5787 888.505 76.32C887.908 75.0613 887.609 73.5893 887.609 71.904C887.609 70.1973 887.919 68.704 888.537 67.424C889.156 66.1227 889.999 65.1093 891.065 64.384C892.153 63.6587 893.391 63.296 894.777 63.296C896.015 63.296 897.124 63.6053 898.105 64.224C899.108 64.8213 899.791 65.6107 900.153 66.592L899.769 66.816V63.744H905.465V80H899.769V77.024H900.153C899.791 78.0267 899.108 78.816 898.105 79.392C897.124 79.968 896.015 80.256 894.777 80.256ZM896.569 75.936C897.572 75.936 898.351 75.584 898.905 74.88C899.481 74.176 899.769 73.1627 899.769 71.84C899.769 70.4747 899.492 69.44 898.937 68.736C898.383 68.032 897.593 67.68 896.569 67.68C895.567 67.68 894.777 68.0533 894.201 68.8C893.625 69.5253 893.337 70.56 893.337 71.904C893.337 73.2053 893.615 74.208 894.169 74.912C894.724 75.5947 895.524 75.936 896.569 75.936ZM915.468 80.256C912.225 80.256 909.665 79.6053 907.788 78.304L909.26 74.368C910.134 74.9653 911.126 75.4347 912.236 75.776C913.366 76.096 914.454 76.256 915.5 76.256C916.161 76.256 916.673 76.16 917.036 75.968C917.398 75.776 917.58 75.5093 917.58 75.168C917.58 74.8693 917.441 74.6347 917.164 74.464C916.908 74.2933 916.406 74.1227 915.66 73.952L913.036 73.344C911.372 73.0027 910.166 72.4693 909.42 71.744C908.694 70.9973 908.332 69.9733 908.332 68.672C908.332 67.6267 908.641 66.6987 909.26 65.888C909.878 65.0773 910.732 64.448 911.82 64C912.929 63.5307 914.198 63.296 915.628 63.296C916.822 63.296 917.985 63.4773 919.116 63.84C920.246 64.1813 921.292 64.6507 922.252 65.248L920.716 69.088C919.862 68.5333 918.988 68.1067 918.092 67.808C917.196 67.5093 916.353 67.36 915.564 67.36C914.945 67.36 914.444 67.4667 914.06 67.68C913.697 67.872 913.516 68.16 913.516 68.544C913.516 68.7787 913.622 68.9707 913.836 69.12C914.049 69.248 914.454 69.3867 915.052 69.536L917.772 70.144C919.5 70.528 920.737 71.1147 921.484 71.904C922.252 72.6933 922.636 73.76 922.636 75.104C922.636 76.704 921.996 77.9627 920.716 78.88C919.457 79.7973 917.708 80.256 915.468 80.256ZM949.128 78.336C948.317 78.9547 947.336 79.4347 946.184 79.776C945.032 80.096 943.88 80.256 942.728 80.256C940.85 80.256 939.229 79.9147 937.864 79.232C936.52 78.5493 935.485 77.5787 934.76 76.32C934.034 75.04 933.672 73.536 933.672 71.808C933.672 70.144 934.013 68.672 934.696 67.392C935.4 66.112 936.36 65.1093 937.576 64.384C938.792 63.6587 940.2 63.296 941.8 63.296C943.357 63.296 944.701 63.6373 945.832 64.32C946.984 65.0027 947.869 65.9733 948.488 67.232C949.106 68.4907 949.416 69.9733 949.416 71.68V72.448H938.792L938.856 69.76H945.928L944.52 70.688C944.52 69.536 944.296 68.6827 943.848 68.128C943.421 67.552 942.792 67.264 941.96 67.264C941.042 67.264 940.338 67.6053 939.848 68.288C939.378 68.9493 939.144 69.9627 939.144 71.328C939.144 73.0133 939.453 74.2187 940.072 74.944C940.69 75.648 941.672 76 943.016 76C943.826 76 944.637 75.872 945.448 75.616C946.28 75.3387 947.016 74.9653 947.656 74.496L949.128 78.336ZM952.095 80V68.416C952.095 67.648 952.074 66.8693 952.031 66.08C952.01 65.2907 951.946 64.512 951.839 63.744H957.279L957.663 66.816L957.279 66.656C957.877 65.5893 958.655 64.768 959.615 64.192C960.597 63.5947 961.717 63.296 962.975 63.296C966.794 63.296 968.703 65.632 968.703 70.304V80H962.911V70.56C962.911 69.5573 962.741 68.8427 962.399 68.416C962.058 67.968 961.525 67.744 960.799 67.744C959.925 67.744 959.221 68.0427 958.687 68.64C958.154 69.216 957.887 69.984 957.887 70.944V80H952.095ZM611.909 118.336C611.098 118.955 610.117 119.435 608.965 119.776C607.813 120.096 606.661 120.256 605.509 120.256C603.632 120.256 602.01 119.915 600.645 119.232C599.301 118.549 598.266 117.579 597.541 116.32C596.816 115.04 596.453 113.536 596.453 111.808C596.453 110.144 596.794 108.672 597.477 107.392C598.181 106.112 599.141 105.109 600.357 104.384C601.573 103.659 602.981 103.296 604.581 103.296C606.138 103.296 607.482 103.637 608.613 104.32C609.765 105.003 610.65 105.973 611.269 107.232C611.888 108.491 612.197 109.973 612.197 111.68V112.448H601.573L601.637 109.76H608.709L607.301 110.688C607.301 109.536 607.077 108.683 606.629 108.128C606.202 107.552 605.573 107.264 604.741 107.264C603.824 107.264 603.12 107.605 602.629 108.288C602.16 108.949 601.925 109.963 601.925 111.328C601.925 113.013 602.234 114.219 602.853 114.944C603.472 115.648 604.453 116 605.797 116C606.608 116 607.418 115.872 608.229 115.616C609.061 115.339 609.797 114.965 610.437 114.496L611.909 118.336ZM614.876 120V96.448H620.668V120H614.876ZM641.472 120.256C639.637 120.256 638.058 119.925 636.736 119.264C635.413 118.581 634.4 117.611 633.696 116.352C633.013 115.093 632.672 113.611 632.672 111.904C632.672 110.176 633.045 108.672 633.792 107.392C634.56 106.091 635.616 105.088 636.96 104.384C638.325 103.659 639.914 103.296 641.728 103.296C642.922 103.296 644.096 103.477 645.248 103.84C646.4 104.181 647.317 104.651 648 105.248L646.528 109.248C645.952 108.779 645.28 108.405 644.512 108.128C643.744 107.851 643.008 107.712 642.304 107.712C641.152 107.712 640.245 108.043 639.584 108.704C638.922 109.365 638.592 110.389 638.592 111.776C638.592 113.184 638.912 114.229 639.552 114.912C640.213 115.573 641.141 115.904 642.336 115.904C643.018 115.904 643.744 115.776 644.512 115.52C645.28 115.243 645.952 114.859 646.528 114.368L648 118.304C647.274 118.923 646.325 119.403 645.152 119.744C644 120.085 642.773 120.256 641.472 120.256ZM649.876 120V96.448H655.668V107.04L655.06 106.656C655.658 105.589 656.436 104.768 657.396 104.192C658.378 103.595 659.498 103.296 660.756 103.296C664.575 103.296 666.484 105.632 666.484 110.304V120H660.692V110.56C660.692 109.557 660.522 108.843 660.18 108.416C659.839 107.968 659.306 107.744 658.58 107.744C657.706 107.744 657.002 108.043 656.468 108.64C655.935 109.216 655.668 109.984 655.668 110.944V120H649.876ZM676.277 120.256C674.891 120.256 673.653 119.915 672.565 119.232C671.477 118.549 670.624 117.579 670.005 116.32C669.408 115.061 669.109 113.589 669.109 111.904C669.109 110.197 669.419 108.704 670.037 107.424C670.656 106.123 671.499 105.109 672.565 104.384C673.653 103.659 674.891 103.296 676.277 103.296C677.515 103.296 678.624 103.605 679.605 104.224C680.608 104.821 681.291 105.611 681.653 106.592L681.269 106.816V103.744H686.965V120H681.269V117.024H681.653C681.291 118.027 680.608 118.816 679.605 119.392C678.624 119.968 677.515 120.256 676.277 120.256ZM678.069 115.936C679.072 115.936 679.851 115.584 680.405 114.88C680.981 114.176 681.269 113.163 681.269 111.84C681.269 110.475 680.992 109.44 680.437 108.736C679.883 108.032 679.093 107.68 678.069 107.68C677.067 107.68 676.277 108.053 675.701 108.8C675.125 109.525 674.837 110.56 674.837 111.904C674.837 113.205 675.115 114.208 675.669 114.912C676.224 115.595 677.024 115.936 678.069 115.936ZM690.408 120V108.416C690.408 107.648 690.386 106.869 690.344 106.08C690.322 105.291 690.258 104.512 690.152 103.744H695.592L696.136 108.128L695.592 107.808C695.805 106.336 696.392 105.227 697.352 104.48C698.333 103.733 699.442 103.36 700.68 103.36C701.085 103.36 701.437 103.392 701.736 103.456C702.034 103.52 702.29 103.605 702.504 103.712V108.992C701.586 108.565 700.701 108.352 699.848 108.352C699.08 108.352 698.429 108.48 697.896 108.736C697.362 108.971 696.946 109.344 696.648 109.856C696.349 110.368 696.2 111.029 696.2 111.84V120H690.408ZM704.244 108V103.744H716.98V108H704.244ZM717.012 115.392V119.776C716.522 119.968 716.031 120.096 715.54 120.16C715.05 120.224 714.538 120.256 714.004 120.256C711.764 120.256 710.079 119.627 708.948 118.368C707.839 117.109 707.284 115.403 707.284 113.248V100.064L713.076 98.208V113.248C713.076 113.781 713.183 114.229 713.396 114.592C713.631 114.933 713.93 115.189 714.292 115.36C714.655 115.509 715.05 115.584 715.476 115.584C715.69 115.584 715.914 115.573 716.148 115.552C716.404 115.509 716.692 115.456 717.012 115.392ZM722.494 125.024L720.35 123.296C721.161 122.485 721.748 121.707 722.11 120.96C722.494 120.235 722.686 119.445 722.686 118.592L723.998 120H719.774V114.048H725.822V117.792C725.822 119.157 725.577 120.405 725.086 121.536C724.596 122.667 723.732 123.829 722.494 125.024ZM738.347 120V115.584L745.771 107.84C746.454 107.115 746.966 106.421 747.307 105.76C747.67 105.077 747.851 104.416 747.851 103.776C747.851 103.029 747.627 102.475 747.179 102.112C746.731 101.749 746.081 101.568 745.227 101.568C744.331 101.568 743.382 101.749 742.379 102.112C741.377 102.453 740.385 102.955 739.403 103.616L737.515 99.36C738.433 98.6133 739.617 98.0267 741.067 97.6C742.539 97.152 744.033 96.928 745.547 96.928C747.19 96.928 748.619 97.1947 749.835 97.728C751.073 98.24 752.022 98.9867 752.683 99.968C753.366 100.928 753.707 102.059 753.707 103.36C753.707 104.704 753.441 105.92 752.907 107.008C752.395 108.075 751.51 109.269 750.251 110.592L744.203 116.768L743.371 115.232H754.411V120H738.347ZM765.342 120.288C762.526 120.288 760.361 119.285 758.846 117.28C757.353 115.275 756.606 112.373 756.606 108.576C756.606 104.843 757.353 101.984 758.846 100C760.361 97.9947 762.526 96.992 765.342 96.992C768.158 96.992 770.313 97.9947 771.806 100C773.321 101.984 774.078 104.843 774.078 108.576C774.078 112.373 773.321 115.275 771.806 117.28C770.313 119.285 768.158 120.288 765.342 120.288ZM765.342 115.776C766.366 115.776 767.102 115.221 767.55 114.112C767.998 112.981 768.222 111.136 768.222 108.576C768.222 106.08 767.998 104.277 767.55 103.168C767.102 102.059 766.366 101.504 765.342 101.504C764.318 101.504 763.582 102.059 763.134 103.168C762.686 104.277 762.462 106.08 762.462 108.576C762.462 111.136 762.686 112.981 763.134 114.112C763.582 115.221 764.318 115.776 765.342 115.776ZM782.77 117.216V102.176H785.522L778.194 106.368V101.216L785.234 97.216H788.754V117.216H782.77ZM777.874 120V115.232H793.682V120H777.874ZM803.717 120.288C800.901 120.288 798.736 119.285 797.221 117.28C795.728 115.275 794.981 112.373 794.981 108.576C794.981 104.843 795.728 101.984 797.221 100C798.736 97.9947 800.901 96.992 803.717 96.992C806.533 96.992 808.688 97.9947 810.181 100C811.696 101.984 812.453 104.843 812.453 108.576C812.453 112.373 811.696 115.275 810.181 117.28C808.688 119.285 806.533 120.288 803.717 120.288ZM803.717 115.776C804.741 115.776 805.477 115.221 805.925 114.112C806.373 112.981 806.597 111.136 806.597 108.576C806.597 106.08 806.373 104.277 805.925 103.168C805.477 102.059 804.741 101.504 803.717 101.504C802.693 101.504 801.957 102.059 801.509 103.168C801.061 104.277 800.837 106.08 800.837 108.576C800.837 111.136 801.061 112.981 801.509 114.112C801.957 115.221 802.693 115.776 803.717 115.776ZM829.114 120L821.978 103.776H827.994L832.154 114.464H831.098L835.418 103.776H841.114L833.882 120H829.114ZM848.624 120.256C845.381 120.256 842.821 119.605 840.944 118.304L842.416 114.368C843.291 114.965 844.283 115.435 845.392 115.776C846.523 116.096 847.611 116.256 848.656 116.256C849.317 116.256 849.829 116.16 850.192 115.968C850.555 115.776 850.736 115.509 850.736 115.168C850.736 114.869 850.597 114.635 850.32 114.464C850.064 114.293 849.563 114.123 848.816 113.952L846.192 113.344C844.528 113.003 843.323 112.469 842.576 111.744C841.851 110.997 841.488 109.973 841.488 108.672C841.488 107.627 841.797 106.699 842.416 105.888C843.035 105.077 843.888 104.448 844.976 104C846.085 103.531 847.355 103.296 848.784 103.296C849.979 103.296 851.141 103.477 852.272 103.84C853.403 104.181 854.448 104.651 855.408 105.248L853.872 109.088C853.019 108.533 852.144 108.107 851.248 107.808C850.352 107.509 849.509 107.36 848.72 107.36C848.101 107.36 847.6 107.467 847.216 107.68C846.853 107.872 846.672 108.16 846.672 108.544C846.672 108.779 846.779 108.971 846.992 109.12C847.205 109.248 847.611 109.387 848.208 109.536L850.928 110.144C852.656 110.528 853.893 111.115 854.64 111.904C855.408 112.693 855.792 113.76 855.792 115.104C855.792 116.704 855.152 117.963 853.872 118.88C852.613 119.797 850.864 120.256 848.624 120.256ZM867.66 120V115.584L875.084 107.84C875.767 107.115 876.279 106.421 876.62 105.76C876.983 105.077 877.164 104.416 877.164 103.776C877.164 103.029 876.94 102.475 876.492 102.112C876.044 101.749 875.393 101.568 874.54 101.568C873.644 101.568 872.695 101.749 871.692 102.112C870.689 102.453 869.697 102.955 868.716 103.616L866.828 99.36C867.745 98.6133 868.929 98.0267 870.38 97.6C871.852 97.152 873.345 96.928 874.86 96.928C876.503 96.928 877.932 97.1947 879.148 97.728C880.385 98.24 881.335 98.9867 881.996 99.968C882.679 100.928 883.02 102.059 883.02 103.36C883.02 104.704 882.753 105.92 882.22 107.008C881.708 108.075 880.823 109.269 879.564 110.592L873.516 116.768L872.684 115.232H883.724V120H867.66ZM894.655 120.288C891.839 120.288 889.673 119.285 888.159 117.28C886.665 115.275 885.919 112.373 885.919 108.576C885.919 104.843 886.665 101.984 888.159 100C889.673 97.9947 891.839 96.992 894.655 96.992C897.471 96.992 899.625 97.9947 901.119 100C902.633 101.984 903.391 104.843 903.391 108.576C903.391 112.373 902.633 115.275 901.119 117.28C899.625 119.285 897.471 120.288 894.655 120.288ZM894.655 115.776C895.679 115.776 896.415 115.221 896.863 114.112C897.311 112.981 897.535 111.136 897.535 108.576C897.535 106.08 897.311 104.277 896.863 103.168C896.415 102.059 895.679 101.504 894.655 101.504C893.631 101.504 892.895 102.059 892.447 103.168C891.999 104.277 891.775 106.08 891.775 108.576C891.775 111.136 891.999 112.981 892.447 114.112C892.895 115.221 893.631 115.776 894.655 115.776ZM906.066 120V115.584L913.49 107.84C914.173 107.115 914.685 106.421 915.026 105.76C915.389 105.077 915.57 104.416 915.57 103.776C915.57 103.029 915.346 102.475 914.898 102.112C914.45 101.749 913.8 101.568 912.946 101.568C912.05 101.568 911.101 101.749 910.098 102.112C909.096 102.453 908.104 102.955 907.122 103.616L905.234 99.36C906.152 98.6133 907.336 98.0267 908.786 97.6C910.258 97.152 911.752 96.928 913.266 96.928C914.909 96.928 916.338 97.1947 917.554 97.728C918.792 98.24 919.741 98.9867 920.402 99.968C921.085 100.928 921.426 102.059 921.426 103.36C921.426 104.704 921.16 105.92 920.626 107.008C920.114 108.075 919.229 109.269 917.97 110.592L911.922 116.768L911.09 115.232H922.13V120H906.066ZM933.061 120.288C930.245 120.288 928.08 119.285 926.565 117.28C925.072 115.275 924.325 112.373 924.325 108.576C924.325 104.843 925.072 101.984 926.565 100C928.08 97.9947 930.245 96.992 933.061 96.992C935.877 96.992 938.032 97.9947 939.525 100C941.04 101.984 941.797 104.843 941.797 108.576C941.797 112.373 941.04 115.275 939.525 117.28C938.032 119.285 935.877 120.288 933.061 120.288ZM933.061 115.776C934.085 115.776 934.821 115.221 935.269 114.112C935.717 112.981 935.941 111.136 935.941 108.576C935.941 106.08 935.717 104.277 935.269 103.168C934.821 102.059 934.085 101.504 933.061 101.504C932.037 101.504 931.301 102.059 930.853 103.168C930.405 104.277 930.181 106.08 930.181 108.576C930.181 111.136 930.405 112.981 930.853 114.112C931.301 115.221 932.037 115.776 933.061 115.776Z" fill="#DEE2E8"/>
<path d="M646.378 441H1045.92" stroke="#C57AFF" stroke-opacity="0.15"/>
<path d="M646.378 324H1045.92" stroke="#C57AFF" stroke-opacity="0.15"/>
<path d="M645.461 558L1045.01 558" stroke="#C57AFF" stroke-opacity="0.15"/>
<path d="M646.378 207H1045.92" stroke="#C57AFF" stroke-opacity="0.15"/>
<path d="M629.417 564.144C627.977 564.144 626.885 563.592 626.141 562.488C625.397 561.372 625.025 559.74 625.025 557.592C625.025 555.432 625.391 553.8 626.123 552.696C626.867 551.592 627.965 551.04 629.417 551.04C630.869 551.04 631.961 551.592 632.693 552.696C633.437 553.8 633.809 555.426 633.809 557.574C633.809 559.722 633.437 561.354 632.693 562.47C631.949 563.586 630.857 564.144 629.417 564.144ZM629.417 563.154C630.521 563.154 631.337 562.704 631.865 561.804C632.405 560.892 632.675 559.482 632.675 557.574C632.675 555.666 632.411 554.268 631.883 553.38C631.355 552.48 630.533 552.03 629.417 552.03C628.313 552.03 627.491 552.48 626.951 553.38C626.423 554.28 626.159 555.678 626.159 557.574C626.159 559.47 626.423 560.874 626.951 561.786C627.491 562.698 628.313 563.154 629.417 563.154Z" fill="#DEE2E8"/>
<path d="M612.133 447V446.154L616.687 441.078C617.323 440.346 617.785 439.698 618.073 439.134C618.373 438.558 618.523 437.976 618.523 437.388C618.523 436.632 618.301 436.05 617.857 435.642C617.425 435.222 616.801 435.012 615.985 435.012C615.337 435.012 614.707 435.144 614.095 435.408C613.495 435.66 612.895 436.044 612.295 436.56L611.827 435.678C612.331 435.186 612.961 434.79 613.717 434.49C614.473 434.19 615.229 434.04 615.985 434.04C616.741 434.04 617.389 434.172 617.929 434.436C618.481 434.7 618.907 435.084 619.207 435.588C619.507 436.08 619.657 436.668 619.657 437.352C619.657 438.084 619.483 438.798 619.135 439.494C618.799 440.178 618.247 440.952 617.479 441.816L612.961 446.748L612.943 446.046H620.215V447H612.133ZM629.172 447.144C627.732 447.144 626.64 446.592 625.896 445.488C625.152 444.372 624.78 442.74 624.78 440.592C624.78 438.432 625.146 436.8 625.878 435.696C626.622 434.592 627.72 434.04 629.172 434.04C630.624 434.04 631.716 434.592 632.448 435.696C633.192 436.8 633.564 438.426 633.564 440.574C633.564 442.722 633.192 444.354 632.448 445.47C631.704 446.586 630.612 447.144 629.172 447.144ZM629.172 446.154C630.276 446.154 631.092 445.704 631.62 444.804C632.16 443.892 632.43 442.482 632.43 440.574C632.43 438.666 632.166 437.268 631.638 436.38C631.11 435.48 630.288 435.03 629.172 435.03C628.068 435.03 627.246 435.48 626.706 436.38C626.178 437.28 625.914 438.678 625.914 440.574C625.914 442.47 626.178 443.874 626.706 444.786C627.246 445.698 628.068 446.154 629.172 446.154Z" fill="#DEE2E8"/>
<path d="M617.569 329.97V318.54H617.983L612.241 326.838L612.259 326.1H620.665V327.054H611.521V326.208L617.767 317.154H618.685V329.97H617.569ZM629.172 330.114C627.732 330.114 626.64 329.562 625.896 328.458C625.152 327.342 624.78 325.71 624.78 323.562C624.78 321.402 625.146 319.77 625.878 318.666C626.622 317.562 627.72 317.01 629.172 317.01C630.624 317.01 631.716 317.562 632.448 318.666C633.192 319.77 633.564 321.396 633.564 323.544C633.564 325.692 633.192 327.324 632.448 328.44C631.704 329.556 630.612 330.114 629.172 330.114ZM629.172 329.124C630.276 329.124 631.092 328.674 631.62 327.774C632.16 326.862 632.43 325.452 632.43 323.544C632.43 321.636 632.166 320.238 631.638 319.35C631.11 318.45 630.288 318 629.172 318C628.068 318 627.246 318.45 626.706 319.35C626.178 320.25 625.914 321.648 625.914 323.544C625.914 325.44 626.178 326.844 626.706 327.756C627.246 328.668 628.068 329.124 629.172 329.124Z" fill="#DEE2E8"/>
<path d="M616.345 215.144C614.833 215.144 613.663 214.61 612.835 213.542C612.019 212.474 611.611 210.944 611.611 208.952C611.611 207.488 611.803 206.24 612.187 205.208C612.571 204.176 613.123 203.39 613.843 202.85C614.563 202.31 615.421 202.04 616.417 202.04C617.149 202.04 617.857 202.184 618.541 202.472C619.225 202.748 619.837 203.15 620.377 203.678L619.927 204.56C619.315 204.02 618.727 203.63 618.163 203.39C617.599 203.138 617.023 203.012 616.435 203.012C615.271 203.012 614.359 203.534 613.699 204.578C613.051 205.61 612.727 207.068 612.727 208.952V210.752L612.529 210.248C612.625 209.6 612.847 209.036 613.195 208.556C613.555 208.064 614.005 207.692 614.545 207.44C615.097 207.176 615.709 207.044 616.381 207.044C617.185 207.044 617.887 207.212 618.487 207.548C619.087 207.884 619.555 208.358 619.891 208.97C620.227 209.57 620.395 210.272 620.395 211.076C620.395 211.856 620.221 212.558 619.873 213.182C619.537 213.794 619.063 214.274 618.451 214.622C617.839 214.97 617.137 215.144 616.345 215.144ZM616.309 214.172C617.197 214.172 617.911 213.89 618.451 213.326C619.003 212.762 619.279 212.012 619.279 211.076C619.279 210.152 619.003 209.414 618.451 208.862C617.899 208.298 617.173 208.016 616.273 208.016C615.673 208.016 615.139 208.148 614.671 208.412C614.203 208.664 613.837 209.024 613.573 209.492C613.309 209.948 613.177 210.476 613.177 211.076C613.177 211.7 613.309 212.246 613.573 212.714C613.837 213.17 614.203 213.53 614.671 213.794C615.139 214.046 615.685 214.172 616.309 214.172ZM629.172 215.144C627.732 215.144 626.64 214.592 625.896 213.488C625.152 212.372 624.78 210.74 624.78 208.592C624.78 206.432 625.146 204.8 625.878 203.696C626.622 202.592 627.72 202.04 629.172 202.04C630.624 202.04 631.716 202.592 632.448 203.696C633.192 204.8 633.564 206.426 633.564 208.574C633.564 210.722 633.192 212.354 632.448 213.47C631.704 214.586 630.612 215.144 629.172 215.144ZM629.172 214.154C630.276 214.154 631.092 213.704 631.62 212.804C632.16 211.892 632.43 210.482 632.43 208.574C632.43 206.666 632.166 205.268 631.638 204.38C631.11 203.48 630.288 203.03 629.172 203.03C628.068 203.03 627.246 203.48 626.706 204.38C626.178 205.28 625.914 206.678 625.914 208.574C625.914 210.47 626.178 211.874 626.706 212.786C627.246 213.698 628.068 214.154 629.172 214.154Z" fill="#DEE2E8"/>
<path d="M731.555 275V263.456H732.395L728.051 269.672V268.688H738.179V272.12H724.715V268.808L732.371 257.912H735.971V275H731.555ZM746.234 275.216C743.962 275.216 742.202 274.48 740.954 273.008C739.706 271.52 739.082 269.392 739.082 266.624C739.082 264.768 739.378 263.176 739.97 261.848C740.578 260.504 741.442 259.48 742.562 258.776C743.682 258.056 745.01 257.696 746.546 257.696C747.618 257.696 748.658 257.856 749.666 258.176C750.69 258.48 751.554 258.928 752.258 259.52L750.842 262.712C750.074 262.152 749.338 261.76 748.634 261.536C747.93 261.296 747.306 261.176 746.762 261.176C745.69 261.176 744.882 261.624 744.338 262.52C743.81 263.416 743.546 264.752 743.546 266.528V266.864L743.138 266.312C743.298 265.8 743.57 265.352 743.954 264.968C744.338 264.584 744.802 264.288 745.346 264.08C745.906 263.856 746.498 263.744 747.122 263.744C748.114 263.744 748.994 263.984 749.762 264.464C750.53 264.944 751.13 265.608 751.562 266.456C752.01 267.288 752.234 268.24 752.234 269.312C752.234 270.464 751.978 271.488 751.466 272.384C750.954 273.264 750.242 273.96 749.33 274.472C748.434 274.968 747.402 275.216 746.234 275.216ZM745.994 271.76C746.618 271.76 747.114 271.552 747.482 271.136C747.85 270.72 748.034 270.176 748.034 269.504C748.034 268.8 747.85 268.248 747.482 267.848C747.13 267.432 746.634 267.224 745.994 267.224C745.594 267.224 745.234 267.32 744.914 267.512C744.61 267.688 744.37 267.952 744.194 268.304C744.034 268.64 743.954 269.04 743.954 269.504C743.954 269.952 744.034 270.344 744.194 270.68C744.37 271.016 744.61 271.28 744.914 271.472C745.234 271.664 745.594 271.76 745.994 271.76Z" fill="#DEE2E8"/>
<path d="M786.458 297H690.458V558H786.458V297Z" fill="#9C4BF2"/>
<path d="M714.811 592V591.154L719.365 586.078C720.001 585.346 720.463 584.698 720.751 584.134C721.051 583.558 721.201 582.976 721.201 582.388C721.201 581.632 720.979 581.05 720.535 580.642C720.103 580.222 719.479 580.012 718.663 580.012C718.015 580.012 717.385 580.144 716.773 580.408C716.173 580.66 715.573 581.044 714.973 581.56L714.505 580.678C715.009 580.186 715.639 579.79 716.395 579.49C717.151 579.19 717.907 579.04 718.663 579.04C719.419 579.04 720.067 579.172 720.607 579.436C721.159 579.7 721.585 580.084 721.885 580.588C722.185 581.08 722.335 581.668 722.335 582.352C722.335 583.084 722.161 583.798 721.813 584.494C721.477 585.178 720.925 585.952 720.157 586.816L715.639 591.748L715.621 591.046H722.893V592H714.811ZM731.85 592.144C730.41 592.144 729.318 591.592 728.574 590.488C727.83 589.372 727.458 587.74 727.458 585.592C727.458 583.432 727.824 581.8 728.556 580.696C729.3 579.592 730.398 579.04 731.85 579.04C733.302 579.04 734.394 579.592 735.126 580.696C735.87 581.8 736.242 583.426 736.242 585.574C736.242 587.722 735.87 589.354 735.126 590.47C734.382 591.586 733.29 592.144 731.85 592.144ZM731.85 591.154C732.954 591.154 733.77 590.704 734.298 589.804C734.838 588.892 735.108 587.482 735.108 585.574C735.108 583.666 734.844 582.268 734.316 581.38C733.788 580.48 732.966 580.03 731.85 580.03C730.746 580.03 729.924 580.48 729.384 581.38C728.856 582.28 728.592 583.678 728.592 585.574C728.592 587.47 728.856 588.874 729.384 589.786C729.924 590.698 730.746 591.154 731.85 591.154ZM744.947 591.514V579.652L745.667 580.192L742.301 582.37V581.236L745.433 579.184H746.063V591.514H744.947ZM742.103 592V591.046H748.907V592H742.103ZM758.296 592.144C756.856 592.144 755.764 591.592 755.02 590.488C754.276 589.372 753.904 587.74 753.904 585.592C753.904 583.432 754.27 581.8 755.002 580.696C755.746 579.592 756.844 579.04 758.296 579.04C759.748 579.04 760.84 579.592 761.572 580.696C762.316 581.8 762.688 583.426 762.688 585.574C762.688 587.722 762.316 589.354 761.572 590.47C760.828 591.586 759.736 592.144 758.296 592.144ZM758.296 591.154C759.4 591.154 760.216 590.704 760.744 589.804C761.284 588.892 761.554 587.482 761.554 585.574C761.554 583.666 761.29 582.268 760.762 581.38C760.234 580.48 759.412 580.03 758.296 580.03C757.192 580.03 756.37 580.48 755.83 581.38C755.302 582.28 755.038 583.678 755.038 585.574C755.038 587.47 755.302 588.874 755.83 589.786C756.37 590.698 757.192 591.154 758.296 591.154Z" fill="#DEE2E8"/>
<path d="M892.955 208.192C891.851 208.192 890.755 208.032 889.667 207.712C888.579 207.376 887.707 206.928 887.051 206.368L888.443 203.176C889.195 203.688 889.955 204.072 890.723 204.328C891.491 204.584 892.259 204.712 893.027 204.712C893.923 204.712 894.587 204.536 895.019 204.184C895.451 203.816 895.667 203.256 895.667 202.504C895.667 202.008 895.563 201.592 895.355 201.256C895.147 200.92 894.851 200.664 894.467 200.488C894.083 200.312 893.619 200.224 893.075 200.224C892.627 200.224 892.139 200.304 891.611 200.464C891.083 200.608 890.603 200.8 890.171 201.04H887.699V190.912H898.979V194.32H892.067V198.352L890.747 198.112C891.243 197.664 891.787 197.336 892.379 197.128C892.971 196.904 893.651 196.792 894.419 196.792C895.491 196.792 896.435 197.024 897.251 197.488C898.067 197.952 898.707 198.6 899.171 199.432C899.651 200.248 899.891 201.208 899.891 202.312C899.891 203.512 899.603 204.552 899.027 205.432C898.467 206.312 897.667 206.992 896.627 207.472C895.587 207.952 894.363 208.192 892.955 208.192ZM907.058 190.696C909.346 190.696 911.106 191.44 912.338 192.928C913.586 194.4 914.21 196.52 914.21 199.288C914.21 201.144 913.906 202.744 913.298 204.088C912.706 205.416 911.85 206.44 910.73 207.16C909.626 207.864 908.306 208.216 906.77 208.216C905.698 208.216 904.65 208.064 903.626 207.76C902.618 207.44 901.762 206.984 901.058 206.392L902.474 203.2C903.258 203.76 903.994 204.16 904.682 204.4C905.386 204.624 906.01 204.736 906.554 204.736C907.626 204.736 908.426 204.288 908.954 203.392C909.498 202.496 909.77 201.16 909.77 199.384V199.048L910.178 199.6C910.018 200.112 909.738 200.56 909.338 200.944C908.954 201.328 908.49 201.632 907.946 201.856C907.402 202.064 906.81 202.168 906.17 202.168C905.194 202.168 904.322 201.928 903.554 201.448C902.786 200.968 902.178 200.312 901.73 199.48C901.282 198.632 901.058 197.672 901.058 196.6C901.058 195.448 901.314 194.432 901.826 193.552C902.354 192.656 903.066 191.96 903.962 191.464C904.858 190.952 905.89 190.696 907.058 190.696ZM907.322 194.152C906.682 194.152 906.178 194.36 905.81 194.776C905.458 195.192 905.282 195.736 905.282 196.408C905.282 197.112 905.458 197.672 905.81 198.088C906.178 198.488 906.682 198.688 907.322 198.688C907.722 198.688 908.074 198.6 908.378 198.424C908.698 198.232 908.938 197.968 909.098 197.632C909.274 197.28 909.362 196.872 909.362 196.408C909.362 195.96 909.274 195.568 909.098 195.232C908.938 194.896 908.698 194.632 908.378 194.44C908.074 194.248 907.722 194.152 907.322 194.152Z" fill="#DEE2E8"/>
<path d="M948.458 230H852.458V558H948.458V230Z" fill="#658DF4"/>
<path d="M876.811 592V591.154L881.365 586.078C882.001 585.346 882.463 584.698 882.751 584.134C883.051 583.558 883.201 582.976 883.201 582.388C883.201 581.632 882.979 581.05 882.535 580.642C882.103 580.222 881.479 580.012 880.663 580.012C880.015 580.012 879.385 580.144 878.773 580.408C878.173 580.66 877.573 581.044 876.973 581.56L876.505 580.678C877.009 580.186 877.639 579.79 878.395 579.49C879.151 579.19 879.907 579.04 880.663 579.04C881.419 579.04 882.067 579.172 882.607 579.436C883.159 579.7 883.585 580.084 883.885 580.588C884.185 581.08 884.335 581.668 884.335 582.352C884.335 583.084 884.161 583.798 883.813 584.494C883.477 585.178 882.925 585.952 882.157 586.816L877.639 591.748L877.621 591.046H884.893V592H876.811ZM893.85 592.144C892.41 592.144 891.318 591.592 890.574 590.488C889.83 589.372 889.458 587.74 889.458 585.592C889.458 583.432 889.824 581.8 890.556 580.696C891.3 579.592 892.398 579.04 893.85 579.04C895.302 579.04 896.394 579.592 897.126 580.696C897.87 581.8 898.242 583.426 898.242 585.574C898.242 587.722 897.87 589.354 897.126 590.47C896.382 591.586 895.29 592.144 893.85 592.144ZM893.85 591.154C894.954 591.154 895.77 590.704 896.298 589.804C896.838 588.892 897.108 587.482 897.108 585.574C897.108 583.666 896.844 582.268 896.316 581.38C895.788 580.48 894.966 580.03 893.85 580.03C892.746 580.03 891.924 580.48 891.384 581.38C890.856 582.28 890.592 583.678 890.592 585.574C890.592 587.47 890.856 588.874 891.384 589.786C891.924 590.698 892.746 591.154 893.85 591.154ZM903.257 592V591.154L907.811 586.078C908.447 585.346 908.909 584.698 909.197 584.134C909.497 583.558 909.647 582.976 909.647 582.388C909.647 581.632 909.425 581.05 908.981 580.642C908.549 580.222 907.925 580.012 907.109 580.012C906.461 580.012 905.831 580.144 905.219 580.408C904.619 580.66 904.019 581.044 903.419 581.56L902.951 580.678C903.455 580.186 904.085 579.79 904.841 579.49C905.597 579.19 906.353 579.04 907.109 579.04C907.865 579.04 908.513 579.172 909.053 579.436C909.605 579.7 910.031 580.084 910.331 580.588C910.631 581.08 910.781 581.668 910.781 582.352C910.781 583.084 910.607 583.798 910.259 584.494C909.923 585.178 909.371 585.952 908.603 586.816L904.085 591.748L904.067 591.046H911.339V592H903.257ZM920.296 592.144C918.856 592.144 917.764 591.592 917.02 590.488C916.276 589.372 915.904 587.74 915.904 585.592C915.904 583.432 916.27 581.8 917.002 580.696C917.746 579.592 918.844 579.04 920.296 579.04C921.748 579.04 922.84 579.592 923.572 580.696C924.316 581.8 924.688 583.426 924.688 585.574C924.688 587.722 924.316 589.354 923.572 590.47C922.828 591.586 921.736 592.144 920.296 592.144ZM920.296 591.154C921.4 591.154 922.216 590.704 922.744 589.804C923.284 588.892 923.554 587.482 923.554 585.574C923.554 583.666 923.29 582.268 922.762 581.38C922.234 580.48 921.412 580.03 920.296 580.03C919.192 580.03 918.37 580.48 917.83 581.38C917.302 582.28 917.038 583.678 917.038 585.574C917.038 587.47 917.302 588.874 917.83 589.786C918.37 590.698 919.192 591.154 920.296 591.154Z" fill="#DEE2E8"/>
<defs>
<linearGradient id="paint0_linear_231_3353" x1="261.73" y1="0" x2="261.73" y2="646.104" gradientUnits="userSpaceOnUse">
<stop stop-color="#14253F"/>
<stop offset="1" stop-color="#121C3E"/>
</linearGradient>
<linearGradient id="paint1_linear_231_3353" x1="809.191" y1="0" x2="809.191" y2="645" gradientUnits="userSpaceOnUse">
<stop stop-color="#14253F"/>
<stop offset="1" stop-color="#121C3E"/>
</linearGradient>
</defs>
</svg>
