<svg  viewBox="0 0 550 645" fill="none" xmlns="http://www.w3.org/2000/svg">
<rect width="550" height="645" rx="5" fill="#1A283D"/>
<rect width="550" height="645" rx="5" fill="url(#paint0_linear_216_8663)" fill-opacity="0.2"/>
<path d="M61.12 80.288C58.7307 80.288 56.6613 79.808 54.912 78.848C53.1627 77.8667 51.808 76.5013 50.848 74.752C49.9093 72.9813 49.44 70.9227 49.44 68.576C49.44 66.2507 49.9093 64.2133 50.848 62.464C51.808 60.7147 53.1627 59.36 54.912 58.4C56.6613 57.4187 58.7307 56.928 61.12 56.928C62.6133 56.928 64.0533 57.152 65.44 57.6C66.848 58.048 67.9787 58.656 68.832 59.424L67.008 63.68C66.0267 62.976 65.0667 62.464 64.128 62.144C63.1893 61.824 62.2293 61.664 61.248 61.664C59.4347 61.664 58.0267 62.24 57.024 63.392C56.0427 64.544 55.552 66.272 55.552 68.576C55.552 70.88 56.0427 72.6187 57.024 73.792C58.0267 74.9653 59.4347 75.552 61.248 75.552C62.2293 75.552 63.1893 75.392 64.128 75.072C65.0667 74.752 66.0267 74.24 67.008 73.536L68.832 77.792C67.9787 78.56 66.848 79.168 65.44 79.616C64.0533 80.064 62.6133 80.288 61.12 80.288ZM77.7538 80.256C76.3671 80.256 75.1298 79.9147 74.0418 79.232C72.9538 78.5493 72.1004 77.5787 71.4818 76.32C70.8844 75.0613 70.5858 73.5893 70.5858 71.904C70.5858 70.1973 70.8951 68.704 71.5138 67.424C72.1324 66.1227 72.9751 65.1093 74.0418 64.384C75.1298 63.6587 76.3671 63.296 77.7538 63.296C78.9911 63.296 80.1004 63.6053 81.0818 64.224C82.0844 64.8213 82.7671 65.6107 83.1298 66.592L82.7458 66.816V63.744H88.4418V80H82.7458V77.024H83.1298C82.7671 78.0267 82.0844 78.816 81.0818 79.392C80.1004 79.968 78.9911 80.256 77.7538 80.256ZM79.5458 75.936C80.5484 75.936 81.3271 75.584 81.8818 74.88C82.4578 74.176 82.7458 73.1627 82.7458 71.84C82.7458 70.4747 82.4684 69.44 81.9138 68.736C81.3591 68.032 80.5698 67.68 79.5458 67.68C78.5431 67.68 77.7538 68.0533 77.1778 68.8C76.6018 69.5253 76.3138 70.56 76.3138 71.904C76.3138 73.2053 76.5911 74.208 77.1458 74.912C77.7004 75.5947 78.5004 75.936 79.5458 75.936ZM91.8843 80V68.416C91.8843 67.648 91.8629 66.8693 91.8203 66.08C91.7989 65.2907 91.7349 64.512 91.6283 63.744H97.0683L97.4523 66.816L97.0683 66.656C97.6656 65.5893 98.4443 64.768 99.4043 64.192C100.386 63.5947 101.506 63.296 102.764 63.296C106.583 63.296 108.492 65.632 108.492 70.304V80H102.7V70.56C102.7 69.5573 102.53 68.8427 102.188 68.416C101.847 67.968 101.314 67.744 100.588 67.744C99.7136 67.744 99.0096 68.0427 98.4763 68.64C97.9429 69.216 97.6763 69.984 97.6763 70.944V80H91.8843ZM110.221 68V63.744H122.957V68H110.221ZM122.989 75.392V79.776C122.498 79.968 122.008 80.096 121.517 80.16C121.026 80.224 120.514 80.256 119.981 80.256C117.741 80.256 116.056 79.6267 114.925 78.368C113.816 77.1093 113.261 75.4027 113.261 73.248V60.064L119.053 58.208V73.248C119.053 73.7813 119.16 74.2293 119.373 74.592C119.608 74.9333 119.906 75.1893 120.269 75.36C120.632 75.5093 121.026 75.584 121.453 75.584C121.666 75.584 121.89 75.5733 122.125 75.552C122.381 75.5093 122.669 75.456 122.989 75.392ZM125.166 80V63.744H130.958V80H125.166ZM125.006 55.776H131.054V60.992H125.006V55.776ZM151.536 80H145.84V76.192L146.224 77.024C145.861 78.0267 145.178 78.816 144.176 79.392C143.194 79.968 142.085 80.256 140.848 80.256C139.461 80.256 138.224 79.904 137.136 79.2C136.069 78.4747 135.226 77.472 134.608 76.192C133.989 74.912 133.68 73.4187 133.68 71.712C133.68 70.0267 133.978 68.5547 134.576 67.296C135.194 66.016 136.048 65.0347 137.136 64.352C138.224 63.648 139.461 63.296 140.848 63.296C142.085 63.296 143.194 63.6053 144.176 64.224C145.178 64.8213 145.861 65.6 146.224 66.56L145.744 67.264V56.448H151.536V80ZM142.64 75.936C143.664 75.936 144.453 75.584 145.008 74.88C145.562 74.176 145.84 73.1413 145.84 71.776C145.84 70.4747 145.552 69.472 144.976 68.768C144.421 68.0427 143.642 67.68 142.64 67.68C141.594 67.68 140.794 68.032 140.24 68.736C139.685 69.4187 139.408 70.4107 139.408 71.712C139.408 73.0773 139.696 74.1227 140.272 74.848C140.848 75.5733 141.637 75.936 142.64 75.936ZM161.41 80.256C160.023 80.256 158.786 79.9147 157.698 79.232C156.61 78.5493 155.757 77.5787 155.138 76.32C154.541 75.0613 154.242 73.5893 154.242 71.904C154.242 70.1973 154.551 68.704 155.17 67.424C155.789 66.1227 156.631 65.1093 157.698 64.384C158.786 63.6587 160.023 63.296 161.41 63.296C162.647 63.296 163.757 63.6053 164.738 64.224C165.741 64.8213 166.423 65.6107 166.786 66.592L166.402 66.816V63.744H172.098V80H166.402V77.024H166.786C166.423 78.0267 165.741 78.816 164.738 79.392C163.757 79.968 162.647 80.256 161.41 80.256ZM163.202 75.936C164.205 75.936 164.983 75.584 165.538 74.88C166.114 74.176 166.402 73.1627 166.402 71.84C166.402 70.4747 166.125 69.44 165.57 68.736C165.015 68.032 164.226 67.68 163.202 67.68C162.199 67.68 161.41 68.0533 160.834 68.8C160.258 69.5253 159.97 70.56 159.97 71.904C159.97 73.2053 160.247 74.208 160.802 74.912C161.357 75.5947 162.157 75.936 163.202 75.936ZM192.661 80H186.965V76.192L187.349 77.024C186.986 78.0267 186.303 78.816 185.301 79.392C184.319 79.968 183.21 80.256 181.973 80.256C180.586 80.256 179.349 79.904 178.261 79.2C177.194 78.4747 176.351 77.472 175.733 76.192C175.114 74.912 174.805 73.4187 174.805 71.712C174.805 70.0267 175.103 68.5547 175.701 67.296C176.319 66.016 177.173 65.0347 178.261 64.352C179.349 63.648 180.586 63.296 181.973 63.296C183.21 63.296 184.319 63.6053 185.301 64.224C186.303 64.8213 186.986 65.6 187.349 66.56L186.869 67.264V56.448H192.661V80ZM183.765 75.936C184.789 75.936 185.578 75.584 186.133 74.88C186.687 74.176 186.965 73.1413 186.965 71.776C186.965 70.4747 186.677 69.472 186.101 68.768C185.546 68.0427 184.767 67.68 183.765 67.68C182.719 67.68 181.919 68.032 181.365 68.736C180.81 69.4187 180.533 70.4107 180.533 71.712C180.533 73.0773 180.821 74.1227 181.397 74.848C181.973 75.5733 182.762 75.936 183.765 75.936ZM222.504 80H216.808V76.192L217.192 77.024C216.83 78.0267 216.147 78.816 215.144 79.392C214.163 79.968 213.054 80.256 211.816 80.256C210.43 80.256 209.192 79.904 208.104 79.2C207.038 78.4747 206.195 77.472 205.576 76.192C204.958 74.912 204.648 73.4187 204.648 71.712C204.648 70.0267 204.947 68.5547 205.544 67.296C206.163 66.016 207.016 65.0347 208.104 64.352C209.192 63.648 210.43 63.296 211.816 63.296C213.054 63.296 214.163 63.6053 215.144 64.224C216.147 64.8213 216.83 65.6 217.192 66.56L216.712 67.264V56.448H222.504V80ZM213.608 75.936C214.632 75.936 215.422 75.584 215.976 74.88C216.531 74.176 216.808 73.1413 216.808 71.776C216.808 70.4747 216.52 69.472 215.944 68.768C215.39 68.0427 214.611 67.68 213.608 67.68C212.563 67.68 211.763 68.032 211.208 68.736C210.654 69.4187 210.376 70.4107 210.376 71.712C210.376 73.0773 210.664 74.1227 211.24 74.848C211.816 75.5733 212.606 75.936 213.608 75.936ZM240.667 78.336C239.856 78.9547 238.875 79.4347 237.723 79.776C236.571 80.096 235.419 80.256 234.267 80.256C232.389 80.256 230.768 79.9147 229.403 79.232C228.059 78.5493 227.024 77.5787 226.299 76.32C225.573 75.04 225.211 73.536 225.211 71.808C225.211 70.144 225.552 68.672 226.235 67.392C226.939 66.112 227.899 65.1093 229.115 64.384C230.331 63.6587 231.739 63.296 233.339 63.296C234.896 63.296 236.24 63.6373 237.371 64.32C238.523 65.0027 239.408 65.9733 240.027 67.232C240.645 68.4907 240.955 69.9733 240.955 71.68V72.448H230.331L230.395 69.76H237.467L236.059 70.688C236.059 69.536 235.835 68.6827 235.387 68.128C234.96 67.552 234.331 67.264 233.499 67.264C232.581 67.264 231.877 67.6053 231.387 68.288C230.917 68.9493 230.683 69.9627 230.683 71.328C230.683 73.0133 230.992 74.2187 231.611 74.944C232.229 75.648 233.211 76 234.555 76C235.365 76 236.176 75.872 236.987 75.616C237.819 75.3387 238.555 74.9653 239.195 74.496L240.667 78.336ZM259.348 80.256C257.961 80.256 256.724 79.9147 255.636 79.232C254.548 78.5493 253.694 77.5787 253.076 76.32C252.478 75.0613 252.18 73.5893 252.18 71.904C252.18 70.1973 252.489 68.704 253.108 67.424C253.726 66.1227 254.569 65.1093 255.636 64.384C256.724 63.6587 257.961 63.296 259.348 63.296C260.585 63.296 261.694 63.6053 262.676 64.224C263.678 64.8213 264.361 65.6107 264.724 66.592L264.34 66.816V63.744H270.036V80H264.34V77.024H264.724C264.361 78.0267 263.678 78.816 262.676 79.392C261.694 79.968 260.585 80.256 259.348 80.256ZM261.14 75.936C262.142 75.936 262.921 75.584 263.476 74.88C264.052 74.176 264.34 73.1627 264.34 71.84C264.34 70.4747 264.062 69.44 263.508 68.736C262.953 68.032 262.164 67.68 261.14 67.68C260.137 67.68 259.348 68.0533 258.772 68.8C258.196 69.5253 257.908 70.56 257.908 71.904C257.908 73.2053 258.185 74.208 258.74 74.912C259.294 75.5947 260.094 75.936 261.14 75.936ZM273.478 80V68.416C273.478 67.648 273.457 66.8693 273.414 66.08C273.393 65.2907 273.329 64.512 273.222 63.744H278.662L279.206 68.128L278.662 67.808C278.875 66.336 279.462 65.2267 280.422 64.48C281.403 63.7333 282.513 63.36 283.75 63.36C284.155 63.36 284.507 63.392 284.806 63.456C285.105 63.52 285.361 63.6053 285.574 63.712V68.992C284.657 68.5653 283.771 68.352 282.918 68.352C282.15 68.352 281.499 68.48 280.966 68.736C280.433 68.9707 280.017 69.344 279.718 69.856C279.419 70.368 279.27 71.0293 279.27 71.84V80H273.478ZM287.315 68V63.744H300.051V68H287.315ZM300.083 75.392V79.776C299.592 79.968 299.101 80.096 298.611 80.16C298.12 80.224 297.608 80.256 297.075 80.256C294.835 80.256 293.149 79.6267 292.019 78.368C290.909 77.1093 290.355 75.4027 290.355 73.248V60.064L296.147 58.208V73.248C296.147 73.7813 296.253 74.2293 296.467 74.592C296.701 74.9333 297 75.1893 297.363 75.36C297.725 75.5093 298.12 75.584 298.547 75.584C298.76 75.584 298.984 75.5733 299.219 75.552C299.475 75.5093 299.763 75.456 300.083 75.392ZM302.259 80V63.744H308.051V80H302.259ZM302.099 55.776H308.147V60.992H302.099V55.776ZM318.069 80.256C314.827 80.256 312.267 79.6053 310.389 78.304L311.861 74.368C312.736 74.9653 313.728 75.4347 314.837 75.776C315.968 76.096 317.056 76.256 318.101 76.256C318.763 76.256 319.275 76.16 319.637 75.968C320 75.776 320.181 75.5093 320.181 75.168C320.181 74.8693 320.043 74.6347 319.765 74.464C319.509 74.2933 319.008 74.1227 318.261 73.952L315.637 73.344C313.973 73.0027 312.768 72.4693 312.021 71.744C311.296 70.9973 310.933 69.9733 310.933 68.672C310.933 67.6267 311.243 66.6987 311.861 65.888C312.48 65.0773 313.333 64.448 314.421 64C315.531 63.5307 316.8 63.296 318.229 63.296C319.424 63.296 320.587 63.4773 321.717 63.84C322.848 64.1813 323.893 64.6507 324.853 65.248L323.317 69.088C322.464 68.5333 321.589 68.1067 320.693 67.808C319.797 67.5093 318.955 67.36 318.165 67.36C317.547 67.36 317.045 67.4667 316.661 67.68C316.299 67.872 316.117 68.16 316.117 68.544C316.117 68.7787 316.224 68.9707 316.437 69.12C316.651 69.248 317.056 69.3867 317.653 69.536L320.373 70.144C322.101 70.528 323.339 71.1147 324.085 71.904C324.853 72.6933 325.237 73.76 325.237 75.104C325.237 76.704 324.597 77.9627 323.317 78.88C322.059 79.7973 320.309 80.256 318.069 80.256ZM325.94 68V63.744H338.676V68H325.94ZM338.708 75.392V79.776C338.217 79.968 337.726 80.096 337.236 80.16C336.745 80.224 336.233 80.256 335.7 80.256C333.46 80.256 331.774 79.6267 330.644 78.368C329.534 77.1093 328.98 75.4027 328.98 73.248V60.064L334.772 58.208V73.248C334.772 73.7813 334.878 74.2293 335.092 74.592C335.326 74.9333 335.625 75.1893 335.988 75.36C336.35 75.5093 336.745 75.584 337.172 75.584C337.385 75.584 337.609 75.5733 337.844 75.552C338.1 75.5093 338.388 75.456 338.708 75.392ZM347.316 80.256C345.93 80.256 344.692 79.9147 343.604 79.232C342.516 78.5493 341.663 77.5787 341.044 76.32C340.447 75.0613 340.148 73.5893 340.148 71.904C340.148 70.1973 340.458 68.704 341.076 67.424C341.695 66.1227 342.538 65.1093 343.604 64.384C344.692 63.6587 345.93 63.296 347.316 63.296C348.554 63.296 349.663 63.6053 350.644 64.224C351.647 64.8213 352.33 65.6107 352.692 66.592L352.308 66.816V63.744H358.004V80H352.308V77.024H352.692C352.33 78.0267 351.647 78.816 350.644 79.392C349.663 79.968 348.554 80.256 347.316 80.256ZM349.108 75.936C350.111 75.936 350.89 75.584 351.444 74.88C352.02 74.176 352.308 73.1627 352.308 71.84C352.308 70.4747 352.031 69.44 351.476 68.736C350.922 68.032 350.132 67.68 349.108 67.68C348.106 67.68 347.316 68.0533 346.74 68.8C346.164 69.5253 345.876 70.56 345.876 71.904C345.876 73.2053 346.154 74.208 346.708 74.912C347.263 75.5947 348.063 75.936 349.108 75.936ZM368.007 80.256C364.764 80.256 362.204 79.6053 360.327 78.304L361.799 74.368C362.673 74.9653 363.665 75.4347 364.775 75.776C365.905 76.096 366.993 76.256 368.039 76.256C368.7 76.256 369.212 76.16 369.575 75.968C369.937 75.776 370.119 75.5093 370.119 75.168C370.119 74.8693 369.98 74.6347 369.703 74.464C369.447 74.2933 368.945 74.1227 368.199 73.952L365.575 73.344C363.911 73.0027 362.705 72.4693 361.959 71.744C361.233 70.9973 360.871 69.9733 360.871 68.672C360.871 67.6267 361.18 66.6987 361.799 65.888C362.417 65.0773 363.271 64.448 364.359 64C365.468 63.5307 366.737 63.296 368.167 63.296C369.361 63.296 370.524 63.4773 371.655 63.84C372.785 64.1813 373.831 64.6507 374.791 65.248L373.255 69.088C372.401 68.5333 371.527 68.1067 370.631 67.808C369.735 67.5093 368.892 67.36 368.103 67.36C367.484 67.36 366.983 67.4667 366.599 67.68C366.236 67.872 366.055 68.16 366.055 68.544C366.055 68.7787 366.161 68.9707 366.375 69.12C366.588 69.248 366.993 69.3867 367.591 69.536L370.311 70.144C372.039 70.528 373.276 71.1147 374.023 71.904C374.791 72.6933 375.175 73.76 375.175 75.104C375.175 76.704 374.535 77.9627 373.255 78.88C371.996 79.7973 370.247 80.256 368.007 80.256ZM401.667 78.336C400.856 78.9547 399.875 79.4347 398.723 79.776C397.571 80.096 396.419 80.256 395.267 80.256C393.389 80.256 391.768 79.9147 390.403 79.232C389.059 78.5493 388.024 77.5787 387.299 76.32C386.573 75.04 386.211 73.536 386.211 71.808C386.211 70.144 386.552 68.672 387.235 67.392C387.939 66.112 388.899 65.1093 390.115 64.384C391.331 63.6587 392.739 63.296 394.339 63.296C395.896 63.296 397.24 63.6373 398.371 64.32C399.523 65.0027 400.408 65.9733 401.027 67.232C401.645 68.4907 401.955 69.9733 401.955 71.68V72.448H391.331L391.395 69.76H398.467L397.059 70.688C397.059 69.536 396.835 68.6827 396.387 68.128C395.96 67.552 395.331 67.264 394.499 67.264C393.581 67.264 392.877 67.6053 392.387 68.288C391.917 68.9493 391.683 69.9627 391.683 71.328C391.683 73.0133 391.992 74.2187 392.611 74.944C393.229 75.648 394.211 76 395.555 76C396.365 76 397.176 75.872 397.987 75.616C398.819 75.3387 399.555 74.9653 400.195 74.496L401.667 78.336ZM404.634 80V68.416C404.634 67.648 404.613 66.8693 404.57 66.08C404.549 65.2907 404.485 64.512 404.378 63.744H409.818L410.202 66.816L409.818 66.656C410.416 65.5893 411.194 64.768 412.154 64.192C413.136 63.5947 414.256 63.296 415.514 63.296C419.333 63.296 421.242 65.632 421.242 70.304V80H415.45V70.56C415.45 69.5573 415.28 68.8427 414.938 68.416C414.597 67.968 414.064 67.744 413.338 67.744C412.464 67.744 411.76 68.0427 411.226 68.64C410.693 69.216 410.426 69.984 410.426 70.944V80H404.634ZM64.448 118.336C63.6373 118.955 62.656 119.435 61.504 119.776C60.352 120.096 59.2 120.256 58.048 120.256C56.1707 120.256 54.5493 119.915 53.184 119.232C51.84 118.549 50.8053 117.579 50.08 116.32C49.3547 115.04 48.992 113.536 48.992 111.808C48.992 110.144 49.3333 108.672 50.016 107.392C50.72 106.112 51.68 105.109 52.896 104.384C54.112 103.659 55.52 103.296 57.12 103.296C58.6773 103.296 60.0213 103.637 61.152 104.32C62.304 105.003 63.1893 105.973 63.808 107.232C64.4267 108.491 64.736 109.973 64.736 111.68V112.448H54.112L54.176 109.76H61.248L59.84 110.688C59.84 109.536 59.616 108.683 59.168 108.128C58.7413 107.552 58.112 107.264 57.28 107.264C56.3627 107.264 55.6587 107.605 55.168 108.288C54.6987 108.949 54.464 109.963 54.464 111.328C54.464 113.013 54.7733 114.219 55.392 114.944C56.0107 115.648 56.992 116 58.336 116C59.1467 116 59.9573 115.872 60.768 115.616C61.6 115.339 62.336 114.965 62.976 114.496L64.448 118.336ZM67.4155 120V96.448H73.2075V120H67.4155ZM94.0108 120.256C92.1761 120.256 90.5974 119.925 89.2748 119.264C87.9521 118.581 86.9388 117.611 86.2348 116.352C85.5521 115.093 85.2108 113.611 85.2108 111.904C85.2108 110.176 85.5841 108.672 86.3307 107.392C87.0988 106.091 88.1548 105.088 89.4988 104.384C90.8641 103.659 92.4534 103.296 94.2668 103.296C95.4614 103.296 96.6348 103.477 97.7868 103.84C98.9388 104.181 99.8561 104.651 100.539 105.248L99.0668 109.248C98.4908 108.779 97.8188 108.405 97.0508 108.128C96.2828 107.851 95.5468 107.712 94.8428 107.712C93.6908 107.712 92.7841 108.043 92.1228 108.704C91.4614 109.365 91.1308 110.389 91.1308 111.776C91.1308 113.184 91.4508 114.229 92.0908 114.912C92.7521 115.573 93.6801 115.904 94.8748 115.904C95.5574 115.904 96.2828 115.776 97.0508 115.52C97.8188 115.243 98.4908 114.859 99.0668 114.368L100.539 118.304C99.8134 118.923 98.8641 119.403 97.6908 119.744C96.5388 120.085 95.3121 120.256 94.0108 120.256ZM102.416 120V96.448H108.208V107.04L107.6 106.656C108.197 105.589 108.976 104.768 109.936 104.192C110.917 103.595 112.037 103.296 113.296 103.296C117.114 103.296 119.024 105.632 119.024 110.304V120H113.232V110.56C113.232 109.557 113.061 108.843 112.72 108.416C112.378 107.968 111.845 107.744 111.12 107.744C110.245 107.744 109.541 108.043 109.008 108.64C108.474 109.216 108.208 109.984 108.208 110.944V120H102.416ZM128.816 120.256C127.43 120.256 126.192 119.915 125.104 119.232C124.016 118.549 123.163 117.579 122.544 116.32C121.947 115.061 121.648 113.589 121.648 111.904C121.648 110.197 121.958 108.704 122.576 107.424C123.195 106.123 124.038 105.109 125.104 104.384C126.192 103.659 127.43 103.296 128.816 103.296C130.054 103.296 131.163 103.605 132.144 104.224C133.147 104.821 133.83 105.611 134.192 106.592L133.808 106.816V103.744H139.504V120H133.808V117.024H134.192C133.83 118.027 133.147 118.816 132.144 119.392C131.163 119.968 130.054 120.256 128.816 120.256ZM130.608 115.936C131.611 115.936 132.39 115.584 132.944 114.88C133.52 114.176 133.808 113.163 133.808 111.84C133.808 110.475 133.531 109.44 132.976 108.736C132.422 108.032 131.632 107.68 130.608 107.68C129.606 107.68 128.816 108.053 128.24 108.8C127.664 109.525 127.376 110.56 127.376 111.904C127.376 113.205 127.654 114.208 128.208 114.912C128.763 115.595 129.563 115.936 130.608 115.936ZM142.947 120V108.416C142.947 107.648 142.925 106.869 142.883 106.08C142.861 105.291 142.797 104.512 142.691 103.744H148.131L148.675 108.128L148.131 107.808C148.344 106.336 148.931 105.227 149.891 104.48C150.872 103.733 151.981 103.36 153.219 103.36C153.624 103.36 153.976 103.392 154.275 103.456C154.573 103.52 154.829 103.605 155.043 103.712V108.992C154.125 108.565 153.24 108.352 152.387 108.352C151.619 108.352 150.968 108.48 150.435 108.736C149.901 108.971 149.485 109.344 149.187 109.856C148.888 110.368 148.739 111.029 148.739 111.84V120H142.947ZM156.784 108V103.744H169.52V108H156.784ZM169.552 115.392V119.776C169.061 119.968 168.57 120.096 168.08 120.16C167.589 120.224 167.077 120.256 166.544 120.256C164.304 120.256 162.618 119.627 161.488 118.368C160.378 117.109 159.824 115.403 159.824 113.248V100.064L165.616 98.208V113.248C165.616 113.781 165.722 114.229 165.936 114.592C166.17 114.933 166.469 115.189 166.832 115.36C167.194 115.509 167.589 115.584 168.016 115.584C168.229 115.584 168.453 115.573 168.688 115.552C168.944 115.509 169.232 115.456 169.552 115.392ZM175.034 125.024L172.89 123.296C173.7 122.485 174.287 121.707 174.65 120.96C175.034 120.235 175.226 119.445 175.226 118.592L176.538 120H172.314V114.048H178.362V117.792C178.362 119.157 178.116 120.405 177.626 121.536C177.135 122.667 176.271 123.829 175.034 125.024ZM190.887 120V115.584L198.311 107.84C198.993 107.115 199.505 106.421 199.847 105.76C200.209 105.077 200.391 104.416 200.391 103.776C200.391 103.029 200.167 102.475 199.719 102.112C199.271 101.749 198.62 101.568 197.767 101.568C196.871 101.568 195.921 101.749 194.919 102.112C193.916 102.453 192.924 102.955 191.943 103.616L190.055 99.36C190.972 98.6133 192.156 98.0267 193.607 97.6C195.079 97.152 196.572 96.928 198.087 96.928C199.729 96.928 201.159 97.1947 202.375 97.728C203.612 98.24 204.561 98.9867 205.222 99.968C205.905 100.928 206.247 102.059 206.247 103.36C206.247 104.704 205.98 105.92 205.447 107.008C204.935 108.075 204.049 109.269 202.791 110.592L196.743 116.768L195.911 115.232H206.951V120H190.887ZM217.881 120.288C215.065 120.288 212.9 119.285 211.385 117.28C209.892 115.275 209.145 112.373 209.145 108.576C209.145 104.843 209.892 101.984 211.385 100C212.9 97.9947 215.065 96.992 217.881 96.992C220.697 96.992 222.852 97.9947 224.345 100C225.86 101.984 226.617 104.843 226.617 108.576C226.617 112.373 225.86 115.275 224.345 117.28C222.852 119.285 220.697 120.288 217.881 120.288ZM217.881 115.776C218.905 115.776 219.641 115.221 220.089 114.112C220.537 112.981 220.761 111.136 220.761 108.576C220.761 106.08 220.537 104.277 220.089 103.168C219.641 102.059 218.905 101.504 217.881 101.504C216.857 101.504 216.121 102.059 215.673 103.168C215.225 104.277 215.001 106.08 215.001 108.576C215.001 111.136 215.225 112.981 215.673 114.112C216.121 115.221 216.857 115.776 217.881 115.776ZM235.309 117.216V102.176H238.061L230.733 106.368V101.216L237.773 97.216H241.293V117.216H235.309ZM230.413 120V115.232H246.221V120H230.413ZM256.256 120.288C253.44 120.288 251.275 119.285 249.76 117.28C248.267 115.275 247.52 112.373 247.52 108.576C247.52 104.843 248.267 101.984 249.76 100C251.275 97.9947 253.44 96.992 256.256 96.992C259.072 96.992 261.227 97.9947 262.72 100C264.235 101.984 264.992 104.843 264.992 108.576C264.992 112.373 264.235 115.275 262.72 117.28C261.227 119.285 259.072 120.288 256.256 120.288ZM256.256 115.776C257.28 115.776 258.016 115.221 258.464 114.112C258.912 112.981 259.136 111.136 259.136 108.576C259.136 106.08 258.912 104.277 258.464 103.168C258.016 102.059 257.28 101.504 256.256 101.504C255.232 101.504 254.496 102.059 254.048 103.168C253.6 104.277 253.376 106.08 253.376 108.576C253.376 111.136 253.6 112.981 254.048 114.112C254.496 115.221 255.232 115.776 256.256 115.776ZM281.653 120L274.517 103.776H280.533L284.693 114.464H283.637L287.957 103.776H293.653L286.421 120H281.653ZM301.163 120.256C297.92 120.256 295.36 119.605 293.483 118.304L294.955 114.368C295.83 114.965 296.822 115.435 297.931 115.776C299.062 116.096 300.15 116.256 301.195 116.256C301.856 116.256 302.368 116.16 302.731 115.968C303.094 115.776 303.275 115.509 303.275 115.168C303.275 114.869 303.136 114.635 302.859 114.464C302.603 114.293 302.102 114.123 301.355 113.952L298.731 113.344C297.067 113.003 295.862 112.469 295.115 111.744C294.39 110.997 294.027 109.973 294.027 108.672C294.027 107.627 294.336 106.699 294.955 105.888C295.574 105.077 296.427 104.448 297.515 104C298.624 103.531 299.894 103.296 301.323 103.296C302.518 103.296 303.68 103.477 304.811 103.84C305.942 104.181 306.987 104.651 307.947 105.248L306.411 109.088C305.558 108.533 304.683 108.107 303.787 107.808C302.891 107.509 302.048 107.36 301.259 107.36C300.64 107.36 300.139 107.467 299.755 107.68C299.392 107.872 299.211 108.16 299.211 108.544C299.211 108.779 299.318 108.971 299.531 109.12C299.744 109.248 300.15 109.387 300.747 109.536L303.467 110.144C305.195 110.528 306.432 111.115 307.179 111.904C307.947 112.693 308.331 113.76 308.331 115.104C308.331 116.704 307.691 117.963 306.411 118.88C305.152 119.797 303.403 120.256 301.163 120.256ZM320.199 120V115.584L327.623 107.84C328.306 107.115 328.818 106.421 329.159 105.76C329.522 105.077 329.703 104.416 329.703 103.776C329.703 103.029 329.479 102.475 329.031 102.112C328.583 101.749 327.932 101.568 327.079 101.568C326.183 101.568 325.234 101.749 324.231 102.112C323.228 102.453 322.236 102.955 321.255 103.616L319.367 99.36C320.284 98.6133 321.468 98.0267 322.919 97.6C324.391 97.152 325.884 96.928 327.399 96.928C329.042 96.928 330.471 97.1947 331.687 97.728C332.924 98.24 333.874 98.9867 334.535 99.968C335.218 100.928 335.559 102.059 335.559 103.36C335.559 104.704 335.292 105.92 334.759 107.008C334.247 108.075 333.362 109.269 332.103 110.592L326.055 116.768L325.223 115.232H336.263V120H320.199ZM347.194 120.288C344.378 120.288 342.212 119.285 340.698 117.28C339.204 115.275 338.458 112.373 338.458 108.576C338.458 104.843 339.204 101.984 340.698 100C342.212 97.9947 344.378 96.992 347.194 96.992C350.01 96.992 352.164 97.9947 353.658 100C355.172 101.984 355.93 104.843 355.93 108.576C355.93 112.373 355.172 115.275 353.658 117.28C352.164 119.285 350.01 120.288 347.194 120.288ZM347.194 115.776C348.218 115.776 348.954 115.221 349.402 114.112C349.85 112.981 350.074 111.136 350.074 108.576C350.074 106.08 349.85 104.277 349.402 103.168C348.954 102.059 348.218 101.504 347.194 101.504C346.17 101.504 345.434 102.059 344.986 103.168C344.538 104.277 344.314 106.08 344.314 108.576C344.314 111.136 344.538 112.981 344.986 114.112C345.434 115.221 346.17 115.776 347.194 115.776ZM358.605 120V115.584L366.029 107.84C366.712 107.115 367.224 106.421 367.565 105.76C367.928 105.077 368.109 104.416 368.109 103.776C368.109 103.029 367.885 102.475 367.437 102.112C366.989 101.749 366.339 101.568 365.485 101.568C364.589 101.568 363.64 101.749 362.637 102.112C361.635 102.453 360.643 102.955 359.661 103.616L357.773 99.36C358.691 98.6133 359.875 98.0267 361.325 97.6C362.797 97.152 364.291 96.928 365.805 96.928C367.448 96.928 368.877 97.1947 370.093 97.728C371.331 98.24 372.28 98.9867 372.941 99.968C373.624 100.928 373.965 102.059 373.965 103.36C373.965 104.704 373.699 105.92 373.165 107.008C372.653 108.075 371.768 109.269 370.509 110.592L364.461 116.768L363.629 115.232H374.669V120H358.605ZM385.6 120.288C382.784 120.288 380.619 119.285 379.104 117.28C377.611 115.275 376.864 112.373 376.864 108.576C376.864 104.843 377.611 101.984 379.104 100C380.619 97.9947 382.784 96.992 385.6 96.992C388.416 96.992 390.571 97.9947 392.064 100C393.579 101.984 394.336 104.843 394.336 108.576C394.336 112.373 393.579 115.275 392.064 117.28C390.571 119.285 388.416 120.288 385.6 120.288ZM385.6 115.776C386.624 115.776 387.36 115.221 387.808 114.112C388.256 112.981 388.48 111.136 388.48 108.576C388.48 106.08 388.256 104.277 387.808 103.168C387.36 102.059 386.624 101.504 385.6 101.504C384.576 101.504 383.84 102.059 383.392 103.168C382.944 104.277 382.72 106.08 382.72 108.576C382.72 111.136 382.944 112.981 383.392 114.112C383.84 115.221 384.576 115.776 385.6 115.776Z" fill="#DEE2E8"/>
<path d="M141.779 441H502" stroke="#C57AFF" stroke-opacity="0.15"/>
<path d="M141.779 324H502" stroke="#C57AFF" stroke-opacity="0.15"/>
<path d="M140.952 558L501.173 558" stroke="#C57AFF" stroke-opacity="0.15"/>
<path d="M141.779 207H502" stroke="#C57AFF" stroke-opacity="0.15"/>
<path d="M127.014 564.144C125.574 564.144 124.482 563.592 123.738 562.488C122.994 561.372 122.622 559.74 122.622 557.592C122.622 555.432 122.988 553.8 123.72 552.696C124.464 551.592 125.562 551.04 127.014 551.04C128.466 551.04 129.558 551.592 130.29 552.696C131.034 553.8 131.406 555.426 131.406 557.574C131.406 559.722 131.034 561.354 130.29 562.47C129.546 563.586 128.454 564.144 127.014 564.144ZM127.014 563.154C128.118 563.154 128.934 562.704 129.462 561.804C130.002 560.892 130.272 559.482 130.272 557.574C130.272 555.666 130.008 554.268 129.48 553.38C128.952 552.48 128.13 552.03 127.014 552.03C125.91 552.03 125.088 552.48 124.548 553.38C124.02 554.28 123.756 555.678 123.756 557.574C123.756 559.47 124.02 560.874 124.548 561.786C125.088 562.698 125.91 563.154 127.014 563.154Z" fill="#DEE2E8"/>
<path d="M109.778 447V446.154L114.332 441.078C114.968 440.346 115.43 439.698 115.718 439.134C116.018 438.558 116.168 437.976 116.168 437.388C116.168 436.632 115.946 436.05 115.502 435.642C115.07 435.222 114.446 435.012 113.63 435.012C112.982 435.012 112.352 435.144 111.74 435.408C111.14 435.66 110.54 436.044 109.94 436.56L109.472 435.678C109.976 435.186 110.606 434.79 111.362 434.49C112.118 434.19 112.874 434.04 113.63 434.04C114.386 434.04 115.034 434.172 115.574 434.436C116.126 434.7 116.552 435.084 116.852 435.588C117.152 436.08 117.302 436.668 117.302 437.352C117.302 438.084 117.128 438.798 116.78 439.494C116.444 440.178 115.892 440.952 115.124 441.816L110.606 446.748L110.588 446.046H117.86V447H109.778ZM126.817 447.144C125.377 447.144 124.285 446.592 123.541 445.488C122.797 444.372 122.425 442.74 122.425 440.592C122.425 438.432 122.791 436.8 123.523 435.696C124.267 434.592 125.365 434.04 126.817 434.04C128.269 434.04 129.361 434.592 130.093 435.696C130.837 436.8 131.209 438.426 131.209 440.574C131.209 442.722 130.837 444.354 130.093 445.47C129.349 446.586 128.257 447.144 126.817 447.144ZM126.817 446.154C127.921 446.154 128.737 445.704 129.265 444.804C129.805 443.892 130.075 442.482 130.075 440.574C130.075 438.666 129.811 437.268 129.283 436.38C128.755 435.48 127.933 435.03 126.817 435.03C125.713 435.03 124.891 435.48 124.351 436.38C123.823 437.28 123.559 438.678 123.559 440.574C123.559 442.47 123.823 443.874 124.351 444.786C124.891 445.698 125.713 446.154 126.817 446.154Z" fill="#DEE2E8"/>
<path d="M115.214 329.97V318.54H115.628L109.886 326.838L109.904 326.1H118.31V327.054H109.166V326.208L115.412 317.154H116.33V329.97H115.214ZM126.817 330.114C125.377 330.114 124.285 329.562 123.541 328.458C122.797 327.342 122.425 325.71 122.425 323.562C122.425 321.402 122.791 319.77 123.523 318.666C124.267 317.562 125.365 317.01 126.817 317.01C128.269 317.01 129.361 317.562 130.093 318.666C130.837 319.77 131.209 321.396 131.209 323.544C131.209 325.692 130.837 327.324 130.093 328.44C129.349 329.556 128.257 330.114 126.817 330.114ZM126.817 329.124C127.921 329.124 128.737 328.674 129.265 327.774C129.805 326.862 130.075 325.452 130.075 323.544C130.075 321.636 129.811 320.238 129.283 319.35C128.755 318.45 127.933 318 126.817 318C125.713 318 124.891 318.45 124.351 319.35C123.823 320.25 123.559 321.648 123.559 323.544C123.559 325.44 123.823 326.844 124.351 327.756C124.891 328.668 125.713 329.124 126.817 329.124Z" fill="#DEE2E8"/>
<path d="M113.99 215.144C112.478 215.144 111.308 214.61 110.48 213.542C109.664 212.474 109.256 210.944 109.256 208.952C109.256 207.488 109.448 206.24 109.832 205.208C110.216 204.176 110.768 203.39 111.488 202.85C112.208 202.31 113.066 202.04 114.062 202.04C114.794 202.04 115.502 202.184 116.186 202.472C116.87 202.748 117.482 203.15 118.022 203.678L117.572 204.56C116.96 204.02 116.372 203.63 115.808 203.39C115.244 203.138 114.668 203.012 114.08 203.012C112.916 203.012 112.004 203.534 111.344 204.578C110.696 205.61 110.372 207.068 110.372 208.952V210.752L110.174 210.248C110.27 209.6 110.492 209.036 110.84 208.556C111.2 208.064 111.65 207.692 112.19 207.44C112.742 207.176 113.354 207.044 114.026 207.044C114.83 207.044 115.532 207.212 116.132 207.548C116.732 207.884 117.2 208.358 117.536 208.97C117.872 209.57 118.04 210.272 118.04 211.076C118.04 211.856 117.866 212.558 117.518 213.182C117.182 213.794 116.708 214.274 116.096 214.622C115.484 214.97 114.782 215.144 113.99 215.144ZM113.954 214.172C114.842 214.172 115.556 213.89 116.096 213.326C116.648 212.762 116.924 212.012 116.924 211.076C116.924 210.152 116.648 209.414 116.096 208.862C115.544 208.298 114.818 208.016 113.918 208.016C113.318 208.016 112.784 208.148 112.316 208.412C111.848 208.664 111.482 209.024 111.218 209.492C110.954 209.948 110.822 210.476 110.822 211.076C110.822 211.7 110.954 212.246 111.218 212.714C111.482 213.17 111.848 213.53 112.316 213.794C112.784 214.046 113.33 214.172 113.954 214.172ZM126.817 215.144C125.377 215.144 124.285 214.592 123.541 213.488C122.797 212.372 122.425 210.74 122.425 208.592C122.425 206.432 122.791 204.8 123.523 203.696C124.267 202.592 125.365 202.04 126.817 202.04C128.269 202.04 129.361 202.592 130.093 203.696C130.837 204.8 131.209 206.426 131.209 208.574C131.209 210.722 130.837 212.354 130.093 213.47C129.349 214.586 128.257 215.144 126.817 215.144ZM126.817 214.154C127.921 214.154 128.737 213.704 129.265 212.804C129.805 211.892 130.075 210.482 130.075 208.574C130.075 206.666 129.811 205.268 129.283 204.38C128.755 203.48 127.933 203.03 126.817 203.03C125.713 203.03 124.891 203.48 124.351 204.38C123.823 205.28 123.559 206.678 123.559 208.574C123.559 210.47 123.823 211.874 124.351 212.786C124.891 213.698 125.713 214.154 126.817 214.154Z" fill="#DEE2E8"/>
<path d="M228.96 275V263.456H229.8L225.456 269.672V268.688H235.584V272.12H222.12V268.808L229.776 257.912H233.376V275H228.96ZM243.638 275.216C241.366 275.216 239.606 274.48 238.358 273.008C237.11 271.52 236.486 269.392 236.486 266.624C236.486 264.768 236.782 263.176 237.374 261.848C237.982 260.504 238.846 259.48 239.966 258.776C241.086 258.056 242.414 257.696 243.95 257.696C245.022 257.696 246.062 257.856 247.07 258.176C248.094 258.48 248.958 258.928 249.662 259.52L248.246 262.712C247.478 262.152 246.742 261.76 246.038 261.536C245.334 261.296 244.71 261.176 244.166 261.176C243.094 261.176 242.286 261.624 241.742 262.52C241.214 263.416 240.95 264.752 240.95 266.528V266.864L240.542 266.312C240.702 265.8 240.974 265.352 241.358 264.968C241.742 264.584 242.206 264.288 242.75 264.08C243.31 263.856 243.902 263.744 244.526 263.744C245.518 263.744 246.398 263.984 247.166 264.464C247.934 264.944 248.534 265.608 248.966 266.456C249.414 267.288 249.638 268.24 249.638 269.312C249.638 270.464 249.382 271.488 248.87 272.384C248.358 273.264 247.646 273.96 246.734 274.472C245.838 274.968 244.806 275.216 243.638 275.216ZM243.398 271.76C244.022 271.76 244.518 271.552 244.886 271.136C245.254 270.72 245.438 270.176 245.438 269.504C245.438 268.8 245.254 268.248 244.886 267.848C244.534 267.432 244.038 267.224 243.398 267.224C242.998 267.224 242.638 267.32 242.318 267.512C242.014 267.688 241.774 267.952 241.598 268.304C241.438 268.64 241.358 269.04 241.358 269.504C241.358 269.952 241.438 270.344 241.598 270.68C241.774 271.016 242.014 271.28 242.318 271.472C242.638 271.664 242.998 271.76 243.398 271.76Z" fill="#DEE2E8"/>
<path d="M283.862 297H187.862V558H283.862V297Z" fill="url(#paint1_linear_216_8663)"/>
<path d="M212.215 592V591.154L216.769 586.078C217.405 585.346 217.867 584.698 218.155 584.134C218.455 583.558 218.605 582.976 218.605 582.388C218.605 581.632 218.383 581.05 217.939 580.642C217.507 580.222 216.883 580.012 216.067 580.012C215.419 580.012 214.789 580.144 214.177 580.408C213.577 580.66 212.977 581.044 212.377 581.56L211.909 580.678C212.413 580.186 213.043 579.79 213.799 579.49C214.555 579.19 215.311 579.04 216.067 579.04C216.823 579.04 217.471 579.172 218.011 579.436C218.563 579.7 218.989 580.084 219.289 580.588C219.589 581.08 219.739 581.668 219.739 582.352C219.739 583.084 219.565 583.798 219.217 584.494C218.881 585.178 218.329 585.952 217.561 586.816L213.043 591.748L213.025 591.046H220.297V592H212.215ZM229.254 592.144C227.814 592.144 226.722 591.592 225.978 590.488C225.234 589.372 224.862 587.74 224.862 585.592C224.862 583.432 225.228 581.8 225.96 580.696C226.704 579.592 227.802 579.04 229.254 579.04C230.706 579.04 231.798 579.592 232.53 580.696C233.274 581.8 233.646 583.426 233.646 585.574C233.646 587.722 233.274 589.354 232.53 590.47C231.786 591.586 230.694 592.144 229.254 592.144ZM229.254 591.154C230.358 591.154 231.174 590.704 231.702 589.804C232.242 588.892 232.512 587.482 232.512 585.574C232.512 583.666 232.248 582.268 231.72 581.38C231.192 580.48 230.37 580.03 229.254 580.03C228.15 580.03 227.328 580.48 226.788 581.38C226.26 582.28 225.996 583.678 225.996 585.574C225.996 587.47 226.26 588.874 226.788 589.786C227.328 590.698 228.15 591.154 229.254 591.154ZM242.351 591.514V579.652L243.071 580.192L239.705 582.37V581.236L242.837 579.184H243.467V591.514H242.351ZM239.507 592V591.046H246.311V592H239.507ZM255.7 592.144C254.26 592.144 253.168 591.592 252.424 590.488C251.68 589.372 251.308 587.74 251.308 585.592C251.308 583.432 251.674 581.8 252.406 580.696C253.15 579.592 254.248 579.04 255.7 579.04C257.152 579.04 258.244 579.592 258.976 580.696C259.72 581.8 260.092 583.426 260.092 585.574C260.092 587.722 259.72 589.354 258.976 590.47C258.232 591.586 257.14 592.144 255.7 592.144ZM255.7 591.154C256.804 591.154 257.62 590.704 258.148 589.804C258.688 588.892 258.958 587.482 258.958 585.574C258.958 583.666 258.694 582.268 258.166 581.38C257.638 580.48 256.816 580.03 255.7 580.03C254.596 580.03 253.774 580.48 253.234 581.38C252.706 582.28 252.442 583.678 252.442 585.574C252.442 587.47 252.706 588.874 253.234 589.786C253.774 590.698 254.596 591.154 255.7 591.154Z" fill="#DEE2E8"/>
<path d="M366.321 208.192C365.217 208.192 364.121 208.032 363.033 207.712C361.945 207.376 361.073 206.928 360.417 206.368L361.809 203.176C362.561 203.688 363.321 204.072 364.089 204.328C364.857 204.584 365.625 204.712 366.393 204.712C367.289 204.712 367.953 204.536 368.385 204.184C368.817 203.816 369.033 203.256 369.033 202.504C369.033 202.008 368.929 201.592 368.721 201.256C368.513 200.92 368.217 200.664 367.833 200.488C367.449 200.312 366.985 200.224 366.441 200.224C365.993 200.224 365.505 200.304 364.977 200.464C364.449 200.608 363.969 200.8 363.537 201.04H361.065V190.912H372.345V194.32H365.433V198.352L364.113 198.112C364.609 197.664 365.153 197.336 365.745 197.128C366.337 196.904 367.017 196.792 367.785 196.792C368.857 196.792 369.801 197.024 370.617 197.488C371.433 197.952 372.073 198.6 372.537 199.432C373.017 200.248 373.257 201.208 373.257 202.312C373.257 203.512 372.969 204.552 372.393 205.432C371.833 206.312 371.033 206.992 369.993 207.472C368.953 207.952 367.729 208.192 366.321 208.192ZM380.423 190.696C382.711 190.696 384.471 191.44 385.703 192.928C386.951 194.4 387.575 196.52 387.575 199.288C387.575 201.144 387.271 202.744 386.663 204.088C386.071 205.416 385.215 206.44 384.095 207.16C382.991 207.864 381.671 208.216 380.135 208.216C379.063 208.216 378.015 208.064 376.991 207.76C375.983 207.44 375.127 206.984 374.423 206.392L375.839 203.2C376.623 203.76 377.359 204.16 378.047 204.4C378.751 204.624 379.375 204.736 379.919 204.736C380.991 204.736 381.791 204.288 382.319 203.392C382.863 202.496 383.135 201.16 383.135 199.384V199.048L383.543 199.6C383.383 200.112 383.103 200.56 382.703 200.944C382.319 201.328 381.855 201.632 381.311 201.856C380.767 202.064 380.175 202.168 379.535 202.168C378.559 202.168 377.687 201.928 376.919 201.448C376.151 200.968 375.543 200.312 375.095 199.48C374.647 198.632 374.423 197.672 374.423 196.6C374.423 195.448 374.679 194.432 375.191 193.552C375.719 192.656 376.431 191.96 377.327 191.464C378.223 190.952 379.255 190.696 380.423 190.696ZM380.687 194.152C380.047 194.152 379.543 194.36 379.175 194.776C378.823 195.192 378.647 195.736 378.647 196.408C378.647 197.112 378.823 197.672 379.175 198.088C379.543 198.488 380.047 198.688 380.687 198.688C381.087 198.688 381.439 198.6 381.743 198.424C382.063 198.232 382.303 197.968 382.463 197.632C382.639 197.28 382.727 196.872 382.727 196.408C382.727 195.96 382.639 195.568 382.463 195.232C382.303 194.896 382.063 194.632 381.743 194.44C381.439 194.248 381.087 194.152 380.687 194.152Z" fill="#DEE2E8"/>
<path d="M421.823 230H325.823V558H421.823V230Z" fill="url(#paint2_linear_216_8663)"/>
<path d="M350.176 592V591.154L354.73 586.078C355.366 585.346 355.828 584.698 356.116 584.134C356.416 583.558 356.566 582.976 356.566 582.388C356.566 581.632 356.344 581.05 355.9 580.642C355.468 580.222 354.844 580.012 354.028 580.012C353.38 580.012 352.75 580.144 352.138 580.408C351.538 580.66 350.938 581.044 350.338 581.56L349.87 580.678C350.374 580.186 351.004 579.79 351.76 579.49C352.516 579.19 353.272 579.04 354.028 579.04C354.784 579.04 355.432 579.172 355.972 579.436C356.524 579.7 356.95 580.084 357.25 580.588C357.55 581.08 357.7 581.668 357.7 582.352C357.7 583.084 357.526 583.798 357.178 584.494C356.842 585.178 356.29 585.952 355.522 586.816L351.004 591.748L350.986 591.046H358.258V592H350.176ZM367.215 592.144C365.775 592.144 364.683 591.592 363.939 590.488C363.195 589.372 362.823 587.74 362.823 585.592C362.823 583.432 363.189 581.8 363.921 580.696C364.665 579.592 365.763 579.04 367.215 579.04C368.667 579.04 369.759 579.592 370.491 580.696C371.235 581.8 371.607 583.426 371.607 585.574C371.607 587.722 371.235 589.354 370.491 590.47C369.747 591.586 368.655 592.144 367.215 592.144ZM367.215 591.154C368.319 591.154 369.135 590.704 369.663 589.804C370.203 588.892 370.473 587.482 370.473 585.574C370.473 583.666 370.209 582.268 369.681 581.38C369.153 580.48 368.331 580.03 367.215 580.03C366.111 580.03 365.289 580.48 364.749 581.38C364.221 582.28 363.957 583.678 363.957 585.574C363.957 587.47 364.221 588.874 364.749 589.786C365.289 590.698 366.111 591.154 367.215 591.154ZM376.622 592V591.154L381.176 586.078C381.812 585.346 382.274 584.698 382.562 584.134C382.862 583.558 383.012 582.976 383.012 582.388C383.012 581.632 382.79 581.05 382.346 580.642C381.914 580.222 381.29 580.012 380.474 580.012C379.826 580.012 379.196 580.144 378.584 580.408C377.984 580.66 377.384 581.044 376.784 581.56L376.316 580.678C376.82 580.186 377.45 579.79 378.206 579.49C378.962 579.19 379.718 579.04 380.474 579.04C381.23 579.04 381.878 579.172 382.418 579.436C382.97 579.7 383.396 580.084 383.696 580.588C383.996 581.08 384.146 581.668 384.146 582.352C384.146 583.084 383.972 583.798 383.624 584.494C383.288 585.178 382.736 585.952 381.968 586.816L377.45 591.748L377.432 591.046H384.704V592H376.622ZM393.661 592.144C392.221 592.144 391.129 591.592 390.385 590.488C389.641 589.372 389.269 587.74 389.269 585.592C389.269 583.432 389.635 581.8 390.367 580.696C391.111 579.592 392.209 579.04 393.661 579.04C395.113 579.04 396.205 579.592 396.937 580.696C397.681 581.8 398.053 583.426 398.053 585.574C398.053 587.722 397.681 589.354 396.937 590.47C396.193 591.586 395.101 592.144 393.661 592.144ZM393.661 591.154C394.765 591.154 395.581 590.704 396.109 589.804C396.649 588.892 396.919 587.482 396.919 585.574C396.919 583.666 396.655 582.268 396.127 581.38C395.599 580.48 394.777 580.03 393.661 580.03C392.557 580.03 391.735 580.48 391.195 581.38C390.667 582.28 390.403 583.678 390.403 585.574C390.403 587.47 390.667 588.874 391.195 589.786C391.735 590.698 392.557 591.154 393.661 591.154Z" fill="#DEE2E8"/>
<path d="M66.144 437.887C66.144 439.087 65.886 440.119 65.37 440.983C64.842 441.847 64.086 442.519 63.102 442.999C62.118 443.467 60.942 443.701 59.574 443.701C58.206 443.701 57.036 443.467 56.064 442.999C55.092 442.519 54.348 441.847 53.832 440.983C53.304 440.119 53.04 439.087 53.04 437.887C53.04 436.999 53.178 436.189 53.454 435.457C53.73 434.713 54.15 434.071 54.714 433.531L55.596 433.981C55.044 434.605 54.648 435.229 54.408 435.853C54.168 436.465 54.048 437.143 54.048 437.887C54.048 439.363 54.528 440.509 55.488 441.325C56.448 442.141 57.81 442.549 59.574 442.549C61.35 442.549 62.724 442.141 63.696 441.325C64.656 440.509 65.136 439.363 65.136 437.887C65.136 437.143 65.016 436.465 64.776 435.853C64.536 435.229 64.14 434.605 63.588 433.981L64.47 433.531C65.034 434.071 65.454 434.713 65.73 435.457C66.006 436.189 66.144 436.999 66.144 437.887ZM66.126 425.38C66.126 426.184 65.934 426.892 65.55 427.504C65.166 428.104 64.632 428.572 63.948 428.908C63.252 429.232 62.43 429.394 61.482 429.394C60.534 429.394 59.706 429.226 58.998 428.89C58.29 428.554 57.744 428.086 57.36 427.486C56.964 426.874 56.766 426.172 56.766 425.38C56.766 424.528 56.976 423.814 57.396 423.238C57.816 422.65 58.422 422.254 59.214 422.05L59.358 422.266L56.982 422.266L56.982 421.168L66 421.168L66 422.266L63.534 422.266L63.66 422.05C64.452 422.254 65.064 422.65 65.496 423.238C65.916 423.814 66.126 424.528 66.126 425.38ZM65.154 425.236C65.154 424.276 64.83 423.544 64.182 423.04C63.534 422.524 62.622 422.266 61.446 422.266C60.246 422.266 59.328 422.524 58.692 423.04C58.056 423.556 57.738 424.288 57.738 425.236C57.738 426.184 58.068 426.928 58.728 427.468C59.376 427.996 60.294 428.26 61.482 428.26C62.658 428.26 63.564 427.996 64.2 427.468C64.836 426.928 65.154 426.184 65.154 425.236ZM66 415.754L59.484 415.754C59.076 415.754 58.662 415.766 58.242 415.79C57.81 415.802 57.39 415.838 56.982 415.898L56.982 414.854L58.872 414.692L59.052 414.872C58.296 414.644 57.726 414.23 57.342 413.63C56.958 413.03 56.766 412.34 56.766 411.56C56.766 409.388 57.93 408.302 60.258 408.302L66 408.302L66 409.4L60.33 409.4C59.43 409.4 58.77 409.58 58.35 409.94C57.93 410.3 57.72 410.876 57.72 411.668C57.72 412.568 57.996 413.294 58.548 413.846C59.1 414.386 59.844 414.656 60.78 414.656L66 414.656L66 415.754ZM57.864 404.285L56.982 404.285L56.982 398.741L57.864 398.741L57.864 404.285ZM64.974 398.795L65.964 398.795C66.012 398.975 66.048 399.161 66.072 399.353C66.096 399.533 66.108 399.737 66.108 399.965C66.108 400.721 65.892 401.333 65.46 401.801C65.028 402.269 64.356 402.503 63.444 402.503L54.588 402.503L54.174 401.405L63.228 401.405C63.732 401.405 64.122 401.339 64.398 401.207C64.674 401.063 64.866 400.871 64.974 400.631C65.082 400.379 65.136 400.097 65.136 399.785C65.136 399.593 65.124 399.425 65.1 399.281C65.076 399.137 65.034 398.975 64.974 398.795ZM66 394.44L56.982 394.44L56.982 393.342L66 393.342L66 394.44ZM53.256 394.602L53.256 393.144L54.66 393.144L54.66 394.602L53.256 394.602ZM66 380.265L66 381.363L63.516 381.363L63.66 381.147C64.452 381.351 65.064 381.747 65.496 382.335C65.916 382.911 66.126 383.625 66.126 384.477C66.126 385.269 65.934 385.971 65.55 386.583C65.154 387.183 64.602 387.651 63.894 387.987C63.186 388.323 62.358 388.491 61.41 388.491C60.462 388.491 59.64 388.329 58.944 388.005C58.248 387.669 57.714 387.201 57.342 386.601C56.958 385.989 56.766 385.281 56.766 384.477C56.766 383.625 56.982 382.911 57.414 382.335C57.834 381.747 58.434 381.351 59.214 381.147L59.358 381.363L52.752 381.363L52.752 380.265L66 380.265ZM65.154 384.333C65.154 383.385 64.83 382.653 64.182 382.137C63.534 381.621 62.622 381.363 61.446 381.363C60.258 381.363 59.346 381.621 58.71 382.137C58.062 382.641 57.738 383.373 57.738 384.333C57.738 385.281 58.056 386.025 58.692 386.565C59.328 387.093 60.234 387.357 61.41 387.357C62.586 387.357 63.504 387.093 64.164 386.565C64.824 386.025 65.154 385.281 65.154 384.333ZM66.126 371.412C66.126 372.216 65.934 372.924 65.55 373.536C65.166 374.136 64.632 374.604 63.948 374.94C63.252 375.264 62.43 375.426 61.482 375.426C60.534 375.426 59.706 375.258 58.998 374.922C58.29 374.586 57.744 374.118 57.36 373.518C56.964 372.906 56.766 372.204 56.766 371.412C56.766 370.56 56.976 369.846 57.396 369.27C57.816 368.682 58.422 368.286 59.214 368.082L59.358 368.298L56.982 368.298L56.982 367.2L66 367.2L66 368.298L63.534 368.298L63.66 368.082C64.452 368.286 65.064 368.682 65.496 369.27C65.916 369.846 66.126 370.56 66.126 371.412ZM65.154 371.268C65.154 370.308 64.83 369.576 64.182 369.072C63.534 368.556 62.622 368.298 61.446 368.298C60.246 368.298 59.328 368.556 58.692 369.072C58.056 369.588 57.738 370.32 57.738 371.268C57.738 372.216 58.068 372.96 58.728 373.5C59.376 374.028 60.294 374.292 61.482 374.292C62.658 374.292 63.564 374.028 64.2 373.5C64.836 372.96 65.154 372.216 65.154 371.268ZM66 354.135L66 355.233L63.516 355.233L63.66 355.017C64.452 355.221 65.064 355.617 65.496 356.205C65.916 356.781 66.126 357.495 66.126 358.347C66.126 359.139 65.934 359.841 65.55 360.453C65.154 361.053 64.602 361.521 63.894 361.857C63.186 362.193 62.358 362.361 61.41 362.361C60.462 362.361 59.64 362.199 58.944 361.875C58.248 361.539 57.714 361.071 57.342 360.471C56.958 359.859 56.766 359.151 56.766 358.347C56.766 357.495 56.982 356.781 57.414 356.205C57.834 355.617 58.434 355.221 59.214 355.017L59.358 355.233L52.752 355.233L52.752 354.135L66 354.135ZM65.154 358.203C65.154 357.255 64.83 356.523 64.182 356.007C63.534 355.491 62.622 355.233 61.446 355.233C60.258 355.233 59.346 355.491 58.71 356.007C58.062 356.511 57.738 357.243 57.738 358.203C57.738 359.151 58.056 359.895 58.692 360.435C59.328 360.963 60.234 361.227 61.41 361.227C62.586 361.227 63.504 360.963 64.164 360.435C64.824 359.895 65.154 359.151 65.154 358.203Z" fill="#DEE2E8"/>
<defs>
<linearGradient id="paint0_linear_216_8663" x1="275" y1="0" x2="275" y2="645" gradientUnits="userSpaceOnUse">
<stop stop-color="#0B1131"/>
<stop offset="1" stop-color="#334F79"/>
</linearGradient>
<linearGradient id="paint1_linear_216_8663" x1="235.862" y1="297" x2="235.862" y2="558" gradientUnits="userSpaceOnUse">
<stop stop-color="#CF4672"/>
<stop offset="1" stop-color="#CF4667"/>
</linearGradient>
<linearGradient id="paint2_linear_216_8663" x1="373.823" y1="230" x2="373.823" y2="558" gradientUnits="userSpaceOnUse">
<stop stop-color="#5B83EF"/>
<stop offset="1" stop-color="#4556EF"/>
</linearGradient>
</defs>
</svg>
