<svg  viewBox="0 0 753 1996" fill="none" xmlns="http://www.w3.org/2000/svg">
<path d="M0 0H746.913C749.675 0 751.913 2.23858 751.913 5V700.376C751.913 703.138 749.675 705.376 746.913 705.376H4.99998C2.23855 705.376 0 703.138 0 700.376V0Z" fill="#1A283D"/>
<path d="M0 0H746.913C749.675 0 751.913 2.23858 751.913 5V700.376C751.913 703.138 749.675 705.376 746.913 705.376H4.99998C2.23855 705.376 0 703.138 0 700.376V0Z" fill="url(#paint0_linear_223_7939)" fill-opacity="0.2"/>
<text fill="#DEE2E8" xml:space="preserve" style="white-space: pre" font-family="Mulish" font-size="30" font-weight="900" letter-spacing="0em"><tspan x="48" y="78.325">Artistas con la mayor cantidad de &#10;</tspan><tspan x="48" y="116.325">canciones, 2010</tspan></text>
<g opacity="0.3">
<path d="M84.8486 443.881L703.911 443.881Z" fill="#C57AFF" fill-opacity="0.3"/>
<path d="M84.8486 443.881L703.911 443.881" stroke="#C57AFF" stroke-opacity="0.4"/>
<path d="M84.8516 573.418L703.914 573.418Z" fill="#C57AFF" fill-opacity="0.3"/>
<path d="M84.8516 573.418L703.914 573.418" stroke="#C57AFF" stroke-opacity="0.4"/>
<path d="M84.8486 313.471L703.911 313.471Z" fill="#C57AFF" fill-opacity="0.3"/>
<path d="M84.8486 313.471L703.911 313.471" stroke="#C57AFF" stroke-opacity="0.4"/>
<path d="M84.8486 184.08L703.911 184.08Z" fill="#C57AFF" fill-opacity="0.3"/>
<path d="M84.8486 184.08L703.911 184.08" stroke="#C57AFF" stroke-opacity="0.4"/>
</g>
<text transform="matrix(1 2.71903e-08 -0.00659256 0.999978 48.1113 176.902)" fill="#DEE2E8" xml:space="preserve" style="white-space: pre" font-family="Mulish" font-size="20" font-weight="300" letter-spacing="0.135em"><tspan x="-0.749629" y="20.05">6</tspan></text>
<text transform="matrix(1 -8.10422e-10 -0.00792271 0.999969 48.1201 308.697)" fill="#DEE2E8" xml:space="preserve" style="white-space: pre" font-family="Mulish" font-size="20" font-weight="300" letter-spacing="0.135em"><tspan x="-0.966438" y="20.05">4</tspan></text>
<text transform="translate(48 438.971)" fill="#DEE2E8" xml:space="preserve" style="white-space: pre" font-family="Mulish" font-size="20" font-weight="300" letter-spacing="0.135em"><tspan x="-0.754557" y="20.05">2</tspan></text>
<text transform="translate(48.0039 569.986)" fill="#DEE2E8" xml:space="preserve" style="white-space: pre" font-family="Mulish" font-size="20" font-weight="300" letter-spacing="0.135em"><tspan x="-0.754557" y="20.05">0</tspan></text>
<text transform="translate(592.629 265)" fill="#DEE2E8" xml:space="preserve" style="white-space: pre" font-family="Mulish" font-size="24" font-weight="900" letter-spacing="0em"><tspan x="-2.27105" y="24.06">4</tspan></text>
<path d="M642.106 574.057L553 574.057L553 315.318L642.106 315.318L642.106 574.057Z" fill="url(#paint1_linear_223_7939)"/>
<text transform="translate(554.053 590.057)" fill="#DEE2E8" xml:space="preserve" style="white-space: pre" font-family="Mulish" font-size="18" font-weight="300" letter-spacing="0.135em"><tspan x="11.2491" y="18.295">Taylor </tspan><tspan x="16.3752" y="41.295">Swift  </tspan></text>
<text transform="translate(484.576 199)" fill="#DEE2E8" xml:space="preserve" style="white-space: pre" font-family="Mulish" font-size="24" font-weight="900" letter-spacing="0em"><tspan x="-2.27105" y="24.06">5</tspan></text>
<path d="M534.053 572.738L444.947 572.738L444.947 249.318L534.053 249.318L534.053 572.738Z" fill="url(#paint2_linear_223_7939)"/>
<text transform="translate(439 588.738)" fill="#DEE2E8" xml:space="preserve" style="white-space: pre" font-family="Mulish" font-size="18" font-weight="300" letter-spacing="0.135em"><tspan x="7.53308" y="18.295">Rihanna  </tspan></text>
<text transform="translate(373.576 199)" fill="#DEE2E8" xml:space="preserve" style="white-space: pre" font-family="Mulish" font-size="24" font-weight="900" letter-spacing="0em"><tspan x="-2.27105" y="24.06">5</tspan></text>
<path d="M423.294 572.23L333.706 572.23L333.706 249.318L423.294 249.318L423.294 572.23Z" fill="url(#paint3_linear_223_7939)"/>
<text transform="translate(325 588.23)" fill="#DEE2E8" xml:space="preserve" style="white-space: pre" font-family="Mulish" font-size="18" font-weight="300" letter-spacing="0.135em"><tspan x="2.48687" y="18.295">The Black </tspan><tspan x="-0.167423" y="41.295">Eyed Peas  </tspan></text>
<text transform="translate(262.629 199)" fill="#DEE2E8" xml:space="preserve" style="white-space: pre" font-family="Mulish" font-size="24" font-weight="900" letter-spacing="0em"><tspan x="-2.27105" y="24.06">5</tspan></text>
<path d="M312.106 572.738L223 572.738L223 249.318L312.106 249.318L312.106 572.738Z" fill="url(#paint4_linear_223_7939)"/>
<text transform="translate(231.472 588.738)" fill="#DEE2E8" xml:space="preserve" style="white-space: pre" font-family="Mulish" font-size="18" font-weight="300" letter-spacing="0.135em"><tspan x="12.5708" y="18.295">Katy </tspan><tspan x="8.20057" y="41.295">Perry  </tspan></text>
<text transform="translate(151.629 134)" fill="#DEE2E8" xml:space="preserve" style="white-space: pre" font-family="Mulish" font-size="24" font-weight="900" letter-spacing="0em"><tspan x="-2.27105" y="24.06">6</tspan></text>
<path d="M201.106 572.42L112 572.42L112 184.318L201.106 184.318L201.106 572.42Z" fill="url(#paint5_linear_223_7939)"/>
<text transform="translate(117.861 588.422)" fill="#DEE2E8" xml:space="preserve" style="white-space: pre" font-family="Mulish" font-size="18" font-weight="300" letter-spacing="0.135em"><tspan x="6.30194" y="18.295">Ke$ha  </tspan></text>
<rect y="721.377" width="753" height="270" rx="5" fill="url(#paint6_linear_223_7939)" style="mix-blend-mode:lighten"/>
<text fill="#FFBEA2" xml:space="preserve" style="white-space: pre" font-family="Mulish" font-size="24" font-weight="800" letter-spacing="0.025em"><tspan x="48" y="770.937">2010</tspan></text>
<text fill="#DEE2E8" xml:space="preserve" style="white-space: pre" font-family="Mulish" font-size="46" font-weight="900" letter-spacing="0em"><tspan x="48" y="861.242">18</tspan></text>
<text fill="#DEE2E8" fill-opacity="0.8" xml:space="preserve" style="white-space: pre" font-family="Mulish" font-size="24" letter-spacing="0.025em"><tspan x="48" y="902.937">Artistas con m&#xe1;s de una </tspan><tspan x="48" y="935.937">canci&#xf3;n en el r&#xe1;nking.</tspan></text>
<path d="M396 866.377C396 844.286 413.909 826.377 436 826.377C458.091 826.377 476 844.286 476 866.377C476 888.468 458.091 906.377 436 906.377C413.909 906.377 396 888.468 396 866.377ZM468 866.377C468 848.704 453.673 834.377 436 834.377C418.327 834.377 404 848.704 404 866.377C404 884.05 418.327 898.377 436 898.377C453.673 898.377 468 884.05 468 866.377Z" fill="#D94165"/>
<path d="M422.319 903.965C414.563 901.142 407.87 895.988 403.158 889.211C398.446 882.434 395.946 874.366 396.001 866.112C396.056 857.858 398.662 849.823 403.464 843.109C408.265 836.395 415.026 831.331 422.819 828.611L425.455 836.164C419.221 838.34 413.812 842.392 409.971 847.763C406.13 853.134 404.045 859.562 404.001 866.165C403.957 872.768 405.957 879.223 409.726 884.644C413.496 890.066 418.85 894.189 425.055 896.447L422.319 903.965Z" fill="#FFB3F3"/>
<text fill="#DEE2E8" xml:space="preserve" style="white-space: pre" font-family="Mulish" font-size="46" font-weight="900" letter-spacing="0em"><tspan x="500" y="861.242">39.1%</tspan></text>
<text fill="#DEE2E8" fill-opacity="0.8" xml:space="preserve" style="white-space: pre" font-family="Mulish" font-size="24" letter-spacing="0.025em"><tspan x="500" y="902.937">de todas los </tspan><tspan x="500" y="935.937">artistas del 2010</tspan></text>
<path d="M0 1045.38H746.913C749.675 1045.38 751.913 1047.62 751.913 1050.38V1704.33C751.913 1707.09 749.675 1709.33 746.913 1709.33H4.99998C2.23855 1709.33 0 1707.09 0 1704.33V1045.38Z" fill="#1A283D"/>
<path d="M0 1045.38H746.913C749.675 1045.38 751.913 1047.62 751.913 1050.38V1704.33C751.913 1707.09 749.675 1709.33 746.913 1709.33H4.99998C2.23855 1709.33 0 1707.09 0 1704.33V1045.38Z" fill="url(#paint7_linear_223_7939)" fill-opacity="0.2"/>
<text fill="#DEE2E8" xml:space="preserve" style="white-space: pre" font-family="Mulish" font-size="30" font-weight="900" letter-spacing="0em"><tspan x="48" y="1123.7">Artistas con la mayor cantidad de &#10;</tspan><tspan x="48" y="1161.7">canciones, 2020</tspan></text>
<g opacity="0.3">
<path d="M84.8486 1446.36L703.911 1446.36Z" fill="#C57AFF" fill-opacity="0.3"/>
<path d="M84.8486 1446.36L703.911 1446.36" stroke="#C57AFF" stroke-opacity="0.4"/>
<path d="M84.8516 1575.89L703.914 1575.89Z" fill="#C57AFF" fill-opacity="0.3"/>
<path d="M84.8516 1575.89L703.914 1575.89" stroke="#C57AFF" stroke-opacity="0.4"/>
<path d="M84.8486 1315.95L703.911 1315.95Z" fill="#C57AFF" fill-opacity="0.3"/>
<path d="M84.8486 1315.95L703.911 1315.95" stroke="#C57AFF" stroke-opacity="0.4"/>
<path d="M84.8486 1186.55L703.911 1186.55Z" fill="#C57AFF" fill-opacity="0.3"/>
<path d="M84.8486 1186.55L703.911 1186.55" stroke="#C57AFF" stroke-opacity="0.4"/>
</g>
<text transform="matrix(1 2.71903e-08 -0.00659256 0.999978 48.1113 1179.38)" fill="#DEE2E8" xml:space="preserve" style="white-space: pre" font-family="Mulish" font-size="20" font-weight="300" letter-spacing="0.135em"><tspan x="-0.749629" y="20.05">6</tspan></text>
<text transform="matrix(1 -8.10422e-10 -0.00792271 0.999969 48.1201 1311.17)" fill="#DEE2E8" xml:space="preserve" style="white-space: pre" font-family="Mulish" font-size="20" font-weight="300" letter-spacing="0.135em"><tspan x="-0.966438" y="20.05">4</tspan></text>
<text transform="translate(48 1441.45)" fill="#DEE2E8" xml:space="preserve" style="white-space: pre" font-family="Mulish" font-size="20" font-weight="300" letter-spacing="0.135em"><tspan x="-0.754557" y="20.05">2</tspan></text>
<text transform="translate(48.0039 1572.46)" fill="#DEE2E8" xml:space="preserve" style="white-space: pre" font-family="Mulish" font-size="20" font-weight="300" letter-spacing="0.135em"><tspan x="-0.754557" y="20.05">0</tspan></text>
<text transform="translate(592.576 1326.38)" fill="#DEE2E8" xml:space="preserve" style="white-space: pre" font-family="Mulish" font-size="24" font-weight="900" letter-spacing="0em"><tspan x="-2.27105" y="24.06">3</tspan></text>
<path d="M642 1574.7L553 1574.7L553 1376.7L642 1376.7L642 1574.7Z" fill="url(#paint8_linear_223_7939)"/>
<text transform="translate(554 1590.7)" fill="#DEE2E8" xml:space="preserve" style="white-space: pre" font-family="Mulish" font-size="18" font-weight="300" letter-spacing="0.135em"><tspan x="14.347" y="18.295">Drake</tspan></text>
<text transform="translate(484.576 1326.38)" fill="#DEE2E8" xml:space="preserve" style="white-space: pre" font-family="Mulish" font-size="24" font-weight="900" letter-spacing="0em"><tspan x="-2.27105" y="24.06">3</tspan></text>
<path d="M534 1574.7L445 1574.7L445 1376.7L534 1376.7L534 1574.7Z" fill="url(#paint9_linear_223_7939)"/>
<text transform="translate(439 1590.7)" fill="#DEE2E8" xml:space="preserve" style="white-space: pre" font-family="Mulish" font-size="18" font-weight="300" letter-spacing="0.135em"><tspan x="20.7958" y="18.295">Blillie </tspan><tspan x="23.3752" y="41.295">Eilish</tspan></text>
<text transform="translate(373.576 1326.38)" fill="#DEE2E8" xml:space="preserve" style="white-space: pre" font-family="Mulish" font-size="24" font-weight="900" letter-spacing="0em"><tspan x="-2.27105" y="24.06">3</tspan></text>
<path d="M423 1574.7L334 1574.7L334 1376.7L423 1376.7L423 1574.7Z" fill="url(#paint10_linear_223_7939)"/>
<text transform="translate(325 1590.7)" fill="#DEE2E8" xml:space="preserve" style="white-space: pre" font-family="Mulish" font-size="18" font-weight="300" letter-spacing="0.135em"><tspan x="18.6563" y="18.295">Ariana </tspan><tspan x="17.1291" y="41.295">Grande</tspan></text>
<text transform="translate(262.576 1262.38)" fill="#DEE2E8" xml:space="preserve" style="white-space: pre" font-family="Mulish" font-size="24" font-weight="900" letter-spacing="0em"><tspan x="-2.27105" y="24.06">4</tspan></text>
<path d="M312 1576.7L223 1576.7L223 1312.7L312 1312.7L312 1576.7Z" fill="url(#paint11_linear_223_7939)"/>
<text transform="translate(231.419 1592.7)" fill="#DEE2E8" xml:space="preserve" style="white-space: pre" font-family="Mulish" font-size="18" font-weight="300" letter-spacing="0.135em"><tspan x="3.8303" y="18.295">Taylor </tspan><tspan x="10.1714" y="41.295">Swift</tspan></text>
<text transform="translate(151.576 1194.38)" fill="#DEE2E8" xml:space="preserve" style="white-space: pre" font-family="Mulish" font-size="24" font-weight="900" letter-spacing="0em"><tspan x="-2.27105" y="24.06">5</tspan></text>
<path d="M201 1574.7L112 1574.7L112 1244.7L201 1244.7L201 1574.7Z" fill="url(#paint12_linear_223_7939)"/>
<text transform="translate(117.809 1590.7)" fill="#DEE2E8" xml:space="preserve" style="white-space: pre" font-family="Mulish" font-size="18" font-weight="300" letter-spacing="0.135em"><tspan x="13.3156" y="18.295">Juice </tspan><tspan x="7.37842" y="41.295">WRLD</tspan></text>
<rect y="1725.33" width="753" height="270" rx="5" fill="url(#paint13_linear_223_7939)" style="mix-blend-mode:lighten"/>
<text fill="#69BCF9" xml:space="preserve" style="white-space: pre" font-family="Mulish" font-size="24" font-weight="800" letter-spacing="0.025em"><tspan x="48" y="1774.89">2020</tspan></text>
<text fill="#DEE2E8" xml:space="preserve" style="white-space: pre" font-family="Mulish" font-size="46" font-weight="900" letter-spacing="0em"><tspan x="48" y="1865.2">19</tspan></text>
<text fill="#DEE2E8" fill-opacity="0.8" xml:space="preserve" style="white-space: pre" font-family="Mulish" font-size="24" letter-spacing="0.025em"><tspan x="48" y="1906.89">Artistas con m&#xe1;s de una </tspan><tspan x="48" y="1939.89">canci&#xf3;n en el r&#xe1;nking.</tspan></text>
<path d="M406 1870.33C406 1848.24 423.909 1830.33 446 1830.33C468.091 1830.33 486 1848.24 486 1870.33C486 1892.43 468.091 1910.33 446 1910.33C423.909 1910.33 406 1892.43 406 1870.33ZM478 1870.33C478 1852.66 463.673 1838.33 446 1838.33C428.327 1838.33 414 1852.66 414 1870.33C414 1888.01 428.327 1902.33 446 1902.33C463.673 1902.33 478 1888.01 478 1870.33Z" fill="#442ABD"/>
<path d="M432.319 1907.92C425.948 1905.6 420.271 1901.7 415.821 1896.59C411.371 1891.47 408.294 1885.31 406.88 1878.68C405.466 1872.05 405.76 1865.17 407.736 1858.68C409.711 1852.19 413.303 1846.32 418.174 1841.6L423.739 1847.35C419.842 1851.12 416.969 1855.82 415.388 1861.01C413.808 1866.2 413.573 1871.7 414.704 1877.01C415.835 1882.31 418.297 1887.24 421.857 1891.34C425.417 1895.43 429.958 1898.55 435.055 1900.4L432.319 1907.92Z" fill="#AAE3E3"/>
<text fill="#DEE2E8" xml:space="preserve" style="white-space: pre" font-family="Mulish" font-size="46" font-weight="900" letter-spacing="0em"><tspan x="502" y="1865.2">32.2%</tspan></text>
<text fill="#DEE2E8" fill-opacity="0.8" xml:space="preserve" style="white-space: pre" font-family="Mulish" font-size="24" letter-spacing="0.025em"><tspan x="502" y="1906.89">de todas los </tspan><tspan x="502" y="1939.89">artistas del 2020</tspan></text>
<defs>
<linearGradient id="paint0_linear_223_7939" x1="375.957" y1="0" x2="375.957" y2="705.376" gradientUnits="userSpaceOnUse">
<stop stop-color="#0B1131"/>
<stop offset="1" stop-color="#334F79"/>
</linearGradient>
<linearGradient id="paint1_linear_223_7939" x1="539.851" y1="461.937" x2="653.063" y2="452.402" gradientUnits="userSpaceOnUse">
<stop stop-color="#E2396F"/>
<stop offset="0.0001" stop-color="#E2396F"/>
<stop offset="1" stop-color="#95326D"/>
<stop offset="1" stop-color="#D23879"/>
</linearGradient>
<linearGradient id="paint2_linear_223_7939" x1="431.798" y1="432.59" x2="545.298" y2="424.942" gradientUnits="userSpaceOnUse">
<stop stop-color="#E2396F"/>
<stop offset="0.0001" stop-color="#E2396F"/>
<stop offset="1" stop-color="#95326D"/>
<stop offset="1" stop-color="#D23879"/>
</linearGradient>
<linearGradient id="paint3_linear_223_7939" x1="320.485" y1="432.302" x2="434.593" y2="424.56" gradientUnits="userSpaceOnUse">
<stop stop-color="#E2396F"/>
<stop offset="0.0001" stop-color="#E2396F"/>
<stop offset="1" stop-color="#95326D"/>
<stop offset="1" stop-color="#D23879"/>
</linearGradient>
<linearGradient id="paint4_linear_223_7939" x1="209.851" y1="432.59" x2="323.35" y2="424.942" gradientUnits="userSpaceOnUse">
<stop stop-color="#E2396F"/>
<stop offset="0.0001" stop-color="#E2396F"/>
<stop offset="1" stop-color="#95326D"/>
<stop offset="1" stop-color="#D23879"/>
</linearGradient>
<linearGradient id="paint5_linear_223_7939" x1="98.8505" y1="404.242" x2="212.507" y2="397.861" gradientUnits="userSpaceOnUse">
<stop stop-color="#E2396F"/>
<stop offset="0.0001" stop-color="#E2396F"/>
<stop offset="1" stop-color="#95326D"/>
<stop offset="1" stop-color="#D23879"/>
</linearGradient>
<linearGradient id="paint6_linear_223_7939" x1="326.3" y1="681.533" x2="368.714" y2="1037.64" gradientUnits="userSpaceOnUse">
<stop stop-color="#C60E50"/>
<stop offset="1" stop-color="#A80B3A"/>
</linearGradient>
<linearGradient id="paint7_linear_223_7939" x1="375.957" y1="1045.38" x2="375.957" y2="1709.33" gradientUnits="userSpaceOnUse">
<stop stop-color="#0B1131"/>
<stop offset="1" stop-color="#334F79"/>
</linearGradient>
<linearGradient id="paint8_linear_223_7939" x1="553" y1="1473.03" x2="645.427" y2="1473.03" gradientUnits="userSpaceOnUse">
<stop stop-color="#3D6DF2"/>
<stop offset="0.0001" stop-color="#3E68E0"/>
<stop offset="0.484375" stop-color="#245EF3"/>
<stop offset="1" stop-color="#3558D3"/>
</linearGradient>
<linearGradient id="paint9_linear_223_7939" x1="445" y1="1473.03" x2="537.427" y2="1473.03" gradientUnits="userSpaceOnUse">
<stop stop-color="#3D6DF2"/>
<stop offset="0.0001" stop-color="#3E68E0"/>
<stop offset="0.484375" stop-color="#245EF3"/>
<stop offset="1" stop-color="#3558D3"/>
</linearGradient>
<linearGradient id="paint10_linear_223_7939" x1="334" y1="1473.03" x2="426.427" y2="1473.03" gradientUnits="userSpaceOnUse">
<stop stop-color="#3D6DF2"/>
<stop offset="0.0001" stop-color="#3E68E0"/>
<stop offset="0.484375" stop-color="#245EF3"/>
<stop offset="1" stop-color="#3558D3"/>
</linearGradient>
<linearGradient id="paint11_linear_223_7939" x1="223" y1="1441.14" x2="315.427" y2="1441.14" gradientUnits="userSpaceOnUse">
<stop stop-color="#3D6DF2"/>
<stop offset="0.0001" stop-color="#3E68E0"/>
<stop offset="0.484375" stop-color="#245EF3"/>
<stop offset="1" stop-color="#3558D3"/>
</linearGradient>
<linearGradient id="paint12_linear_223_7939" x1="112" y1="1405.26" x2="204.427" y2="1405.26" gradientUnits="userSpaceOnUse">
<stop stop-color="#3D6DF2"/>
<stop offset="0.0001" stop-color="#3E68E0"/>
<stop offset="0.484375" stop-color="#245EF3"/>
<stop offset="1" stop-color="#3558D3"/>
</linearGradient>
<linearGradient id="paint13_linear_223_7939" x1="326.3" y1="1685.49" x2="356.363" y2="2028.33" gradientUnits="userSpaceOnUse">
<stop stop-color="#280EC6"/>
<stop offset="1" stop-color="#370C93"/>
</linearGradient>
</defs>
</svg>
