<svg  viewBox="0 0 811 1387" fill="none" xmlns="http://www.w3.org/2000/svg">
<path d="M0 0H806.001C808.762 0 811.001 2.23858 811.001 5V479.184C811.001 481.946 808.762 484.184 806.001 484.184H4.99999C2.23856 484.184 0 481.946 0 479.184V0Z" fill="#1A283D"/>
<path d="M0 0H806.001C808.762 0 811.001 2.23858 811.001 5V479.184C811.001 481.946 808.762 484.184 806.001 484.184H4.99999C2.23856 484.184 0 481.946 0 479.184V0Z" fill="url(#paint0_linear_230_3294)" fill-opacity="0.2"/>
<text fill="#DEE2E8" xml:space="preserve" style="white-space: pre" font-family="Mulish" font-size="24" font-weight="900" letter-spacing="0em"><tspan x="24" y="48.06">Artistas con la mayor cantidad de &#10;</tspan><tspan x="24" y="78.06">canciones, 2010</tspan></text>
<g opacity="0.3">
<path d="M66.8662 325.148L787.001 325.148" stroke="#C57AFF" stroke-opacity="0.15"/>
<path d="M66.8662 401.553L787.001 401.553" stroke="#C57AFF" stroke-opacity="0.15"/>
<path d="M66.8662 249.447L787.001 249.447" stroke="#C57AFF" stroke-opacity="0.15"/>
<path d="M66.8662 173.744L787.001 173.744" stroke="#C57AFF" stroke-opacity="0.15"/>
</g>
<text transform="matrix(1 1.34825e-08 -0.0132944 0.999912 24.127 169.562)" fill="#DEE2E8" xml:space="preserve" style="white-space: pre" font-family="Mulish" font-size="16" font-weight="300" letter-spacing="0.135em"><tspan x="1.30617" y="16.04">6</tspan></text>
<text transform="matrix(1 -3.70238e-10 -0.0157657 0.999876 24.1396 246.367)" fill="#DEE2E8" xml:space="preserve" style="white-space: pre" font-family="Mulish" font-size="16" font-weight="300" letter-spacing="0.135em"><tspan x="1.05396" y="16.04">4</tspan></text>
<text transform="translate(24.001 322.287)" fill="#DEE2E8" xml:space="preserve" style="white-space: pre" font-family="Mulish" font-size="16" font-weight="300" letter-spacing="0.135em"><tspan x="1.30043" y="16.04">2</tspan></text>
<text transform="translate(24.0049 398.641)" fill="#DEE2E8" xml:space="preserve" style="white-space: pre" font-family="Mulish" font-size="16" font-weight="300" letter-spacing="0.135em"><tspan x="1.30043" y="16.04">0</tspan></text>
<text transform="translate(656.487 206)" fill="#DEE2E8" xml:space="preserve" style="white-space: pre" font-family="Mulish" font-size="24" font-weight="900" letter-spacing="0em"><tspan x="0.304688" y="24.06">4</tspan></text>
<path d="M715.814 402.785L612.16 402.785L612.16 252L715.814 252L715.814 402.785Z" fill="url(#paint1_linear_230_3294)"/>
<text transform="translate(593.001 418.785)" fill="#DEE2E8" xml:space="preserve" style="white-space: pre" font-family="Mulish" font-size="16" font-weight="300" letter-spacing="0.135em"><tspan x="15.0889" y="16.04">Taylor Swift  </tspan></text>
<text transform="translate(530.327 167)" fill="#DEE2E8" xml:space="preserve" style="white-space: pre" font-family="Mulish" font-size="24" font-weight="900" letter-spacing="0em"><tspan x="0.304688" y="24.06">5</tspan></text>
<path d="M589.654 401.48L486 401.48L486 213L589.654 213L589.654 401.48Z" fill="url(#paint2_linear_230_3294)"/>
<text transform="translate(490.327 417.48)" fill="#DEE2E8" xml:space="preserve" style="white-space: pre" font-family="Mulish" font-size="16" font-weight="300" letter-spacing="0.135em"><tspan x="9.30719" y="16.04">Rihanna  </tspan></text>
<text transform="translate(403.501 168)" fill="#DEE2E8" xml:space="preserve" style="white-space: pre" font-family="Mulish" font-size="24" font-weight="900" letter-spacing="0em"><tspan x="0.304688" y="24.06">5</tspan></text>
<path d="M463.109 402.184L358.894 402.184L358.894 213.999L463.109 213.999L463.109 402.184Z" fill="url(#paint3_linear_230_3294)"/>
<text transform="translate(340.001 418.184)" fill="#DEE2E8" xml:space="preserve" style="white-space: pre" font-family="Mulish" font-size="16" font-weight="300" letter-spacing="0.135em"><tspan x="0.309685" y="16.04">The Black Eyed </tspan><tspan x="48.6409" y="36.04">Peas  </tspan></text>
<text transform="translate(269.328 168)" fill="#DEE2E8" xml:space="preserve" style="white-space: pre" font-family="Mulish" font-size="24" font-weight="900" letter-spacing="0em"><tspan x="0.304688" y="24.06">5</tspan></text>
<path d="M328.655 402.48L225.001 402.48L225.001 214L328.655 214L328.655 402.48Z" fill="url(#paint4_linear_230_3294)"/>
<text transform="translate(234.855 418.48)" fill="#DEE2E8" xml:space="preserve" style="white-space: pre" font-family="Mulish" font-size="16" font-weight="300" letter-spacing="0.135em"><tspan x="21.074" y="16.04">Katy </tspan><tspan x="17.1893" y="36.04">Perry  </tspan></text>
<text transform="translate(101.819 418.176)" fill="#DEE2E8" xml:space="preserve" style="white-space: pre" font-family="Mulish" font-size="16" font-weight="300" letter-spacing="0.135em"><tspan x="16.2178" y="16.04">Ke$ha  </tspan></text>
<path d="M198.655 402.176L95.001 402.176L95.0009 176.001L198.655 176.001L198.655 402.176Z" fill="url(#paint5_linear_230_3294)"/>
<text transform="translate(139.328 130)" fill="#DEE2E8" xml:space="preserve" style="white-space: pre" font-family="Mulish" font-size="24" font-weight="900" letter-spacing="0em"><tspan x="0.304688" y="24.06">6</tspan></text>
<path d="M0 500.184H806.001C808.762 500.184 811.001 502.422 811.001 505.184V952.184C811.001 954.945 808.762 957.184 806.001 957.184H4.99999C2.23856 957.184 0 954.945 0 952.184V500.184Z" fill="#1A283D"/>
<path d="M0 500.184H806.001C808.762 500.184 811.001 502.422 811.001 505.184V952.184C811.001 954.945 808.762 957.184 806.001 957.184H4.99999C2.23856 957.184 0 954.945 0 952.184V500.184Z" fill="url(#paint6_linear_230_3294)" fill-opacity="0.2"/>
<text fill="#DEE2E8" xml:space="preserve" style="white-space: pre" font-family="Mulish" font-size="24" font-weight="900" letter-spacing="0em"><tspan x="24" y="548.244">Artistas con la mayor cantidad de &#10;</tspan><tspan x="24" y="578.244">canciones, 2010</tspan></text>
<g opacity="0.3">
<path d="M66.8662 801.332L787.001 801.332" stroke="#C57AFF" stroke-opacity="0.15"/>
<path d="M66.8662 877.736L787.001 877.736" stroke="#C57AFF" stroke-opacity="0.15"/>
<path d="M66.8662 725.631L787.001 725.631" stroke="#C57AFF" stroke-opacity="0.15"/>
<path d="M66.8662 649.928L787.001 649.928" stroke="#C57AFF" stroke-opacity="0.15"/>
</g>
<text transform="matrix(1 1.34825e-08 -0.0132944 0.999912 24.127 645.746)" fill="#DEE2E8" xml:space="preserve" style="white-space: pre" font-family="Mulish" font-size="16" font-weight="300" letter-spacing="0.135em"><tspan x="1.30617" y="16.04">6</tspan></text>
<text transform="matrix(1 -3.70238e-10 -0.0157657 0.999876 24.1396 722.551)" fill="#DEE2E8" xml:space="preserve" style="white-space: pre" font-family="Mulish" font-size="16" font-weight="300" letter-spacing="0.135em"><tspan x="1.05396" y="16.04">4</tspan></text>
<text transform="translate(24.001 798.471)" fill="#DEE2E8" xml:space="preserve" style="white-space: pre" font-family="Mulish" font-size="16" font-weight="300" letter-spacing="0.135em"><tspan x="1.30043" y="16.04">2</tspan></text>
<text transform="translate(24.0049 874.824)" fill="#DEE2E8" xml:space="preserve" style="white-space: pre" font-family="Mulish" font-size="16" font-weight="300" letter-spacing="0.135em"><tspan x="1.30043" y="16.04">0</tspan></text>
<text transform="translate(656.487 707.184)" fill="#DEE2E8" xml:space="preserve" style="white-space: pre" font-family="Mulish" font-size="24" font-weight="900" letter-spacing="0em"><tspan x="0.304688" y="24.06">3</tspan></text>
<path d="M715.814 875.184L612.16 875.184L612.16 753.184L715.814 753.184L715.814 875.184Z" fill="url(#paint7_linear_230_3294)"/>
<text transform="translate(593.001 891.184)" fill="#DEE2E8" xml:space="preserve" style="white-space: pre" font-family="Mulish" font-size="16" font-weight="300" letter-spacing="0.135em"><tspan x="45.0726" y="16.04">Drake</tspan></text>
<text transform="translate(530.327 707.184)" fill="#DEE2E8" xml:space="preserve" style="white-space: pre" font-family="Mulish" font-size="24" font-weight="900" letter-spacing="0em"><tspan x="0.304688" y="24.06">3</tspan></text>
<path d="M589.654 875.184L486 875.184L486 753.184L589.654 753.184L589.654 875.184Z" fill="url(#paint8_linear_230_3294)"/>
<text transform="translate(490.327 891.184)" fill="#DEE2E8" xml:space="preserve" style="white-space: pre" font-family="Mulish" font-size="16" font-weight="300" letter-spacing="0.135em"><tspan x="23.9966" y="16.04">Billie </tspan><tspan x="23.3891" y="36.04">Eilish</tspan></text>
<text transform="translate(399 707.184)" fill="#DEE2E8" xml:space="preserve" style="white-space: pre" font-family="Mulish" font-size="24" font-weight="900" letter-spacing="0em"><tspan x="0.304688" y="24.06">3</tspan></text>
<path d="M458.607 875.184L354.392 875.184L354.392 753.184L458.607 753.184L458.607 875.184Z" fill="url(#paint9_linear_230_3294)"/>
<text transform="translate(345 891.184)" fill="#DEE2E8" xml:space="preserve" style="white-space: pre" font-family="Mulish" font-size="16" font-weight="300" letter-spacing="0.135em"><tspan x="30.5273" y="16.04">Ariana </tspan><tspan x="29.1698" y="36.04">Grande</tspan></text>
<text transform="translate(269.328 673.184)" fill="#DEE2E8" xml:space="preserve" style="white-space: pre" font-family="Mulish" font-size="24" font-weight="900" letter-spacing="0em"><tspan x="0.304688" y="24.06">4</tspan></text>
<path d="M328.655 877.184L225.001 877.184L225.001 719.184L328.655 719.184L328.655 877.184Z" fill="url(#paint10_linear_230_3294)"/>
<text transform="translate(234.855 893.184)" fill="#DEE2E8" xml:space="preserve" style="white-space: pre" font-family="Mulish" font-size="16" font-weight="300" letter-spacing="0.135em"><tspan x="13.3046" y="16.04">Taylor </tspan><tspan x="18.9412" y="36.04">Swift</tspan></text>
<text transform="translate(101.819 890.184)" fill="#DEE2E8" xml:space="preserve" style="white-space: pre" font-family="Mulish" font-size="16" font-weight="300" letter-spacing="0.135em"><tspan x="22.4522" y="16.04">Juice </tspan><tspan x="17.1747" y="36.04">WRLD</tspan></text>
<path d="M198.655 874.184L95.001 874.184L95.0009 676.184L198.655 676.184L198.655 874.184Z" fill="url(#paint11_linear_230_3294)"/>
<text transform="translate(139.328 630.184)" fill="#DEE2E8" xml:space="preserve" style="white-space: pre" font-family="Mulish" font-size="24" font-weight="900" letter-spacing="0em"><tspan x="0.304688" y="24.06">5</tspan></text>
<rect y="981.184" width="404.022" height="405" rx="5" fill="url(#paint12_linear_230_3294)" style="mix-blend-mode:lighten"/>
<text fill="#DEE2E8" xml:space="preserve" style="white-space: pre" font-family="Mulish" font-size="48" font-weight="900" letter-spacing="0em"><tspan x="48" y="1090.3">18</tspan></text>
<text fill="#DEE2E8" fill-opacity="0.8" xml:space="preserve" style="white-space: pre" font-family="Mulish" font-size="24" letter-spacing="0.025em"><tspan x="48" y="1131.74">Artistas con m&#xe1;s de una </tspan><tspan x="48" y="1164.74">canci&#xf3;n en el r&#xe1;nking.</tspan></text>
<text fill="#FFBEA2" xml:space="preserve" style="white-space: pre" font-family="Mulish" font-size="24" font-weight="800" letter-spacing="0.025em"><tspan x="48" y="1030.74">2010</tspan></text>
<path d="M48 1262.68C48 1239.21 67.0279 1220.18 90.5 1220.18C113.972 1220.18 133 1239.21 133 1262.68C133 1286.16 113.972 1305.18 90.5 1305.18C67.0279 1305.18 48 1286.16 48 1262.68ZM124.5 1262.68C124.5 1243.91 109.278 1228.68 90.5 1228.68C71.7223 1228.68 56.5 1243.91 56.5 1262.68C56.5 1281.46 71.7223 1296.68 90.5 1296.68C109.278 1296.68 124.5 1281.46 124.5 1262.68Z" fill="#D94165"/>
<path d="M75.9642 1302.62C67.7231 1299.62 60.6118 1294.15 55.6054 1286.95C50.599 1279.74 47.9428 1271.17 48.0009 1262.4C48.0591 1253.63 50.8288 1245.09 55.9303 1237.96C61.0317 1230.83 68.215 1225.45 76.4951 1222.56L79.2961 1230.58C72.672 1232.89 66.9254 1237.2 62.8442 1242.91C58.7631 1248.61 56.5473 1255.44 56.5008 1262.46C56.4542 1269.47 58.5792 1276.33 62.5843 1282.09C66.5894 1287.85 72.2785 1292.23 78.8713 1294.63L75.9642 1302.62Z" fill="#FFB3F3"/>
<text fill="#DEE2E8" xml:space="preserve" style="white-space: pre" font-family="Mulish" font-size="48" font-weight="900" letter-spacing="0em"><tspan x="157" y="1256.3">39.1%</tspan></text>
<text fill="#DEE2E8" fill-opacity="0.8" xml:space="preserve" style="white-space: pre" font-family="Mulish" font-size="24" letter-spacing="0.025em"><tspan x="157" y="1297.74">de todas los </tspan><tspan x="157" y="1330.74">artistas del 2010</tspan></text>
<rect x="419.789" y="981.184" width="391.211" height="405" rx="5" fill="url(#paint13_linear_230_3294)" style="mix-blend-mode:lighten"/>
<text fill="#DEE2E8" xml:space="preserve" style="white-space: pre" font-family="Mulish" font-size="48" font-weight="900" letter-spacing="0em"><tspan x="467.789" y="1090.3">19</tspan></text>
<text fill="#DEE2E8" fill-opacity="0.8" xml:space="preserve" style="white-space: pre" font-family="Mulish" font-size="24" letter-spacing="0.025em"><tspan x="467.789" y="1131.74">Artistas con m&#xe1;s de una </tspan><tspan x="467.789" y="1164.74">canci&#xf3;n en el r&#xe1;nking.</tspan></text>
<text fill="#69BCF9" xml:space="preserve" style="white-space: pre" font-family="Mulish" font-size="24" font-weight="800" letter-spacing="0.025em"><tspan x="467.789" y="1030.74">2020</tspan></text>
<path d="M467.789 1262.68C467.789 1239.21 486.817 1220.18 510.289 1220.18C533.761 1220.18 552.789 1239.21 552.789 1262.68C552.789 1286.16 533.761 1305.18 510.289 1305.18C486.817 1305.18 467.789 1286.16 467.789 1262.68ZM544.289 1262.68C544.289 1243.91 529.067 1228.68 510.289 1228.68C491.511 1228.68 476.289 1243.91 476.289 1262.68C476.289 1281.46 491.511 1296.68 510.289 1296.68C529.067 1296.68 544.289 1281.46 544.289 1262.68Z" fill="#442ABD"/>
<path d="M495.753 1302.62C488.984 1300.16 482.952 1296.01 478.224 1290.58C473.496 1285.14 470.227 1278.59 468.724 1271.55C467.221 1264.5 467.534 1257.19 469.633 1250.3C471.732 1243.41 475.548 1237.16 480.723 1232.15L486.637 1238.26C482.497 1242.27 479.444 1247.26 477.764 1252.78C476.085 1258.29 475.835 1264.14 477.037 1269.78C478.239 1275.41 480.854 1280.65 484.637 1285C488.419 1289.35 493.245 1292.66 498.66 1294.63L495.753 1302.62Z" fill="#AAE3E3"/>
<text fill="#DEE2E8" xml:space="preserve" style="white-space: pre" font-family="Mulish" font-size="48" font-weight="900" letter-spacing="0em"><tspan x="563.789" y="1256.3">32.2%</tspan></text>
<text fill="#DEE2E8" fill-opacity="0.8" xml:space="preserve" style="white-space: pre" font-family="Mulish" font-size="24" letter-spacing="0.025em"><tspan x="563.789" y="1297.74">de todas los </tspan><tspan x="563.789" y="1330.74">artistas del 2020</tspan></text>
<defs>
<linearGradient id="paint0_linear_230_3294" x1="405.5" y1="0" x2="405.5" y2="484.184" gradientUnits="userSpaceOnUse">
<stop stop-color="#0B1131"/>
<stop offset="1" stop-color="#334F79"/>
</linearGradient>
<linearGradient id="paint1_linear_230_3294" x1="596.864" y1="337.445" x2="725.849" y2="315.761" gradientUnits="userSpaceOnUse">
<stop stop-color="#E2396F"/>
<stop offset="0.0001" stop-color="#E2396F"/>
<stop offset="1" stop-color="#95326D"/>
<stop offset="1" stop-color="#D23879"/>
</linearGradient>
<linearGradient id="paint2_linear_230_3294" x1="470.704" y1="319.806" x2="600.977" y2="302.285" gradientUnits="userSpaceOnUse">
<stop stop-color="#E2396F"/>
<stop offset="0.0001" stop-color="#E2396F"/>
<stop offset="1" stop-color="#95326D"/>
<stop offset="1" stop-color="#D23879"/>
</linearGradient>
<linearGradient id="paint3_linear_230_3294" x1="343.514" y1="320.637" x2="474.461" y2="302.903" gradientUnits="userSpaceOnUse">
<stop stop-color="#E2396F"/>
<stop offset="0.0001" stop-color="#E2396F"/>
<stop offset="1" stop-color="#95326D"/>
<stop offset="1" stop-color="#D23879"/>
</linearGradient>
<linearGradient id="paint4_linear_230_3294" x1="209.705" y1="320.806" x2="339.978" y2="303.285" gradientUnits="userSpaceOnUse">
<stop stop-color="#E2396F"/>
<stop offset="0.0001" stop-color="#E2396F"/>
<stop offset="1" stop-color="#95326D"/>
<stop offset="1" stop-color="#D23879"/>
</linearGradient>
<linearGradient id="paint5_linear_230_3294" x1="79.7046" y1="304.167" x2="210.689" y2="289.486" gradientUnits="userSpaceOnUse">
<stop stop-color="#E2396F"/>
<stop offset="0.0001" stop-color="#E2396F"/>
<stop offset="1" stop-color="#95326D"/>
<stop offset="1" stop-color="#D23879"/>
</linearGradient>
<linearGradient id="paint6_linear_230_3294" x1="405.5" y1="500.184" x2="405.5" y2="957.184" gradientUnits="userSpaceOnUse">
<stop stop-color="#0B1131"/>
<stop offset="1" stop-color="#334F79"/>
</linearGradient>
<linearGradient id="paint7_linear_230_3294" x1="612.16" y1="812.543" x2="719.805" y2="812.543" gradientUnits="userSpaceOnUse">
<stop stop-color="#3D6DF2"/>
<stop offset="0.0001" stop-color="#3E68E0"/>
<stop offset="0.484375" stop-color="#245EF3"/>
<stop offset="1" stop-color="#3558D3"/>
</linearGradient>
<linearGradient id="paint8_linear_230_3294" x1="486" y1="812.543" x2="593.645" y2="812.543" gradientUnits="userSpaceOnUse">
<stop stop-color="#3D6DF2"/>
<stop offset="0.0001" stop-color="#3E68E0"/>
<stop offset="0.484375" stop-color="#245EF3"/>
<stop offset="1" stop-color="#3558D3"/>
</linearGradient>
<linearGradient id="paint9_linear_230_3294" x1="354.392" y1="812.543" x2="462.619" y2="812.543" gradientUnits="userSpaceOnUse">
<stop stop-color="#3D6DF2"/>
<stop offset="0.0001" stop-color="#3E68E0"/>
<stop offset="0.484375" stop-color="#245EF3"/>
<stop offset="1" stop-color="#3558D3"/>
</linearGradient>
<linearGradient id="paint10_linear_230_3294" x1="225.001" y1="796.059" x2="332.646" y2="796.059" gradientUnits="userSpaceOnUse">
<stop stop-color="#3D6DF2"/>
<stop offset="0.0001" stop-color="#3E68E0"/>
<stop offset="0.484375" stop-color="#245EF3"/>
<stop offset="1" stop-color="#3558D3"/>
</linearGradient>
<linearGradient id="paint11_linear_230_3294" x1="95.001" y1="772.521" x2="202.646" y2="772.521" gradientUnits="userSpaceOnUse">
<stop stop-color="#3D6DF2"/>
<stop offset="0.0001" stop-color="#3E68E0"/>
<stop offset="0.484375" stop-color="#245EF3"/>
<stop offset="1" stop-color="#3558D3"/>
</linearGradient>
<linearGradient id="paint12_linear_230_3294" x1="175.076" y1="921.417" x2="337.456" y2="1409.09" gradientUnits="userSpaceOnUse">
<stop stop-color="#C60E50"/>
<stop offset="1" stop-color="#A80B3A"/>
</linearGradient>
<linearGradient id="paint13_linear_230_3294" x1="589.314" y1="921.417" x2="712.61" y2="1408.42" gradientUnits="userSpaceOnUse">
<stop stop-color="#280EC6"/>
<stop offset="1" stop-color="#370C93"/>
</linearGradient>
</defs>
</svg>
