<svg  viewBox="0 0 788 1538" fill="none" xmlns="http://www.w3.org/2000/svg">
<path d="M0 0H783C785.762 0 788 2.23858 788 5V479.183C788 481.945 785.762 484.183 783 484.183H4.99998C2.23856 484.183 0 481.945 0 479.183V0Z" fill="#1A283D"/>
<path d="M0 0H783C785.762 0 788 2.23858 788 5V479.183C788 481.945 785.762 484.183 783 484.183H4.99998C2.23856 484.183 0 481.945 0 479.183V0Z" fill="url(#paint0_linear_234_6857)" fill-opacity="0.2"/>
<text fill="#DEE2E8" xml:space="preserve" style="white-space: pre" font-family="Mulish" font-size="24" font-weight="900" letter-spacing="0em"><tspan x="24" y="48.06">Artistas con la mayor cantidad de &#10;</tspan><tspan x="24" y="78.06">canciones, 2010</tspan></text>
<g opacity="0.3">
<path d="M65.5742 325.148L764 325.148" stroke="#C57AFF" stroke-opacity="0.15"/>
<path d="M65.5742 401.553L764 401.553" stroke="#C57AFF" stroke-opacity="0.15"/>
<path d="M65.5742 249.447L764 249.447" stroke="#C57AFF" stroke-opacity="0.15"/>
<path d="M65.5742 173.744L764 173.744" stroke="#C57AFF" stroke-opacity="0.15"/>
</g>
<text transform="matrix(1 1.39422e-08 -0.0128562 0.999917 24.123 169.562)" fill="#DEE2E8" xml:space="preserve" style="white-space: pre" font-family="Mulish" font-size="16" font-weight="300" letter-spacing="0.135em"><tspan x="1.12219" y="16.04">6</tspan></text>
<text transform="matrix(1 -3.64295e-10 -0.015246 0.999884 24.1348 246.363)" fill="#DEE2E8" xml:space="preserve" style="white-space: pre" font-family="Mulish" font-size="16" font-weight="300" letter-spacing="0.135em"><tspan x="0.877582" y="16.04">4</tspan></text>
<text transform="translate(24.001 322.285)" fill="#DEE2E8" xml:space="preserve" style="white-space: pre" font-family="Mulish" font-size="16" font-weight="300" letter-spacing="0.135em"><tspan x="1.11663" y="16.04">2</tspan></text>
<text transform="translate(24.0039 398.639)" fill="#DEE2E8" xml:space="preserve" style="white-space: pre" font-family="Mulish" font-size="16" font-weight="300" letter-spacing="0.135em"><tspan x="1.11663" y="16.04">0</tspan></text>
<text transform="translate(639.335 206)" fill="#DEE2E8" xml:space="preserve" style="white-space: pre" font-family="Mulish" font-size="24" font-weight="900" letter-spacing="0em"><tspan x="0.304688" y="24.06">4</tspan></text>
<path d="M696.835 402.785L596.835 402.785L596.835 252L696.835 252L696.835 402.785Z" fill="url(#paint1_linear_234_6857)"/>
<text transform="translate(575.849 418.785)" fill="#DEE2E8" xml:space="preserve" style="white-space: pre" font-family="Mulish" font-size="16" font-weight="300" letter-spacing="0.135em"><tspan x="15.0889" y="16.04">Taylor Swift  </tspan></text>
<text transform="translate(514.838 167)" fill="#DEE2E8" xml:space="preserve" style="white-space: pre" font-family="Mulish" font-size="24" font-weight="900" letter-spacing="0em"><tspan x="0.304688" y="24.06">5</tspan></text>
<path d="M572.338 401.48L472.338 401.48L472.338 213L572.338 213L572.338 401.48Z" fill="url(#paint2_linear_234_6857)"/>
<text transform="translate(474.838 417.48)" fill="#DEE2E8" xml:space="preserve" style="white-space: pre" font-family="Mulish" font-size="16" font-weight="300" letter-spacing="0.135em"><tspan x="9.30719" y="16.04">Rihanna  </tspan></text>
<text transform="translate(391.834 168)" fill="#DEE2E8" xml:space="preserve" style="white-space: pre" font-family="Mulish" font-size="24" font-weight="900" letter-spacing="0em"><tspan x="0.304688" y="24.06">5</tspan></text>
<path d="M449.334 402.184L349.334 402.184L349.334 213.999L449.334 213.999L449.334 402.184Z" fill="url(#paint3_linear_234_6857)"/>
<text transform="translate(328.334 418.184)" fill="#DEE2E8" xml:space="preserve" style="white-space: pre" font-family="Mulish" font-size="16" font-weight="300" letter-spacing="0.135em"><tspan x="0.309685" y="16.04">The Black Eyed </tspan><tspan x="48.6409" y="36.04">Peas  </tspan></text>
<text transform="translate(261.706 168)" fill="#DEE2E8" xml:space="preserve" style="white-space: pre" font-family="Mulish" font-size="24" font-weight="900" letter-spacing="0em"><tspan x="0.304688" y="24.06">5</tspan></text>
<path d="M319.206 402.48L219.206 402.48L219.206 214L319.206 214L319.206 402.48Z" fill="url(#paint4_linear_234_6857)"/>
<text transform="translate(227.233 418.48)" fill="#DEE2E8" xml:space="preserve" style="white-space: pre" font-family="Mulish" font-size="16" font-weight="300" letter-spacing="0.135em"><tspan x="21.074" y="16.04">Katy </tspan><tspan x="17.1893" y="36.04">Perry  </tspan></text>
<text transform="translate(98.1162 418.176)" fill="#DEE2E8" xml:space="preserve" style="white-space: pre" font-family="Mulish" font-size="16" font-weight="300" letter-spacing="0.135em"><tspan x="16.2178" y="16.04">Ke$ha  </tspan></text>
<path d="M193.125 402.176L93.125 402.176L93.125 176.001L193.125 176.001L193.125 402.176Z" fill="url(#paint5_linear_234_6857)"/>
<text transform="translate(135.625 130)" fill="#DEE2E8" xml:space="preserve" style="white-space: pre" font-family="Mulish" font-size="24" font-weight="900" letter-spacing="0em"><tspan x="0.304688" y="24.06">6</tspan></text>
<rect y="500.184" width="788" height="270" rx="5" fill="url(#paint6_linear_234_6857)" style="mix-blend-mode:lighten"/>
<text fill="#FFBEA2" xml:space="preserve" style="white-space: pre" font-family="Mulish" font-size="24" font-weight="800" letter-spacing="0.025em"><tspan x="48" y="549.744">2010</tspan></text>
<text fill="#DEE2E8" xml:space="preserve" style="white-space: pre" font-family="Mulish" font-size="46" font-weight="900" letter-spacing="0em"><tspan x="48" y="640.049">18</tspan></text>
<text fill="#DEE2E8" fill-opacity="0.8" xml:space="preserve" style="white-space: pre" font-family="Mulish" font-size="24" letter-spacing="0.025em"><tspan x="48" y="681.744">Artistas con m&#xe1;s de una </tspan><tspan x="48" y="714.744">canci&#xf3;n en el r&#xe1;nking.</tspan></text>
<path d="M414.538 645.184C414.538 623.092 432.447 605.184 454.538 605.184C476.629 605.184 494.538 623.092 494.538 645.184C494.538 667.275 476.629 685.184 454.538 685.184C432.447 685.184 414.538 667.275 414.538 645.184ZM486.538 645.184C486.538 627.51 472.211 613.184 454.538 613.184C436.865 613.184 422.538 627.51 422.538 645.184C422.538 662.857 436.865 677.184 454.538 677.184C472.211 677.184 486.538 662.857 486.538 645.184Z" fill="#D94165"/>
<path d="M440.857 682.771C433.101 679.948 426.408 674.795 421.696 668.018C416.984 661.241 414.484 653.172 414.539 644.918C414.594 636.664 417.201 628.63 422.002 621.916C426.803 615.202 433.564 610.138 441.357 607.418L443.993 614.971C437.759 617.147 432.35 621.198 428.509 626.569C424.668 631.94 422.583 638.368 422.539 644.971C422.495 651.574 424.495 658.029 428.265 663.451C432.034 668.873 437.388 672.995 443.593 675.254L440.857 682.771Z" fill="#FFB3F3"/>
<text fill="#DEE2E8" xml:space="preserve" style="white-space: pre" font-family="Mulish" font-size="46" font-weight="900" letter-spacing="0em"><tspan x="518.538" y="640.049">39.1%</tspan></text>
<text fill="#DEE2E8" fill-opacity="0.8" xml:space="preserve" style="white-space: pre" font-family="Mulish" font-size="24" letter-spacing="0.025em"><tspan x="518.538" y="681.744">de todas los </tspan><tspan x="518.538" y="714.744">artistas del 2010</tspan></text>
<path d="M0 794.184H783C785.761 794.184 788 796.422 788 799.184V1246.18C788 1248.95 785.761 1251.18 783 1251.18H4.99998C2.23856 1251.18 0 1248.95 0 1246.18V794.184Z" fill="#1A283D"/>
<path d="M0 794.184H783C785.761 794.184 788 796.422 788 799.184V1246.18C788 1248.95 785.761 1251.18 783 1251.18H4.99998C2.23856 1251.18 0 1248.95 0 1246.18V794.184Z" fill="url(#paint7_linear_234_6857)" fill-opacity="0.2"/>
<text fill="#DEE2E8" xml:space="preserve" style="white-space: pre" font-family="Mulish" font-size="24" font-weight="900" letter-spacing="0em"><tspan x="24" y="842.244">Artistas con la mayor cantidad de &#10;</tspan><tspan x="24" y="872.244">canciones, 2010</tspan></text>
<g opacity="0.3">
<path d="M65.5732 1095.33L764 1095.33" stroke="#C57AFF" stroke-opacity="0.15"/>
<path d="M65.5732 1171.74L764 1171.74" stroke="#C57AFF" stroke-opacity="0.15"/>
<path d="M65.5732 1019.63L764 1019.63" stroke="#C57AFF" stroke-opacity="0.15"/>
<path d="M65.5732 943.928L764 943.928" stroke="#C57AFF" stroke-opacity="0.15"/>
</g>
<text transform="matrix(1 1.39016e-08 -0.0128937 0.999917 24.123 939.746)" fill="#DEE2E8" xml:space="preserve" style="white-space: pre" font-family="Mulish" font-size="16" font-weight="300" letter-spacing="0.135em"><tspan x="1.12219" y="16.04">6</tspan></text>
<text transform="matrix(1 -3.81746e-10 -0.0152905 0.999883 24.1348 1016.55)" fill="#DEE2E8" xml:space="preserve" style="white-space: pre" font-family="Mulish" font-size="16" font-weight="300" letter-spacing="0.135em"><tspan x="0.877584" y="16.04">4</tspan></text>
<text transform="translate(24 1092.47)" fill="#DEE2E8" xml:space="preserve" style="white-space: pre" font-family="Mulish" font-size="16" font-weight="300" letter-spacing="0.135em"><tspan x="1.11663" y="16.04">2</tspan></text>
<text transform="translate(24.0039 1168.82)" fill="#DEE2E8" xml:space="preserve" style="white-space: pre" font-family="Mulish" font-size="16" font-weight="300" letter-spacing="0.135em"><tspan x="1.11663" y="16.04">0</tspan></text>
<text transform="translate(639.334 1001.18)" fill="#DEE2E8" xml:space="preserve" style="white-space: pre" font-family="Mulish" font-size="24" font-weight="900" letter-spacing="0em"><tspan x="0.304688" y="24.06">3</tspan></text>
<path d="M696.834 1169.18L596.834 1169.18L596.834 1047.18L696.834 1047.18L696.834 1169.18Z" fill="url(#paint8_linear_234_6857)"/>
<text transform="translate(575.848 1185.18)" fill="#DEE2E8" xml:space="preserve" style="white-space: pre" font-family="Mulish" font-size="16" font-weight="300" letter-spacing="0.135em"><tspan x="45.0726" y="16.04">Drake</tspan></text>
<text transform="translate(514.837 1001.18)" fill="#DEE2E8" xml:space="preserve" style="white-space: pre" font-family="Mulish" font-size="24" font-weight="900" letter-spacing="0em"><tspan x="0.304688" y="24.06">3</tspan></text>
<path d="M572.337 1169.18L472.337 1169.18L472.337 1047.18L572.337 1047.18L572.337 1169.18Z" fill="url(#paint9_linear_234_6857)"/>
<text transform="translate(474.837 1185.18)" fill="#DEE2E8" xml:space="preserve" style="white-space: pre" font-family="Mulish" font-size="16" font-weight="300" letter-spacing="0.135em"><tspan x="23.9966" y="16.04">Billie </tspan><tspan x="23.3891" y="36.04">Eilish</tspan></text>
<text transform="translate(387.469 1001.18)" fill="#DEE2E8" xml:space="preserve" style="white-space: pre" font-family="Mulish" font-size="24" font-weight="900" letter-spacing="0em"><tspan x="0.304688" y="24.06">3</tspan></text>
<path d="M444.969 1169.18L344.969 1169.18L344.969 1047.18L444.969 1047.18L444.969 1169.18Z" fill="url(#paint10_linear_234_6857)"/>
<text transform="translate(333.47 1185.18)" fill="#DEE2E8" xml:space="preserve" style="white-space: pre" font-family="Mulish" font-size="16" font-weight="300" letter-spacing="0.135em"><tspan x="30.5273" y="16.04">Ariana </tspan><tspan x="29.1698" y="36.04">Grande</tspan></text>
<text transform="translate(261.706 967.184)" fill="#DEE2E8" xml:space="preserve" style="white-space: pre" font-family="Mulish" font-size="24" font-weight="900" letter-spacing="0em"><tspan x="0.304688" y="24.06">4</tspan></text>
<path d="M319.206 1171.18L219.206 1171.18L219.206 1013.18L319.206 1013.18L319.206 1171.18Z" fill="url(#paint11_linear_234_6857)"/>
<text transform="translate(227.233 1187.18)" fill="#DEE2E8" xml:space="preserve" style="white-space: pre" font-family="Mulish" font-size="16" font-weight="300" letter-spacing="0.135em"><tspan x="13.3046" y="16.04">Taylor </tspan><tspan x="18.9412" y="36.04">Swift</tspan></text>
<text transform="translate(97.8516 1184.18)" fill="#DEE2E8" xml:space="preserve" style="white-space: pre" font-family="Mulish" font-size="16" font-weight="300" letter-spacing="0.135em"><tspan x="22.4522" y="16.04">Juice </tspan><tspan x="17.1747" y="36.04">WRLD</tspan></text>
<path d="M192.86 1168.18L92.8604 1168.18L92.8603 970.184L192.86 970.184L192.86 1168.18Z" fill="url(#paint12_linear_234_6857)"/>
<text transform="translate(135.36 924.184)" fill="#DEE2E8" xml:space="preserve" style="white-space: pre" font-family="Mulish" font-size="24" font-weight="900" letter-spacing="0em"><tspan x="0.304688" y="24.06">5</tspan></text>
<rect y="1267.18" width="788" height="270" rx="5" fill="url(#paint13_linear_234_6857)" style="mix-blend-mode:lighten"/>
<text fill="#69BCF9" xml:space="preserve" style="white-space: pre" font-family="Mulish" font-size="24" font-weight="800" letter-spacing="0.025em"><tspan x="48" y="1316.74">2020</tspan></text>
<text fill="#DEE2E8" xml:space="preserve" style="white-space: pre" font-family="Mulish" font-size="46" font-weight="900" letter-spacing="0em"><tspan x="48" y="1407.05">19</tspan></text>
<text fill="#DEE2E8" fill-opacity="0.8" xml:space="preserve" style="white-space: pre" font-family="Mulish" font-size="24" letter-spacing="0.025em"><tspan x="48" y="1448.74">Artistas con m&#xe1;s de una </tspan><tspan x="48" y="1481.74">canci&#xf3;n en el r&#xe1;nking.</tspan></text>
<path d="M441 1412.18C441 1390.09 458.909 1372.18 481 1372.18C503.091 1372.18 521 1390.09 521 1412.18C521 1434.27 503.091 1452.18 481 1452.18C458.909 1452.18 441 1434.27 441 1412.18ZM513 1412.18C513 1394.51 498.673 1380.18 481 1380.18C463.327 1380.18 449 1394.51 449 1412.18C449 1429.86 463.327 1444.18 481 1444.18C498.673 1444.18 513 1429.86 513 1412.18Z" fill="#442ABD"/>
<path d="M467.319 1449.77C460.948 1447.45 455.271 1443.55 450.821 1438.44C446.371 1433.32 443.294 1427.16 441.88 1420.53C440.466 1413.9 440.76 1407.01 442.736 1400.53C444.711 1394.04 448.303 1388.17 453.174 1383.45L458.739 1389.2C454.842 1392.97 451.969 1397.67 450.388 1402.86C448.808 1408.05 448.573 1413.55 449.704 1418.86C450.835 1424.16 453.297 1429.09 456.857 1433.19C460.417 1437.28 464.958 1440.4 470.055 1442.25L467.319 1449.77Z" fill="#AAE3E3"/>
<text fill="#DEE2E8" xml:space="preserve" style="white-space: pre" font-family="Mulish" font-size="46" font-weight="900" letter-spacing="0em"><tspan x="537" y="1407.05">32.2%</tspan></text>
<text fill="#DEE2E8" fill-opacity="0.8" xml:space="preserve" style="white-space: pre" font-family="Mulish" font-size="24" letter-spacing="0.025em"><tspan x="537" y="1448.74">de todas los </tspan><tspan x="537" y="1481.74">artistas del 2020</tspan></text>
<defs>
<linearGradient id="paint0_linear_234_6857" x1="394" y1="0" x2="394" y2="484.183" gradientUnits="userSpaceOnUse">
<stop stop-color="#0B1131"/>
<stop offset="1" stop-color="#334F79"/>
</linearGradient>
<linearGradient id="paint1_linear_234_6857" x1="582.078" y1="337.445" x2="706.753" y2="317.224" gradientUnits="userSpaceOnUse">
<stop stop-color="#E2396F"/>
<stop offset="0.0001" stop-color="#E2396F"/>
<stop offset="1" stop-color="#95326D"/>
<stop offset="1" stop-color="#D23879"/>
</linearGradient>
<linearGradient id="paint2_linear_234_6857" x1="457.581" y1="319.806" x2="583.417" y2="303.478" gradientUnits="userSpaceOnUse">
<stop stop-color="#E2396F"/>
<stop offset="0.0001" stop-color="#E2396F"/>
<stop offset="1" stop-color="#95326D"/>
<stop offset="1" stop-color="#D23879"/>
</linearGradient>
<linearGradient id="paint3_linear_234_6857" x1="334.577" y1="320.637" x2="460.407" y2="304.285" gradientUnits="userSpaceOnUse">
<stop stop-color="#E2396F"/>
<stop offset="0.0001" stop-color="#E2396F"/>
<stop offset="1" stop-color="#95326D"/>
<stop offset="1" stop-color="#D23879"/>
</linearGradient>
<linearGradient id="paint4_linear_234_6857" x1="204.449" y1="320.806" x2="330.285" y2="304.478" gradientUnits="userSpaceOnUse">
<stop stop-color="#E2396F"/>
<stop offset="0.0001" stop-color="#E2396F"/>
<stop offset="1" stop-color="#95326D"/>
<stop offset="1" stop-color="#D23879"/>
</linearGradient>
<linearGradient id="paint5_linear_234_6857" x1="78.3679" y1="304.167" x2="204.844" y2="290.491" gradientUnits="userSpaceOnUse">
<stop stop-color="#E2396F"/>
<stop offset="0.0001" stop-color="#E2396F"/>
<stop offset="1" stop-color="#95326D"/>
<stop offset="1" stop-color="#D23879"/>
</linearGradient>
<linearGradient id="paint6_linear_234_6857" x1="341.466" y1="460.339" x2="382.046" y2="816.88" gradientUnits="userSpaceOnUse">
<stop stop-color="#C60E50"/>
<stop offset="1" stop-color="#A80B3A"/>
</linearGradient>
<linearGradient id="paint7_linear_234_6857" x1="394" y1="794.184" x2="394" y2="1251.18" gradientUnits="userSpaceOnUse">
<stop stop-color="#0B1131"/>
<stop offset="1" stop-color="#334F79"/>
</linearGradient>
<linearGradient id="paint8_linear_234_6857" x1="596.834" y1="1106.54" x2="700.684" y2="1106.54" gradientUnits="userSpaceOnUse">
<stop stop-color="#3D6DF2"/>
<stop offset="0.0001" stop-color="#3E68E0"/>
<stop offset="0.484375" stop-color="#245EF3"/>
<stop offset="1" stop-color="#3558D3"/>
</linearGradient>
<linearGradient id="paint9_linear_234_6857" x1="472.337" y1="1106.54" x2="576.187" y2="1106.54" gradientUnits="userSpaceOnUse">
<stop stop-color="#3D6DF2"/>
<stop offset="0.0001" stop-color="#3E68E0"/>
<stop offset="0.484375" stop-color="#245EF3"/>
<stop offset="1" stop-color="#3558D3"/>
</linearGradient>
<linearGradient id="paint10_linear_234_6857" x1="344.969" y1="1106.54" x2="448.819" y2="1106.54" gradientUnits="userSpaceOnUse">
<stop stop-color="#3D6DF2"/>
<stop offset="0.0001" stop-color="#3E68E0"/>
<stop offset="0.484375" stop-color="#245EF3"/>
<stop offset="1" stop-color="#3558D3"/>
</linearGradient>
<linearGradient id="paint11_linear_234_6857" x1="219.206" y1="1090.06" x2="323.056" y2="1090.06" gradientUnits="userSpaceOnUse">
<stop stop-color="#3D6DF2"/>
<stop offset="0.0001" stop-color="#3E68E0"/>
<stop offset="0.484375" stop-color="#245EF3"/>
<stop offset="1" stop-color="#3558D3"/>
</linearGradient>
<linearGradient id="paint12_linear_234_6857" x1="92.8603" y1="1066.52" x2="196.711" y2="1066.52" gradientUnits="userSpaceOnUse">
<stop stop-color="#3D6DF2"/>
<stop offset="0.0001" stop-color="#3E68E0"/>
<stop offset="0.484375" stop-color="#245EF3"/>
<stop offset="1" stop-color="#3558D3"/>
</linearGradient>
<linearGradient id="paint13_linear_234_6857" x1="341.467" y1="1227.34" x2="370.214" y2="1570.41" gradientUnits="userSpaceOnUse">
<stop stop-color="#280EC6"/>
<stop offset="1" stop-color="#370C93"/>
</linearGradient>
</defs>
</svg>
