<svg viewBox="0 0 686 994" fill="none" xmlns="http://www.w3.org/2000/svg">
<g filter="url(#filter0_d_264_3001)">
<path d="M68.3876 108.502L375.078 17.1547C406.379 7.83158 439.313 25.6489 448.636 56.9503L668.788 796.094C678.111 827.395 660.294 860.328 628.992 869.651L322.302 960.998C291.001 970.322 258.067 952.504 248.744 921.203L28.592 182.059C19.2689 150.758 37.0862 117.825 68.3876 108.502Z" fill="#E6D3D3"/>
<path d="M68.3876 108.502L375.078 17.1547C406.379 7.83158 439.313 25.6489 448.636 56.9503L668.788 796.094C678.111 827.395 660.294 860.328 628.992 869.651L322.302 960.998C291.001 970.322 258.067 952.504 248.744 921.203L28.592 182.059C19.2689 150.758 37.0862 117.825 68.3876 108.502Z" fill="url(#paint0_linear_264_3001)" fill-opacity="0.2"/>
<path d="M68.3876 108.502L375.078 17.1547C406.379 7.83158 439.313 25.6489 448.636 56.9503L668.788 796.094C678.111 827.395 660.294 860.328 628.992 869.651L322.302 960.998C291.001 970.322 258.067 952.504 248.744 921.203L28.592 182.059C19.2689 150.758 37.0862 117.825 68.3876 108.502Z" fill="url(#paint1_linear_264_3001)" fill-opacity="0.4"/>
<path d="M385.893 27.9787L65.2563 123.48C41.0936 130.677 27.34 156.098 34.5368 180.261L247.98 896.879C255.177 921.042 280.599 934.795 304.761 927.598L625.398 832.097C649.561 824.901 663.314 799.479 656.118 775.316L442.674 58.6982C435.478 34.5355 410.056 20.7819 385.893 27.9787Z" fill="#020213"/>
<path d="M385.893 27.9787L65.2563 123.48C41.0936 130.677 27.34 156.098 34.5368 180.261L247.98 896.879C255.177 921.042 280.599 934.795 304.761 927.598L625.398 832.097C649.561 824.901 663.314 799.479 656.118 775.316L442.674 58.6982C435.478 34.5355 410.056 20.7819 385.893 27.9787Z" fill="url(#paint2_linear_264_3001)" fill-opacity="0.2"/>
<path d="M379.705 54.4005L86.6304 141.692C59.1728 149.87 43.5438 178.759 51.722 206.216L250.231 872.694C258.409 900.152 287.298 915.781 314.755 907.603L607.83 820.311C635.287 812.133 650.916 783.245 642.738 755.787L444.229 89.309C436.051 61.8514 407.162 46.2223 379.705 54.4005Z" fill="#1D2852" fill-opacity="0.77"/>
<path d="M379.705 54.4005L86.6304 141.692C59.1728 149.87 43.5438 178.759 51.722 206.216L250.231 872.694C258.409 900.152 287.298 915.781 314.755 907.603L607.83 820.311C635.287 812.133 650.916 783.245 642.738 755.787L444.229 89.309C436.051 61.8514 407.162 46.2223 379.705 54.4005Z" fill="url(#paint3_radial_264_3001)"/>
<path d="M378.484 56.6535L88.8824 142.911C61.4248 151.089 45.7958 179.978 53.9739 207.435L251.448 870.439C259.627 897.897 288.515 913.526 315.973 905.347L605.575 819.09C633.032 810.912 648.661 782.023 640.483 754.566L443.009 91.5619C434.83 64.1043 405.942 48.4753 378.484 56.6535Z" fill="#1D2852" fill-opacity="0.77"/>
<path d="M378.484 56.6535L88.8824 142.911C61.4248 151.089 45.7958 179.978 53.9739 207.435L251.448 870.439C259.627 897.897 288.515 913.526 315.973 905.347L605.575 819.09C633.032 810.912 648.661 782.023 640.483 754.566L443.009 91.5619C434.83 64.1043 405.942 48.4753 378.484 56.6535Z" fill="url(#paint4_linear_264_3001)"/>
<rect x="234.588" y="662.866" width="7.1933" height="106.101" rx="3.59665" transform="rotate(-16.5861 234.588 662.866)" fill="url(#paint5_linear_264_3001)"/>
<rect x="251.275" y="674.785" width="7.1933" height="73.7314" rx="3.59665" transform="rotate(-16.5861 251.275 674.785)" fill="url(#paint6_linear_264_3001)"/>
<rect x="262.311" y="667.743" width="7.1933" height="80.9247" rx="3.59665" transform="rotate(-16.5861 262.311 667.743)" fill="url(#paint7_linear_264_3001)"/>
<rect x="287.467" y="664.005" width="7.1933" height="73.7314" rx="3.59665" transform="rotate(-16.5861 287.467 664.005)" fill="url(#paint8_linear_264_3001)"/>
<rect x="298.506" y="656.965" width="7.1933" height="80.9247" rx="3.59665" transform="rotate(-16.5861 298.506 656.965)" fill="url(#paint9_linear_264_3001)"/>
<rect x="309.543" y="649.925" width="7.1933" height="89.9163" rx="3.59665" transform="rotate(-16.5861 309.543 649.925)" fill="url(#paint10_linear_264_3001)"/>
<rect x="323.146" y="651.501" width="7.1933" height="77.328" rx="3.59665" transform="rotate(-16.5861 323.146 651.501)" fill="url(#paint11_linear_264_3001)"/>
<rect x="330.08" y="630.675" width="7.1933" height="113.295" rx="3.59665" transform="rotate(-16.5861 330.08 630.675)" fill="url(#paint12_linear_264_3001)"/>
<rect x="343.684" y="632.25" width="7.1933" height="104.303" rx="3.59665" transform="rotate(-16.5861 343.684 632.25)" fill="url(#paint13_linear_264_3001)"/>
<rect x="357.801" y="635.55" width="7.1933" height="89.9163" rx="3.59665" transform="rotate(-16.5861 357.801 635.55)" fill="url(#paint14_linear_264_3001)"/>
<rect x="373.973" y="645.744" width="7.1933" height="61.1431" rx="3.59665" transform="rotate(-16.5861 373.973 645.744)" fill="url(#paint15_linear_264_3001)"/>
<rect x="382.957" y="631.811" width="7.1933" height="80.9247" rx="3.59665" transform="rotate(-16.5861 382.957 631.811)" fill="url(#paint16_linear_264_3001)"/>
<rect x="391.941" y="617.874" width="7.1933" height="104.303" rx="3.59665" transform="rotate(-16.5861 391.941 617.874)" fill="url(#paint17_linear_264_3001)"/>
<rect x="405.547" y="619.453" width="7.1933" height="93.5129" rx="3.59665" transform="rotate(-16.5861 405.547 619.453)" fill="url(#paint18_linear_264_3001)"/>
<rect x="415.559" y="608.965" width="7.1933" height="106.101" rx="3.59665" transform="rotate(-16.5861 415.559 608.965)" fill="url(#paint19_linear_264_3001)"/>
<rect x="430.189" y="613.99" width="7.1933" height="89.9163" rx="3.59665" transform="rotate(-16.5861 430.189 613.99)" fill="url(#paint20_linear_264_3001)"/>
<rect x="446.873" y="625.907" width="7.1933" height="57.5464" rx="3.59665" transform="rotate(-16.5861 446.873 625.907)" fill="url(#paint21_linear_264_3001)"/>
<rect x="457.396" y="617.145" width="7.1933" height="66.538" rx="3.59665" transform="rotate(-16.5861 457.396 617.145)" fill="url(#paint22_linear_264_3001)"/>
<rect x="465.354" y="599.763" width="7.1933" height="97.1096" rx="3.59665" transform="rotate(-16.5861 465.354 599.763)" fill="url(#paint23_linear_264_3001)"/>
<rect x="483.068" y="615.128" width="7.1933" height="57.5464" rx="3.59665" transform="rotate(-16.5861 483.068 615.128)" fill="url(#paint24_linear_264_3001)"/>
<rect x="489.482" y="592.576" width="7.1933" height="97.1096" rx="3.59665" transform="rotate(-16.5861 489.482 592.576)" fill="url(#paint25_linear_264_3001)"/>
<rect x="507.197" y="607.939" width="7.1933" height="57.5464" rx="3.59665" transform="rotate(-16.5861 507.197 607.939)" fill="url(#paint26_linear_264_3001)"/>
<rect x="513.102" y="583.664" width="7.1933" height="100.706" rx="3.59665" transform="rotate(-16.5861 513.102 583.664)" fill="url(#paint27_linear_264_3001)"/>
<rect x="275.162" y="668.248" width="8.29996" height="74.6997" rx="4.14998" transform="rotate(-16.5861 275.162 668.248)" fill="url(#paint28_linear_264_3001)"/>
<g filter="url(#filter1_d_264_3001)">
<rect width="296.724" height="301.004" transform="translate(139.256 306.455) rotate(-16.5861)" fill="url(#paint29_linear_264_3001)"/>
<path fill-rule="evenodd" clip-rule="evenodd" d="M293.025 433.094L287.981 406.945C290.052 408.036 292.012 407.932 293.939 407.828C295.947 407.722 297.92 407.623 299.945 408.873C301.652 409.929 303.957 412.943 303.803 418.856C303.264 423.712 301.433 425.876 299.482 426.952C298.883 427.283 298.967 427.888 299.595 427.616C303.225 426.04 305.912 420.142 305.66 415.091C305.51 412.087 304.483 408.886 302.25 406.349C300.115 403.918 297.555 403.568 294.894 403.199C292.261 402.838 289.525 402.457 286.993 400.036C286.915 399.96 285.246 398.38 284.517 397.69L284.183 397.375L291.382 433.96C286.806 436.516 284.105 438.737 282.611 440.62C282.426 440.839 282.271 441.058 282.138 441.26C280.176 444.169 281.132 446.22 282.254 447.461C283.516 448.859 286.686 449.561 289.607 447.814C289.711 447.755 289.815 447.689 289.919 447.617C290.61 447.163 291.281 446.563 291.905 445.795C294.134 443.221 294.472 440.365 294.098 438.43C293.64 436.054 293.026 433.094 293.026 433.094L293.025 433.094Z" fill="url(#paint30_linear_264_3001)"/>
<path fill-rule="evenodd" clip-rule="evenodd" d="M332.285 399.041L327.24 372.892C329.311 373.983 331.272 373.879 333.199 373.776C335.206 373.669 337.179 373.57 339.205 374.82C340.912 375.876 343.217 378.89 343.063 384.803C342.523 389.659 340.692 391.823 338.741 392.899C338.142 393.23 338.227 393.835 338.855 393.564C342.485 391.987 345.172 386.089 344.92 381.039C344.77 378.035 343.742 374.834 341.509 372.297C339.375 369.865 336.815 369.515 334.154 369.146C331.521 368.785 328.784 368.404 326.252 365.984C326.174 365.907 324.505 364.327 323.776 363.637L323.442 363.323L330.642 399.907C326.066 402.463 323.365 404.684 321.87 406.567C321.686 406.786 321.531 407.006 321.398 407.208C319.436 410.116 320.391 412.167 321.514 413.409C322.775 414.806 325.945 415.508 328.866 413.762C328.971 413.702 329.075 413.637 329.179 413.564C329.87 413.111 330.541 412.51 331.165 411.743C333.394 409.169 333.732 406.312 333.358 404.377C332.9 402.001 332.286 399.041 332.286 399.041L332.285 399.041Z" fill="url(#paint31_linear_264_3001)"/>
<path fill-rule="evenodd" clip-rule="evenodd" d="M363.652 429.653L358.608 403.505C360.679 404.595 362.639 404.492 364.566 404.388C366.574 404.282 368.547 404.182 370.572 405.432C372.279 406.489 374.584 409.502 374.43 415.415C373.891 420.272 372.06 422.436 370.109 423.511C369.51 423.843 369.594 424.447 370.222 424.176C373.852 422.6 376.539 416.701 376.287 411.651C376.137 408.647 375.11 405.446 372.876 402.909C370.742 400.477 368.182 400.128 365.521 399.758C362.888 399.397 360.151 399.016 357.62 396.596C357.542 396.519 355.873 394.939 355.144 394.25L354.81 393.935L362.009 430.519C357.433 433.076 354.732 435.296 353.238 437.18C353.053 437.398 352.898 437.618 352.765 437.82C350.803 440.728 351.759 442.78 352.881 444.021C354.143 445.418 357.312 446.121 360.234 444.374C360.338 444.315 360.442 444.249 360.546 444.176C361.237 443.723 361.908 443.123 362.532 442.355C364.761 439.781 365.099 436.924 364.725 434.99C364.267 432.614 363.653 429.653 363.653 429.653L363.652 429.653Z" fill="url(#paint32_linear_264_3001)"/>
</g>
<path d="M71.6101 165.075C79.2836 162.789 83.6514 154.716 81.3659 147.042C79.0804 139.369 71.0069 135.001 63.3335 137.287C55.66 139.572 51.2922 147.645 53.5778 155.319C55.8633 162.992 63.9366 167.36 71.6101 165.075Z" fill="#70839D"/>
<path d="M71.6101 165.075C79.2836 162.789 83.6514 154.716 81.3659 147.042C79.0804 139.369 71.0069 135.001 63.3335 137.287C55.66 139.572 51.2922 147.645 53.5778 155.319C55.8633 162.992 63.9366 167.36 71.6101 165.075Z" fill="url(#paint33_radial_264_3001)" fill-opacity="0.2"/>
<path d="M70.5792 161.604C76.3343 159.889 79.6102 153.834 77.8961 148.079C76.1819 142.324 70.1268 139.048 64.3717 140.762C58.6166 142.477 55.3408 148.532 57.0549 154.287C58.7691 160.042 64.8241 163.318 70.5792 161.604Z" fill="#030B17" fill-opacity="0.8"/>
</g>
<defs>
<filter id="filter0_d_264_3001" x="0.115234" y="4.67871" width="685.148" height="988.796" filterUnits="userSpaceOnUse" color-interpolation-filters="sRGB">
<feFlood flood-opacity="0" result="BackgroundImageFix"/>
<feColorMatrix in="SourceAlpha" type="matrix" values="0 0 0 0 0 0 0 0 0 0 0 0 0 0 0 0 0 0 127 0" result="hardAlpha"/>
<feOffset dx="-6" dy="10"/>
<feGaussianBlur stdDeviation="10"/>
<feComposite in2="hardAlpha" operator="out"/>
<feColorMatrix type="matrix" values="0 0 0 0 0.0105035 0 0 0 0 0.0140365 0 0 0 0 0.0458333 0 0 0 0.46 0"/>
<feBlend mode="normal" in2="BackgroundImageFix" result="effect1_dropShadow_264_3001"/>
<feBlend mode="normal" in="SourceGraphic" in2="effect1_dropShadow_264_3001" result="shape"/>
</filter>
<filter id="filter1_d_264_3001" x="113.256" y="209.754" width="410.301" height="413.182" filterUnits="userSpaceOnUse" color-interpolation-filters="sRGB">
<feFlood flood-opacity="0" result="BackgroundImageFix"/>
<feColorMatrix in="SourceAlpha" type="matrix" values="0 0 0 0 0 0 0 0 0 0 0 0 0 0 0 0 0 0 127 0" result="hardAlpha"/>
<feOffset dx="-6" dy="8"/>
<feGaussianBlur stdDeviation="10"/>
<feComposite in2="hardAlpha" operator="out"/>
<feColorMatrix type="matrix" values="0 0 0 0 0.0173437 0 0 0 0 0.0310261 0 0 0 0 0.154167 0 0 0 0.46 0"/>
<feBlend mode="normal" in2="BackgroundImageFix" result="effect1_dropShadow_264_3001"/>
<feBlend mode="normal" in="SourceGraphic" in2="effect1_dropShadow_264_3001" result="shape"/>
</filter>
<linearGradient id="paint0_linear_264_3001" x1="221.437" y1="61.8339" x2="475.943" y2="916.319" gradientUnits="userSpaceOnUse">
<stop stop-color="#8280DF"/>
<stop offset="1" stop-color="#0400B7" stop-opacity="0"/>
</linearGradient>
<linearGradient id="paint1_linear_264_3001" x1="309.728" y1="355.087" x2="475.943" y2="916.319" gradientUnits="userSpaceOnUse">
<stop stop-color="#4954B7"/>
<stop offset="1" stop-color="#020D71"/>
</linearGradient>
<linearGradient id="paint2_linear_264_3001" x1="225.576" y1="75.7289" x2="465.081" y2="879.848" gradientUnits="userSpaceOnUse">
<stop stop-color="#3B3A67"/>
<stop offset="1" stop-color="#0400B7" stop-opacity="0"/>
</linearGradient>
<radialGradient id="paint3_radial_264_3001" cx="0" cy="0" r="1" gradientUnits="userSpaceOnUse" gradientTransform="translate(347.231 481.001) rotate(73.4139) scale(399.581 204.774)">
<stop stop-color="#1A1875" stop-opacity="0"/>
<stop offset="1" stop-color="#050514"/>
</radialGradient>
<linearGradient id="paint4_linear_264_3001" x1="233.684" y1="99.7818" x2="460.775" y2="862.22" gradientUnits="userSpaceOnUse">
<stop stop-color="#050D27"/>
<stop offset="1" stop-color="#0E0944" stop-opacity="0"/>
</linearGradient>
<linearGradient id="paint5_linear_264_3001" x1="238.185" y1="662.866" x2="238.185" y2="768.967" gradientUnits="userSpaceOnUse">
<stop stop-color="#BFB5FB"/>
<stop offset="1" stop-color="#D0C9FE" stop-opacity="0"/>
</linearGradient>
<linearGradient id="paint6_linear_264_3001" x1="254.872" y1="674.785" x2="254.872" y2="748.517" gradientUnits="userSpaceOnUse">
<stop stop-color="#BFB5FB"/>
<stop offset="1" stop-color="#D0C9FE" stop-opacity="0"/>
</linearGradient>
<linearGradient id="paint7_linear_264_3001" x1="265.907" y1="667.743" x2="265.907" y2="748.668" gradientUnits="userSpaceOnUse">
<stop stop-color="#BFB5FB"/>
<stop offset="1" stop-color="#D0C9FE" stop-opacity="0"/>
</linearGradient>
<linearGradient id="paint8_linear_264_3001" x1="291.063" y1="664.005" x2="291.063" y2="737.736" gradientUnits="userSpaceOnUse">
<stop stop-color="#BFB5FB"/>
<stop offset="1" stop-color="#D0C9FE" stop-opacity="0"/>
</linearGradient>
<linearGradient id="paint9_linear_264_3001" x1="302.103" y1="656.965" x2="302.103" y2="737.89" gradientUnits="userSpaceOnUse">
<stop stop-color="#BFB5FB"/>
<stop offset="1" stop-color="#D0C9FE" stop-opacity="0"/>
</linearGradient>
<linearGradient id="paint10_linear_264_3001" x1="313.14" y1="649.925" x2="313.14" y2="739.841" gradientUnits="userSpaceOnUse">
<stop stop-color="#BFB5FB"/>
<stop offset="1" stop-color="#D0C9FE" stop-opacity="0"/>
</linearGradient>
<linearGradient id="paint11_linear_264_3001" x1="326.743" y1="651.501" x2="326.743" y2="728.829" gradientUnits="userSpaceOnUse">
<stop stop-color="#BFB5FB"/>
<stop offset="1" stop-color="#D0C9FE" stop-opacity="0"/>
</linearGradient>
<linearGradient id="paint12_linear_264_3001" x1="333.677" y1="630.675" x2="333.677" y2="743.969" gradientUnits="userSpaceOnUse">
<stop stop-color="#BFB5FB"/>
<stop offset="1" stop-color="#D0C9FE" stop-opacity="0"/>
</linearGradient>
<linearGradient id="paint13_linear_264_3001" x1="347.28" y1="632.25" x2="347.28" y2="736.553" gradientUnits="userSpaceOnUse">
<stop stop-color="#BFB5FB"/>
<stop offset="1" stop-color="#D0C9FE" stop-opacity="0"/>
</linearGradient>
<linearGradient id="paint14_linear_264_3001" x1="361.397" y1="635.55" x2="361.397" y2="725.466" gradientUnits="userSpaceOnUse">
<stop stop-color="#BFB5FB"/>
<stop offset="1" stop-color="#D0C9FE" stop-opacity="0"/>
</linearGradient>
<linearGradient id="paint15_linear_264_3001" x1="377.569" y1="645.744" x2="377.569" y2="706.887" gradientUnits="userSpaceOnUse">
<stop stop-color="#BFB5FB"/>
<stop offset="1" stop-color="#D0C9FE" stop-opacity="0"/>
</linearGradient>
<linearGradient id="paint16_linear_264_3001" x1="386.554" y1="631.811" x2="386.554" y2="712.735" gradientUnits="userSpaceOnUse">
<stop stop-color="#BFB5FB"/>
<stop offset="1" stop-color="#D0C9FE" stop-opacity="0"/>
</linearGradient>
<linearGradient id="paint17_linear_264_3001" x1="395.538" y1="617.874" x2="395.538" y2="722.177" gradientUnits="userSpaceOnUse">
<stop stop-color="#BFB5FB"/>
<stop offset="1" stop-color="#D0C9FE" stop-opacity="0"/>
</linearGradient>
<linearGradient id="paint18_linear_264_3001" x1="409.144" y1="619.453" x2="409.144" y2="712.966" gradientUnits="userSpaceOnUse">
<stop stop-color="#BFB5FB"/>
<stop offset="1" stop-color="#D0C9FE" stop-opacity="0"/>
</linearGradient>
<linearGradient id="paint19_linear_264_3001" x1="419.155" y1="608.965" x2="419.155" y2="715.066" gradientUnits="userSpaceOnUse">
<stop stop-color="#BFB5FB"/>
<stop offset="1" stop-color="#D0C9FE" stop-opacity="0"/>
</linearGradient>
<linearGradient id="paint20_linear_264_3001" x1="433.786" y1="613.99" x2="433.786" y2="703.907" gradientUnits="userSpaceOnUse">
<stop stop-color="#BFB5FB"/>
<stop offset="1" stop-color="#D0C9FE" stop-opacity="0"/>
</linearGradient>
<linearGradient id="paint21_linear_264_3001" x1="450.47" y1="625.907" x2="450.47" y2="683.454" gradientUnits="userSpaceOnUse">
<stop stop-color="#BFB5FB"/>
<stop offset="1" stop-color="#D0C9FE" stop-opacity="0"/>
</linearGradient>
<linearGradient id="paint22_linear_264_3001" x1="460.993" y1="617.145" x2="460.993" y2="683.683" gradientUnits="userSpaceOnUse">
<stop stop-color="#BFB5FB"/>
<stop offset="1" stop-color="#D0C9FE" stop-opacity="0"/>
</linearGradient>
<linearGradient id="paint23_linear_264_3001" x1="468.95" y1="599.763" x2="468.95" y2="696.872" gradientUnits="userSpaceOnUse">
<stop stop-color="#BFB5FB"/>
<stop offset="1" stop-color="#D0C9FE" stop-opacity="0"/>
</linearGradient>
<linearGradient id="paint24_linear_264_3001" x1="486.665" y1="615.128" x2="486.665" y2="672.674" gradientUnits="userSpaceOnUse">
<stop stop-color="#BFB5FB"/>
<stop offset="1" stop-color="#D0C9FE" stop-opacity="0"/>
</linearGradient>
<linearGradient id="paint25_linear_264_3001" x1="493.079" y1="592.576" x2="493.079" y2="689.686" gradientUnits="userSpaceOnUse">
<stop stop-color="#BFB5FB"/>
<stop offset="1" stop-color="#D0C9FE" stop-opacity="0"/>
</linearGradient>
<linearGradient id="paint26_linear_264_3001" x1="510.794" y1="607.939" x2="510.794" y2="665.486" gradientUnits="userSpaceOnUse">
<stop stop-color="#BFB5FB"/>
<stop offset="1" stop-color="#D0C9FE" stop-opacity="0"/>
</linearGradient>
<linearGradient id="paint27_linear_264_3001" x1="516.698" y1="583.664" x2="516.698" y2="684.37" gradientUnits="userSpaceOnUse">
<stop stop-color="#BFB5FB"/>
<stop offset="1" stop-color="#D0C9FE" stop-opacity="0"/>
</linearGradient>
<linearGradient id="paint28_linear_264_3001" x1="279.312" y1="668.248" x2="279.312" y2="742.948" gradientUnits="userSpaceOnUse">
<stop stop-color="#BFB5FB"/>
<stop offset="1" stop-color="#D0C9FE" stop-opacity="0"/>
</linearGradient>
<linearGradient id="paint29_linear_264_3001" x1="148.362" y1="0" x2="148.362" y2="301.004" gradientUnits="userSpaceOnUse">
<stop stop-color="#9758E7"/>
<stop offset="1" stop-color="#300A60" stop-opacity="0"/>
<stop offset="1" stop-color="#230845" stop-opacity="0.43"/>
</linearGradient>
<linearGradient id="paint30_linear_264_3001" x1="287.017" y1="396.829" x2="296.679" y2="446.908" gradientUnits="userSpaceOnUse">
<stop stop-color="#9C89D2"/>
<stop offset="1" stop-color="#8D6CEC"/>
</linearGradient>
<linearGradient id="paint31_linear_264_3001" x1="326.277" y1="362.776" x2="335.938" y2="412.855" gradientUnits="userSpaceOnUse">
<stop stop-color="#9C89D2"/>
<stop offset="1" stop-color="#8D6CEC"/>
</linearGradient>
<linearGradient id="paint32_linear_264_3001" x1="357.644" y1="393.388" x2="367.306" y2="443.467" gradientUnits="userSpaceOnUse">
<stop stop-color="#9C89D2"/>
<stop offset="1" stop-color="#8D6CEC"/>
</linearGradient>
<radialGradient id="paint33_radial_264_3001" cx="0" cy="0" r="1" gradientUnits="userSpaceOnUse" gradientTransform="translate(67.4718 151.181) rotate(73.4139) scale(14.4973)">
<stop stop-color="#B35656"/>
<stop offset="0.0001" stop-color="#292929"/>
<stop offset="0.65625" stop-opacity="0"/>
<stop offset="1" stop-color="white" stop-opacity="0.87"/>
</radialGradient>
</defs>
</svg>
