<svg  viewBox="0 0 551 1163" fill="none" xmlns="http://www.w3.org/2000/svg">
<rect width="551" height="734.541" rx="5" fill="#1A283D"/>
<rect width="551" height="734.541" rx="5" fill="url(#paint0_linear_231_3535)" fill-opacity="0.2"/>
<path d="M168.507 187.742H503Z" fill="#C57AFF" fill-opacity="0.15"/>
<path d="M168.507 187.742H503" stroke="#C57AFF" stroke-opacity="0.15"/>
<text fill="#DEE2E8" xml:space="preserve" style="white-space: pre" font-family="Mulish" font-size="16" font-weight="300" letter-spacing="0.135em"><tspan x="407.975" y="97.5781">A&#xf1;o</tspan></text>
<text fill="#DEE2E8" xml:space="preserve" style="white-space: pre" font-family="Mulish" font-size="16" font-weight="300" letter-spacing="0.135em"><tspan x="431.451" y="126.644">2010</tspan></text>
<path d="M424.744 130.727H407.975V113.958H424.744V130.727Z" fill="url(#paint1_linear_231_3535)"/>
<text fill="#DEE2E8" xml:space="preserve" style="white-space: pre" font-family="Mulish" font-size="16" font-weight="300" letter-spacing="0.135em"><tspan x="432.568" y="152.356">2020</tspan></text>
<path d="M424.744 157.142H407.975V140.373H424.744V157.142Z" fill="url(#paint2_linear_231_3535)"/>
<text fill="#DEE2E8" xml:space="preserve" style="white-space: pre" font-family="Mulish" font-size="30" font-weight="900" letter-spacing="0em"><tspan x="55.8252" y="78.325">Duraci&#xf3;n de tracks</tspan></text>
<path d="M366.329 467.736H419.691V384.572H366.329V467.736ZM366.329 260.217H419.691Z" fill="url(#paint3_linear_231_3535)"/>
<path d="M366.329 418.953H419.691M393.01 467.736V588.582M393.01 384.572V260.217M366.329 588.582H419.691M366.329 260.217H419.691M366.329 467.736H419.691V384.572H366.329V467.736Z" stroke="url(#paint4_linear_231_3535)" stroke-width="2" style="mix-blend-mode:lighten"/>
<path d="M341.846 587.742C341.846 588.405 341.65 589.053 341.281 589.605C340.913 590.156 340.389 590.586 339.776 590.84C339.163 591.094 338.489 591.16 337.838 591.031C337.188 590.901 336.59 590.582 336.121 590.113C335.652 589.644 335.333 589.046 335.203 588.396C335.074 587.745 335.14 587.071 335.394 586.458C335.648 585.845 336.078 585.321 336.629 584.953C337.181 584.584 337.829 584.388 338.492 584.388C339.382 584.388 340.235 584.741 340.864 585.37C341.493 585.999 341.846 586.852 341.846 587.742V587.742Z" fill="#265EF2"/>
<path d="M335.546 580.681C335.546 581.344 335.349 581.993 334.98 582.544C334.612 583.096 334.088 583.526 333.475 583.779C332.862 584.033 332.188 584.1 331.537 583.97C330.887 583.841 330.289 583.521 329.82 583.052C329.351 582.583 329.032 581.986 328.902 581.335C328.773 580.685 328.839 580.01 329.093 579.398C329.347 578.785 329.777 578.261 330.328 577.892C330.88 577.524 331.528 577.327 332.192 577.327C333.081 577.327 333.934 577.68 334.563 578.309C335.192 578.938 335.546 579.791 335.546 580.681V580.681Z" fill="#265EF2"/>
<path d="M343.548 569.62C343.548 570.284 343.352 570.932 342.983 571.484C342.615 572.035 342.091 572.465 341.478 572.719C340.865 572.973 340.191 573.039 339.54 572.91C338.89 572.78 338.292 572.461 337.823 571.992C337.354 571.523 337.035 570.925 336.905 570.275C336.776 569.624 336.842 568.95 337.096 568.337C337.35 567.724 337.78 567.2 338.331 566.832C338.883 566.463 339.531 566.267 340.195 566.267C341.084 566.267 341.937 566.62 342.566 567.249C343.195 567.878 343.548 568.731 343.548 569.62V569.62Z" fill="#265EF2"/>
<path d="M333.843 511.974C333.843 512.637 333.647 513.286 333.278 513.837C332.91 514.389 332.386 514.819 331.773 515.072C331.16 515.326 330.486 515.393 329.835 515.263C329.185 515.134 328.587 514.814 328.118 514.345C327.649 513.876 327.33 513.279 327.2 512.628C327.071 511.978 327.137 511.303 327.391 510.69C327.645 510.078 328.075 509.554 328.626 509.185C329.178 508.817 329.826 508.62 330.49 508.62C331.379 508.62 332.232 508.973 332.861 509.602C333.49 510.231 333.843 511.084 333.843 511.974V511.974Z" fill="#265EF2"/>
<path d="M337.416 501.39C337.416 502.053 337.219 502.702 336.85 503.253C336.482 503.805 335.958 504.235 335.345 504.488C334.732 504.742 334.058 504.809 333.408 504.679C332.757 504.55 332.159 504.23 331.69 503.761C331.221 503.292 330.902 502.695 330.772 502.044C330.643 501.394 330.709 500.719 330.963 500.106C331.217 499.494 331.647 498.97 332.199 498.601C332.75 498.233 333.398 498.036 334.062 498.036C334.951 498.036 335.804 498.389 336.433 499.018C337.062 499.647 337.416 500.5 337.416 501.39V501.39Z" fill="#265EF2"/>
<path d="M342.582 495.404C342.582 496.067 342.385 496.715 342.016 497.267C341.648 497.818 341.124 498.248 340.511 498.502C339.898 498.756 339.224 498.822 338.574 498.693C337.923 498.564 337.325 498.244 336.856 497.775C336.387 497.306 336.068 496.708 335.938 496.058C335.809 495.407 335.875 494.733 336.129 494.12C336.383 493.507 336.813 492.984 337.365 492.615C337.916 492.247 338.565 492.05 339.228 492.05C340.117 492.05 340.97 492.403 341.599 493.032C342.228 493.661 342.582 494.514 342.582 495.404V495.404Z" fill="#265EF2"/>
<path d="M338.751 475.872C338.751 476.536 338.554 477.184 338.185 477.736C337.817 478.287 337.293 478.717 336.68 478.971C336.067 479.225 335.393 479.291 334.742 479.162C334.092 479.032 333.494 478.713 333.025 478.244C332.556 477.775 332.237 477.177 332.107 476.527C331.978 475.876 332.044 475.202 332.298 474.589C332.552 473.976 332.982 473.452 333.534 473.084C334.085 472.715 334.733 472.519 335.397 472.519C336.286 472.519 337.139 472.872 337.768 473.501C338.397 474.13 338.751 474.983 338.751 475.872V475.872Z" fill="#265EF2"/>
<path d="M341.113 474.656C341.113 475.319 340.916 475.967 340.548 476.519C340.179 477.07 339.655 477.5 339.043 477.754C338.43 478.008 337.755 478.074 337.105 477.945C336.454 477.816 335.857 477.496 335.388 477.027C334.919 476.558 334.599 475.96 334.47 475.31C334.34 474.659 334.407 473.985 334.661 473.372C334.914 472.759 335.344 472.235 335.896 471.867C336.447 471.498 337.096 471.302 337.759 471.302C338.649 471.302 339.502 471.655 340.131 472.284C340.76 472.913 341.113 473.766 341.113 474.656V474.656Z" fill="#265EF2"/>
<path d="M335.671 469.4C335.671 470.063 335.475 470.711 335.106 471.263C334.738 471.815 334.214 472.244 333.601 472.498C332.988 472.752 332.314 472.818 331.663 472.689C331.013 472.56 330.415 472.24 329.946 471.771C329.477 471.302 329.158 470.705 329.028 470.054C328.899 469.403 328.965 468.729 329.219 468.116C329.473 467.503 329.903 466.98 330.454 466.611C331.006 466.243 331.654 466.046 332.318 466.046C333.207 466.046 334.06 466.399 334.689 467.028C335.318 467.657 335.671 468.51 335.671 469.4V469.4Z" fill="#265EF2"/>
<path d="M331.374 469.161C331.374 469.825 331.177 470.473 330.808 471.025C330.44 471.576 329.916 472.006 329.303 472.26C328.69 472.514 328.016 472.58 327.366 472.451C326.715 472.321 326.117 472.002 325.648 471.533C325.179 471.064 324.86 470.466 324.73 469.816C324.601 469.165 324.667 468.491 324.921 467.878C325.175 467.265 325.605 466.741 326.157 466.373C326.708 466.004 327.357 465.808 328.02 465.808C328.909 465.808 329.762 466.161 330.391 466.79C331.02 467.419 331.374 468.272 331.374 469.161V469.161Z" fill="#265EF2"/>
<path d="M341.955 468.476C341.955 469.139 341.758 469.788 341.389 470.339C341.021 470.891 340.497 471.321 339.884 471.574C339.271 471.828 338.597 471.895 337.947 471.765C337.296 471.636 336.698 471.316 336.229 470.847C335.76 470.378 335.441 469.781 335.312 469.13C335.182 468.48 335.249 467.805 335.502 467.192C335.756 466.58 336.186 466.056 336.738 465.687C337.289 465.319 337.938 465.122 338.601 465.122C339.49 465.122 340.343 465.475 340.972 466.104C341.601 466.733 341.955 467.586 341.955 468.476V468.476Z" fill="#265EF2"/>
<path d="M334.269 467.719C334.269 468.382 334.072 469.031 333.704 469.582C333.335 470.134 332.812 470.564 332.199 470.818C331.586 471.071 330.912 471.138 330.261 471.008C329.61 470.879 329.013 470.56 328.544 470.091C328.075 469.621 327.755 469.024 327.626 468.373C327.497 467.723 327.563 467.048 327.817 466.436C328.071 465.823 328.501 465.299 329.052 464.93C329.604 464.562 330.252 464.365 330.915 464.365C331.805 464.365 332.658 464.719 333.287 465.348C333.916 465.977 334.269 466.83 334.269 467.719V467.719Z" fill="#265EF2"/>
<path d="M347.915 464.436C347.915 465.099 347.718 465.748 347.349 466.299C346.981 466.851 346.457 467.281 345.844 467.534C345.231 467.788 344.557 467.855 343.907 467.725C343.256 467.596 342.658 467.276 342.189 466.807C341.72 466.338 341.401 465.741 341.271 465.09C341.142 464.44 341.208 463.765 341.462 463.152C341.716 462.54 342.146 462.016 342.698 461.647C343.249 461.279 343.898 461.082 344.561 461.082C345.45 461.082 346.303 461.435 346.932 462.064C347.561 462.693 347.915 463.546 347.915 464.436V464.436Z" fill="#265EF2"/>
<path d="M326.366 461.528C326.366 462.191 326.169 462.839 325.801 463.391C325.432 463.942 324.908 464.372 324.295 464.626C323.683 464.88 323.008 464.946 322.358 464.817C321.707 464.688 321.11 464.368 320.641 463.899C320.171 463.43 319.852 462.833 319.723 462.182C319.593 461.531 319.66 460.857 319.913 460.244C320.167 459.631 320.597 459.108 321.149 458.739C321.7 458.371 322.349 458.174 323.012 458.174C323.901 458.174 324.755 458.527 325.384 459.156C326.012 459.785 326.366 460.638 326.366 461.528V461.528Z" fill="#265EF2"/>
<path d="M331.95 450.467C331.95 451.13 331.753 451.779 331.385 452.33C331.016 452.882 330.492 453.312 329.879 453.566C329.267 453.819 328.592 453.886 327.942 453.756C327.291 453.627 326.694 453.308 326.224 452.839C325.755 452.37 325.436 451.772 325.307 451.121C325.177 450.471 325.244 449.796 325.497 449.184C325.751 448.571 326.181 448.047 326.733 447.678C327.284 447.31 327.933 447.113 328.596 447.113C329.485 447.113 330.339 447.467 330.967 448.096C331.596 448.725 331.95 449.578 331.95 450.467V450.467Z" fill="#265EF2"/>
<path d="M349.574 449.838C349.574 450.501 349.377 451.15 349.009 451.701C348.64 452.253 348.116 452.683 347.503 452.937C346.891 453.191 346.216 453.257 345.566 453.128C344.915 452.998 344.318 452.679 343.849 452.21C343.379 451.741 343.06 451.143 342.931 450.492C342.801 449.842 342.868 449.168 343.122 448.555C343.375 447.942 343.805 447.418 344.357 447.05C344.908 446.681 345.557 446.484 346.22 446.484C347.11 446.484 347.963 446.838 348.592 447.467C349.22 448.096 349.574 448.949 349.574 449.838V449.838Z" fill="#265EF2"/>
<path d="M336.238 449.293C336.238 449.957 336.041 450.605 335.673 451.157C335.304 451.708 334.78 452.138 334.168 452.392C333.555 452.646 332.88 452.712 332.23 452.583C331.579 452.453 330.982 452.134 330.513 451.665C330.044 451.196 329.724 450.598 329.595 449.948C329.465 449.297 329.532 448.623 329.786 448.01C330.039 447.397 330.469 446.873 331.021 446.505C331.572 446.136 332.221 445.939 332.884 445.939C333.774 445.939 334.627 446.293 335.256 446.922C335.885 447.551 336.238 448.404 336.238 449.293V449.293Z" fill="#265EF2"/>
<path d="M329.436 446.636C329.436 447.299 329.239 447.948 328.871 448.499C328.502 449.051 327.979 449.481 327.366 449.735C326.753 449.988 326.079 450.055 325.428 449.925C324.777 449.796 324.18 449.477 323.711 449.008C323.242 448.538 322.922 447.941 322.793 447.29C322.664 446.64 322.73 445.965 322.984 445.353C323.238 444.74 323.668 444.216 324.219 443.847C324.771 443.479 325.419 443.282 326.082 443.282C326.972 443.282 327.825 443.636 328.454 444.265C329.083 444.893 329.436 445.747 329.436 446.636V446.636Z" fill="#265EF2"/>
<path d="M335.279 436.653C335.279 437.316 335.082 437.964 334.714 438.516C334.345 439.067 333.821 439.497 333.209 439.751C332.596 440.005 331.921 440.071 331.271 439.942C330.62 439.813 330.023 439.493 329.554 439.024C329.085 438.555 328.765 437.958 328.636 437.307C328.506 436.656 328.573 435.982 328.827 435.369C329.08 434.756 329.51 434.233 330.062 433.864C330.613 433.496 331.262 433.299 331.925 433.299C332.815 433.299 333.668 433.652 334.297 434.281C334.926 434.91 335.279 435.763 335.279 436.653V436.653Z" fill="#265EF2"/>
<path d="M338.734 432.081C338.734 432.745 338.537 433.393 338.169 433.945C337.8 434.496 337.276 434.926 336.664 435.18C336.051 435.434 335.376 435.5 334.726 435.371C334.075 435.241 333.478 434.922 333.009 434.453C332.54 433.984 332.22 433.386 332.091 432.736C331.961 432.085 332.028 431.411 332.282 430.798C332.536 430.185 332.965 429.661 333.517 429.293C334.068 428.924 334.717 428.728 335.38 428.728C336.27 428.728 337.123 429.081 337.752 429.71C338.381 430.339 338.734 431.192 338.734 432.081V432.081Z" fill="#265EF2"/>
<path d="M344.693 429.744C344.693 430.408 344.496 431.056 344.128 431.608C343.759 432.159 343.235 432.589 342.623 432.843C342.01 433.097 341.335 433.163 340.685 433.034C340.034 432.904 339.437 432.585 338.968 432.116C338.499 431.647 338.179 431.049 338.05 430.399C337.92 429.748 337.987 429.074 338.241 428.461C338.494 427.848 338.924 427.324 339.476 426.956C340.027 426.587 340.676 426.391 341.339 426.391C342.229 426.391 343.082 426.744 343.711 427.373C344.34 428.002 344.693 428.855 344.693 429.744V429.744Z" fill="#265EF2"/>
<path d="M340.353 422.559C340.353 423.222 340.156 423.871 339.788 424.422C339.419 424.974 338.896 425.404 338.283 425.657C337.67 425.911 336.996 425.978 336.345 425.848C335.694 425.719 335.097 425.399 334.628 424.93C334.159 424.461 333.839 423.864 333.71 423.213C333.581 422.563 333.647 421.888 333.901 421.275C334.155 420.663 334.585 420.139 335.136 419.77C335.688 419.402 336.336 419.205 336.999 419.205C337.889 419.205 338.742 419.558 339.371 420.187C340 420.816 340.353 421.669 340.353 422.559V422.559Z" fill="#265EF2"/>
<path d="M335.571 420.014C335.571 420.677 335.374 421.326 335.006 421.877C334.637 422.429 334.113 422.859 333.501 423.112C332.888 423.366 332.213 423.433 331.563 423.303C330.912 423.174 330.315 422.854 329.846 422.385C329.377 421.916 329.057 421.319 328.928 420.668C328.798 420.018 328.865 419.343 329.119 418.731C329.372 418.118 329.802 417.594 330.354 417.225C330.905 416.857 331.554 416.66 332.217 416.66C333.107 416.66 333.96 417.014 334.589 417.642C335.218 418.271 335.571 419.124 335.571 420.014V420.014Z" fill="#265EF2"/>
<path d="M327.55 418.114C327.55 418.777 327.354 419.425 326.985 419.977C326.617 420.528 326.093 420.958 325.48 421.212C324.867 421.466 324.193 421.532 323.542 421.403C322.892 421.274 322.294 420.954 321.825 420.485C321.356 420.016 321.037 419.418 320.907 418.768C320.778 418.117 320.844 417.443 321.098 416.83C321.352 416.217 321.782 415.694 322.333 415.325C322.885 414.956 323.533 414.76 324.197 414.76C325.086 414.76 325.939 415.113 326.568 415.742C327.197 416.371 327.55 417.224 327.55 418.114V418.114Z" fill="#265EF2"/>
<path d="M338.976 416.995C338.976 417.659 338.779 418.307 338.411 418.859C338.042 419.41 337.519 419.84 336.906 420.094C336.293 420.348 335.619 420.414 334.968 420.285C334.317 420.155 333.72 419.836 333.251 419.367C332.782 418.898 332.462 418.3 332.333 417.65C332.204 416.999 332.27 416.325 332.524 415.712C332.778 415.099 333.208 414.575 333.759 414.207C334.311 413.838 334.959 413.642 335.622 413.642C336.512 413.642 337.365 413.995 337.994 414.624C338.623 415.253 338.976 416.106 338.976 416.995V416.995Z" fill="#265EF2"/>
<path d="M335.354 415.234C335.354 415.897 335.157 416.545 334.789 417.097C334.42 417.648 333.897 418.078 333.284 418.332C332.671 418.586 331.997 418.652 331.346 418.523C330.695 418.394 330.098 418.074 329.629 417.605C329.16 417.136 328.84 416.539 328.711 415.888C328.582 415.237 328.648 414.563 328.902 413.95C329.156 413.337 329.585 412.814 330.137 412.445C330.689 412.077 331.337 411.88 332 411.88C332.89 411.88 333.743 412.233 334.372 412.862C335.001 413.491 335.354 414.344 335.354 415.234V415.234Z" fill="#265EF2"/>
<path d="M345.286 411.444C345.286 412.107 345.089 412.755 344.721 413.307C344.352 413.858 343.828 414.288 343.215 414.542C342.603 414.796 341.928 414.862 341.278 414.733C340.627 414.604 340.029 414.284 339.56 413.815C339.091 413.346 338.772 412.749 338.643 412.098C338.513 411.447 338.58 410.773 338.833 410.16C339.087 409.547 339.517 409.024 340.069 408.655C340.62 408.287 341.269 408.09 341.932 408.09C342.821 408.09 343.674 408.443 344.303 409.072C344.932 409.701 345.286 410.554 345.286 411.444V411.444Z" fill="#265EF2"/>
<path d="M337.791 409.582C337.791 410.246 337.594 410.894 337.225 411.446C336.857 411.997 336.333 412.427 335.72 412.681C335.107 412.935 334.433 413.001 333.783 412.872C333.132 412.742 332.534 412.423 332.065 411.954C331.596 411.485 331.277 410.887 331.147 410.237C331.018 409.586 331.084 408.912 331.338 408.299C331.592 407.686 332.022 407.162 332.574 406.794C333.125 406.425 333.773 406.229 334.437 406.229C335.326 406.229 336.179 406.582 336.808 407.211C337.437 407.84 337.791 408.693 337.791 409.582V409.582Z" fill="#265EF2"/>
<path d="M329.872 407.278C329.872 407.941 329.675 408.589 329.306 409.141C328.938 409.692 328.414 410.122 327.801 410.376C327.188 410.63 326.514 410.696 325.864 410.567C325.213 410.438 324.615 410.118 324.146 409.649C323.677 409.18 323.358 408.583 323.229 407.932C323.099 407.281 323.166 406.607 323.419 405.994C323.673 405.381 324.103 404.858 324.655 404.489C325.206 404.121 325.855 403.924 326.518 403.924C327.407 403.924 328.26 404.277 328.889 404.906C329.518 405.535 329.872 406.388 329.872 407.278V407.278Z" fill="#265EF2"/>
<path d="M326.716 398.413C326.716 399.077 326.52 399.725 326.151 400.277C325.783 400.828 325.259 401.258 324.646 401.512C324.033 401.766 323.359 401.832 322.708 401.703C322.058 401.573 321.46 401.254 320.991 400.785C320.522 400.316 320.203 399.718 320.073 399.068C319.944 398.417 320.01 397.743 320.264 397.13C320.518 396.517 320.948 395.993 321.499 395.625C322.051 395.256 322.699 395.06 323.363 395.06C324.252 395.06 325.105 395.413 325.734 396.042C326.363 396.671 326.716 397.524 326.716 398.413V398.413Z" fill="#265EF2"/>
<path d="M346.42 394.47C346.42 395.133 346.223 395.782 345.854 396.333C345.486 396.885 344.962 397.315 344.349 397.569C343.736 397.822 343.062 397.889 342.411 397.759C341.761 397.63 341.163 397.311 340.694 396.842C340.225 396.372 339.906 395.775 339.776 395.124C339.647 394.474 339.713 393.799 339.967 393.187C340.221 392.574 340.651 392.05 341.202 391.681C341.754 391.313 342.402 391.116 343.066 391.116C343.955 391.116 344.808 391.47 345.437 392.099C346.066 392.727 346.42 393.581 346.42 394.47V394.47Z" fill="#265EF2"/>
<path d="M327.134 392.177C327.134 392.84 326.938 393.489 326.569 394.04C326.201 394.592 325.677 395.022 325.064 395.276C324.451 395.529 323.777 395.596 323.126 395.466C322.476 395.337 321.878 395.018 321.409 394.549C320.94 394.08 320.621 393.482 320.491 392.831C320.362 392.181 320.428 391.506 320.682 390.894C320.936 390.281 321.366 389.757 321.917 389.388C322.469 389.02 323.117 388.823 323.781 388.823C324.67 388.823 325.523 389.177 326.152 389.806C326.781 390.435 327.134 391.288 327.134 392.177V392.177Z" fill="#265EF2"/>
<path d="M347.521 390.596C347.521 391.259 347.324 391.908 346.956 392.459C346.587 393.011 346.064 393.441 345.451 393.695C344.838 393.948 344.164 394.015 343.513 393.885C342.862 393.756 342.265 393.437 341.796 392.967C341.327 392.498 341.007 391.901 340.878 391.25C340.749 390.6 340.815 389.925 341.069 389.313C341.323 388.7 341.752 388.176 342.304 387.807C342.856 387.439 343.504 387.242 344.167 387.242C345.057 387.242 345.91 387.596 346.539 388.224C347.168 388.853 347.521 389.707 347.521 390.596V390.596Z" fill="#265EF2"/>
<path d="M341.972 389.785C341.972 390.449 341.776 391.097 341.407 391.649C341.039 392.2 340.515 392.63 339.902 392.884C339.289 393.138 338.615 393.204 337.964 393.075C337.314 392.945 336.716 392.626 336.247 392.157C335.778 391.688 335.458 391.09 335.329 390.44C335.2 389.789 335.266 389.115 335.52 388.502C335.774 387.889 336.204 387.365 336.755 386.997C337.307 386.628 337.955 386.432 338.618 386.432C339.508 386.432 340.361 386.785 340.99 387.414C341.619 388.043 341.972 388.896 341.972 389.785V389.785Z" fill="#265EF2"/>
<path d="M334.711 385.186C334.711 385.849 334.514 386.498 334.145 387.049C333.777 387.601 333.253 388.031 332.64 388.284C332.027 388.538 331.353 388.605 330.702 388.475C330.052 388.346 329.454 388.026 328.985 387.557C328.516 387.088 328.197 386.491 328.067 385.84C327.938 385.19 328.004 384.515 328.258 383.902C328.512 383.29 328.942 382.766 329.493 382.397C330.045 382.029 330.693 381.832 331.357 381.832C332.246 381.832 333.099 382.185 333.728 382.814C334.357 383.443 334.711 384.296 334.711 385.186V385.186Z" fill="#265EF2"/>
<path d="M329.837 383.242C329.837 383.906 329.641 384.554 329.272 385.106C328.904 385.657 328.38 386.087 327.767 386.341C327.154 386.595 326.48 386.661 325.829 386.532C325.179 386.402 324.581 386.083 324.112 385.614C323.643 385.145 323.324 384.547 323.194 383.897C323.065 383.246 323.131 382.572 323.385 381.959C323.639 381.346 324.069 380.822 324.62 380.454C325.172 380.085 325.82 379.889 326.484 379.889C327.373 379.889 328.226 380.242 328.855 380.871C329.484 381.5 329.837 382.353 329.837 383.242V383.242Z" fill="#265EF2"/>
<path d="M346.237 382.849C346.237 383.512 346.04 384.161 345.672 384.712C345.303 385.264 344.779 385.694 344.167 385.947C343.554 386.201 342.879 386.268 342.229 386.138C341.578 386.009 340.981 385.689 340.512 385.22C340.043 384.751 339.723 384.154 339.594 383.503C339.464 382.853 339.531 382.178 339.785 381.565C340.038 380.953 340.468 380.429 341.02 380.06C341.571 379.692 342.22 379.495 342.883 379.495C343.773 379.495 344.626 379.848 345.255 380.477C345.884 381.106 346.237 381.959 346.237 382.849V382.849Z" fill="#265EF2"/>
<path d="M337.983 382.669C337.983 383.333 337.786 383.981 337.418 384.533C337.049 385.084 336.525 385.514 335.913 385.768C335.3 386.022 334.625 386.088 333.975 385.959C333.324 385.829 332.727 385.51 332.258 385.041C331.789 384.572 331.469 383.974 331.34 383.324C331.21 382.673 331.277 381.999 331.531 381.386C331.785 380.773 332.214 380.249 332.766 379.881C333.317 379.512 333.966 379.315 334.629 379.315C335.519 379.315 336.372 379.669 337.001 380.298C337.63 380.927 337.983 381.78 337.983 382.669V382.669Z" fill="#265EF2"/>
<path d="M344.35 377.117C344.35 377.781 344.153 378.429 343.785 378.981C343.416 379.532 342.893 379.962 342.28 380.216C341.667 380.47 340.993 380.536 340.342 380.407C339.692 380.277 339.094 379.958 338.625 379.489C338.156 379.02 337.836 378.422 337.707 377.772C337.578 377.121 337.644 376.447 337.898 375.834C338.152 375.221 338.582 374.697 339.133 374.329C339.685 373.96 340.333 373.764 340.996 373.764C341.886 373.764 342.739 374.117 343.368 374.746C343.997 375.375 344.35 376.228 344.35 377.117V377.117Z" fill="#265EF2"/>
<path d="M332.367 371.861C332.367 372.524 332.17 373.172 331.802 373.724C331.433 374.275 330.909 374.705 330.296 374.959C329.684 375.213 329.009 375.279 328.359 375.15C327.708 375.021 327.111 374.701 326.641 374.232C326.172 373.763 325.853 373.166 325.724 372.515C325.594 371.864 325.661 371.19 325.914 370.577C326.168 369.964 326.598 369.441 327.15 369.072C327.701 368.704 328.35 368.507 329.013 368.507C329.902 368.507 330.756 368.86 331.384 369.489C332.013 370.118 332.367 370.971 332.367 371.861V371.861Z" fill="#265EF2"/>
<path d="M343.758 371.442C343.758 372.105 343.562 372.753 343.193 373.305C342.825 373.857 342.301 374.286 341.688 374.54C341.075 374.794 340.401 374.86 339.75 374.731C339.1 374.602 338.502 374.282 338.033 373.813C337.564 373.344 337.245 372.747 337.115 372.096C336.986 371.445 337.052 370.771 337.306 370.158C337.56 369.545 337.99 369.022 338.541 368.653C339.093 368.285 339.741 368.088 340.405 368.088C341.294 368.088 342.147 368.441 342.776 369.07C343.405 369.699 343.758 370.552 343.758 371.442V371.442Z" fill="#265EF2"/>
<path d="M338.458 370.631C338.458 371.294 338.261 371.943 337.892 372.494C337.524 373.046 337 373.476 336.387 373.73C335.774 373.984 335.1 374.05 334.45 373.921C333.799 373.791 333.201 373.472 332.732 373.003C332.263 372.534 331.944 371.936 331.814 371.285C331.685 370.635 331.751 369.961 332.005 369.348C332.259 368.735 332.689 368.211 333.241 367.843C333.792 367.474 334.44 367.277 335.104 367.277C335.993 367.277 336.846 367.631 337.475 368.26C338.104 368.889 338.458 369.742 338.458 370.631V370.631Z" fill="#265EF2"/>
<path d="M336.513 330.895C336.513 331.558 336.317 332.207 335.948 332.758C335.58 333.31 335.056 333.739 334.443 333.993C333.83 334.247 333.156 334.314 332.505 334.184C331.855 334.055 331.257 333.735 330.788 333.266C330.319 332.797 330 332.2 329.87 331.549C329.741 330.899 329.807 330.224 330.061 329.611C330.315 328.999 330.745 328.475 331.296 328.106C331.848 327.738 332.496 327.541 333.159 327.541C334.049 327.541 334.902 327.894 335.531 328.523C336.16 329.152 336.513 330.005 336.513 330.895V330.895Z" fill="#265EF2"/>
<path d="M332.984 298.345C332.984 299.008 332.787 299.657 332.419 300.208C332.05 300.76 331.526 301.19 330.914 301.444C330.301 301.697 329.626 301.764 328.976 301.634C328.325 301.505 327.728 301.186 327.259 300.717C326.79 300.247 326.47 299.65 326.341 298.999C326.211 298.349 326.278 297.674 326.532 297.062C326.786 296.449 327.215 295.925 327.767 295.556C328.318 295.188 328.967 294.991 329.63 294.991C330.52 294.991 331.373 295.345 332.002 295.974C332.631 296.602 332.984 297.456 332.984 298.345V298.345Z" fill="#265EF2"/>
<path d="M336.714 296.749C336.714 297.413 336.518 298.061 336.149 298.613C335.781 299.164 335.257 299.594 334.644 299.848C334.031 300.102 333.357 300.168 332.706 300.039C332.056 299.909 331.458 299.59 330.989 299.121C330.52 298.652 330.201 298.054 330.071 297.404C329.942 296.753 330.008 296.079 330.262 295.466C330.516 294.853 330.946 294.329 331.497 293.961C332.049 293.592 332.697 293.396 333.361 293.396C334.25 293.396 335.103 293.749 335.732 294.378C336.361 295.007 336.714 295.86 336.714 296.749V296.749Z" fill="#265EF2"/>
<path d="M342.64 283.426C342.64 284.089 342.444 284.738 342.075 285.289C341.706 285.841 341.183 286.271 340.57 286.525C339.957 286.778 339.283 286.845 338.632 286.715C337.982 286.586 337.384 286.267 336.915 285.798C336.446 285.329 336.126 284.731 335.997 284.08C335.868 283.43 335.934 282.755 336.188 282.143C336.442 281.53 336.872 281.006 337.423 280.637C337.975 280.269 338.623 280.072 339.286 280.072C340.176 280.072 341.029 280.426 341.658 281.055C342.287 281.684 342.64 282.537 342.64 283.426V283.426Z" fill="#265EF2"/>
<path d="M337.816 259.376C337.816 260.04 337.619 260.688 337.251 261.24C336.882 261.791 336.358 262.221 335.746 262.475C335.133 262.729 334.458 262.795 333.808 262.666C333.157 262.536 332.56 262.217 332.091 261.748C331.622 261.279 331.302 260.681 331.173 260.031C331.043 259.38 331.11 258.706 331.364 258.093C331.618 257.48 332.047 256.956 332.599 256.588C333.15 256.219 333.799 256.022 334.462 256.022C335.352 256.022 336.205 256.376 336.834 257.005C337.463 257.634 337.816 258.487 337.816 259.376V259.376Z" fill="#265EF2"/>
<path d="M218.287 383.271H271.649V316.158H218.287V383.271ZM218.287 233.763H271.649Z" fill="url(#paint5_linear_231_3535)"/>
<path d="M218.287 342.64H271.649M244.968 383.271V482.92M244.968 316.158V233.763M218.287 482.92H271.649M218.287 233.763H271.649M218.287 383.271H271.649V316.158H218.287V383.271Z" stroke="url(#paint6_linear_231_3535)" stroke-width="2" style="mix-blend-mode:lighten"/>
<path d="M194.356 482.08C194.356 482.744 194.159 483.392 193.791 483.944C193.422 484.495 192.899 484.925 192.286 485.179C191.673 485.433 190.999 485.499 190.348 485.37C189.697 485.24 189.1 484.921 188.631 484.452C188.162 483.983 187.842 483.385 187.713 482.735C187.583 482.084 187.65 481.41 187.904 480.797C188.158 480.184 188.587 479.66 189.139 479.292C189.691 478.923 190.339 478.727 191.002 478.727C191.892 478.727 192.745 479.08 193.374 479.709C194.003 480.338 194.356 481.191 194.356 482.08V482.08Z" fill="#C60E50" style="mix-blend-mode:lighten"/>
<path d="M187.971 451.74C187.971 452.403 187.775 453.051 187.406 453.603C187.038 454.154 186.514 454.584 185.901 454.838C185.288 455.092 184.614 455.158 183.963 455.029C183.313 454.9 182.715 454.58 182.246 454.111C181.777 453.642 181.458 453.044 181.328 452.394C181.199 451.743 181.265 451.069 181.519 450.456C181.773 449.843 182.203 449.319 182.754 448.951C183.306 448.582 183.954 448.386 184.617 448.386C185.507 448.386 186.36 448.739 186.989 449.368C187.618 449.997 187.971 450.85 187.971 451.74V451.74Z" fill="#C60E50" style="mix-blend-mode:lighten"/>
<path d="M196.266 448.958C196.266 449.622 196.07 450.27 195.701 450.822C195.332 451.373 194.809 451.803 194.196 452.057C193.583 452.311 192.909 452.377 192.258 452.248C191.608 452.118 191.01 451.799 190.541 451.33C190.072 450.861 189.752 450.263 189.623 449.613C189.494 448.962 189.56 448.288 189.814 447.675C190.068 447.062 190.498 446.538 191.049 446.17C191.601 445.801 192.249 445.604 192.912 445.604C193.802 445.604 194.655 445.958 195.284 446.587C195.913 447.216 196.266 448.069 196.266 448.958V448.958Z" fill="#C60E50" style="mix-blend-mode:lighten"/>
<path d="M186.142 442.19C186.142 442.853 185.945 443.501 185.577 444.053C185.208 444.605 184.685 445.034 184.072 445.288C183.459 445.542 182.785 445.609 182.134 445.479C181.484 445.35 180.886 445.03 180.417 444.561C179.948 444.092 179.628 443.495 179.499 442.844C179.37 442.193 179.436 441.519 179.69 440.906C179.944 440.293 180.374 439.77 180.925 439.401C181.477 439.033 182.125 438.836 182.788 438.836C183.678 438.836 184.531 439.189 185.16 439.818C185.789 440.447 186.142 441.3 186.142 442.19V442.19Z" fill="#C60E50" style="mix-blend-mode:lighten"/>
<path d="M189.898 430.374C189.898 431.038 189.701 431.686 189.333 432.238C188.964 432.789 188.441 433.219 187.828 433.473C187.215 433.727 186.541 433.793 185.89 433.664C185.239 433.534 184.642 433.215 184.173 432.746C183.704 432.277 183.384 431.679 183.255 431.029C183.125 430.378 183.192 429.704 183.446 429.091C183.7 428.478 184.129 427.954 184.681 427.586C185.232 427.217 185.881 427.021 186.544 427.021C187.434 427.021 188.287 427.374 188.916 428.003C189.545 428.632 189.898 429.485 189.898 430.374V430.374Z" fill="#C60E50" style="mix-blend-mode:lighten"/>
<path d="M195.032 409.654C195.032 410.317 194.835 410.965 194.467 411.517C194.098 412.068 193.574 412.498 192.961 412.752C192.349 413.006 191.674 413.072 191.024 412.943C190.373 412.814 189.776 412.494 189.307 412.025C188.837 411.556 188.518 410.958 188.389 410.308C188.259 409.657 188.326 408.983 188.58 408.37C188.833 407.757 189.263 407.234 189.815 406.865C190.366 406.497 191.015 406.3 191.678 406.3C192.568 406.3 193.421 406.653 194.05 407.282C194.678 407.911 195.032 408.764 195.032 409.654V409.654Z" fill="#C60E50" style="mix-blend-mode:lighten"/>
<path d="M191.284 403.628C191.284 404.292 191.087 404.94 190.719 405.491C190.35 406.043 189.826 406.473 189.213 406.727C188.601 406.981 187.926 407.047 187.276 406.918C186.625 406.788 186.028 406.469 185.558 406C185.089 405.531 184.77 404.933 184.641 404.283C184.511 403.632 184.578 402.958 184.831 402.345C185.085 401.732 185.515 401.208 186.067 400.84C186.618 400.471 187.267 400.274 187.93 400.274C188.819 400.274 189.673 400.628 190.301 401.257C190.93 401.886 191.284 402.739 191.284 403.628V403.628Z" fill="#C60E50" style="mix-blend-mode:lighten"/>
<path d="M193.853 402.508C193.853 403.171 193.656 403.82 193.288 404.371C192.919 404.923 192.396 405.353 191.783 405.607C191.17 405.86 190.496 405.927 189.845 405.797C189.194 405.668 188.597 405.349 188.128 404.88C187.659 404.411 187.339 403.813 187.21 403.162C187.081 402.512 187.147 401.837 187.401 401.225C187.655 400.612 188.085 400.088 188.636 399.72C189.188 399.351 189.836 399.154 190.499 399.154C191.389 399.154 192.242 399.508 192.871 400.137C193.5 400.766 193.853 401.619 193.853 402.508V402.508Z" fill="#C60E50" style="mix-blend-mode:lighten"/>
<path d="M188.997 401.221C188.997 401.884 188.8 402.533 188.431 403.084C188.063 403.636 187.539 404.066 186.926 404.32C186.313 404.573 185.639 404.64 184.989 404.51C184.338 404.381 183.74 404.062 183.271 403.592C182.802 403.123 182.483 402.526 182.354 401.875C182.224 401.225 182.291 400.55 182.544 399.938C182.798 399.325 183.228 398.801 183.78 398.432C184.331 398.064 184.98 397.867 185.643 397.867C186.532 397.867 187.385 398.221 188.014 398.849C188.643 399.478 188.997 400.332 188.997 401.221V401.221Z" fill="#C60E50" style="mix-blend-mode:lighten"/>
<path d="M185.132 400.41C185.132 401.074 184.936 401.722 184.567 402.274C184.199 402.825 183.675 403.255 183.062 403.509C182.449 403.763 181.775 403.829 181.124 403.7C180.474 403.57 179.876 403.251 179.407 402.782C178.938 402.313 178.619 401.715 178.489 401.065C178.36 400.414 178.426 399.74 178.68 399.127C178.934 398.514 179.364 397.99 179.915 397.622C180.467 397.253 181.115 397.057 181.779 397.057C182.668 397.057 183.521 397.41 184.15 398.039C184.779 398.668 185.132 399.521 185.132 400.41V400.41Z" fill="#C60E50" style="mix-blend-mode:lighten"/>
<path d="M194.454 386.331C194.454 386.995 194.257 387.643 193.888 388.195C193.52 388.746 192.996 389.176 192.383 389.43C191.771 389.684 191.096 389.75 190.446 389.621C189.795 389.491 189.197 389.172 188.728 388.703C188.259 388.234 187.94 387.636 187.811 386.986C187.681 386.335 187.748 385.661 188.001 385.048C188.255 384.435 188.685 383.911 189.237 383.543C189.788 383.174 190.437 382.978 191.1 382.978C191.989 382.978 192.842 383.331 193.471 383.96C194.1 384.589 194.454 385.442 194.454 386.331V386.331Z" fill="#C60E50" style="mix-blend-mode:lighten"/>
<path d="M187.886 382.57C187.886 383.233 187.69 383.881 187.321 384.433C186.953 384.984 186.429 385.414 185.816 385.668C185.203 385.922 184.529 385.988 183.878 385.859C183.228 385.73 182.63 385.41 182.161 384.941C181.692 384.472 181.373 383.874 181.243 383.224C181.114 382.573 181.18 381.899 181.434 381.286C181.688 380.673 182.118 380.15 182.669 379.781C183.221 379.413 183.869 379.216 184.533 379.216C185.422 379.216 186.275 379.569 186.904 380.198C187.533 380.827 187.886 381.68 187.886 382.57V382.57Z" fill="#C60E50" style="mix-blend-mode:lighten"/>
<path d="M198.527 381.984C198.527 382.647 198.33 383.295 197.962 383.847C197.593 384.398 197.069 384.828 196.457 385.082C195.844 385.336 195.169 385.402 194.519 385.273C193.868 385.144 193.271 384.824 192.802 384.355C192.333 383.886 192.013 383.289 191.884 382.638C191.754 381.987 191.821 381.313 192.075 380.7C192.328 380.087 192.758 379.564 193.31 379.195C193.861 378.827 194.51 378.63 195.173 378.63C196.063 378.63 196.916 378.983 197.545 379.612C198.174 380.241 198.527 381.094 198.527 381.984V381.984Z" fill="#C60E50" style="mix-blend-mode:lighten"/>
<path d="M181.828 377.929C181.828 378.592 181.631 379.241 181.263 379.792C180.894 380.344 180.37 380.774 179.757 381.028C179.145 381.281 178.47 381.348 177.82 381.218C177.169 381.089 176.571 380.77 176.102 380.3C175.633 379.831 175.314 379.234 175.185 378.583C175.055 377.933 175.122 377.258 175.375 376.646C175.629 376.033 176.059 375.509 176.611 375.14C177.162 374.772 177.811 374.575 178.474 374.575C179.363 374.575 180.216 374.929 180.845 375.558C181.474 376.186 181.828 377.04 181.828 377.929V377.929Z" fill="#C60E50" style="mix-blend-mode:lighten"/>
<path d="M185.877 376.404C185.877 377.067 185.68 377.715 185.311 378.267C184.943 378.818 184.419 379.248 183.806 379.502C183.193 379.756 182.519 379.822 181.868 379.693C181.218 379.564 180.62 379.244 180.151 378.775C179.682 378.306 179.363 377.708 179.233 377.058C179.104 376.407 179.17 375.733 179.424 375.12C179.678 374.507 180.108 373.984 180.659 373.615C181.211 373.247 181.859 373.05 182.523 373.05C183.412 373.05 184.265 373.403 184.894 374.032C185.523 374.661 185.877 375.514 185.877 376.404V376.404Z" fill="#C60E50" style="mix-blend-mode:lighten"/>
<path d="M201.533 373.887C201.533 374.55 201.336 375.199 200.968 375.75C200.599 376.302 200.075 376.732 199.462 376.986C198.85 377.239 198.175 377.306 197.525 377.176C196.874 377.047 196.277 376.728 195.808 376.259C195.338 375.789 195.019 375.192 194.89 374.541C194.76 373.891 194.827 373.216 195.08 372.604C195.334 371.991 195.764 371.467 196.316 371.098C196.867 370.73 197.516 370.533 198.179 370.533C199.068 370.533 199.922 370.887 200.55 371.516C201.179 372.144 201.533 372.998 201.533 373.887V373.887Z" fill="#C60E50" style="mix-blend-mode:lighten"/>
<path d="M188.604 370.351C188.604 371.014 188.407 371.663 188.039 372.214C187.67 372.766 187.147 373.196 186.534 373.449C185.921 373.703 185.247 373.77 184.596 373.64C183.945 373.511 183.348 373.191 182.879 372.722C182.41 372.253 182.09 371.656 181.961 371.005C181.832 370.355 181.898 369.68 182.152 369.067C182.406 368.455 182.835 367.931 183.387 367.562C183.939 367.194 184.587 366.997 185.25 366.997C186.14 366.997 186.993 367.35 187.622 367.979C188.251 368.608 188.604 369.461 188.604 370.351V370.351Z" fill="#C60E50" style="mix-blend-mode:lighten"/>
<path d="M182.789 367.932C182.789 368.595 182.592 369.244 182.223 369.795C181.855 370.347 181.331 370.777 180.718 371.03C180.105 371.284 179.431 371.351 178.781 371.221C178.13 371.092 177.532 370.772 177.063 370.303C176.594 369.834 176.275 369.237 176.145 368.586C176.016 367.936 176.083 367.261 176.336 366.648C176.59 366.036 177.02 365.512 177.572 365.143C178.123 364.775 178.772 364.578 179.435 364.578C180.324 364.578 181.177 364.931 181.806 365.56C182.435 366.189 182.789 367.042 182.789 367.932V367.932Z" fill="#C60E50" style="mix-blend-mode:lighten"/>
<path d="M188.02 359.668C188.02 360.332 187.823 360.98 187.455 361.532C187.086 362.083 186.563 362.513 185.95 362.767C185.337 363.021 184.663 363.087 184.012 362.958C183.361 362.828 182.764 362.509 182.295 362.04C181.826 361.571 181.506 360.973 181.377 360.323C181.248 359.672 181.314 358.998 181.568 358.385C181.822 357.772 182.252 357.248 182.803 356.88C183.355 356.511 184.003 356.314 184.666 356.314C185.556 356.314 186.409 356.668 187.038 357.297C187.667 357.926 188.02 358.779 188.02 359.668V359.668Z" fill="#C60E50" style="mix-blend-mode:lighten"/>
<path d="M191.342 357.403C191.342 358.066 191.146 358.714 190.777 359.266C190.409 359.817 189.885 360.247 189.272 360.501C188.659 360.755 187.985 360.821 187.334 360.692C186.684 360.563 186.086 360.243 185.617 359.774C185.148 359.305 184.829 358.708 184.699 358.057C184.57 357.406 184.636 356.732 184.89 356.119C185.144 355.506 185.574 354.983 186.125 354.614C186.677 354.246 187.325 354.049 187.989 354.049C188.878 354.049 189.731 354.402 190.36 355.031C190.989 355.66 191.342 356.513 191.342 357.403V357.403Z" fill="#C60E50" style="mix-blend-mode:lighten"/>
<path d="M196.591 353.488C196.591 354.151 196.395 354.799 196.026 355.351C195.658 355.902 195.134 356.332 194.521 356.586C193.908 356.84 193.234 356.906 192.583 356.777C191.933 356.648 191.335 356.328 190.866 355.859C190.397 355.39 190.078 354.792 189.948 354.142C189.819 353.491 189.885 352.817 190.139 352.204C190.393 351.591 190.823 351.068 191.374 350.699C191.926 350.33 192.574 350.134 193.238 350.134C194.127 350.134 194.98 350.487 195.609 351.116C196.238 351.745 196.591 352.598 196.591 353.488V353.488Z" fill="#C60E50" style="mix-blend-mode:lighten"/>
<path d="M192.827 352.705C192.827 353.369 192.63 354.017 192.262 354.569C191.893 355.12 191.369 355.55 190.756 355.804C190.144 356.058 189.469 356.124 188.819 355.995C188.168 355.865 187.57 355.546 187.101 355.077C186.632 354.608 186.313 354.01 186.184 353.36C186.054 352.709 186.121 352.035 186.374 351.422C186.628 350.809 187.058 350.285 187.61 349.917C188.161 349.548 188.81 349.352 189.473 349.352C190.362 349.352 191.215 349.705 191.844 350.334C192.473 350.963 192.827 351.816 192.827 352.705V352.705Z" fill="#C60E50" style="mix-blend-mode:lighten"/>
<path d="M188.388 342.164C188.388 342.828 188.192 343.476 187.823 344.028C187.455 344.579 186.931 345.009 186.318 345.263C185.705 345.517 185.031 345.583 184.38 345.454C183.73 345.324 183.132 345.005 182.663 344.536C182.194 344.067 181.875 343.469 181.745 342.819C181.616 342.168 181.682 341.494 181.936 340.881C182.19 340.268 182.62 339.744 183.171 339.376C183.723 339.007 184.371 338.811 185.034 338.811C185.924 338.811 186.777 339.164 187.406 339.793C188.035 340.422 188.388 341.275 188.388 342.164V342.164Z" fill="#C60E50" style="mix-blend-mode:lighten"/>
<path d="M180.702 341.799C180.702 342.462 180.505 343.111 180.137 343.662C179.768 344.214 179.244 344.644 178.631 344.898C178.019 345.151 177.344 345.218 176.694 345.088C176.043 344.959 175.445 344.64 174.976 344.171C174.507 343.702 174.188 343.104 174.059 342.453C173.929 341.803 173.996 341.128 174.249 340.516C174.503 339.903 174.933 339.379 175.485 339.011C176.036 338.642 176.685 338.445 177.348 338.445C178.237 338.445 179.09 338.799 179.719 339.428C180.348 340.057 180.702 340.91 180.702 341.799V341.799Z" fill="#C60E50" style="mix-blend-mode:lighten"/>
<path d="M191.534 340.736C191.534 341.399 191.337 342.047 190.969 342.599C190.6 343.15 190.076 343.58 189.463 343.834C188.851 344.088 188.176 344.154 187.526 344.025C186.875 343.896 186.278 343.576 185.808 343.107C185.339 342.638 185.02 342.041 184.891 341.39C184.761 340.739 184.828 340.065 185.081 339.452C185.335 338.839 185.765 338.316 186.317 337.947C186.868 337.579 187.517 337.382 188.18 337.382C189.069 337.382 189.923 337.735 190.551 338.364C191.18 338.993 191.534 339.846 191.534 340.736V340.736Z" fill="#C60E50" style="mix-blend-mode:lighten"/>
<path d="M187.337 340.485C187.337 341.148 187.14 341.796 186.771 342.348C186.403 342.899 185.879 343.329 185.266 343.583C184.653 343.837 183.979 343.903 183.328 343.774C182.678 343.645 182.08 343.325 181.611 342.856C181.142 342.387 180.823 341.79 180.693 341.139C180.564 340.488 180.63 339.814 180.884 339.201C181.138 338.588 181.568 338.065 182.119 337.696C182.671 337.328 183.319 337.131 183.983 337.131C184.872 337.131 185.725 337.484 186.354 338.113C186.983 338.742 187.337 339.595 187.337 340.485V340.485Z" fill="#C60E50" style="mix-blend-mode:lighten"/>
<path d="M198.144 337.857C198.144 338.52 197.947 339.168 197.579 339.72C197.21 340.272 196.687 340.701 196.074 340.955C195.461 341.209 194.787 341.276 194.136 341.146C193.485 341.017 192.888 340.697 192.419 340.228C191.95 339.759 191.63 339.162 191.501 338.511C191.372 337.86 191.438 337.186 191.692 336.573C191.946 335.96 192.376 335.437 192.927 335.068C193.479 334.7 194.127 334.503 194.79 334.503C195.68 334.503 196.533 334.856 197.162 335.485C197.791 336.114 198.144 336.967 198.144 337.857V337.857Z" fill="#C60E50" style="mix-blend-mode:lighten"/>
<path d="M190.149 335.13C190.149 335.793 189.952 336.442 189.584 336.993C189.215 337.545 188.691 337.975 188.079 338.229C187.466 338.483 186.791 338.549 186.141 338.42C185.49 338.29 184.893 337.971 184.424 337.502C183.955 337.033 183.635 336.435 183.506 335.784C183.376 335.134 183.443 334.46 183.697 333.847C183.951 333.234 184.38 332.71 184.932 332.342C185.483 331.973 186.132 331.776 186.795 331.776C187.685 331.776 188.538 332.13 189.167 332.759C189.796 333.388 190.149 334.241 190.149 335.13V335.13Z" fill="#C60E50" style="mix-blend-mode:lighten"/>
<path d="M181.578 335.032C181.578 335.695 181.381 336.343 181.013 336.895C180.644 337.446 180.12 337.876 179.507 338.13C178.895 338.384 178.22 338.45 177.57 338.321C176.919 338.191 176.321 337.872 175.852 337.403C175.383 336.934 175.064 336.336 174.935 335.686C174.805 335.035 174.872 334.361 175.125 333.748C175.379 333.135 175.809 332.611 176.361 332.243C176.912 331.874 177.561 331.678 178.224 331.678C179.113 331.678 179.966 332.031 180.595 332.66C181.224 333.289 181.578 334.142 181.578 335.032V335.032Z" fill="#C60E50" style="mix-blend-mode:lighten"/>
<path d="M178.798 333.801C178.798 334.464 178.602 335.113 178.233 335.664C177.865 336.216 177.341 336.646 176.728 336.9C176.115 337.153 175.441 337.22 174.79 337.09C174.14 336.961 173.542 336.642 173.073 336.173C172.604 335.704 172.285 335.106 172.155 334.455C172.026 333.805 172.092 333.13 172.346 332.518C172.6 331.905 173.03 331.381 173.581 331.012C174.133 330.644 174.781 330.447 175.445 330.447C176.334 330.447 177.187 330.801 177.816 331.43C178.445 332.059 178.798 332.912 178.798 333.801V333.801Z" fill="#C60E50" style="mix-blend-mode:lighten"/>
<path d="M198.679 333.619C198.679 334.283 198.483 334.931 198.114 335.483C197.746 336.034 197.222 336.464 196.609 336.718C195.996 336.972 195.322 337.038 194.671 336.909C194.021 336.779 193.423 336.46 192.954 335.991C192.485 335.522 192.166 334.924 192.036 334.274C191.907 333.623 191.973 332.949 192.227 332.336C192.481 331.723 192.911 331.199 193.462 330.831C194.014 330.462 194.662 330.266 195.325 330.266C196.215 330.266 197.068 330.619 197.697 331.248C198.326 331.877 198.679 332.73 198.679 333.619V333.619Z" fill="#C60E50" style="mix-blend-mode:lighten"/>
<path d="M180.827 331.829C180.827 332.493 180.63 333.141 180.262 333.693C179.893 334.244 179.369 334.674 178.756 334.928C178.144 335.182 177.469 335.248 176.819 335.119C176.168 334.989 175.57 334.67 175.101 334.201C174.632 333.732 174.313 333.134 174.184 332.484C174.054 331.833 174.121 331.159 174.374 330.546C174.628 329.933 175.058 329.409 175.61 329.041C176.161 328.672 176.81 328.476 177.473 328.476C178.362 328.476 179.215 328.829 179.844 329.458C180.473 330.087 180.827 330.94 180.827 331.829V331.829Z" fill="#C60E50" style="mix-blend-mode:lighten"/>
<path d="M198.87 325.916C198.87 326.58 198.673 327.228 198.305 327.78C197.936 328.331 197.412 328.761 196.799 329.015C196.187 329.269 195.512 329.335 194.862 329.206C194.211 329.076 193.613 328.757 193.144 328.288C192.675 327.819 192.356 327.221 192.227 326.571C192.097 325.92 192.164 325.246 192.417 324.633C192.671 324.02 193.101 323.496 193.653 323.128C194.204 322.759 194.853 322.562 195.516 322.562C196.405 322.562 197.258 322.916 197.887 323.545C198.516 324.174 198.87 325.027 198.87 325.916V325.916Z" fill="#C60E50" style="mix-blend-mode:lighten"/>
<path d="M193.779 323.93C193.779 324.593 193.582 325.242 193.214 325.793C192.845 326.345 192.321 326.775 191.709 327.028C191.096 327.282 190.421 327.349 189.771 327.219C189.12 327.09 188.523 326.771 188.054 326.301C187.585 325.832 187.265 325.235 187.136 324.584C187.006 323.934 187.073 323.259 187.327 322.647C187.58 322.034 188.01 321.51 188.562 321.141C189.113 320.773 189.762 320.576 190.425 320.576C191.315 320.576 192.168 320.93 192.797 321.558C193.426 322.187 193.779 323.04 193.779 323.93V323.93Z" fill="#C60E50" style="mix-blend-mode:lighten"/>
<path d="M188.713 318.506C188.713 319.169 188.517 319.818 188.148 320.369C187.78 320.921 187.256 321.351 186.643 321.605C186.03 321.859 185.356 321.925 184.705 321.796C184.055 321.666 183.457 321.347 182.988 320.878C182.519 320.409 182.2 319.811 182.07 319.16C181.941 318.51 182.007 317.836 182.261 317.223C182.515 316.61 182.945 316.086 183.496 315.718C184.048 315.349 184.696 315.152 185.36 315.152C186.249 315.152 187.102 315.506 187.731 316.135C188.36 316.764 188.713 317.617 188.713 318.506V318.506Z" fill="#C60E50" style="mix-blend-mode:lighten"/>
<path d="M187.152 314.256C187.152 314.919 186.955 315.568 186.587 316.119C186.218 316.671 185.694 317.101 185.082 317.355C184.469 317.609 183.794 317.675 183.144 317.546C182.493 317.416 181.896 317.097 181.427 316.628C180.958 316.159 180.638 315.561 180.509 314.91C180.379 314.26 180.446 313.586 180.7 312.973C180.953 312.36 181.383 311.836 181.935 311.468C182.486 311.099 183.135 310.902 183.798 310.902C184.688 310.902 185.541 311.256 186.17 311.885C186.799 312.514 187.152 313.367 187.152 314.256Z" fill="#C60E50" style="mix-blend-mode:lighten"/>
<path d="M194.964 311.529C194.964 312.192 194.768 312.84 194.399 313.392C194.031 313.943 193.507 314.373 192.894 314.627C192.281 314.881 191.607 314.947 190.956 314.818C190.306 314.689 189.708 314.369 189.239 313.9C188.77 313.431 188.451 312.833 188.321 312.183C188.192 311.532 188.258 310.858 188.512 310.245C188.766 309.632 189.196 309.109 189.747 308.74C190.299 308.372 190.947 308.175 191.611 308.175C192.5 308.175 193.353 308.528 193.982 309.157C194.611 309.786 194.964 310.639 194.964 311.529V311.529Z" fill="#C60E50" style="mix-blend-mode:lighten"/>
<path d="M190.833 307.516C190.833 308.179 190.636 308.828 190.267 309.379C189.899 309.931 189.375 310.361 188.762 310.614C188.149 310.868 187.475 310.935 186.825 310.805C186.174 310.676 185.576 310.356 185.107 309.887C184.638 309.418 184.319 308.821 184.189 308.17C184.06 307.52 184.126 306.845 184.38 306.232C184.634 305.62 185.064 305.096 185.616 304.727C186.167 304.359 186.815 304.162 187.479 304.162C188.368 304.162 189.221 304.515 189.85 305.144C190.479 305.773 190.833 306.626 190.833 307.516V307.516Z" fill="#C60E50" style="mix-blend-mode:lighten"/>
<path d="M196.216 294.219C196.216 294.882 196.02 295.531 195.651 296.082C195.283 296.634 194.759 297.064 194.146 297.318C193.533 297.571 192.859 297.638 192.208 297.508C191.558 297.379 190.96 297.06 190.491 296.591C190.022 296.121 189.703 295.524 189.573 294.873C189.444 294.223 189.51 293.548 189.764 292.936C190.018 292.323 190.448 291.799 190.999 291.43C191.551 291.062 192.199 290.865 192.863 290.865C193.752 290.865 194.605 291.219 195.234 291.848C195.863 292.477 196.216 293.33 196.216 294.219V294.219Z" fill="#C60E50" style="mix-blend-mode:lighten"/>
<path d="M186.577 288.429C186.577 289.092 186.38 289.741 186.012 290.292C185.643 290.844 185.119 291.274 184.506 291.528C183.894 291.781 183.219 291.848 182.569 291.718C181.918 291.589 181.32 291.27 180.851 290.8C180.382 290.331 180.063 289.734 179.934 289.083C179.804 288.433 179.871 287.758 180.124 287.146C180.378 286.533 180.808 286.009 181.36 285.64C181.911 285.272 182.56 285.075 183.223 285.075C184.112 285.075 184.965 285.429 185.594 286.058C186.223 286.686 186.577 287.54 186.577 288.429V288.429Z" fill="#C60E50" style="mix-blend-mode:lighten"/>
<path d="M195.249 258.872C195.249 259.536 195.052 260.184 194.683 260.736C194.315 261.287 193.791 261.717 193.178 261.971C192.565 262.225 191.891 262.291 191.241 262.162C190.59 262.032 189.992 261.713 189.523 261.244C189.054 260.775 188.735 260.177 188.605 259.527C188.476 258.876 188.542 258.202 188.796 257.589C189.05 256.976 189.48 256.452 190.032 256.084C190.583 255.715 191.232 255.519 191.895 255.519C192.784 255.519 193.637 255.872 194.266 256.501C194.895 257.13 195.249 257.983 195.249 258.872V258.872Z" fill="#C60E50" style="mix-blend-mode:lighten"/>
<path d="M191.092 258.397C191.092 259.06 190.896 259.709 190.527 260.26C190.159 260.812 189.635 261.241 189.022 261.495C188.409 261.749 187.735 261.816 187.084 261.686C186.434 261.557 185.836 261.237 185.367 260.768C184.898 260.299 184.579 259.702 184.449 259.051C184.32 258.4 184.386 257.726 184.64 257.113C184.894 256.501 185.324 255.977 185.875 255.608C186.427 255.24 187.075 255.043 187.739 255.043C188.628 255.043 189.481 255.396 190.11 256.025C190.739 256.654 191.092 257.507 191.092 258.397V258.397Z" fill="#C60E50" style="mix-blend-mode:lighten"/>
<path d="M189.398 238.249C189.398 238.913 189.201 239.561 188.833 240.113C188.464 240.664 187.941 241.094 187.328 241.348C186.715 241.602 186.041 241.668 185.39 241.539C184.739 241.409 184.142 241.09 183.673 240.621C183.204 240.152 182.884 239.554 182.755 238.904C182.625 238.253 182.692 237.579 182.946 236.966C183.2 236.353 183.629 235.829 184.181 235.461C184.732 235.092 185.381 234.896 186.044 234.896C186.934 234.896 187.787 235.249 188.416 235.878C189.045 236.507 189.398 237.36 189.398 238.249V238.249Z" fill="#C60E50" style="mix-blend-mode:lighten"/>
<path d="M186.136 232.922C186.136 233.585 185.94 234.234 185.571 234.785C185.203 235.337 184.679 235.767 184.066 236.021C183.453 236.275 182.779 236.341 182.128 236.212C181.478 236.082 180.88 235.763 180.411 235.294C179.942 234.825 179.623 234.227 179.493 233.576C179.364 232.926 179.43 232.252 179.684 231.639C179.938 231.026 180.368 230.502 180.919 230.134C181.471 229.765 182.119 229.568 182.783 229.568C183.672 229.568 184.525 229.922 185.154 230.551C185.783 231.18 186.136 232.033 186.136 232.922V232.922Z" fill="#C60E50" style="mix-blend-mode:lighten"/>
<path d="M189.489 200.204C189.489 200.868 189.292 201.516 188.924 202.068C188.555 202.619 188.031 203.049 187.419 203.303C186.806 203.557 186.131 203.623 185.481 203.494C184.83 203.364 184.233 203.045 183.764 202.576C183.295 202.107 182.975 201.509 182.846 200.859C182.716 200.208 182.783 199.534 183.037 198.921C183.29 198.308 183.72 197.784 184.272 197.416C184.823 197.047 185.472 196.851 186.135 196.851C187.025 196.851 187.878 197.204 188.507 197.833C189.136 198.462 189.489 199.315 189.489 200.204V200.204Z" fill="#C60E50" style="mix-blend-mode:lighten"/>
<path d="M195.458 188.67C195.458 189.334 195.261 189.982 194.892 190.533C194.524 191.085 194 191.515 193.387 191.769C192.774 192.023 192.1 192.089 191.45 191.96C190.799 191.83 190.201 191.511 189.732 191.042C189.263 190.573 188.944 189.975 188.814 189.325C188.685 188.674 188.751 188 189.005 187.387C189.259 186.774 189.689 186.25 190.241 185.882C190.792 185.513 191.44 185.316 192.104 185.316C192.993 185.316 193.846 185.67 194.475 186.299C195.104 186.928 195.458 187.781 195.458 188.67V188.67Z" fill="#C60E50" style="mix-blend-mode:lighten"/>
<path d="M190.29 185.062C190.29 185.725 190.093 186.374 189.724 186.925C189.356 187.477 188.832 187.906 188.219 188.16C187.606 188.414 186.932 188.481 186.282 188.351C185.631 188.222 185.033 187.902 184.564 187.433C184.095 186.964 183.776 186.367 183.646 185.716C183.517 185.066 183.583 184.391 183.837 183.778C184.091 183.166 184.521 182.642 185.073 182.273C185.624 181.905 186.273 181.708 186.936 181.708C187.825 181.708 188.678 182.061 189.307 182.69C189.936 183.319 190.29 184.172 190.29 185.062V185.062Z" fill="#C60E50" style="mix-blend-mode:lighten"/>
<text fill="#DEE2E8" xml:space="preserve" style="white-space: pre" font-family="Mulish" font-size="18" font-weight="300" letter-spacing="0.135em"><tspan x="211.142" y="679.123">2010</tspan></text>
<text fill="#DEE2E8" xml:space="preserve" style="white-space: pre" font-family="Mulish" font-size="18" font-weight="300" letter-spacing="0.135em"><tspan x="365.416" y="679.122">2020</tspan></text>
<path d="M168.507 290.147H503Z" fill="#C57AFF" fill-opacity="0.15"/>
<path d="M168.507 290.147H503" stroke="#C57AFF" stroke-opacity="0.15"/>
<path d="M168.507 407.531H503Z" fill="#C57AFF" fill-opacity="0.15"/>
<path d="M168.507 407.531H503" stroke="#C57AFF" stroke-opacity="0.15"/>
<path d="M168.507 524.914H503Z" fill="#C57AFF" fill-opacity="0.15"/>
<path d="M168.507 524.914H503" stroke="#C57AFF" stroke-opacity="0.15"/>
<path d="M168.507 642.298H503Z" fill="#C57AFF" fill-opacity="0.15"/>
<path d="M168.507 642.298H503" stroke="#C57AFF" stroke-opacity="0.15"/>
<text fill="#DEE2E8" xml:space="preserve" style="white-space: pre" font-family="Mulish" font-size="18" font-weight="300" letter-spacing="0.135em"><tspan x="108.245" y="533.362">2:30</tspan></text>
<text fill="#DEE2E8" xml:space="preserve" style="white-space: pre" font-family="Mulish" font-size="18" font-weight="300" letter-spacing="0.135em"><tspan x="103.773" y="649.972">0:00</tspan></text>
<text fill="#DEE2E8" xml:space="preserve" style="white-space: pre" font-family="Mulish" font-size="18" font-weight="300" letter-spacing="0.135em"><tspan x="104.891" y="415.713">3:20</tspan></text>
<text fill="#DEE2E8" xml:space="preserve" style="white-space: pre" font-family="Mulish" font-size="18" font-weight="300" letter-spacing="0.135em"><tspan x="104.89" y="298.062">4:10</tspan></text>
<text fill="#DEE2E8" xml:space="preserve" style="white-space: pre" font-family="Mulish" font-size="18" font-weight="300" letter-spacing="0.135em"><tspan x="104.89" y="180.411">5:00</tspan></text>
<text transform="translate(48 533.646) rotate(-90)" fill="#DEE2E8" xml:space="preserve" style="white-space: pre" font-family="Mulish" font-size="18" font-weight="300" letter-spacing="0.135em"><tspan x="13.4002" y="18.295">Duraci&#xf3;n en minutos</tspan></text>
<rect y="758.541" width="551" height="194" rx="5" fill="url(#paint7_linear_231_3535)" style="mix-blend-mode:lighten"/>
<text fill="#FFB3F3" xml:space="preserve" style="white-space: pre" font-family="Mulish" font-size="24" font-weight="800" letter-spacing="0.025em"><tspan x="52" y="808.101">2010</tspan></text>
<text fill="#DEE2E8" xml:space="preserve" style="white-space: pre" font-family="Mulish" font-size="36" font-weight="900" letter-spacing="0em"><tspan x="52" y="904.631">3:47</tspan></text>
<text fill="#DEE2E8" xml:space="preserve" style="white-space: pre" font-family="Mulish" font-size="12" font-weight="300" letter-spacing="0em"><tspan x="130" y="904.571">min.</tspan></text>
<text fill="#DEE2E8" xml:space="preserve" style="white-space: pre" font-family="Mulish" font-size="16" letter-spacing="0.025em"><tspan x="52" y="856.581">Duraci&#xf3;n media:</tspan></text>
<text fill="#DEE2E8" xml:space="preserve" style="white-space: pre" font-family="Mulish" font-size="12" font-weight="300" letter-spacing="0em"><tspan x="306" y="903.571">min.</tspan></text>
<text fill="#DEE2E8" xml:space="preserve" style="white-space: pre" font-family="Mulish" font-size="36" font-weight="900" letter-spacing="0em"><tspan x="227" y="904.631">4:54</tspan></text>
<text fill="#DEE2E8" xml:space="preserve" style="white-space: pre" font-family="Mulish" font-size="16" letter-spacing="0.025em"><tspan x="227" y="856.581">M&#xe1;xima:</tspan></text>
<text fill="#DEE2E8" xml:space="preserve" style="white-space: pre" font-family="Mulish" font-size="12" font-weight="300" letter-spacing="0em"><tspan x="456" y="903.571">min.</tspan></text>
<text fill="#DEE2E8" xml:space="preserve" style="white-space: pre" font-family="Mulish" font-size="36" font-weight="900" letter-spacing="0em"><tspan x="377" y="904.631">2:48</tspan></text>
<text fill="#DEE2E8" xml:space="preserve" style="white-space: pre" font-family="Mulish" font-size="16" letter-spacing="0.025em"><tspan x="377" y="856.581">M&#xed;nima</tspan></text>
<rect y="968.541" width="551" height="194" rx="5" fill="url(#paint8_linear_231_3535)" style="mix-blend-mode:lighten"/>
<text fill="#7EDDDD" xml:space="preserve" style="white-space: pre" font-family="Mulish" font-size="24" font-weight="800" letter-spacing="0.025em"><tspan x="48" y="1018.1">2020</tspan></text>
<text fill="#DEE2E8" xml:space="preserve" style="white-space: pre" font-family="Mulish" font-size="36" font-weight="900" letter-spacing="0em"><tspan x="48" y="1114.63">3:15</tspan></text>
<text fill="#DEE2E8" xml:space="preserve" style="white-space: pre" font-family="Mulish" font-size="12" font-weight="300" letter-spacing="0em"><tspan x="126" y="1114.57">min.</tspan></text>
<text fill="#DEE2E8" xml:space="preserve" style="white-space: pre" font-family="Mulish" font-size="16" letter-spacing="0.025em"><tspan x="48" y="1066.58">Duraci&#xf3;n media:</tspan></text>
<text fill="#DEE2E8" xml:space="preserve" style="white-space: pre" font-family="Mulish" font-size="12" font-weight="300" letter-spacing="0em"><tspan x="302" y="1113.57">min.</tspan></text>
<text fill="#DEE2E8" xml:space="preserve" style="white-space: pre" font-family="Mulish" font-size="36" font-weight="900" letter-spacing="0em"><tspan x="223" y="1114.63">4:22</tspan></text>
<text fill="#DEE2E8" xml:space="preserve" style="white-space: pre" font-family="Mulish" font-size="16" letter-spacing="0.025em"><tspan x="223" y="1066.58">M&#xe1;xima:</tspan></text>
<text fill="#DEE2E8" xml:space="preserve" style="white-space: pre" font-family="Mulish" font-size="12" font-weight="300" letter-spacing="0em"><tspan x="462.201" y="1113.57">min.</tspan></text>
<text fill="#DEE2E8" xml:space="preserve" style="white-space: pre" font-family="Mulish" font-size="36" font-weight="900" letter-spacing="0em"><tspan x="383.201" y="1114.63">2:03</tspan></text>
<text fill="#DEE2E8" xml:space="preserve" style="white-space: pre" font-family="Mulish" font-size="16" letter-spacing="0.025em"><tspan x="383.201" y="1066.58">M&#xed;nima</tspan></text>
<defs>
<linearGradient id="paint0_linear_231_3535" x1="275.5" y1="0" x2="275.5" y2="734.541" gradientUnits="userSpaceOnUse">
<stop stop-color="#0B1131"/>
<stop offset="1" stop-color="#334F79"/>
</linearGradient>
<linearGradient id="paint1_linear_231_3535" x1="415.241" y1="111.483" x2="420.192" y2="131.729" gradientUnits="userSpaceOnUse">
<stop stop-color="#E2396F"/>
<stop offset="0.0001" stop-color="#E2396F"/>
<stop offset="1" stop-color="#95326D"/>
<stop offset="1" stop-color="#D23879"/>
</linearGradient>
<linearGradient id="paint2_linear_231_3535" x1="416.585" y1="140.373" x2="416.585" y2="157.788" gradientUnits="userSpaceOnUse">
<stop stop-color="#3D6DF2"/>
<stop offset="0.0001" stop-color="#3E68E0"/>
<stop offset="0.484375" stop-color="#245EF3"/>
<stop offset="1" stop-color="#3558D3"/>
</linearGradient>
<linearGradient id="paint3_linear_231_3535" x1="393.728" y1="260.217" x2="393.728" y2="601.225" gradientUnits="userSpaceOnUse">
<stop stop-color="#3D6DF2"/>
<stop offset="0.0001" stop-color="#3E68E0"/>
<stop offset="0.484375" stop-color="#245EF3"/>
<stop offset="1" stop-color="#3558D3"/>
</linearGradient>
<linearGradient id="paint4_linear_231_3535" x1="393.728" y1="260.217" x2="393.728" y2="601.225" gradientUnits="userSpaceOnUse">
<stop stop-color="#A0FFFF" stop-opacity="0.81"/>
<stop offset="0.0001" stop-color="#9FBAFF" stop-opacity="0.812969"/>
<stop offset="1" stop-color="#538BF7"/>
</linearGradient>
<linearGradient id="paint5_linear_231_3535" x1="241.411" y1="196.994" x2="399.423" y2="335.376" gradientUnits="userSpaceOnUse">
<stop stop-color="#E2396F"/>
<stop offset="0.0001" stop-color="#E2396F"/>
<stop offset="1" stop-color="#95326D"/>
<stop offset="1" stop-color="#D23879"/>
</linearGradient>
<linearGradient id="paint6_linear_231_3535" x1="241.411" y1="196.994" x2="399.423" y2="335.376" gradientUnits="userSpaceOnUse">
<stop stop-color="#FF9DC5"/>
<stop offset="1" stop-color="#B89FEE" stop-opacity="0.56"/>
<stop offset="1" stop-color="#FFDCE9"/>
</linearGradient>
<linearGradient id="paint7_linear_231_3535" x1="238.767" y1="729.912" x2="268.706" y2="985.91" gradientUnits="userSpaceOnUse">
<stop stop-color="#C60E50"/>
<stop offset="1" stop-color="#A80B3A"/>
</linearGradient>
<linearGradient id="paint8_linear_231_3535" x1="238.767" y1="939.912" x2="259.983" y2="1186.32" gradientUnits="userSpaceOnUse">
<stop stop-color="#280EC6"/>
<stop offset="1" stop-color="#370C93"/>
</linearGradient>
</defs>
</svg>
