<svg  viewBox="0 0 880 948" fill="none" xmlns="http://www.w3.org/2000/svg">
<rect width="880" height="615.46" rx="5" fill="#1A283D"/>
<rect width="880" height="615.46" rx="5" fill="url(#paint0_linear_223_9627)" fill-opacity="0.2"/>
<path d="M176 170H784Z" fill="#C57AFF" fill-opacity="0.15"/>
<path d="M176 170H784" stroke="#C57AFF" stroke-opacity="0.15"/>
<text fill="#DEE2E8" xml:space="preserve" style="white-space: pre" font-family="Mulish" font-size="24" font-weight="900" letter-spacing="0em"><tspan x="72" y="88.9868">Duraci&#xf3;n de tracks</tspan></text>
<text fill="#DEE2E8" xml:space="preserve" style="white-space: pre" font-family="Mulish" font-size="16" font-weight="300" letter-spacing="0.135em"><tspan x="726.927" y="64.04">A&#xf1;o</tspan></text>
<text fill="#DEE2E8" xml:space="preserve" style="white-space: pre" font-family="Mulish" font-size="16" font-weight="300" letter-spacing="0.135em"><tspan x="751.636" y="87.2304">2010</tspan></text>
<path d="M739.927 86.8662H726.927V73.8662H739.927V86.8662Z" fill="url(#paint1_linear_223_9627)"/>
<text fill="#DEE2E8" xml:space="preserve" style="white-space: pre" font-family="Mulish" font-size="16" font-weight="300" letter-spacing="0.135em"><tspan x="752.812" y="107.744">2020</tspan></text>
<path d="M739.927 107.941H726.927V94.9414H739.927V107.941Z" fill="url(#paint2_linear_223_9627)"/>
<path d="M563.693 395.207H649.873V328.854H563.693V395.207ZM563.693 229.638H649.873Z" fill="url(#paint3_linear_223_9627)"/>
<path d="M563.693 356.286H649.873M606.783 395.207V491.624M606.783 328.854V229.638M563.693 491.624H649.873M563.693 229.638H649.873M563.693 395.207H649.873V328.854H563.693V395.207Z" stroke="url(#paint4_linear_223_9627)" stroke-width="2" style="mix-blend-mode:lighten"/>
<path d="M518.108 490.671C518.108 491.144 517.968 491.607 517.705 492.001C517.442 492.394 517.068 492.701 516.631 492.882C516.193 493.063 515.712 493.111 515.248 493.018C514.784 492.926 514.357 492.698 514.022 492.363C513.688 492.029 513.46 491.602 513.367 491.138C513.275 490.674 513.322 490.192 513.503 489.755C513.685 489.318 513.991 488.944 514.385 488.681C514.779 488.418 515.241 488.277 515.715 488.277C516.35 488.277 516.958 488.53 517.407 488.978C517.856 489.427 518.108 490.036 518.108 490.671V490.671Z" fill="#265EF2"/>
<path d="M507.933 485.037C507.933 485.511 507.792 485.973 507.529 486.367C507.266 486.761 506.892 487.067 506.455 487.248C506.018 487.43 505.536 487.477 505.072 487.385C504.608 487.292 504.181 487.064 503.847 486.73C503.512 486.395 503.284 485.968 503.192 485.504C503.099 485.04 503.147 484.558 503.328 484.121C503.509 483.684 503.816 483.31 504.209 483.047C504.603 482.784 505.066 482.644 505.539 482.644C506.174 482.644 506.783 482.896 507.232 483.345C507.68 483.793 507.933 484.402 507.933 485.037V485.037Z" fill="#265EF2"/>
<path d="M520.857 476.213C520.857 476.686 520.717 477.149 520.454 477.543C520.191 477.936 519.817 478.243 519.38 478.424C518.942 478.605 518.461 478.653 517.997 478.56C517.533 478.468 517.106 478.24 516.771 477.905C516.437 477.571 516.209 477.144 516.116 476.68C516.024 476.216 516.071 475.734 516.253 475.297C516.434 474.86 516.74 474.486 517.134 474.223C517.528 473.96 517.99 473.819 518.464 473.819C519.099 473.819 519.707 474.072 520.156 474.52C520.605 474.969 520.857 475.578 520.857 476.213V476.213Z" fill="#265EF2"/>
<path d="M505.184 430.22C505.184 430.693 505.043 431.156 504.78 431.55C504.517 431.943 504.143 432.25 503.706 432.431C503.269 432.612 502.787 432.66 502.323 432.567C501.859 432.475 501.432 432.247 501.098 431.912C500.763 431.577 500.535 431.151 500.442 430.687C500.35 430.222 500.398 429.741 500.579 429.304C500.76 428.866 501.067 428.493 501.46 428.23C501.854 427.967 502.317 427.826 502.79 427.826C503.425 427.826 504.034 428.078 504.483 428.527C504.931 428.976 505.184 429.585 505.184 430.22V430.22Z" fill="#265EF2"/>
<path d="M510.953 421.775C510.953 422.249 510.813 422.712 510.55 423.105C510.287 423.499 509.913 423.806 509.476 423.987C509.038 424.168 508.557 424.215 508.093 424.123C507.628 424.031 507.202 423.803 506.867 423.468C506.532 423.133 506.304 422.707 506.212 422.242C506.12 421.778 506.167 421.297 506.348 420.859C506.529 420.422 506.836 420.048 507.23 419.785C507.623 419.522 508.086 419.382 508.56 419.382C509.194 419.382 509.803 419.634 510.252 420.083C510.701 420.532 510.953 421.141 510.953 421.775V421.775Z" fill="#265EF2"/>
<path d="M519.296 416.999C519.296 417.472 519.156 417.935 518.893 418.329C518.629 418.722 518.256 419.029 517.818 419.21C517.381 419.392 516.9 419.439 516.435 419.347C515.971 419.254 515.545 419.026 515.21 418.692C514.875 418.357 514.647 417.93 514.555 417.466C514.462 417.002 514.51 416.52 514.691 416.083C514.872 415.646 515.179 415.272 515.573 415.009C515.966 414.746 516.429 414.605 516.902 414.605C517.537 414.605 518.146 414.858 518.595 415.307C519.044 415.755 519.296 416.364 519.296 416.999V416.999Z" fill="#265EF2"/>
<path d="M513.109 401.416C513.109 401.889 512.969 402.352 512.706 402.746C512.443 403.139 512.069 403.446 511.632 403.627C511.194 403.809 510.713 403.856 510.249 403.764C509.785 403.671 509.358 403.443 509.023 403.109C508.689 402.774 508.461 402.347 508.368 401.883C508.276 401.419 508.323 400.937 508.504 400.5C508.686 400.063 508.992 399.689 509.386 399.426C509.78 399.163 510.242 399.022 510.716 399.022C511.351 399.022 511.959 399.275 512.408 399.724C512.857 400.172 513.109 400.781 513.109 401.416V401.416Z" fill="#265EF2"/>
<path d="M516.924 400.445C516.924 400.919 516.783 401.381 516.52 401.775C516.257 402.169 515.884 402.475 515.446 402.657C515.009 402.838 514.528 402.885 514.063 402.793C513.599 402.701 513.173 402.473 512.838 402.138C512.503 401.803 512.275 401.377 512.183 400.912C512.09 400.448 512.138 399.967 512.319 399.529C512.5 399.092 512.807 398.718 513.2 398.455C513.594 398.192 514.057 398.052 514.53 398.052C515.165 398.052 515.774 398.304 516.223 398.753C516.672 399.202 516.924 399.81 516.924 400.445V400.445Z" fill="#265EF2"/>
<path d="M508.137 396.252C508.137 396.725 507.996 397.188 507.733 397.582C507.47 397.975 507.096 398.282 506.659 398.463C506.222 398.644 505.741 398.692 505.276 398.6C504.812 398.507 504.385 398.279 504.051 397.944C503.716 397.61 503.488 397.183 503.396 396.719C503.303 396.255 503.351 395.773 503.532 395.336C503.713 394.899 504.02 394.525 504.413 394.262C504.807 393.999 505.27 393.858 505.743 393.858C506.378 393.858 506.987 394.111 507.436 394.559C507.885 395.008 508.137 395.617 508.137 396.252V396.252Z" fill="#265EF2"/>
<path d="M501.195 396.062C501.195 396.535 501.055 396.998 500.792 397.391C500.529 397.785 500.155 398.092 499.718 398.273C499.28 398.454 498.799 398.501 498.335 398.409C497.87 398.317 497.444 398.089 497.109 397.754C496.775 397.419 496.547 396.993 496.454 396.528C496.362 396.064 496.409 395.583 496.59 395.146C496.772 394.708 497.078 394.334 497.472 394.071C497.866 393.808 498.328 393.668 498.802 393.668C499.437 393.668 500.045 393.92 500.494 394.369C500.943 394.818 501.195 395.427 501.195 396.062V396.062Z" fill="#265EF2"/>
<path d="M518.283 395.515C518.283 395.988 518.143 396.451 517.88 396.844C517.617 397.238 517.243 397.545 516.806 397.726C516.368 397.907 515.887 397.955 515.423 397.862C514.958 397.77 514.532 397.542 514.197 397.207C513.862 396.872 513.634 396.446 513.542 395.982C513.45 395.517 513.497 395.036 513.678 394.599C513.859 394.161 514.166 393.787 514.56 393.524C514.953 393.261 515.416 393.121 515.89 393.121C516.524 393.121 517.133 393.373 517.582 393.822C518.031 394.271 518.283 394.88 518.283 395.515V395.515Z" fill="#265EF2"/>
<path d="M505.871 394.911C505.871 395.385 505.731 395.847 505.468 396.241C505.205 396.635 504.831 396.941 504.394 397.122C503.956 397.304 503.475 397.351 503.011 397.259C502.546 397.166 502.12 396.938 501.785 396.604C501.45 396.269 501.222 395.842 501.13 395.378C501.038 394.914 501.085 394.433 501.266 393.995C501.447 393.558 501.754 393.184 502.148 392.921C502.541 392.658 503.004 392.518 503.478 392.518C504.112 392.518 504.721 392.77 505.17 393.219C505.619 393.668 505.871 394.276 505.871 394.911V394.911Z" fill="#265EF2"/>
<path d="M527.909 392.291C527.909 392.764 527.769 393.227 527.506 393.621C527.243 394.014 526.869 394.321 526.432 394.502C525.994 394.684 525.513 394.731 525.049 394.639C524.584 394.546 524.158 394.318 523.823 393.984C523.488 393.649 523.26 393.222 523.168 392.758C523.076 392.294 523.123 391.812 523.304 391.375C523.485 390.938 523.792 390.564 524.186 390.301C524.579 390.038 525.042 389.897 525.516 389.897C526.15 389.897 526.759 390.15 527.208 390.599C527.657 391.047 527.909 391.656 527.909 392.291V392.291Z" fill="#265EF2"/>
<path d="M493.107 389.971C493.107 390.444 492.967 390.907 492.704 391.3C492.441 391.694 492.067 392.001 491.63 392.182C491.192 392.363 490.711 392.411 490.247 392.318C489.783 392.226 489.356 391.998 489.021 391.663C488.687 391.328 488.459 390.902 488.366 390.438C488.274 389.973 488.321 389.492 488.503 389.055C488.684 388.617 488.99 388.244 489.384 387.981C489.778 387.718 490.24 387.577 490.714 387.577C491.349 387.577 491.957 387.829 492.406 388.278C492.855 388.727 493.107 389.336 493.107 389.971V389.971Z" fill="#265EF2"/>
<path d="M502.125 381.146C502.125 381.62 501.985 382.083 501.722 382.476C501.459 382.87 501.085 383.177 500.647 383.358C500.21 383.539 499.729 383.586 499.264 383.494C498.8 383.402 498.374 383.174 498.039 382.839C497.704 382.504 497.476 382.078 497.384 381.613C497.292 381.149 497.339 380.668 497.52 380.231C497.701 379.793 498.008 379.419 498.402 379.156C498.795 378.893 499.258 378.753 499.731 378.753C500.366 378.753 500.975 379.005 501.424 379.454C501.873 379.903 502.125 380.512 502.125 381.146V381.146Z" fill="#265EF2"/>
<path d="M530.589 380.645C530.589 381.118 530.448 381.581 530.185 381.974C529.922 382.368 529.549 382.675 529.111 382.856C528.674 383.037 528.193 383.084 527.728 382.992C527.264 382.9 526.838 382.672 526.503 382.337C526.168 382.002 525.94 381.576 525.848 381.111C525.755 380.647 525.803 380.166 525.984 379.729C526.165 379.291 526.472 378.917 526.866 378.654C527.259 378.391 527.722 378.251 528.195 378.251C528.83 378.251 529.439 378.503 529.888 378.952C530.337 379.401 530.589 380.01 530.589 380.645V380.645Z" fill="#265EF2"/>
<path d="M509.051 380.21C509.051 380.683 508.91 381.146 508.647 381.54C508.384 381.933 508.011 382.24 507.573 382.421C507.136 382.602 506.655 382.65 506.19 382.558C505.726 382.465 505.299 382.237 504.965 381.902C504.63 381.568 504.402 381.141 504.31 380.677C504.217 380.213 504.265 379.731 504.446 379.294C504.627 378.857 504.934 378.483 505.327 378.22C505.721 377.957 506.184 377.816 506.657 377.816C507.292 377.816 507.901 378.069 508.35 378.517C508.799 378.966 509.051 379.575 509.051 380.21V380.21Z" fill="#265EF2"/>
<path d="M498.066 378.09C498.066 378.563 497.926 379.026 497.663 379.42C497.4 379.813 497.026 380.12 496.589 380.301C496.151 380.482 495.67 380.53 495.206 380.437C494.742 380.345 494.315 380.117 493.98 379.782C493.646 379.448 493.418 379.021 493.325 378.557C493.233 378.092 493.28 377.611 493.461 377.174C493.643 376.737 493.949 376.363 494.343 376.1C494.737 375.837 495.199 375.696 495.673 375.696C496.308 375.696 496.916 375.948 497.365 376.397C497.814 376.846 498.066 377.455 498.066 378.09V378.09Z" fill="#265EF2"/>
<path d="M507.502 370.124C507.502 370.597 507.362 371.06 507.099 371.454C506.836 371.847 506.462 372.154 506.024 372.335C505.587 372.517 505.106 372.564 504.641 372.472C504.177 372.379 503.751 372.151 503.416 371.817C503.081 371.482 502.853 371.055 502.761 370.591C502.668 370.127 502.716 369.645 502.897 369.208C503.078 368.771 503.385 368.397 503.779 368.134C504.172 367.871 504.635 367.73 505.108 367.73C505.743 367.73 506.352 367.983 506.801 368.432C507.25 368.88 507.502 369.489 507.502 370.124V370.124Z" fill="#265EF2"/>
<path d="M513.082 366.478C513.082 366.951 512.942 367.414 512.679 367.807C512.416 368.201 512.042 368.508 511.604 368.689C511.167 368.87 510.686 368.917 510.222 368.825C509.757 368.733 509.331 368.505 508.996 368.17C508.661 367.835 508.433 367.409 508.341 366.944C508.249 366.48 508.296 365.999 508.477 365.562C508.658 365.124 508.965 364.75 509.359 364.487C509.752 364.224 510.215 364.084 510.688 364.084C511.323 364.084 511.932 364.336 512.381 364.785C512.83 365.234 513.082 365.843 513.082 366.478V366.478Z" fill="#265EF2"/>
<path d="M522.706 364.612C522.706 365.086 522.566 365.548 522.303 365.942C522.04 366.336 521.666 366.642 521.228 366.824C520.791 367.005 520.31 367.052 519.846 366.96C519.381 366.867 518.955 366.64 518.62 366.305C518.285 365.97 518.057 365.544 517.965 365.079C517.873 364.615 517.92 364.134 518.101 363.696C518.282 363.259 518.589 362.885 518.983 362.622C519.376 362.359 519.839 362.219 520.312 362.219C520.947 362.219 521.556 362.471 522.005 362.92C522.454 363.369 522.706 363.977 522.706 364.612V364.612Z" fill="#265EF2"/>
<path d="M515.696 358.88C515.696 359.353 515.556 359.816 515.293 360.21C515.03 360.603 514.656 360.91 514.219 361.091C513.781 361.272 513.3 361.32 512.836 361.227C512.371 361.135 511.945 360.907 511.61 360.572C511.275 360.238 511.048 359.811 510.955 359.347C510.863 358.883 510.91 358.401 511.091 357.964C511.273 357.527 511.579 357.153 511.973 356.89C512.367 356.627 512.829 356.486 513.303 356.486C513.938 356.486 514.546 356.739 514.995 357.187C515.444 357.636 515.696 358.245 515.696 358.88V358.88Z" fill="#265EF2"/>
<path d="M507.974 356.85C507.974 357.323 507.833 357.786 507.57 358.179C507.307 358.573 506.933 358.88 506.496 359.061C506.059 359.242 505.577 359.29 505.113 359.197C504.649 359.105 504.222 358.877 503.888 358.542C503.553 358.207 503.325 357.781 503.233 357.317C503.14 356.852 503.188 356.371 503.369 355.934C503.55 355.496 503.857 355.122 504.25 354.859C504.644 354.596 505.107 354.456 505.58 354.456C506.215 354.456 506.824 354.708 507.273 355.157C507.721 355.606 507.974 356.215 507.974 356.85V356.85Z" fill="#265EF2"/>
<path d="M495.021 355.333C495.021 355.806 494.881 356.269 494.618 356.663C494.355 357.056 493.981 357.363 493.544 357.544C493.107 357.726 492.625 357.773 492.161 357.681C491.697 357.588 491.27 357.36 490.935 357.025C490.601 356.691 490.373 356.264 490.28 355.8C490.188 355.336 490.235 354.854 490.417 354.417C490.598 353.98 490.905 353.606 491.298 353.343C491.692 353.08 492.155 352.939 492.628 352.939C493.263 352.939 493.872 353.192 494.32 353.641C494.769 354.089 495.021 354.698 495.021 355.333V355.333Z" fill="#265EF2"/>
<path d="M513.473 354.441C513.473 354.915 513.332 355.378 513.069 355.771C512.806 356.165 512.432 356.472 511.995 356.653C511.558 356.834 511.076 356.881 510.612 356.789C510.148 356.697 509.721 356.469 509.387 356.134C509.052 355.799 508.824 355.373 508.732 354.908C508.639 354.444 508.687 353.963 508.868 353.525C509.049 353.088 509.356 352.714 509.749 352.451C510.143 352.188 510.606 352.048 511.079 352.048C511.714 352.048 512.323 352.3 512.772 352.749C513.22 353.198 513.473 353.807 513.473 354.441V354.441Z" fill="#265EF2"/>
<path d="M507.624 353.035C507.624 353.509 507.484 353.971 507.221 354.365C506.958 354.759 506.584 355.065 506.146 355.246C505.709 355.428 505.228 355.475 504.764 355.383C504.299 355.29 503.873 355.062 503.538 354.728C503.203 354.393 502.975 353.966 502.883 353.502C502.791 353.038 502.838 352.557 503.019 352.119C503.2 351.682 503.507 351.308 503.901 351.045C504.294 350.782 504.757 350.642 505.23 350.642C505.865 350.642 506.474 350.894 506.923 351.343C507.372 351.792 507.624 352.4 507.624 353.035V353.035Z" fill="#265EF2"/>
<path d="M523.663 350.012C523.663 350.485 523.523 350.948 523.26 351.341C522.997 351.735 522.623 352.042 522.185 352.223C521.748 352.404 521.267 352.452 520.803 352.359C520.338 352.267 519.912 352.039 519.577 351.704C519.242 351.369 519.014 350.943 518.922 350.479C518.83 350.014 518.877 349.533 519.058 349.096C519.239 348.658 519.546 348.285 519.94 348.022C520.333 347.759 520.796 347.618 521.27 347.618C521.904 347.618 522.513 347.87 522.962 348.319C523.411 348.768 523.663 349.377 523.663 350.012V350.012Z" fill="#265EF2"/>
<path d="M511.559 348.526C511.559 349 511.418 349.463 511.155 349.856C510.892 350.25 510.518 350.557 510.081 350.738C509.644 350.919 509.162 350.966 508.698 350.874C508.234 350.782 507.807 350.554 507.473 350.219C507.138 349.884 506.91 349.458 506.817 348.993C506.725 348.529 506.773 348.048 506.954 347.61C507.135 347.173 507.442 346.799 507.835 346.536C508.229 346.273 508.692 346.133 509.165 346.133C509.8 346.133 510.409 346.385 510.858 346.834C511.306 347.283 511.559 347.892 511.559 348.526V348.526Z" fill="#265EF2"/>
<path d="M498.77 346.687C498.77 347.161 498.629 347.624 498.366 348.017C498.103 348.411 497.729 348.718 497.292 348.899C496.855 349.08 496.373 349.127 495.909 349.035C495.445 348.943 495.018 348.715 494.683 348.38C494.349 348.045 494.121 347.619 494.028 347.154C493.936 346.69 493.983 346.209 494.165 345.772C494.346 345.334 494.653 344.96 495.046 344.697C495.44 344.434 495.903 344.294 496.376 344.294C497.011 344.294 497.62 344.546 498.068 344.995C498.517 345.444 498.77 346.053 498.77 346.687V346.687Z" fill="#265EF2"/>
<path d="M493.674 339.615C493.674 340.089 493.533 340.551 493.27 340.945C493.007 341.339 492.634 341.645 492.196 341.827C491.759 342.008 491.278 342.055 490.813 341.963C490.349 341.87 489.923 341.642 489.588 341.308C489.253 340.973 489.025 340.546 488.933 340.082C488.84 339.618 488.888 339.137 489.069 338.699C489.25 338.262 489.557 337.888 489.95 337.625C490.344 337.362 490.807 337.222 491.28 337.222C491.915 337.222 492.524 337.474 492.973 337.923C493.422 338.372 493.674 338.98 493.674 339.615V339.615Z" fill="#265EF2"/>
<path d="M525.494 336.469C525.494 336.942 525.354 337.405 525.091 337.799C524.828 338.192 524.454 338.499 524.017 338.68C523.579 338.861 523.098 338.909 522.634 338.816C522.169 338.724 521.743 338.496 521.408 338.161C521.073 337.826 520.845 337.4 520.753 336.936C520.661 336.471 520.708 335.99 520.889 335.553C521.07 335.115 521.377 334.742 521.771 334.479C522.164 334.216 522.627 334.075 523.101 334.075C523.735 334.075 524.344 334.327 524.793 334.776C525.242 335.225 525.494 335.834 525.494 336.469V336.469Z" fill="#265EF2"/>
<path d="M494.349 334.64C494.349 335.113 494.208 335.576 493.945 335.969C493.682 336.363 493.308 336.67 492.871 336.851C492.434 337.032 491.952 337.08 491.488 336.987C491.024 336.895 490.597 336.667 490.263 336.332C489.928 335.997 489.7 335.571 489.608 335.107C489.515 334.642 489.563 334.161 489.744 333.724C489.925 333.286 490.232 332.912 490.625 332.649C491.019 332.386 491.482 332.246 491.955 332.246C492.59 332.246 493.199 332.498 493.648 332.947C494.096 333.396 494.349 334.005 494.349 334.64V334.64Z" fill="#265EF2"/>
<path d="M527.273 333.378C527.273 333.851 527.133 334.314 526.87 334.708C526.607 335.101 526.233 335.408 525.796 335.589C525.358 335.77 524.877 335.818 524.413 335.725C523.949 335.633 523.522 335.405 523.187 335.07C522.853 334.736 522.625 334.309 522.532 333.845C522.44 333.381 522.487 332.899 522.669 332.462C522.85 332.025 523.156 331.651 523.55 331.388C523.944 331.125 524.406 330.984 524.88 330.984C525.515 330.984 526.123 331.237 526.572 331.685C527.021 332.134 527.273 332.743 527.273 333.378V333.378Z" fill="#265EF2"/>
<path d="M518.312 332.731C518.312 333.205 518.172 333.668 517.909 334.061C517.646 334.455 517.272 334.762 516.835 334.943C516.398 335.124 515.916 335.171 515.452 335.079C514.988 334.987 514.561 334.759 514.226 334.424C513.892 334.089 513.664 333.663 513.571 333.198C513.479 332.734 513.526 332.253 513.708 331.815C513.889 331.378 514.196 331.004 514.589 330.741C514.983 330.478 515.446 330.338 515.919 330.338C516.554 330.338 517.163 330.59 517.611 331.039C518.06 331.488 518.312 332.097 518.312 332.731V332.731Z" fill="#265EF2"/>
<path d="M506.584 329.062C506.584 329.535 506.444 329.998 506.181 330.391C505.918 330.785 505.544 331.092 505.106 331.273C504.669 331.454 504.188 331.501 503.723 331.409C503.259 331.317 502.833 331.089 502.498 330.754C502.163 330.419 501.935 329.993 501.843 329.528C501.751 329.064 501.798 328.583 501.979 328.146C502.16 327.708 502.467 327.334 502.861 327.071C503.254 326.808 503.717 326.668 504.19 326.668C504.825 326.668 505.434 326.92 505.883 327.369C506.332 327.818 506.584 328.427 506.584 329.062V329.062Z" fill="#265EF2"/>
<path d="M498.714 327.511C498.714 327.984 498.573 328.447 498.31 328.841C498.047 329.234 497.674 329.541 497.236 329.722C496.799 329.903 496.318 329.951 495.853 329.858C495.389 329.766 494.963 329.538 494.628 329.203C494.293 328.868 494.065 328.442 493.973 327.978C493.88 327.513 493.928 327.032 494.109 326.595C494.29 326.157 494.597 325.784 494.991 325.521C495.384 325.258 495.847 325.117 496.32 325.117C496.955 325.117 497.564 325.369 498.013 325.818C498.462 326.267 498.714 326.876 498.714 327.511V327.511Z" fill="#265EF2"/>
<path d="M525.199 327.197C525.199 327.671 525.059 328.133 524.796 328.527C524.533 328.921 524.159 329.227 523.722 329.409C523.284 329.59 522.803 329.637 522.339 329.545C521.874 329.452 521.448 329.224 521.113 328.89C520.778 328.555 520.55 328.129 520.458 327.664C520.366 327.2 520.413 326.719 520.594 326.281C520.775 325.844 521.082 325.47 521.476 325.207C521.869 324.944 522.332 324.804 522.806 324.804C523.44 324.804 524.049 325.056 524.498 325.505C524.947 325.954 525.199 326.562 525.199 327.197V327.197Z" fill="#265EF2"/>
<path d="M511.869 327.054C511.869 327.527 511.729 327.99 511.466 328.383C511.203 328.777 510.829 329.084 510.392 329.265C509.954 329.446 509.473 329.494 509.009 329.401C508.544 329.309 508.118 329.081 507.783 328.746C507.448 328.411 507.22 327.985 507.128 327.521C507.036 327.056 507.083 326.575 507.264 326.138C507.445 325.7 507.752 325.327 508.146 325.064C508.539 324.801 509.002 324.66 509.476 324.66C510.11 324.66 510.719 324.912 511.168 325.361C511.617 325.81 511.869 326.419 511.869 327.054V327.054Z" fill="#265EF2"/>
<path d="M522.151 322.624C522.151 323.097 522.011 323.56 521.748 323.954C521.485 324.347 521.111 324.654 520.674 324.835C520.236 325.017 519.755 325.064 519.291 324.972C518.827 324.879 518.4 324.651 518.065 324.317C517.731 323.982 517.503 323.555 517.41 323.091C517.318 322.627 517.365 322.145 517.546 321.708C517.728 321.271 518.034 320.897 518.428 320.634C518.822 320.371 519.284 320.23 519.758 320.23C520.393 320.23 521.001 320.483 521.45 320.932C521.899 321.38 522.151 321.989 522.151 322.624V322.624Z" fill="#265EF2"/>
<path d="M502.799 318.431C502.799 318.904 502.658 319.367 502.395 319.76C502.132 320.154 501.759 320.461 501.321 320.642C500.884 320.823 500.403 320.871 499.938 320.778C499.474 320.686 499.048 320.458 498.713 320.123C498.378 319.788 498.15 319.362 498.058 318.898C497.965 318.433 498.013 317.952 498.194 317.515C498.375 317.077 498.682 316.704 499.075 316.44C499.469 316.177 499.932 316.037 500.405 316.037C501.04 316.037 501.649 316.289 502.098 316.738C502.547 317.187 502.799 317.796 502.799 318.431V318.431Z" fill="#265EF2"/>
<path d="M521.196 318.096C521.196 318.569 521.056 319.032 520.793 319.425C520.53 319.819 520.156 320.126 519.719 320.307C519.281 320.488 518.8 320.536 518.336 320.443C517.871 320.351 517.445 320.123 517.11 319.788C516.775 319.453 516.548 319.027 516.455 318.563C516.363 318.098 516.41 317.617 516.591 317.18C516.773 316.742 517.079 316.369 517.473 316.106C517.867 315.843 518.329 315.702 518.803 315.702C519.438 315.702 520.046 315.954 520.495 316.403C520.944 316.852 521.196 317.461 521.196 318.096V318.096Z" fill="#265EF2"/>
<path d="M512.636 317.449C512.636 317.923 512.495 318.385 512.232 318.779C511.969 319.173 511.596 319.479 511.158 319.661C510.721 319.842 510.24 319.889 509.775 319.797C509.311 319.704 508.884 319.476 508.55 319.142C508.215 318.807 507.987 318.38 507.895 317.916C507.802 317.452 507.85 316.971 508.031 316.533C508.212 316.096 508.519 315.722 508.912 315.459C509.306 315.196 509.769 315.056 510.242 315.056C510.877 315.056 511.486 315.308 511.935 315.757C512.384 316.206 512.636 316.814 512.636 317.449V317.449Z" fill="#265EF2"/>
<path d="M509.495 285.746C509.495 286.219 509.355 286.682 509.092 287.076C508.829 287.469 508.455 287.776 508.018 287.957C507.58 288.139 507.099 288.186 506.635 288.094C506.17 288.001 505.744 287.773 505.409 287.439C505.074 287.104 504.846 286.677 504.754 286.213C504.662 285.749 504.709 285.267 504.89 284.83C505.071 284.393 505.378 284.019 505.772 283.756C506.165 283.493 506.628 283.353 507.102 283.353C507.736 283.353 508.345 283.605 508.794 284.054C509.243 284.502 509.495 285.111 509.495 285.746V285.746Z" fill="#265EF2"/>
<path d="M503.796 259.775C503.796 260.249 503.656 260.712 503.393 261.105C503.129 261.499 502.756 261.806 502.318 261.987C501.881 262.168 501.4 262.215 500.935 262.123C500.471 262.031 500.045 261.803 499.71 261.468C499.375 261.133 499.147 260.707 499.055 260.242C498.962 259.778 499.01 259.297 499.191 258.859C499.372 258.422 499.679 258.048 500.073 257.785C500.466 257.522 500.929 257.382 501.402 257.382C502.037 257.382 502.646 257.634 503.095 258.083C503.544 258.532 503.796 259.141 503.796 259.775V259.775Z" fill="#265EF2"/>
<path d="M509.82 258.503C509.82 258.976 509.68 259.439 509.417 259.833C509.154 260.226 508.78 260.533 508.343 260.714C507.905 260.895 507.424 260.943 506.96 260.85C506.495 260.758 506.069 260.53 505.734 260.195C505.4 259.861 505.172 259.434 505.079 258.97C504.987 258.506 505.034 258.024 505.215 257.587C505.397 257.15 505.703 256.776 506.097 256.513C506.491 256.25 506.953 256.109 507.427 256.109C508.062 256.109 508.67 256.362 509.119 256.81C509.568 257.259 509.82 257.868 509.82 258.503V258.503Z" fill="#265EF2"/>
<path d="M519.391 247.873C519.391 248.346 519.25 248.809 518.987 249.203C518.724 249.596 518.35 249.903 517.913 250.084C517.476 250.266 516.994 250.313 516.53 250.221C516.066 250.128 515.639 249.9 515.305 249.566C514.97 249.231 514.742 248.804 514.65 248.34C514.557 247.876 514.605 247.394 514.786 246.957C514.967 246.52 515.274 246.146 515.667 245.883C516.061 245.62 516.524 245.479 516.997 245.479C517.632 245.479 518.241 245.732 518.69 246.181C519.138 246.629 519.391 247.238 519.391 247.873V247.873Z" fill="#265EF2"/>
<path d="M511.6 228.685C511.6 229.158 511.459 229.621 511.196 230.014C510.933 230.408 510.559 230.715 510.122 230.896C509.685 231.077 509.203 231.124 508.739 231.032C508.275 230.94 507.848 230.712 507.514 230.377C507.179 230.042 506.951 229.616 506.858 229.152C506.766 228.687 506.814 228.206 506.995 227.769C507.176 227.331 507.483 226.957 507.876 226.694C508.27 226.431 508.733 226.291 509.206 226.291C509.841 226.291 510.45 226.543 510.899 226.992C511.347 227.441 511.6 228.05 511.6 228.685V228.685Z" fill="#265EF2"/>
<path d="M324.607 327.818H410.787V274.271H324.607V327.818ZM324.608 208.532H410.787Z" fill="url(#paint5_linear_223_9627)"/>
<path d="M324.607 295.4H410.787M367.697 327.818V407.323M367.697 274.271V208.532M324.608 407.323H410.787M324.608 208.532H410.787M324.607 327.818H410.787V274.271H324.607V327.818Z" stroke="url(#paint6_linear_223_9627)" stroke-width="2" style="mix-blend-mode:lighten"/>
<path d="M279.913 406.37C279.913 406.844 279.773 407.306 279.51 407.7C279.247 408.094 278.873 408.4 278.435 408.581C277.998 408.763 277.517 408.81 277.053 408.718C276.588 408.625 276.162 408.397 275.827 408.063C275.492 407.728 275.264 407.301 275.172 406.837C275.08 406.373 275.127 405.892 275.308 405.454C275.489 405.017 275.796 404.643 276.19 404.38C276.583 404.117 277.046 403.977 277.52 403.977C278.154 403.977 278.763 404.229 279.212 404.678C279.661 405.126 279.913 405.735 279.913 406.37V406.37Z" fill="#C60E50" style="mix-blend-mode:lighten"/>
<path d="M269.603 382.162C269.603 382.636 269.462 383.098 269.199 383.492C268.936 383.886 268.562 384.192 268.125 384.373C267.688 384.555 267.206 384.602 266.742 384.51C266.278 384.417 265.851 384.189 265.516 383.855C265.182 383.52 264.954 383.093 264.861 382.629C264.769 382.165 264.816 381.683 264.998 381.246C265.179 380.809 265.486 380.435 265.879 380.172C266.273 379.909 266.736 379.769 267.209 379.769C267.844 379.769 268.453 380.021 268.901 380.47C269.35 380.918 269.603 381.527 269.603 382.162V382.162Z" fill="#C60E50" style="mix-blend-mode:lighten"/>
<path d="M282.998 379.943C282.998 380.417 282.858 380.88 282.595 381.273C282.332 381.667 281.958 381.974 281.52 382.155C281.083 382.336 280.602 382.383 280.138 382.291C279.673 382.199 279.247 381.971 278.912 381.636C278.577 381.301 278.349 380.875 278.257 380.41C278.165 379.946 278.212 379.465 278.393 379.027C278.574 378.59 278.881 378.216 279.275 377.953C279.668 377.69 280.131 377.55 280.604 377.55C281.239 377.55 281.848 377.802 282.297 378.251C282.746 378.7 282.998 379.309 282.998 379.943V379.943Z" fill="#C60E50" style="mix-blend-mode:lighten"/>
<path d="M266.648 374.543C266.648 375.016 266.508 375.479 266.245 375.873C265.982 376.266 265.608 376.573 265.171 376.754C264.733 376.935 264.252 376.983 263.788 376.891C263.324 376.798 262.897 376.57 262.562 376.235C262.228 375.901 262 375.474 261.907 375.01C261.815 374.546 261.862 374.064 262.044 373.627C262.225 373.19 262.531 372.816 262.925 372.553C263.319 372.29 263.781 372.149 264.255 372.149C264.89 372.149 265.498 372.402 265.947 372.85C266.396 373.299 266.648 373.908 266.648 374.543V374.543Z" fill="#C60E50" style="mix-blend-mode:lighten"/>
<path d="M272.714 365.116C272.714 365.59 272.573 366.052 272.31 366.446C272.047 366.84 271.674 367.146 271.236 367.328C270.799 367.509 270.318 367.556 269.853 367.464C269.389 367.371 268.963 367.143 268.628 366.809C268.293 366.474 268.065 366.047 267.973 365.583C267.88 365.119 267.928 364.638 268.109 364.2C268.29 363.763 268.597 363.389 268.991 363.126C269.384 362.863 269.847 362.723 270.32 362.723C270.955 362.723 271.564 362.975 272.013 363.424C272.462 363.873 272.714 364.481 272.714 365.116V365.116Z" fill="#C60E50" style="mix-blend-mode:lighten"/>
<path d="M281.005 348.584C281.005 349.057 280.864 349.52 280.601 349.914C280.338 350.307 279.965 350.614 279.527 350.795C279.09 350.976 278.609 351.024 278.144 350.932C277.68 350.839 277.254 350.611 276.919 350.276C276.584 349.942 276.356 349.515 276.264 349.051C276.171 348.587 276.219 348.105 276.4 347.668C276.581 347.231 276.888 346.857 277.282 346.594C277.675 346.331 278.138 346.19 278.611 346.19C279.246 346.19 279.855 346.443 280.304 346.891C280.753 347.34 281.005 347.949 281.005 348.584V348.584Z" fill="#C60E50" style="mix-blend-mode:lighten"/>
<path d="M274.952 343.776C274.952 344.25 274.812 344.713 274.549 345.106C274.286 345.5 273.912 345.807 273.475 345.988C273.037 346.169 272.556 346.216 272.092 346.124C271.627 346.032 271.201 345.804 270.866 345.469C270.531 345.134 270.303 344.708 270.211 344.243C270.119 343.779 270.166 343.298 270.347 342.86C270.528 342.423 270.835 342.049 271.229 341.786C271.622 341.523 272.085 341.383 272.559 341.383C273.193 341.383 273.802 341.635 274.251 342.084C274.7 342.533 274.952 343.142 274.952 343.776V343.776Z" fill="#C60E50" style="mix-blend-mode:lighten"/>
<path d="M279.102 342.883C279.102 343.356 278.961 343.819 278.698 344.213C278.435 344.606 278.061 344.913 277.624 345.094C277.187 345.275 276.705 345.323 276.241 345.23C275.777 345.138 275.35 344.91 275.016 344.575C274.681 344.241 274.453 343.814 274.36 343.35C274.268 342.885 274.315 342.404 274.497 341.967C274.678 341.529 274.985 341.156 275.378 340.893C275.772 340.63 276.235 340.489 276.708 340.489C277.343 340.489 277.952 340.741 278.4 341.19C278.849 341.639 279.102 342.248 279.102 342.883V342.883Z" fill="#C60E50" style="mix-blend-mode:lighten"/>
<path d="M271.258 341.856C271.258 342.33 271.117 342.793 270.854 343.186C270.591 343.58 270.218 343.887 269.78 344.068C269.343 344.249 268.862 344.296 268.397 344.204C267.933 344.112 267.507 343.884 267.172 343.549C266.837 343.214 266.609 342.788 266.517 342.323C266.424 341.859 266.472 341.378 266.653 340.94C266.834 340.503 267.141 340.129 267.534 339.866C267.928 339.603 268.391 339.463 268.864 339.463C269.499 339.463 270.108 339.715 270.557 340.164C271.006 340.613 271.258 341.222 271.258 341.856V341.856Z" fill="#C60E50" style="mix-blend-mode:lighten"/>
<path d="M265.018 341.209C265.018 341.682 264.877 342.145 264.614 342.539C264.351 342.932 263.977 343.239 263.54 343.42C263.103 343.601 262.621 343.649 262.157 343.557C261.693 343.464 261.266 343.236 260.932 342.901C260.597 342.567 260.369 342.14 260.276 341.676C260.184 341.212 260.232 340.73 260.413 340.293C260.594 339.856 260.901 339.482 261.294 339.219C261.688 338.956 262.151 338.815 262.624 338.815C263.259 338.815 263.868 339.068 264.317 339.516C264.765 339.965 265.018 340.574 265.018 341.209V341.209Z" fill="#C60E50" style="mix-blend-mode:lighten"/>
<path d="M280.071 329.977C280.071 330.45 279.931 330.913 279.668 331.306C279.405 331.7 279.031 332.007 278.594 332.188C278.156 332.369 277.675 332.416 277.211 332.324C276.746 332.232 276.32 332.004 275.985 331.669C275.65 331.334 275.423 330.908 275.33 330.444C275.238 329.979 275.285 329.498 275.466 329.061C275.648 328.623 275.954 328.249 276.348 327.986C276.742 327.723 277.204 327.583 277.678 327.583C278.313 327.583 278.921 327.835 279.37 328.284C279.819 328.733 280.071 329.342 280.071 329.977V329.977Z" fill="#C60E50" style="mix-blend-mode:lighten"/>
<path d="M269.465 326.975C269.465 327.448 269.324 327.911 269.061 328.304C268.798 328.698 268.425 329.005 267.987 329.186C267.55 329.367 267.069 329.415 266.604 329.322C266.14 329.23 265.714 329.002 265.379 328.667C265.044 328.332 264.816 327.906 264.724 327.442C264.631 326.977 264.679 326.496 264.86 326.059C265.041 325.621 265.348 325.247 265.741 324.984C266.135 324.721 266.598 324.581 267.071 324.581C267.706 324.581 268.315 324.833 268.764 325.282C269.213 325.731 269.465 326.34 269.465 326.975V326.975Z" fill="#C60E50" style="mix-blend-mode:lighten"/>
<path d="M286.649 326.508C286.649 326.981 286.509 327.444 286.246 327.838C285.983 328.231 285.609 328.538 285.172 328.719C284.734 328.9 284.253 328.948 283.789 328.855C283.325 328.763 282.898 328.535 282.563 328.2C282.229 327.866 282.001 327.439 281.908 326.975C281.816 326.51 281.863 326.029 282.045 325.592C282.226 325.154 282.532 324.781 282.926 324.518C283.32 324.255 283.782 324.114 284.256 324.114C284.891 324.114 285.499 324.366 285.948 324.815C286.397 325.264 286.649 325.873 286.649 326.508V326.508Z" fill="#C60E50" style="mix-blend-mode:lighten"/>
<path d="M259.681 323.272C259.681 323.746 259.54 324.209 259.277 324.602C259.014 324.996 258.64 325.303 258.203 325.484C257.766 325.665 257.284 325.712 256.82 325.62C256.356 325.528 255.929 325.3 255.595 324.965C255.26 324.63 255.032 324.204 254.94 323.739C254.847 323.275 254.895 322.794 255.076 322.356C255.257 321.919 255.564 321.545 255.957 321.282C256.351 321.019 256.814 320.879 257.287 320.879C257.922 320.879 258.531 321.131 258.98 321.58C259.428 322.029 259.681 322.638 259.681 323.272V323.272Z" fill="#C60E50" style="mix-blend-mode:lighten"/>
<path d="M266.219 322.056C266.219 322.529 266.078 322.992 265.815 323.385C265.552 323.779 265.179 324.086 264.741 324.267C264.304 324.448 263.823 324.496 263.358 324.403C262.894 324.311 262.467 324.083 262.133 323.748C261.798 323.413 261.57 322.987 261.478 322.523C261.385 322.058 261.433 321.577 261.614 321.14C261.795 320.702 262.102 320.329 262.495 320.065C262.889 319.802 263.352 319.662 263.825 319.662C264.46 319.662 265.069 319.914 265.518 320.363C265.967 320.812 266.219 321.421 266.219 322.056V322.056Z" fill="#C60E50" style="mix-blend-mode:lighten"/>
<path d="M291.504 320.048C291.504 320.521 291.364 320.984 291.101 321.378C290.838 321.771 290.464 322.078 290.026 322.259C289.589 322.44 289.108 322.488 288.643 322.395C288.179 322.303 287.753 322.075 287.418 321.74C287.083 321.406 286.855 320.979 286.763 320.515C286.67 320.05 286.718 319.569 286.899 319.132C287.08 318.695 287.387 318.321 287.781 318.058C288.174 317.795 288.637 317.654 289.11 317.654C289.745 317.654 290.354 317.906 290.803 318.355C291.252 318.804 291.504 319.413 291.504 320.048V320.048Z" fill="#C60E50" style="mix-blend-mode:lighten"/>
<path d="M270.624 317.227C270.624 317.7 270.484 318.163 270.221 318.556C269.958 318.95 269.584 319.257 269.146 319.438C268.709 319.619 268.228 319.666 267.764 319.574C267.299 319.482 266.873 319.254 266.538 318.919C266.203 318.584 265.975 318.158 265.883 317.694C265.791 317.229 265.838 316.748 266.019 316.311C266.2 315.873 266.507 315.499 266.901 315.236C267.294 314.973 267.757 314.833 268.23 314.833C268.865 314.833 269.474 315.085 269.923 315.534C270.372 315.983 270.624 316.592 270.624 317.227V317.227Z" fill="#C60E50" style="mix-blend-mode:lighten"/>
<path d="M261.232 315.297C261.232 315.77 261.092 316.233 260.829 316.627C260.566 317.02 260.192 317.327 259.755 317.508C259.317 317.689 258.836 317.737 258.372 317.644C257.908 317.552 257.481 317.324 257.146 316.989C256.812 316.655 256.584 316.228 256.491 315.764C256.399 315.3 256.446 314.818 256.628 314.381C256.809 313.944 257.115 313.57 257.509 313.307C257.903 313.044 258.365 312.903 258.839 312.903C259.474 312.903 260.082 313.155 260.531 313.604C260.98 314.053 261.232 314.662 261.232 315.297V315.297Z" fill="#C60E50" style="mix-blend-mode:lighten"/>
<path d="M269.681 308.703C269.681 309.177 269.54 309.639 269.277 310.033C269.014 310.427 268.64 310.733 268.203 310.914C267.766 311.096 267.284 311.143 266.82 311.051C266.356 310.958 265.929 310.73 265.595 310.396C265.26 310.061 265.032 309.634 264.94 309.17C264.847 308.706 264.895 308.225 265.076 307.787C265.257 307.35 265.564 306.976 265.957 306.713C266.351 306.45 266.814 306.31 267.287 306.31C267.922 306.31 268.531 306.562 268.98 307.011C269.428 307.46 269.681 308.068 269.681 308.703V308.703Z" fill="#C60E50" style="mix-blend-mode:lighten"/>
<path d="M275.047 306.896C275.047 307.369 274.906 307.832 274.643 308.225C274.38 308.619 274.007 308.926 273.569 309.107C273.132 309.288 272.651 309.335 272.186 309.243C271.722 309.151 271.296 308.923 270.961 308.588C270.626 308.253 270.398 307.827 270.306 307.362C270.213 306.898 270.261 306.417 270.442 305.98C270.623 305.542 270.93 305.168 271.324 304.905C271.717 304.642 272.18 304.502 272.653 304.502C273.288 304.502 273.897 304.754 274.346 305.203C274.795 305.652 275.047 306.261 275.047 306.896V306.896Z" fill="#C60E50" style="mix-blend-mode:lighten"/>
<path d="M283.523 303.772C283.523 304.246 283.383 304.709 283.12 305.102C282.857 305.496 282.483 305.803 282.046 305.984C281.608 306.165 281.127 306.212 280.663 306.12C280.199 306.028 279.772 305.8 279.437 305.465C279.103 305.13 278.875 304.704 278.782 304.239C278.69 303.775 278.737 303.294 278.919 302.856C279.1 302.419 279.406 302.045 279.8 301.782C280.194 301.519 280.656 301.379 281.13 301.379C281.765 301.379 282.373 301.631 282.822 302.08C283.271 302.529 283.523 303.138 283.523 303.772V303.772Z" fill="#C60E50" style="mix-blend-mode:lighten"/>
<path d="M277.443 303.147C277.443 303.621 277.303 304.084 277.04 304.477C276.777 304.871 276.403 305.178 275.966 305.359C275.528 305.54 275.047 305.587 274.583 305.495C274.119 305.403 273.692 305.175 273.357 304.84C273.023 304.505 272.795 304.079 272.702 303.614C272.61 303.15 272.657 302.669 272.838 302.231C273.02 301.794 273.326 301.42 273.72 301.157C274.114 300.894 274.576 300.754 275.05 300.754C275.685 300.754 276.293 301.006 276.742 301.455C277.191 301.904 277.443 302.513 277.443 303.147V303.147Z" fill="#C60E50" style="mix-blend-mode:lighten"/>
<path d="M270.275 294.737C270.275 295.211 270.135 295.673 269.872 296.067C269.609 296.461 269.235 296.767 268.798 296.949C268.36 297.13 267.879 297.177 267.415 297.085C266.951 296.992 266.524 296.765 266.189 296.43C265.855 296.095 265.627 295.669 265.534 295.204C265.442 294.74 265.489 294.259 265.67 293.821C265.852 293.384 266.158 293.01 266.552 292.747C266.946 292.484 267.408 292.344 267.882 292.344C268.517 292.344 269.125 292.596 269.574 293.045C270.023 293.494 270.275 294.102 270.275 294.737V294.737Z" fill="#C60E50" style="mix-blend-mode:lighten"/>
<path d="M257.862 294.446C257.862 294.92 257.722 295.382 257.459 295.776C257.196 296.17 256.822 296.476 256.385 296.658C255.947 296.839 255.466 296.886 255.002 296.794C254.537 296.701 254.111 296.474 253.776 296.139C253.442 295.804 253.214 295.378 253.121 294.913C253.029 294.449 253.076 293.968 253.257 293.53C253.439 293.093 253.745 292.719 254.139 292.456C254.533 292.193 254.995 292.053 255.469 292.053C256.104 292.053 256.712 292.305 257.161 292.754C257.61 293.203 257.862 293.811 257.862 294.446V294.446Z" fill="#C60E50" style="mix-blend-mode:lighten"/>
<path d="M275.355 293.598C275.355 294.071 275.215 294.534 274.952 294.927C274.689 295.321 274.315 295.628 273.878 295.809C273.441 295.99 272.959 296.038 272.495 295.945C272.031 295.853 271.604 295.625 271.269 295.29C270.935 294.955 270.707 294.529 270.614 294.065C270.522 293.6 270.569 293.119 270.751 292.682C270.932 292.244 271.239 291.87 271.632 291.607C272.026 291.344 272.489 291.204 272.962 291.204C273.597 291.204 274.206 291.456 274.654 291.905C275.103 292.354 275.355 292.963 275.355 293.598V293.598Z" fill="#C60E50" style="mix-blend-mode:lighten"/>
<path d="M268.577 293.397C268.577 293.871 268.437 294.334 268.174 294.727C267.911 295.121 267.537 295.428 267.1 295.609C266.662 295.79 266.181 295.837 265.717 295.745C265.252 295.653 264.826 295.425 264.491 295.09C264.156 294.755 263.928 294.329 263.836 293.864C263.744 293.4 263.791 292.919 263.972 292.481C264.153 292.044 264.46 291.67 264.854 291.407C265.247 291.144 265.71 291.004 266.184 291.004C266.818 291.004 267.427 291.256 267.876 291.705C268.325 292.154 268.577 292.763 268.577 293.397V293.397Z" fill="#C60E50" style="mix-blend-mode:lighten"/>
<path d="M286.031 291.301C286.031 291.774 285.891 292.237 285.628 292.631C285.365 293.024 284.991 293.331 284.554 293.512C284.116 293.693 283.635 293.741 283.171 293.648C282.706 293.556 282.28 293.328 281.945 292.993C281.61 292.659 281.382 292.232 281.29 291.768C281.198 291.303 281.245 290.822 281.426 290.385C281.608 289.947 281.914 289.574 282.308 289.311C282.702 289.048 283.164 288.907 283.638 288.907C284.272 288.907 284.881 289.159 285.33 289.608C285.779 290.057 286.031 290.666 286.031 291.301V291.301Z" fill="#C60E50" style="mix-blend-mode:lighten"/>
<path d="M273.119 289.126C273.119 289.599 272.979 290.062 272.716 290.456C272.453 290.849 272.079 291.156 271.642 291.337C271.204 291.518 270.723 291.566 270.259 291.474C269.794 291.381 269.368 291.153 269.033 290.818C268.698 290.484 268.47 290.057 268.378 289.593C268.286 289.129 268.333 288.647 268.514 288.21C268.695 287.773 269.002 287.399 269.396 287.136C269.789 286.873 270.252 286.732 270.726 286.732C271.36 286.732 271.969 286.985 272.418 287.433C272.867 287.882 273.119 288.491 273.119 289.126V289.126Z" fill="#C60E50" style="mix-blend-mode:lighten"/>
<path d="M259.276 289.047C259.276 289.52 259.136 289.983 258.873 290.377C258.61 290.77 258.236 291.077 257.799 291.258C257.361 291.439 256.88 291.487 256.416 291.394C255.952 291.302 255.525 291.074 255.19 290.739C254.856 290.405 254.628 289.978 254.535 289.514C254.443 289.05 254.49 288.568 254.671 288.131C254.853 287.694 255.159 287.32 255.553 287.057C255.947 286.794 256.409 286.653 256.883 286.653C257.518 286.653 258.126 286.905 258.575 287.354C259.024 287.803 259.276 288.412 259.276 289.047V289.047Z" fill="#C60E50" style="mix-blend-mode:lighten"/>
<path d="M254.788 288.065C254.788 288.539 254.648 289.002 254.385 289.395C254.122 289.789 253.748 290.096 253.31 290.277C252.873 290.458 252.392 290.505 251.928 290.413C251.463 290.321 251.037 290.093 250.702 289.758C250.367 289.423 250.139 288.997 250.047 288.532C249.955 288.068 250.002 287.587 250.183 287.149C250.364 286.712 250.671 286.338 251.065 286.075C251.458 285.812 251.921 285.672 252.395 285.672C253.029 285.672 253.638 285.924 254.087 286.373C254.536 286.822 254.788 287.431 254.788 288.065V288.065Z" fill="#C60E50" style="mix-blend-mode:lighten"/>
<path d="M286.895 287.92C286.895 288.393 286.755 288.856 286.492 289.25C286.229 289.643 285.855 289.95 285.418 290.131C284.981 290.312 284.499 290.36 284.035 290.267C283.571 290.175 283.144 289.947 282.809 289.612C282.475 289.278 282.247 288.851 282.154 288.387C282.062 287.923 282.109 287.441 282.291 287.004C282.472 286.567 282.779 286.193 283.172 285.93C283.566 285.667 284.029 285.526 284.502 285.526C285.137 285.526 285.746 285.779 286.194 286.227C286.643 286.676 286.895 287.285 286.895 287.92V287.92Z" fill="#C60E50" style="mix-blend-mode:lighten"/>
<path d="M258.063 286.492C258.063 286.966 257.923 287.428 257.66 287.822C257.397 288.216 257.023 288.522 256.586 288.704C256.149 288.885 255.667 288.932 255.203 288.84C254.739 288.747 254.312 288.519 253.977 288.185C253.643 287.85 253.415 287.423 253.322 286.959C253.23 286.495 253.277 286.014 253.459 285.576C253.64 285.139 253.947 284.765 254.34 284.502C254.734 284.239 255.197 284.099 255.67 284.099C256.305 284.099 256.914 284.351 257.362 284.8C257.811 285.249 258.063 285.857 258.063 286.492V286.492Z" fill="#C60E50" style="mix-blend-mode:lighten"/>
<path d="M287.203 281.774C287.203 282.248 287.063 282.711 286.8 283.104C286.537 283.498 286.163 283.805 285.726 283.986C285.288 284.167 284.807 284.214 284.343 284.122C283.878 284.03 283.452 283.802 283.117 283.467C282.782 283.132 282.554 282.706 282.462 282.241C282.37 281.777 282.417 281.296 282.598 280.858C282.779 280.421 283.086 280.047 283.48 279.784C283.873 279.521 284.336 279.381 284.81 279.381C285.444 279.381 286.053 279.633 286.502 280.082C286.951 280.531 287.203 281.14 287.203 281.774V281.774Z" fill="#C60E50" style="mix-blend-mode:lighten"/>
<path d="M278.981 280.189C278.981 280.663 278.841 281.126 278.578 281.519C278.315 281.913 277.941 282.22 277.504 282.401C277.066 282.582 276.585 282.629 276.121 282.537C275.657 282.445 275.23 282.217 274.895 281.882C274.561 281.547 274.333 281.121 274.24 280.656C274.148 280.192 274.195 279.711 274.377 279.273C274.558 278.836 274.864 278.462 275.258 278.199C275.652 277.936 276.114 277.796 276.588 277.796C277.223 277.796 277.832 278.048 278.28 278.497C278.729 278.946 278.981 279.555 278.981 280.189V280.189Z" fill="#C60E50" style="mix-blend-mode:lighten"/>
<path d="M270.801 275.862C270.801 276.336 270.66 276.798 270.397 277.192C270.134 277.586 269.761 277.892 269.323 278.074C268.886 278.255 268.405 278.302 267.94 278.21C267.476 278.117 267.049 277.89 266.715 277.555C266.38 277.22 266.152 276.794 266.06 276.329C265.967 275.865 266.015 275.384 266.196 274.946C266.377 274.509 266.684 274.135 267.077 273.872C267.471 273.609 267.934 273.469 268.407 273.469C269.042 273.469 269.651 273.721 270.1 274.17C270.549 274.619 270.801 275.227 270.801 275.862V275.862Z" fill="#C60E50" style="mix-blend-mode:lighten"/>
<path d="M268.279 272.472C268.279 272.945 268.139 273.408 267.876 273.801C267.613 274.195 267.239 274.502 266.802 274.683C266.364 274.864 265.883 274.912 265.419 274.819C264.954 274.727 264.528 274.499 264.193 274.164C263.858 273.829 263.631 273.403 263.538 272.939C263.446 272.474 263.493 271.993 263.674 271.556C263.856 271.118 264.162 270.745 264.556 270.482C264.95 270.219 265.412 270.078 265.886 270.078C266.521 270.078 267.129 270.33 267.578 270.779C268.027 271.228 268.279 271.837 268.279 272.472Z" fill="#C60E50" style="mix-blend-mode:lighten"/>
<path d="M280.895 270.295C280.895 270.768 280.755 271.231 280.492 271.625C280.229 272.018 279.855 272.325 279.418 272.506C278.981 272.687 278.499 272.735 278.035 272.642C277.571 272.55 277.144 272.322 276.809 271.987C276.475 271.653 276.247 271.226 276.154 270.762C276.062 270.298 276.109 269.816 276.291 269.379C276.472 268.942 276.779 268.568 277.172 268.305C277.566 268.042 278.029 267.901 278.502 267.901C279.137 267.901 279.746 268.154 280.194 268.602C280.643 269.051 280.895 269.66 280.895 270.295V270.295Z" fill="#C60E50" style="mix-blend-mode:lighten"/>
<path d="M274.224 267.094C274.224 267.567 274.083 268.03 273.82 268.424C273.557 268.817 273.183 269.124 272.746 269.305C272.309 269.486 271.827 269.534 271.363 269.441C270.899 269.349 270.472 269.121 270.138 268.786C269.803 268.451 269.575 268.025 269.483 267.561C269.39 267.096 269.438 266.615 269.619 266.178C269.8 265.74 270.107 265.367 270.5 265.104C270.894 264.841 271.357 264.7 271.83 264.7C272.465 264.7 273.074 264.952 273.523 265.401C273.971 265.85 274.224 266.459 274.224 267.094V267.094Z" fill="#C60E50" style="mix-blend-mode:lighten"/>
<path d="M282.918 256.484C282.918 256.958 282.778 257.421 282.515 257.814C282.252 258.208 281.878 258.515 281.44 258.696C281.003 258.877 280.522 258.924 280.057 258.832C279.593 258.74 279.167 258.512 278.832 258.177C278.497 257.842 278.269 257.416 278.177 256.951C278.084 256.487 278.132 256.006 278.313 255.568C278.494 255.131 278.801 254.757 279.195 254.494C279.588 254.231 280.051 254.091 280.524 254.091C281.159 254.091 281.768 254.343 282.217 254.792C282.666 255.241 282.918 255.85 282.918 256.484V256.484Z" fill="#C60E50" style="mix-blend-mode:lighten"/>
<path d="M267.351 251.865C267.351 252.339 267.21 252.801 266.947 253.195C266.684 253.589 266.31 253.895 265.873 254.077C265.436 254.258 264.954 254.305 264.49 254.213C264.026 254.12 263.599 253.892 263.265 253.558C262.93 253.223 262.702 252.796 262.609 252.332C262.517 251.868 262.565 251.387 262.746 250.949C262.927 250.512 263.234 250.138 263.627 249.875C264.021 249.612 264.484 249.472 264.957 249.472C265.592 249.472 266.201 249.724 266.65 250.173C267.098 250.622 267.351 251.23 267.351 251.865V251.865Z" fill="#C60E50" style="mix-blend-mode:lighten"/>
<path d="M281.354 228.283C281.354 228.757 281.214 229.219 280.951 229.613C280.688 230.007 280.314 230.313 279.877 230.495C279.44 230.676 278.958 230.723 278.494 230.631C278.03 230.538 277.603 230.31 277.268 229.976C276.934 229.641 276.706 229.214 276.613 228.75C276.521 228.286 276.568 227.805 276.75 227.367C276.931 226.93 277.238 226.556 277.631 226.293C278.025 226.03 278.488 225.89 278.961 225.89C279.596 225.89 280.205 226.142 280.653 226.591C281.102 227.04 281.354 227.648 281.354 228.283V228.283Z" fill="#C60E50" style="mix-blend-mode:lighten"/>
<path d="M274.643 227.904C274.643 228.378 274.502 228.84 274.239 229.234C273.976 229.628 273.602 229.934 273.165 230.116C272.728 230.297 272.246 230.344 271.782 230.252C271.318 230.159 270.891 229.932 270.557 229.597C270.222 229.262 269.994 228.836 269.901 228.371C269.809 227.907 269.857 227.426 270.038 226.988C270.219 226.551 270.526 226.177 270.919 225.914C271.313 225.651 271.776 225.511 272.249 225.511C272.884 225.511 273.493 225.763 273.942 226.212C274.39 226.661 274.643 227.269 274.643 227.904V227.904Z" fill="#C60E50" style="mix-blend-mode:lighten"/>
<path d="M271.906 211.829C271.906 212.302 271.766 212.765 271.503 213.159C271.24 213.552 270.866 213.859 270.429 214.04C269.991 214.222 269.51 214.269 269.046 214.177C268.581 214.084 268.155 213.856 267.82 213.522C267.485 213.187 267.257 212.76 267.165 212.296C267.073 211.832 267.12 211.35 267.301 210.913C267.483 210.476 267.789 210.102 268.183 209.839C268.577 209.576 269.039 209.436 269.513 209.436C270.147 209.436 270.756 209.688 271.205 210.137C271.654 210.585 271.906 211.194 271.906 211.829V211.829Z" fill="#C60E50" style="mix-blend-mode:lighten"/>
<path d="M266.639 207.579C266.639 208.052 266.498 208.515 266.235 208.909C265.972 209.302 265.598 209.609 265.161 209.79C264.724 209.972 264.242 210.019 263.778 209.927C263.314 209.834 262.887 209.606 262.553 209.272C262.218 208.937 261.99 208.51 261.898 208.046C261.805 207.582 261.853 207.1 262.034 206.663C262.215 206.226 262.522 205.852 262.915 205.589C263.309 205.326 263.772 205.186 264.245 205.186C264.88 205.186 265.489 205.438 265.938 205.887C266.386 206.335 266.639 206.944 266.639 207.579V207.579Z" fill="#C60E50" style="mix-blend-mode:lighten"/>
<path d="M272.054 181.475C272.054 181.948 271.913 182.411 271.65 182.804C271.387 183.198 271.013 183.505 270.576 183.686C270.139 183.867 269.657 183.915 269.193 183.822C268.729 183.73 268.302 183.502 267.968 183.167C267.633 182.832 267.405 182.406 267.313 181.942C267.22 181.477 267.268 180.996 267.449 180.559C267.63 180.121 267.937 179.747 268.33 179.484C268.724 179.221 269.187 179.081 269.66 179.081C270.295 179.081 270.904 179.333 271.353 179.782C271.802 180.231 272.054 180.84 272.054 181.475V181.475Z" fill="#C60E50" style="mix-blend-mode:lighten"/>
<path d="M281.692 172.272C281.692 172.746 281.552 173.209 281.289 173.602C281.026 173.996 280.652 174.303 280.215 174.484C279.777 174.665 279.296 174.712 278.832 174.62C278.368 174.528 277.941 174.3 277.606 173.965C277.272 173.63 277.044 173.204 276.951 172.739C276.859 172.275 276.906 171.794 277.087 171.356C277.269 170.919 277.575 170.545 277.969 170.282C278.363 170.019 278.825 169.879 279.299 169.879C279.934 169.879 280.542 170.131 280.991 170.58C281.44 171.029 281.692 171.638 281.692 172.272V172.272Z" fill="#C60E50" style="mix-blend-mode:lighten"/>
<path d="M273.346 169.394C273.346 169.867 273.205 170.33 272.942 170.723C272.679 171.117 272.305 171.424 271.868 171.605C271.431 171.786 270.949 171.833 270.485 171.741C270.021 171.649 269.594 171.421 269.26 171.086C268.925 170.751 268.697 170.325 268.605 169.861C268.512 169.396 268.56 168.915 268.741 168.478C268.922 168.04 269.229 167.666 269.622 167.403C270.016 167.14 270.479 167 270.952 167C271.587 167 272.196 167.252 272.645 167.701C273.094 168.15 273.346 168.759 273.346 169.394V169.394Z" fill="#C60E50" style="mix-blend-mode:lighten"/>
<text fill="#DEE2E8" xml:space="preserve" style="white-space: pre" font-family="Mulish" font-size="18" font-weight="300" letter-spacing="0.135em"><tspan x="328.584" y="565.239">2010</tspan></text>
<text fill="#DEE2E8" xml:space="preserve" style="white-space: pre" font-family="Mulish" font-size="18" font-weight="300" letter-spacing="0.135em"><tspan x="577.736" y="565.238">2020</tspan></text>
<path d="M176.454 251.079H783.618Z" fill="#C57AFF" fill-opacity="0.15"/>
<path d="M176.454 251.079H783.618" stroke="#C57AFF" stroke-opacity="0.15"/>
<path d="M176.454 345.226H783.618Z" fill="#C57AFF" fill-opacity="0.15"/>
<path d="M176.454 345.226H783.618" stroke="#C57AFF" stroke-opacity="0.15"/>
<path d="M176.454 438.574H783.618Z" fill="#C57AFF" fill-opacity="0.15"/>
<path d="M176.454 438.574H783.618" stroke="#C57AFF" stroke-opacity="0.15"/>
<path d="M176.454 531.923H783.618Z" fill="#C57AFF" fill-opacity="0.15"/>
<path d="M176.454 531.923H783.618" stroke="#C57AFF" stroke-opacity="0.15"/>
<text fill="#DEE2E8" xml:space="preserve" style="white-space: pre" font-family="Mulish" font-size="18" font-weight="300" letter-spacing="0.135em"><tspan x="106.162" y="448.944">2:30</tspan></text>
<text fill="#DEE2E8" xml:space="preserve" style="white-space: pre" font-family="Mulish" font-size="18" font-weight="300" letter-spacing="0.135em"><tspan x="98.9399" y="541.982">0:00</tspan></text>
<text fill="#DEE2E8" xml:space="preserve" style="white-space: pre" font-family="Mulish" font-size="18" font-weight="300" letter-spacing="0.135em"><tspan x="100.746" y="355.078">3:20</tspan></text>
<text fill="#DEE2E8" xml:space="preserve" style="white-space: pre" font-family="Mulish" font-size="18" font-weight="300" letter-spacing="0.135em"><tspan x="100.744" y="261.21">4:10</tspan></text>
<text fill="#DEE2E8" xml:space="preserve" style="white-space: pre" font-family="Mulish" font-size="18" font-weight="300" letter-spacing="0.135em"><tspan x="100.744" y="167.343">5:00</tspan></text>
<text transform="translate(50 445) rotate(-90)" fill="#DEE2E8" xml:space="preserve" style="white-space: pre" font-family="Mulish" font-size="18" font-weight="300" letter-spacing="0.135em"><tspan x="11.3868" y="18.295">Duraci&#xf3;n en minutos</tspan></text>
<rect y="639.46" width="432" height="308" rx="5" fill="url(#paint7_linear_223_9627)" style="mix-blend-mode:lighten"/>
<text fill="#DEE2E8" xml:space="preserve" style="white-space: pre" font-family="Mulish" font-size="48" font-weight="900" letter-spacing="0em"><tspan x="48" y="794.58">3:47</tspan></text>
<text fill="#DEE2E8" xml:space="preserve" style="white-space: pre" font-family="Mulish" font-size="16" font-weight="300" letter-spacing="0em"><tspan x="152" y="794.5">min.</tspan></text>
<text fill="#DEE2E8" xml:space="preserve" style="white-space: pre" font-family="Mulish" font-size="16" letter-spacing="0.025em"><tspan x="48" y="737.5">Duraci&#xf3;n media:</tspan></text>
<text fill="#FFB3F3" xml:space="preserve" style="white-space: pre" font-family="Mulish" font-size="24" font-weight="800" letter-spacing="0.025em"><tspan x="48" y="689.02">2010</tspan></text>
<text fill="#DEE2E8" xml:space="preserve" style="white-space: pre" font-family="Mulish" font-size="12" font-weight="300" letter-spacing="0em"><tspan x="127" y="898.49">min.</tspan></text>
<text fill="#DEE2E8" xml:space="preserve" style="white-space: pre" font-family="Mulish" font-size="36" font-weight="900" letter-spacing="0em"><tspan x="48" y="899.55">4:54</tspan></text>
<text fill="#DEE2E8" xml:space="preserve" style="white-space: pre" font-family="Mulish" font-size="16" letter-spacing="0.025em"><tspan x="48" y="859.5">M&#xe1;xima:</tspan></text>
<text fill="#DEE2E8" xml:space="preserve" style="white-space: pre" font-family="Mulish" font-size="12" font-weight="300" letter-spacing="0em"><tspan x="330.104" y="898.49">min.</tspan></text>
<text fill="#DEE2E8" xml:space="preserve" style="white-space: pre" font-family="Mulish" font-size="36" font-weight="900" letter-spacing="0em"><tspan x="251.104" y="899.55">2:48</tspan></text>
<text fill="#DEE2E8" xml:space="preserve" style="white-space: pre" font-family="Mulish" font-size="16" letter-spacing="0.025em"><tspan x="251.104" y="859.5">M&#xed;nima</tspan></text>
<rect x="448" y="639.46" width="432" height="308" rx="5" fill="url(#paint8_linear_223_9627)" style="mix-blend-mode:lighten"/>
<text fill="#DEE2E8" xml:space="preserve" style="white-space: pre" font-family="Mulish" font-size="48" font-weight="900" letter-spacing="0em"><tspan x="496" y="794.58">3:15</tspan></text>
<text fill="#DEE2E8" xml:space="preserve" style="white-space: pre" font-family="Mulish" font-size="16" font-weight="300" letter-spacing="0em"><tspan x="600" y="794.5">min.</tspan></text>
<text fill="#DEE2E8" xml:space="preserve" style="white-space: pre" font-family="Mulish" font-size="16" letter-spacing="0.025em"><tspan x="496" y="737.5">Duraci&#xf3;n media:</tspan></text>
<text fill="#7EDDDD" xml:space="preserve" style="white-space: pre" font-family="Mulish" font-size="24" font-weight="800" letter-spacing="0.025em"><tspan x="496" y="689.02">2020</tspan></text>
<text fill="#DEE2E8" xml:space="preserve" style="white-space: pre" font-family="Mulish" font-size="12" font-weight="300" letter-spacing="0em"><tspan x="575" y="898.49">min.</tspan></text>
<text fill="#DEE2E8" xml:space="preserve" style="white-space: pre" font-family="Mulish" font-size="36" font-weight="900" letter-spacing="0em"><tspan x="496" y="899.55">4:22</tspan></text>
<text fill="#DEE2E8" xml:space="preserve" style="white-space: pre" font-family="Mulish" font-size="16" letter-spacing="0.025em"><tspan x="496" y="859.5">M&#xe1;xima:</tspan></text>
<text fill="#DEE2E8" xml:space="preserve" style="white-space: pre" font-family="Mulish" font-size="12" font-weight="300" letter-spacing="0em"><tspan x="785.759" y="898.49">min.</tspan></text>
<text fill="#DEE2E8" xml:space="preserve" style="white-space: pre" font-family="Mulish" font-size="36" font-weight="900" letter-spacing="0em"><tspan x="706.759" y="899.55">2:03</tspan></text>
<text fill="#DEE2E8" xml:space="preserve" style="white-space: pre" font-family="Mulish" font-size="16" letter-spacing="0.025em"><tspan x="706.759" y="859.5">M&#xed;nima</tspan></text>
<defs>
<linearGradient id="paint0_linear_223_9627" x1="440" y1="0" x2="440" y2="615.46" gradientUnits="userSpaceOnUse">
<stop stop-color="#0B1131"/>
<stop offset="1" stop-color="#334F79"/>
</linearGradient>
<linearGradient id="paint1_linear_223_9627" x1="732.56" y1="71.9478" x2="736.398" y2="87.6432" gradientUnits="userSpaceOnUse">
<stop stop-color="#E2396F"/>
<stop offset="0.0001" stop-color="#E2396F"/>
<stop offset="1" stop-color="#95326D"/>
<stop offset="1" stop-color="#D23879"/>
</linearGradient>
<linearGradient id="paint2_linear_223_9627" x1="733.602" y1="94.9414" x2="733.602" y2="108.442" gradientUnits="userSpaceOnUse">
<stop stop-color="#3D6DF2"/>
<stop offset="0.0001" stop-color="#3E68E0"/>
<stop offset="0.484375" stop-color="#245EF3"/>
<stop offset="1" stop-color="#3558D3"/>
</linearGradient>
<linearGradient id="paint3_linear_223_9627" x1="607.942" y1="229.638" x2="607.942" y2="501.711" gradientUnits="userSpaceOnUse">
<stop stop-color="#3D6DF2"/>
<stop offset="0.0001" stop-color="#3E68E0"/>
<stop offset="0.484375" stop-color="#245EF3"/>
<stop offset="1" stop-color="#3558D3"/>
</linearGradient>
<linearGradient id="paint4_linear_223_9627" x1="607.942" y1="229.638" x2="607.942" y2="501.711" gradientUnits="userSpaceOnUse">
<stop stop-color="#A0FFFF" stop-opacity="0.81"/>
<stop offset="0.0001" stop-color="#9FBAFF" stop-opacity="0.812969"/>
<stop offset="1" stop-color="#538BF7"/>
</linearGradient>
<linearGradient id="paint5_linear_223_9627" x1="361.952" y1="179.196" x2="470.802" y2="372.155" gradientUnits="userSpaceOnUse">
<stop stop-color="#E2396F"/>
<stop offset="0.0001" stop-color="#E2396F"/>
<stop offset="1" stop-color="#95326D"/>
<stop offset="1" stop-color="#D23879"/>
</linearGradient>
<linearGradient id="paint6_linear_223_9627" x1="361.952" y1="179.196" x2="470.802" y2="372.155" gradientUnits="userSpaceOnUse">
<stop stop-color="#FF9DC5"/>
<stop offset="1" stop-color="#B89FEE" stop-opacity="0.56"/>
<stop offset="1" stop-color="#FFDCE9"/>
</linearGradient>
<linearGradient id="paint7_linear_223_9627" x1="187.2" y1="594.008" x2="279.587" y2="984.118" gradientUnits="userSpaceOnUse">
<stop stop-color="#C60E50"/>
<stop offset="1" stop-color="#A80B3A"/>
</linearGradient>
<linearGradient id="paint8_linear_223_9627" x1="635.2" y1="594.008" x2="701.887" y2="976.482" gradientUnits="userSpaceOnUse">
<stop stop-color="#280EC6"/>
<stop offset="1" stop-color="#370C93"/>
</linearGradient>
</defs>
</svg>
