<svg width="760" height="902" viewBox="0 0 760 902" fill="none" xmlns="http://www.w3.org/2000/svg">
<rect width="760" height="566.286" rx="5" fill="#1A283D"/>
<rect width="760" height="566.286" rx="5" fill="url(#paint0_linear_234_4837)" fill-opacity="0.2"/>
<path d="M163.188 158.451H710.338Z" fill="#C57AFF" fill-opacity="0.15"/>
<path d="M163.188 158.451H710.338" stroke="#C57AFF" stroke-opacity="0.15"/>
<text fill="#DEE2E8" xml:space="preserve" style="white-space: pre" font-family="Mulish" font-size="24" font-weight="900" letter-spacing="0em"><tspan x="72" y="88.9868">Duraci&#xf3;n de tracks</tspan></text>
<text fill="#DEE2E8" xml:space="preserve" style="white-space: pre" font-family="Mulish" font-size="16" font-weight="300" letter-spacing="0.135em"><tspan x="606.813" y="64.04">A&#xf1;o</tspan></text>
<text fill="#DEE2E8" xml:space="preserve" style="white-space: pre" font-family="Mulish" font-size="16" font-weight="300" letter-spacing="0.135em"><tspan x="631.522" y="87.2304">2010</tspan></text>
<path d="M619.813 86.8662H606.813V73.8662H619.813V86.8662Z" fill="url(#paint1_linear_234_4837)"/>
<text fill="#DEE2E8" xml:space="preserve" style="white-space: pre" font-family="Mulish" font-size="16" font-weight="300" letter-spacing="0.135em"><tspan x="632.698" y="107.744">2020</tspan></text>
<path d="M619.813 107.941H606.813V94.9414H619.813V107.941Z" fill="url(#paint2_linear_234_4837)"/>
<path d="M512.081 362.34H589.635V302.268H512.081V362.34ZM512.081 212.443H589.635Z" fill="url(#paint3_linear_234_4837)"/>
<path d="M512.081 327.103H589.635M550.858 362.34V449.629M550.858 302.268V212.443M512.081 449.629H589.635M512.081 212.443H589.635M512.081 362.34H589.635V302.268H512.081V362.34Z" stroke="url(#paint4_linear_234_4837)" stroke-width="2" style="mix-blend-mode:lighten"/>
<path d="M471.059 448.767C471.059 449.195 470.933 449.614 470.696 449.97C470.459 450.327 470.123 450.605 469.729 450.769C469.336 450.933 468.903 450.976 468.485 450.892C468.067 450.808 467.683 450.602 467.382 450.299C467.081 449.996 466.875 449.61 466.792 449.189C466.709 448.769 466.752 448.333 466.915 447.937C467.078 447.541 467.354 447.203 467.708 446.965C468.062 446.727 468.479 446.6 468.905 446.6C469.476 446.6 470.024 446.828 470.428 447.234C470.832 447.641 471.059 448.192 471.059 448.767V448.767Z" fill="#265EF2"/>
<path d="M461.901 443.666C461.901 444.095 461.774 444.514 461.538 444.87C461.301 445.226 460.965 445.504 460.571 445.668C460.177 445.832 459.744 445.875 459.327 445.791C458.909 445.708 458.525 445.501 458.224 445.198C457.922 444.895 457.717 444.509 457.634 444.089C457.551 443.668 457.594 443.233 457.757 442.837C457.92 442.441 458.196 442.102 458.55 441.864C458.904 441.626 459.321 441.499 459.747 441.499C460.318 441.499 460.866 441.727 461.27 442.134C461.674 442.54 461.901 443.091 461.901 443.666V443.666Z" fill="#265EF2"/>
<path d="M473.533 435.677C473.533 436.105 473.406 436.524 473.17 436.881C472.933 437.237 472.596 437.515 472.203 437.679C471.809 437.843 471.376 437.886 470.958 437.802C470.541 437.718 470.157 437.512 469.856 437.209C469.554 436.906 469.349 436.52 469.266 436.099C469.183 435.679 469.226 435.243 469.389 434.847C469.552 434.452 469.828 434.113 470.182 433.875C470.536 433.637 470.953 433.51 471.379 433.51C471.95 433.51 472.498 433.738 472.902 434.144C473.306 434.551 473.533 435.102 473.533 435.677V435.677Z" fill="#265EF2"/>
<path d="M459.427 394.037C459.427 394.466 459.301 394.885 459.064 395.241C458.827 395.597 458.491 395.875 458.097 396.039C457.704 396.203 457.271 396.246 456.853 396.162C456.435 396.079 456.051 395.872 455.75 395.569C455.449 395.266 455.244 394.88 455.161 394.46C455.077 394.039 455.12 393.604 455.283 393.208C455.446 392.812 455.722 392.473 456.076 392.235C456.431 391.997 456.847 391.87 457.273 391.87C457.844 391.87 458.392 392.098 458.796 392.505C459.2 392.911 459.427 393.462 459.427 394.037V394.037Z" fill="#265EF2"/>
<path d="M464.62 386.393C464.62 386.821 464.493 387.24 464.256 387.596C464.02 387.953 463.683 388.231 463.29 388.395C462.896 388.559 462.463 388.602 462.045 388.518C461.627 388.434 461.244 388.228 460.942 387.925C460.641 387.622 460.436 387.236 460.353 386.815C460.27 386.395 460.312 385.959 460.475 385.563C460.639 385.167 460.915 384.829 461.269 384.591C461.623 384.353 462.039 384.226 462.466 384.226C463.037 384.226 463.585 384.454 463.989 384.86C464.393 385.267 464.62 385.818 464.62 386.393V386.393Z" fill="#265EF2"/>
<path d="M472.126 382.068C472.126 382.497 472 382.916 471.763 383.272C471.527 383.629 471.19 383.906 470.797 384.07C470.403 384.234 469.97 384.277 469.552 384.194C469.134 384.11 468.75 383.904 468.449 383.601C468.148 383.298 467.943 382.911 467.86 382.491C467.777 382.071 467.819 381.635 467.982 381.239C468.145 380.843 468.421 380.505 468.776 380.267C469.13 380.028 469.546 379.901 469.972 379.901C470.544 379.901 471.092 380.13 471.495 380.536C471.899 380.942 472.126 381.494 472.126 382.068V382.068Z" fill="#265EF2"/>
<path d="M466.56 367.96C466.56 368.389 466.434 368.807 466.197 369.164C465.96 369.52 465.624 369.798 465.23 369.962C464.837 370.126 464.404 370.169 463.986 370.085C463.568 370.002 463.184 369.795 462.883 369.492C462.582 369.189 462.376 368.803 462.293 368.383C462.21 367.962 462.253 367.527 462.416 367.131C462.579 366.735 462.855 366.396 463.209 366.158C463.563 365.92 463.98 365.793 464.406 365.793C464.977 365.793 465.525 366.021 465.929 366.428C466.333 366.834 466.56 367.385 466.56 367.96V367.96Z" fill="#265EF2"/>
<path d="M469.992 367.082C469.992 367.511 469.865 367.93 469.629 368.286C469.392 368.642 469.055 368.92 468.662 369.084C468.268 369.248 467.835 369.291 467.417 369.207C467 369.124 466.616 368.917 466.314 368.614C466.013 368.311 465.808 367.925 465.725 367.505C465.642 367.084 465.685 366.649 465.848 366.253C466.011 365.857 466.287 365.518 466.641 365.28C466.995 365.042 467.412 364.915 467.838 364.915C468.409 364.915 468.957 365.143 469.361 365.55C469.765 365.956 469.992 366.507 469.992 367.082V367.082Z" fill="#265EF2"/>
<path d="M462.084 363.285C462.084 363.714 461.958 364.133 461.721 364.489C461.485 364.845 461.148 365.123 460.755 365.287C460.361 365.451 459.928 365.494 459.51 365.41C459.092 365.327 458.708 365.12 458.407 364.817C458.106 364.514 457.901 364.128 457.818 363.708C457.735 363.288 457.777 362.852 457.94 362.456C458.103 362.06 458.379 361.721 458.734 361.483C459.088 361.245 459.504 361.118 459.93 361.118C460.502 361.118 461.05 361.346 461.453 361.753C461.857 362.159 462.084 362.71 462.084 363.285V363.285Z" fill="#265EF2"/>
<path d="M455.838 363.112C455.838 363.541 455.712 363.96 455.475 364.316C455.239 364.673 454.902 364.95 454.509 365.114C454.115 365.278 453.682 365.321 453.264 365.238C452.846 365.154 452.462 364.948 452.161 364.645C451.86 364.342 451.655 363.955 451.572 363.535C451.489 363.115 451.531 362.679 451.694 362.283C451.857 361.887 452.133 361.549 452.488 361.311C452.842 361.072 453.258 360.945 453.684 360.945C454.256 360.945 454.803 361.174 455.207 361.58C455.611 361.986 455.838 362.538 455.838 363.112V363.112Z" fill="#265EF2"/>
<path d="M471.216 362.618C471.216 363.047 471.09 363.466 470.853 363.822C470.616 364.178 470.28 364.456 469.886 364.62C469.493 364.784 469.06 364.827 468.642 364.743C468.224 364.66 467.84 364.453 467.539 364.15C467.238 363.847 467.033 363.461 466.95 363.041C466.866 362.621 466.909 362.185 467.072 361.789C467.235 361.393 467.511 361.054 467.866 360.816C468.22 360.578 468.636 360.451 469.062 360.451C469.633 360.451 470.181 360.679 470.585 361.086C470.989 361.492 471.216 362.043 471.216 362.618V362.618Z" fill="#265EF2"/>
<path d="M460.046 362.071C460.046 362.5 459.92 362.919 459.683 363.275C459.447 363.632 459.11 363.909 458.717 364.073C458.323 364.237 457.89 364.28 457.472 364.197C457.054 364.113 456.67 363.907 456.369 363.604C456.068 363.3 455.863 362.914 455.78 362.494C455.697 362.074 455.739 361.638 455.902 361.242C456.065 360.846 456.341 360.508 456.696 360.269C457.05 360.031 457.466 359.904 457.892 359.904C458.464 359.904 459.011 360.133 459.415 360.539C459.819 360.945 460.046 361.497 460.046 362.071V362.071Z" fill="#265EF2"/>
<path d="M479.878 359.699C479.878 360.128 479.752 360.547 479.515 360.903C479.279 361.259 478.942 361.537 478.549 361.701C478.155 361.865 477.722 361.908 477.304 361.825C476.886 361.741 476.502 361.535 476.201 361.231C475.9 360.928 475.695 360.542 475.612 360.122C475.529 359.702 475.571 359.266 475.734 358.87C475.897 358.474 476.173 358.136 476.528 357.897C476.882 357.659 477.298 357.532 477.724 357.532C478.296 357.532 478.843 357.761 479.247 358.167C479.651 358.573 479.878 359.124 479.878 359.699V359.699Z" fill="#265EF2"/>
<path d="M448.56 357.599C448.56 358.027 448.434 358.446 448.197 358.803C447.96 359.159 447.624 359.437 447.23 359.601C446.837 359.765 446.404 359.808 445.986 359.724C445.568 359.64 445.184 359.434 444.883 359.131C444.582 358.828 444.376 358.442 444.293 358.021C444.21 357.601 444.253 357.165 444.416 356.769C444.579 356.373 444.855 356.035 445.209 355.797C445.563 355.559 445.98 355.432 446.406 355.432C446.977 355.432 447.525 355.66 447.929 356.066C448.333 356.473 448.56 357.024 448.56 357.599V357.599Z" fill="#265EF2"/>
<path d="M456.675 349.609C456.675 350.038 456.549 350.457 456.312 350.813C456.075 351.17 455.739 351.447 455.345 351.611C454.952 351.775 454.519 351.818 454.101 351.735C453.683 351.651 453.299 351.445 452.998 351.142C452.697 350.839 452.492 350.452 452.409 350.032C452.325 349.612 452.368 349.176 452.531 348.78C452.694 348.384 452.97 348.046 453.324 347.808C453.679 347.569 454.095 347.442 454.521 347.442C455.092 347.442 455.64 347.671 456.044 348.077C456.448 348.483 456.675 349.035 456.675 349.609V349.609Z" fill="#265EF2"/>
<path d="M482.29 349.155C482.29 349.584 482.164 350.003 481.927 350.359C481.691 350.716 481.354 350.993 480.961 351.157C480.567 351.321 480.134 351.364 479.716 351.281C479.298 351.197 478.915 350.991 478.613 350.688C478.312 350.384 478.107 349.998 478.024 349.578C477.941 349.158 477.983 348.722 478.146 348.326C478.309 347.93 478.585 347.592 478.94 347.353C479.294 347.115 479.71 346.988 480.136 346.988C480.708 346.988 481.256 347.217 481.66 347.623C482.063 348.029 482.29 348.581 482.29 349.155V349.155Z" fill="#265EF2"/>
<path d="M462.908 348.762C462.908 349.19 462.781 349.609 462.545 349.966C462.308 350.322 461.971 350.6 461.578 350.764C461.184 350.928 460.751 350.971 460.333 350.887C459.916 350.803 459.532 350.597 459.231 350.294C458.929 349.991 458.724 349.605 458.641 349.184C458.558 348.764 458.601 348.328 458.764 347.932C458.927 347.536 459.203 347.198 459.557 346.96C459.911 346.722 460.328 346.595 460.754 346.595C461.325 346.595 461.873 346.823 462.277 347.229C462.681 347.636 462.908 348.187 462.908 348.762V348.762Z" fill="#265EF2"/>
<path d="M453.022 346.843C453.022 347.271 452.896 347.69 452.659 348.047C452.422 348.403 452.086 348.681 451.692 348.845C451.299 349.009 450.865 349.052 450.448 348.968C450.03 348.884 449.646 348.678 449.345 348.375C449.044 348.072 448.838 347.686 448.755 347.266C448.672 346.845 448.715 346.409 448.878 346.013C449.041 345.618 449.317 345.279 449.671 345.041C450.025 344.803 450.442 344.676 450.868 344.676C451.439 344.676 451.987 344.904 452.391 345.31C452.795 345.717 453.022 346.268 453.022 346.843V346.843Z" fill="#265EF2"/>
<path d="M461.514 339.631C461.514 340.059 461.388 340.478 461.151 340.835C460.914 341.191 460.578 341.469 460.184 341.633C459.791 341.797 459.358 341.84 458.94 341.756C458.522 341.673 458.138 341.466 457.837 341.163C457.536 340.86 457.331 340.474 457.247 340.054C457.164 339.633 457.207 339.198 457.37 338.802C457.533 338.406 457.809 338.067 458.163 337.829C458.518 337.591 458.934 337.464 459.36 337.464C459.931 337.464 460.479 337.692 460.883 338.099C461.287 338.505 461.514 339.056 461.514 339.631V339.631Z" fill="#265EF2"/>
<path d="M466.536 336.329C466.536 336.758 466.409 337.177 466.173 337.533C465.936 337.889 465.599 338.167 465.206 338.331C464.812 338.495 464.379 338.538 463.961 338.454C463.543 338.371 463.16 338.164 462.858 337.861C462.557 337.558 462.352 337.172 462.269 336.752C462.186 336.331 462.228 335.896 462.392 335.5C462.555 335.104 462.831 334.765 463.185 334.527C463.539 334.289 463.956 334.162 464.382 334.162C464.953 334.162 465.501 334.39 465.905 334.797C466.309 335.203 466.536 335.754 466.536 336.329V336.329Z" fill="#265EF2"/>
<path d="M475.196 334.641C475.196 335.069 475.069 335.488 474.833 335.845C474.596 336.201 474.26 336.479 473.866 336.643C473.472 336.807 473.039 336.85 472.621 336.766C472.204 336.682 471.82 336.476 471.519 336.173C471.217 335.87 471.012 335.484 470.929 335.063C470.846 334.643 470.889 334.207 471.052 333.811C471.215 333.415 471.491 333.077 471.845 332.839C472.199 332.601 472.616 332.474 473.042 332.474C473.613 332.474 474.161 332.702 474.565 333.108C474.969 333.515 475.196 334.066 475.196 334.641V334.641Z" fill="#265EF2"/>
<path d="M468.887 329.451C468.887 329.88 468.761 330.299 468.524 330.655C468.287 331.011 467.951 331.289 467.557 331.453C467.164 331.617 466.731 331.66 466.313 331.576C465.895 331.493 465.511 331.286 465.21 330.983C464.909 330.68 464.704 330.294 464.62 329.874C464.537 329.454 464.58 329.018 464.743 328.622C464.906 328.226 465.182 327.887 465.536 327.649C465.891 327.411 466.307 327.284 466.733 327.284C467.304 327.284 467.852 327.512 468.256 327.919C468.66 328.325 468.887 328.876 468.887 329.451V329.451Z" fill="#265EF2"/>
<path d="M461.938 327.612C461.938 328.041 461.812 328.46 461.575 328.816C461.338 329.173 461.002 329.45 460.608 329.614C460.215 329.778 459.781 329.821 459.364 329.738C458.946 329.654 458.562 329.448 458.261 329.145C457.96 328.842 457.754 328.455 457.671 328.035C457.588 327.615 457.631 327.179 457.794 326.783C457.957 326.387 458.233 326.049 458.587 325.811C458.941 325.572 459.358 325.445 459.784 325.445C460.355 325.445 460.903 325.674 461.307 326.08C461.711 326.486 461.938 327.038 461.938 327.612V327.612Z" fill="#265EF2"/>
<path d="M450.282 326.239C450.282 326.668 450.155 327.087 449.919 327.443C449.682 327.799 449.346 328.077 448.952 328.241C448.558 328.405 448.125 328.448 447.707 328.365C447.29 328.281 446.906 328.075 446.605 327.772C446.303 327.468 446.098 327.082 446.015 326.662C445.932 326.242 445.975 325.806 446.138 325.41C446.301 325.014 446.577 324.676 446.931 324.437C447.285 324.199 447.702 324.072 448.128 324.072C448.699 324.072 449.247 324.301 449.651 324.707C450.055 325.113 450.282 325.665 450.282 326.239V326.239Z" fill="#265EF2"/>
<path d="M466.887 325.433C466.887 325.861 466.761 326.28 466.524 326.636C466.287 326.993 465.951 327.271 465.557 327.435C465.164 327.599 464.731 327.642 464.313 327.558C463.895 327.474 463.511 327.268 463.21 326.965C462.909 326.662 462.704 326.276 462.62 325.855C462.537 325.435 462.58 324.999 462.743 324.603C462.906 324.207 463.182 323.869 463.536 323.631C463.891 323.393 464.307 323.266 464.733 323.266C465.304 323.266 465.852 323.494 466.256 323.9C466.66 324.307 466.887 324.858 466.887 325.433V325.433Z" fill="#265EF2"/>
<path d="M461.623 324.159C461.623 324.588 461.497 325.007 461.26 325.363C461.024 325.719 460.687 325.997 460.294 326.161C459.9 326.325 459.467 326.368 459.049 326.284C458.631 326.201 458.248 325.994 457.946 325.691C457.645 325.388 457.44 325.002 457.357 324.582C457.274 324.162 457.316 323.726 457.479 323.33C457.642 322.934 457.919 322.595 458.273 322.357C458.627 322.119 459.043 321.992 459.469 321.992C460.041 321.992 460.589 322.22 460.993 322.627C461.396 323.033 461.623 323.584 461.623 324.159V324.159Z" fill="#265EF2"/>
<path d="M476.057 321.422C476.057 321.85 475.931 322.269 475.694 322.626C475.457 322.982 475.121 323.26 474.727 323.424C474.334 323.588 473.901 323.631 473.483 323.547C473.065 323.464 472.681 323.257 472.38 322.954C472.079 322.651 471.874 322.265 471.79 321.845C471.707 321.424 471.75 320.989 471.913 320.593C472.076 320.197 472.352 319.858 472.706 319.62C473.061 319.382 473.477 319.255 473.903 319.255C474.474 319.255 475.022 319.483 475.426 319.89C475.83 320.296 476.057 320.847 476.057 321.422V321.422Z" fill="#265EF2"/>
<path d="M465.163 320.077C465.163 320.506 465.037 320.925 464.8 321.281C464.564 321.637 464.227 321.915 463.834 322.079C463.44 322.243 463.007 322.286 462.589 322.202C462.171 322.119 461.788 321.912 461.486 321.609C461.185 321.306 460.98 320.92 460.897 320.5C460.814 320.08 460.856 319.644 461.019 319.248C461.182 318.852 461.459 318.513 461.813 318.275C462.167 318.037 462.583 317.91 463.009 317.91C463.581 317.91 464.129 318.138 464.533 318.545C464.937 318.951 465.163 319.502 465.163 320.077V320.077Z" fill="#265EF2"/>
<path d="M453.655 318.413C453.655 318.842 453.528 319.261 453.292 319.617C453.055 319.973 452.719 320.251 452.325 320.415C451.931 320.579 451.498 320.622 451.08 320.538C450.663 320.455 450.279 320.248 449.978 319.945C449.676 319.642 449.471 319.256 449.388 318.836C449.305 318.415 449.348 317.98 449.511 317.584C449.674 317.188 449.95 316.849 450.304 316.611C450.658 316.373 451.075 316.246 451.501 316.246C452.072 316.246 452.62 316.474 453.024 316.881C453.428 317.287 453.655 317.838 453.655 318.413V318.413Z" fill="#265EF2"/>
<path d="M449.07 312.01C449.07 312.438 448.943 312.857 448.707 313.214C448.47 313.57 448.134 313.848 447.74 314.012C447.346 314.176 446.913 314.219 446.495 314.135C446.078 314.051 445.694 313.845 445.393 313.542C445.091 313.239 444.886 312.853 444.803 312.432C444.72 312.012 444.763 311.576 444.926 311.18C445.089 310.785 445.365 310.446 445.719 310.208C446.073 309.97 446.49 309.843 446.916 309.843C447.487 309.843 448.035 310.071 448.439 310.477C448.843 310.884 449.07 311.435 449.07 312.01V312.01Z" fill="#265EF2"/>
<path d="M477.705 309.161C477.705 309.59 477.579 310.009 477.342 310.365C477.106 310.721 476.769 310.999 476.376 311.163C475.982 311.327 475.549 311.37 475.131 311.286C474.713 311.203 474.33 310.996 474.028 310.693C473.727 310.39 473.522 310.004 473.439 309.584C473.356 309.164 473.398 308.728 473.561 308.332C473.724 307.936 474.001 307.597 474.355 307.359C474.709 307.121 475.125 306.994 475.551 306.994C476.123 306.994 476.671 307.222 477.075 307.629C477.479 308.035 477.705 308.586 477.705 309.161V309.161Z" fill="#265EF2"/>
<path d="M449.677 307.505C449.677 307.933 449.551 308.352 449.314 308.709C449.077 309.065 448.741 309.343 448.347 309.507C447.954 309.671 447.521 309.714 447.103 309.63C446.685 309.547 446.301 309.34 446 309.037C445.699 308.734 445.494 308.348 445.411 307.928C445.327 307.507 445.37 307.072 445.533 306.676C445.696 306.28 445.972 305.941 446.326 305.703C446.681 305.465 447.097 305.338 447.523 305.338C448.094 305.338 448.642 305.566 449.046 305.973C449.45 306.379 449.677 306.93 449.677 307.505V307.505Z" fill="#265EF2"/>
<path d="M479.306 306.363C479.306 306.792 479.18 307.211 478.943 307.567C478.706 307.924 478.37 308.201 477.976 308.365C477.583 308.529 477.15 308.572 476.732 308.489C476.314 308.405 475.93 308.199 475.629 307.896C475.328 307.592 475.123 307.206 475.039 306.786C474.956 306.366 474.999 305.93 475.162 305.534C475.325 305.138 475.601 304.8 475.955 304.561C476.31 304.323 476.726 304.196 477.152 304.196C477.723 304.196 478.271 304.425 478.675 304.831C479.079 305.237 479.306 305.789 479.306 306.363V306.363Z" fill="#265EF2"/>
<path d="M471.243 305.777C471.243 306.206 471.116 306.625 470.88 306.981C470.643 307.338 470.306 307.615 469.913 307.779C469.519 307.943 469.086 307.986 468.668 307.903C468.251 307.819 467.867 307.613 467.565 307.31C467.264 307.007 467.059 306.62 466.976 306.2C466.893 305.78 466.936 305.344 467.099 304.948C467.262 304.552 467.538 304.214 467.892 303.976C468.246 303.737 468.663 303.61 469.089 303.61C469.66 303.61 470.208 303.839 470.612 304.245C471.016 304.651 471.243 305.203 471.243 305.777V305.777Z" fill="#265EF2"/>
<path d="M460.688 302.455C460.688 302.884 460.562 303.303 460.325 303.659C460.088 304.015 459.752 304.293 459.358 304.457C458.965 304.621 458.531 304.664 458.114 304.58C457.696 304.497 457.312 304.29 457.011 303.987C456.71 303.684 456.504 303.298 456.421 302.878C456.338 302.457 456.381 302.022 456.544 301.626C456.707 301.23 456.983 300.891 457.337 300.653C457.691 300.415 458.108 300.288 458.534 300.288C459.105 300.288 459.653 300.516 460.057 300.923C460.461 301.329 460.688 301.88 460.688 302.455V302.455Z" fill="#265EF2"/>
<path d="M453.606 301.051C453.606 301.479 453.48 301.898 453.243 302.255C453.006 302.611 452.67 302.889 452.276 303.053C451.883 303.217 451.449 303.26 451.032 303.176C450.614 303.092 450.23 302.886 449.929 302.583C449.628 302.28 449.422 301.894 449.339 301.474C449.256 301.053 449.299 300.617 449.462 300.221C449.625 299.826 449.901 299.487 450.255 299.249C450.609 299.011 451.026 298.884 451.452 298.884C452.023 298.884 452.571 299.112 452.975 299.518C453.379 299.925 453.606 300.476 453.606 301.051V301.051Z" fill="#265EF2"/>
<path d="M477.44 300.768C477.44 301.196 477.313 301.615 477.077 301.971C476.84 302.328 476.504 302.606 476.11 302.77C475.717 302.934 475.283 302.977 474.866 302.893C474.448 302.809 474.064 302.603 473.763 302.3C473.461 301.997 473.256 301.611 473.173 301.19C473.09 300.77 473.133 300.334 473.296 299.938C473.459 299.542 473.735 299.204 474.089 298.966C474.443 298.728 474.86 298.601 475.286 298.601C475.857 298.601 476.405 298.829 476.809 299.235C477.213 299.642 477.44 300.193 477.44 300.768V300.768Z" fill="#265EF2"/>
<path d="M465.444 300.638C465.444 301.066 465.317 301.485 465.081 301.842C464.844 302.198 464.508 302.476 464.114 302.64C463.72 302.804 463.287 302.847 462.87 302.763C462.452 302.679 462.068 302.473 461.767 302.17C461.465 301.867 461.26 301.481 461.177 301.06C461.094 300.64 461.137 300.204 461.3 299.808C461.463 299.412 461.739 299.074 462.093 298.836C462.447 298.598 462.864 298.471 463.29 298.471C463.861 298.471 464.409 298.699 464.813 299.105C465.217 299.512 465.444 300.063 465.444 300.638V300.638Z" fill="#265EF2"/>
<path d="M474.697 296.627C474.697 297.056 474.57 297.474 474.334 297.831C474.097 298.187 473.761 298.465 473.367 298.629C472.973 298.793 472.54 298.836 472.122 298.752C471.705 298.669 471.321 298.462 471.02 298.159C470.718 297.856 470.513 297.47 470.43 297.05C470.347 296.629 470.39 296.194 470.553 295.798C470.716 295.402 470.992 295.063 471.346 294.825C471.7 294.587 472.117 294.46 472.543 294.46C473.114 294.46 473.662 294.688 474.066 295.095C474.47 295.501 474.697 296.052 474.697 296.627V296.627Z" fill="#265EF2"/>
<path d="M457.282 292.831C457.282 293.26 457.155 293.679 456.919 294.035C456.682 294.391 456.346 294.669 455.952 294.833C455.558 294.997 455.125 295.04 454.707 294.956C454.29 294.873 453.906 294.666 453.605 294.363C453.303 294.06 453.098 293.674 453.015 293.254C452.932 292.833 452.975 292.398 453.138 292.002C453.301 291.606 453.577 291.267 453.931 291.029C454.285 290.791 454.702 290.664 455.128 290.664C455.699 290.664 456.247 290.892 456.651 291.299C457.055 291.705 457.282 292.256 457.282 292.831V292.831Z" fill="#265EF2"/>
<path d="M473.837 292.527C473.837 292.956 473.711 293.375 473.474 293.731C473.238 294.088 472.901 294.365 472.508 294.529C472.114 294.693 471.681 294.736 471.263 294.653C470.845 294.569 470.461 294.363 470.16 294.06C469.859 293.757 469.654 293.37 469.571 292.95C469.488 292.53 469.53 292.094 469.693 291.698C469.856 291.302 470.132 290.964 470.487 290.726C470.841 290.487 471.257 290.36 471.683 290.36C472.255 290.36 472.802 290.589 473.206 290.995C473.61 291.401 473.837 291.953 473.837 292.527V292.527Z" fill="#265EF2"/>
<path d="M466.133 291.942C466.133 292.371 466.007 292.79 465.77 293.146C465.533 293.503 465.197 293.78 464.803 293.944C464.41 294.108 463.977 294.151 463.559 294.068C463.141 293.984 462.757 293.778 462.456 293.475C462.155 293.172 461.95 292.785 461.867 292.365C461.783 291.945 461.826 291.509 461.989 291.113C462.152 290.717 462.428 290.379 462.782 290.141C463.137 289.902 463.553 289.775 463.979 289.775C464.55 289.775 465.098 290.004 465.502 290.41C465.906 290.816 466.133 291.368 466.133 291.942V291.942Z" fill="#265EF2"/>
<path d="M463.307 263.24C463.307 263.669 463.181 264.088 462.944 264.444C462.707 264.8 462.371 265.078 461.977 265.242C461.584 265.406 461.151 265.449 460.733 265.366C460.315 265.282 459.931 265.076 459.63 264.772C459.329 264.469 459.124 264.083 459.04 263.663C458.957 263.243 459 262.807 459.163 262.411C459.326 262.015 459.602 261.677 459.956 261.438C460.311 261.2 460.727 261.073 461.153 261.073C461.724 261.073 462.272 261.302 462.676 261.708C463.08 262.114 463.307 262.665 463.307 263.24V263.24Z" fill="#265EF2"/>
<path d="M458.178 239.728C458.178 240.156 458.052 240.575 457.815 240.931C457.578 241.288 457.242 241.566 456.848 241.73C456.455 241.894 456.022 241.936 455.604 241.853C455.186 241.769 454.802 241.563 454.501 241.26C454.2 240.957 453.995 240.571 453.912 240.15C453.828 239.73 453.871 239.294 454.034 238.898C454.197 238.502 454.473 238.164 454.827 237.926C455.182 237.688 455.598 237.561 456.024 237.561C456.595 237.561 457.143 237.789 457.547 238.195C457.951 238.602 458.178 239.153 458.178 239.728V239.728Z" fill="#265EF2"/>
<path d="M463.6 238.576C463.6 239.005 463.474 239.424 463.237 239.78C463 240.136 462.664 240.414 462.27 240.578C461.877 240.742 461.444 240.785 461.026 240.701C460.608 240.618 460.224 240.411 459.923 240.108C459.622 239.805 459.416 239.419 459.333 238.999C459.25 238.579 459.293 238.143 459.456 237.747C459.619 237.351 459.895 237.012 460.249 236.774C460.604 236.536 461.02 236.409 461.446 236.409C462.017 236.409 462.565 236.637 462.969 237.044C463.373 237.45 463.6 238.001 463.6 238.576V238.576Z" fill="#265EF2"/>
<path d="M472.212 228.952C472.212 229.381 472.086 229.8 471.849 230.156C471.613 230.512 471.276 230.79 470.883 230.954C470.489 231.118 470.056 231.161 469.638 231.077C469.22 230.994 468.836 230.787 468.535 230.484C468.234 230.181 468.029 229.795 467.946 229.375C467.863 228.955 467.905 228.519 468.068 228.123C468.231 227.727 468.507 227.388 468.862 227.15C469.216 226.912 469.632 226.785 470.058 226.785C470.63 226.785 471.177 227.013 471.581 227.42C471.985 227.826 472.212 228.377 472.212 228.952V228.952Z" fill="#265EF2"/>
<path d="M465.201 211.58C465.201 212.009 465.074 212.428 464.838 212.784C464.601 213.14 464.264 213.418 463.871 213.582C463.477 213.746 463.044 213.789 462.626 213.705C462.209 213.622 461.825 213.415 461.523 213.112C461.222 212.809 461.017 212.423 460.934 212.003C460.851 211.582 460.894 211.147 461.057 210.751C461.22 210.355 461.496 210.016 461.85 209.778C462.204 209.54 462.621 209.413 463.047 209.413C463.618 209.413 464.166 209.641 464.57 210.048C464.974 210.454 465.201 211.005 465.201 211.58V211.58Z" fill="#265EF2"/>
<path d="M296.923 301.33H374.477V252.852H296.923V301.33ZM296.923 193.336H374.477Z" fill="url(#paint5_linear_234_4837)"/>
<path d="M296.923 271.98H374.477M335.7 301.33V373.308M335.7 252.852V193.336M296.923 373.308H374.477M296.923 193.336H374.477M296.923 301.33H374.477V252.852H296.923V301.33Z" stroke="url(#paint6_linear_234_4837)" stroke-width="2" style="mix-blend-mode:lighten"/>
<path d="M256.703 372.446C256.703 372.875 256.576 373.294 256.34 373.65C256.103 374.007 255.766 374.284 255.373 374.448C254.979 374.612 254.546 374.655 254.128 374.572C253.71 374.488 253.327 374.282 253.025 373.979C252.724 373.675 252.519 373.289 252.436 372.869C252.353 372.449 252.395 372.013 252.558 371.617C252.722 371.221 252.998 370.883 253.352 370.644C253.706 370.406 254.123 370.279 254.549 370.279C255.12 370.279 255.668 370.508 256.072 370.914C256.476 371.32 256.703 371.872 256.703 372.446V372.446Z" fill="#C60E50" style="mix-blend-mode:lighten"/>
<path d="M247.423 350.53C247.423 350.959 247.297 351.378 247.06 351.734C246.824 352.091 246.487 352.368 246.094 352.532C245.7 352.696 245.267 352.739 244.849 352.656C244.431 352.572 244.047 352.366 243.746 352.063C243.445 351.759 243.24 351.373 243.157 350.953C243.074 350.533 243.116 350.097 243.279 349.701C243.442 349.305 243.718 348.967 244.073 348.728C244.427 348.49 244.843 348.363 245.269 348.363C245.841 348.363 246.388 348.592 246.792 348.998C247.196 349.404 247.423 349.956 247.423 350.53V350.53Z" fill="#C60E50" style="mix-blend-mode:lighten"/>
<path d="M259.478 348.521C259.478 348.95 259.352 349.369 259.115 349.725C258.878 350.082 258.542 350.359 258.148 350.523C257.755 350.687 257.322 350.73 256.904 350.647C256.486 350.563 256.102 350.357 255.801 350.054C255.5 349.751 255.294 349.365 255.211 348.944C255.128 348.524 255.171 348.088 255.334 347.692C255.497 347.296 255.773 346.958 256.127 346.72C256.481 346.482 256.898 346.354 257.324 346.354C257.895 346.354 258.443 346.583 258.847 346.989C259.251 347.396 259.478 347.947 259.478 348.521V348.521Z" fill="#C60E50" style="mix-blend-mode:lighten"/>
<path d="M244.765 343.632C244.765 344.06 244.639 344.479 244.402 344.836C244.165 345.192 243.829 345.47 243.435 345.634C243.042 345.798 242.609 345.841 242.191 345.757C241.773 345.674 241.389 345.467 241.088 345.164C240.787 344.861 240.582 344.475 240.498 344.055C240.415 343.634 240.458 343.199 240.621 342.803C240.784 342.407 241.06 342.068 241.414 341.83C241.769 341.592 242.185 341.465 242.611 341.465C243.182 341.465 243.73 341.693 244.134 342.1C244.538 342.506 244.765 343.057 244.765 343.632V343.632Z" fill="#C60E50" style="mix-blend-mode:lighten"/>
<path d="M250.223 335.098C250.223 335.526 250.097 335.945 249.86 336.302C249.623 336.658 249.287 336.936 248.893 337.1C248.5 337.264 248.067 337.307 247.649 337.223C247.231 337.139 246.847 336.933 246.546 336.63C246.245 336.327 246.04 335.941 245.956 335.52C245.873 335.1 245.916 334.664 246.079 334.268C246.242 333.872 246.518 333.534 246.872 333.296C247.227 333.058 247.643 332.931 248.069 332.931C248.64 332.931 249.188 333.159 249.592 333.565C249.996 333.972 250.223 334.523 250.223 335.098V335.098Z" fill="#C60E50" style="mix-blend-mode:lighten"/>
<path d="M257.685 320.13C257.685 320.558 257.559 320.977 257.322 321.334C257.085 321.69 256.749 321.968 256.355 322.132C255.962 322.296 255.529 322.339 255.111 322.255C254.693 322.172 254.309 321.965 254.008 321.662C253.707 321.359 253.501 320.973 253.418 320.553C253.335 320.132 253.378 319.697 253.541 319.301C253.704 318.905 253.98 318.566 254.334 318.328C254.688 318.09 255.105 317.963 255.531 317.963C256.102 317.963 256.65 318.191 257.054 318.598C257.458 319.004 257.685 319.555 257.685 320.13V320.13Z" fill="#C60E50" style="mix-blend-mode:lighten"/>
<path d="M252.238 315.777C252.238 316.206 252.111 316.625 251.875 316.981C251.638 317.338 251.302 317.615 250.908 317.779C250.514 317.943 250.081 317.986 249.663 317.903C249.246 317.819 248.862 317.613 248.561 317.31C248.259 317.007 248.054 316.62 247.971 316.2C247.888 315.78 247.931 315.344 248.094 314.948C248.257 314.552 248.533 314.214 248.887 313.976C249.241 313.737 249.658 313.61 250.084 313.61C250.655 313.61 251.203 313.839 251.607 314.245C252.011 314.651 252.238 315.203 252.238 315.777V315.777Z" fill="#C60E50" style="mix-blend-mode:lighten"/>
<path d="M255.972 314.969C255.972 315.397 255.846 315.816 255.609 316.173C255.372 316.529 255.036 316.807 254.642 316.971C254.249 317.135 253.816 317.178 253.398 317.094C252.98 317.01 252.596 316.804 252.295 316.501C251.994 316.198 251.789 315.812 251.705 315.391C251.622 314.971 251.665 314.535 251.828 314.139C251.991 313.744 252.267 313.405 252.621 313.167C252.976 312.929 253.392 312.802 253.818 312.802C254.389 312.802 254.937 313.03 255.341 313.436C255.745 313.843 255.972 314.394 255.972 314.969V314.969Z" fill="#C60E50" style="mix-blend-mode:lighten"/>
<path d="M248.913 314.039C248.913 314.468 248.787 314.887 248.55 315.243C248.314 315.599 247.977 315.877 247.584 316.041C247.19 316.205 246.757 316.248 246.339 316.164C245.921 316.081 245.538 315.874 245.236 315.571C244.935 315.268 244.73 314.882 244.647 314.462C244.564 314.041 244.606 313.606 244.769 313.21C244.932 312.814 245.209 312.475 245.563 312.237C245.917 311.999 246.333 311.872 246.759 311.872C247.331 311.872 247.879 312.1 248.283 312.507C248.687 312.913 248.913 313.464 248.913 314.039V314.039Z" fill="#C60E50" style="mix-blend-mode:lighten"/>
<path d="M243.297 313.453C243.297 313.882 243.171 314.301 242.934 314.657C242.698 315.013 242.361 315.291 241.968 315.455C241.574 315.619 241.141 315.662 240.723 315.578C240.305 315.495 239.921 315.288 239.62 314.985C239.319 314.682 239.114 314.296 239.031 313.876C238.948 313.456 238.99 313.02 239.153 312.624C239.316 312.228 239.592 311.889 239.947 311.651C240.301 311.413 240.717 311.286 241.143 311.286C241.715 311.286 242.262 311.514 242.666 311.921C243.07 312.327 243.297 312.878 243.297 313.453V313.453Z" fill="#C60E50" style="mix-blend-mode:lighten"/>
<path d="M256.844 303.284C256.844 303.713 256.718 304.132 256.481 304.488C256.244 304.844 255.908 305.122 255.514 305.286C255.121 305.45 254.688 305.493 254.27 305.409C253.852 305.326 253.468 305.119 253.167 304.816C252.866 304.513 252.661 304.127 252.578 303.707C252.494 303.287 252.537 302.851 252.7 302.455C252.863 302.059 253.139 301.72 253.493 301.482C253.848 301.244 254.264 301.117 254.69 301.117C255.261 301.117 255.809 301.345 256.213 301.752C256.617 302.158 256.844 302.709 256.844 303.284V303.284Z" fill="#C60E50" style="mix-blend-mode:lighten"/>
<path d="M247.299 300.566C247.299 300.995 247.173 301.414 246.936 301.77C246.7 302.127 246.363 302.404 245.97 302.568C245.576 302.732 245.143 302.775 244.725 302.692C244.307 302.608 243.923 302.402 243.622 302.099C243.321 301.796 243.116 301.409 243.033 300.989C242.949 300.569 242.992 300.133 243.155 299.737C243.318 299.341 243.594 299.003 243.949 298.765C244.303 298.527 244.719 298.399 245.145 298.399C245.716 298.399 246.264 298.628 246.668 299.034C247.072 299.44 247.299 299.992 247.299 300.566V300.566Z" fill="#C60E50" style="mix-blend-mode:lighten"/>
<path d="M262.765 300.144C262.765 300.572 262.639 300.991 262.402 301.347C262.165 301.704 261.829 301.982 261.435 302.146C261.042 302.31 260.609 302.352 260.191 302.269C259.773 302.185 259.389 301.979 259.088 301.676C258.787 301.373 258.582 300.987 258.498 300.566C258.415 300.146 258.458 299.71 258.621 299.314C258.784 298.918 259.06 298.58 259.414 298.342C259.769 298.104 260.185 297.977 260.611 297.977C261.182 297.977 261.73 298.205 262.134 298.611C262.538 299.018 262.765 299.569 262.765 300.144V300.144Z" fill="#C60E50" style="mix-blend-mode:lighten"/>
<path d="M238.495 297.215C238.495 297.643 238.368 298.062 238.131 298.419C237.895 298.775 237.558 299.053 237.165 299.217C236.771 299.381 236.338 299.424 235.92 299.34C235.502 299.257 235.119 299.05 234.817 298.747C234.516 298.444 234.311 298.058 234.228 297.638C234.145 297.217 234.187 296.782 234.35 296.386C234.514 295.99 234.79 295.651 235.144 295.413C235.498 295.175 235.914 295.048 236.341 295.048C236.912 295.048 237.46 295.276 237.864 295.683C238.268 296.089 238.495 296.64 238.495 297.215V297.215Z" fill="#C60E50" style="mix-blend-mode:lighten"/>
<path d="M244.378 296.113C244.378 296.542 244.252 296.961 244.015 297.317C243.779 297.674 243.442 297.951 243.049 298.115C242.655 298.279 242.222 298.322 241.804 298.239C241.386 298.155 241.002 297.949 240.701 297.646C240.4 297.342 240.195 296.956 240.112 296.536C240.029 296.116 240.071 295.68 240.234 295.284C240.397 294.888 240.673 294.55 241.028 294.311C241.382 294.073 241.798 293.946 242.224 293.946C242.796 293.946 243.343 294.175 243.747 294.581C244.151 294.987 244.378 295.539 244.378 296.113V296.113Z" fill="#C60E50" style="mix-blend-mode:lighten"/>
<path d="M267.133 294.295C267.133 294.723 267.007 295.142 266.77 295.499C266.533 295.855 266.197 296.133 265.803 296.297C265.41 296.461 264.977 296.504 264.559 296.42C264.141 296.337 263.757 296.13 263.456 295.827C263.155 295.524 262.95 295.138 262.867 294.718C262.783 294.297 262.826 293.862 262.989 293.466C263.152 293.07 263.428 292.731 263.782 292.493C264.137 292.255 264.553 292.128 264.979 292.128C265.55 292.128 266.098 292.356 266.502 292.763C266.906 293.169 267.133 293.72 267.133 294.295V294.295Z" fill="#C60E50" style="mix-blend-mode:lighten"/>
<path d="M248.343 291.741C248.343 292.17 248.217 292.589 247.98 292.945C247.743 293.301 247.407 293.579 247.013 293.743C246.62 293.907 246.187 293.95 245.769 293.867C245.351 293.783 244.967 293.577 244.666 293.273C244.365 292.97 244.16 292.584 244.077 292.164C243.993 291.744 244.036 291.308 244.199 290.912C244.362 290.516 244.638 290.178 244.992 289.939C245.347 289.701 245.763 289.574 246.189 289.574C246.76 289.574 247.308 289.803 247.712 290.209C248.116 290.615 248.343 291.166 248.343 291.741V291.741Z" fill="#C60E50" style="mix-blend-mode:lighten"/>
<path d="M239.891 289.994C239.891 290.423 239.765 290.842 239.528 291.198C239.291 291.554 238.955 291.832 238.561 291.996C238.168 292.16 237.735 292.203 237.317 292.119C236.899 292.036 236.515 291.829 236.214 291.526C235.913 291.223 235.708 290.837 235.624 290.417C235.541 289.997 235.584 289.561 235.747 289.165C235.91 288.769 236.186 288.43 236.54 288.192C236.895 287.954 237.311 287.827 237.737 287.827C238.308 287.827 238.856 288.055 239.26 288.462C239.664 288.868 239.891 289.419 239.891 289.994V289.994Z" fill="#C60E50" style="mix-blend-mode:lighten"/>
<path d="M247.494 284.024C247.494 284.453 247.367 284.872 247.131 285.228C246.894 285.585 246.557 285.862 246.164 286.026C245.77 286.19 245.337 286.233 244.919 286.15C244.501 286.066 244.118 285.86 243.816 285.557C243.515 285.254 243.31 284.867 243.227 284.447C243.144 284.027 243.186 283.591 243.35 283.195C243.513 282.799 243.789 282.461 244.143 282.223C244.497 281.985 244.914 281.857 245.34 281.857C245.911 281.857 246.459 282.086 246.863 282.492C247.267 282.898 247.494 283.45 247.494 284.024V284.024Z" fill="#C60E50" style="mix-blend-mode:lighten"/>
<path d="M252.323 282.388C252.323 282.816 252.196 283.235 251.96 283.592C251.723 283.948 251.387 284.226 250.993 284.39C250.599 284.554 250.166 284.597 249.748 284.513C249.331 284.429 248.947 284.223 248.646 283.92C248.344 283.617 248.139 283.231 248.056 282.81C247.973 282.39 248.016 281.954 248.179 281.558C248.342 281.162 248.618 280.824 248.972 280.586C249.326 280.348 249.743 280.221 250.169 280.221C250.74 280.221 251.288 280.449 251.692 280.855C252.096 281.262 252.323 281.813 252.323 282.388V282.388Z" fill="#C60E50" style="mix-blend-mode:lighten"/>
<path d="M259.952 279.561C259.952 279.989 259.825 280.408 259.589 280.764C259.352 281.121 259.015 281.399 258.622 281.563C258.228 281.727 257.795 281.769 257.377 281.686C256.959 281.602 256.576 281.396 256.274 281.093C255.973 280.79 255.768 280.404 255.685 279.983C255.602 279.563 255.644 279.127 255.808 278.731C255.971 278.335 256.247 277.997 256.601 277.759C256.955 277.521 257.372 277.394 257.798 277.394C258.369 277.394 258.917 277.622 259.321 278.028C259.725 278.435 259.952 278.986 259.952 279.561V279.561Z" fill="#C60E50" style="mix-blend-mode:lighten"/>
<path d="M254.48 278.995C254.48 279.424 254.354 279.843 254.117 280.199C253.88 280.555 253.544 280.833 253.15 280.997C252.757 281.161 252.323 281.204 251.906 281.12C251.488 281.037 251.104 280.83 250.803 280.527C250.502 280.224 250.296 279.838 250.213 279.418C250.13 278.997 250.173 278.562 250.336 278.166C250.499 277.77 250.775 277.431 251.129 277.193C251.483 276.955 251.9 276.828 252.326 276.828C252.897 276.828 253.445 277.056 253.849 277.463C254.253 277.869 254.48 278.42 254.48 278.995V278.995Z" fill="#C60E50" style="mix-blend-mode:lighten"/>
<path d="M248.03 271.381C248.03 271.809 247.903 272.228 247.667 272.585C247.43 272.941 247.094 273.219 246.7 273.383C246.306 273.547 245.873 273.59 245.455 273.506C245.038 273.423 244.654 273.216 244.353 272.913C244.051 272.61 243.846 272.224 243.763 271.804C243.68 271.383 243.723 270.948 243.886 270.552C244.049 270.156 244.325 269.817 244.679 269.579C245.033 269.341 245.45 269.214 245.876 269.214C246.447 269.214 246.995 269.442 247.399 269.849C247.803 270.255 248.03 270.806 248.03 271.381V271.381Z" fill="#C60E50" style="mix-blend-mode:lighten"/>
<path d="M236.859 271.117C236.859 271.546 236.732 271.965 236.496 272.321C236.259 272.677 235.923 272.955 235.529 273.119C235.135 273.283 234.702 273.326 234.285 273.242C233.867 273.159 233.483 272.953 233.182 272.649C232.88 272.346 232.675 271.96 232.592 271.54C232.509 271.12 232.552 270.684 232.715 270.288C232.878 269.892 233.154 269.554 233.508 269.315C233.862 269.077 234.279 268.95 234.705 268.95C235.276 268.95 235.824 269.179 236.228 269.585C236.632 269.991 236.859 270.542 236.859 271.117V271.117Z" fill="#C60E50" style="mix-blend-mode:lighten"/>
<path d="M252.6 270.349C252.6 270.777 252.474 271.196 252.237 271.553C252 271.909 251.664 272.187 251.27 272.351C250.877 272.515 250.444 272.558 250.026 272.474C249.608 272.39 249.224 272.184 248.923 271.881C248.622 271.578 248.416 271.192 248.333 270.771C248.25 270.351 248.293 269.915 248.456 269.519C248.619 269.123 248.895 268.785 249.249 268.547C249.604 268.309 250.02 268.182 250.446 268.182C251.017 268.182 251.565 268.41 251.969 268.816C252.373 269.223 252.6 269.774 252.6 270.349V270.349Z" fill="#C60E50" style="mix-blend-mode:lighten"/>
<path d="M246.5 270.168C246.5 270.597 246.374 271.015 246.137 271.372C245.901 271.728 245.564 272.006 245.171 272.17C244.777 272.334 244.344 272.377 243.926 272.293C243.508 272.21 243.125 272.003 242.823 271.7C242.522 271.397 242.317 271.011 242.234 270.591C242.151 270.17 242.193 269.735 242.356 269.339C242.519 268.943 242.795 268.604 243.15 268.366C243.504 268.128 243.92 268.001 244.346 268.001C244.918 268.001 245.466 268.229 245.869 268.636C246.273 269.042 246.5 269.593 246.5 270.168V270.168Z" fill="#C60E50" style="mix-blend-mode:lighten"/>
<path d="M262.207 268.27C262.207 268.698 262.081 269.117 261.844 269.473C261.608 269.83 261.271 270.108 260.878 270.272C260.484 270.436 260.051 270.478 259.633 270.395C259.215 270.311 258.832 270.105 258.53 269.802C258.229 269.499 258.024 269.113 257.941 268.692C257.858 268.272 257.9 267.836 258.063 267.44C258.226 267.044 258.502 266.706 258.857 266.468C259.211 266.23 259.627 266.103 260.053 266.103C260.625 266.103 261.173 266.331 261.577 266.737C261.98 267.144 262.207 267.695 262.207 268.27V268.27Z" fill="#C60E50" style="mix-blend-mode:lighten"/>
<path d="M250.588 266.301C250.588 266.729 250.462 267.148 250.225 267.505C249.989 267.861 249.652 268.139 249.259 268.303C248.865 268.467 248.432 268.51 248.014 268.426C247.596 268.342 247.212 268.136 246.911 267.833C246.61 267.53 246.405 267.144 246.322 266.724C246.239 266.303 246.281 265.867 246.444 265.471C246.607 265.076 246.883 264.737 247.238 264.499C247.592 264.261 248.008 264.134 248.434 264.134C249.006 264.134 249.553 264.362 249.957 264.768C250.361 265.175 250.588 265.726 250.588 266.301V266.301Z" fill="#C60E50" style="mix-blend-mode:lighten"/>
<path d="M238.131 266.229C238.131 266.658 238.005 267.077 237.768 267.433C237.532 267.79 237.195 268.067 236.802 268.231C236.408 268.396 235.975 268.438 235.557 268.355C235.139 268.271 234.755 268.065 234.454 267.762C234.153 267.459 233.948 267.073 233.865 266.652C233.782 266.232 233.824 265.796 233.987 265.4C234.15 265.004 234.426 264.666 234.781 264.428C235.135 264.19 235.551 264.062 235.977 264.062C236.549 264.062 237.096 264.291 237.5 264.697C237.904 265.104 238.131 265.655 238.131 266.229V266.229Z" fill="#C60E50" style="mix-blend-mode:lighten"/>
<path d="M234.092 265.341C234.092 265.769 233.966 266.188 233.729 266.545C233.492 266.901 233.156 267.179 232.762 267.343C232.369 267.507 231.936 267.55 231.518 267.466C231.1 267.383 230.716 267.176 230.415 266.873C230.114 266.57 229.909 266.184 229.826 265.764C229.742 265.343 229.785 264.907 229.948 264.512C230.111 264.116 230.387 263.777 230.741 263.539C231.096 263.301 231.512 263.174 231.938 263.174C232.509 263.174 233.057 263.402 233.461 263.809C233.865 264.215 234.092 264.766 234.092 265.341V265.341Z" fill="#C60E50" style="mix-blend-mode:lighten"/>
<path d="M262.986 265.209C262.986 265.638 262.859 266.057 262.623 266.413C262.386 266.769 262.05 267.047 261.656 267.211C261.262 267.375 260.829 267.418 260.412 267.334C259.994 267.251 259.61 267.044 259.309 266.741C259.007 266.438 258.802 266.052 258.719 265.632C258.636 265.211 258.679 264.776 258.842 264.38C259.005 263.984 259.281 263.645 259.635 263.407C259.989 263.169 260.406 263.042 260.832 263.042C261.403 263.042 261.951 263.27 262.355 263.677C262.759 264.083 262.986 264.634 262.986 265.209V265.209Z" fill="#C60E50" style="mix-blend-mode:lighten"/>
<path d="M237.039 263.916C237.039 264.345 236.913 264.764 236.676 265.12C236.44 265.476 236.103 265.754 235.71 265.918C235.316 266.082 234.883 266.125 234.465 266.041C234.047 265.958 233.664 265.751 233.362 265.448C233.061 265.145 232.856 264.759 232.773 264.339C232.69 263.918 232.732 263.483 232.895 263.087C233.058 262.691 233.335 262.352 233.689 262.114C234.043 261.876 234.459 261.749 234.885 261.749C235.457 261.749 236.005 261.977 236.409 262.384C236.812 262.79 237.039 263.341 237.039 263.916V263.916Z" fill="#C60E50" style="mix-blend-mode:lighten"/>
<path d="M263.263 259.645C263.263 260.073 263.137 260.492 262.9 260.848C262.663 261.205 262.327 261.483 261.933 261.647C261.54 261.811 261.107 261.853 260.689 261.77C260.271 261.686 259.887 261.48 259.586 261.177C259.285 260.874 259.08 260.488 258.996 260.067C258.913 259.647 258.956 259.211 259.119 258.815C259.282 258.419 259.558 258.081 259.912 257.843C260.267 257.605 260.683 257.478 261.109 257.478C261.68 257.478 262.228 257.706 262.632 258.112C263.036 258.519 263.263 259.07 263.263 259.645V259.645Z" fill="#C60E50" style="mix-blend-mode:lighten"/>
<path d="M255.864 258.21C255.864 258.639 255.737 259.057 255.501 259.414C255.264 259.77 254.928 260.048 254.534 260.212C254.14 260.376 253.707 260.419 253.289 260.335C252.872 260.252 252.488 260.045 252.187 259.742C251.885 259.439 251.68 259.053 251.597 258.633C251.514 258.212 251.557 257.777 251.72 257.381C251.883 256.985 252.159 256.646 252.513 256.408C252.867 256.17 253.284 256.043 253.71 256.043C254.281 256.043 254.829 256.271 255.233 256.678C255.637 257.084 255.864 257.635 255.864 258.21V258.21Z" fill="#C60E50" style="mix-blend-mode:lighten"/>
<path d="M248.502 254.293C248.502 254.722 248.376 255.14 248.139 255.497C247.903 255.853 247.566 256.131 247.173 256.295C246.779 256.459 246.346 256.502 245.928 256.418C245.51 256.335 245.126 256.128 244.825 255.825C244.524 255.522 244.319 255.136 244.236 254.716C244.153 254.295 244.195 253.86 244.358 253.464C244.521 253.068 244.797 252.729 245.152 252.491C245.506 252.253 245.922 252.126 246.348 252.126C246.92 252.126 247.467 252.354 247.871 252.761C248.275 253.167 248.502 253.718 248.502 254.293V254.293Z" fill="#C60E50" style="mix-blend-mode:lighten"/>
<path d="M246.233 251.223C246.233 251.651 246.106 252.07 245.87 252.427C245.633 252.783 245.297 253.061 244.903 253.225C244.51 253.389 244.076 253.432 243.659 253.348C243.241 253.264 242.857 253.058 242.556 252.755C242.254 252.452 242.049 252.066 241.966 251.645C241.883 251.225 241.926 250.789 242.089 250.393C242.252 249.997 242.528 249.659 242.882 249.421C243.236 249.183 243.653 249.056 244.079 249.056C244.65 249.056 245.198 249.284 245.602 249.69C246.006 250.097 246.233 250.648 246.233 251.223Z" fill="#C60E50" style="mix-blend-mode:lighten"/>
<path d="M257.586 249.252C257.586 249.681 257.46 250.099 257.223 250.456C256.987 250.812 256.65 251.09 256.257 251.254C255.863 251.418 255.43 251.461 255.012 251.377C254.594 251.294 254.21 251.087 253.909 250.784C253.608 250.481 253.403 250.095 253.32 249.675C253.237 249.254 253.279 248.819 253.442 248.423C253.605 248.027 253.881 247.688 254.236 247.45C254.59 247.212 255.006 247.085 255.432 247.085C256.004 247.085 256.551 247.313 256.955 247.72C257.359 248.126 257.586 248.677 257.586 249.252V249.252Z" fill="#C60E50" style="mix-blend-mode:lighten"/>
<path d="M251.582 246.354C251.582 246.783 251.456 247.202 251.219 247.558C250.983 247.915 250.646 248.192 250.253 248.356C249.859 248.521 249.426 248.563 249.008 248.48C248.59 248.396 248.207 248.19 247.905 247.887C247.604 247.584 247.399 247.198 247.316 246.777C247.233 246.357 247.275 245.921 247.438 245.525C247.601 245.129 247.877 244.791 248.232 244.553C248.586 244.315 249.002 244.188 249.428 244.188C250 244.188 250.548 244.416 250.952 244.822C251.355 245.229 251.582 245.78 251.582 246.354V246.354Z" fill="#C60E50" style="mix-blend-mode:lighten"/>
<path d="M259.406 236.749C259.406 237.178 259.279 237.597 259.043 237.953C258.806 238.309 258.47 238.587 258.076 238.751C257.682 238.915 257.249 238.958 256.831 238.874C256.414 238.791 256.03 238.584 255.729 238.281C255.427 237.978 255.222 237.592 255.139 237.172C255.056 236.751 255.099 236.316 255.262 235.92C255.425 235.524 255.701 235.185 256.055 234.947C256.409 234.709 256.826 234.582 257.252 234.582C257.823 234.582 258.371 234.81 258.775 235.217C259.179 235.623 259.406 236.174 259.406 236.749V236.749Z" fill="#C60E50" style="mix-blend-mode:lighten"/>
<path d="M245.397 232.567C245.397 232.996 245.271 233.415 245.034 233.771C244.797 234.128 244.461 234.405 244.067 234.569C243.674 234.733 243.24 234.776 242.823 234.693C242.405 234.609 242.021 234.403 241.72 234.1C241.419 233.797 241.213 233.41 241.13 232.99C241.047 232.57 241.09 232.134 241.253 231.738C241.416 231.342 241.692 231.004 242.046 230.766C242.4 230.527 242.817 230.4 243.243 230.4C243.814 230.4 244.362 230.629 244.766 231.035C245.17 231.441 245.397 231.993 245.397 232.567V232.567Z" fill="#C60E50" style="mix-blend-mode:lighten"/>
<path d="M257.999 211.218C257.999 211.646 257.873 212.065 257.636 212.422C257.4 212.778 257.063 213.056 256.67 213.22C256.276 213.384 255.843 213.427 255.425 213.343C255.007 213.259 254.624 213.053 254.322 212.75C254.021 212.447 253.816 212.061 253.733 211.641C253.65 211.22 253.692 210.784 253.855 210.388C254.018 209.993 254.294 209.654 254.649 209.416C255.003 209.178 255.419 209.051 255.845 209.051C256.417 209.051 256.965 209.279 257.369 209.685C257.772 210.092 257.999 210.643 257.999 211.218V211.218Z" fill="#C60E50" style="mix-blend-mode:lighten"/>
<path d="M251.958 210.874C251.958 211.303 251.832 211.722 251.595 212.078C251.359 212.434 251.022 212.712 250.629 212.876C250.235 213.04 249.802 213.083 249.384 212.999C248.966 212.916 248.583 212.709 248.281 212.406C247.98 212.103 247.775 211.717 247.692 211.297C247.609 210.876 247.651 210.441 247.814 210.045C247.977 209.649 248.253 209.31 248.608 209.072C248.962 208.834 249.378 208.707 249.804 208.707C250.376 208.707 250.924 208.935 251.327 209.342C251.731 209.748 251.958 210.299 251.958 210.874V210.874Z" fill="#C60E50" style="mix-blend-mode:lighten"/>
<path d="M249.497 196.321C249.497 196.75 249.371 197.169 249.134 197.525C248.898 197.882 248.561 198.159 248.168 198.323C247.774 198.487 247.341 198.53 246.923 198.447C246.505 198.363 246.122 198.157 245.82 197.854C245.519 197.55 245.314 197.164 245.231 196.744C245.148 196.324 245.19 195.888 245.353 195.492C245.516 195.096 245.793 194.758 246.147 194.519C246.501 194.281 246.917 194.154 247.343 194.154C247.915 194.154 248.463 194.383 248.867 194.789C249.271 195.195 249.497 195.747 249.497 196.321V196.321Z" fill="#C60E50" style="mix-blend-mode:lighten"/>
<path d="M244.756 192.474C244.756 192.902 244.63 193.321 244.393 193.678C244.157 194.034 243.82 194.312 243.427 194.476C243.033 194.64 242.6 194.683 242.182 194.599C241.764 194.515 241.38 194.309 241.079 194.006C240.778 193.703 240.573 193.317 240.49 192.896C240.407 192.476 240.449 192.04 240.612 191.644C240.775 191.248 241.051 190.91 241.406 190.672C241.76 190.434 242.176 190.307 242.602 190.307C243.174 190.307 243.721 190.535 244.125 190.941C244.529 191.348 244.756 191.899 244.756 192.474V192.474Z" fill="#C60E50" style="mix-blend-mode:lighten"/>
<path d="M249.629 168.84C249.629 169.268 249.503 169.687 249.266 170.044C249.03 170.4 248.693 170.678 248.3 170.842C247.906 171.006 247.473 171.049 247.055 170.965C246.637 170.882 246.253 170.675 245.952 170.372C245.651 170.069 245.446 169.683 245.363 169.263C245.28 168.842 245.322 168.407 245.485 168.011C245.648 167.615 245.924 167.276 246.279 167.038C246.633 166.8 247.049 166.673 247.475 166.673C248.047 166.673 248.594 166.901 248.998 167.308C249.402 167.714 249.629 168.265 249.629 168.84V168.84Z" fill="#C60E50" style="mix-blend-mode:lighten"/>
<path d="M258.303 160.509C258.303 160.937 258.177 161.356 257.94 161.713C257.703 162.069 257.367 162.347 256.973 162.511C256.58 162.675 256.147 162.718 255.729 162.634C255.311 162.55 254.927 162.344 254.626 162.041C254.325 161.738 254.12 161.352 254.037 160.932C253.953 160.511 253.996 160.075 254.159 159.68C254.322 159.284 254.598 158.945 254.952 158.707C255.307 158.469 255.723 158.342 256.149 158.342C256.72 158.342 257.268 158.57 257.672 158.976C258.076 159.383 258.303 159.934 258.303 160.509V160.509Z" fill="#C60E50" style="mix-blend-mode:lighten"/>
<path d="M250.792 157.902C250.792 158.331 250.666 158.75 250.429 159.106C250.193 159.463 249.856 159.74 249.463 159.904C249.069 160.068 248.636 160.111 248.218 160.028C247.8 159.944 247.417 159.738 247.115 159.435C246.814 159.132 246.609 158.745 246.526 158.325C246.443 157.905 246.485 157.469 246.648 157.073C246.811 156.677 247.087 156.339 247.442 156.101C247.796 155.862 248.212 155.735 248.638 155.735C249.21 155.735 249.758 155.964 250.161 156.37C250.565 156.776 250.792 157.328 250.792 157.902V157.902Z" fill="#C60E50" style="mix-blend-mode:lighten"/>
<text fill="#DEE2E8" xml:space="preserve" style="white-space: pre" font-family="Mulish" font-size="18" font-weight="300" letter-spacing="0.135em"><tspan x="297.978" y="518.008">2010</tspan></text>
<text fill="#DEE2E8" xml:space="preserve" style="white-space: pre" font-family="Mulish" font-size="18" font-weight="300" letter-spacing="0.135em"><tspan x="522.194" y="518.007">2020</tspan></text>
<path d="M163.598 231.854H709.994Z" fill="#C57AFF" fill-opacity="0.15"/>
<path d="M163.598 231.854H709.994" stroke="#C57AFF" stroke-opacity="0.15"/>
<path d="M163.598 317.089H709.994Z" fill="#C57AFF" fill-opacity="0.15"/>
<path d="M163.598 317.089H709.994" stroke="#C57AFF" stroke-opacity="0.15"/>
<path d="M163.598 401.601H709.994Z" fill="#C57AFF" fill-opacity="0.15"/>
<path d="M163.598 401.601H709.994" stroke="#C57AFF" stroke-opacity="0.15"/>
<path d="M163.598 486.113H709.994Z" fill="#C57AFF" fill-opacity="0.15"/>
<path d="M163.598 486.113H709.994" stroke="#C57AFF" stroke-opacity="0.15"/>
<text fill="#DEE2E8" xml:space="preserve" style="white-space: pre" font-family="Mulish" font-size="18" font-weight="300" letter-spacing="0.135em"><tspan x="95.9717" y="412.721">2:30</tspan></text>
<text fill="#DEE2E8" xml:space="preserve" style="white-space: pre" font-family="Mulish" font-size="18" font-weight="300" letter-spacing="0.135em"><tspan x="89.4727" y="496.951">0:00</tspan></text>
<text fill="#DEE2E8" xml:space="preserve" style="white-space: pre" font-family="Mulish" font-size="18" font-weight="300" letter-spacing="0.135em"><tspan x="91.0977" y="327.74">3:20</tspan></text>
<text fill="#DEE2E8" xml:space="preserve" style="white-space: pre" font-family="Mulish" font-size="18" font-weight="300" letter-spacing="0.135em"><tspan x="91.0958" y="242.758">4:10</tspan></text>
<text fill="#DEE2E8" xml:space="preserve" style="white-space: pre" font-family="Mulish" font-size="18" font-weight="300" letter-spacing="0.135em"><tspan x="91.0958" y="157.776">5:00</tspan></text>
<text transform="translate(49.7998 407.419) rotate(-90)" fill="#DEE2E8" xml:space="preserve" style="white-space: pre" font-family="Mulish" font-size="18" font-weight="300" letter-spacing="0.135em"><tspan x="0.264046" y="18.295">Duraci&#xf3;n en minutos</tspan></text>
<rect y="590.285" width="368" height="311" rx="5" fill="url(#paint7_linear_234_4837)" style="mix-blend-mode:lighten"/>
<text fill="#DEE2E8" xml:space="preserve" style="white-space: pre" font-family="Mulish" font-size="48" font-weight="900" letter-spacing="0em"><tspan x="24" y="745.405">3:47</tspan></text>
<text fill="#DEE2E8" xml:space="preserve" style="white-space: pre" font-family="Mulish" font-size="16" font-weight="300" letter-spacing="0em"><tspan x="128" y="745.325">min.</tspan></text>
<text fill="#DEE2E8" xml:space="preserve" style="white-space: pre" font-family="Mulish" font-size="24" letter-spacing="0.025em"><tspan x="24" y="688.56">Duraci&#xf3;n media:</tspan></text>
<text fill="#FFB3F3" xml:space="preserve" style="white-space: pre" font-family="Mulish" font-size="24" font-weight="800" letter-spacing="0.025em"><tspan x="24" y="639.845">2010</tspan></text>
<text fill="#DEE2E8" fill-opacity="0.8" xml:space="preserve" style="white-space: pre" font-family="Mulish" font-size="12" font-weight="300" letter-spacing="0em"><tspan x="103" y="866.6">min.</tspan></text>
<text fill="#DEE2E8" fill-opacity="0.8" xml:space="preserve" style="white-space: pre" font-family="Mulish" font-size="36" font-weight="900" letter-spacing="0em"><tspan x="24" y="867.66">4:54</tspan></text>
<text fill="#DEE2E8" fill-opacity="0.8" xml:space="preserve" style="white-space: pre" font-family="Mulish" font-size="24" letter-spacing="0.025em"><tspan x="24" y="818.845">M&#xe1;xima:</tspan></text>
<text fill="#DEE2E8" fill-opacity="0.8" xml:space="preserve" style="white-space: pre" font-family="Mulish" font-size="12" font-weight="300" letter-spacing="0em"><tspan x="312.004" y="866.6">min.</tspan></text>
<text fill="#DEE2E8" fill-opacity="0.8" xml:space="preserve" style="white-space: pre" font-family="Mulish" font-size="36" font-weight="900" letter-spacing="0em"><tspan x="233.004" y="867.66">2:48</tspan></text>
<text fill="#DEE2E8" fill-opacity="0.8" xml:space="preserve" style="white-space: pre" font-family="Mulish" font-size="24" letter-spacing="0.025em"><tspan x="233.004" y="818.845">M&#xed;nima</tspan></text>
<rect x="392" y="590.285" width="368" height="311" rx="5" fill="url(#paint8_linear_234_4837)" style="mix-blend-mode:lighten"/>
<text fill="#DEE2E8" xml:space="preserve" style="white-space: pre" font-family="Mulish" font-size="48" font-weight="900" letter-spacing="0em"><tspan x="416" y="745.405">3:15</tspan></text>
<text fill="#DEE2E8" xml:space="preserve" style="white-space: pre" font-family="Mulish" font-size="16" font-weight="300" letter-spacing="0em"><tspan x="520" y="745.325">min.</tspan></text>
<text fill="#DEE2E8" xml:space="preserve" style="white-space: pre" font-family="Mulish" font-size="24" letter-spacing="0.025em"><tspan x="416" y="688.56">Duraci&#xf3;n media:</tspan></text>
<text fill="#7EDDDD" xml:space="preserve" style="white-space: pre" font-family="Mulish" font-size="24" font-weight="800" letter-spacing="0.025em"><tspan x="416" y="639.845">2020</tspan></text>
<text fill="#DEE2E8" fill-opacity="0.8" xml:space="preserve" style="white-space: pre" font-family="Mulish" font-size="12" font-weight="300" letter-spacing="0em"><tspan x="495" y="865.6">min.</tspan></text>
<text fill="#DEE2E8" fill-opacity="0.8" xml:space="preserve" style="white-space: pre" font-family="Mulish" font-size="36" font-weight="900" letter-spacing="0em"><tspan x="416" y="866.66">4:22</tspan></text>
<text fill="#DEE2E8" fill-opacity="0.8" xml:space="preserve" style="white-space: pre" font-family="Mulish" font-size="24" letter-spacing="0.025em"><tspan x="416" y="818.845">M&#xe1;xima:</tspan></text>
<text fill="#DEE2E8" fill-opacity="0.8" xml:space="preserve" style="white-space: pre" font-family="Mulish" font-size="12" font-weight="300" letter-spacing="0em"><tspan x="702.799" y="865.6">min.</tspan></text>
<text fill="#DEE2E8" fill-opacity="0.8" xml:space="preserve" style="white-space: pre" font-family="Mulish" font-size="36" font-weight="900" letter-spacing="0em"><tspan x="623.799" y="866.66">2:03</tspan></text>
<text fill="#DEE2E8" fill-opacity="0.8" xml:space="preserve" style="white-space: pre" font-family="Mulish" font-size="24" letter-spacing="0.025em"><tspan x="623.799" y="818.845">M&#xed;nima</tspan></text>
<defs>
<linearGradient id="paint0_linear_234_4837" x1="380" y1="0" x2="380" y2="566.286" gradientUnits="userSpaceOnUse">
<stop stop-color="#0B1131"/>
<stop offset="1" stop-color="#334F79"/>
</linearGradient>
<linearGradient id="paint1_linear_234_4837" x1="612.447" y1="71.9478" x2="616.285" y2="87.6432" gradientUnits="userSpaceOnUse">
<stop stop-color="#E2396F"/>
<stop offset="0.0001" stop-color="#E2396F"/>
<stop offset="1" stop-color="#95326D"/>
<stop offset="1" stop-color="#D23879"/>
</linearGradient>
<linearGradient id="paint2_linear_234_4837" x1="613.488" y1="94.9414" x2="613.488" y2="108.442" gradientUnits="userSpaceOnUse">
<stop stop-color="#3D6DF2"/>
<stop offset="0.0001" stop-color="#3E68E0"/>
<stop offset="0.484375" stop-color="#245EF3"/>
<stop offset="1" stop-color="#3558D3"/>
</linearGradient>
<linearGradient id="paint3_linear_234_4837" x1="551.901" y1="212.443" x2="551.901" y2="458.762" gradientUnits="userSpaceOnUse">
<stop stop-color="#3D6DF2"/>
<stop offset="0.0001" stop-color="#3E68E0"/>
<stop offset="0.484375" stop-color="#245EF3"/>
<stop offset="1" stop-color="#3558D3"/>
</linearGradient>
<linearGradient id="paint4_linear_234_4837" x1="551.901" y1="212.443" x2="551.901" y2="458.762" gradientUnits="userSpaceOnUse">
<stop stop-color="#A0FFFF" stop-opacity="0.81"/>
<stop offset="0.0001" stop-color="#9FBAFF" stop-opacity="0.812969"/>
<stop offset="1" stop-color="#538BF7"/>
</linearGradient>
<linearGradient id="paint5_linear_234_4837" x1="330.53" y1="166.777" x2="429.381" y2="340.962" gradientUnits="userSpaceOnUse">
<stop stop-color="#E2396F"/>
<stop offset="0.0001" stop-color="#E2396F"/>
<stop offset="1" stop-color="#95326D"/>
<stop offset="1" stop-color="#D23879"/>
</linearGradient>
<linearGradient id="paint6_linear_234_4837" x1="330.53" y1="166.777" x2="429.381" y2="340.962" gradientUnits="userSpaceOnUse">
<stop stop-color="#FF9DC5"/>
<stop offset="1" stop-color="#B89FEE" stop-opacity="0.56"/>
<stop offset="1" stop-color="#FFDCE9"/>
</linearGradient>
<linearGradient id="paint7_linear_234_4837" x1="159.467" y1="544.391" x2="267.715" y2="930.005" gradientUnits="userSpaceOnUse">
<stop stop-color="#C60E50"/>
<stop offset="1" stop-color="#A80B3A"/>
</linearGradient>
<linearGradient id="paint8_linear_234_4837" x1="551.467" y1="544.39" x2="630.341" y2="926.029" gradientUnits="userSpaceOnUse">
<stop stop-color="#280EC6"/>
<stop offset="1" stop-color="#370C93"/>
</linearGradient>
</defs>
</svg>
