<svg viewBox="0 0 1068 1191" fill="none" xmlns="http://www.w3.org/2000/svg">
<rect width="1068" height="763" rx="5" fill="#1A283D"/>
<rect width="1068" height="763" rx="5" fill="url(#paint0_linear_225_9706)" fill-opacity="0.2"/>
<text fill="white" xml:space="preserve" style="white-space: pre" font-family="Mulish" font-size="24" font-weight="900" letter-spacing="0em"><tspan x="56.3066" y="101.06">Porcentaje de canciones expl&#xed;citas, </tspan><tspan x="56.3066" y="131.06">2010 vs 2020</tspan></text>
<path d="M164 467H975" stroke="#C57AFF" stroke-opacity="0.15"/>
<path d="M164 271H975" stroke="#C57AFF" stroke-opacity="0.15"/>
<text fill="#DEE2E8" xml:space="preserve" style="white-space: pre" font-family="Mulish" font-size="24" font-weight="300" letter-spacing="0.135em"><tspan x="106.518" y="675.06">0%</tspan></text>
<text fill="#DEE2E8" xml:space="preserve" style="white-space: pre" font-family="Mulish" font-size="24" font-weight="300" letter-spacing="0.135em"><tspan x="99.8872" y="479.06">20%</tspan></text>
<text fill="#DEE2E8" xml:space="preserve" style="white-space: pre" font-family="Mulish" font-size="24" font-weight="300" letter-spacing="0.135em"><tspan x="94.8872" y="283.06">40%</tspan></text>
<text fill="#DEE2E8" xml:space="preserve" style="white-space: pre" font-family="Mulish" font-size="24" font-weight="900" letter-spacing="0em"><tspan x="372.488" y="469.06">24.5%</tspan></text>
<path d="M485 482H332V664H485V482Z" fill="url(#paint1_linear_225_9706)"/>
<text fill="#DEE2E8" xml:space="preserve" style="white-space: pre" font-family="Mulish" font-size="24" font-weight="300" letter-spacing="0.135em"><tspan x="374.859" y="704.06">2010</tspan></text>
<text fill="#DEE2E8" xml:space="preserve" style="white-space: pre" font-family="Mulish" font-size="24" font-weight="900" letter-spacing="0em"><tspan x="671.477" y="248.06">42.2%</tspan></text>
<path d="M784 257H631V666H784V257Z" fill="url(#paint2_linear_225_9706)"/>
<text fill="#DEE2E8" xml:space="preserve" style="white-space: pre" font-family="Mulish" font-size="24" font-weight="300" letter-spacing="0.135em"><tspan x="673.859" y="706.06">2020</tspan></text>
<text fill="#DEE2E8" xml:space="preserve" style="white-space: pre" font-family="Mulish" font-size="24" font-weight="900" letter-spacing="0em"><tspan x="472.422" y="345.06">73.3%</tspan></text>
<text fill="#DEE2E8" xml:space="preserve" style="white-space: pre" font-family="Mulish" font-size="24" letter-spacing="0em"><tspan x="433" y="315.06">Crecimiento&#10;</tspan><tspan x="433" y="345.06">del </tspan></text>
<path d="M621.354 330.354C621.549 330.158 621.549 329.842 621.354 329.646L618.172 326.464C617.976 326.269 617.66 326.269 617.464 326.464C617.269 326.66 617.269 326.976 617.464 327.172L620.293 330L617.464 332.828C617.269 333.024 617.269 333.34 617.464 333.536C617.66 333.731 617.976 333.731 618.172 333.536L621.354 330.354ZM576 330.5L621 330.5L621 329.5L576 329.5L576 330.5Z" fill="#DEE2E8"/>
<path d="M164 663H975" stroke="#C57AFF" stroke-opacity="0.15"/>
<text transform="translate(37 519) rotate(-90)" fill="#DEE2E8" xml:space="preserve" style="white-space: pre" font-family="Mulish" font-size="24" font-weight="300" letter-spacing="0.135em"><tspan x="0" y="24.06">Porcentaje</tspan></text>
<text fill="#DEE2E8" xml:space="preserve" style="white-space: pre" font-family="Mulish" font-size="16" font-weight="300" letter-spacing="0.135em"><tspan x="832.546" y="64.04">A&#xf1;o</tspan></text>
<text fill="#DEE2E8" xml:space="preserve" style="white-space: pre" font-family="Mulish" font-size="16" font-weight="300" letter-spacing="0.135em"><tspan x="854.213" y="93.1064">2010</tspan></text>
<path d="M848.022 97.1889H832.545V80.4199H848.022V97.1889Z" fill="url(#paint3_linear_225_9706)"/>
<text fill="#DEE2E8" xml:space="preserve" style="white-space: pre" font-family="Mulish" font-size="16" font-weight="300" letter-spacing="0.135em"><tspan x="855.244" y="118.818">2020</tspan></text>
<path d="M848.022 123.604H832.545V106.835H848.022V123.604Z" fill="url(#paint4_linear_225_9706)"/>
<rect y="787" width="528" height="404" rx="5" fill="url(#paint5_linear_225_9706)" style="mix-blend-mode:lighten"/>
<text fill="#DEE2E8" xml:space="preserve" style="white-space: pre" font-family="Mulish" font-size="48" font-weight="900" letter-spacing="0em"><tspan x="51.5" y="976.12">355</tspan></text>
<text fill="#DEE2E8" xml:space="preserve" style="white-space: pre" font-family="Mulish" font-size="20" letter-spacing="0.025em"><tspan x="51.5" y="889.55">Entradas </tspan><tspan x="51.5" y="917.55">expl&#xed;citas:</tspan></text>
<text fill="#FFB3F3" xml:space="preserve" style="white-space: pre" font-family="Mulish" font-size="24" font-weight="800" letter-spacing="0.025em"><tspan x="51.5" y="836.56">2010</tspan></text>
<path d="M51.5 1049C51.5 1035.19 62.6929 1024 76.5 1024C90.3071 1024 101.5 1035.19 101.5 1049C101.5 1062.81 90.3071 1074 76.5 1074C62.6929 1074 51.5 1062.81 51.5 1049ZM96.5 1049C96.5 1037.95 87.5457 1029 76.5 1029C65.4543 1029 56.5 1037.95 56.5 1049C56.5 1060.05 65.4543 1069 76.5 1069C87.5457 1069 96.5 1060.05 96.5 1049Z" fill="#D94165"/>
<path d="M67.9495 1072.49C61.8723 1070.28 56.8887 1065.8 54.0455 1059.99C51.2023 1054.18 50.7208 1047.5 52.7021 1041.34L57.4617 1042.87C55.8766 1047.8 56.2618 1053.15 58.5364 1057.79C60.8109 1062.44 64.7978 1066.02 69.6596 1067.79L67.9495 1072.49Z" fill="#FFB3F3"/>
<text fill="#DEE2E8" xml:space="preserve" style="white-space: pre" font-family="Mulish" font-size="36" font-weight="900" letter-spacing="0em"><tspan x="121.5" y="1051.09">24.4%</tspan></text>
<text fill="#DEE2E8" xml:space="preserve" style="white-space: pre" font-family="Mulish" font-size="20" letter-spacing="0.025em"><tspan x="121.5" y="1080.55">de las </tspan><tspan x="121.5" y="1108.55">entradas del </tspan><tspan x="121.5" y="1136.55">2010</tspan></text>
<path d="M266.5 1049C266.5 1035.19 277.693 1024 291.5 1024C305.307 1024 316.5 1035.19 316.5 1049C316.5 1062.81 305.307 1074 291.5 1074C277.693 1074 266.5 1062.81 266.5 1049ZM311.5 1049C311.5 1037.95 302.546 1029 291.5 1029C280.454 1029 271.5 1037.95 271.5 1049C271.5 1060.05 280.454 1069 291.5 1069C302.546 1069 311.5 1060.05 311.5 1049Z" fill="#D94165"/>
<path d="M282.95 1072.49C278.73 1070.96 275.002 1068.31 272.157 1064.84C269.312 1061.36 267.455 1057.19 266.782 1052.75C266.109 1048.31 266.645 1043.77 268.332 1039.61C270.019 1035.45 272.796 1031.81 276.371 1029.1L279.397 1033.08C276.537 1035.25 274.315 1038.16 272.965 1041.49C271.616 1044.81 271.187 1048.45 271.726 1052C272.264 1055.55 273.75 1058.89 276.025 1061.67C278.301 1064.45 281.284 1066.57 284.66 1067.79L282.95 1072.49Z" fill="#FFB3F3"/>
<text fill="#DEE2E8" xml:space="preserve" style="white-space: pre" font-family="Mulish" font-size="36" font-weight="900" letter-spacing="0em"><tspan x="327.5" y="1051.09">34.1%</tspan></text>
<text fill="#DEE2E8" xml:space="preserve" style="white-space: pre" font-family="Mulish" font-size="20" letter-spacing="0.025em"><tspan x="327.5" y="1080.55">de todas las </tspan><tspan x="327.5" y="1108.55">entradas </tspan><tspan x="327.5" y="1136.55">expl&#xed;citas</tspan></text>
<rect x="544" y="787" width="524" height="404" rx="5" fill="url(#paint6_linear_225_9706)" style="mix-blend-mode:lighten"/>
<text fill="#DEE2E8" xml:space="preserve" style="white-space: pre" font-family="Mulish" font-size="48" font-weight="900" letter-spacing="0em"><tspan x="595.5" y="976.12">647</tspan></text>
<text fill="#DEE2E8" xml:space="preserve" style="white-space: pre" font-family="Mulish" font-size="20" letter-spacing="0.025em"><tspan x="595.5" y="889.55">Entradas </tspan><tspan x="595.5" y="917.55">expl&#xed;citas</tspan></text>
<text fill="#7EDDDD" xml:space="preserve" style="white-space: pre" font-family="Mulish" font-size="24" font-weight="800" letter-spacing="0.025em"><tspan x="595.5" y="836.56">2020</tspan></text>
<path d="M595.5 1049C595.5 1035.19 606.693 1024 620.5 1024C634.307 1024 645.5 1035.19 645.5 1049C645.5 1062.81 634.307 1074 620.5 1074C606.693 1074 595.5 1062.81 595.5 1049ZM640.5 1049C640.5 1037.95 631.546 1029 620.5 1029C609.454 1029 600.5 1037.95 600.5 1049C600.5 1060.05 609.454 1069 620.5 1069C631.546 1069 640.5 1060.05 640.5 1049Z" fill="#442ABD"/>
<path d="M611.95 1072.49C606.711 1070.59 602.259 1066.98 599.303 1062.26C596.347 1057.53 595.056 1051.95 595.635 1046.4C596.214 1040.86 598.63 1035.67 602.498 1031.65C606.367 1027.64 611.466 1025.03 616.986 1024.25L617.689 1029.2C613.273 1029.83 609.194 1031.91 606.099 1035.12C603.004 1038.33 601.071 1042.49 600.608 1046.92C600.145 1051.36 601.178 1055.82 603.543 1059.6C605.908 1063.39 609.469 1066.27 613.66 1067.79L611.95 1072.49Z" fill="#7EDDDD"/>
<text fill="#DEE2E8" xml:space="preserve" style="white-space: pre" font-family="Mulish" font-size="36" font-weight="900" letter-spacing="0em"><tspan x="656.5" y="1051.09">42.2%</tspan></text>
<text fill="#DEE2E8" xml:space="preserve" style="white-space: pre" font-family="Mulish" font-size="20" letter-spacing="0.025em"><tspan x="656.5" y="1080.55">de las </tspan><tspan x="656.5" y="1108.55">entradas del </tspan><tspan x="656.5" y="1136.55">2020</tspan></text>
<path d="M801.5 1049C801.5 1035.19 812.693 1024 826.5 1024C840.307 1024 851.5 1035.19 851.5 1049C851.5 1062.81 840.307 1074 826.5 1074C812.693 1074 801.5 1062.81 801.5 1049ZM846.5 1049C846.5 1037.95 837.546 1029 826.5 1029C815.454 1029 806.5 1037.95 806.5 1049C806.5 1060.05 815.454 1069 826.5 1069C837.546 1069 846.5 1060.05 846.5 1049Z" fill="#442ABD"/>
<path d="M817.95 1072.49C813.874 1071.01 810.254 1068.49 807.446 1065.18C804.638 1061.88 802.738 1057.9 801.934 1053.64C801.129 1049.38 801.447 1044.98 802.857 1040.88C804.267 1036.77 806.719 1033.11 809.974 1030.24C813.228 1027.37 817.173 1025.4 821.42 1024.52C825.667 1023.64 830.07 1023.88 834.196 1025.21C838.323 1026.55 842.031 1028.94 844.957 1032.14C847.883 1035.34 849.925 1039.25 850.883 1043.48L846.006 1044.58C845.24 1041.2 843.606 1038.07 841.266 1035.51C838.925 1032.95 835.958 1031.04 832.657 1029.97C829.356 1028.9 825.833 1028.71 822.436 1029.42C819.038 1030.12 815.883 1031.7 813.279 1033.99C810.675 1036.29 808.713 1039.22 807.586 1042.5C806.458 1045.78 806.203 1049.3 806.847 1052.71C807.491 1056.12 809.01 1059.3 811.257 1061.95C813.503 1064.59 816.399 1066.61 819.66 1067.79L817.95 1072.49Z" fill="#7EDDDD"/>
<text fill="#DEE2E8" xml:space="preserve" style="white-space: pre" font-family="Mulish" font-size="36" font-weight="900" letter-spacing="0em"><tspan x="867.5" y="1051.09">65.9%</tspan></text>
<text fill="#DEE2E8" xml:space="preserve" style="white-space: pre" font-family="Mulish" font-size="20" letter-spacing="0.025em"><tspan x="867.5" y="1080.55">de todas las </tspan><tspan x="867.5" y="1108.55">entradas </tspan><tspan x="867.5" y="1136.55">expl&#xed;citas</tspan></text>
<defs>
<linearGradient id="paint0_linear_225_9706" x1="534" y1="0" x2="534" y2="763" gradientUnits="userSpaceOnUse">
<stop stop-color="#0B1131"/>
<stop offset="1" stop-color="#334F79"/>
</linearGradient>
<linearGradient id="paint1_linear_225_9706" x1="398.3" y1="455.142" x2="460.76" y2="669.85" gradientUnits="userSpaceOnUse">
<stop stop-color="#E2396F"/>
<stop offset="0.0001" stop-color="#E2396F"/>
<stop offset="1" stop-color="#95326D"/>
<stop offset="1" stop-color="#D23879"/>
</linearGradient>
<linearGradient id="paint2_linear_225_9706" x1="709.558" y1="257" x2="709.558" y2="681.747" gradientUnits="userSpaceOnUse">
<stop stop-color="#3D6DF2"/>
<stop offset="0.0001" stop-color="#3E68E0"/>
<stop offset="0.484375" stop-color="#245EF3"/>
<stop offset="1" stop-color="#3558D3"/>
</linearGradient>
<linearGradient id="paint3_linear_225_9706" x1="839.251" y1="77.9453" x2="844.564" y2="97.9944" gradientUnits="userSpaceOnUse">
<stop stop-color="#E2396F"/>
<stop offset="0.0001" stop-color="#E2396F"/>
<stop offset="1" stop-color="#95326D"/>
<stop offset="1" stop-color="#D23879"/>
</linearGradient>
<linearGradient id="paint4_linear_225_9706" x1="840.491" y1="106.835" x2="840.491" y2="124.25" gradientUnits="userSpaceOnUse">
<stop stop-color="#3D6DF2"/>
<stop offset="0.0001" stop-color="#3E68E0"/>
<stop offset="0.484375" stop-color="#245EF3"/>
<stop offset="1" stop-color="#3558D3"/>
</linearGradient>
<linearGradient id="paint5_linear_225_9706" x1="228.8" y1="727.381" x2="357.813" y2="1234.99" gradientUnits="userSpaceOnUse">
<stop stop-color="#C60E50"/>
<stop offset="1" stop-color="#A80B3A"/>
</linearGradient>
<linearGradient id="paint6_linear_225_9706" x1="771.067" y1="727.381" x2="865.188" y2="1226.57" gradientUnits="userSpaceOnUse">
<stop stop-color="#280EC6"/>
<stop offset="1" stop-color="#370C93"/>
</linearGradient>
</defs>
</svg>
