<svg  viewBox="0 0 741 1229" fill="none" xmlns="http://www.w3.org/2000/svg">
<rect width="741" height="763" rx="5" fill="#1A283D"/>
<rect width="741" height="763" rx="5" fill="url(#paint0_linear_234_5019)" fill-opacity="0.2"/>
<path d="M175 467H689" stroke="#C57AFF" stroke-opacity="0.15"/>
<path d="M175 271H689" stroke="#C57AFF" stroke-opacity="0.15"/>
<text fill="#DEE2E8" xml:space="preserve" style="white-space: pre" font-family="Mulish" font-size="24" font-weight="300" letter-spacing="0.135em"><tspan x="117.518" y="675.06">0%</tspan></text>
<text fill="#DEE2E8" xml:space="preserve" style="white-space: pre" font-family="Mulish" font-size="24" font-weight="300" letter-spacing="0.135em"><tspan x="110.887" y="479.06">20%</tspan></text>
<text fill="#DEE2E8" xml:space="preserve" style="white-space: pre" font-family="Mulish" font-size="24" font-weight="300" letter-spacing="0.135em"><tspan x="105.887" y="283.06">40%</tspan></text>
<text fill="#DEE2E8" xml:space="preserve" style="white-space: pre" font-family="Mulish" font-size="24" font-weight="900" letter-spacing="0em"><tspan x="266.488" y="469.06">24.5%</tspan></text>
<path d="M379 482H226V664H379V482Z" fill="url(#paint1_linear_234_5019)"/>
<text fill="#DEE2E8" xml:space="preserve" style="white-space: pre" font-family="Mulish" font-size="24" font-weight="300" letter-spacing="0.135em"><tspan x="268.859" y="704.06">2010</tspan></text>
<text fill="#DEE2E8" xml:space="preserve" style="white-space: pre" font-family="Mulish" font-size="24" font-weight="900" letter-spacing="0em"><tspan x="521.477" y="248.06">42.2%</tspan></text>
<path d="M634 257H481V666H634V257Z" fill="url(#paint2_linear_234_5019)"/>
<text fill="#DEE2E8" xml:space="preserve" style="white-space: pre" font-family="Mulish" font-size="24" font-weight="300" letter-spacing="0.135em"><tspan x="523.859" y="706.06">2020</tspan></text>
<text fill="#DEE2E8" xml:space="preserve" style="white-space: pre" font-family="Mulish" font-size="24" font-weight="900" letter-spacing="0em"><tspan x="322.422" y="345.06">73.3%</tspan></text>
<text fill="#DEE2E8" xml:space="preserve" style="white-space: pre" font-family="Mulish" font-size="24" letter-spacing="0em"><tspan x="283" y="315.06">Crecimiento&#10;</tspan><tspan x="283" y="345.06">del </tspan></text>
<path d="M471.354 330.354C471.549 330.158 471.549 329.842 471.354 329.646L468.172 326.464C467.976 326.269 467.66 326.269 467.464 326.464C467.269 326.66 467.269 326.976 467.464 327.172L470.293 330L467.464 332.828C467.269 333.024 467.269 333.34 467.464 333.536C467.66 333.731 467.976 333.731 468.172 333.536L471.354 330.354ZM426 330.5L471 330.5L471 329.5L426 329.5L426 330.5Z" fill="#DEE2E8"/>
<path d="M175 663H689" stroke="#C57AFF" stroke-opacity="0.15"/>
<text transform="translate(48 519) rotate(-90)" fill="#DEE2E8" xml:space="preserve" style="white-space: pre" font-family="Mulish" font-size="24" font-weight="300" letter-spacing="0.135em"><tspan x="0" y="24.06">Porcentaje</tspan></text>
<text fill="white" xml:space="preserve" style="white-space: pre" font-family="Mulish" font-size="24" font-weight="900" letter-spacing="0em"><tspan x="67" y="101.06">Porcentaje de canciones expl&#xed;citas, </tspan><tspan x="67" y="131.06">2010 vs 2020</tspan></text>
<text fill="#DEE2E8" xml:space="preserve" style="white-space: pre" font-family="Mulish" font-size="16" font-weight="300" letter-spacing="0.135em"><tspan x="621.808" y="64.04">A&#xf1;o</tspan></text>
<text fill="#DEE2E8" xml:space="preserve" style="white-space: pre" font-family="Mulish" font-size="16" font-weight="300" letter-spacing="0.135em"><tspan x="643.475" y="93.1064">2010</tspan></text>
<path d="M637.283 97.1889H621.807V80.4199H637.283V97.1889Z" fill="url(#paint3_linear_234_5019)"/>
<text fill="#DEE2E8" xml:space="preserve" style="white-space: pre" font-family="Mulish" font-size="16" font-weight="300" letter-spacing="0.135em"><tspan x="644.506" y="118.818">2020</tspan></text>
<path d="M637.283 123.604H621.807V106.835H637.283V123.604Z" fill="url(#paint4_linear_234_5019)"/>
<rect y="787" width="741" height="213" rx="5" fill="url(#paint5_linear_234_5019)" style="mix-blend-mode:lighten"/>
<text fill="#FFB3F3" xml:space="preserve" style="white-space: pre" font-family="Mulish" font-size="24" font-weight="800" letter-spacing="0.025em"><tspan x="62.5" y="836.56">2010</tspan></text>
<text fill="#DEE2E8" xml:space="preserve" style="white-space: pre" font-family="Mulish" font-size="36" font-weight="900" letter-spacing="0em"><tspan x="62.5" y="952.09">355</tspan></text>
<text fill="#DEE2E8" xml:space="preserve" style="white-space: pre" font-family="Mulish" font-size="16" letter-spacing="0.025em"><tspan x="62.5" y="877.04">Entradas </tspan><tspan x="62.5" y="899.04">expl&#xed;citas:</tspan></text>
<path d="M189.5 893C189.5 879.193 200.693 868 214.5 868C228.307 868 239.5 879.193 239.5 893C239.5 906.807 228.307 918 214.5 918C200.693 918 189.5 906.807 189.5 893ZM234.5 893C234.5 881.954 225.546 873 214.5 873C203.454 873 194.5 881.954 194.5 893C194.5 904.046 203.454 913 214.5 913C225.546 913 234.5 904.046 234.5 893Z" fill="#D94165"/>
<path d="M205.95 916.492C199.872 914.28 194.889 909.799 192.045 903.991C189.202 898.182 188.721 891.497 190.702 885.341L195.462 886.873C193.877 891.798 194.262 897.145 196.536 901.793C198.811 906.44 202.798 910.024 207.66 911.794L205.95 916.492Z" fill="#FFB3F3"/>
<text fill="#DEE2E8" xml:space="preserve" style="white-space: pre" font-family="Mulish" font-size="32" font-weight="900" letter-spacing="0em"><tspan x="259.5" y="892.08">24.4%</tspan></text>
<text fill="#DEE2E8" xml:space="preserve" style="white-space: pre" font-family="Mulish" font-size="16" letter-spacing="0.025em"><tspan x="259.5" y="917.04">de las entradas </tspan><tspan x="259.5" y="939.04">del 2010</tspan></text>
<path d="M444.5 893C444.5 879.193 455.693 868 469.5 868C483.307 868 494.5 879.193 494.5 893C494.5 906.807 483.307 918 469.5 918C455.693 918 444.5 906.807 444.5 893ZM489.5 893C489.5 881.954 480.546 873 469.5 873C458.454 873 449.5 881.954 449.5 893C449.5 904.046 458.454 913 469.5 913C480.546 913 489.5 904.046 489.5 893Z" fill="#D94165"/>
<path d="M460.95 916.492C456.73 914.956 453.002 912.312 450.157 908.838C447.312 905.363 445.455 901.187 444.782 896.747C444.109 892.307 444.645 887.768 446.332 883.607C448.019 879.445 450.796 875.815 454.371 873.097L457.397 877.078C454.537 879.252 452.315 882.156 450.965 885.485C449.616 888.814 449.187 892.446 449.726 895.998C450.264 899.549 451.75 902.891 454.025 905.67C456.301 908.45 459.284 910.565 462.66 911.794L460.95 916.492Z" fill="#FFB3F3"/>
<text fill="#DEE2E8" xml:space="preserve" style="white-space: pre" font-family="Mulish" font-size="32" font-weight="900" letter-spacing="0em"><tspan x="514.5" y="892.08">34.1%</tspan></text>
<text fill="#DEE2E8" xml:space="preserve" style="white-space: pre" font-family="Mulish" font-size="16" letter-spacing="0.025em"><tspan x="514.5" y="917.04">de todas las </tspan><tspan x="514.5" y="939.04">entradas expl&#xed;citas</tspan></text>
<rect y="1016" width="741" height="213" rx="5" fill="url(#paint6_linear_234_5019)" style="mix-blend-mode:lighten"/>
<text fill="#7EDDDD" xml:space="preserve" style="white-space: pre" font-family="Mulish" font-size="24" font-weight="800" letter-spacing="0.025em"><tspan x="62.5" y="1065.56">2010</tspan></text>
<text fill="#DEE2E8" xml:space="preserve" style="white-space: pre" font-family="Mulish" font-size="36" font-weight="900" letter-spacing="0em"><tspan x="62.5" y="1181.09">647</tspan></text>
<text fill="#DEE2E8" xml:space="preserve" style="white-space: pre" font-family="Mulish" font-size="16" letter-spacing="0.025em"><tspan x="62.5" y="1106.04">Entradas </tspan><tspan x="62.5" y="1128.04">expl&#xed;citas:</tspan></text>
<path d="M189.5 1122C189.5 1108.19 200.693 1097 214.5 1097C228.307 1097 239.5 1108.19 239.5 1122C239.5 1135.81 228.307 1147 214.5 1147C200.693 1147 189.5 1135.81 189.5 1122ZM234.5 1122C234.5 1110.95 225.546 1102 214.5 1102C203.454 1102 194.5 1110.95 194.5 1122C194.5 1133.05 203.454 1142 214.5 1142C225.546 1142 234.5 1133.05 234.5 1122Z" fill="#593FCB" fill-opacity="0.5"/>
<path d="M205.95 1145.49C200.711 1143.59 196.259 1139.98 193.303 1135.26C190.347 1130.53 189.056 1124.95 189.635 1119.4C190.214 1113.86 192.63 1108.67 196.498 1104.65C200.367 1100.64 205.466 1098.03 210.986 1097.25L211.689 1102.2C207.273 1102.83 203.194 1104.91 200.099 1108.12C197.004 1111.33 195.071 1115.49 194.608 1119.92C194.145 1124.36 195.178 1128.82 197.543 1132.6C199.908 1136.39 203.469 1139.27 207.66 1140.79L205.95 1145.49Z" fill="#7EDDDD"/>
<text fill="#DEE2E8" xml:space="preserve" style="white-space: pre" font-family="Mulish" font-size="32" font-weight="900" letter-spacing="0em"><tspan x="259.5" y="1121.08">42.2%</tspan></text>
<text fill="#DEE2E8" xml:space="preserve" style="white-space: pre" font-family="Mulish" font-size="16" letter-spacing="0.025em"><tspan x="259.5" y="1146.04">de las entradas </tspan><tspan x="259.5" y="1168.04">del 2010</tspan></text>
<path d="M443.5 1122C443.5 1108.19 454.693 1097 468.5 1097C482.307 1097 493.5 1108.19 493.5 1122C493.5 1135.81 482.307 1147 468.5 1147C454.693 1147 443.5 1135.81 443.5 1122ZM488.5 1122C488.5 1110.95 479.546 1102 468.5 1102C457.454 1102 448.5 1110.95 448.5 1122C448.5 1133.05 457.454 1142 468.5 1142C479.546 1142 488.5 1133.05 488.5 1122Z" fill="#593FCB" fill-opacity="0.5"/>
<path d="M459.95 1145.49C455.874 1144.01 452.254 1141.49 449.446 1138.18C446.638 1134.88 444.738 1130.9 443.934 1126.64C443.129 1122.38 443.447 1117.98 444.857 1113.88C446.267 1109.77 448.719 1106.11 451.974 1103.24C455.228 1100.37 459.173 1098.4 463.42 1097.52C467.667 1096.64 472.07 1096.88 476.196 1098.21C480.323 1099.55 484.031 1101.94 486.957 1105.14C489.883 1108.34 491.925 1112.25 492.883 1116.48L488.006 1117.58C487.24 1114.2 485.606 1111.07 483.266 1108.51C480.925 1105.95 477.958 1104.04 474.657 1102.97C471.356 1101.9 467.833 1101.71 464.436 1102.42C461.038 1103.12 457.883 1104.7 455.279 1106.99C452.675 1109.29 450.713 1112.22 449.586 1115.5C448.458 1118.78 448.203 1122.3 448.847 1125.71C449.491 1129.12 451.01 1132.3 453.257 1134.95C455.503 1137.59 458.399 1139.61 461.66 1140.79L459.95 1145.49Z" fill="#7EDDDD"/>
<text fill="#DEE2E8" xml:space="preserve" style="white-space: pre" font-family="Mulish" font-size="32" font-weight="900" letter-spacing="0em"><tspan x="513.5" y="1121.08">65.9%</tspan></text>
<text fill="#DEE2E8" xml:space="preserve" style="white-space: pre" font-family="Mulish" font-size="16" letter-spacing="0.025em"><tspan x="513.5" y="1146.04">de todas las </tspan><tspan x="513.5" y="1168.04">entradas expl&#xed;citas</tspan></text>
<defs>
<linearGradient id="paint0_linear_234_5019" x1="370.5" y1="0" x2="370.5" y2="763" gradientUnits="userSpaceOnUse">
<stop stop-color="#0B1131"/>
<stop offset="1" stop-color="#334F79"/>
</linearGradient>
<linearGradient id="paint1_linear_234_5019" x1="292.3" y1="455.142" x2="354.76" y2="669.85" gradientUnits="userSpaceOnUse">
<stop stop-color="#E2396F"/>
<stop offset="0.0001" stop-color="#E2396F"/>
<stop offset="1" stop-color="#95326D"/>
<stop offset="1" stop-color="#D23879"/>
</linearGradient>
<linearGradient id="paint2_linear_234_5019" x1="559.558" y1="257" x2="559.558" y2="681.747" gradientUnits="userSpaceOnUse">
<stop stop-color="#3D6DF2"/>
<stop offset="0.0001" stop-color="#3E68E0"/>
<stop offset="0.484375" stop-color="#245EF3"/>
<stop offset="1" stop-color="#3558D3"/>
</linearGradient>
<linearGradient id="paint3_linear_234_5019" x1="628.513" y1="77.9453" x2="633.826" y2="97.9944" gradientUnits="userSpaceOnUse">
<stop stop-color="#E2396F"/>
<stop offset="0.0001" stop-color="#E2396F"/>
<stop offset="1" stop-color="#95326D"/>
<stop offset="1" stop-color="#D23879"/>
</linearGradient>
<linearGradient id="paint4_linear_234_5019" x1="629.753" y1="106.835" x2="629.753" y2="124.25" gradientUnits="userSpaceOnUse">
<stop stop-color="#3D6DF2"/>
<stop offset="0.0001" stop-color="#3E68E0"/>
<stop offset="0.484375" stop-color="#245EF3"/>
<stop offset="1" stop-color="#3558D3"/>
</linearGradient>
<linearGradient id="paint5_linear_234_5019" x1="321.1" y1="755.567" x2="348.058" y2="1037.91" gradientUnits="userSpaceOnUse">
<stop stop-color="#C60E50"/>
<stop offset="1" stop-color="#A80B3A"/>
</linearGradient>
<linearGradient id="paint6_linear_234_5019" x1="321.1" y1="984.567" x2="340.165" y2="1255.77" gradientUnits="userSpaceOnUse">
<stop stop-color="#280EC6"/>
<stop offset="1" stop-color="#370C93"/>
</linearGradient>
</defs>
</svg>
