<svg  viewBox="0 0 566 1377" fill="none" xmlns="http://www.w3.org/2000/svg">
<rect width="566.001" height="763" rx="5" fill="#1A283D"/>
<rect width="566.001" height="763" rx="5" fill="url(#paint0_linear_231_3669)" fill-opacity="0.2"/>
<path d="M164 467H500" stroke="#C57AFF" stroke-opacity="0.15"/>
<path d="M164 271H500" stroke="#C57AFF" stroke-opacity="0.15"/>
<text fill="#DEE2E8" xml:space="preserve" style="white-space: pre" font-family="Mulish" font-size="24" font-weight="300" letter-spacing="0.135em"><tspan x="106.518" y="675.06">0%</tspan></text>
<text fill="#DEE2E8" xml:space="preserve" style="white-space: pre" font-family="Mulish" font-size="24" font-weight="300" letter-spacing="0.135em"><tspan x="99.8872" y="479.06">20%</tspan></text>
<text fill="#DEE2E8" xml:space="preserve" style="white-space: pre" font-family="Mulish" font-size="24" font-weight="300" letter-spacing="0.135em"><tspan x="94.8872" y="283.06">40%</tspan></text>
<path d="M292 503L339 503" stroke="#DEE2E8" stroke-dasharray="5 5"/>
<text fill="#DEE2E8" xml:space="preserve" style="white-space: pre" font-family="Mulish" font-size="24" font-weight="900" letter-spacing="0em"><tspan x="207.988" y="469.06">24.5%</tspan></text>
<path d="M292 482H196V664H292V482Z" fill="url(#paint1_linear_231_3669)"/>
<text fill="#DEE2E8" xml:space="preserve" style="white-space: pre" font-family="Mulish" font-size="24" font-weight="300" letter-spacing="0.135em"><tspan x="210.359" y="704.06">2010</tspan></text>
<text fill="#DEE2E8" xml:space="preserve" style="white-space: pre" font-family="Mulish" font-size="24" font-weight="900" letter-spacing="0em"><tspan x="354.977" y="248.06">42.2%</tspan></text>
<path d="M439 257H343V666H439V257Z" fill="url(#paint2_linear_231_3669)"/>
<text fill="#DEE2E8" xml:space="preserve" style="white-space: pre" font-family="Mulish" font-size="24" font-weight="300" letter-spacing="0.135em"><tspan x="357.359" y="706.06">2020</tspan></text>
<text fill="#DEE2E8" xml:space="preserve" style="white-space: pre" font-family="Mulish" font-size="24" font-weight="900" letter-spacing="0em"><tspan x="214.422" y="345.06">73.3%</tspan></text>
<text fill="#DEE2E8" xml:space="preserve" style="white-space: pre" font-family="Mulish" font-size="24" letter-spacing="0em"><tspan x="175" y="315.06">Crecimiento&#10;</tspan><tspan x="175" y="345.06">del </tspan></text>
<path d="M363.354 330.354C363.549 330.158 363.549 329.842 363.354 329.646L360.172 326.464C359.976 326.269 359.66 326.269 359.464 326.464C359.269 326.66 359.269 326.976 359.464 327.172L362.293 330L359.464 332.828C359.269 333.024 359.269 333.34 359.464 333.536C359.66 333.731 359.976 333.731 360.172 333.536L363.354 330.354ZM318 330.5L363 330.5L363 329.5L318 329.5L318 330.5Z" fill="#DEE2E8"/>
<path d="M164 663H500" stroke="#C57AFF" stroke-opacity="0.15"/>
<text transform="translate(37 519) rotate(-90)" fill="#DEE2E8" xml:space="preserve" style="white-space: pre" font-family="Mulish" font-size="24" font-weight="300" letter-spacing="0.135em"><tspan x="0" y="24.06">Porcentaje</tspan></text>
<text fill="white" xml:space="preserve" style="white-space: pre" font-family="Mulish" font-size="30" font-weight="900" letter-spacing="0em"><tspan x="52" y="80.325">Porcentaje de </tspan><tspan x="52" y="118.325">canciones expl&#xed;citas, </tspan><tspan x="52" y="156.325">2010 vs 2020</tspan></text>
<text fill="#DEE2E8" xml:space="preserve" style="white-space: pre" font-family="Mulish" font-size="16" font-weight="300" letter-spacing="0.135em"><tspan x="423.999" y="91.5351">A&#xf1;o</tspan></text>
<text fill="#DEE2E8" xml:space="preserve" style="white-space: pre" font-family="Mulish" font-size="16" font-weight="300" letter-spacing="0.135em"><tspan x="455.036" y="114.539">2020</tspan></text>
<path d="M437.975 111.023H425.282V100.023H437.975V111.023Z" fill="url(#paint3_linear_231_3669)"/>
<text fill="#DEE2E8" xml:space="preserve" style="white-space: pre" font-family="Mulish" font-size="16" font-weight="300" letter-spacing="0.135em"><tspan x="456.121" y="135.387">2010</tspan></text>
<path d="M437.975 132.486H425.282V121.486H437.975V132.486Z" fill="url(#paint4_linear_231_3669)"/>
<rect y="779" width="566" height="291" rx="5" fill="url(#paint5_linear_231_3669)" style="mix-blend-mode:lighten"/>
<text fill="#FFB3F3" xml:space="preserve" style="white-space: pre" font-family="Mulish" font-size="24" font-weight="800" letter-spacing="0.025em"><tspan x="62.5" y="852.56">2010</tspan></text>
<text fill="#DEE2E8" xml:space="preserve" style="white-space: pre" font-family="Mulish" font-size="36" font-weight="900" letter-spacing="0em"><tspan x="62.5" y="995.09">355</tspan></text>
<text fill="#DEE2E8" xml:space="preserve" style="white-space: pre" font-family="Mulish" font-size="16" letter-spacing="0.025em"><tspan x="62.5" y="920.04">Entradas </tspan><tspan x="62.5" y="942.04">expl&#xed;citas:</tspan></text>
<path d="M189.5 901C189.5 887.193 200.693 876 214.5 876C228.307 876 239.5 887.193 239.5 901C239.5 914.807 228.307 926 214.5 926C200.693 926 189.5 914.807 189.5 901ZM234.5 901C234.5 889.954 225.546 881 214.5 881C203.454 881 194.5 889.954 194.5 901C194.5 912.046 203.454 921 214.5 921C225.546 921 234.5 912.046 234.5 901Z" fill="#D94165"/>
<path d="M205.95 924.492C199.872 922.28 194.889 917.799 192.045 911.991C189.202 906.182 188.721 899.497 190.702 893.341L195.462 894.873C193.877 899.798 194.262 905.145 196.536 909.793C198.811 914.44 202.798 918.024 207.66 919.794L205.95 924.492Z" fill="#FFB3F3"/>
<text fill="#DEE2E8" xml:space="preserve" style="white-space: pre" font-family="Mulish" font-size="32" font-weight="900" letter-spacing="0em"><tspan x="189.5" y="970.08">24.4%</tspan></text>
<text fill="#DEE2E8" xml:space="preserve" style="white-space: pre" font-family="Mulish" font-size="16" letter-spacing="0.025em"><tspan x="189.5" y="995.04">de las entradas </tspan><tspan x="189.5" y="1017.04">del 2010</tspan></text>
<path d="M354.5 901C354.5 887.193 365.693 876 379.5 876C393.307 876 404.5 887.193 404.5 901C404.5 914.807 393.307 926 379.5 926C365.693 926 354.5 914.807 354.5 901ZM399.5 901C399.5 889.954 390.546 881 379.5 881C368.454 881 359.5 889.954 359.5 901C359.5 912.046 368.454 921 379.5 921C390.546 921 399.5 912.046 399.5 901Z" fill="#D94165"/>
<path d="M370.95 924.492C366.73 922.956 363.002 920.312 360.157 916.838C357.312 913.363 355.455 909.187 354.782 904.747C354.109 900.307 354.645 895.768 356.332 891.607C358.019 887.445 360.796 883.815 364.371 881.097L367.397 885.078C364.537 887.252 362.315 890.156 360.965 893.485C359.616 896.814 359.187 900.446 359.726 903.998C360.264 907.549 361.75 910.891 364.025 913.67C366.301 916.45 369.284 918.565 372.66 919.794L370.95 924.492Z" fill="#FFB3F3"/>
<text fill="#DEE2E8" xml:space="preserve" style="white-space: pre" font-family="Mulish" font-size="32" font-weight="900" letter-spacing="0em"><tspan x="354.5" y="970.08">34.1%</tspan></text>
<text fill="#DEE2E8" xml:space="preserve" style="white-space: pre" font-family="Mulish" font-size="16" letter-spacing="0.025em"><tspan x="354.5" y="995.04">de todas las </tspan><tspan x="354.5" y="1017.04">entradas expl&#xed;citas</tspan></text>
<rect y="1086" width="566" height="291" rx="5" fill="url(#paint6_linear_231_3669)" style="mix-blend-mode:lighten"/>
<text fill="#7EDDDD" xml:space="preserve" style="white-space: pre" font-family="Mulish" font-size="24" font-weight="800" letter-spacing="0.025em"><tspan x="62.5" y="1159.56">2010</tspan></text>
<text fill="#DEE2E8" xml:space="preserve" style="white-space: pre" font-family="Mulish" font-size="36" font-weight="900" letter-spacing="0em"><tspan x="62.5" y="1302.09">647</tspan></text>
<text fill="#DEE2E8" xml:space="preserve" style="white-space: pre" font-family="Mulish" font-size="16" letter-spacing="0.025em"><tspan x="62.5" y="1227.04">Entradas </tspan><tspan x="62.5" y="1249.04">expl&#xed;citas:</tspan></text>
<path d="M189.5 1208C189.5 1194.19 200.693 1183 214.5 1183C228.307 1183 239.5 1194.19 239.5 1208C239.5 1221.81 228.307 1233 214.5 1233C200.693 1233 189.5 1221.81 189.5 1208ZM234.5 1208C234.5 1196.95 225.546 1188 214.5 1188C203.454 1188 194.5 1196.95 194.5 1208C194.5 1219.05 203.454 1228 214.5 1228C225.546 1228 234.5 1219.05 234.5 1208Z" fill="#593FCB" fill-opacity="0.5"/>
<path d="M205.95 1231.49C200.711 1229.59 196.259 1225.98 193.303 1221.26C190.347 1216.53 189.056 1210.95 189.635 1205.4C190.214 1199.86 192.63 1194.67 196.498 1190.65C200.367 1186.64 205.466 1184.03 210.986 1183.25L211.689 1188.2C207.273 1188.83 203.194 1190.91 200.099 1194.12C197.004 1197.33 195.071 1201.49 194.608 1205.92C194.145 1210.36 195.178 1214.82 197.543 1218.6C199.908 1222.39 203.469 1225.27 207.66 1226.79L205.95 1231.49Z" fill="#7EDDDD"/>
<text fill="#DEE2E8" xml:space="preserve" style="white-space: pre" font-family="Mulish" font-size="32" font-weight="900" letter-spacing="0em"><tspan x="189.5" y="1277.08">42.2%</tspan></text>
<text fill="#DEE2E8" xml:space="preserve" style="white-space: pre" font-family="Mulish" font-size="16" letter-spacing="0.025em"><tspan x="189.5" y="1302.04">de las entradas </tspan><tspan x="189.5" y="1324.04">del 2010</tspan></text>
<path d="M354.5 1208C354.5 1194.19 365.693 1183 379.5 1183C393.307 1183 404.5 1194.19 404.5 1208C404.5 1221.81 393.307 1233 379.5 1233C365.693 1233 354.5 1221.81 354.5 1208ZM399.5 1208C399.5 1196.95 390.546 1188 379.5 1188C368.454 1188 359.5 1196.95 359.5 1208C359.5 1219.05 368.454 1228 379.5 1228C390.546 1228 399.5 1219.05 399.5 1208Z" fill="#593FCB" fill-opacity="0.5"/>
<path d="M370.95 1231.49C366.874 1230.01 363.254 1227.49 360.446 1224.18C357.638 1220.88 355.738 1216.9 354.934 1212.64C354.129 1208.38 354.447 1203.98 355.857 1199.88C357.267 1195.77 359.719 1192.11 362.974 1189.24C366.228 1186.37 370.173 1184.4 374.42 1183.52C378.667 1182.64 383.07 1182.88 387.196 1184.21C391.323 1185.55 395.031 1187.94 397.957 1191.14C400.883 1194.34 402.925 1198.25 403.883 1202.48L399.006 1203.58C398.24 1200.2 396.606 1197.07 394.266 1194.51C391.925 1191.95 388.958 1190.04 385.657 1188.97C382.356 1187.9 378.833 1187.71 375.436 1188.42C372.038 1189.12 368.883 1190.7 366.279 1192.99C363.675 1195.29 361.713 1198.22 360.586 1201.5C359.458 1204.78 359.203 1208.3 359.847 1211.71C360.491 1215.12 362.01 1218.3 364.257 1220.95C366.503 1223.59 369.399 1225.61 372.66 1226.79L370.95 1231.49Z" fill="#7EDDDD"/>
<text fill="#DEE2E8" xml:space="preserve" style="white-space: pre" font-family="Mulish" font-size="32" font-weight="900" letter-spacing="0em"><tspan x="354.5" y="1277.08">65.9%</tspan></text>
<text fill="#DEE2E8" xml:space="preserve" style="white-space: pre" font-family="Mulish" font-size="16" letter-spacing="0.025em"><tspan x="354.5" y="1302.04">de todas las </tspan><tspan x="354.5" y="1324.04">entradas expl&#xed;citas</tspan></text>
<defs>
<linearGradient id="paint0_linear_231_3669" x1="283" y1="0" x2="283" y2="763" gradientUnits="userSpaceOnUse">
<stop stop-color="#0B1131"/>
<stop offset="1" stop-color="#334F79"/>
</linearGradient>
<linearGradient id="paint1_linear_231_3669" x1="237.6" y1="455.142" x2="326.467" y2="646.818" gradientUnits="userSpaceOnUse">
<stop stop-color="#E2396F"/>
<stop offset="0.0001" stop-color="#E2396F"/>
<stop offset="1" stop-color="#95326D"/>
<stop offset="1" stop-color="#D23879"/>
</linearGradient>
<linearGradient id="paint2_linear_231_3669" x1="392.291" y1="257" x2="392.291" y2="681.747" gradientUnits="userSpaceOnUse">
<stop stop-color="#3D6DF2"/>
<stop offset="0.0001" stop-color="#3E68E0"/>
<stop offset="0.484375" stop-color="#245EF3"/>
<stop offset="1" stop-color="#3558D3"/>
</linearGradient>
<linearGradient id="paint3_linear_231_3669" x1="430.782" y1="98.4002" x2="433.637" y2="111.87" gradientUnits="userSpaceOnUse">
<stop stop-color="#E2396F"/>
<stop offset="0.0001" stop-color="#E2396F"/>
<stop offset="1" stop-color="#95326D"/>
<stop offset="1" stop-color="#D23879"/>
</linearGradient>
<linearGradient id="paint4_linear_231_3669" x1="431.799" y1="121.486" x2="431.799" y2="132.91" gradientUnits="userSpaceOnUse">
<stop stop-color="#3D6DF2"/>
<stop offset="0.0001" stop-color="#3E68E0"/>
<stop offset="0.484375" stop-color="#245EF3"/>
<stop offset="1" stop-color="#3558D3"/>
</linearGradient>
<linearGradient id="paint5_linear_231_3669" x1="245.267" y1="736.057" x2="309.858" y2="1114.28" gradientUnits="userSpaceOnUse">
<stop stop-color="#C60E50"/>
<stop offset="1" stop-color="#A80B3A"/>
</linearGradient>
<linearGradient id="paint6_linear_231_3669" x1="245.267" y1="1043.06" x2="291.355" y2="1409.61" gradientUnits="userSpaceOnUse">
<stop stop-color="#280EC6"/>
<stop offset="1" stop-color="#370C93"/>
</linearGradient>
</defs>
</svg>
