<svg width="1191" height="1131" viewBox="0 0 1191 1131" fill="none" xmlns="http://www.w3.org/2000/svg">
<g clip-path="url(#clip0_236_7251)">
<path d="M0 542.166C20.3333 477.832 95.2373 391.912 232.5 373.166C394 351.11 479 485.61 682 388.166C828.303 317.938 741 -16.8904 1030 0.665871C1300.31 17.0865 1403.5 91.6096 1591 197.11" stroke="url(#paint0_linear_236_7251)" stroke-opacity="0.4" stroke-width="3" style="mix-blend-mode:lighten"/>
<path d="M94 606.775C114.333 542.442 189.237 456.522 326.5 437.776C488 415.719 573 550.219 776 452.775C922.303 382.547 835 47.719 1124 65.2752C1394.31 81.6959 1497.5 156.219 1685 261.719" stroke="url(#paint1_linear_236_7251)" stroke-opacity="0.4" stroke-width="3" style="mix-blend-mode:lighten"/>
<path d="M136 665.385C156.333 601.052 231.237 515.131 368.5 496.385C530 474.329 615 608.829 818 511.385C964.303 441.157 877 106.329 1166 123.885C1436.31 140.306 1539.5 214.829 1727 320.329" stroke="url(#paint2_linear_236_7251)" stroke-opacity="0.4" stroke-width="3" style="mix-blend-mode:lighten"/>
<path d="M204 726.995C224.333 662.661 299.237 576.741 436.5 557.995C598 535.938 683 670.438 886 572.995C1032.3 502.767 945 167.938 1234 185.495C1504.31 201.915 1607.5 276.438 1795 381.938" stroke="url(#paint3_linear_236_7251)" stroke-opacity="0.4" stroke-width="3" style="mix-blend-mode:lighten"/>
<path d="M277 813.775C297.333 749.442 372.237 663.522 509.5 644.776C671 622.719 756 757.219 959 659.775C1105.3 589.547 1018 254.719 1307 272.275C1577.31 288.696 1680.5 363.219 1868 468.719" stroke="url(#paint4_linear_236_7251)" stroke-opacity="0.4" stroke-width="3" style="mix-blend-mode:lighten"/>
<path d="M346 897.775C366.333 833.442 441.237 747.522 578.5 728.776C740 706.719 825 841.219 1028 743.775C1174.3 673.547 1087 338.719 1376 356.275C1646.31 372.696 1749.5 447.219 1937 552.719" stroke="url(#paint5_linear_236_7251)" stroke-opacity="0.4" stroke-width="3"/>
<g filter="url(#filter0_i_236_7251)">
<path d="M635.03 984.439C708.57 941.636 713.517 813.009 646.078 697.142C578.64 581.275 464.354 522.045 390.814 564.847C317.274 607.65 312.328 736.277 379.766 852.144C447.205 968.011 561.49 1027.24 635.03 984.439Z" fill="#3631B9"/>
<path d="M635.03 984.439C708.57 941.636 713.517 813.009 646.078 697.142C578.64 581.275 464.354 522.045 390.814 564.847C317.274 607.65 312.328 736.277 379.766 852.144C447.205 968.011 561.49 1027.24 635.03 984.439Z" fill="url(#paint6_linear_236_7251)" fill-opacity="0.2"/>
<path d="M631.217 977.888C702.46 936.422 707.252 811.812 641.919 699.563C576.587 587.314 465.87 529.933 394.627 571.399C323.384 612.865 318.592 737.475 383.925 849.724C449.257 961.973 559.974 1019.35 631.217 977.888Z" fill="url(#paint7_radial_236_7251)"/>
<path d="M649.835 972.494C717.764 923.673 714.778 793.856 643.166 682.541C571.554 571.226 458.434 520.565 390.505 569.387C322.576 618.208 325.562 748.025 397.174 859.34C468.786 970.655 581.906 1021.32 649.835 972.494Z" fill="#8562EF"/>
<path d="M649.835 972.494C717.764 923.673 714.778 793.856 643.166 682.541C571.554 571.226 458.434 520.565 390.505 569.387C322.576 618.208 325.562 748.025 397.174 859.34C468.786 970.655 581.906 1021.32 649.835 972.494Z" fill="url(#paint8_linear_236_7251)" fill-opacity="0.4"/>
<path d="M649.835 972.494C717.764 923.673 714.778 793.856 643.166 682.541C571.554 571.226 458.434 520.565 390.505 569.387C322.576 618.208 325.562 748.025 397.174 859.34C468.786 970.655 581.906 1021.32 649.835 972.494Z" fill="url(#paint9_radial_236_7251)" fill-opacity="0.2"/>
<path d="M638.186 955.088C700.178 910.453 697.487 791.825 632.177 690.124C566.867 588.422 463.668 542.161 401.676 586.795C339.684 631.43 342.374 750.058 407.685 851.759C472.995 953.461 576.194 999.722 638.186 955.088Z" fill="#8562EF"/>
<path d="M638.186 955.088C700.178 910.453 697.487 791.825 632.177 690.124C566.867 588.422 463.668 542.161 401.676 586.795C339.684 631.43 342.374 750.058 407.685 851.759C472.995 953.461 576.194 999.722 638.186 955.088Z" fill="url(#paint10_linear_236_7251)" fill-opacity="0.4"/>
<path d="M638.186 955.088C700.178 910.453 697.487 791.825 632.177 690.124C566.867 588.422 463.668 542.161 401.676 586.795C339.684 631.43 342.374 750.058 407.685 851.759C472.995 953.461 576.194 999.722 638.186 955.088Z" fill="url(#paint11_radial_236_7251)" fill-opacity="0.2"/>
<path d="M623.762 932.626C678.192 893.436 675.83 789.277 618.486 699.981C561.142 610.685 470.531 570.066 416.101 609.257C361.67 648.447 364.032 752.606 421.377 841.902C478.721 931.198 569.332 971.817 623.762 932.626Z" fill="#8562EF"/>
<path d="M623.762 932.626C678.192 893.436 675.83 789.277 618.486 699.981C561.142 610.685 470.531 570.066 416.101 609.257C361.67 648.447 364.032 752.606 421.377 841.902C478.721 931.198 569.332 971.817 623.762 932.626Z" fill="url(#paint12_linear_236_7251)" fill-opacity="0.4"/>
<path d="M609.984 911.172C657.191 877.182 655.143 786.845 605.408 709.398C555.673 631.951 477.086 596.722 429.878 630.712C382.671 664.702 384.719 755.039 434.454 832.486C484.189 909.933 562.776 945.161 609.984 911.172Z" fill="#8562EF"/>
<path d="M609.984 911.172C657.191 877.182 655.143 786.845 605.408 709.398C555.673 631.951 477.086 596.722 429.878 630.712C382.671 664.702 384.719 755.039 434.454 832.486C484.189 909.933 562.776 945.161 609.984 911.172Z" fill="url(#paint13_linear_236_7251)" fill-opacity="0.4"/>
<path d="M609.984 911.172C657.191 877.182 655.143 786.845 605.408 709.398C555.673 631.951 477.086 596.722 429.878 630.712C382.671 664.702 384.719 755.039 434.454 832.486C484.189 909.933 562.776 945.161 609.984 911.172Z" fill="url(#paint14_radial_236_7251)" fill-opacity="0.2"/>
<path d="M586.017 860.085C551.253 879.98 498.133 852.533 467.371 798.78C436.608 745.027 439.852 685.323 474.616 665.428C509.381 645.533 562.5 672.98 593.263 726.733C624.026 780.486 620.782 840.19 586.017 860.085Z" fill="#ADA1CF"/>
<path d="M583.556 854.758C550.695 873.564 500.483 847.619 471.404 796.809C442.326 745.998 445.392 689.563 478.253 670.757C511.115 651.951 561.327 677.895 590.405 728.705C619.484 779.516 616.417 835.951 583.556 854.758Z" fill="#ADA1CF"/>
<path d="M583.556 854.758C550.695 873.564 500.483 847.619 471.404 796.809C442.326 745.998 445.392 689.563 478.253 670.757C511.115 651.951 561.327 677.895 590.405 728.705C619.484 779.516 616.417 835.951 583.556 854.758Z" fill="url(#paint15_linear_236_7251)" fill-opacity="0.2"/>
<path d="M548.558 762.958C546.682 764.032 543.361 761.756 541.14 757.875C538.919 753.995 538.64 749.978 540.515 748.905C542.391 747.831 545.713 750.107 547.933 753.988C550.154 757.868 550.434 761.885 548.558 762.958Z" fill="#160606"/>
<path d="M547.344 763.057C546.071 763.786 543.388 761.491 541.351 757.932C539.314 754.373 538.695 750.897 539.968 750.169C541.241 749.44 543.925 751.735 545.961 755.294C547.998 758.853 548.617 762.329 547.344 763.057Z" fill="#02132B"/>
</g>
<g filter="url(#filter1_i_236_7251)">
<path d="M483.662 359.476C479.882 433.494 549.866 509.397 639.974 529.01C730.083 548.623 806.194 504.519 809.974 430.501C813.754 356.483 743.771 280.58 653.662 260.967C563.554 241.354 487.442 285.458 483.662 359.476Z" fill="#B8B0EC"/>
<path d="M483.662 359.476C479.882 433.494 549.866 509.397 639.974 529.01C730.083 548.623 806.194 504.519 809.974 430.501C813.754 356.483 743.771 280.58 653.662 260.967C563.554 241.354 487.442 285.458 483.662 359.476Z" fill="url(#paint16_linear_236_7251)" fill-opacity="0.4"/>
<path d="M525.542 453.387C581.807 520.499 682.976 547.248 751.511 513.133C820.045 479.017 829.992 396.956 773.727 329.844C717.463 262.732 616.293 235.983 547.759 270.098C479.225 304.214 469.278 386.275 525.542 453.387Z" fill="#B8B0EC"/>
<path d="M525.542 453.387C581.807 520.499 682.976 547.248 751.511 513.133C820.045 479.017 829.992 396.956 773.727 329.844C717.463 262.732 616.293 235.983 547.759 270.098C479.225 304.214 469.278 386.275 525.542 453.387Z" fill="url(#paint17_linear_236_7251)" fill-opacity="0.4"/>
<path d="M622.656 394.99C642.561 414.655 673.62 421.409 692.026 410.077C710.433 398.745 709.218 373.617 689.312 353.953C669.406 334.288 638.348 327.533 619.941 338.865C601.535 350.198 602.75 375.325 622.656 394.99Z" fill="#35527D"/>
<path d="M622.656 394.99C642.561 414.655 673.62 421.409 692.026 410.077C710.433 398.745 709.218 373.617 689.312 353.953C669.406 334.288 638.348 327.533 619.941 338.865C601.535 350.198 602.75 375.325 622.656 394.99Z" fill="url(#paint18_radial_236_7251)" fill-opacity="0.4"/>
<path d="M625.364 392.489C644.258 411.154 673.737 417.565 691.208 406.809C708.679 396.053 707.526 372.203 688.632 353.538C669.738 334.873 640.259 328.462 622.788 339.218C605.317 349.974 606.47 373.824 625.364 392.489Z" fill="#35527D"/>
<path d="M625.364 392.489C644.258 411.154 673.737 417.565 691.208 406.809C708.679 396.053 707.526 372.203 688.632 353.538C669.738 334.873 640.259 328.462 622.788 339.218C605.317 349.974 606.47 373.824 625.364 392.489Z" fill="url(#paint19_radial_236_7251)" fill-opacity="0.4"/>
<path d="M642.051 382.216C650.979 391.036 664.908 394.065 673.164 388.983C681.419 383.9 680.874 372.63 671.946 363.811C663.019 354.991 649.089 351.962 640.834 357.044C632.578 362.127 633.123 373.397 642.051 382.216Z" fill="#35527D"/>
<path d="M642.051 382.216C650.979 391.036 664.908 394.065 673.164 388.983C681.419 383.9 680.874 372.63 671.946 363.811C663.019 354.991 649.089 351.962 640.834 357.044C632.578 362.127 633.123 373.397 642.051 382.216Z" fill="url(#paint20_radial_236_7251)" fill-opacity="0.4"/>
<path d="M645.879 379.859C652.519 386.419 662.88 388.672 669.021 384.892C675.161 381.111 674.756 372.729 668.115 366.169C661.475 359.609 651.114 357.356 644.974 361.136C638.833 364.916 639.239 373.299 645.879 379.859Z" fill="#35527D"/>
<path d="M645.879 379.859C652.519 386.419 662.88 388.672 669.021 384.892C675.161 381.111 674.756 372.729 668.115 366.169C661.475 359.609 651.114 357.356 644.974 361.136C638.833 364.916 639.239 373.299 645.879 379.859Z" fill="#222D3C"/>
</g>
<g style="mix-blend-mode:multiply">
<path style="mix-blend-mode:multiply" fill-rule="evenodd" clip-rule="evenodd" d="M689.072 713.925L667.209 661.192C672.046 662.584 676.136 661.516 680.156 660.466C684.345 659.372 688.459 658.297 693.266 660.043C697.321 661.516 703.47 666.852 705.693 679.335C706.754 691.025 702.936 696.324 698.703 699.249C697.823 699.858 698.154 700.897 699.115 700.425C707.098 696.509 710.863 681.824 707.982 670.615C706.377 664.37 702.841 658.093 697.051 653.743C691.494 649.568 685.95 649.939 680.183 650.325C674.473 650.707 668.543 651.104 662.164 647.118C661.968 646.996 657.77 644.403 655.936 643.27L655.097 642.752L655.096 642.751V642.752V642.751L655.101 642.764L685.977 716.455C677.423 723.817 672.675 729.648 670.336 734.258C670.044 734.799 669.808 735.314 669.62 735.805C666.724 742.762 669.623 746.662 672.523 748.78C675.78 751.159 682.763 751.254 688.175 746.324C688.371 746.154 688.565 745.97 688.756 745.77C690.013 744.511 691.171 742.964 692.158 741.09C695.75 734.702 695.238 728.556 693.623 724.662C691.638 719.874 689.072 713.924 689.072 713.924V713.925Z" fill="url(#paint21_linear_236_7251)"/>
</g>
<g style="mix-blend-mode:multiply">
<path style="mix-blend-mode:multiply" fill-rule="evenodd" clip-rule="evenodd" d="M911.476 225.638L882.307 155.283C888.761 157.141 894.216 155.716 899.581 154.315C905.169 152.855 910.658 151.422 917.072 153.751C922.482 155.716 930.686 162.835 933.651 179.489C935.173 196.245 929.18 203.159 923.06 206.879C922.145 207.435 922.478 208.575 923.486 208.215C935.083 204.078 940.713 183.447 936.706 167.855C934.565 159.524 929.847 151.149 922.122 145.346C914.708 139.776 907.312 140.271 899.617 140.786C891.999 141.295 884.087 141.825 875.576 136.507C875.315 136.344 869.715 132.885 867.268 131.373L866.146 130.681L907.346 229.015C895.929 238.839 889.595 246.622 886.474 252.773C886.089 253.491 885.775 254.173 885.526 254.823C881.659 264.11 885.527 269.314 889.396 272.14C893.741 275.315 903.053 275.441 910.273 268.87C910.539 268.64 910.801 268.39 911.06 268.119C912.733 266.442 914.276 264.382 915.591 261.888C920.387 253.363 919.703 245.16 917.549 239.964C914.9 233.576 911.477 225.637 911.477 225.637L911.476 225.638Z" fill="url(#paint22_linear_236_7251)"/>
</g>
<g filter="url(#filter2_i_236_7251)">
<path d="M883.5 506H1037.72C1053.46 506 1066.22 518.76 1066.22 534.5V906.18C1066.22 921.92 1053.46 934.68 1037.72 934.68H883.5C867.76 934.68 855 921.92 855 906.18V534.5C855 518.76 867.76 506 883.5 506Z" fill="#E6D3D3"/>
<path d="M883.5 506H1037.72C1053.46 506 1066.22 518.76 1066.22 534.5V906.18C1066.22 921.92 1053.46 934.68 1037.72 934.68H883.5C867.76 934.68 855 921.92 855 906.18V534.5C855 518.76 867.76 506 883.5 506Z" fill="url(#paint23_linear_236_7251)" fill-opacity="0.2"/>
<path d="M883.5 506H1037.72C1053.46 506 1066.22 518.76 1066.22 534.5V906.18C1066.22 921.92 1053.46 934.68 1037.72 934.68H883.5C867.76 934.68 855 921.92 855 906.18V534.5C855 518.76 867.76 506 883.5 506Z" fill="url(#paint24_linear_236_7251)" fill-opacity="0.4"/>
<path d="M883.5 506H1037.72C1053.46 506 1066.22 518.76 1066.22 534.5V906.18C1066.22 921.92 1053.46 934.68 1037.72 934.68H883.5C867.76 934.68 855 921.92 855 906.18V534.5C855 518.76 867.76 506 883.5 506Z" stroke="url(#paint25_linear_236_7251)"/>
<path d="M1041.23 512.487H879.992C867.842 512.487 857.992 522.337 857.992 534.487V894.84C857.992 906.991 867.842 916.84 879.992 916.84H1041.23C1053.38 916.84 1063.23 906.991 1063.23 894.84V534.487C1063.23 522.337 1053.38 512.487 1041.23 512.487Z" fill="#070622"/>
<path d="M1041.23 512.487H879.992C867.842 512.487 857.992 522.337 857.992 534.487V894.84C857.992 906.991 867.842 916.84 879.992 916.84H1041.23C1053.38 916.84 1063.23 906.991 1063.23 894.84V534.487C1063.23 522.337 1053.38 512.487 1041.23 512.487Z" fill="url(#paint26_linear_236_7251)" fill-opacity="0.2"/>
<path d="M1034.73 523.84H887.359C873.552 523.84 862.359 535.033 862.359 548.84V883.98C862.359 897.787 873.552 908.98 887.359 908.98H1034.73C1048.54 908.98 1059.73 897.787 1059.73 883.98V548.84C1059.73 535.033 1048.54 523.84 1034.73 523.84Z" fill="#3D5BC4" fill-opacity="0.77"/>
<path d="M1034.73 523.84H887.359C873.552 523.84 862.359 535.033 862.359 548.84V883.98C862.359 897.787 873.552 908.98 887.359 908.98H1034.73C1048.54 908.98 1059.73 897.787 1059.73 883.98V548.84C1059.73 535.033 1048.54 523.84 1034.73 523.84Z" fill="url(#paint27_radial_236_7251)"/>
<path d="M1033.86 524.713H888.232C874.425 524.713 863.232 535.906 863.232 549.713V883.106C863.232 896.913 874.425 908.106 888.232 908.106H1033.86C1047.67 908.106 1058.86 896.913 1058.86 883.106V549.713C1058.86 535.906 1047.67 524.713 1033.86 524.713Z" fill="#3D5BC4" fill-opacity="0.77"/>
<path d="M1033.86 524.713H888.232C874.425 524.713 863.232 535.906 863.232 549.713V883.106C863.232 896.913 874.425 908.106 888.232 908.106H1033.86C1047.67 908.106 1058.86 896.913 1058.86 883.106V549.713C1058.86 535.906 1047.67 524.713 1033.86 524.713Z" fill="url(#paint28_linear_236_7251)"/>
<path d="M948.82 737.807V700.253L981.134 719.246L948.82 737.807Z" fill="#CED7DE"/>
<path d="M961.047 750.407C977.653 750.407 991.114 736.945 991.114 720.34C991.114 703.735 977.653 690.273 961.047 690.273C944.442 690.273 930.98 703.735 930.98 720.34C930.98 736.945 944.442 750.407 961.047 750.407Z" stroke="#CED7DE"/>
<path d="M877.205 532.574C881.064 532.574 884.192 529.446 884.192 525.587C884.192 521.729 881.064 518.601 877.205 518.601C873.347 518.601 870.219 521.729 870.219 525.587C870.219 529.446 873.347 532.574 877.205 532.574Z" fill="#112440"/>
<path d="M877.205 532.574C881.064 532.574 884.192 529.446 884.192 525.587C884.192 521.729 881.064 518.601 877.205 518.601C873.347 518.601 870.219 521.729 870.219 525.587C870.219 529.446 873.347 532.574 877.205 532.574Z" fill="url(#paint29_radial_236_7251)" fill-opacity="0.2"/>
<path d="M877.207 530.827C880.101 530.827 882.447 528.481 882.447 525.587C882.447 522.693 880.101 520.347 877.207 520.347C874.313 520.347 871.967 522.693 871.967 525.587C871.967 528.481 874.313 530.827 877.207 530.827Z" fill="#161B22" fill-opacity="0.8"/>
</g>
<path fill-rule="evenodd" clip-rule="evenodd" d="M983.001 1109.25V1067.76C985.861 1070.04 988.905 1070.46 991.898 1070.87C995.015 1071.3 998.077 1071.73 1000.82 1074.24C1003.13 1076.36 1005.78 1081.65 1003.79 1090.65C1001.52 1097.92 998.064 1100.69 994.746 1101.76C993.727 1102.09 993.678 1103.04 994.723 1102.81C1000.77 1101.47 1006.65 1093.24 1007.76 1085.44C1008.42 1080.8 1007.79 1075.6 1005.11 1071.06C1002.55 1066.71 998.719 1065.42 994.739 1064.07C990.798 1062.74 986.705 1061.35 983.531 1056.9C983.434 1056.76 981.337 1053.85 980.421 1052.58L980.001 1052L980.218 1110.09C972.427 1112.65 967.616 1115.25 964.761 1117.69C964.412 1117.97 964.109 1118.26 963.845 1118.53C959.966 1122.4 960.827 1125.82 962.184 1128.05C963.709 1130.56 968.373 1132.57 973.381 1130.76C973.559 1130.7 973.738 1130.63 973.92 1130.55C975.116 1130.06 976.326 1129.34 977.513 1128.35C981.702 1125.07 983.068 1120.8 983.068 1117.73C983.068 1113.96 983.002 1109.25 983.002 1109.25H983.001Z" fill="url(#paint30_linear_236_7251)"/>
</g>
<defs>
<filter id="filter0_i_236_7251" x="326.253" y="550.798" width="372.638" height="467.56" filterUnits="userSpaceOnUse" color-interpolation-filters="sRGB">
<feFlood flood-opacity="0" result="BackgroundImageFix"/>
<feBlend mode="normal" in="SourceGraphic" in2="BackgroundImageFix" result="shape"/>
<feColorMatrix in="SourceAlpha" type="matrix" values="0 0 0 0 0 0 0 0 0 0 0 0 0 0 0 0 0 0 127 0" result="hardAlpha"/>
<feOffset dx="-6" dy="31"/>
<feGaussianBlur stdDeviation="10"/>
<feComposite in2="hardAlpha" operator="arithmetic" k2="-1" k3="1"/>
<feColorMatrix type="matrix" values="0 0 0 0 0.0169226 0 0 0 0 0.00383681 0 0 0 0 0.0541667 0 0 0 0.25 0"/>
<feBlend mode="normal" in2="shape" result="effect1_innerShadow_236_7251"/>
</filter>
<filter id="filter1_i_236_7251" x="477.516" y="255.271" width="332.678" height="298.398" filterUnits="userSpaceOnUse" color-interpolation-filters="sRGB">
<feFlood flood-opacity="0" result="BackgroundImageFix"/>
<feBlend mode="normal" in="SourceGraphic" in2="BackgroundImageFix" result="shape"/>
<feColorMatrix in="SourceAlpha" type="matrix" values="0 0 0 0 0 0 0 0 0 0 0 0 0 0 0 0 0 0 127 0" result="hardAlpha"/>
<feOffset dx="-6" dy="31"/>
<feGaussianBlur stdDeviation="10"/>
<feComposite in2="hardAlpha" operator="arithmetic" k2="-1" k3="1"/>
<feColorMatrix type="matrix" values="0 0 0 0 0.0169226 0 0 0 0 0.00383681 0 0 0 0 0.0541667 0 0 0 0.25 0"/>
<feBlend mode="normal" in2="shape" result="effect1_innerShadow_236_7251"/>
</filter>
<filter id="filter2_i_236_7251" x="848.5" y="505.5" width="218.221" height="449.68" filterUnits="userSpaceOnUse" color-interpolation-filters="sRGB">
<feFlood flood-opacity="0" result="BackgroundImageFix"/>
<feBlend mode="normal" in="SourceGraphic" in2="BackgroundImageFix" result="shape"/>
<feColorMatrix in="SourceAlpha" type="matrix" values="0 0 0 0 0 0 0 0 0 0 0 0 0 0 0 0 0 0 127 0" result="hardAlpha"/>
<feOffset dx="-6" dy="31"/>
<feGaussianBlur stdDeviation="10"/>
<feComposite in2="hardAlpha" operator="arithmetic" k2="-1" k3="1"/>
<feColorMatrix type="matrix" values="0 0 0 0 0.0169226 0 0 0 0 0.00383681 0 0 0 0 0.0541667 0 0 0 0.25 0"/>
<feBlend mode="normal" in2="shape" result="effect1_innerShadow_236_7251"/>
</filter>
<linearGradient id="paint0_linear_236_7251" x1="795.5" y1="2.41602e-07" x2="795.5" y2="542.166" gradientUnits="userSpaceOnUse">
<stop stop-color="white"/>
<stop offset="1" stop-color="#3E2CA9" stop-opacity="0.24"/>
</linearGradient>
<linearGradient id="paint1_linear_236_7251" x1="889.5" y1="64.6093" x2="889.5" y2="606.775" gradientUnits="userSpaceOnUse">
<stop stop-color="white"/>
<stop offset="1" stop-color="#3E2CA9" stop-opacity="0.24"/>
</linearGradient>
<linearGradient id="paint2_linear_236_7251" x1="931.5" y1="123.219" x2="931.5" y2="665.385" gradientUnits="userSpaceOnUse">
<stop stop-color="white"/>
<stop offset="1" stop-color="#3E2CA9" stop-opacity="0.24"/>
</linearGradient>
<linearGradient id="paint3_linear_236_7251" x1="999.5" y1="184.829" x2="999.5" y2="726.995" gradientUnits="userSpaceOnUse">
<stop stop-color="white"/>
<stop offset="1" stop-color="#3E2CA9" stop-opacity="0.24"/>
</linearGradient>
<linearGradient id="paint4_linear_236_7251" x1="1072.5" y1="271.61" x2="1072.5" y2="813.775" gradientUnits="userSpaceOnUse">
<stop stop-color="white"/>
<stop offset="1" stop-color="#816CFF" stop-opacity="0"/>
</linearGradient>
<linearGradient id="paint5_linear_236_7251" x1="1141.5" y1="355.61" x2="1141.5" y2="897.775" gradientUnits="userSpaceOnUse">
<stop stop-color="white"/>
<stop offset="1" stop-color="#3E2CA9" stop-opacity="0.24"/>
</linearGradient>
<linearGradient id="paint6_linear_236_7251" x1="390.814" y1="564.847" x2="635.031" y2="984.441" gradientUnits="userSpaceOnUse">
<stop stop-color="#6CD897"/>
<stop offset="1" stop-color="#0A0937" stop-opacity="0.9"/>
</linearGradient>
<radialGradient id="paint7_radial_236_7251" cx="0" cy="0" r="1" gradientUnits="userSpaceOnUse" gradientTransform="translate(512.922 774.644) rotate(59.7992) scale(235.164 149.256)">
<stop stop-color="#3733B0"/>
<stop offset="1" stop-color="#6E6C8B" stop-opacity="0.64"/>
</radialGradient>
<linearGradient id="paint8_linear_236_7251" x1="643.166" y1="682.541" x2="922.535" y2="1071.25" gradientUnits="userSpaceOnUse">
<stop stop-color="white"/>
<stop offset="1" stop-color="#00113D"/>
</linearGradient>
<radialGradient id="paint9_radial_236_7251" cx="0" cy="0" r="1" gradientUnits="userSpaceOnUse" gradientTransform="translate(772.831 884.095) rotate(57.2457) scale(239.66 140.256)">
<stop offset="0.368402" stop-color="white"/>
<stop offset="1" stop-color="#6F08D7" stop-opacity="0"/>
</radialGradient>
<linearGradient id="paint10_linear_236_7251" x1="632.177" y1="690.124" x2="887.564" y2="1044.83" gradientUnits="userSpaceOnUse">
<stop stop-color="#B5C7F3"/>
<stop offset="1" stop-color="#00113D"/>
</linearGradient>
<radialGradient id="paint11_radial_236_7251" cx="0" cy="0" r="1" gradientUnits="userSpaceOnUse" gradientTransform="translate(750.432 874.27) rotate(57.2923) scale(218.847 128.065)">
<stop offset="0.368402" stop-color="#CA6D6D"/>
<stop offset="1" stop-color="#6F08D7" stop-opacity="0"/>
</radialGradient>
<linearGradient id="paint12_linear_236_7251" x1="618.486" y1="699.981" x2="842.722" y2="1011.42" gradientUnits="userSpaceOnUse">
<stop stop-color="#CCF9F6"/>
<stop offset="1" stop-color="#00113D"/>
</linearGradient>
<linearGradient id="paint13_linear_236_7251" x1="605.408" y1="709.398" x2="799.889" y2="979.507" gradientUnits="userSpaceOnUse">
<stop stop-color="white"/>
<stop offset="1" stop-color="#00113D"/>
</linearGradient>
<radialGradient id="paint14_radial_236_7251" cx="0" cy="0" r="1" gradientUnits="userSpaceOnUse" gradientTransform="translate(695.461 849.628) rotate(57.2923) scale(166.655 97.5228)">
<stop offset="0.368402" stop-color="#B36565"/>
<stop offset="1" stop-color="#6F08D7" stop-opacity="0"/>
</radialGradient>
<linearGradient id="paint15_linear_236_7251" x1="471.404" y1="796.809" x2="576.707" y2="980.811" gradientUnits="userSpaceOnUse">
<stop offset="0.389132" stop-color="#0E0066"/>
<stop offset="0.875071" stop-color="#3260A6" stop-opacity="0"/>
</linearGradient>
<linearGradient id="paint16_linear_236_7251" x1="639.974" y1="529.01" x2="310.893" y2="512.204" gradientUnits="userSpaceOnUse">
<stop stop-color="#413CDE"/>
<stop offset="0.491779" stop-color="white"/>
<stop offset="1" stop-color="#191837"/>
</linearGradient>
<linearGradient id="paint17_linear_236_7251" x1="751.511" y1="513.133" x2="503.325" y2="636.675" gradientUnits="userSpaceOnUse">
<stop stop-color="#F1F5FF"/>
<stop offset="0.491779" stop-color="white"/>
<stop offset="1" stop-color="#8347D0"/>
</linearGradient>
<radialGradient id="paint18_radial_236_7251" cx="0" cy="0" r="1" gradientUnits="userSpaceOnUse" gradientTransform="translate(658.698 430.596) rotate(148.381) scale(39.1381 49.2162)">
<stop stop-color="#C8DDF1"/>
<stop offset="1" stop-color="#B9B8FF"/>
</radialGradient>
<radialGradient id="paint19_radial_236_7251" cx="0" cy="0" r="1" gradientUnits="userSpaceOnUse" gradientTransform="translate(659.574 426.285) rotate(148.381) scale(37.1484 46.7141)">
<stop stop-color="#CAFCFF"/>
<stop offset="1" stop-color="#9497EE"/>
</radialGradient>
<radialGradient id="paint20_radial_236_7251" cx="0" cy="0" r="1" gradientUnits="userSpaceOnUse" gradientTransform="translate(658.216 398.185) rotate(148.381) scale(17.5533 22.0733)">
<stop offset="0.380208" stop-color="#272A8E"/>
<stop offset="1" stop-color="#7579DC"/>
</radialGradient>
<linearGradient id="paint21_linear_236_7251" x1="660.839" y1="640.371" x2="702.698" y2="741.335" gradientUnits="userSpaceOnUse">
<stop stop-color="#4C0DFF"/>
<stop offset="1" stop-color="#1F225C"/>
</linearGradient>
<linearGradient id="paint22_linear_236_7251" x1="873.807" y1="127.504" x2="929.655" y2="262.208" gradientUnits="userSpaceOnUse">
<stop stop-color="#4C0DFF"/>
<stop offset="1" stop-color="#1F225C"/>
</linearGradient>
<linearGradient id="paint23_linear_236_7251" x1="960.61" y1="505.5" x2="960.61" y2="935.18" gradientUnits="userSpaceOnUse">
<stop stop-color="#2E2CBF"/>
<stop offset="1" stop-color="#0400B7" stop-opacity="0"/>
</linearGradient>
<linearGradient id="paint24_linear_236_7251" x1="961.047" y1="653.093" x2="960.61" y2="935.18" gradientUnits="userSpaceOnUse">
<stop stop-color="#4353DD"/>
<stop offset="1" stop-color="#020D71"/>
</linearGradient>
<linearGradient id="paint25_linear_236_7251" x1="960.61" y1="505.5" x2="960.61" y2="935.18" gradientUnits="userSpaceOnUse">
<stop stop-color="#4538DB"/>
<stop offset="1" stop-color="white" stop-opacity="0"/>
</linearGradient>
<linearGradient id="paint26_linear_236_7251" x1="960.609" y1="512.487" x2="960.609" y2="916.84" gradientUnits="userSpaceOnUse">
<stop stop-color="#4745AD"/>
<stop offset="1" stop-color="#0400B7" stop-opacity="0"/>
</linearGradient>
<radialGradient id="paint27_radial_236_7251" cx="0" cy="0" r="1" gradientUnits="userSpaceOnUse" gradientTransform="translate(961.046 716.41) rotate(90) scale(192.57 98.6867)">
<stop stop-color="#5653FF" stop-opacity="0"/>
<stop offset="1" stop-color="#050514"/>
</radialGradient>
<linearGradient id="paint28_linear_236_7251" x1="961.046" y1="524.713" x2="961.046" y2="908.107" gradientUnits="userSpaceOnUse">
<stop stop-color="#5911B5"/>
<stop offset="1" stop-color="#0400B7" stop-opacity="0"/>
<stop offset="1" stop-color="#C559EB" stop-opacity="0"/>
</linearGradient>
<radialGradient id="paint29_radial_236_7251" cx="0" cy="0" r="1" gradientUnits="userSpaceOnUse" gradientTransform="translate(877.205 525.587) rotate(90) scale(6.98666)">
<stop stop-color="white"/>
<stop offset="0.0001" stop-color="#292929"/>
<stop offset="0.65625" stop-opacity="0"/>
<stop offset="1" stop-color="white" stop-opacity="0.87"/>
</radialGradient>
<linearGradient id="paint30_linear_236_7251" x1="984.52" y1="1052" x2="984.52" y2="1131.46" gradientUnits="userSpaceOnUse">
<stop stop-color="#380ABA"/>
<stop offset="1" stop-opacity="0"/>
</linearGradient>
<clipPath id="clip0_236_7251">
<rect width="1191" height="1131" fill="white"/>
</clipPath>
</defs>
</svg>
