<svg width="550" height="647" viewBox="0 0 550 647" fill="none" xmlns="http://www.w3.org/2000/svg">
<rect width="549.999" height="646.104" rx="5" fill="#1A283D"/>
<rect width="549.999" height="646.104" rx="5" fill="url(#paint0_linear_216_8632)" fill-opacity="0.2"/>
<path d="M61.12 80.288C58.7307 80.288 56.6613 79.808 54.912 78.848C53.1627 77.8667 51.808 76.5013 50.848 74.752C49.9093 72.9813 49.44 70.9227 49.44 68.576C49.44 66.2507 49.9093 64.2133 50.848 62.464C51.808 60.7147 53.1627 59.36 54.912 58.4C56.6613 57.4187 58.7307 56.928 61.12 56.928C62.6133 56.928 64.0533 57.152 65.44 57.6C66.848 58.048 67.9787 58.656 68.832 59.424L67.008 63.68C66.0267 62.976 65.0667 62.464 64.128 62.144C63.1893 61.824 62.2293 61.664 61.248 61.664C59.4347 61.664 58.0267 62.24 57.024 63.392C56.0427 64.544 55.552 66.272 55.552 68.576C55.552 70.88 56.0427 72.6187 57.024 73.792C58.0267 74.9653 59.4347 75.552 61.248 75.552C62.2293 75.552 63.1893 75.392 64.128 75.072C65.0667 74.752 66.0267 74.24 67.008 73.536L68.832 77.792C67.9787 78.56 66.848 79.168 65.44 79.616C64.0533 80.064 62.6133 80.288 61.12 80.288ZM77.7538 80.256C76.3671 80.256 75.1298 79.9147 74.0418 79.232C72.9538 78.5493 72.1004 77.5787 71.4818 76.32C70.8844 75.0613 70.5858 73.5893 70.5858 71.904C70.5858 70.1973 70.8951 68.704 71.5138 67.424C72.1324 66.1227 72.9751 65.1093 74.0418 64.384C75.1298 63.6587 76.3671 63.296 77.7538 63.296C78.9911 63.296 80.1004 63.6053 81.0818 64.224C82.0844 64.8213 82.7671 65.6107 83.1298 66.592L82.7458 66.816V63.744H88.4418V80H82.7458V77.024H83.1298C82.7671 78.0267 82.0844 78.816 81.0818 79.392C80.1004 79.968 78.9911 80.256 77.7538 80.256ZM79.5458 75.936C80.5484 75.936 81.3271 75.584 81.8818 74.88C82.4578 74.176 82.7458 73.1627 82.7458 71.84C82.7458 70.4747 82.4684 69.44 81.9138 68.736C81.3591 68.032 80.5698 67.68 79.5458 67.68C78.5431 67.68 77.7538 68.0533 77.1778 68.8C76.6018 69.5253 76.3138 70.56 76.3138 71.904C76.3138 73.2053 76.5911 74.208 77.1458 74.912C77.7004 75.5947 78.5004 75.936 79.5458 75.936ZM91.8843 80V68.416C91.8843 67.648 91.8629 66.8693 91.8203 66.08C91.7989 65.2907 91.7349 64.512 91.6283 63.744H97.0683L97.4523 66.816L97.0683 66.656C97.6656 65.5893 98.4443 64.768 99.4043 64.192C100.386 63.5947 101.506 63.296 102.764 63.296C106.583 63.296 108.492 65.632 108.492 70.304V80H102.7V70.56C102.7 69.5573 102.53 68.8427 102.188 68.416C101.847 67.968 101.314 67.744 100.588 67.744C99.7136 67.744 99.0096 68.0427 98.4763 68.64C97.9429 69.216 97.6763 69.984 97.6763 70.944V80H91.8843ZM110.221 68V63.744H122.957V68H110.221ZM122.989 75.392V79.776C122.498 79.968 122.008 80.096 121.517 80.16C121.026 80.224 120.514 80.256 119.981 80.256C117.741 80.256 116.056 79.6267 114.925 78.368C113.816 77.1093 113.261 75.4027 113.261 73.248V60.064L119.053 58.208V73.248C119.053 73.7813 119.16 74.2293 119.373 74.592C119.608 74.9333 119.906 75.1893 120.269 75.36C120.632 75.5093 121.026 75.584 121.453 75.584C121.666 75.584 121.89 75.5733 122.125 75.552C122.381 75.5093 122.669 75.456 122.989 75.392ZM125.166 80V63.744H130.958V80H125.166ZM125.006 55.776H131.054V60.992H125.006V55.776ZM151.536 80H145.84V76.192L146.224 77.024C145.861 78.0267 145.178 78.816 144.176 79.392C143.194 79.968 142.085 80.256 140.848 80.256C139.461 80.256 138.224 79.904 137.136 79.2C136.069 78.4747 135.226 77.472 134.608 76.192C133.989 74.912 133.68 73.4187 133.68 71.712C133.68 70.0267 133.978 68.5547 134.576 67.296C135.194 66.016 136.048 65.0347 137.136 64.352C138.224 63.648 139.461 63.296 140.848 63.296C142.085 63.296 143.194 63.6053 144.176 64.224C145.178 64.8213 145.861 65.6 146.224 66.56L145.744 67.264V56.448H151.536V80ZM142.64 75.936C143.664 75.936 144.453 75.584 145.008 74.88C145.562 74.176 145.84 73.1413 145.84 71.776C145.84 70.4747 145.552 69.472 144.976 68.768C144.421 68.0427 143.642 67.68 142.64 67.68C141.594 67.68 140.794 68.032 140.24 68.736C139.685 69.4187 139.408 70.4107 139.408 71.712C139.408 73.0773 139.696 74.1227 140.272 74.848C140.848 75.5733 141.637 75.936 142.64 75.936ZM161.41 80.256C160.023 80.256 158.786 79.9147 157.698 79.232C156.61 78.5493 155.757 77.5787 155.138 76.32C154.541 75.0613 154.242 73.5893 154.242 71.904C154.242 70.1973 154.551 68.704 155.17 67.424C155.789 66.1227 156.631 65.1093 157.698 64.384C158.786 63.6587 160.023 63.296 161.41 63.296C162.647 63.296 163.757 63.6053 164.738 64.224C165.741 64.8213 166.423 65.6107 166.786 66.592L166.402 66.816V63.744H172.098V80H166.402V77.024H166.786C166.423 78.0267 165.741 78.816 164.738 79.392C163.757 79.968 162.647 80.256 161.41 80.256ZM163.202 75.936C164.205 75.936 164.983 75.584 165.538 74.88C166.114 74.176 166.402 73.1627 166.402 71.84C166.402 70.4747 166.125 69.44 165.57 68.736C165.015 68.032 164.226 67.68 163.202 67.68C162.199 67.68 161.41 68.0533 160.834 68.8C160.258 69.5253 159.97 70.56 159.97 71.904C159.97 73.2053 160.247 74.208 160.802 74.912C161.357 75.5947 162.157 75.936 163.202 75.936ZM192.661 80H186.965V76.192L187.349 77.024C186.986 78.0267 186.303 78.816 185.301 79.392C184.319 79.968 183.21 80.256 181.973 80.256C180.586 80.256 179.349 79.904 178.261 79.2C177.194 78.4747 176.351 77.472 175.733 76.192C175.114 74.912 174.805 73.4187 174.805 71.712C174.805 70.0267 175.103 68.5547 175.701 67.296C176.319 66.016 177.173 65.0347 178.261 64.352C179.349 63.648 180.586 63.296 181.973 63.296C183.21 63.296 184.319 63.6053 185.301 64.224C186.303 64.8213 186.986 65.6 187.349 66.56L186.869 67.264V56.448H192.661V80ZM183.765 75.936C184.789 75.936 185.578 75.584 186.133 74.88C186.687 74.176 186.965 73.1413 186.965 71.776C186.965 70.4747 186.677 69.472 186.101 68.768C185.546 68.0427 184.767 67.68 183.765 67.68C182.719 67.68 181.919 68.032 181.365 68.736C180.81 69.4187 180.533 70.4107 180.533 71.712C180.533 73.0773 180.821 74.1227 181.397 74.848C181.973 75.5733 182.762 75.936 183.765 75.936ZM222.504 80H216.808V76.192L217.192 77.024C216.83 78.0267 216.147 78.816 215.144 79.392C214.163 79.968 213.054 80.256 211.816 80.256C210.43 80.256 209.192 79.904 208.104 79.2C207.038 78.4747 206.195 77.472 205.576 76.192C204.958 74.912 204.648 73.4187 204.648 71.712C204.648 70.0267 204.947 68.5547 205.544 67.296C206.163 66.016 207.016 65.0347 208.104 64.352C209.192 63.648 210.43 63.296 211.816 63.296C213.054 63.296 214.163 63.6053 215.144 64.224C216.147 64.8213 216.83 65.6 217.192 66.56L216.712 67.264V56.448H222.504V80ZM213.608 75.936C214.632 75.936 215.422 75.584 215.976 74.88C216.531 74.176 216.808 73.1413 216.808 71.776C216.808 70.4747 216.52 69.472 215.944 68.768C215.39 68.0427 214.611 67.68 213.608 67.68C212.563 67.68 211.763 68.032 211.208 68.736C210.654 69.4187 210.376 70.4107 210.376 71.712C210.376 73.0773 210.664 74.1227 211.24 74.848C211.816 75.5733 212.606 75.936 213.608 75.936ZM240.667 78.336C239.856 78.9547 238.875 79.4347 237.723 79.776C236.571 80.096 235.419 80.256 234.267 80.256C232.389 80.256 230.768 79.9147 229.403 79.232C228.059 78.5493 227.024 77.5787 226.299 76.32C225.573 75.04 225.211 73.536 225.211 71.808C225.211 70.144 225.552 68.672 226.235 67.392C226.939 66.112 227.899 65.1093 229.115 64.384C230.331 63.6587 231.739 63.296 233.339 63.296C234.896 63.296 236.24 63.6373 237.371 64.32C238.523 65.0027 239.408 65.9733 240.027 67.232C240.645 68.4907 240.955 69.9733 240.955 71.68V72.448H230.331L230.395 69.76H237.467L236.059 70.688C236.059 69.536 235.835 68.6827 235.387 68.128C234.96 67.552 234.331 67.264 233.499 67.264C232.581 67.264 231.877 67.6053 231.387 68.288C230.917 68.9493 230.683 69.9627 230.683 71.328C230.683 73.0133 230.992 74.2187 231.611 74.944C232.229 75.648 233.211 76 234.555 76C235.365 76 236.176 75.872 236.987 75.616C237.819 75.3387 238.555 74.9653 239.195 74.496L240.667 78.336ZM260.98 80.256C259.145 80.256 257.566 79.9253 256.244 79.264C254.921 78.5813 253.908 77.6107 253.204 76.352C252.521 75.0933 252.18 73.6107 252.18 71.904C252.18 70.176 252.553 68.672 253.299 67.392C254.068 66.0907 255.124 65.088 256.468 64.384C257.833 63.6587 259.422 63.296 261.236 63.296C262.43 63.296 263.604 63.4773 264.756 63.84C265.908 64.1813 266.825 64.6507 267.508 65.248L266.036 69.248C265.46 68.7787 264.788 68.4053 264.02 68.128C263.252 67.8507 262.516 67.712 261.812 67.712C260.66 67.712 259.753 68.0427 259.092 68.704C258.43 69.3653 258.1 70.3893 258.1 71.776C258.1 73.184 258.42 74.2293 259.06 74.912C259.721 75.5733 260.649 75.904 261.844 75.904C262.526 75.904 263.252 75.776 264.02 75.52C264.788 75.2427 265.46 74.8587 266.036 74.368L267.508 78.304C266.782 78.9227 265.833 79.4027 264.66 79.744C263.508 80.0853 262.281 80.256 260.98 80.256ZM275.816 80.256C274.43 80.256 273.192 79.9147 272.104 79.232C271.016 78.5493 270.163 77.5787 269.544 76.32C268.947 75.0613 268.648 73.5893 268.648 71.904C268.648 70.1973 268.958 68.704 269.576 67.424C270.195 66.1227 271.038 65.1093 272.104 64.384C273.192 63.6587 274.43 63.296 275.816 63.296C277.054 63.296 278.163 63.6053 279.144 64.224C280.147 64.8213 280.83 65.6107 281.192 66.592L280.808 66.816V63.744H286.504V80H280.808V77.024H281.192C280.83 78.0267 280.147 78.816 279.144 79.392C278.163 79.968 277.054 80.256 275.816 80.256ZM277.608 75.936C278.611 75.936 279.39 75.584 279.944 74.88C280.52 74.176 280.808 73.1627 280.808 71.84C280.808 70.4747 280.531 69.44 279.976 68.736C279.422 68.032 278.632 67.68 277.608 67.68C276.606 67.68 275.816 68.0533 275.24 68.8C274.664 69.5253 274.376 70.56 274.376 71.904C274.376 73.2053 274.654 74.208 275.208 74.912C275.763 75.5947 276.563 75.936 277.608 75.936ZM289.947 80V68.416C289.947 67.648 289.925 66.8693 289.883 66.08C289.861 65.2907 289.797 64.512 289.691 63.744H295.131L295.515 66.816L295.131 66.656C295.728 65.5893 296.507 64.768 297.467 64.192C298.448 63.5947 299.568 63.296 300.827 63.296C304.645 63.296 306.555 65.632 306.555 70.304V80H300.763V70.56C300.763 69.5573 300.592 68.8427 300.251 68.416C299.909 67.968 299.376 67.744 298.651 67.744C297.776 67.744 297.072 68.0427 296.539 68.64C296.005 69.216 295.739 69.984 295.739 70.944V80H289.947ZM317.98 80.256C316.145 80.256 314.566 79.9253 313.244 79.264C311.921 78.5813 310.908 77.6107 310.204 76.352C309.521 75.0933 309.18 73.6107 309.18 71.904C309.18 70.176 309.553 68.672 310.299 67.392C311.068 66.0907 312.124 65.088 313.468 64.384C314.833 63.6587 316.422 63.296 318.236 63.296C319.43 63.296 320.604 63.4773 321.756 63.84C322.908 64.1813 323.825 64.6507 324.508 65.248L323.036 69.248C322.46 68.7787 321.788 68.4053 321.02 68.128C320.252 67.8507 319.516 67.712 318.812 67.712C317.66 67.712 316.753 68.0427 316.092 68.704C315.43 69.3653 315.1 70.3893 315.1 71.776C315.1 73.184 315.42 74.2293 316.06 74.912C316.721 75.5733 317.649 75.904 318.844 75.904C319.526 75.904 320.252 75.776 321.02 75.52C321.788 75.2427 322.46 74.8587 323.036 74.368L324.508 78.304C323.782 78.9227 322.833 79.4027 321.66 79.744C320.508 80.0853 319.281 80.256 317.98 80.256ZM326.384 80V63.744H332.176V80H326.384ZM326.224 55.776H332.272V60.992H326.224V55.776ZM343.826 80.256C341.992 80.256 340.402 79.9147 339.058 79.232C337.736 78.5493 336.712 77.5787 335.986 76.32C335.261 75.04 334.898 73.5253 334.898 71.776C334.898 70.048 335.261 68.5547 335.986 67.296C336.712 66.016 337.736 65.0347 339.058 64.352C340.402 63.648 341.992 63.296 343.826 63.296C345.618 63.296 347.176 63.648 348.498 64.352C349.842 65.0347 350.877 66.016 351.602 67.296C352.328 68.5547 352.69 70.048 352.69 71.776C352.69 73.5253 352.328 75.04 351.602 76.32C350.877 77.5787 349.842 78.5493 348.498 79.232C347.176 79.9147 345.618 80.256 343.826 80.256ZM343.826 75.936C344.829 75.936 345.597 75.6053 346.13 74.944C346.685 74.2827 346.962 73.2267 346.962 71.776C346.962 70.3467 346.696 69.3013 346.162 68.64C345.629 67.9787 344.85 67.648 343.826 67.648C342.781 67.648 341.981 67.9787 341.426 68.64C340.893 69.3013 340.626 70.3467 340.626 71.776C340.626 73.2267 340.893 74.2827 341.426 74.944C341.981 75.6053 342.781 75.936 343.826 75.936ZM355.416 80V68.416C355.416 67.648 355.394 66.8693 355.352 66.08C355.33 65.2907 355.266 64.512 355.16 63.744H360.6L360.984 66.816L360.6 66.656C361.197 65.5893 361.976 64.768 362.936 64.192C363.917 63.5947 365.037 63.296 366.296 63.296C370.114 63.296 372.024 65.632 372.024 70.304V80H366.232V70.56C366.232 69.5573 366.061 68.8427 365.72 68.416C365.378 67.968 364.845 67.744 364.12 67.744C363.245 67.744 362.541 68.0427 362.008 68.64C361.474 69.216 361.208 69.984 361.208 70.944V80H355.416ZM390.104 78.336C389.294 78.9547 388.312 79.4347 387.16 79.776C386.008 80.096 384.856 80.256 383.704 80.256C381.827 80.256 380.206 79.9147 378.84 79.232C377.496 78.5493 376.462 77.5787 375.736 76.32C375.011 75.04 374.648 73.536 374.648 71.808C374.648 70.144 374.99 68.672 375.672 67.392C376.376 66.112 377.336 65.1093 378.552 64.384C379.768 63.6587 381.176 63.296 382.776 63.296C384.334 63.296 385.678 63.6373 386.808 64.32C387.96 65.0027 388.846 65.9733 389.464 67.232C390.083 68.4907 390.392 69.9733 390.392 71.68V72.448H379.768L379.832 69.76H386.904L385.496 70.688C385.496 69.536 385.272 68.6827 384.824 68.128C384.398 67.552 383.768 67.264 382.936 67.264C382.019 67.264 381.315 67.6053 380.824 68.288C380.355 68.9493 380.12 69.9627 380.12 71.328C380.12 73.0133 380.43 74.2187 381.048 74.944C381.667 75.648 382.648 76 383.992 76C384.803 76 385.614 75.872 386.424 75.616C387.256 75.3387 387.992 74.9653 388.632 74.496L390.104 78.336ZM399.632 80.256C396.389 80.256 393.829 79.6053 391.952 78.304L393.424 74.368C394.298 74.9653 395.29 75.4347 396.4 75.776C397.53 76.096 398.618 76.256 399.664 76.256C400.325 76.256 400.837 76.16 401.2 75.968C401.562 75.776 401.744 75.5093 401.744 75.168C401.744 74.8693 401.605 74.6347 401.328 74.464C401.072 74.2933 400.57 74.1227 399.824 73.952L397.2 73.344C395.536 73.0027 394.33 72.4693 393.584 71.744C392.858 70.9973 392.496 69.9733 392.496 68.672C392.496 67.6267 392.805 66.6987 393.424 65.888C394.042 65.0773 394.896 64.448 395.984 64C397.093 63.5307 398.362 63.296 399.792 63.296C400.986 63.296 402.149 63.4773 403.28 63.84C404.41 64.1813 405.456 64.6507 406.416 65.248L404.88 69.088C404.026 68.5333 403.152 68.1067 402.256 67.808C401.36 67.5093 400.517 67.36 399.728 67.36C399.109 67.36 398.608 67.4667 398.224 67.68C397.861 67.872 397.68 68.16 397.68 68.544C397.68 68.7787 397.786 68.9707 398 69.12C398.213 69.248 398.618 69.3867 399.216 69.536L401.936 70.144C403.664 70.528 404.901 71.1147 405.648 71.904C406.416 72.6933 406.8 73.76 406.8 75.104C406.8 76.704 406.16 77.9627 404.88 78.88C403.621 79.7973 401.872 80.256 399.632 80.256ZM64.448 118.336C63.6373 118.955 62.656 119.435 61.504 119.776C60.352 120.096 59.2 120.256 58.048 120.256C56.1707 120.256 54.5493 119.915 53.184 119.232C51.84 118.549 50.8053 117.579 50.08 116.32C49.3547 115.04 48.992 113.536 48.992 111.808C48.992 110.144 49.3333 108.672 50.016 107.392C50.72 106.112 51.68 105.109 52.896 104.384C54.112 103.659 55.52 103.296 57.12 103.296C58.6773 103.296 60.0213 103.637 61.152 104.32C62.304 105.003 63.1893 105.973 63.808 107.232C64.4267 108.491 64.736 109.973 64.736 111.68V112.448H54.112L54.176 109.76H61.248L59.84 110.688C59.84 109.536 59.616 108.683 59.168 108.128C58.7413 107.552 58.112 107.264 57.28 107.264C56.3627 107.264 55.6587 107.605 55.168 108.288C54.6987 108.949 54.464 109.963 54.464 111.328C54.464 113.013 54.7733 114.219 55.392 114.944C56.0107 115.648 56.992 116 58.336 116C59.1467 116 59.9573 115.872 60.768 115.616C61.6 115.339 62.336 114.965 62.976 114.496L64.448 118.336ZM67.4155 120V108.416C67.4155 107.648 67.3942 106.869 67.3515 106.08C67.3302 105.291 67.2662 104.512 67.1595 103.744H72.5995L72.9835 106.816L72.5995 106.656C73.1968 105.589 73.9755 104.768 74.9355 104.192C75.9168 103.595 77.0368 103.296 78.2955 103.296C82.1142 103.296 84.0235 105.632 84.0235 110.304V120H78.2315V110.56C78.2315 109.557 78.0608 108.843 77.7195 108.416C77.3782 107.968 76.8448 107.744 76.1195 107.744C75.2448 107.744 74.5408 108.043 74.0075 108.64C73.4742 109.216 73.2075 109.984 73.2075 110.944V120H67.4155ZM111.385 118.336C110.575 118.955 109.594 119.435 108.442 119.776C107.29 120.096 106.138 120.256 104.986 120.256C103.108 120.256 101.487 119.915 100.122 119.232C98.7775 118.549 97.7428 117.579 97.0175 116.32C96.2922 115.04 95.9295 113.536 95.9295 111.808C95.9295 110.144 96.2708 108.672 96.9535 107.392C97.6575 106.112 98.6175 105.109 99.8335 104.384C101.05 103.659 102.458 103.296 104.058 103.296C105.615 103.296 106.959 103.637 108.09 104.32C109.242 105.003 110.127 105.973 110.746 107.232C111.364 108.491 111.674 109.973 111.674 111.68V112.448H101.05L101.114 109.76H108.186L106.778 110.688C106.778 109.536 106.554 108.683 106.106 108.128C105.679 107.552 105.05 107.264 104.218 107.264C103.3 107.264 102.596 107.605 102.106 108.288C101.636 108.949 101.402 109.963 101.402 111.328C101.402 113.013 101.711 114.219 102.33 114.944C102.948 115.648 103.93 116 105.274 116C106.084 116 106.895 115.872 107.706 115.616C108.538 115.339 109.274 114.965 109.914 114.496L111.385 118.336ZM114.353 120V96.448H120.145V120H114.353ZM140.948 120.256C139.114 120.256 137.535 119.925 136.212 119.264C134.89 118.581 133.876 117.611 133.172 116.352C132.49 115.093 132.148 113.611 132.148 111.904C132.148 110.176 132.522 108.672 133.268 107.392C134.036 106.091 135.092 105.088 136.436 104.384C137.802 103.659 139.391 103.296 141.204 103.296C142.399 103.296 143.572 103.477 144.724 103.84C145.876 104.181 146.794 104.651 147.476 105.248L146.004 109.248C145.428 108.779 144.756 108.405 143.988 108.128C143.22 107.851 142.484 107.712 141.78 107.712C140.628 107.712 139.722 108.043 139.06 108.704C138.399 109.365 138.068 110.389 138.068 111.776C138.068 113.184 138.388 114.229 139.028 114.912C139.69 115.573 140.618 115.904 141.812 115.904C142.495 115.904 143.22 115.776 143.988 115.52C144.756 115.243 145.428 114.859 146.004 114.368L147.476 118.304C146.751 118.923 145.802 119.403 144.628 119.744C143.476 120.085 142.25 120.256 140.948 120.256ZM149.353 120V96.448H155.145V107.04L154.537 106.656C155.134 105.589 155.913 104.768 156.873 104.192C157.854 103.595 158.974 103.296 160.233 103.296C164.052 103.296 165.961 105.632 165.961 110.304V120H160.169V110.56C160.169 109.557 159.998 108.843 159.657 108.416C159.316 107.968 158.782 107.744 158.057 107.744C157.182 107.744 156.478 108.043 155.945 108.64C155.412 109.216 155.145 109.984 155.145 110.944V120H149.353ZM175.754 120.256C174.367 120.256 173.13 119.915 172.042 119.232C170.954 118.549 170.1 117.579 169.482 116.32C168.884 115.061 168.586 113.589 168.586 111.904C168.586 110.197 168.895 108.704 169.514 107.424C170.132 106.123 170.975 105.109 172.042 104.384C173.13 103.659 174.367 103.296 175.754 103.296C176.991 103.296 178.1 103.605 179.082 104.224C180.084 104.821 180.767 105.611 181.13 106.592L180.746 106.816V103.744H186.442V120H180.746V117.024H181.13C180.767 118.027 180.084 118.816 179.082 119.392C178.1 119.968 176.991 120.256 175.754 120.256ZM177.546 115.936C178.548 115.936 179.327 115.584 179.882 114.88C180.458 114.176 180.746 113.163 180.746 111.84C180.746 110.475 180.468 109.44 179.914 108.736C179.359 108.032 178.57 107.68 177.546 107.68C176.543 107.68 175.754 108.053 175.178 108.8C174.602 109.525 174.314 110.56 174.314 111.904C174.314 113.205 174.591 114.208 175.146 114.912C175.7 115.595 176.5 115.936 177.546 115.936ZM189.884 120V108.416C189.884 107.648 189.863 106.869 189.82 106.08C189.799 105.291 189.735 104.512 189.628 103.744H195.068L195.612 108.128L195.068 107.808C195.282 106.336 195.868 105.227 196.828 104.48C197.81 103.733 198.919 103.36 200.156 103.36C200.562 103.36 200.914 103.392 201.212 103.456C201.511 103.52 201.767 103.605 201.98 103.712V108.992C201.063 108.565 200.178 108.352 199.324 108.352C198.556 108.352 197.906 108.48 197.372 108.736C196.839 108.971 196.423 109.344 196.124 109.856C195.826 110.368 195.676 111.029 195.676 111.84V120H189.884ZM203.721 108V103.744H216.457V108H203.721ZM216.489 115.392V119.776C215.998 119.968 215.508 120.096 215.017 120.16C214.526 120.224 214.014 120.256 213.481 120.256C211.241 120.256 209.556 119.627 208.425 118.368C207.316 117.109 206.761 115.403 206.761 113.248V100.064L212.553 98.208V113.248C212.553 113.781 212.66 114.229 212.873 114.592C213.108 114.933 213.406 115.189 213.769 115.36C214.132 115.509 214.526 115.584 214.953 115.584C215.166 115.584 215.39 115.573 215.625 115.552C215.881 115.509 216.169 115.456 216.489 115.392ZM221.971 125.024L219.827 123.296C220.638 122.485 221.224 121.707 221.587 120.96C221.971 120.235 222.163 119.445 222.163 118.592L223.475 120H219.251V114.048H225.299V117.792C225.299 119.157 225.054 120.405 224.563 121.536C224.072 122.667 223.208 123.829 221.971 125.024ZM237.824 120V115.584L245.248 107.84C245.931 107.115 246.443 106.421 246.784 105.76C247.147 105.077 247.328 104.416 247.328 103.776C247.328 103.029 247.104 102.475 246.656 102.112C246.208 101.749 245.557 101.568 244.704 101.568C243.808 101.568 242.859 101.749 241.856 102.112C240.853 102.453 239.861 102.955 238.88 103.616L236.992 99.36C237.909 98.6133 239.093 98.0267 240.544 97.6C242.016 97.152 243.509 96.928 245.024 96.928C246.667 96.928 248.096 97.1947 249.312 97.728C250.549 98.24 251.499 98.9867 252.16 99.968C252.843 100.928 253.184 102.059 253.184 103.36C253.184 104.704 252.917 105.92 252.384 107.008C251.872 108.075 250.987 109.269 249.728 110.592L243.68 116.768L242.848 115.232H253.888V120H237.824ZM264.819 120.288C262.003 120.288 259.837 119.285 258.323 117.28C256.829 115.275 256.083 112.373 256.083 108.576C256.083 104.843 256.829 101.984 258.323 100C259.837 97.9947 262.003 96.992 264.819 96.992C267.635 96.992 269.789 97.9947 271.283 100C272.797 101.984 273.555 104.843 273.555 108.576C273.555 112.373 272.797 115.275 271.283 117.28C269.789 119.285 267.635 120.288 264.819 120.288ZM264.819 115.776C265.843 115.776 266.579 115.221 267.027 114.112C267.475 112.981 267.699 111.136 267.699 108.576C267.699 106.08 267.475 104.277 267.027 103.168C266.579 102.059 265.843 101.504 264.819 101.504C263.795 101.504 263.059 102.059 262.611 103.168C262.163 104.277 261.939 106.08 261.939 108.576C261.939 111.136 262.163 112.981 262.611 114.112C263.059 115.221 263.795 115.776 264.819 115.776ZM282.246 117.216V102.176H284.998L277.67 106.368V101.216L284.71 97.216H288.23V117.216H282.246ZM277.35 120V115.232H293.158V120H277.35ZM303.194 120.288C300.378 120.288 298.212 119.285 296.698 117.28C295.204 115.275 294.458 112.373 294.458 108.576C294.458 104.843 295.204 101.984 296.698 100C298.212 97.9947 300.378 96.992 303.194 96.992C306.01 96.992 308.164 97.9947 309.658 100C311.172 101.984 311.93 104.843 311.93 108.576C311.93 112.373 311.172 115.275 309.658 117.28C308.164 119.285 306.01 120.288 303.194 120.288ZM303.194 115.776C304.218 115.776 304.954 115.221 305.402 114.112C305.85 112.981 306.074 111.136 306.074 108.576C306.074 106.08 305.85 104.277 305.402 103.168C304.954 102.059 304.218 101.504 303.194 101.504C302.17 101.504 301.434 102.059 300.986 103.168C300.538 104.277 300.314 106.08 300.314 108.576C300.314 111.136 300.538 112.981 300.986 114.112C301.434 115.221 302.17 115.776 303.194 115.776ZM328.591 120L321.454 103.776H327.471L331.631 114.464H330.575L334.895 103.776H340.591L333.359 120H328.591ZM348.101 120.256C344.858 120.256 342.298 119.605 340.421 118.304L341.893 114.368C342.767 114.965 343.759 115.435 344.869 115.776C345.999 116.096 347.087 116.256 348.133 116.256C348.794 116.256 349.306 116.16 349.669 115.968C350.031 115.776 350.213 115.509 350.213 115.168C350.213 114.869 350.074 114.635 349.797 114.464C349.541 114.293 349.039 114.123 348.293 113.952L345.669 113.344C344.005 113.003 342.799 112.469 342.053 111.744C341.327 110.997 340.965 109.973 340.965 108.672C340.965 107.627 341.274 106.699 341.893 105.888C342.511 105.077 343.365 104.448 344.453 104C345.562 103.531 346.831 103.296 348.26 103.296C349.455 103.296 350.618 103.477 351.749 103.84C352.879 104.181 353.925 104.651 354.885 105.248L353.349 109.088C352.495 108.533 351.621 108.107 350.725 107.808C349.829 107.509 348.986 107.36 348.197 107.36C347.578 107.36 347.077 107.467 346.693 107.68C346.33 107.872 346.149 108.16 346.149 108.544C346.149 108.779 346.255 108.971 346.469 109.12C346.682 109.248 347.087 109.387 347.685 109.536L350.405 110.144C352.133 110.528 353.37 111.115 354.117 111.904C354.885 112.693 355.269 113.76 355.269 115.104C355.269 116.704 354.629 117.963 353.349 118.88C352.09 119.797 350.341 120.256 348.101 120.256ZM367.137 120V115.584L374.561 107.84C375.243 107.115 375.755 106.421 376.097 105.76C376.459 105.077 376.641 104.416 376.641 103.776C376.641 103.029 376.417 102.475 375.969 102.112C375.521 101.749 374.87 101.568 374.017 101.568C373.121 101.568 372.171 101.749 371.169 102.112C370.166 102.453 369.174 102.955 368.193 103.616L366.305 99.36C367.222 98.6133 368.406 98.0267 369.857 97.6C371.329 97.152 372.822 96.928 374.337 96.928C375.979 96.928 377.409 97.1947 378.625 97.728C379.862 98.24 380.811 98.9867 381.472 99.968C382.155 100.928 382.497 102.059 382.497 103.36C382.497 104.704 382.23 105.92 381.697 107.008C381.185 108.075 380.299 109.269 379.041 110.592L372.993 116.768L372.161 115.232H383.201V120H367.137ZM394.131 120.288C391.315 120.288 389.15 119.285 387.635 117.28C386.142 115.275 385.395 112.373 385.395 108.576C385.395 104.843 386.142 101.984 387.635 100C389.15 97.9947 391.315 96.992 394.131 96.992C396.947 96.992 399.102 97.9947 400.595 100C402.11 101.984 402.867 104.843 402.867 108.576C402.867 112.373 402.11 115.275 400.595 117.28C399.102 119.285 396.947 120.288 394.131 120.288ZM394.131 115.776C395.155 115.776 395.891 115.221 396.339 114.112C396.787 112.981 397.011 111.136 397.011 108.576C397.011 106.08 396.787 104.277 396.339 103.168C395.891 102.059 395.155 101.504 394.131 101.504C393.107 101.504 392.371 102.059 391.923 103.168C391.475 104.277 391.251 106.08 391.251 108.576C391.251 111.136 391.475 112.981 391.923 114.112C392.371 115.221 393.107 115.776 394.131 115.776ZM405.543 120V115.584L412.967 107.84C413.649 107.115 414.161 106.421 414.503 105.76C414.865 105.077 415.047 104.416 415.047 103.776C415.047 103.029 414.823 102.475 414.375 102.112C413.927 101.749 413.276 101.568 412.423 101.568C411.527 101.568 410.577 101.749 409.575 102.112C408.572 102.453 407.58 102.955 406.599 103.616L404.711 99.36C405.628 98.6133 406.812 98.0267 408.263 97.6C409.735 97.152 411.228 96.928 412.743 96.928C414.385 96.928 415.815 97.1947 417.031 97.728C418.268 98.24 419.217 98.9867 419.879 99.968C420.561 100.928 420.903 102.059 420.903 103.36C420.903 104.704 420.636 105.92 420.103 107.008C419.591 108.075 418.705 109.269 417.447 110.592L411.399 116.768L410.567 115.232H421.607V120H405.543ZM432.538 120.288C429.722 120.288 427.556 119.285 426.042 117.28C424.548 115.275 423.802 112.373 423.802 108.576C423.802 104.843 424.548 101.984 426.042 100C427.556 97.9947 429.722 96.992 432.538 96.992C435.354 96.992 437.508 97.9947 439.002 100C440.516 101.984 441.274 104.843 441.274 108.576C441.274 112.373 440.516 115.275 439.002 117.28C437.508 119.285 435.354 120.288 432.538 120.288ZM432.538 115.776C433.562 115.776 434.298 115.221 434.746 114.112C435.194 112.981 435.418 111.136 435.418 108.576C435.418 106.08 435.194 104.277 434.746 103.168C434.298 102.059 433.562 101.504 432.538 101.504C431.514 101.504 430.778 102.059 430.33 103.168C429.882 104.277 429.658 106.08 429.658 108.576C429.658 111.136 429.882 112.981 430.33 114.112C430.778 115.221 431.514 115.776 432.538 115.776Z" fill="#DEE2E8"/>
<path d="M141.778 483H501.999" stroke="#C57AFF" stroke-opacity="0.15"/>
<path d="M141.778 408H501.999" stroke="#C57AFF" stroke-opacity="0.15"/>
<path d="M140.952 559L501.173 559" stroke="#C57AFF" stroke-opacity="0.15"/>
<path d="M141.778 331H501.999" stroke="#C57AFF" stroke-opacity="0.15"/>
<path d="M141.778 257H501.999" stroke="#C57AFF" stroke-opacity="0.15"/>
<path d="M119.905 567.144C118.465 567.144 117.373 566.592 116.629 565.488C115.885 564.372 115.513 562.74 115.513 560.592C115.513 558.432 115.879 556.8 116.611 555.696C117.355 554.592 118.453 554.04 119.905 554.04C121.357 554.04 122.449 554.592 123.181 555.696C123.925 556.8 124.297 558.426 124.297 560.574C124.297 562.722 123.925 564.354 123.181 565.47C122.437 566.586 121.345 567.144 119.905 567.144ZM119.905 566.154C121.009 566.154 121.825 565.704 122.353 564.804C122.893 563.892 123.163 562.482 123.163 560.574C123.163 558.666 122.899 557.268 122.371 556.38C121.843 555.48 121.021 555.03 119.905 555.03C118.801 555.03 117.979 555.48 117.439 556.38C116.911 557.28 116.647 558.678 116.647 560.574C116.647 562.47 116.911 563.874 117.439 564.786C117.979 565.698 118.801 566.154 119.905 566.154Z" fill="#DEE2E8"/>
<path d="M102.865 491V490.154L107.419 485.078C108.055 484.346 108.517 483.698 108.805 483.134C109.105 482.558 109.255 481.976 109.255 481.388C109.255 480.632 109.033 480.05 108.589 479.642C108.157 479.222 107.533 479.012 106.717 479.012C106.069 479.012 105.439 479.144 104.827 479.408C104.227 479.66 103.627 480.044 103.027 480.56L102.559 479.678C103.063 479.186 103.693 478.79 104.449 478.49C105.205 478.19 105.961 478.04 106.717 478.04C107.473 478.04 108.121 478.172 108.661 478.436C109.213 478.7 109.639 479.084 109.939 479.588C110.239 480.08 110.389 480.668 110.389 481.352C110.389 482.084 110.215 482.798 109.867 483.494C109.531 484.178 108.979 484.952 108.211 485.816L103.693 490.748L103.675 490.046H110.947V491H102.865ZM119.904 491.144C118.464 491.144 117.372 490.592 116.628 489.488C115.884 488.372 115.512 486.74 115.512 484.592C115.512 482.432 115.878 480.8 116.61 479.696C117.354 478.592 118.452 478.04 119.904 478.04C121.356 478.04 122.448 478.592 123.18 479.696C123.924 480.8 124.296 482.426 124.296 484.574C124.296 486.722 123.924 488.354 123.18 489.47C122.436 490.586 121.344 491.144 119.904 491.144ZM119.904 490.154C121.008 490.154 121.824 489.704 122.352 488.804C122.892 487.892 123.162 486.482 123.162 484.574C123.162 482.666 122.898 481.268 122.37 480.38C121.842 479.48 121.02 479.03 119.904 479.03C118.8 479.03 117.978 479.48 117.438 480.38C116.91 481.28 116.646 482.678 116.646 484.574C116.646 486.47 116.91 487.874 117.438 488.786C117.978 489.698 118.8 490.154 119.904 490.154Z" fill="#DEE2E8"/>
<path d="M108.301 416V404.57H108.715L102.973 412.868L102.991 412.13H111.397V413.084H102.253V412.238L108.499 403.184H109.417V416H108.301ZM119.904 416.144C118.464 416.144 117.372 415.592 116.628 414.488C115.884 413.372 115.512 411.74 115.512 409.592C115.512 407.432 115.878 405.8 116.61 404.696C117.354 403.592 118.452 403.04 119.904 403.04C121.356 403.04 122.448 403.592 123.18 404.696C123.924 405.8 124.296 407.426 124.296 409.574C124.296 411.722 123.924 413.354 123.18 414.47C122.436 415.586 121.344 416.144 119.904 416.144ZM119.904 415.154C121.008 415.154 121.824 414.704 122.352 413.804C122.892 412.892 123.162 411.482 123.162 409.574C123.162 407.666 122.898 406.268 122.37 405.38C121.842 404.48 121.02 404.03 119.904 404.03C118.8 404.03 117.978 404.48 117.438 405.38C116.91 406.28 116.646 407.678 116.646 409.574C116.646 411.47 116.91 412.874 117.438 413.786C117.978 414.698 118.8 415.154 119.904 415.154Z" fill="#DEE2E8"/>
<path d="M107.077 338.144C105.565 338.144 104.395 337.61 103.567 336.542C102.751 335.474 102.343 333.944 102.343 331.952C102.343 330.488 102.535 329.24 102.919 328.208C103.303 327.176 103.855 326.39 104.575 325.85C105.295 325.31 106.153 325.04 107.149 325.04C107.881 325.04 108.589 325.184 109.273 325.472C109.957 325.748 110.569 326.15 111.109 326.678L110.659 327.56C110.047 327.02 109.459 326.63 108.895 326.39C108.331 326.138 107.755 326.012 107.167 326.012C106.003 326.012 105.091 326.534 104.431 327.578C103.783 328.61 103.459 330.068 103.459 331.952V333.752L103.261 333.248C103.357 332.6 103.579 332.036 103.927 331.556C104.287 331.064 104.737 330.692 105.277 330.44C105.829 330.176 106.441 330.044 107.113 330.044C107.917 330.044 108.619 330.212 109.219 330.548C109.819 330.884 110.287 331.358 110.623 331.97C110.959 332.57 111.127 333.272 111.127 334.076C111.127 334.856 110.953 335.558 110.605 336.182C110.269 336.794 109.795 337.274 109.183 337.622C108.571 337.97 107.869 338.144 107.077 338.144ZM107.041 337.172C107.929 337.172 108.643 336.89 109.183 336.326C109.735 335.762 110.011 335.012 110.011 334.076C110.011 333.152 109.735 332.414 109.183 331.862C108.631 331.298 107.905 331.016 107.005 331.016C106.405 331.016 105.871 331.148 105.403 331.412C104.935 331.664 104.569 332.024 104.305 332.492C104.041 332.948 103.909 333.476 103.909 334.076C103.909 334.7 104.041 335.246 104.305 335.714C104.569 336.17 104.935 336.53 105.403 336.794C105.871 337.046 106.417 337.172 107.041 337.172ZM119.904 338.144C118.464 338.144 117.372 337.592 116.628 336.488C115.884 335.372 115.512 333.74 115.512 331.592C115.512 329.432 115.878 327.8 116.61 326.696C117.354 325.592 118.452 325.04 119.904 325.04C121.356 325.04 122.448 325.592 123.18 326.696C123.924 327.8 124.296 329.426 124.296 331.574C124.296 333.722 123.924 335.354 123.18 336.47C122.436 337.586 121.344 338.144 119.904 338.144ZM119.904 337.154C121.008 337.154 121.824 336.704 122.352 335.804C122.892 334.892 123.162 333.482 123.162 331.574C123.162 329.666 122.898 328.268 122.37 327.38C121.842 326.48 121.02 326.03 119.904 326.03C118.8 326.03 117.978 326.48 117.438 327.38C116.91 328.28 116.646 329.678 116.646 331.574C116.646 333.47 116.91 334.874 117.438 335.786C117.978 336.698 118.8 337.154 119.904 337.154Z" fill="#DEE2E8"/>
<path d="M106.681 264.126C105.757 264.126 104.959 263.988 104.287 263.712C103.615 263.424 103.093 263.022 102.721 262.506C102.361 261.978 102.181 261.354 102.181 260.634C102.181 259.746 102.481 259.008 103.081 258.42C103.693 257.82 104.503 257.448 105.511 257.304L105.403 257.556C104.455 257.376 103.729 257.01 103.225 256.458C102.721 255.894 102.469 255.216 102.469 254.424C102.469 253.74 102.643 253.146 102.991 252.642C103.351 252.138 103.843 251.748 104.467 251.472C105.103 251.184 105.841 251.04 106.681 251.04C107.521 251.04 108.253 251.184 108.877 251.472C109.513 251.748 110.005 252.138 110.353 252.642C110.713 253.146 110.893 253.74 110.893 254.424C110.893 255.216 110.641 255.894 110.137 256.458C109.633 257.01 108.913 257.376 107.977 257.556L107.851 257.304C108.907 257.436 109.723 257.802 110.299 258.402C110.887 259.002 111.181 259.746 111.181 260.634C111.181 261.354 110.995 261.978 110.623 262.506C110.263 263.022 109.747 263.424 109.075 263.712C108.403 263.988 107.605 264.126 106.681 264.126ZM106.681 263.154C107.773 263.154 108.607 262.938 109.183 262.506C109.759 262.062 110.047 261.42 110.047 260.58C110.047 259.788 109.729 259.17 109.093 258.726C108.469 258.282 107.665 258.012 106.681 257.916C105.697 258.012 104.887 258.282 104.251 258.726C103.627 259.17 103.315 259.788 103.315 260.58C103.315 261.42 103.603 262.062 104.179 262.506C104.755 262.938 105.589 263.154 106.681 263.154ZM106.681 257.088C107.605 257.004 108.349 256.734 108.913 256.278C109.477 255.822 109.759 255.222 109.759 254.478C109.759 253.71 109.489 253.11 108.949 252.678C108.409 252.234 107.653 252.012 106.681 252.012C105.709 252.012 104.953 252.234 104.413 252.678C103.873 253.11 103.603 253.71 103.603 254.478C103.603 255.222 103.885 255.822 104.449 256.278C105.013 256.734 105.757 257.004 106.681 257.088ZM119.904 264.144C118.464 264.144 117.372 263.592 116.628 262.488C115.884 261.372 115.512 259.74 115.512 257.592C115.512 255.432 115.878 253.8 116.61 252.696C117.354 251.592 118.452 251.04 119.904 251.04C121.356 251.04 122.448 251.592 123.18 252.696C123.924 253.8 124.296 255.426 124.296 257.574C124.296 259.722 123.924 261.354 123.18 262.47C122.436 263.586 121.344 264.144 119.904 264.144ZM119.904 263.154C121.008 263.154 121.824 262.704 122.352 261.804C122.892 260.892 123.162 259.482 123.162 257.574C123.162 255.666 122.898 254.268 122.37 253.38C121.842 252.48 121.02 252.03 119.904 252.03C118.8 252.03 117.978 252.48 117.438 253.38C116.91 254.28 116.646 255.678 116.646 257.574C116.646 259.47 116.91 260.874 117.438 261.786C117.978 262.698 118.8 263.154 119.904 263.154Z" fill="#DEE2E8"/>
<path d="M228.671 223.192C227.375 223.192 226.215 223 225.191 222.616C224.183 222.216 223.383 221.656 222.791 220.936C222.215 220.2 221.927 219.32 221.927 218.296C221.927 217.096 222.311 216.128 223.079 215.392C223.863 214.64 224.935 214.184 226.295 214.024L226.271 214.408C225.103 214.184 224.159 213.712 223.439 212.992C222.719 212.272 222.359 211.392 222.359 210.352C222.359 209.392 222.639 208.568 223.199 207.88C223.759 207.176 224.511 206.64 225.455 206.272C226.415 205.888 227.487 205.696 228.671 205.696C229.855 205.696 230.919 205.888 231.863 206.272C232.823 206.64 233.583 207.176 234.143 207.88C234.703 208.568 234.983 209.392 234.983 210.352C234.983 211.424 234.615 212.32 233.879 213.04C233.159 213.76 232.239 214.208 231.119 214.384L231.095 214.024C232.423 214.216 233.471 214.688 234.239 215.44C235.023 216.176 235.415 217.128 235.415 218.296C235.415 219.32 235.119 220.2 234.527 220.936C233.951 221.656 233.151 222.216 232.127 222.616C231.119 223 229.967 223.192 228.671 223.192ZM228.671 219.808C229.407 219.808 230.023 219.656 230.519 219.352C231.015 219.032 231.263 218.56 231.263 217.936C231.263 217.328 231.023 216.848 230.543 216.496C230.063 216.128 229.439 215.872 228.671 215.728C227.903 215.872 227.279 216.128 226.799 216.496C226.319 216.848 226.079 217.328 226.079 217.936C226.079 218.56 226.327 219.032 226.823 219.352C227.319 219.656 227.935 219.808 228.671 219.808ZM228.671 212.992C229.263 212.848 229.759 212.616 230.159 212.296C230.575 211.96 230.783 211.488 230.783 210.88C230.783 210.24 230.575 209.784 230.159 209.512C229.759 209.224 229.263 209.08 228.671 209.08C228.079 209.08 227.575 209.224 227.159 209.512C226.759 209.784 226.559 210.24 226.559 210.88C226.559 211.488 226.759 211.96 227.159 212.296C227.575 212.616 228.079 212.848 228.671 212.992ZM242.557 223.192C241.357 223.192 240.197 223.032 239.077 222.712C237.957 222.376 237.053 221.928 236.365 221.368L237.781 218.176C238.517 218.688 239.269 219.072 240.037 219.328C240.805 219.584 241.573 219.712 242.341 219.712C243.301 219.712 243.981 219.576 244.381 219.304C244.781 219.016 244.981 218.536 244.981 217.864C244.981 217.224 244.781 216.768 244.381 216.496C243.997 216.224 243.349 216.088 242.437 216.088H239.773V212.632H241.981C242.877 212.632 243.517 212.512 243.901 212.272C244.301 212.032 244.501 211.624 244.501 211.048C244.501 210.44 244.309 209.976 243.925 209.656C243.557 209.336 243.037 209.176 242.365 209.176C241.677 209.176 240.949 209.312 240.181 209.584C239.429 209.84 238.709 210.216 238.021 210.712L236.605 207.52C237.293 206.96 238.189 206.52 239.293 206.2C240.413 205.864 241.541 205.696 242.677 205.696C243.909 205.696 244.973 205.888 245.869 206.272C246.781 206.656 247.485 207.2 247.981 207.904C248.493 208.608 248.749 209.44 248.749 210.4C248.749 211.36 248.493 212.184 247.981 212.872C247.469 213.544 246.733 214.024 245.773 214.312L245.821 214.12C246.893 214.376 247.725 214.872 248.317 215.608C248.909 216.328 249.205 217.24 249.205 218.344C249.205 219.848 248.605 221.032 247.405 221.896C246.205 222.76 244.589 223.192 242.557 223.192Z" fill="#DEE2E8"/>
<path d="M283.861 245H187.861V559H283.861V245Z" fill="url(#paint1_linear_216_8632)"/>
<path d="M212.214 593V592.154L216.768 587.078C217.404 586.346 217.866 585.698 218.154 585.134C218.454 584.558 218.604 583.976 218.604 583.388C218.604 582.632 218.382 582.05 217.938 581.642C217.506 581.222 216.882 581.012 216.066 581.012C215.418 581.012 214.788 581.144 214.176 581.408C213.576 581.66 212.976 582.044 212.376 582.56L211.908 581.678C212.412 581.186 213.042 580.79 213.798 580.49C214.554 580.19 215.31 580.04 216.066 580.04C216.822 580.04 217.47 580.172 218.01 580.436C218.562 580.7 218.988 581.084 219.288 581.588C219.588 582.08 219.738 582.668 219.738 583.352C219.738 584.084 219.564 584.798 219.216 585.494C218.88 586.178 218.328 586.952 217.56 587.816L213.042 592.748L213.024 592.046H220.296V593H212.214ZM229.253 593.144C227.813 593.144 226.721 592.592 225.977 591.488C225.233 590.372 224.861 588.74 224.861 586.592C224.861 584.432 225.227 582.8 225.959 581.696C226.703 580.592 227.801 580.04 229.253 580.04C230.705 580.04 231.797 580.592 232.529 581.696C233.273 582.8 233.645 584.426 233.645 586.574C233.645 588.722 233.273 590.354 232.529 591.47C231.785 592.586 230.693 593.144 229.253 593.144ZM229.253 592.154C230.357 592.154 231.173 591.704 231.701 590.804C232.241 589.892 232.511 588.482 232.511 586.574C232.511 584.666 232.247 583.268 231.719 582.38C231.191 581.48 230.369 581.03 229.253 581.03C228.149 581.03 227.327 581.48 226.787 582.38C226.259 583.28 225.995 584.678 225.995 586.574C225.995 588.47 226.259 589.874 226.787 590.786C227.327 591.698 228.149 592.154 229.253 592.154ZM242.35 592.514V580.652L243.07 581.192L239.704 583.37V582.236L242.836 580.184H243.466V592.514H242.35ZM239.506 593V592.046H246.31V593H239.506ZM255.699 593.144C254.259 593.144 253.167 592.592 252.423 591.488C251.679 590.372 251.307 588.74 251.307 586.592C251.307 584.432 251.673 582.8 252.405 581.696C253.149 580.592 254.247 580.04 255.699 580.04C257.151 580.04 258.243 580.592 258.975 581.696C259.719 582.8 260.091 584.426 260.091 586.574C260.091 588.722 259.719 590.354 258.975 591.47C258.231 592.586 257.139 593.144 255.699 593.144ZM255.699 592.154C256.803 592.154 257.619 591.704 258.147 590.804C258.687 589.892 258.957 588.482 258.957 586.574C258.957 584.666 258.693 583.268 258.165 582.38C257.637 581.48 256.815 581.03 255.699 581.03C254.595 581.03 253.773 581.48 253.233 582.38C252.705 583.28 252.441 584.678 252.441 586.574C252.441 588.47 252.705 589.874 253.233 590.786C253.773 591.698 254.595 592.154 255.699 592.154Z" fill="#DEE2E8"/>
<path d="M366.033 180.696C368.321 180.696 370.081 181.44 371.313 182.928C372.561 184.4 373.185 186.52 373.185 189.288C373.185 191.144 372.881 192.744 372.273 194.088C371.681 195.416 370.825 196.44 369.705 197.16C368.601 197.864 367.281 198.216 365.745 198.216C364.673 198.216 363.625 198.064 362.601 197.76C361.593 197.44 360.737 196.984 360.033 196.392L361.449 193.2C362.233 193.76 362.969 194.16 363.657 194.4C364.361 194.624 364.985 194.736 365.529 194.736C366.601 194.736 367.401 194.288 367.929 193.392C368.473 192.496 368.745 191.16 368.745 189.384V189.048L369.153 189.6C368.993 190.112 368.713 190.56 368.313 190.944C367.929 191.328 367.465 191.632 366.921 191.856C366.377 192.064 365.785 192.168 365.145 192.168C364.169 192.168 363.297 191.928 362.529 191.448C361.761 190.968 361.153 190.312 360.705 189.48C360.257 188.632 360.033 187.672 360.033 186.6C360.033 185.448 360.289 184.432 360.801 183.552C361.329 182.656 362.041 181.96 362.937 181.464C363.833 180.952 364.865 180.696 366.033 180.696ZM366.297 184.152C365.657 184.152 365.153 184.36 364.785 184.776C364.433 185.192 364.257 185.736 364.257 186.408C364.257 187.112 364.433 187.672 364.785 188.088C365.153 188.488 365.657 188.688 366.297 188.688C366.697 188.688 367.049 188.6 367.353 188.424C367.673 188.232 367.913 187.968 368.073 187.632C368.249 187.28 368.337 186.872 368.337 186.408C368.337 185.96 368.249 185.568 368.073 185.232C367.913 184.896 367.673 184.632 367.353 184.44C367.049 184.248 366.697 184.152 366.297 184.152ZM381.023 198.216C378.911 198.216 377.287 197.464 376.151 195.96C375.031 194.456 374.471 192.28 374.471 189.432C374.471 186.632 375.031 184.488 376.151 183C377.287 181.496 378.911 180.744 381.023 180.744C383.135 180.744 384.751 181.496 385.871 183C387.007 184.488 387.575 186.632 387.575 189.432C387.575 192.28 387.007 194.456 385.871 195.96C384.751 197.464 383.135 198.216 381.023 198.216ZM381.023 194.832C381.791 194.832 382.343 194.416 382.679 193.584C383.015 192.736 383.183 191.352 383.183 189.432C383.183 187.56 383.015 186.208 382.679 185.376C382.343 184.544 381.791 184.128 381.023 184.128C380.255 184.128 379.703 184.544 379.367 185.376C379.031 186.208 378.863 187.56 378.863 189.432C378.863 191.352 379.031 192.736 379.367 193.584C379.703 194.416 380.255 194.832 381.023 194.832Z" fill="#DEE2E8"/>
<path d="M421.823 220H325.823V559.104H421.823V220Z" fill="url(#paint2_linear_216_8632)"/>
<path d="M350.176 593.104V592.258L354.73 587.182C355.366 586.45 355.828 585.802 356.116 585.238C356.416 584.662 356.566 584.08 356.566 583.492C356.566 582.736 356.344 582.154 355.9 581.746C355.468 581.326 354.844 581.116 354.028 581.116C353.38 581.116 352.75 581.248 352.138 581.512C351.538 581.764 350.938 582.148 350.338 582.664L349.87 581.782C350.374 581.29 351.004 580.894 351.76 580.594C352.516 580.294 353.272 580.144 354.028 580.144C354.784 580.144 355.432 580.276 355.972 580.54C356.524 580.804 356.95 581.188 357.25 581.692C357.55 582.184 357.7 582.772 357.7 583.456C357.7 584.188 357.526 584.902 357.178 585.598C356.842 586.282 356.29 587.056 355.522 587.92L351.004 592.852L350.986 592.15H358.258V593.104H350.176ZM367.215 593.248C365.775 593.248 364.683 592.696 363.939 591.592C363.195 590.476 362.823 588.844 362.823 586.696C362.823 584.536 363.189 582.904 363.921 581.8C364.665 580.696 365.763 580.144 367.215 580.144C368.667 580.144 369.759 580.696 370.491 581.8C371.235 582.904 371.607 584.53 371.607 586.678C371.607 588.826 371.235 590.458 370.491 591.574C369.747 592.69 368.655 593.248 367.215 593.248ZM367.215 592.258C368.319 592.258 369.135 591.808 369.663 590.908C370.203 589.996 370.473 588.586 370.473 586.678C370.473 584.77 370.209 583.372 369.681 582.484C369.153 581.584 368.331 581.134 367.215 581.134C366.111 581.134 365.289 581.584 364.749 582.484C364.221 583.384 363.957 584.782 363.957 586.678C363.957 588.574 364.221 589.978 364.749 590.89C365.289 591.802 366.111 592.258 367.215 592.258ZM376.622 593.104V592.258L381.176 587.182C381.812 586.45 382.274 585.802 382.562 585.238C382.862 584.662 383.012 584.08 383.012 583.492C383.012 582.736 382.79 582.154 382.346 581.746C381.914 581.326 381.29 581.116 380.474 581.116C379.826 581.116 379.196 581.248 378.584 581.512C377.984 581.764 377.384 582.148 376.784 582.664L376.316 581.782C376.82 581.29 377.45 580.894 378.206 580.594C378.962 580.294 379.718 580.144 380.474 580.144C381.23 580.144 381.878 580.276 382.418 580.54C382.97 580.804 383.396 581.188 383.696 581.692C383.996 582.184 384.146 582.772 384.146 583.456C384.146 584.188 383.972 584.902 383.624 585.598C383.288 586.282 382.736 587.056 381.968 587.92L377.45 592.852L377.432 592.15H384.704V593.104H376.622ZM393.661 593.248C392.221 593.248 391.129 592.696 390.385 591.592C389.641 590.476 389.269 588.844 389.269 586.696C389.269 584.536 389.635 582.904 390.367 581.8C391.111 580.696 392.209 580.144 393.661 580.144C395.113 580.144 396.205 580.696 396.937 581.8C397.681 582.904 398.053 584.53 398.053 586.678C398.053 588.826 397.681 590.458 396.937 591.574C396.193 592.69 395.101 593.248 393.661 593.248ZM393.661 592.258C394.765 592.258 395.581 591.808 396.109 590.908C396.649 589.996 396.919 588.586 396.919 586.678C396.919 584.77 396.655 583.372 396.127 582.484C395.599 581.584 394.777 581.134 393.661 581.134C392.557 581.134 391.735 581.584 391.195 582.484C390.667 583.384 390.403 584.782 390.403 586.678C390.403 588.574 390.667 589.978 391.195 590.89C391.735 591.802 392.557 592.258 393.661 592.258Z" fill="#DEE2E8"/>
<path d="M66.144 438.887C66.144 440.087 65.886 441.119 65.37 441.983C64.842 442.847 64.086 443.519 63.102 443.999C62.118 444.467 60.942 444.701 59.574 444.701C58.206 444.701 57.036 444.467 56.064 443.999C55.092 443.519 54.348 442.847 53.832 441.983C53.304 441.119 53.04 440.087 53.04 438.887C53.04 437.999 53.178 437.189 53.454 436.457C53.73 435.713 54.15 435.071 54.714 434.531L55.596 434.981C55.044 435.605 54.648 436.229 54.408 436.853C54.168 437.465 54.048 438.143 54.048 438.887C54.048 440.363 54.528 441.509 55.488 442.325C56.448 443.141 57.81 443.549 59.574 443.549C61.35 443.549 62.724 443.141 63.696 442.325C64.656 441.509 65.136 440.363 65.136 438.887C65.136 438.143 65.016 437.465 64.776 436.853C64.536 436.229 64.14 435.605 63.588 434.981L64.47 434.531C65.034 435.071 65.454 435.713 65.73 436.457C66.006 437.189 66.144 437.999 66.144 438.887ZM66.126 426.38C66.126 427.184 65.934 427.892 65.55 428.504C65.166 429.104 64.632 429.572 63.948 429.908C63.252 430.232 62.43 430.394 61.482 430.394C60.534 430.394 59.706 430.226 58.998 429.89C58.29 429.554 57.744 429.086 57.36 428.486C56.964 427.874 56.766 427.172 56.766 426.38C56.766 425.528 56.976 424.814 57.396 424.238C57.816 423.65 58.422 423.254 59.214 423.05L59.358 423.266L56.982 423.266L56.982 422.168L66 422.168L66 423.266L63.534 423.266L63.66 423.05C64.452 423.254 65.064 423.65 65.496 424.238C65.916 424.814 66.126 425.528 66.126 426.38ZM65.154 426.236C65.154 425.276 64.83 424.544 64.182 424.04C63.534 423.524 62.622 423.266 61.446 423.266C60.246 423.266 59.328 423.524 58.692 424.04C58.056 424.556 57.738 425.288 57.738 426.236C57.738 427.184 58.068 427.928 58.728 428.468C59.376 428.996 60.294 429.26 61.482 429.26C62.658 429.26 63.564 428.996 64.2 428.468C64.836 427.928 65.154 427.184 65.154 426.236ZM66 416.754L59.484 416.754C59.076 416.754 58.662 416.766 58.242 416.79C57.81 416.802 57.39 416.838 56.982 416.898L56.982 415.854L58.872 415.692L59.052 415.872C58.296 415.644 57.726 415.23 57.342 414.63C56.958 414.03 56.766 413.34 56.766 412.56C56.766 410.388 57.93 409.302 60.258 409.302L66 409.302L66 410.4L60.33 410.4C59.43 410.4 58.77 410.58 58.35 410.94C57.93 411.3 57.72 411.876 57.72 412.668C57.72 413.568 57.996 414.294 58.548 414.846C59.1 415.386 59.844 415.656 60.78 415.656L66 415.656L66 416.754ZM57.864 405.285L56.982 405.285L56.982 399.741L57.864 399.741L57.864 405.285ZM64.974 399.795L65.964 399.795C66.012 399.975 66.048 400.161 66.072 400.353C66.096 400.533 66.108 400.737 66.108 400.965C66.108 401.721 65.892 402.333 65.46 402.801C65.028 403.269 64.356 403.503 63.444 403.503L54.588 403.503L54.174 402.405L63.228 402.405C63.732 402.405 64.122 402.339 64.398 402.207C64.674 402.063 64.866 401.871 64.974 401.631C65.082 401.379 65.136 401.097 65.136 400.785C65.136 400.593 65.124 400.425 65.1 400.281C65.076 400.137 65.034 399.975 64.974 399.795ZM66 395.44L56.982 395.44L56.982 394.342L66 394.342L66 395.44ZM53.256 395.602L53.256 394.144L54.66 394.144L54.66 395.602L53.256 395.602ZM66 381.265L66 382.363L63.516 382.363L63.66 382.147C64.452 382.351 65.064 382.747 65.496 383.335C65.916 383.911 66.126 384.625 66.126 385.477C66.126 386.269 65.934 386.971 65.55 387.583C65.154 388.183 64.602 388.651 63.894 388.987C63.186 389.323 62.358 389.491 61.41 389.491C60.462 389.491 59.64 389.329 58.944 389.005C58.248 388.669 57.714 388.201 57.342 387.601C56.958 386.989 56.766 386.281 56.766 385.477C56.766 384.625 56.982 383.911 57.414 383.335C57.834 382.747 58.434 382.351 59.214 382.147L59.358 382.363L52.752 382.363L52.752 381.265L66 381.265ZM65.154 385.333C65.154 384.385 64.83 383.653 64.182 383.137C63.534 382.621 62.622 382.363 61.446 382.363C60.258 382.363 59.346 382.621 58.71 383.137C58.062 383.641 57.738 384.373 57.738 385.333C57.738 386.281 58.056 387.025 58.692 387.565C59.328 388.093 60.234 388.357 61.41 388.357C62.586 388.357 63.504 388.093 64.164 387.565C64.824 387.025 65.154 386.281 65.154 385.333ZM66.126 372.412C66.126 373.216 65.934 373.924 65.55 374.536C65.166 375.136 64.632 375.604 63.948 375.94C63.252 376.264 62.43 376.426 61.482 376.426C60.534 376.426 59.706 376.258 58.998 375.922C58.29 375.586 57.744 375.118 57.36 374.518C56.964 373.906 56.766 373.204 56.766 372.412C56.766 371.56 56.976 370.846 57.396 370.27C57.816 369.682 58.422 369.286 59.214 369.082L59.358 369.298L56.982 369.298L56.982 368.2L66 368.2L66 369.298L63.534 369.298L63.66 369.082C64.452 369.286 65.064 369.682 65.496 370.27C65.916 370.846 66.126 371.56 66.126 372.412ZM65.154 372.268C65.154 371.308 64.83 370.576 64.182 370.072C63.534 369.556 62.622 369.298 61.446 369.298C60.246 369.298 59.328 369.556 58.692 370.072C58.056 370.588 57.738 371.32 57.738 372.268C57.738 373.216 58.068 373.96 58.728 374.5C59.376 375.028 60.294 375.292 61.482 375.292C62.658 375.292 63.564 375.028 64.2 374.5C64.836 373.96 65.154 373.216 65.154 372.268ZM66 355.135L66 356.233L63.516 356.233L63.66 356.017C64.452 356.221 65.064 356.617 65.496 357.205C65.916 357.781 66.126 358.495 66.126 359.347C66.126 360.139 65.934 360.841 65.55 361.453C65.154 362.053 64.602 362.521 63.894 362.857C63.186 363.193 62.358 363.361 61.41 363.361C60.462 363.361 59.64 363.199 58.944 362.875C58.248 362.539 57.714 362.071 57.342 361.471C56.958 360.859 56.766 360.151 56.766 359.347C56.766 358.495 56.982 357.781 57.414 357.205C57.834 356.617 58.434 356.221 59.214 356.017L59.358 356.233L52.752 356.233L52.752 355.135L66 355.135ZM65.154 359.203C65.154 358.255 64.83 357.523 64.182 357.007C63.534 356.491 62.622 356.233 61.446 356.233C60.258 356.233 59.346 356.491 58.71 357.007C58.062 357.511 57.738 358.243 57.738 359.203C57.738 360.151 58.056 360.895 58.692 361.435C59.328 361.963 60.234 362.227 61.41 362.227C62.586 362.227 63.504 361.963 64.164 361.435C64.824 360.895 65.154 360.151 65.154 359.203Z" fill="#DEE2E8"/>
<defs>
<linearGradient id="paint0_linear_216_8632" x1="275" y1="0" x2="275" y2="646.104" gradientUnits="userSpaceOnUse">
<stop stop-color="#0B1131"/>
<stop offset="1" stop-color="#334F79"/>
</linearGradient>
<linearGradient id="paint1_linear_216_8632" x1="235.861" y1="245" x2="235.861" y2="559" gradientUnits="userSpaceOnUse">
<stop stop-color="#EA7279"/>
<stop offset="1" stop-color="#E65F77"/>
</linearGradient>
<linearGradient id="paint2_linear_216_8632" x1="373.823" y1="220" x2="373.823" y2="559.104" gradientUnits="userSpaceOnUse">
<stop stop-color="#6E57F7"/>
<stop offset="1" stop-color="#533AEB"/>
</linearGradient>
</defs>
</svg>
