<svg width="1068" height="647" viewBox="0 0 1068 647" fill="none" xmlns="http://www.w3.org/2000/svg">
<rect width="523.461" height="646.104" rx="5" fill="#1A283D"/>
<rect width="523.461" height="646.104" rx="5" fill="url(#paint0_linear_231_3353)" fill-opacity="0.2"/>
<path d="M61.12 80.288C58.7307 80.288 56.6613 79.808 54.912 78.848C53.1627 77.8667 51.808 76.5013 50.848 74.752C49.9093 72.9813 49.44 70.9227 49.44 68.576C49.44 66.2507 49.9093 64.2133 50.848 62.464C51.808 60.7147 53.1627 59.36 54.912 58.4C56.6613 57.4187 58.7307 56.928 61.12 56.928C62.6133 56.928 64.0533 57.152 65.44 57.6C66.848 58.048 67.9787 58.656 68.832 59.424L67.008 63.68C66.0267 62.976 65.0667 62.464 64.128 62.144C63.1893 61.824 62.2293 61.664 61.248 61.664C59.4347 61.664 58.0267 62.24 57.024 63.392C56.0427 64.544 55.552 66.272 55.552 68.576C55.552 70.88 56.0427 72.6187 57.024 73.792C58.0267 74.9653 59.4347 75.552 61.248 75.552C62.2293 75.552 63.1893 75.392 64.128 75.072C65.0667 74.752 66.0267 74.24 67.008 73.536L68.832 77.792C67.9787 78.56 66.848 79.168 65.44 79.616C64.0533 80.064 62.6133 80.288 61.12 80.288ZM77.7538 80.256C76.3671 80.256 75.1298 79.9147 74.0418 79.232C72.9538 78.5493 72.1004 77.5787 71.4818 76.32C70.8844 75.0613 70.5858 73.5893 70.5858 71.904C70.5858 70.1973 70.8951 68.704 71.5138 67.424C72.1324 66.1227 72.9751 65.1093 74.0418 64.384C75.1298 63.6587 76.3671 63.296 77.7538 63.296C78.9911 63.296 80.1004 63.6053 81.0818 64.224C82.0844 64.8213 82.7671 65.6107 83.1298 66.592L82.7458 66.816V63.744H88.4418V80H82.7458V77.024H83.1298C82.7671 78.0267 82.0844 78.816 81.0818 79.392C80.1004 79.968 78.9911 80.256 77.7538 80.256ZM79.5458 75.936C80.5484 75.936 81.3271 75.584 81.8818 74.88C82.4578 74.176 82.7458 73.1627 82.7458 71.84C82.7458 70.4747 82.4684 69.44 81.9138 68.736C81.3591 68.032 80.5698 67.68 79.5458 67.68C78.5431 67.68 77.7538 68.0533 77.1778 68.8C76.6018 69.5253 76.3138 70.56 76.3138 71.904C76.3138 73.2053 76.5911 74.208 77.1458 74.912C77.7004 75.5947 78.5004 75.936 79.5458 75.936ZM91.8843 80V68.416C91.8843 67.648 91.8629 66.8693 91.8203 66.08C91.7989 65.2907 91.7349 64.512 91.6283 63.744H97.0683L97.4523 66.816L97.0683 66.656C97.6656 65.5893 98.4443 64.768 99.4043 64.192C100.386 63.5947 101.506 63.296 102.764 63.296C106.583 63.296 108.492 65.632 108.492 70.304V80H102.7V70.56C102.7 69.5573 102.53 68.8427 102.188 68.416C101.847 67.968 101.314 67.744 100.588 67.744C99.7136 67.744 99.0096 68.0427 98.4763 68.64C97.9429 69.216 97.6763 69.984 97.6763 70.944V80H91.8843ZM110.221 68V63.744H122.957V68H110.221ZM122.989 75.392V79.776C122.498 79.968 122.008 80.096 121.517 80.16C121.026 80.224 120.514 80.256 119.981 80.256C117.741 80.256 116.056 79.6267 114.925 78.368C113.816 77.1093 113.261 75.4027 113.261 73.248V60.064L119.053 58.208V73.248C119.053 73.7813 119.16 74.2293 119.373 74.592C119.608 74.9333 119.906 75.1893 120.269 75.36C120.632 75.5093 121.026 75.584 121.453 75.584C121.666 75.584 121.89 75.5733 122.125 75.552C122.381 75.5093 122.669 75.456 122.989 75.392ZM125.166 80V63.744H130.958V80H125.166ZM125.006 55.776H131.054V60.992H125.006V55.776ZM151.536 80H145.84V76.192L146.224 77.024C145.861 78.0267 145.178 78.816 144.176 79.392C143.194 79.968 142.085 80.256 140.848 80.256C139.461 80.256 138.224 79.904 137.136 79.2C136.069 78.4747 135.226 77.472 134.608 76.192C133.989 74.912 133.68 73.4187 133.68 71.712C133.68 70.0267 133.978 68.5547 134.576 67.296C135.194 66.016 136.048 65.0347 137.136 64.352C138.224 63.648 139.461 63.296 140.848 63.296C142.085 63.296 143.194 63.6053 144.176 64.224C145.178 64.8213 145.861 65.6 146.224 66.56L145.744 67.264V56.448H151.536V80ZM142.64 75.936C143.664 75.936 144.453 75.584 145.008 74.88C145.562 74.176 145.84 73.1413 145.84 71.776C145.84 70.4747 145.552 69.472 144.976 68.768C144.421 68.0427 143.642 67.68 142.64 67.68C141.594 67.68 140.794 68.032 140.24 68.736C139.685 69.4187 139.408 70.4107 139.408 71.712C139.408 73.0773 139.696 74.1227 140.272 74.848C140.848 75.5733 141.637 75.936 142.64 75.936ZM161.41 80.256C160.023 80.256 158.786 79.9147 157.698 79.232C156.61 78.5493 155.757 77.5787 155.138 76.32C154.541 75.0613 154.242 73.5893 154.242 71.904C154.242 70.1973 154.551 68.704 155.17 67.424C155.789 66.1227 156.631 65.1093 157.698 64.384C158.786 63.6587 160.023 63.296 161.41 63.296C162.647 63.296 163.757 63.6053 164.738 64.224C165.741 64.8213 166.423 65.6107 166.786 66.592L166.402 66.816V63.744H172.098V80H166.402V77.024H166.786C166.423 78.0267 165.741 78.816 164.738 79.392C163.757 79.968 162.647 80.256 161.41 80.256ZM163.202 75.936C164.205 75.936 164.983 75.584 165.538 74.88C166.114 74.176 166.402 73.1627 166.402 71.84C166.402 70.4747 166.125 69.44 165.57 68.736C165.015 68.032 164.226 67.68 163.202 67.68C162.199 67.68 161.41 68.0533 160.834 68.8C160.258 69.5253 159.97 70.56 159.97 71.904C159.97 73.2053 160.247 74.208 160.802 74.912C161.357 75.5947 162.157 75.936 163.202 75.936ZM192.661 80H186.965V76.192L187.349 77.024C186.986 78.0267 186.303 78.816 185.301 79.392C184.319 79.968 183.21 80.256 181.973 80.256C180.586 80.256 179.349 79.904 178.261 79.2C177.194 78.4747 176.351 77.472 175.733 76.192C175.114 74.912 174.805 73.4187 174.805 71.712C174.805 70.0267 175.103 68.5547 175.701 67.296C176.319 66.016 177.173 65.0347 178.261 64.352C179.349 63.648 180.586 63.296 181.973 63.296C183.21 63.296 184.319 63.6053 185.301 64.224C186.303 64.8213 186.986 65.6 187.349 66.56L186.869 67.264V56.448H192.661V80ZM183.765 75.936C184.789 75.936 185.578 75.584 186.133 74.88C186.687 74.176 186.965 73.1413 186.965 71.776C186.965 70.4747 186.677 69.472 186.101 68.768C185.546 68.0427 184.767 67.68 183.765 67.68C182.719 67.68 181.919 68.032 181.365 68.736C180.81 69.4187 180.533 70.4107 180.533 71.712C180.533 73.0773 180.821 74.1227 181.397 74.848C181.973 75.5733 182.762 75.936 183.765 75.936ZM222.504 80H216.808V76.192L217.192 77.024C216.83 78.0267 216.147 78.816 215.144 79.392C214.163 79.968 213.054 80.256 211.816 80.256C210.43 80.256 209.192 79.904 208.104 79.2C207.038 78.4747 206.195 77.472 205.576 76.192C204.958 74.912 204.648 73.4187 204.648 71.712C204.648 70.0267 204.947 68.5547 205.544 67.296C206.163 66.016 207.016 65.0347 208.104 64.352C209.192 63.648 210.43 63.296 211.816 63.296C213.054 63.296 214.163 63.6053 215.144 64.224C216.147 64.8213 216.83 65.6 217.192 66.56L216.712 67.264V56.448H222.504V80ZM213.608 75.936C214.632 75.936 215.422 75.584 215.976 74.88C216.531 74.176 216.808 73.1413 216.808 71.776C216.808 70.4747 216.52 69.472 215.944 68.768C215.39 68.0427 214.611 67.68 213.608 67.68C212.563 67.68 211.763 68.032 211.208 68.736C210.654 69.4187 210.376 70.4107 210.376 71.712C210.376 73.0773 210.664 74.1227 211.24 74.848C211.816 75.5733 212.606 75.936 213.608 75.936ZM240.667 78.336C239.856 78.9547 238.875 79.4347 237.723 79.776C236.571 80.096 235.419 80.256 234.267 80.256C232.389 80.256 230.768 79.9147 229.403 79.232C228.059 78.5493 227.024 77.5787 226.299 76.32C225.573 75.04 225.211 73.536 225.211 71.808C225.211 70.144 225.552 68.672 226.235 67.392C226.939 66.112 227.899 65.1093 229.115 64.384C230.331 63.6587 231.739 63.296 233.339 63.296C234.896 63.296 236.24 63.6373 237.371 64.32C238.523 65.0027 239.408 65.9733 240.027 67.232C240.645 68.4907 240.955 69.9733 240.955 71.68V72.448H230.331L230.395 69.76H237.467L236.059 70.688C236.059 69.536 235.835 68.6827 235.387 68.128C234.96 67.552 234.331 67.264 233.499 67.264C232.581 67.264 231.877 67.6053 231.387 68.288C230.917 68.9493 230.683 69.9627 230.683 71.328C230.683 73.0133 230.992 74.2187 231.611 74.944C232.229 75.648 233.211 76 234.555 76C235.365 76 236.176 75.872 236.987 75.616C237.819 75.3387 238.555 74.9653 239.195 74.496L240.667 78.336ZM260.98 80.256C259.145 80.256 257.566 79.9253 256.244 79.264C254.921 78.5813 253.908 77.6107 253.204 76.352C252.521 75.0933 252.18 73.6107 252.18 71.904C252.18 70.176 252.553 68.672 253.299 67.392C254.068 66.0907 255.124 65.088 256.468 64.384C257.833 63.6587 259.422 63.296 261.236 63.296C262.43 63.296 263.604 63.4773 264.756 63.84C265.908 64.1813 266.825 64.6507 267.508 65.248L266.036 69.248C265.46 68.7787 264.788 68.4053 264.02 68.128C263.252 67.8507 262.516 67.712 261.812 67.712C260.66 67.712 259.753 68.0427 259.092 68.704C258.43 69.3653 258.1 70.3893 258.1 71.776C258.1 73.184 258.42 74.2293 259.06 74.912C259.721 75.5733 260.649 75.904 261.844 75.904C262.526 75.904 263.252 75.776 264.02 75.52C264.788 75.2427 265.46 74.8587 266.036 74.368L267.508 78.304C266.782 78.9227 265.833 79.4027 264.66 79.744C263.508 80.0853 262.281 80.256 260.98 80.256ZM275.816 80.256C274.43 80.256 273.192 79.9147 272.104 79.232C271.016 78.5493 270.163 77.5787 269.544 76.32C268.947 75.0613 268.648 73.5893 268.648 71.904C268.648 70.1973 268.958 68.704 269.576 67.424C270.195 66.1227 271.038 65.1093 272.104 64.384C273.192 63.6587 274.43 63.296 275.816 63.296C277.054 63.296 278.163 63.6053 279.144 64.224C280.147 64.8213 280.83 65.6107 281.192 66.592L280.808 66.816V63.744H286.504V80H280.808V77.024H281.192C280.83 78.0267 280.147 78.816 279.144 79.392C278.163 79.968 277.054 80.256 275.816 80.256ZM277.608 75.936C278.611 75.936 279.39 75.584 279.944 74.88C280.52 74.176 280.808 73.1627 280.808 71.84C280.808 70.4747 280.531 69.44 279.976 68.736C279.422 68.032 278.632 67.68 277.608 67.68C276.606 67.68 275.816 68.0533 275.24 68.8C274.664 69.5253 274.376 70.56 274.376 71.904C274.376 73.2053 274.654 74.208 275.208 74.912C275.763 75.5947 276.563 75.936 277.608 75.936ZM289.947 80V68.416C289.947 67.648 289.925 66.8693 289.883 66.08C289.861 65.2907 289.797 64.512 289.691 63.744H295.131L295.515 66.816L295.131 66.656C295.728 65.5893 296.507 64.768 297.467 64.192C298.448 63.5947 299.568 63.296 300.827 63.296C304.645 63.296 306.555 65.632 306.555 70.304V80H300.763V70.56C300.763 69.5573 300.592 68.8427 300.251 68.416C299.909 67.968 299.376 67.744 298.651 67.744C297.776 67.744 297.072 68.0427 296.539 68.64C296.005 69.216 295.739 69.984 295.739 70.944V80H289.947ZM317.98 80.256C316.145 80.256 314.566 79.9253 313.244 79.264C311.921 78.5813 310.908 77.6107 310.204 76.352C309.521 75.0933 309.18 73.6107 309.18 71.904C309.18 70.176 309.553 68.672 310.299 67.392C311.068 66.0907 312.124 65.088 313.468 64.384C314.833 63.6587 316.422 63.296 318.236 63.296C319.43 63.296 320.604 63.4773 321.756 63.84C322.908 64.1813 323.825 64.6507 324.508 65.248L323.036 69.248C322.46 68.7787 321.788 68.4053 321.02 68.128C320.252 67.8507 319.516 67.712 318.812 67.712C317.66 67.712 316.753 68.0427 316.092 68.704C315.43 69.3653 315.1 70.3893 315.1 71.776C315.1 73.184 315.42 74.2293 316.06 74.912C316.721 75.5733 317.649 75.904 318.844 75.904C319.526 75.904 320.252 75.776 321.02 75.52C321.788 75.2427 322.46 74.8587 323.036 74.368L324.508 78.304C323.782 78.9227 322.833 79.4027 321.66 79.744C320.508 80.0853 319.281 80.256 317.98 80.256ZM326.384 80V63.744H332.176V80H326.384ZM326.224 55.776H332.272V60.992H326.224V55.776ZM343.826 80.256C341.992 80.256 340.402 79.9147 339.058 79.232C337.736 78.5493 336.712 77.5787 335.986 76.32C335.261 75.04 334.898 73.5253 334.898 71.776C334.898 70.048 335.261 68.5547 335.986 67.296C336.712 66.016 337.736 65.0347 339.058 64.352C340.402 63.648 341.992 63.296 343.826 63.296C345.618 63.296 347.176 63.648 348.498 64.352C349.842 65.0347 350.877 66.016 351.602 67.296C352.328 68.5547 352.69 70.048 352.69 71.776C352.69 73.5253 352.328 75.04 351.602 76.32C350.877 77.5787 349.842 78.5493 348.498 79.232C347.176 79.9147 345.618 80.256 343.826 80.256ZM343.826 75.936C344.829 75.936 345.597 75.6053 346.13 74.944C346.685 74.2827 346.962 73.2267 346.962 71.776C346.962 70.3467 346.696 69.3013 346.162 68.64C345.629 67.9787 344.85 67.648 343.826 67.648C342.781 67.648 341.981 67.9787 341.426 68.64C340.893 69.3013 340.626 70.3467 340.626 71.776C340.626 73.2267 340.893 74.2827 341.426 74.944C341.981 75.6053 342.781 75.936 343.826 75.936ZM355.416 80V68.416C355.416 67.648 355.394 66.8693 355.352 66.08C355.33 65.2907 355.266 64.512 355.16 63.744H360.6L360.984 66.816L360.6 66.656C361.197 65.5893 361.976 64.768 362.936 64.192C363.917 63.5947 365.037 63.296 366.296 63.296C370.114 63.296 372.024 65.632 372.024 70.304V80H366.232V70.56C366.232 69.5573 366.061 68.8427 365.72 68.416C365.378 67.968 364.845 67.744 364.12 67.744C363.245 67.744 362.541 68.0427 362.008 68.64C361.474 69.216 361.208 69.984 361.208 70.944V80H355.416ZM390.104 78.336C389.294 78.9547 388.312 79.4347 387.16 79.776C386.008 80.096 384.856 80.256 383.704 80.256C381.827 80.256 380.206 79.9147 378.84 79.232C377.496 78.5493 376.462 77.5787 375.736 76.32C375.011 75.04 374.648 73.536 374.648 71.808C374.648 70.144 374.99 68.672 375.672 67.392C376.376 66.112 377.336 65.1093 378.552 64.384C379.768 63.6587 381.176 63.296 382.776 63.296C384.334 63.296 385.678 63.6373 386.808 64.32C387.96 65.0027 388.846 65.9733 389.464 67.232C390.083 68.4907 390.392 69.9733 390.392 71.68V72.448H379.768L379.832 69.76H386.904L385.496 70.688C385.496 69.536 385.272 68.6827 384.824 68.128C384.398 67.552 383.768 67.264 382.936 67.264C382.019 67.264 381.315 67.6053 380.824 68.288C380.355 68.9493 380.12 69.9627 380.12 71.328C380.12 73.0133 380.43 74.2187 381.048 74.944C381.667 75.648 382.648 76 383.992 76C384.803 76 385.614 75.872 386.424 75.616C387.256 75.3387 387.992 74.9653 388.632 74.496L390.104 78.336ZM399.632 80.256C396.389 80.256 393.829 79.6053 391.952 78.304L393.424 74.368C394.298 74.9653 395.29 75.4347 396.4 75.776C397.53 76.096 398.618 76.256 399.664 76.256C400.325 76.256 400.837 76.16 401.2 75.968C401.562 75.776 401.744 75.5093 401.744 75.168C401.744 74.8693 401.605 74.6347 401.328 74.464C401.072 74.2933 400.57 74.1227 399.824 73.952L397.2 73.344C395.536 73.0027 394.33 72.4693 393.584 71.744C392.858 70.9973 392.496 69.9733 392.496 68.672C392.496 67.6267 392.805 66.6987 393.424 65.888C394.042 65.0773 394.896 64.448 395.984 64C397.093 63.5307 398.362 63.296 399.792 63.296C400.986 63.296 402.149 63.4773 403.28 63.84C404.41 64.1813 405.456 64.6507 406.416 65.248L404.88 69.088C404.026 68.5333 403.152 68.1067 402.256 67.808C401.36 67.5093 400.517 67.36 399.728 67.36C399.109 67.36 398.608 67.4667 398.224 67.68C397.861 67.872 397.68 68.16 397.68 68.544C397.68 68.7787 397.786 68.9707 398 69.12C398.213 69.248 398.618 69.3867 399.216 69.536L401.936 70.144C403.664 70.528 404.901 71.1147 405.648 71.904C406.416 72.6933 406.8 73.76 406.8 75.104C406.8 76.704 406.16 77.9627 404.88 78.88C403.621 79.7973 401.872 80.256 399.632 80.256ZM64.448 118.336C63.6373 118.955 62.656 119.435 61.504 119.776C60.352 120.096 59.2 120.256 58.048 120.256C56.1707 120.256 54.5493 119.915 53.184 119.232C51.84 118.549 50.8053 117.579 50.08 116.32C49.3547 115.04 48.992 113.536 48.992 111.808C48.992 110.144 49.3333 108.672 50.016 107.392C50.72 106.112 51.68 105.109 52.896 104.384C54.112 103.659 55.52 103.296 57.12 103.296C58.6773 103.296 60.0213 103.637 61.152 104.32C62.304 105.003 63.1893 105.973 63.808 107.232C64.4267 108.491 64.736 109.973 64.736 111.68V112.448H54.112L54.176 109.76H61.248L59.84 110.688C59.84 109.536 59.616 108.683 59.168 108.128C58.7413 107.552 58.112 107.264 57.28 107.264C56.3627 107.264 55.6587 107.605 55.168 108.288C54.6987 108.949 54.464 109.963 54.464 111.328C54.464 113.013 54.7733 114.219 55.392 114.944C56.0107 115.648 56.992 116 58.336 116C59.1467 116 59.9573 115.872 60.768 115.616C61.6 115.339 62.336 114.965 62.976 114.496L64.448 118.336ZM67.4155 120V108.416C67.4155 107.648 67.3942 106.869 67.3515 106.08C67.3302 105.291 67.2662 104.512 67.1595 103.744H72.5995L72.9835 106.816L72.5995 106.656C73.1968 105.589 73.9755 104.768 74.9355 104.192C75.9168 103.595 77.0368 103.296 78.2955 103.296C82.1142 103.296 84.0235 105.632 84.0235 110.304V120H78.2315V110.56C78.2315 109.557 78.0608 108.843 77.7195 108.416C77.3782 107.968 76.8448 107.744 76.1195 107.744C75.2448 107.744 74.5408 108.043 74.0075 108.64C73.4742 109.216 73.2075 109.984 73.2075 110.944V120H67.4155ZM111.385 118.336C110.575 118.955 109.594 119.435 108.442 119.776C107.29 120.096 106.138 120.256 104.986 120.256C103.108 120.256 101.487 119.915 100.122 119.232C98.7775 118.549 97.7428 117.579 97.0175 116.32C96.2922 115.04 95.9295 113.536 95.9295 111.808C95.9295 110.144 96.2708 108.672 96.9535 107.392C97.6575 106.112 98.6175 105.109 99.8335 104.384C101.05 103.659 102.458 103.296 104.058 103.296C105.615 103.296 106.959 103.637 108.09 104.32C109.242 105.003 110.127 105.973 110.746 107.232C111.364 108.491 111.674 109.973 111.674 111.68V112.448H101.05L101.114 109.76H108.186L106.778 110.688C106.778 109.536 106.554 108.683 106.106 108.128C105.679 107.552 105.05 107.264 104.218 107.264C103.3 107.264 102.596 107.605 102.106 108.288C101.636 108.949 101.402 109.963 101.402 111.328C101.402 113.013 101.711 114.219 102.33 114.944C102.948 115.648 103.93 116 105.274 116C106.084 116 106.895 115.872 107.706 115.616C108.538 115.339 109.274 114.965 109.914 114.496L111.385 118.336ZM114.353 120V96.448H120.145V120H114.353ZM140.948 120.256C139.114 120.256 137.535 119.925 136.212 119.264C134.89 118.581 133.876 117.611 133.172 116.352C132.49 115.093 132.148 113.611 132.148 111.904C132.148 110.176 132.522 108.672 133.268 107.392C134.036 106.091 135.092 105.088 136.436 104.384C137.802 103.659 139.391 103.296 141.204 103.296C142.399 103.296 143.572 103.477 144.724 103.84C145.876 104.181 146.794 104.651 147.476 105.248L146.004 109.248C145.428 108.779 144.756 108.405 143.988 108.128C143.22 107.851 142.484 107.712 141.78 107.712C140.628 107.712 139.722 108.043 139.06 108.704C138.399 109.365 138.068 110.389 138.068 111.776C138.068 113.184 138.388 114.229 139.028 114.912C139.69 115.573 140.618 115.904 141.812 115.904C142.495 115.904 143.22 115.776 143.988 115.52C144.756 115.243 145.428 114.859 146.004 114.368L147.476 118.304C146.751 118.923 145.802 119.403 144.628 119.744C143.476 120.085 142.25 120.256 140.948 120.256ZM149.353 120V96.448H155.145V107.04L154.537 106.656C155.134 105.589 155.913 104.768 156.873 104.192C157.854 103.595 158.974 103.296 160.233 103.296C164.052 103.296 165.961 105.632 165.961 110.304V120H160.169V110.56C160.169 109.557 159.998 108.843 159.657 108.416C159.316 107.968 158.782 107.744 158.057 107.744C157.182 107.744 156.478 108.043 155.945 108.64C155.412 109.216 155.145 109.984 155.145 110.944V120H149.353ZM175.754 120.256C174.367 120.256 173.13 119.915 172.042 119.232C170.954 118.549 170.1 117.579 169.482 116.32C168.884 115.061 168.586 113.589 168.586 111.904C168.586 110.197 168.895 108.704 169.514 107.424C170.132 106.123 170.975 105.109 172.042 104.384C173.13 103.659 174.367 103.296 175.754 103.296C176.991 103.296 178.1 103.605 179.082 104.224C180.084 104.821 180.767 105.611 181.13 106.592L180.746 106.816V103.744H186.442V120H180.746V117.024H181.13C180.767 118.027 180.084 118.816 179.082 119.392C178.1 119.968 176.991 120.256 175.754 120.256ZM177.546 115.936C178.548 115.936 179.327 115.584 179.882 114.88C180.458 114.176 180.746 113.163 180.746 111.84C180.746 110.475 180.468 109.44 179.914 108.736C179.359 108.032 178.57 107.68 177.546 107.68C176.543 107.68 175.754 108.053 175.178 108.8C174.602 109.525 174.314 110.56 174.314 111.904C174.314 113.205 174.591 114.208 175.146 114.912C175.7 115.595 176.5 115.936 177.546 115.936ZM189.884 120V108.416C189.884 107.648 189.863 106.869 189.82 106.08C189.799 105.291 189.735 104.512 189.628 103.744H195.068L195.612 108.128L195.068 107.808C195.282 106.336 195.868 105.227 196.828 104.48C197.81 103.733 198.919 103.36 200.156 103.36C200.562 103.36 200.914 103.392 201.212 103.456C201.511 103.52 201.767 103.605 201.98 103.712V108.992C201.063 108.565 200.178 108.352 199.324 108.352C198.556 108.352 197.906 108.48 197.372 108.736C196.839 108.971 196.423 109.344 196.124 109.856C195.826 110.368 195.676 111.029 195.676 111.84V120H189.884ZM203.721 108V103.744H216.457V108H203.721ZM216.489 115.392V119.776C215.998 119.968 215.508 120.096 215.017 120.16C214.526 120.224 214.014 120.256 213.481 120.256C211.241 120.256 209.556 119.627 208.425 118.368C207.316 117.109 206.761 115.403 206.761 113.248V100.064L212.553 98.208V113.248C212.553 113.781 212.66 114.229 212.873 114.592C213.108 114.933 213.406 115.189 213.769 115.36C214.132 115.509 214.526 115.584 214.953 115.584C215.166 115.584 215.39 115.573 215.625 115.552C215.881 115.509 216.169 115.456 216.489 115.392ZM221.971 125.024L219.827 123.296C220.638 122.485 221.224 121.707 221.587 120.96C221.971 120.235 222.163 119.445 222.163 118.592L223.475 120H219.251V114.048H225.299V117.792C225.299 119.157 225.054 120.405 224.563 121.536C224.072 122.667 223.208 123.829 221.971 125.024ZM237.824 120V115.584L245.248 107.84C245.931 107.115 246.443 106.421 246.784 105.76C247.147 105.077 247.328 104.416 247.328 103.776C247.328 103.029 247.104 102.475 246.656 102.112C246.208 101.749 245.557 101.568 244.704 101.568C243.808 101.568 242.859 101.749 241.856 102.112C240.853 102.453 239.861 102.955 238.88 103.616L236.992 99.36C237.909 98.6133 239.093 98.0267 240.544 97.6C242.016 97.152 243.509 96.928 245.024 96.928C246.667 96.928 248.096 97.1947 249.312 97.728C250.549 98.24 251.499 98.9867 252.16 99.968C252.843 100.928 253.184 102.059 253.184 103.36C253.184 104.704 252.917 105.92 252.384 107.008C251.872 108.075 250.987 109.269 249.728 110.592L243.68 116.768L242.848 115.232H253.888V120H237.824ZM264.819 120.288C262.003 120.288 259.837 119.285 258.323 117.28C256.829 115.275 256.083 112.373 256.083 108.576C256.083 104.843 256.829 101.984 258.323 100C259.837 97.9947 262.003 96.992 264.819 96.992C267.635 96.992 269.789 97.9947 271.283 100C272.797 101.984 273.555 104.843 273.555 108.576C273.555 112.373 272.797 115.275 271.283 117.28C269.789 119.285 267.635 120.288 264.819 120.288ZM264.819 115.776C265.843 115.776 266.579 115.221 267.027 114.112C267.475 112.981 267.699 111.136 267.699 108.576C267.699 106.08 267.475 104.277 267.027 103.168C266.579 102.059 265.843 101.504 264.819 101.504C263.795 101.504 263.059 102.059 262.611 103.168C262.163 104.277 261.939 106.08 261.939 108.576C261.939 111.136 262.163 112.981 262.611 114.112C263.059 115.221 263.795 115.776 264.819 115.776ZM282.246 117.216V102.176H284.998L277.67 106.368V101.216L284.71 97.216H288.23V117.216H282.246ZM277.35 120V115.232H293.158V120H277.35ZM303.194 120.288C300.378 120.288 298.212 119.285 296.698 117.28C295.204 115.275 294.458 112.373 294.458 108.576C294.458 104.843 295.204 101.984 296.698 100C298.212 97.9947 300.378 96.992 303.194 96.992C306.01 96.992 308.164 97.9947 309.658 100C311.172 101.984 311.93 104.843 311.93 108.576C311.93 112.373 311.172 115.275 309.658 117.28C308.164 119.285 306.01 120.288 303.194 120.288ZM303.194 115.776C304.218 115.776 304.954 115.221 305.402 114.112C305.85 112.981 306.074 111.136 306.074 108.576C306.074 106.08 305.85 104.277 305.402 103.168C304.954 102.059 304.218 101.504 303.194 101.504C302.17 101.504 301.434 102.059 300.986 103.168C300.538 104.277 300.314 106.08 300.314 108.576C300.314 111.136 300.538 112.981 300.986 114.112C301.434 115.221 302.17 115.776 303.194 115.776ZM328.591 120L321.454 103.776H327.471L331.631 114.464H330.575L334.895 103.776H340.591L333.359 120H328.591ZM348.101 120.256C344.858 120.256 342.298 119.605 340.421 118.304L341.893 114.368C342.767 114.965 343.759 115.435 344.869 115.776C345.999 116.096 347.087 116.256 348.133 116.256C348.794 116.256 349.306 116.16 349.669 115.968C350.031 115.776 350.213 115.509 350.213 115.168C350.213 114.869 350.074 114.635 349.797 114.464C349.541 114.293 349.039 114.123 348.293 113.952L345.669 113.344C344.005 113.003 342.799 112.469 342.053 111.744C341.327 110.997 340.965 109.973 340.965 108.672C340.965 107.627 341.274 106.699 341.893 105.888C342.511 105.077 343.365 104.448 344.453 104C345.562 103.531 346.831 103.296 348.26 103.296C349.455 103.296 350.618 103.477 351.749 103.84C352.879 104.181 353.925 104.651 354.885 105.248L353.349 109.088C352.495 108.533 351.621 108.107 350.725 107.808C349.829 107.509 348.986 107.36 348.197 107.36C347.578 107.36 347.077 107.467 346.693 107.68C346.33 107.872 346.149 108.16 346.149 108.544C346.149 108.779 346.255 108.971 346.469 109.12C346.682 109.248 347.087 109.387 347.685 109.536L350.405 110.144C352.133 110.528 353.37 111.115 354.117 111.904C354.885 112.693 355.269 113.76 355.269 115.104C355.269 116.704 354.629 117.963 353.349 118.88C352.09 119.797 350.341 120.256 348.101 120.256ZM367.137 120V115.584L374.561 107.84C375.243 107.115 375.755 106.421 376.097 105.76C376.459 105.077 376.641 104.416 376.641 103.776C376.641 103.029 376.417 102.475 375.969 102.112C375.521 101.749 374.87 101.568 374.017 101.568C373.121 101.568 372.171 101.749 371.169 102.112C370.166 102.453 369.174 102.955 368.193 103.616L366.305 99.36C367.222 98.6133 368.406 98.0267 369.857 97.6C371.329 97.152 372.822 96.928 374.337 96.928C375.979 96.928 377.409 97.1947 378.625 97.728C379.862 98.24 380.811 98.9867 381.472 99.968C382.155 100.928 382.497 102.059 382.497 103.36C382.497 104.704 382.23 105.92 381.697 107.008C381.185 108.075 380.299 109.269 379.041 110.592L372.993 116.768L372.161 115.232H383.201V120H367.137ZM394.131 120.288C391.315 120.288 389.15 119.285 387.635 117.28C386.142 115.275 385.395 112.373 385.395 108.576C385.395 104.843 386.142 101.984 387.635 100C389.15 97.9947 391.315 96.992 394.131 96.992C396.947 96.992 399.102 97.9947 400.595 100C402.11 101.984 402.867 104.843 402.867 108.576C402.867 112.373 402.11 115.275 400.595 117.28C399.102 119.285 396.947 120.288 394.131 120.288ZM394.131 115.776C395.155 115.776 395.891 115.221 396.339 114.112C396.787 112.981 397.011 111.136 397.011 108.576C397.011 106.08 396.787 104.277 396.339 103.168C395.891 102.059 395.155 101.504 394.131 101.504C393.107 101.504 392.371 102.059 391.923 103.168C391.475 104.277 391.251 106.08 391.251 108.576C391.251 111.136 391.475 112.981 391.923 114.112C392.371 115.221 393.107 115.776 394.131 115.776ZM405.543 120V115.584L412.967 107.84C413.649 107.115 414.161 106.421 414.503 105.76C414.865 105.077 415.047 104.416 415.047 103.776C415.047 103.029 414.823 102.475 414.375 102.112C413.927 101.749 413.276 101.568 412.423 101.568C411.527 101.568 410.577 101.749 409.575 102.112C408.572 102.453 407.58 102.955 406.599 103.616L404.711 99.36C405.628 98.6133 406.812 98.0267 408.263 97.6C409.735 97.152 411.228 96.928 412.743 96.928C414.385 96.928 415.815 97.1947 417.031 97.728C418.268 98.24 419.217 98.9867 419.879 99.968C420.561 100.928 420.903 102.059 420.903 103.36C420.903 104.704 420.636 105.92 420.103 107.008C419.591 108.075 418.705 109.269 417.447 110.592L411.399 116.768L410.567 115.232H421.607V120H405.543ZM432.538 120.288C429.722 120.288 427.556 119.285 426.042 117.28C424.548 115.275 423.802 112.373 423.802 108.576C423.802 104.843 424.548 101.984 426.042 100C427.556 97.9947 429.722 96.992 432.538 96.992C435.354 96.992 437.508 97.9947 439.002 100C440.516 101.984 441.274 104.843 441.274 108.576C441.274 112.373 440.516 115.275 439.002 117.28C437.508 119.285 435.354 120.288 432.538 120.288ZM432.538 115.776C433.562 115.776 434.298 115.221 434.746 114.112C435.194 112.981 435.418 111.136 435.418 108.576C435.418 106.08 435.194 104.277 434.746 103.168C434.298 102.059 433.562 101.504 432.538 101.504C431.514 101.504 430.778 102.059 430.33 103.168C429.882 104.277 429.658 106.08 429.658 108.576C429.658 111.136 429.882 112.981 430.33 114.112C430.778 115.221 431.514 115.776 432.538 115.776Z" fill="#DEE2E8"/>
<path d="M98.8584 483H473" stroke="#C57AFF" stroke-opacity="0.15"/>
<path d="M98.8584 408H473" stroke="#C57AFF" stroke-opacity="0.15"/>
<path d="M98 559L472.142 559" stroke="#C57AFF" stroke-opacity="0.15"/>
<path d="M98.8584 331H473" stroke="#C57AFF" stroke-opacity="0.15"/>
<path d="M98.8584 257H473" stroke="#C57AFF" stroke-opacity="0.15"/>
<path d="M73.0949 567.144C71.6549 567.144 70.5629 566.592 69.8189 565.488C69.0749 564.372 68.7029 562.74 68.7029 560.592C68.7029 558.432 69.0689 556.8 69.8009 555.696C70.5449 554.592 71.6429 554.04 73.0949 554.04C74.5469 554.04 75.6389 554.592 76.3709 555.696C77.1149 556.8 77.4869 558.426 77.4869 560.574C77.4869 562.722 77.1149 564.354 76.3709 565.47C75.6269 566.586 74.5349 567.144 73.0949 567.144ZM73.0949 566.154C74.1989 566.154 75.0149 565.704 75.5429 564.804C76.0829 563.892 76.3529 562.482 76.3529 560.574C76.3529 558.666 76.0889 557.268 75.5609 556.38C75.0329 555.48 74.2109 555.03 73.0949 555.03C71.9909 555.03 71.1689 555.48 70.6289 556.38C70.1009 557.28 69.8369 558.678 69.8369 560.574C69.8369 562.47 70.1009 563.874 70.6289 564.786C71.1689 565.698 71.9909 566.154 73.0949 566.154Z" fill="#DEE2E8"/>
<path d="M56.0559 491V490.154L60.6099 485.078C61.2459 484.346 61.7079 483.698 61.9959 483.134C62.2959 482.558 62.4459 481.976 62.4459 481.388C62.4459 480.632 62.2239 480.05 61.7799 479.642C61.3479 479.222 60.7239 479.012 59.9079 479.012C59.2599 479.012 58.6299 479.144 58.0179 479.408C57.4179 479.66 56.8179 480.044 56.2179 480.56L55.7499 479.678C56.2539 479.186 56.8839 478.79 57.6399 478.49C58.3959 478.19 59.1519 478.04 59.9079 478.04C60.6639 478.04 61.3119 478.172 61.8519 478.436C62.4039 478.7 62.8299 479.084 63.1299 479.588C63.4299 480.08 63.5799 480.668 63.5799 481.352C63.5799 482.084 63.4059 482.798 63.0579 483.494C62.7219 484.178 62.1699 484.952 61.4019 485.816L56.8839 490.748L56.8659 490.046H64.1379V491H56.0559ZM73.0948 491.144C71.6548 491.144 70.5628 490.592 69.8188 489.488C69.0748 488.372 68.7028 486.74 68.7028 484.592C68.7028 482.432 69.0688 480.8 69.8008 479.696C70.5448 478.592 71.6428 478.04 73.0948 478.04C74.5468 478.04 75.6388 478.592 76.3708 479.696C77.1148 480.8 77.4868 482.426 77.4868 484.574C77.4868 486.722 77.1148 488.354 76.3708 489.47C75.6268 490.586 74.5348 491.144 73.0948 491.144ZM73.0948 490.154C74.1988 490.154 75.0148 489.704 75.5428 488.804C76.0828 487.892 76.3528 486.482 76.3528 484.574C76.3528 482.666 76.0888 481.268 75.5608 480.38C75.0328 479.48 74.2108 479.03 73.0948 479.03C71.9908 479.03 71.1688 479.48 70.6288 480.38C70.1008 481.28 69.8368 482.678 69.8368 484.574C69.8368 486.47 70.1008 487.874 70.6288 488.786C71.1688 489.698 71.9908 490.154 73.0948 490.154Z" fill="#DEE2E8"/>
<path d="M61.4919 416V404.57H61.9059L56.1639 412.868L56.1819 412.13H64.5879V413.084H55.4439V412.238L61.6899 403.184H62.6079V416H61.4919ZM73.0948 416.144C71.6548 416.144 70.5628 415.592 69.8188 414.488C69.0748 413.372 68.7028 411.74 68.7028 409.592C68.7028 407.432 69.0688 405.8 69.8008 404.696C70.5448 403.592 71.6428 403.04 73.0948 403.04C74.5468 403.04 75.6388 403.592 76.3708 404.696C77.1148 405.8 77.4868 407.426 77.4868 409.574C77.4868 411.722 77.1148 413.354 76.3708 414.47C75.6268 415.586 74.5348 416.144 73.0948 416.144ZM73.0948 415.154C74.1988 415.154 75.0148 414.704 75.5428 413.804C76.0828 412.892 76.3528 411.482 76.3528 409.574C76.3528 407.666 76.0888 406.268 75.5608 405.38C75.0328 404.48 74.2108 404.03 73.0948 404.03C71.9908 404.03 71.1688 404.48 70.6288 405.38C70.1008 406.28 69.8368 407.678 69.8368 409.574C69.8368 411.47 70.1008 412.874 70.6288 413.786C71.1688 414.698 71.9908 415.154 73.0948 415.154Z" fill="#DEE2E8"/>
<path d="M60.2679 338.144C58.7559 338.144 57.5859 337.61 56.7579 336.542C55.9419 335.474 55.5339 333.944 55.5339 331.952C55.5339 330.488 55.7259 329.24 56.1099 328.208C56.4939 327.176 57.0459 326.39 57.7659 325.85C58.4859 325.31 59.3439 325.04 60.3399 325.04C61.0719 325.04 61.7799 325.184 62.4639 325.472C63.1479 325.748 63.7599 326.15 64.2999 326.678L63.8499 327.56C63.2379 327.02 62.6499 326.63 62.0859 326.39C61.5219 326.138 60.9459 326.012 60.3579 326.012C59.1939 326.012 58.2819 326.534 57.6219 327.578C56.9739 328.61 56.6499 330.068 56.6499 331.952V333.752L56.4519 333.248C56.5479 332.6 56.7699 332.036 57.1179 331.556C57.4779 331.064 57.9279 330.692 58.4679 330.44C59.0199 330.176 59.6319 330.044 60.3039 330.044C61.1079 330.044 61.8099 330.212 62.4099 330.548C63.0099 330.884 63.4779 331.358 63.8139 331.97C64.1499 332.57 64.3179 333.272 64.3179 334.076C64.3179 334.856 64.1439 335.558 63.7959 336.182C63.4599 336.794 62.9859 337.274 62.3739 337.622C61.7619 337.97 61.0599 338.144 60.2679 338.144ZM60.2319 337.172C61.1199 337.172 61.8339 336.89 62.3739 336.326C62.9259 335.762 63.2019 335.012 63.2019 334.076C63.2019 333.152 62.9259 332.414 62.3739 331.862C61.8219 331.298 61.0959 331.016 60.1959 331.016C59.5959 331.016 59.0619 331.148 58.5939 331.412C58.1259 331.664 57.7599 332.024 57.4959 332.492C57.2319 332.948 57.0999 333.476 57.0999 334.076C57.0999 334.7 57.2319 335.246 57.4959 335.714C57.7599 336.17 58.1259 336.53 58.5939 336.794C59.0619 337.046 59.6079 337.172 60.2319 337.172ZM73.0948 338.144C71.6548 338.144 70.5628 337.592 69.8188 336.488C69.0748 335.372 68.7028 333.74 68.7028 331.592C68.7028 329.432 69.0688 327.8 69.8008 326.696C70.5448 325.592 71.6428 325.04 73.0948 325.04C74.5468 325.04 75.6388 325.592 76.3708 326.696C77.1148 327.8 77.4868 329.426 77.4868 331.574C77.4868 333.722 77.1148 335.354 76.3708 336.47C75.6268 337.586 74.5348 338.144 73.0948 338.144ZM73.0948 337.154C74.1988 337.154 75.0148 336.704 75.5428 335.804C76.0828 334.892 76.3528 333.482 76.3528 331.574C76.3528 329.666 76.0888 328.268 75.5608 327.38C75.0328 326.48 74.2108 326.03 73.0948 326.03C71.9908 326.03 71.1688 326.48 70.6288 327.38C70.1008 328.28 69.8368 329.678 69.8368 331.574C69.8368 333.47 70.1008 334.874 70.6288 335.786C71.1688 336.698 71.9908 337.154 73.0948 337.154Z" fill="#DEE2E8"/>
<path d="M59.8719 264.126C58.9479 264.126 58.1499 263.988 57.4779 263.712C56.8059 263.424 56.2839 263.022 55.9119 262.506C55.5519 261.978 55.3719 261.354 55.3719 260.634C55.3719 259.746 55.6719 259.008 56.2719 258.42C56.8839 257.82 57.6939 257.448 58.7019 257.304L58.5939 257.556C57.6459 257.376 56.9199 257.01 56.4159 256.458C55.9119 255.894 55.6599 255.216 55.6599 254.424C55.6599 253.74 55.8339 253.146 56.1819 252.642C56.5419 252.138 57.0339 251.748 57.6579 251.472C58.2939 251.184 59.0319 251.04 59.8719 251.04C60.7119 251.04 61.4439 251.184 62.0679 251.472C62.7039 251.748 63.1959 252.138 63.5439 252.642C63.9039 253.146 64.0839 253.74 64.0839 254.424C64.0839 255.216 63.8319 255.894 63.3279 256.458C62.8239 257.01 62.1039 257.376 61.1679 257.556L61.0419 257.304C62.0979 257.436 62.9139 257.802 63.4899 258.402C64.0779 259.002 64.3719 259.746 64.3719 260.634C64.3719 261.354 64.1859 261.978 63.8139 262.506C63.4539 263.022 62.9379 263.424 62.2659 263.712C61.5939 263.988 60.7959 264.126 59.8719 264.126ZM59.8719 263.154C60.9639 263.154 61.7979 262.938 62.3739 262.506C62.9499 262.062 63.2379 261.42 63.2379 260.58C63.2379 259.788 62.9199 259.17 62.2839 258.726C61.6599 258.282 60.8559 258.012 59.8719 257.916C58.8879 258.012 58.0779 258.282 57.4419 258.726C56.8179 259.17 56.5059 259.788 56.5059 260.58C56.5059 261.42 56.7939 262.062 57.3699 262.506C57.9459 262.938 58.7799 263.154 59.8719 263.154ZM59.8719 257.088C60.7959 257.004 61.5399 256.734 62.1039 256.278C62.6679 255.822 62.9499 255.222 62.9499 254.478C62.9499 253.71 62.6799 253.11 62.1399 252.678C61.5999 252.234 60.8439 252.012 59.8719 252.012C58.8999 252.012 58.1439 252.234 57.6039 252.678C57.0639 253.11 56.7939 253.71 56.7939 254.478C56.7939 255.222 57.0759 255.822 57.6399 256.278C58.2039 256.734 58.9479 257.004 59.8719 257.088ZM73.0948 264.144C71.6548 264.144 70.5628 263.592 69.8188 262.488C69.0748 261.372 68.7028 259.74 68.7028 257.592C68.7028 255.432 69.0688 253.8 69.8008 252.696C70.5448 251.592 71.6428 251.04 73.0948 251.04C74.5468 251.04 75.6388 251.592 76.3708 252.696C77.1148 253.8 77.4868 255.426 77.4868 257.574C77.4868 259.722 77.1148 261.354 76.3708 262.47C75.6268 263.586 74.5348 264.144 73.0948 264.144ZM73.0948 263.154C74.1988 263.154 75.0148 262.704 75.5428 261.804C76.0828 260.892 76.3528 259.482 76.3528 257.574C76.3528 255.666 76.0888 254.268 75.5608 253.38C75.0328 252.48 74.2108 252.03 73.0948 252.03C71.9908 252.03 71.1688 252.48 70.6288 253.38C70.1008 254.28 69.8368 255.678 69.8368 257.574C69.8368 259.47 70.1008 260.874 70.6288 261.786C71.1688 262.698 71.9908 263.154 73.0948 263.154Z" fill="#DEE2E8"/>
<path d="M183.346 223.192C182.05 223.192 180.89 223 179.866 222.616C178.858 222.216 178.058 221.656 177.466 220.936C176.89 220.2 176.602 219.32 176.602 218.296C176.602 217.096 176.986 216.128 177.754 215.392C178.538 214.64 179.61 214.184 180.97 214.024L180.946 214.408C179.778 214.184 178.834 213.712 178.114 212.992C177.394 212.272 177.034 211.392 177.034 210.352C177.034 209.392 177.314 208.568 177.874 207.88C178.434 207.176 179.186 206.64 180.13 206.272C181.09 205.888 182.162 205.696 183.346 205.696C184.53 205.696 185.594 205.888 186.538 206.272C187.498 206.64 188.258 207.176 188.818 207.88C189.378 208.568 189.658 209.392 189.658 210.352C189.658 211.424 189.29 212.32 188.554 213.04C187.834 213.76 186.914 214.208 185.794 214.384L185.77 214.024C187.098 214.216 188.146 214.688 188.914 215.44C189.698 216.176 190.09 217.128 190.09 218.296C190.09 219.32 189.794 220.2 189.202 220.936C188.626 221.656 187.826 222.216 186.802 222.616C185.794 223 184.642 223.192 183.346 223.192ZM183.346 219.808C184.082 219.808 184.698 219.656 185.194 219.352C185.69 219.032 185.938 218.56 185.938 217.936C185.938 217.328 185.698 216.848 185.218 216.496C184.738 216.128 184.114 215.872 183.346 215.728C182.578 215.872 181.954 216.128 181.474 216.496C180.994 216.848 180.754 217.328 180.754 217.936C180.754 218.56 181.002 219.032 181.498 219.352C181.994 219.656 182.61 219.808 183.346 219.808ZM183.346 212.992C183.938 212.848 184.434 212.616 184.834 212.296C185.25 211.96 185.458 211.488 185.458 210.88C185.458 210.24 185.25 209.784 184.834 209.512C184.434 209.224 183.938 209.08 183.346 209.08C182.754 209.08 182.25 209.224 181.834 209.512C181.434 209.784 181.234 210.24 181.234 210.88C181.234 211.488 181.434 211.96 181.834 212.296C182.25 212.616 182.754 212.848 183.346 212.992ZM197.232 223.192C196.032 223.192 194.872 223.032 193.752 222.712C192.632 222.376 191.728 221.928 191.04 221.368L192.456 218.176C193.192 218.688 193.944 219.072 194.712 219.328C195.48 219.584 196.248 219.712 197.016 219.712C197.976 219.712 198.656 219.576 199.056 219.304C199.456 219.016 199.656 218.536 199.656 217.864C199.656 217.224 199.456 216.768 199.056 216.496C198.672 216.224 198.024 216.088 197.112 216.088H194.448V212.632H196.656C197.552 212.632 198.192 212.512 198.576 212.272C198.976 212.032 199.176 211.624 199.176 211.048C199.176 210.44 198.984 209.976 198.6 209.656C198.232 209.336 197.712 209.176 197.04 209.176C196.352 209.176 195.624 209.312 194.856 209.584C194.104 209.84 193.384 210.216 192.696 210.712L191.28 207.52C191.968 206.96 192.864 206.52 193.968 206.2C195.088 205.864 196.216 205.696 197.352 205.696C198.584 205.696 199.648 205.888 200.544 206.272C201.456 206.656 202.16 207.2 202.656 207.904C203.168 208.608 203.424 209.44 203.424 210.4C203.424 211.36 203.168 212.184 202.656 212.872C202.144 213.544 201.408 214.024 200.448 214.312L200.496 214.12C201.568 214.376 202.4 214.872 202.992 215.608C203.584 216.328 203.88 217.24 203.88 218.344C203.88 219.848 203.28 221.032 202.08 221.896C200.88 222.76 199.264 223.192 197.232 223.192Z" fill="#DEE2E8"/>
<path d="M238.536 245H142.536V559H238.536V245Z" fill="url(#paint1_linear_231_3353)"/>
<path d="M166.889 593V592.154L171.443 587.078C172.079 586.346 172.541 585.698 172.829 585.134C173.129 584.558 173.279 583.976 173.279 583.388C173.279 582.632 173.057 582.05 172.613 581.642C172.181 581.222 171.557 581.012 170.741 581.012C170.093 581.012 169.463 581.144 168.851 581.408C168.251 581.66 167.651 582.044 167.051 582.56L166.583 581.678C167.087 581.186 167.717 580.79 168.473 580.49C169.229 580.19 169.985 580.04 170.741 580.04C171.497 580.04 172.145 580.172 172.685 580.436C173.237 580.7 173.663 581.084 173.963 581.588C174.263 582.08 174.413 582.668 174.413 583.352C174.413 584.084 174.239 584.798 173.891 585.494C173.555 586.178 173.003 586.952 172.235 587.816L167.717 592.748L167.699 592.046H174.971V593H166.889ZM183.928 593.144C182.488 593.144 181.396 592.592 180.652 591.488C179.908 590.372 179.536 588.74 179.536 586.592C179.536 584.432 179.902 582.8 180.634 581.696C181.378 580.592 182.476 580.04 183.928 580.04C185.38 580.04 186.472 580.592 187.204 581.696C187.948 582.8 188.32 584.426 188.32 586.574C188.32 588.722 187.948 590.354 187.204 591.47C186.46 592.586 185.368 593.144 183.928 593.144ZM183.928 592.154C185.032 592.154 185.848 591.704 186.376 590.804C186.916 589.892 187.186 588.482 187.186 586.574C187.186 584.666 186.922 583.268 186.394 582.38C185.866 581.48 185.044 581.03 183.928 581.03C182.824 581.03 182.002 581.48 181.462 582.38C180.934 583.28 180.67 584.678 180.67 586.574C180.67 588.47 180.934 589.874 181.462 590.786C182.002 591.698 182.824 592.154 183.928 592.154ZM197.025 592.514V580.652L197.745 581.192L194.379 583.37V582.236L197.511 580.184H198.141V592.514H197.025ZM194.181 593V592.046H200.985V593H194.181ZM210.374 593.144C208.934 593.144 207.842 592.592 207.098 591.488C206.354 590.372 205.982 588.74 205.982 586.592C205.982 584.432 206.348 582.8 207.08 581.696C207.824 580.592 208.922 580.04 210.374 580.04C211.826 580.04 212.918 580.592 213.65 581.696C214.394 582.8 214.766 584.426 214.766 586.574C214.766 588.722 214.394 590.354 213.65 591.47C212.906 592.586 211.814 593.144 210.374 593.144ZM210.374 592.154C211.478 592.154 212.294 591.704 212.822 590.804C213.362 589.892 213.632 588.482 213.632 586.574C213.632 584.666 213.368 583.268 212.84 582.38C212.312 581.48 211.49 581.03 210.374 581.03C209.27 581.03 208.448 581.48 207.908 582.38C207.38 583.28 207.116 584.678 207.116 586.574C207.116 588.47 207.38 589.874 207.908 590.786C208.448 591.698 209.27 592.154 210.374 592.154Z" fill="#DEE2E8"/>
<path d="M353.746 180.696C356.034 180.696 357.794 181.44 359.026 182.928C360.274 184.4 360.898 186.52 360.898 189.288C360.898 191.144 360.594 192.744 359.986 194.088C359.394 195.416 358.538 196.44 357.418 197.16C356.314 197.864 354.994 198.216 353.458 198.216C352.386 198.216 351.338 198.064 350.314 197.76C349.306 197.44 348.45 196.984 347.746 196.392L349.162 193.2C349.946 193.76 350.682 194.16 351.37 194.4C352.074 194.624 352.698 194.736 353.242 194.736C354.314 194.736 355.114 194.288 355.642 193.392C356.186 192.496 356.458 191.16 356.458 189.384V189.048L356.866 189.6C356.706 190.112 356.426 190.56 356.026 190.944C355.642 191.328 355.178 191.632 354.634 191.856C354.09 192.064 353.498 192.168 352.858 192.168C351.882 192.168 351.01 191.928 350.242 191.448C349.474 190.968 348.866 190.312 348.418 189.48C347.97 188.632 347.746 187.672 347.746 186.6C347.746 185.448 348.002 184.432 348.514 183.552C349.042 182.656 349.754 181.96 350.65 181.464C351.546 180.952 352.578 180.696 353.746 180.696ZM354.01 184.152C353.37 184.152 352.866 184.36 352.498 184.776C352.146 185.192 351.97 185.736 351.97 186.408C351.97 187.112 352.146 187.672 352.498 188.088C352.866 188.488 353.37 188.688 354.01 188.688C354.41 188.688 354.762 188.6 355.066 188.424C355.386 188.232 355.626 187.968 355.786 187.632C355.962 187.28 356.05 186.872 356.05 186.408C356.05 185.96 355.962 185.568 355.786 185.232C355.626 184.896 355.386 184.632 355.066 184.44C354.762 184.248 354.41 184.152 354.01 184.152ZM368.736 198.216C366.624 198.216 365 197.464 363.864 195.96C362.744 194.456 362.184 192.28 362.184 189.432C362.184 186.632 362.744 184.488 363.864 183C365 181.496 366.624 180.744 368.736 180.744C370.848 180.744 372.464 181.496 373.584 183C374.72 184.488 375.288 186.632 375.288 189.432C375.288 192.28 374.72 194.456 373.584 195.96C372.464 197.464 370.848 198.216 368.736 198.216ZM368.736 194.832C369.504 194.832 370.056 194.416 370.392 193.584C370.728 192.736 370.896 191.352 370.896 189.432C370.896 187.56 370.728 186.208 370.392 185.376C370.056 184.544 369.504 184.128 368.736 184.128C367.968 184.128 367.416 184.544 367.08 185.376C366.744 186.208 366.576 187.56 366.576 189.432C366.576 191.352 366.744 192.736 367.08 193.584C367.416 194.416 367.968 194.832 368.736 194.832Z" fill="#DEE2E8"/>
<path d="M409.536 220H313.536V559.104H409.536V220Z" fill="url(#paint2_linear_231_3353)"/>
<path d="M337.889 593.104V592.258L342.443 587.182C343.079 586.45 343.541 585.802 343.829 585.238C344.129 584.662 344.279 584.08 344.279 583.492C344.279 582.736 344.057 582.154 343.613 581.746C343.181 581.326 342.557 581.116 341.741 581.116C341.093 581.116 340.463 581.248 339.851 581.512C339.251 581.764 338.651 582.148 338.051 582.664L337.583 581.782C338.087 581.29 338.717 580.894 339.473 580.594C340.229 580.294 340.985 580.144 341.741 580.144C342.497 580.144 343.145 580.276 343.685 580.54C344.237 580.804 344.663 581.188 344.963 581.692C345.263 582.184 345.413 582.772 345.413 583.456C345.413 584.188 345.239 584.902 344.891 585.598C344.555 586.282 344.003 587.056 343.235 587.92L338.717 592.852L338.699 592.15H345.971V593.104H337.889ZM354.928 593.248C353.488 593.248 352.396 592.696 351.652 591.592C350.908 590.476 350.536 588.844 350.536 586.696C350.536 584.536 350.902 582.904 351.634 581.8C352.378 580.696 353.476 580.144 354.928 580.144C356.38 580.144 357.472 580.696 358.204 581.8C358.948 582.904 359.32 584.53 359.32 586.678C359.32 588.826 358.948 590.458 358.204 591.574C357.46 592.69 356.368 593.248 354.928 593.248ZM354.928 592.258C356.032 592.258 356.848 591.808 357.376 590.908C357.916 589.996 358.186 588.586 358.186 586.678C358.186 584.77 357.922 583.372 357.394 582.484C356.866 581.584 356.044 581.134 354.928 581.134C353.824 581.134 353.002 581.584 352.462 582.484C351.934 583.384 351.67 584.782 351.67 586.678C351.67 588.574 351.934 589.978 352.462 590.89C353.002 591.802 353.824 592.258 354.928 592.258ZM364.335 593.104V592.258L368.889 587.182C369.525 586.45 369.987 585.802 370.275 585.238C370.575 584.662 370.725 584.08 370.725 583.492C370.725 582.736 370.503 582.154 370.059 581.746C369.627 581.326 369.003 581.116 368.187 581.116C367.539 581.116 366.909 581.248 366.297 581.512C365.697 581.764 365.097 582.148 364.497 582.664L364.029 581.782C364.533 581.29 365.163 580.894 365.919 580.594C366.675 580.294 367.431 580.144 368.187 580.144C368.943 580.144 369.591 580.276 370.131 580.54C370.683 580.804 371.109 581.188 371.409 581.692C371.709 582.184 371.859 582.772 371.859 583.456C371.859 584.188 371.685 584.902 371.337 585.598C371.001 586.282 370.449 587.056 369.681 587.92L365.163 592.852L365.145 592.15H372.417V593.104H364.335ZM381.374 593.248C379.934 593.248 378.842 592.696 378.098 591.592C377.354 590.476 376.982 588.844 376.982 586.696C376.982 584.536 377.348 582.904 378.08 581.8C378.824 580.696 379.922 580.144 381.374 580.144C382.826 580.144 383.918 580.696 384.65 581.8C385.394 582.904 385.766 584.53 385.766 586.678C385.766 588.826 385.394 590.458 384.65 591.574C383.906 592.69 382.814 593.248 381.374 593.248ZM381.374 592.258C382.478 592.258 383.294 591.808 383.822 590.908C384.362 589.996 384.632 588.586 384.632 586.678C384.632 584.77 384.368 583.372 383.84 582.484C383.312 581.584 382.49 581.134 381.374 581.134C380.27 581.134 379.448 581.584 378.908 582.484C378.38 583.384 378.116 584.782 378.116 586.678C378.116 588.574 378.38 589.978 378.908 590.89C379.448 591.802 380.27 592.258 381.374 592.258Z" fill="#DEE2E8"/>
<rect x="544.539" width="523.461" height="645" rx="5" fill="#1A283D"/>
<rect x="544.539" width="523.461" height="645" rx="5" fill="url(#paint3_linear_231_3353)" fill-opacity="0.2"/>
<path d="M605.659 80.288C603.27 80.288 601.2 79.808 599.451 78.848C597.702 77.8667 596.347 76.5013 595.387 74.752C594.448 72.9813 593.979 70.9227 593.979 68.576C593.979 66.2507 594.448 64.2133 595.387 62.464C596.347 60.7147 597.702 59.36 599.451 58.4C601.2 57.4187 603.27 56.928 605.659 56.928C607.152 56.928 608.592 57.152 609.979 57.6C611.387 58.048 612.518 58.656 613.371 59.424L611.547 63.68C610.566 62.976 609.606 62.464 608.667 62.144C607.728 61.824 606.768 61.664 605.787 61.664C603.974 61.664 602.566 62.24 601.563 63.392C600.582 64.544 600.091 66.272 600.091 68.576C600.091 70.88 600.582 72.6187 601.563 73.792C602.566 74.9653 603.974 75.552 605.787 75.552C606.768 75.552 607.728 75.392 608.667 75.072C609.606 74.752 610.566 74.24 611.547 73.536L613.371 77.792C612.518 78.56 611.387 79.168 609.979 79.616C608.592 80.064 607.152 80.288 605.659 80.288ZM622.293 80.256C620.906 80.256 619.669 79.9147 618.581 79.232C617.493 78.5493 616.639 77.5787 616.021 76.32C615.423 75.0613 615.125 73.5893 615.125 71.904C615.125 70.1973 615.434 68.704 616.053 67.424C616.671 66.1227 617.514 65.1093 618.581 64.384C619.669 63.6587 620.906 63.296 622.293 63.296C623.53 63.296 624.639 63.6053 625.621 64.224C626.623 64.8213 627.306 65.6107 627.669 66.592L627.285 66.816V63.744H632.981V80H627.285V77.024H627.669C627.306 78.0267 626.623 78.816 625.621 79.392C624.639 79.968 623.53 80.256 622.293 80.256ZM624.085 75.936C625.087 75.936 625.866 75.584 626.421 74.88C626.997 74.176 627.285 73.1627 627.285 71.84C627.285 70.4747 627.007 69.44 626.453 68.736C625.898 68.032 625.109 67.68 624.085 67.68C623.082 67.68 622.293 68.0533 621.717 68.8C621.141 69.5253 620.853 70.56 620.853 71.904C620.853 73.2053 621.13 74.208 621.685 74.912C622.239 75.5947 623.039 75.936 624.085 75.936ZM636.423 80V68.416C636.423 67.648 636.402 66.8693 636.359 66.08C636.338 65.2907 636.274 64.512 636.167 63.744H641.607L641.991 66.816L641.607 66.656C642.205 65.5893 642.983 64.768 643.943 64.192C644.925 63.5947 646.045 63.296 647.303 63.296C651.122 63.296 653.031 65.632 653.031 70.304V80H647.239V70.56C647.239 69.5573 647.069 68.8427 646.727 68.416C646.386 67.968 645.853 67.744 645.127 67.744C644.253 67.744 643.549 68.0427 643.015 68.64C642.482 69.216 642.215 69.984 642.215 70.944V80H636.423ZM654.76 68V63.744H667.496V68H654.76ZM667.528 75.392V79.776C667.037 79.968 666.547 80.096 666.056 80.16C665.565 80.224 665.053 80.256 664.52 80.256C662.28 80.256 660.595 79.6267 659.464 78.368C658.355 77.1093 657.8 75.4027 657.8 73.248V60.064L663.592 58.208V73.248C663.592 73.7813 663.699 74.2293 663.912 74.592C664.147 74.9333 664.445 75.1893 664.808 75.36C665.171 75.5093 665.565 75.584 665.992 75.584C666.205 75.584 666.429 75.5733 666.664 75.552C666.92 75.5093 667.208 75.456 667.528 75.392ZM669.705 80V63.744H675.497V80H669.705ZM669.545 55.776H675.593V60.992H669.545V55.776ZM696.075 80H690.379V76.192L690.763 77.024C690.4 78.0267 689.717 78.816 688.715 79.392C687.733 79.968 686.624 80.256 685.387 80.256C684 80.256 682.763 79.904 681.675 79.2C680.608 78.4747 679.765 77.472 679.147 76.192C678.528 74.912 678.219 73.4187 678.219 71.712C678.219 70.0267 678.517 68.5547 679.115 67.296C679.733 66.016 680.587 65.0347 681.675 64.352C682.763 63.648 684 63.296 685.387 63.296C686.624 63.296 687.733 63.6053 688.715 64.224C689.717 64.8213 690.4 65.6 690.763 66.56L690.283 67.264V56.448H696.075V80ZM687.179 75.936C688.203 75.936 688.992 75.584 689.547 74.88C690.101 74.176 690.379 73.1413 690.379 71.776C690.379 70.4747 690.091 69.472 689.515 68.768C688.96 68.0427 688.181 67.68 687.179 67.68C686.133 67.68 685.333 68.032 684.779 68.736C684.224 69.4187 683.947 70.4107 683.947 71.712C683.947 73.0773 684.235 74.1227 684.811 74.848C685.387 75.5733 686.176 75.936 687.179 75.936ZM705.949 80.256C704.562 80.256 703.325 79.9147 702.237 79.232C701.149 78.5493 700.296 77.5787 699.677 76.32C699.08 75.0613 698.781 73.5893 698.781 71.904C698.781 70.1973 699.09 68.704 699.709 67.424C700.328 66.1227 701.17 65.1093 702.237 64.384C703.325 63.6587 704.562 63.296 705.949 63.296C707.186 63.296 708.296 63.6053 709.277 64.224C710.28 64.8213 710.962 65.6107 711.325 66.592L710.941 66.816V63.744H716.637V80H710.941V77.024H711.325C710.962 78.0267 710.28 78.816 709.277 79.392C708.296 79.968 707.186 80.256 705.949 80.256ZM707.741 75.936C708.744 75.936 709.522 75.584 710.077 74.88C710.653 74.176 710.941 73.1627 710.941 71.84C710.941 70.4747 710.664 69.44 710.109 68.736C709.554 68.032 708.765 67.68 707.741 67.68C706.738 67.68 705.949 68.0533 705.373 68.8C704.797 69.5253 704.509 70.56 704.509 71.904C704.509 73.2053 704.786 74.208 705.341 74.912C705.896 75.5947 706.696 75.936 707.741 75.936ZM737.2 80H731.504V76.192L731.888 77.024C731.525 78.0267 730.842 78.816 729.84 79.392C728.858 79.968 727.749 80.256 726.512 80.256C725.125 80.256 723.888 79.904 722.8 79.2C721.733 78.4747 720.89 77.472 720.272 76.192C719.653 74.912 719.344 73.4187 719.344 71.712C719.344 70.0267 719.642 68.5547 720.24 67.296C720.858 66.016 721.712 65.0347 722.8 64.352C723.888 63.648 725.125 63.296 726.512 63.296C727.749 63.296 728.858 63.6053 729.84 64.224C730.842 64.8213 731.525 65.6 731.888 66.56L731.408 67.264V56.448H737.2V80ZM728.304 75.936C729.328 75.936 730.117 75.584 730.672 74.88C731.226 74.176 731.504 73.1413 731.504 71.776C731.504 70.4747 731.216 69.472 730.64 68.768C730.085 68.0427 729.306 67.68 728.304 67.68C727.258 67.68 726.458 68.032 725.904 68.736C725.349 69.4187 725.072 70.4107 725.072 71.712C725.072 73.0773 725.36 74.1227 725.936 74.848C726.512 75.5733 727.301 75.936 728.304 75.936ZM767.043 80H761.347V76.192L761.731 77.024C761.369 78.0267 760.686 78.816 759.683 79.392C758.702 79.968 757.593 80.256 756.355 80.256C754.969 80.256 753.731 79.904 752.643 79.2C751.577 78.4747 750.734 77.472 750.115 76.192C749.497 74.912 749.187 73.4187 749.187 71.712C749.187 70.0267 749.486 68.5547 750.083 67.296C750.702 66.016 751.555 65.0347 752.643 64.352C753.731 63.648 754.969 63.296 756.355 63.296C757.593 63.296 758.702 63.6053 759.683 64.224C760.686 64.8213 761.369 65.6 761.731 66.56L761.251 67.264V56.448H767.043V80ZM758.147 75.936C759.171 75.936 759.961 75.584 760.515 74.88C761.07 74.176 761.347 73.1413 761.347 71.776C761.347 70.4747 761.059 69.472 760.483 68.768C759.929 68.0427 759.15 67.68 758.147 67.68C757.102 67.68 756.302 68.032 755.747 68.736C755.193 69.4187 754.915 70.4107 754.915 71.712C754.915 73.0773 755.203 74.1227 755.779 74.848C756.355 75.5733 757.145 75.936 758.147 75.936ZM785.206 78.336C784.395 78.9547 783.414 79.4347 782.262 79.776C781.11 80.096 779.958 80.256 778.806 80.256C776.928 80.256 775.307 79.9147 773.942 79.232C772.598 78.5493 771.563 77.5787 770.838 76.32C770.112 75.04 769.75 73.536 769.75 71.808C769.75 70.144 770.091 68.672 770.774 67.392C771.478 66.112 772.438 65.1093 773.654 64.384C774.87 63.6587 776.278 63.296 777.878 63.296C779.435 63.296 780.779 63.6373 781.91 64.32C783.062 65.0027 783.947 65.9733 784.566 67.232C785.184 68.4907 785.494 69.9733 785.494 71.68V72.448H774.87L774.934 69.76H782.006L780.598 70.688C780.598 69.536 780.374 68.6827 779.926 68.128C779.499 67.552 778.87 67.264 778.038 67.264C777.12 67.264 776.416 67.6053 775.926 68.288C775.456 68.9493 775.222 69.9627 775.222 71.328C775.222 73.0133 775.531 74.2187 776.15 74.944C776.768 75.648 777.75 76 779.094 76C779.904 76 780.715 75.872 781.526 75.616C782.358 75.3387 783.094 74.9653 783.734 74.496L785.206 78.336ZM803.887 80.256C802.5 80.256 801.263 79.9147 800.175 79.232C799.087 78.5493 798.233 77.5787 797.615 76.32C797.017 75.0613 796.719 73.5893 796.719 71.904C796.719 70.1973 797.028 68.704 797.647 67.424C798.265 66.1227 799.108 65.1093 800.175 64.384C801.263 63.6587 802.5 63.296 803.887 63.296C805.124 63.296 806.233 63.6053 807.215 64.224C808.217 64.8213 808.9 65.6107 809.263 66.592L808.879 66.816V63.744H814.575V80H808.879V77.024H809.263C808.9 78.0267 808.217 78.816 807.215 79.392C806.233 79.968 805.124 80.256 803.887 80.256ZM805.679 75.936C806.681 75.936 807.46 75.584 808.015 74.88C808.591 74.176 808.879 73.1627 808.879 71.84C808.879 70.4747 808.601 69.44 808.047 68.736C807.492 68.032 806.703 67.68 805.679 67.68C804.676 67.68 803.887 68.0533 803.311 68.8C802.735 69.5253 802.447 70.56 802.447 71.904C802.447 73.2053 802.724 74.208 803.279 74.912C803.833 75.5947 804.633 75.936 805.679 75.936ZM818.017 80V68.416C818.017 67.648 817.996 66.8693 817.953 66.08C817.932 65.2907 817.868 64.512 817.761 63.744H823.201L823.745 68.128L823.201 67.808C823.414 66.336 824.001 65.2267 824.961 64.48C825.942 63.7333 827.052 63.36 828.289 63.36C828.694 63.36 829.046 63.392 829.345 63.456C829.644 63.52 829.9 63.6053 830.113 63.712V68.992C829.196 68.5653 828.31 68.352 827.457 68.352C826.689 68.352 826.038 68.48 825.505 68.736C824.972 68.9707 824.556 69.344 824.257 69.856C823.958 70.368 823.809 71.0293 823.809 71.84V80H818.017ZM831.854 68V63.744H844.59V68H831.854ZM844.622 75.392V79.776C844.131 79.968 843.64 80.096 843.15 80.16C842.659 80.224 842.147 80.256 841.614 80.256C839.374 80.256 837.688 79.6267 836.558 78.368C835.448 77.1093 834.894 75.4027 834.894 73.248V60.064L840.686 58.208V73.248C840.686 73.7813 840.792 74.2293 841.006 74.592C841.24 74.9333 841.539 75.1893 841.902 75.36C842.264 75.5093 842.659 75.584 843.086 75.584C843.299 75.584 843.523 75.5733 843.758 75.552C844.014 75.5093 844.302 75.456 844.622 75.392ZM846.798 80V63.744H852.59V80H846.798ZM846.638 55.776H852.686V60.992H846.638V55.776ZM862.608 80.256C859.366 80.256 856.806 79.6053 854.928 78.304L856.4 74.368C857.275 74.9653 858.267 75.4347 859.376 75.776C860.507 76.096 861.595 76.256 862.64 76.256C863.302 76.256 863.814 76.16 864.176 75.968C864.539 75.776 864.72 75.5093 864.72 75.168C864.72 74.8693 864.582 74.6347 864.304 74.464C864.048 74.2933 863.547 74.1227 862.8 73.952L860.176 73.344C858.512 73.0027 857.307 72.4693 856.56 71.744C855.835 70.9973 855.472 69.9733 855.472 68.672C855.472 67.6267 855.782 66.6987 856.4 65.888C857.019 65.0773 857.872 64.448 858.96 64C860.07 63.5307 861.339 63.296 862.768 63.296C863.963 63.296 865.126 63.4773 866.256 63.84C867.387 64.1813 868.432 64.6507 869.392 65.248L867.856 69.088C867.003 68.5333 866.128 68.1067 865.232 67.808C864.336 67.5093 863.494 67.36 862.704 67.36C862.086 67.36 861.584 67.4667 861.2 67.68C860.838 67.872 860.656 68.16 860.656 68.544C860.656 68.7787 860.763 68.9707 860.976 69.12C861.19 69.248 861.595 69.3867 862.192 69.536L864.912 70.144C866.64 70.528 867.878 71.1147 868.624 71.904C869.392 72.6933 869.776 73.76 869.776 75.104C869.776 76.704 869.136 77.9627 867.856 78.88C866.598 79.7973 864.848 80.256 862.608 80.256ZM870.479 68V63.744H883.215V68H870.479ZM883.247 75.392V79.776C882.756 79.968 882.265 80.096 881.775 80.16C881.284 80.224 880.772 80.256 880.239 80.256C877.999 80.256 876.313 79.6267 875.183 78.368C874.073 77.1093 873.519 75.4027 873.519 73.248V60.064L879.311 58.208V73.248C879.311 73.7813 879.417 74.2293 879.631 74.592C879.865 74.9333 880.164 75.1893 880.527 75.36C880.889 75.5093 881.284 75.584 881.711 75.584C881.924 75.584 882.148 75.5733 882.383 75.552C882.639 75.5093 882.927 75.456 883.247 75.392ZM891.855 80.256C890.469 80.256 889.231 79.9147 888.143 79.232C887.055 78.5493 886.202 77.5787 885.583 76.32C884.986 75.0613 884.687 73.5893 884.687 71.904C884.687 70.1973 884.997 68.704 885.615 67.424C886.234 66.1227 887.077 65.1093 888.143 64.384C889.231 63.6587 890.469 63.296 891.855 63.296C893.093 63.296 894.202 63.6053 895.183 64.224C896.186 64.8213 896.869 65.6107 897.231 66.592L896.847 66.816V63.744H902.543V80H896.847V77.024H897.231C896.869 78.0267 896.186 78.816 895.183 79.392C894.202 79.968 893.093 80.256 891.855 80.256ZM893.647 75.936C894.65 75.936 895.429 75.584 895.983 74.88C896.559 74.176 896.847 73.1627 896.847 71.84C896.847 70.4747 896.57 69.44 896.015 68.736C895.461 68.032 894.671 67.68 893.647 67.68C892.645 67.68 891.855 68.0533 891.279 68.8C890.703 69.5253 890.415 70.56 890.415 71.904C890.415 73.2053 890.693 74.208 891.247 74.912C891.802 75.5947 892.602 75.936 893.647 75.936ZM912.546 80.256C909.303 80.256 906.743 79.6053 904.866 78.304L906.338 74.368C907.212 74.9653 908.204 75.4347 909.314 75.776C910.444 76.096 911.532 76.256 912.578 76.256C913.239 76.256 913.751 76.16 914.114 75.968C914.476 75.776 914.658 75.5093 914.658 75.168C914.658 74.8693 914.519 74.6347 914.242 74.464C913.986 74.2933 913.484 74.1227 912.738 73.952L910.114 73.344C908.45 73.0027 907.244 72.4693 906.498 71.744C905.772 70.9973 905.41 69.9733 905.41 68.672C905.41 67.6267 905.719 66.6987 906.338 65.888C906.956 65.0773 907.81 64.448 908.898 64C910.007 63.5307 911.276 63.296 912.706 63.296C913.9 63.296 915.063 63.4773 916.194 63.84C917.324 64.1813 918.37 64.6507 919.33 65.248L917.794 69.088C916.94 68.5333 916.066 68.1067 915.17 67.808C914.274 67.5093 913.431 67.36 912.642 67.36C912.023 67.36 911.522 67.4667 911.138 67.68C910.775 67.872 910.594 68.16 910.594 68.544C910.594 68.7787 910.7 68.9707 910.914 69.12C911.127 69.248 911.532 69.3867 912.13 69.536L914.85 70.144C916.578 70.528 917.815 71.1147 918.562 71.904C919.33 72.6933 919.714 73.76 919.714 75.104C919.714 76.704 919.074 77.9627 917.794 78.88C916.535 79.7973 914.786 80.256 912.546 80.256ZM946.206 78.336C945.395 78.9547 944.414 79.4347 943.262 79.776C942.11 80.096 940.958 80.256 939.806 80.256C937.928 80.256 936.307 79.9147 934.942 79.232C933.598 78.5493 932.563 77.5787 931.838 76.32C931.112 75.04 930.75 73.536 930.75 71.808C930.75 70.144 931.091 68.672 931.774 67.392C932.478 66.112 933.438 65.1093 934.654 64.384C935.87 63.6587 937.278 63.296 938.878 63.296C940.435 63.296 941.779 63.6373 942.91 64.32C944.062 65.0027 944.947 65.9733 945.566 67.232C946.184 68.4907 946.494 69.9733 946.494 71.68V72.448H935.87L935.934 69.76H943.006L941.598 70.688C941.598 69.536 941.374 68.6827 940.926 68.128C940.499 67.552 939.87 67.264 939.038 67.264C938.12 67.264 937.416 67.6053 936.926 68.288C936.456 68.9493 936.222 69.9627 936.222 71.328C936.222 73.0133 936.531 74.2187 937.15 74.944C937.768 75.648 938.75 76 940.094 76C940.904 76 941.715 75.872 942.526 75.616C943.358 75.3387 944.094 74.9653 944.734 74.496L946.206 78.336ZM949.173 80V68.416C949.173 67.648 949.152 66.8693 949.109 66.08C949.088 65.2907 949.024 64.512 948.917 63.744H954.357L954.741 66.816L954.357 66.656C954.955 65.5893 955.733 64.768 956.693 64.192C957.675 63.5947 958.795 63.296 960.053 63.296C963.872 63.296 965.781 65.632 965.781 70.304V80H959.989V70.56C959.989 69.5573 959.819 68.8427 959.477 68.416C959.136 67.968 958.603 67.744 957.877 67.744C957.003 67.744 956.299 68.0427 955.765 68.64C955.232 69.216 954.965 69.984 954.965 70.944V80H949.173ZM608.987 118.336C608.176 118.955 607.195 119.435 606.043 119.776C604.891 120.096 603.739 120.256 602.587 120.256C600.71 120.256 599.088 119.915 597.723 119.232C596.379 118.549 595.344 117.579 594.619 116.32C593.894 115.04 593.531 113.536 593.531 111.808C593.531 110.144 593.872 108.672 594.555 107.392C595.259 106.112 596.219 105.109 597.435 104.384C598.651 103.659 600.059 103.296 601.659 103.296C603.216 103.296 604.56 103.637 605.691 104.32C606.843 105.003 607.728 105.973 608.347 107.232C608.966 108.491 609.275 109.973 609.275 111.68V112.448H598.651L598.715 109.76H605.787L604.379 110.688C604.379 109.536 604.155 108.683 603.707 108.128C603.28 107.552 602.651 107.264 601.819 107.264C600.902 107.264 600.198 107.605 599.707 108.288C599.238 108.949 599.003 109.963 599.003 111.328C599.003 113.013 599.312 114.219 599.931 114.944C600.55 115.648 601.531 116 602.875 116C603.686 116 604.496 115.872 605.307 115.616C606.139 115.339 606.875 114.965 607.515 114.496L608.987 118.336ZM611.955 120V96.448H617.747V120H611.955ZM638.55 120.256C636.715 120.256 635.136 119.925 633.814 119.264C632.491 118.581 631.478 117.611 630.774 116.352C630.091 115.093 629.75 113.611 629.75 111.904C629.75 110.176 630.123 108.672 630.87 107.392C631.638 106.091 632.694 105.088 634.038 104.384C635.403 103.659 636.992 103.296 638.806 103.296C640 103.296 641.174 103.477 642.326 103.84C643.478 104.181 644.395 104.651 645.078 105.248L643.606 109.248C643.03 108.779 642.358 108.405 641.59 108.128C640.822 107.851 640.086 107.712 639.382 107.712C638.23 107.712 637.323 108.043 636.662 108.704C636 109.365 635.67 110.389 635.67 111.776C635.67 113.184 635.99 114.229 636.63 114.912C637.291 115.573 638.219 115.904 639.414 115.904C640.096 115.904 640.822 115.776 641.59 115.52C642.358 115.243 643.03 114.859 643.606 114.368L645.078 118.304C644.352 118.923 643.403 119.403 642.23 119.744C641.078 120.085 639.851 120.256 638.55 120.256ZM646.955 120V96.448H652.747V107.04L652.139 106.656C652.736 105.589 653.515 104.768 654.475 104.192C655.456 103.595 656.576 103.296 657.835 103.296C661.653 103.296 663.563 105.632 663.563 110.304V120H657.771V110.56C657.771 109.557 657.6 108.843 657.259 108.416C656.917 107.968 656.384 107.744 655.659 107.744C654.784 107.744 654.08 108.043 653.547 108.64C653.013 109.216 652.747 109.984 652.747 110.944V120H646.955ZM673.355 120.256C671.969 120.256 670.731 119.915 669.643 119.232C668.555 118.549 667.702 117.579 667.083 116.32C666.486 115.061 666.187 113.589 666.187 111.904C666.187 110.197 666.497 108.704 667.115 107.424C667.734 106.123 668.577 105.109 669.643 104.384C670.731 103.659 671.969 103.296 673.355 103.296C674.593 103.296 675.702 103.605 676.683 104.224C677.686 104.821 678.369 105.611 678.731 106.592L678.347 106.816V103.744H684.043V120H678.347V117.024H678.731C678.369 118.027 677.686 118.816 676.683 119.392C675.702 119.968 674.593 120.256 673.355 120.256ZM675.147 115.936C676.15 115.936 676.929 115.584 677.483 114.88C678.059 114.176 678.347 113.163 678.347 111.84C678.347 110.475 678.07 109.44 677.515 108.736C676.961 108.032 676.171 107.68 675.147 107.68C674.145 107.68 673.355 108.053 672.779 108.8C672.203 109.525 671.915 110.56 671.915 111.904C671.915 113.205 672.193 114.208 672.747 114.912C673.302 115.595 674.102 115.936 675.147 115.936ZM687.486 120V108.416C687.486 107.648 687.464 106.869 687.422 106.08C687.4 105.291 687.336 104.512 687.23 103.744H692.67L693.214 108.128L692.67 107.808C692.883 106.336 693.47 105.227 694.43 104.48C695.411 103.733 696.52 103.36 697.758 103.36C698.163 103.36 698.515 103.392 698.814 103.456C699.112 103.52 699.368 103.605 699.582 103.712V108.992C698.664 108.565 697.779 108.352 696.926 108.352C696.158 108.352 695.507 108.48 694.974 108.736C694.44 108.971 694.024 109.344 693.726 109.856C693.427 110.368 693.278 111.029 693.278 111.84V120H687.486ZM701.323 108V103.744H714.059V108H701.323ZM714.091 115.392V119.776C713.6 119.968 713.109 120.096 712.619 120.16C712.128 120.224 711.616 120.256 711.083 120.256C708.843 120.256 707.157 119.627 706.027 118.368C704.917 117.109 704.363 115.403 704.363 113.248V100.064L710.155 98.208V113.248C710.155 113.781 710.261 114.229 710.475 114.592C710.709 114.933 711.008 115.189 711.371 115.36C711.733 115.509 712.128 115.584 712.555 115.584C712.768 115.584 712.992 115.573 713.227 115.552C713.483 115.509 713.771 115.456 714.091 115.392ZM719.573 125.024L717.429 123.296C718.239 122.485 718.826 121.707 719.189 120.96C719.573 120.235 719.765 119.445 719.765 118.592L721.077 120H716.853V114.048H722.901V117.792C722.901 119.157 722.655 120.405 722.165 121.536C721.674 122.667 720.81 123.829 719.573 125.024ZM735.426 120V115.584L742.85 107.84C743.532 107.115 744.044 106.421 744.386 105.76C744.748 105.077 744.93 104.416 744.93 103.776C744.93 103.029 744.706 102.475 744.258 102.112C743.81 101.749 743.159 101.568 742.306 101.568C741.41 101.568 740.46 101.749 739.458 102.112C738.455 102.453 737.463 102.955 736.482 103.616L734.594 99.36C735.511 98.6133 736.695 98.0267 738.146 97.6C739.618 97.152 741.111 96.928 742.626 96.928C744.268 96.928 745.698 97.1947 746.914 97.728C748.151 98.24 749.1 98.9867 749.762 99.968C750.444 100.928 750.786 102.059 750.786 103.36C750.786 104.704 750.519 105.92 749.986 107.008C749.474 108.075 748.588 109.269 747.33 110.592L741.282 116.768L740.45 115.232H751.49V120H735.426ZM762.42 120.288C759.604 120.288 757.439 119.285 755.924 117.28C754.431 115.275 753.684 112.373 753.684 108.576C753.684 104.843 754.431 101.984 755.924 100C757.439 97.9947 759.604 96.992 762.42 96.992C765.236 96.992 767.391 97.9947 768.884 100C770.399 101.984 771.156 104.843 771.156 108.576C771.156 112.373 770.399 115.275 768.884 117.28C767.391 119.285 765.236 120.288 762.42 120.288ZM762.42 115.776C763.444 115.776 764.18 115.221 764.628 114.112C765.076 112.981 765.3 111.136 765.3 108.576C765.3 106.08 765.076 104.277 764.628 103.168C764.18 102.059 763.444 101.504 762.42 101.504C761.396 101.504 760.66 102.059 760.212 103.168C759.764 104.277 759.54 106.08 759.54 108.576C759.54 111.136 759.764 112.981 760.212 114.112C760.66 115.221 761.396 115.776 762.42 115.776ZM779.848 117.216V102.176H782.6L775.272 106.368V101.216L782.312 97.216H785.832V117.216H779.848ZM774.952 120V115.232H790.76V120H774.952ZM800.795 120.288C797.979 120.288 795.814 119.285 794.299 117.28C792.806 115.275 792.059 112.373 792.059 108.576C792.059 104.843 792.806 101.984 794.299 100C795.814 97.9947 797.979 96.992 800.795 96.992C803.611 96.992 805.766 97.9947 807.259 100C808.774 101.984 809.531 104.843 809.531 108.576C809.531 112.373 808.774 115.275 807.259 117.28C805.766 119.285 803.611 120.288 800.795 120.288ZM800.795 115.776C801.819 115.776 802.555 115.221 803.003 114.112C803.451 112.981 803.675 111.136 803.675 108.576C803.675 106.08 803.451 104.277 803.003 103.168C802.555 102.059 801.819 101.504 800.795 101.504C799.771 101.504 799.035 102.059 798.587 103.168C798.139 104.277 797.915 106.08 797.915 108.576C797.915 111.136 798.139 112.981 798.587 114.112C799.035 115.221 799.771 115.776 800.795 115.776ZM826.192 120L819.056 103.776H825.072L829.232 114.464H828.176L832.496 103.776H838.192L830.96 120H826.192ZM845.702 120.256C842.459 120.256 839.899 119.605 838.022 118.304L839.494 114.368C840.369 114.965 841.361 115.435 842.47 115.776C843.601 116.096 844.689 116.256 845.734 116.256C846.395 116.256 846.907 116.16 847.27 115.968C847.633 115.776 847.814 115.509 847.814 115.168C847.814 114.869 847.675 114.635 847.398 114.464C847.142 114.293 846.641 114.123 845.894 113.952L843.27 113.344C841.606 113.003 840.401 112.469 839.654 111.744C838.929 110.997 838.566 109.973 838.566 108.672C838.566 107.627 838.875 106.699 839.494 105.888C840.113 105.077 840.966 104.448 842.054 104C843.163 103.531 844.433 103.296 845.862 103.296C847.057 103.296 848.219 103.477 849.35 103.84C850.481 104.181 851.526 104.651 852.486 105.248L850.95 109.088C850.097 108.533 849.222 108.107 848.326 107.808C847.43 107.509 846.587 107.36 845.798 107.36C845.179 107.36 844.678 107.467 844.294 107.68C843.931 107.872 843.75 108.16 843.75 108.544C843.75 108.779 843.857 108.971 844.07 109.12C844.283 109.248 844.689 109.387 845.286 109.536L848.006 110.144C849.734 110.528 850.971 111.115 851.718 111.904C852.486 112.693 852.87 113.76 852.87 115.104C852.87 116.704 852.23 117.963 850.95 118.88C849.691 119.797 847.942 120.256 845.702 120.256ZM864.738 120V115.584L872.162 107.84C872.845 107.115 873.357 106.421 873.698 105.76C874.061 105.077 874.242 104.416 874.242 103.776C874.242 103.029 874.018 102.475 873.57 102.112C873.122 101.749 872.471 101.568 871.618 101.568C870.722 101.568 869.773 101.749 868.77 102.112C867.767 102.453 866.775 102.955 865.794 103.616L863.906 99.36C864.823 98.6133 866.007 98.0267 867.458 97.6C868.93 97.152 870.423 96.928 871.938 96.928C873.581 96.928 875.01 97.1947 876.226 97.728C877.463 98.24 878.413 98.9867 879.074 99.968C879.757 100.928 880.098 102.059 880.098 103.36C880.098 104.704 879.831 105.92 879.298 107.008C878.786 108.075 877.901 109.269 876.642 110.592L870.594 116.768L869.762 115.232H880.802V120H864.738ZM891.733 120.288C888.917 120.288 886.751 119.285 885.237 117.28C883.743 115.275 882.997 112.373 882.997 108.576C882.997 104.843 883.743 101.984 885.237 100C886.751 97.9947 888.917 96.992 891.733 96.992C894.549 96.992 896.703 97.9947 898.197 100C899.711 101.984 900.469 104.843 900.469 108.576C900.469 112.373 899.711 115.275 898.197 117.28C896.703 119.285 894.549 120.288 891.733 120.288ZM891.733 115.776C892.757 115.776 893.493 115.221 893.941 114.112C894.389 112.981 894.613 111.136 894.613 108.576C894.613 106.08 894.389 104.277 893.941 103.168C893.493 102.059 892.757 101.504 891.733 101.504C890.709 101.504 889.973 102.059 889.525 103.168C889.077 104.277 888.853 106.08 888.853 108.576C888.853 111.136 889.077 112.981 889.525 114.112C889.973 115.221 890.709 115.776 891.733 115.776ZM903.144 120V115.584L910.568 107.84C911.251 107.115 911.763 106.421 912.104 105.76C912.467 105.077 912.648 104.416 912.648 103.776C912.648 103.029 912.424 102.475 911.976 102.112C911.528 101.749 910.878 101.568 910.024 101.568C909.128 101.568 908.179 101.749 907.176 102.112C906.174 102.453 905.182 102.955 904.2 103.616L902.312 99.36C903.23 98.6133 904.414 98.0267 905.864 97.6C907.336 97.152 908.83 96.928 910.344 96.928C911.987 96.928 913.416 97.1947 914.632 97.728C915.87 98.24 916.819 98.9867 917.48 99.968C918.163 100.928 918.504 102.059 918.504 103.36C918.504 104.704 918.238 105.92 917.704 107.008C917.192 108.075 916.307 109.269 915.048 110.592L909 116.768L908.168 115.232H919.208V120H903.144ZM930.139 120.288C927.323 120.288 925.158 119.285 923.643 117.28C922.15 115.275 921.403 112.373 921.403 108.576C921.403 104.843 922.15 101.984 923.643 100C925.158 97.9947 927.323 96.992 930.139 96.992C932.955 96.992 935.11 97.9947 936.603 100C938.118 101.984 938.875 104.843 938.875 108.576C938.875 112.373 938.118 115.275 936.603 117.28C935.11 119.285 932.955 120.288 930.139 120.288ZM930.139 115.776C931.163 115.776 931.899 115.221 932.347 114.112C932.795 112.981 933.019 111.136 933.019 108.576C933.019 106.08 932.795 104.277 932.347 103.168C931.899 102.059 931.163 101.504 930.139 101.504C929.115 101.504 928.379 102.059 927.931 103.168C927.483 104.277 927.259 106.08 927.259 108.576C927.259 111.136 927.483 112.981 927.931 114.112C928.379 115.221 929.115 115.776 930.139 115.776Z" fill="#DEE2E8"/>
<path d="M643.456 441H1043" stroke="#C57AFF" stroke-opacity="0.15"/>
<path d="M643.456 324H1043" stroke="#C57AFF" stroke-opacity="0.15"/>
<path d="M642.539 558L1042.08 558" stroke="#C57AFF" stroke-opacity="0.15"/>
<path d="M643.456 207H1043" stroke="#C57AFF" stroke-opacity="0.15"/>
<path d="M626.495 564.144C625.055 564.144 623.963 563.592 623.219 562.488C622.475 561.372 622.103 559.74 622.103 557.592C622.103 555.432 622.469 553.8 623.201 552.696C623.945 551.592 625.043 551.04 626.495 551.04C627.947 551.04 629.039 551.592 629.771 552.696C630.515 553.8 630.887 555.426 630.887 557.574C630.887 559.722 630.515 561.354 629.771 562.47C629.027 563.586 627.935 564.144 626.495 564.144ZM626.495 563.154C627.599 563.154 628.415 562.704 628.943 561.804C629.483 560.892 629.753 559.482 629.753 557.574C629.753 555.666 629.489 554.268 628.961 553.38C628.433 552.48 627.611 552.03 626.495 552.03C625.391 552.03 624.569 552.48 624.029 553.38C623.501 554.28 623.237 555.678 623.237 557.574C623.237 559.47 623.501 560.874 624.029 561.786C624.569 562.698 625.391 563.154 626.495 563.154Z" fill="#DEE2E8"/>
<path d="M609.211 447V446.154L613.765 441.078C614.401 440.346 614.863 439.698 615.151 439.134C615.451 438.558 615.601 437.976 615.601 437.388C615.601 436.632 615.379 436.05 614.935 435.642C614.503 435.222 613.879 435.012 613.063 435.012C612.415 435.012 611.785 435.144 611.173 435.408C610.573 435.66 609.973 436.044 609.373 436.56L608.905 435.678C609.409 435.186 610.039 434.79 610.795 434.49C611.551 434.19 612.307 434.04 613.063 434.04C613.819 434.04 614.467 434.172 615.007 434.436C615.559 434.7 615.985 435.084 616.285 435.588C616.585 436.08 616.735 436.668 616.735 437.352C616.735 438.084 616.561 438.798 616.213 439.494C615.877 440.178 615.325 440.952 614.557 441.816L610.039 446.748L610.021 446.046H617.293V447H609.211ZM626.25 447.144C624.81 447.144 623.718 446.592 622.974 445.488C622.23 444.372 621.858 442.74 621.858 440.592C621.858 438.432 622.224 436.8 622.956 435.696C623.7 434.592 624.798 434.04 626.25 434.04C627.702 434.04 628.794 434.592 629.526 435.696C630.27 436.8 630.642 438.426 630.642 440.574C630.642 442.722 630.27 444.354 629.526 445.47C628.782 446.586 627.69 447.144 626.25 447.144ZM626.25 446.154C627.354 446.154 628.17 445.704 628.698 444.804C629.238 443.892 629.508 442.482 629.508 440.574C629.508 438.666 629.244 437.268 628.716 436.38C628.188 435.48 627.366 435.03 626.25 435.03C625.146 435.03 624.324 435.48 623.784 436.38C623.256 437.28 622.992 438.678 622.992 440.574C622.992 442.47 623.256 443.874 623.784 444.786C624.324 445.698 625.146 446.154 626.25 446.154Z" fill="#DEE2E8"/>
<path d="M614.647 329.97V318.54H615.061L609.319 326.838L609.337 326.1H617.743V327.054H608.599V326.208L614.845 317.154H615.763V329.97H614.647ZM626.25 330.114C624.81 330.114 623.718 329.562 622.974 328.458C622.23 327.342 621.858 325.71 621.858 323.562C621.858 321.402 622.224 319.77 622.956 318.666C623.7 317.562 624.798 317.01 626.25 317.01C627.702 317.01 628.794 317.562 629.526 318.666C630.27 319.77 630.642 321.396 630.642 323.544C630.642 325.692 630.27 327.324 629.526 328.44C628.782 329.556 627.69 330.114 626.25 330.114ZM626.25 329.124C627.354 329.124 628.17 328.674 628.698 327.774C629.238 326.862 629.508 325.452 629.508 323.544C629.508 321.636 629.244 320.238 628.716 319.35C628.188 318.45 627.366 318 626.25 318C625.146 318 624.324 318.45 623.784 319.35C623.256 320.25 622.992 321.648 622.992 323.544C622.992 325.44 623.256 326.844 623.784 327.756C624.324 328.668 625.146 329.124 626.25 329.124Z" fill="#DEE2E8"/>
<path d="M613.423 215.144C611.911 215.144 610.741 214.61 609.913 213.542C609.097 212.474 608.689 210.944 608.689 208.952C608.689 207.488 608.881 206.24 609.265 205.208C609.649 204.176 610.201 203.39 610.921 202.85C611.641 202.31 612.499 202.04 613.495 202.04C614.227 202.04 614.935 202.184 615.619 202.472C616.303 202.748 616.915 203.15 617.455 203.678L617.005 204.56C616.393 204.02 615.805 203.63 615.241 203.39C614.677 203.138 614.101 203.012 613.513 203.012C612.349 203.012 611.437 203.534 610.777 204.578C610.129 205.61 609.805 207.068 609.805 208.952V210.752L609.607 210.248C609.703 209.6 609.925 209.036 610.273 208.556C610.633 208.064 611.083 207.692 611.623 207.44C612.175 207.176 612.787 207.044 613.459 207.044C614.263 207.044 614.965 207.212 615.565 207.548C616.165 207.884 616.633 208.358 616.969 208.97C617.305 209.57 617.473 210.272 617.473 211.076C617.473 211.856 617.299 212.558 616.951 213.182C616.615 213.794 616.141 214.274 615.529 214.622C614.917 214.97 614.215 215.144 613.423 215.144ZM613.387 214.172C614.275 214.172 614.989 213.89 615.529 213.326C616.081 212.762 616.357 212.012 616.357 211.076C616.357 210.152 616.081 209.414 615.529 208.862C614.977 208.298 614.251 208.016 613.351 208.016C612.751 208.016 612.217 208.148 611.749 208.412C611.281 208.664 610.915 209.024 610.651 209.492C610.387 209.948 610.255 210.476 610.255 211.076C610.255 211.7 610.387 212.246 610.651 212.714C610.915 213.17 611.281 213.53 611.749 213.794C612.217 214.046 612.763 214.172 613.387 214.172ZM626.25 215.144C624.81 215.144 623.718 214.592 622.974 213.488C622.23 212.372 621.858 210.74 621.858 208.592C621.858 206.432 622.224 204.8 622.956 203.696C623.7 202.592 624.798 202.04 626.25 202.04C627.702 202.04 628.794 202.592 629.526 203.696C630.27 204.8 630.642 206.426 630.642 208.574C630.642 210.722 630.27 212.354 629.526 213.47C628.782 214.586 627.69 215.144 626.25 215.144ZM626.25 214.154C627.354 214.154 628.17 213.704 628.698 212.804C629.238 211.892 629.508 210.482 629.508 208.574C629.508 206.666 629.244 205.268 628.716 204.38C628.188 203.48 627.366 203.03 626.25 203.03C625.146 203.03 624.324 203.48 623.784 204.38C623.256 205.28 622.992 206.678 622.992 208.574C622.992 210.47 623.256 211.874 623.784 212.786C624.324 213.698 625.146 214.154 626.25 214.154Z" fill="#DEE2E8"/>
<path d="M728.634 275V263.456H729.474L725.13 269.672V268.688H735.258V272.12H721.794V268.808L729.45 257.912H733.05V275H728.634ZM743.312 275.216C741.04 275.216 739.28 274.48 738.032 273.008C736.784 271.52 736.16 269.392 736.16 266.624C736.16 264.768 736.456 263.176 737.048 261.848C737.656 260.504 738.52 259.48 739.64 258.776C740.76 258.056 742.088 257.696 743.624 257.696C744.696 257.696 745.736 257.856 746.744 258.176C747.768 258.48 748.632 258.928 749.336 259.52L747.92 262.712C747.152 262.152 746.416 261.76 745.712 261.536C745.008 261.296 744.384 261.176 743.84 261.176C742.768 261.176 741.96 261.624 741.416 262.52C740.888 263.416 740.624 264.752 740.624 266.528V266.864L740.216 266.312C740.376 265.8 740.648 265.352 741.032 264.968C741.416 264.584 741.88 264.288 742.424 264.08C742.984 263.856 743.576 263.744 744.2 263.744C745.192 263.744 746.072 263.984 746.84 264.464C747.608 264.944 748.208 265.608 748.64 266.456C749.088 267.288 749.312 268.24 749.312 269.312C749.312 270.464 749.056 271.488 748.544 272.384C748.032 273.264 747.32 273.96 746.408 274.472C745.512 274.968 744.48 275.216 743.312 275.216ZM743.072 271.76C743.696 271.76 744.192 271.552 744.56 271.136C744.928 270.72 745.112 270.176 745.112 269.504C745.112 268.8 744.928 268.248 744.56 267.848C744.208 267.432 743.712 267.224 743.072 267.224C742.672 267.224 742.312 267.32 741.992 267.512C741.688 267.688 741.448 267.952 741.272 268.304C741.112 268.64 741.032 269.04 741.032 269.504C741.032 269.952 741.112 270.344 741.272 270.68C741.448 271.016 741.688 271.28 741.992 271.472C742.312 271.664 742.672 271.76 743.072 271.76Z" fill="#DEE2E8"/>
<path d="M783.536 297H687.536V558H783.536V297Z" fill="url(#paint4_linear_231_3353)"/>
<path d="M711.889 592V591.154L716.443 586.078C717.079 585.346 717.541 584.698 717.829 584.134C718.129 583.558 718.279 582.976 718.279 582.388C718.279 581.632 718.057 581.05 717.613 580.642C717.181 580.222 716.557 580.012 715.741 580.012C715.093 580.012 714.463 580.144 713.851 580.408C713.251 580.66 712.651 581.044 712.051 581.56L711.583 580.678C712.087 580.186 712.717 579.79 713.473 579.49C714.229 579.19 714.985 579.04 715.741 579.04C716.497 579.04 717.145 579.172 717.685 579.436C718.237 579.7 718.663 580.084 718.963 580.588C719.263 581.08 719.413 581.668 719.413 582.352C719.413 583.084 719.239 583.798 718.891 584.494C718.555 585.178 718.003 585.952 717.235 586.816L712.717 591.748L712.699 591.046H719.971V592H711.889ZM728.928 592.144C727.488 592.144 726.396 591.592 725.652 590.488C724.908 589.372 724.536 587.74 724.536 585.592C724.536 583.432 724.902 581.8 725.634 580.696C726.378 579.592 727.476 579.04 728.928 579.04C730.38 579.04 731.472 579.592 732.204 580.696C732.948 581.8 733.32 583.426 733.32 585.574C733.32 587.722 732.948 589.354 732.204 590.47C731.46 591.586 730.368 592.144 728.928 592.144ZM728.928 591.154C730.032 591.154 730.848 590.704 731.376 589.804C731.916 588.892 732.186 587.482 732.186 585.574C732.186 583.666 731.922 582.268 731.394 581.38C730.866 580.48 730.044 580.03 728.928 580.03C727.824 580.03 727.002 580.48 726.462 581.38C725.934 582.28 725.67 583.678 725.67 585.574C725.67 587.47 725.934 588.874 726.462 589.786C727.002 590.698 727.824 591.154 728.928 591.154ZM742.025 591.514V579.652L742.745 580.192L739.379 582.37V581.236L742.511 579.184H743.141V591.514H742.025ZM739.181 592V591.046H745.985V592H739.181ZM755.374 592.144C753.934 592.144 752.842 591.592 752.098 590.488C751.354 589.372 750.982 587.74 750.982 585.592C750.982 583.432 751.348 581.8 752.08 580.696C752.824 579.592 753.922 579.04 755.374 579.04C756.826 579.04 757.918 579.592 758.65 580.696C759.394 581.8 759.766 583.426 759.766 585.574C759.766 587.722 759.394 589.354 758.65 590.47C757.906 591.586 756.814 592.144 755.374 592.144ZM755.374 591.154C756.478 591.154 757.294 590.704 757.822 589.804C758.362 588.892 758.632 587.482 758.632 585.574C758.632 583.666 758.368 582.268 757.84 581.38C757.312 580.48 756.49 580.03 755.374 580.03C754.27 580.03 753.448 580.48 752.908 581.38C752.38 582.28 752.116 583.678 752.116 585.574C752.116 587.47 752.38 588.874 752.908 589.786C753.448 590.698 754.27 591.154 755.374 591.154Z" fill="#DEE2E8"/>
<path d="M890.034 208.192C888.93 208.192 887.834 208.032 886.746 207.712C885.658 207.376 884.786 206.928 884.13 206.368L885.522 203.176C886.274 203.688 887.034 204.072 887.802 204.328C888.57 204.584 889.338 204.712 890.106 204.712C891.002 204.712 891.666 204.536 892.098 204.184C892.53 203.816 892.746 203.256 892.746 202.504C892.746 202.008 892.642 201.592 892.434 201.256C892.226 200.92 891.93 200.664 891.546 200.488C891.162 200.312 890.698 200.224 890.154 200.224C889.706 200.224 889.218 200.304 888.69 200.464C888.162 200.608 887.682 200.8 887.25 201.04H884.778V190.912H896.058V194.32H889.146V198.352L887.826 198.112C888.322 197.664 888.866 197.336 889.458 197.128C890.05 196.904 890.73 196.792 891.498 196.792C892.57 196.792 893.514 197.024 894.33 197.488C895.146 197.952 895.786 198.6 896.25 199.432C896.73 200.248 896.97 201.208 896.97 202.312C896.97 203.512 896.682 204.552 896.106 205.432C895.546 206.312 894.746 206.992 893.706 207.472C892.666 207.952 891.442 208.192 890.034 208.192ZM904.136 190.696C906.424 190.696 908.184 191.44 909.416 192.928C910.664 194.4 911.288 196.52 911.288 199.288C911.288 201.144 910.984 202.744 910.376 204.088C909.784 205.416 908.928 206.44 907.808 207.16C906.704 207.864 905.384 208.216 903.848 208.216C902.776 208.216 901.728 208.064 900.704 207.76C899.696 207.44 898.84 206.984 898.136 206.392L899.552 203.2C900.336 203.76 901.072 204.16 901.76 204.4C902.464 204.624 903.088 204.736 903.632 204.736C904.704 204.736 905.504 204.288 906.032 203.392C906.576 202.496 906.848 201.16 906.848 199.384V199.048L907.256 199.6C907.096 200.112 906.816 200.56 906.416 200.944C906.032 201.328 905.568 201.632 905.024 201.856C904.48 202.064 903.888 202.168 903.248 202.168C902.272 202.168 901.4 201.928 900.632 201.448C899.864 200.968 899.256 200.312 898.808 199.48C898.36 198.632 898.136 197.672 898.136 196.6C898.136 195.448 898.392 194.432 898.904 193.552C899.432 192.656 900.144 191.96 901.04 191.464C901.936 190.952 902.968 190.696 904.136 190.696ZM904.4 194.152C903.76 194.152 903.256 194.36 902.888 194.776C902.536 195.192 902.36 195.736 902.36 196.408C902.36 197.112 902.536 197.672 902.888 198.088C903.256 198.488 903.76 198.688 904.4 198.688C904.8 198.688 905.152 198.6 905.456 198.424C905.776 198.232 906.016 197.968 906.176 197.632C906.352 197.28 906.44 196.872 906.44 196.408C906.44 195.96 906.352 195.568 906.176 195.232C906.016 194.896 905.776 194.632 905.456 194.44C905.152 194.248 904.8 194.152 904.4 194.152Z" fill="#DEE2E8"/>
<path d="M945.536 230H849.536V558H945.536V230Z" fill="url(#paint5_linear_231_3353)"/>
<path d="M873.889 592V591.154L878.443 586.078C879.079 585.346 879.541 584.698 879.829 584.134C880.129 583.558 880.279 582.976 880.279 582.388C880.279 581.632 880.057 581.05 879.613 580.642C879.181 580.222 878.557 580.012 877.741 580.012C877.093 580.012 876.463 580.144 875.851 580.408C875.251 580.66 874.651 581.044 874.051 581.56L873.583 580.678C874.087 580.186 874.717 579.79 875.473 579.49C876.229 579.19 876.985 579.04 877.741 579.04C878.497 579.04 879.145 579.172 879.685 579.436C880.237 579.7 880.663 580.084 880.963 580.588C881.263 581.08 881.413 581.668 881.413 582.352C881.413 583.084 881.239 583.798 880.891 584.494C880.555 585.178 880.003 585.952 879.235 586.816L874.717 591.748L874.699 591.046H881.971V592H873.889ZM890.928 592.144C889.488 592.144 888.396 591.592 887.652 590.488C886.908 589.372 886.536 587.74 886.536 585.592C886.536 583.432 886.902 581.8 887.634 580.696C888.378 579.592 889.476 579.04 890.928 579.04C892.38 579.04 893.472 579.592 894.204 580.696C894.948 581.8 895.32 583.426 895.32 585.574C895.32 587.722 894.948 589.354 894.204 590.47C893.46 591.586 892.368 592.144 890.928 592.144ZM890.928 591.154C892.032 591.154 892.848 590.704 893.376 589.804C893.916 588.892 894.186 587.482 894.186 585.574C894.186 583.666 893.922 582.268 893.394 581.38C892.866 580.48 892.044 580.03 890.928 580.03C889.824 580.03 889.002 580.48 888.462 581.38C887.934 582.28 887.67 583.678 887.67 585.574C887.67 587.47 887.934 588.874 888.462 589.786C889.002 590.698 889.824 591.154 890.928 591.154ZM900.335 592V591.154L904.889 586.078C905.525 585.346 905.987 584.698 906.275 584.134C906.575 583.558 906.725 582.976 906.725 582.388C906.725 581.632 906.503 581.05 906.059 580.642C905.627 580.222 905.003 580.012 904.187 580.012C903.539 580.012 902.909 580.144 902.297 580.408C901.697 580.66 901.097 581.044 900.497 581.56L900.029 580.678C900.533 580.186 901.163 579.79 901.919 579.49C902.675 579.19 903.431 579.04 904.187 579.04C904.943 579.04 905.591 579.172 906.131 579.436C906.683 579.7 907.109 580.084 907.409 580.588C907.709 581.08 907.859 581.668 907.859 582.352C907.859 583.084 907.685 583.798 907.337 584.494C907.001 585.178 906.449 585.952 905.681 586.816L901.163 591.748L901.145 591.046H908.417V592H900.335ZM917.374 592.144C915.934 592.144 914.842 591.592 914.098 590.488C913.354 589.372 912.982 587.74 912.982 585.592C912.982 583.432 913.348 581.8 914.08 580.696C914.824 579.592 915.922 579.04 917.374 579.04C918.826 579.04 919.918 579.592 920.65 580.696C921.394 581.8 921.766 583.426 921.766 585.574C921.766 587.722 921.394 589.354 920.65 590.47C919.906 591.586 918.814 592.144 917.374 592.144ZM917.374 591.154C918.478 591.154 919.294 590.704 919.822 589.804C920.362 588.892 920.632 587.482 920.632 585.574C920.632 583.666 920.368 582.268 919.84 581.38C919.312 580.48 918.49 580.03 917.374 580.03C916.27 580.03 915.448 580.48 914.908 581.38C914.38 582.28 914.116 583.678 914.116 585.574C914.116 587.47 914.38 588.874 914.908 589.786C915.448 590.698 916.27 591.154 917.374 591.154Z" fill="#DEE2E8"/>
<defs>
<linearGradient id="paint0_linear_231_3353" x1="261.73" y1="0" x2="261.73" y2="646.104" gradientUnits="userSpaceOnUse">
<stop stop-color="#0B1131"/>
<stop offset="1" stop-color="#334F79"/>
</linearGradient>
<linearGradient id="paint1_linear_231_3353" x1="190.536" y1="245" x2="190.536" y2="559" gradientUnits="userSpaceOnUse">
<stop stop-color="#EA7279"/>
<stop offset="1" stop-color="#E65F77"/>
</linearGradient>
<linearGradient id="paint2_linear_231_3353" x1="361.536" y1="220" x2="361.536" y2="559.104" gradientUnits="userSpaceOnUse">
<stop stop-color="#6E57F7"/>
<stop offset="1" stop-color="#533AEB"/>
</linearGradient>
<linearGradient id="paint3_linear_231_3353" x1="806.269" y1="0" x2="806.269" y2="645" gradientUnits="userSpaceOnUse">
<stop stop-color="#0B1131"/>
<stop offset="1" stop-color="#334F79"/>
</linearGradient>
<linearGradient id="paint4_linear_231_3353" x1="735.536" y1="297" x2="735.536" y2="558" gradientUnits="userSpaceOnUse">
<stop stop-color="#EA7279"/>
<stop offset="1" stop-color="#E65F77"/>
</linearGradient>
<linearGradient id="paint5_linear_231_3353" x1="897.536" y1="230" x2="897.536" y2="558" gradientUnits="userSpaceOnUse">
<stop stop-color="#6E57F7"/>
<stop offset="1" stop-color="#533AEB"/>
</linearGradient>
</defs>
</svg>
